<svg width="33" height="32" viewBox="0 0 33 32" fill="none" xmlns="http://www.w3.org/2000/svg">
<g id="Card Icon">
<path id="Vector" d="M13.9618 24.588L12.9535 23.5797M13.9618 24.588L18.7721 27.8299C19.3536 28.2217 20.1471 27.903 20.2959 27.2178L22.4384 17.3525M13.9618 24.588L22.4384 17.3525M7.912 18.5382L8.92031 19.5465M7.912 18.5382L4.67014 13.7279C4.27825 13.1464 4.59697 12.3529 5.28222 12.2041L15.1475 10.0616M7.912 18.5382L15.1475 10.0616M8.92031 19.5465L7.65774 20.809C7.27035 21.1964 7.27035 21.8245 7.65774 22.2119L10.2881 24.8423C10.6755 25.2297 11.3036 25.2297 11.691 24.8423L12.9535 23.5797M8.92031 19.5465L12.9535 23.5797M22.4384 17.3525L27.432 13.0899C27.6272 12.9233 27.7502 12.6876 27.7752 12.4322L28.4951 5.08888C28.5562 4.46667 28.0333 3.94385 27.4111 4.00485L20.0678 4.72479C19.8124 4.74982 19.5767 4.87284 19.4101 5.068L15.1475 10.0616M23.8199 12.6549C22.7868 13.6879 21.1119 13.6879 20.0789 12.6549C19.0459 11.6219 19.0459 9.94698 20.0789 8.91394C21.1119 7.8809 22.7868 7.8809 23.8199 8.91394C24.8529 9.94698 24.8529 11.6219 23.8199 12.6549Z" stroke="url(#paint0_linear_6053_153736)"/>
</g>
<defs>
<linearGradient id="paint0_linear_6053_153736" x1="16.5" y1="4" x2="16.5" y2="28" gradientUnits="userSpaceOnUse">
<stop stop-color="#8C4ACB"/>
<stop offset="1" stop-color="#4BA4AA"/>
</linearGradient>
</defs>
</svg>
