<svg width="23" height="26" viewBox="0 0 23 26" fill="none" xmlns="http://www.w3.org/2000/svg">
<g id="Group">
<path id="Vector" d="M0.833984 22.3333V3.66667C0.833984 2.95942 1.11494 2.28115 1.61503 1.78105C2.11513 1.28095 2.79341 1 3.50065 1H21.3673C21.5795 1 21.783 1.08429 21.933 1.23431C22.083 1.38434 22.1673 1.58783 22.1673 1.8V19.2853M3.50065 19.6667H22.1673M3.50065 25H22.1673" stroke="url(#paint0_linear_6053_131435)" stroke-linecap="round"/>
<path id="Vector_2" d="M3.50065 24.9974C2.79341 24.9974 2.11513 24.7164 1.61503 24.2163C1.11494 23.7162 0.833984 23.038 0.833984 22.3307C0.833984 21.6235 1.11494 20.9452 1.61503 20.4451C2.11513 19.945 2.79341 19.6641 3.50065 19.6641" stroke="url(#paint1_linear_6053_131435)" stroke-linecap="round" stroke-linejoin="round"/>
<path id="Vector_3" d="M7.5 6.33594H15.5" stroke="url(#paint2_linear_6053_131435)" stroke-linecap="round"/>
</g>
<defs>
<linearGradient id="paint0_linear_6053_131435" x1="11.5007" y1="1" x2="11.5007" y2="25" gradientUnits="userSpaceOnUse">
<stop stop-color="#8C4ACB"/>
<stop offset="1" stop-color="#4BA4AA"/>
</linearGradient>
<linearGradient id="paint1_linear_6053_131435" x1="2.16732" y1="19.6641" x2="2.16732" y2="24.9974" gradientUnits="userSpaceOnUse">
<stop stop-color="#8C4ACB"/>
<stop offset="1" stop-color="#4BA4AA"/>
</linearGradient>
<linearGradient id="paint2_linear_6053_131435" x1="11.5" y1="6.33594" x2="11.5" y2="7.33594" gradientUnits="userSpaceOnUse">
<stop stop-color="#8C4ACB"/>
<stop offset="1" stop-color="#4BA4AA"/>
</linearGradient>
</defs>
</svg>
