<svg width="33" height="32" viewBox="0 0 33 32" fill="none" xmlns="http://www.w3.org/2000/svg">
<g id="Card Icon">
<path id="Vector" d="M23.5611 28C24.2121 28 24.8364 27.7366 25.2967 27.2678C25.757 26.7989 26.0156 26.163 26.0156 25.5C26.0156 24.837 25.757 24.2011 25.2967 23.7322C24.8364 23.2634 24.2121 23 23.5611 23C22.9101 23 22.2858 23.2634 21.8255 23.7322C21.3651 24.2011 21.1065 24.837 21.1065 25.5C21.1065 26.163 21.3651 26.7989 21.8255 27.2678C22.2858 27.7366 22.9101 28 23.5611 28ZM10.4702 28C11.1212 28 11.7455 27.7366 12.2058 27.2678C12.6661 26.7989 12.9247 26.163 12.9247 25.5C12.9247 24.837 12.6661 24.2011 12.2058 23.7322C11.7455 23.2634 11.1212 23 10.4702 23C9.81918 23 9.19486 23.2634 8.73454 23.7322C8.27423 24.2011 8.01562 24.837 8.01562 25.5C8.01562 26.163 8.27423 26.7989 8.73454 27.2678C9.19486 27.7366 9.81918 28 10.4702 28Z" stroke="url(#paint0_linear_6053_142924)" stroke-linecap="round" stroke-linejoin="round"/>
<path id="Vector 3332" d="M4.51562 4L5.51562 7M5.51562 7H26.8077C28.1533 7 29.115 8.30207 28.7193 9.58817L25.95 18.5882C25.6918 19.4274 24.9165 20 24.0385 20H11.4398C10.5873 20 9.82861 19.4597 9.54978 18.6542L5.51562 7Z" stroke="url(#paint1_linear_6053_142924)" stroke-linecap="round" stroke-linejoin="round"/>
</g>
<defs>
<linearGradient id="paint0_linear_6053_142924" x1="17.0156" y1="23" x2="17.0156" y2="28" gradientUnits="userSpaceOnUse">
<stop stop-color="#8C4ACB"/>
<stop offset="1" stop-color="#4BA4AA"/>
</linearGradient>
<linearGradient id="paint1_linear_6053_142924" x1="17.0156" y1="4" x2="17.0156" y2="20" gradientUnits="userSpaceOnUse">
<stop stop-color="#8C4ACB"/>
<stop offset="1" stop-color="#4BA4AA"/>
</linearGradient>
</defs>
</svg>
