<svg width="16" height="15" viewBox="0 0 16 15" fill="none" xmlns="http://www.w3.org/2000/svg">
<g id="Failed">
<path id="Vector 3229" d="M7.56823 0.887852L0.439201 13.0963C0.244557 13.4296 0.484979 13.8484 0.870976 13.8484H15.129C15.515 13.8484 15.7554 13.4296 15.5608 13.0963L8.43178 0.887852C8.23879 0.557361 7.76121 0.557361 7.56823 0.887852Z" fill="white"/>
<path id="Vector 3228 (Stroke)" d="M7.05319 1.12267C7.57081 0.478928 8.59885 0.524562 9.04369 1.26007L15.8222 12.4712L15.9019 12.626C16.239 13.4096 15.6692 14.3215 14.7788 14.3215H1.22186C0.272239 14.3215 -0.313592 13.2838 0.177607 12.4712L6.95701 1.26007L7.05319 1.12267ZM8.56187 1.55137C8.32233 1.15543 7.76885 1.13063 7.49013 1.47717L7.43792 1.55137L0.659429 12.7624C0.39499 13.2 0.710546 13.7591 1.22186 13.7591H14.7788C15.2582 13.7591 15.5649 13.2677 15.3834 12.8458L15.3404 12.7624L8.56187 1.55137Z" fill="#C3101A"/>
<path id="Line 13108 (Stroke)" d="M7.71899 6.0293L7.72449 5.9725C7.75076 5.84431 7.86425 5.74808 8.00021 5.74808C8.13617 5.74808 8.24966 5.84431 8.27593 5.9725L8.28143 6.0293L8.28143 9.78128C8.28143 9.9367 8.15562 10.0625 8.00021 10.0625C7.8448 10.0625 7.71899 9.9367 7.71899 9.78128L7.71899 6.0293Z" fill="#C3101A"/>
<path id="Line 13109 (Stroke)" d="M7.54041 11.5617C7.58402 11.3478 7.77349 11.187 8.00025 11.187C8.22701 11.187 8.41648 11.3478 8.46009 11.5617L8.46925 11.656C8.46925 11.915 8.25927 12.125 8.00025 12.125C7.74123 12.125 7.53125 11.915 7.53125 11.656L7.54041 11.5617Z" fill="#C3101A"/>
</g>
</svg>
