<svg xmlns="http://www.w3.org/2000/svg" width="24" height="24" fill="none" viewBox="0 0 24 24">
  <path fill="#000" fill-rule="evenodd" d="M20.261 8.724c-.01-.01-.03-.01-.043-.018l.017-.052-3.372-1.217-.233.843 2.214.811-7.109 2.9L4.65 9.1l2.24-.82-.283-.843L3.28 8.654l.011.035a.227.227 0 0 0-.084.035.382.382 0 0 0-.208.348v8.34a.382.382 0 0 0 .208.348l8.317 4.17a.345.345 0 0 0 .416 0l8.317-4.17a.382.382 0 0 0 .208-.348v-8.34a.382.382 0 0 0-.205-.348Zm-16.426.973 7.503 3.023v8.175l-7.503-3.762V9.697Zm15.802 7.437-7.456 3.74v-8.172l7.456-3.005v7.437ZM8.174 6.044a.39.39 0 1 1 .551-.553l2.612 2.617V2.422a.421.421 0 1 1 .843 0v5.686l2.611-2.617a.39.39 0 1 1 .552.553l-3.24 3.246a.441.441 0 0 1-.345.207.441.441 0 0 1-.346-.207L8.174 6.044Z" clip-rule="evenodd"/>
</svg>
