<svg xmlns="http://www.w3.org/2000/svg" width="24" height="24" fill="none" viewBox="0 0 24 24">
  <path fill="#000" fill-rule="evenodd" d="M20.182 5H3.818A1.84 1.84 0 0 0 2 6.814v9.978a1.841 1.841 0 0 0 1.818 1.814h16.364A1.84 1.84 0 0 0 22 16.792V6.814A1.84 1.84 0 0 0 20.182 5Zm0 .907c.052 0 .104.007.154.019l-8.362 6.73L3.618 5.93a.89.89 0 0 1 .2-.023h16.364Zm.91 10.885a.92.92 0 0 1-.91.907H3.818a.874.874 0 0 1-.91-.907V6.814a.854.854 0 0 1 .043-.25l8.72 7.005a.46.46 0 0 0 .303.076.57.57 0 0 0 .303-.076l8.755-7.033a.763.763 0 0 1 .059.278v9.978Z" clip-rule="evenodd"/>
</svg>
