<svg xmlns="http://www.w3.org/2000/svg" width="24" height="24" fill="none" viewBox="0 0 24 24">
  <path fill="#000" fill-rule="evenodd" d="M21.956 2.25a.295.295 0 0 0-.053-.084v-.003l-.006-.004a.587.587 0 0 0-.193-.123.354.354 0 0 0-.286-.011l-19.14 8.302a.637.637 0 0 0-.278.415.46.46 0 0 0 .279.346l6.934 3.666 3.676 6.988a.382.382 0 0 0 .347.207h.069a.461.461 0 0 0 .347-.279l8.283-19.007a.423.423 0 0 0 .02-.413Zm-2.148 1.378L9.417 13.98l-6.03-3.24 16.42-7.113Zm-6.574 16.938s0-.005-3.19-6.035l10.27-10.234-7.083 16.269h.002Z" clip-rule="evenodd"/>
</svg>
