<svg xmlns="http://www.w3.org/2000/svg" width="24" height="24" fill="none" viewBox="0 0 24 24">
  <path fill="#000" fill-rule="evenodd" d="M21.885 3.177a.363.363 0 0 0-.452-.149l-19.154 7.87a.466.466 0 0 0-.279.415c0 .138.138.345.28.345L9.5 14.45v6.413a.44.44 0 0 0 .349.417h.07a.384.384 0 0 0 .348-.209l2.747-4.676 5.02 2.754a.348.348 0 0 0 .415 0 .31.31 0 0 0 .209-.28l3.33-15.36a.32.32 0 0 0-.103-.333ZM19.54 4.72l-9.72 9-6.293-2.408L19.54 4.72Zm-9.203 14.62v-4.41l1.963 1.077-1.963 3.333Zm7.627-1.158-7.355-4.013L20.88 4.62l-2.916 13.56Z" clip-rule="evenodd"/>
</svg>
