<svg xmlns="http://www.w3.org/2000/svg" width="24" height="24" fill="none" viewBox="0 0 24 24">
  <path fill="#000" fill-rule="evenodd" d="M19.911 6.332h-3.737v-.408A2.943 2.943 0 0 0 13.25 3h-2.506A2.943 2.943 0 0 0 7.82 5.924v.408H4.083A2.135 2.135 0 0 0 2 8.416v6.67a.4.4 0 0 0 .417.417h.417v4.585a.4.4 0 0 0 .416.418h17.497a.37.37 0 0 0 .417-.418v-4.585h.416a.368.368 0 0 0 .416-.417v-6.67a2.09 2.09 0 0 0-2.085-2.084ZM8.655 5.924a2.141 2.141 0 0 1 2.09-2.089h2.505a2.095 2.095 0 0 1 2.089 2.089v.408H8.655v-.408ZM3.667 19.672v-4.186h5.842v.428a.4.4 0 0 0 .415.417h4.146a.369.369 0 0 0 .4-.249.366.366 0 0 0 .014-.168v-.428h5.844v4.188l-16.661-.002Zm6.672-4.177V13.83h3.316v1.666H10.34Zm10.822-.826h-.275a.443.443 0 0 0-.152-.03h-6.25v-1.226a.398.398 0 0 0-.414-.417H9.924a.447.447 0 0 0-.415.417v1.226H3.26a.36.36 0 0 0-.127.03h-.298V8.416a1.291 1.291 0 0 1 1.25-1.25h4.09a.49.49 0 0 0 .064.01h7.519a.61.61 0 0 0 .077-.01h4.077a1.291 1.291 0 0 1 1.25 1.25v6.253Z" clip-rule="evenodd"/>
</svg>
