<svg xmlns="http://www.w3.org/2000/svg" width="24" height="24" fill="none" viewBox="0 0 24 24">
  <path fill="#000" fill-rule="evenodd" d="M19.122 19.038a10.02 10.02 0 0 0 .01-14.041.648.648 0 0 0-.04-.088.353.353 0 0 0-.132-.08 9.942 9.942 0 0 0-13.905.01.645.645 0 0 0-.146.07.639.639 0 0 0-.069.147 9.94 9.94 0 0 0-.01 13.904.337.337 0 0 0 .079.131c.043.022.074.04.108.06a10.016 10.016 0 0 0 14.008-.014.594.594 0 0 0 .064-.046.299.299 0 0 0 .033-.053Zm-.373-.848-6.142-6.174 6.175-6.175a9.141 9.141 0 0 1-.033 12.349Zm-.557-12.942-6.174 6.175-6.176-6.207a9.14 9.14 0 0 1 12.35.032ZM5.217 5.84l6.21 6.176-6.177 6.175A9.141 9.141 0 0 1 5.217 5.84Zm.626 12.94 6.175-6.175 6.174 6.143a9.141 9.141 0 0 1-12.349.032Z" clip-rule="evenodd"/>
</svg>
