<svg xmlns="http://www.w3.org/2000/svg" width="24" height="24" fill="none" viewBox="0 0 24 24">
  <path fill="#000" fill-rule="evenodd" d="M10.768 22C8.605 22 7 20.264 7 17.833V7.417C7 4.292 9.163 2 12.024 2c2.93 0 5.024 2.292 5.024 5.417v7.5a.37.37 0 0 1-.419.417.401.401 0 0 1-.418-.416V7.417c0-2.639-1.745-4.584-4.186-4.584-2.442 0-4.187 1.946-4.187 4.584v10.416c0 2.014 1.259 3.334 2.93 3.334 1.744 0 2.93-1.32 2.93-3.334V9.916c0-.973-.417-2.083-1.674-2.083-1.186 0-1.674 1.11-1.674 2.083v6.251a.369.369 0 0 1-.419.417.401.401 0 0 1-.418-.417v-6.25c0-1.737 1.047-2.919 2.512-2.919 1.535 0 2.512 1.18 2.512 2.919v7.917C14.536 20.264 13 22 10.768 22Z" clip-rule="evenodd"/>
</svg>
