<svg xmlns="http://www.w3.org/2000/svg" width="24" height="24" fill="none" viewBox="0 0 24 24">
  <path fill="#000" fill-rule="evenodd" d="M5.872 21.173A3.85 3.85 0 0 1 2.29 18.81a3.795 3.795 0 0 1 .825-4.142L13.3 4.486a5.027 5.027 0 0 1 3.607-1.484 4.801 4.801 0 0 1 3.607 1.484 5.119 5.119 0 0 1 0 7.213L13.3 18.91a.432.432 0 0 1-.567 0 .398.398 0 0 1 0-.637l7.215-7.212a4.17 4.17 0 0 0 1.203-2.97 4.112 4.112 0 0 0-4.244-4.241 4.167 4.167 0 0 0-2.973 1.202L3.748 15.233a3.075 3.075 0 0 0 0 4.243 2.99 2.99 0 0 0 4.173 0l9.761-9.757a1.323 1.323 0 0 0 0-1.838 1.341 1.341 0 0 0-.919-.354 1.305 1.305 0 0 0-.849.354L8.7 15.092a.53.53 0 0 1-.636 0 .429.429 0 0 1 0-.565l7.215-7.212a2.04 2.04 0 0 1 1.485-.636 2.121 2.121 0 0 1 1.556 3.605l-9.761 9.758a3.809 3.809 0 0 1-2.686 1.131Z" clip-rule="evenodd"/>
</svg>
