<svg xmlns="http://www.w3.org/2000/svg" width="24" height="24" fill="none" viewBox="0 0 24 24">
  <path fill="#000" fill-rule="evenodd" d="M20.736 4.488h-5.828V2.417A.4.4 0 0 0 14.492 2H7.816a.447.447 0 0 0-.417.417v2.071H2.416A.45.45 0 0 0 2 4.911a.402.402 0 0 0 .415.422h1.696V21.58a.4.4 0 0 0 .416.416h13.297a.366.366 0 0 0 .416-.416V5.333h2.494a.372.372 0 0 0 .415-.422.403.403 0 0 0-.414-.423ZM8.232 2.834h5.841v1.654h-5.84V2.834Zm9.178 18.329H4.944V5.333H17.41v15.83ZM8.244 7.815v10.01a.372.372 0 0 1-.423.416.402.402 0 0 1-.422-.416V7.815a.452.452 0 0 1 .422-.417.402.402 0 0 1 .423.417Zm3.332 0v10.01a.37.37 0 0 1-.423.416.402.402 0 0 1-.422-.416V7.815a.452.452 0 0 1 .422-.417.403.403 0 0 1 .423.417Zm2.91-.417a.404.404 0 0 1 .422.417v10.01a.37.37 0 0 1-.422.416.4.4 0 0 1-.302-.116.403.403 0 0 1-.12-.3V7.815a.45.45 0 0 1 .422-.417Z" clip-rule="evenodd"/>
</svg>
