<svg xmlns="http://www.w3.org/2000/svg" width="24" height="24" fill="none" viewBox="0 0 24 24">
  <path fill="#000" fill-rule="evenodd" d="M12.023 17.311a8.756 8.756 0 0 1-2.636-.414.392.392 0 0 1-.278-.484.44.44 0 0 1 .555-.276c.768.215 1.561.33 2.36.343 4.372 0 8.12-3.937 9.023-4.973a17.97 17.97 0 0 0-2.985-2.693.448.448 0 0 1-.14-.622.443.443 0 0 1 .626-.069 19.537 19.537 0 0 1 3.4 3.177.59.59 0 0 1 0 .484c-.21.21-4.512 5.527-9.925 5.527ZM6.05 14.808a.359.359 0 0 0-.07-.552 17.502 17.502 0 0 1-2.977-2.763c.9-1.035 4.64-4.972 9.003-4.972a6.25 6.25 0 0 1 1.939.277.438.438 0 0 0 .553-.277.427.427 0 0 0-.345-.553 11.422 11.422 0 0 0-2.146-.276c-5.402 0-9.696 5.318-9.904 5.597a.334.334 0 0 0 0 .483c1 1.191 2.14 2.258 3.394 3.177.069 0 .138.07.208.07a.381.381 0 0 0 .345-.211Zm3.064-3.301a2.92 2.92 0 0 1 2.885-2.92.402.402 0 0 0 .387-.255.4.4 0 0 0 .027-.162.446.446 0 0 0-.414-.417 3.717 3.717 0 0 0-3.712 3.754.413.413 0 0 0 .825 0h.002Zm6.625-.01a.413.413 0 0 0-.825 0 2.92 2.92 0 0 1-2.886 2.919.446.446 0 0 0-.413.417.4.4 0 0 0 .413.416 3.714 3.714 0 0 0 3.71-3.752ZM4.18 19.892 20.424 3.67a.393.393 0 1 0-.555-.555L3.625 19.337a.325.325 0 0 0 0 .555c.069.138.139.138.277.138a.278.278 0 0 0 .279-.14v.002Z" clip-rule="evenodd"/>
</svg>
