<svg xmlns="http://www.w3.org/2000/svg" width="24" height="24" fill="none" viewBox="0 0 24 24">
  <path fill="#000" fill-rule="evenodd" d="M15.723 13.57a2.263 2.263 0 0 1-1.627-.621l-.078-.078a.583.583 0 0 1 0-.702.472.472 0 0 1 .62 0l.155.078a1.355 1.355 0 0 0 1.938 0l3.72-3.649a2.499 2.499 0 0 0 0-3.337L18.745 3.63a2.415 2.415 0 0 0-1.627-.702 2.584 2.584 0 0 0-1.628.702l-3.72 3.726a1.36 1.36 0 0 0 0 1.941l.077.078a.492.492 0 0 1 .078.698.577.577 0 0 1-.698 0l-.077-.077a2.348 2.348 0 0 1 0-3.338l3.72-3.649A3.05 3.05 0 0 1 17.117 2c.878.02 1.712.382 2.325 1.01l1.628 1.63a3.285 3.285 0 0 1 0 4.58l-3.72 3.726a2.047 2.047 0 0 1-1.627.623Zm-6.516 7.496 3.72-3.64a2.488 2.488 0 0 0 0-3.332l-.155-.078a.471.471 0 0 0-.62 0 .58.58 0 0 0 0 .697l.078.078a1.356 1.356 0 0 1 0 1.937l-3.72 3.719a2.356 2.356 0 0 1-1.628.62 2.505 2.505 0 0 1-1.629-.62L3.626 18.82a2.339 2.339 0 0 1 0-3.331l3.72-3.642a1.358 1.358 0 0 1 1.938 0l.078.078a.576.576 0 0 0 .697 0 .49.49 0 0 0-.078-.698l-.077-.077a2.25 2.25 0 0 0-3.254 0l-3.72 3.718a3.273 3.273 0 0 0 0 4.571l1.705 1.627a2.98 2.98 0 0 0 2.248.93 3.28 3.28 0 0 0 2.325-.93h-.001Zm-.442-5.087 7.164-7.209a.473.473 0 0 0 0-.62.359.359 0 0 0-.616 0l-7.242 7.21a.475.475 0 0 0 0 .62c.077.154.232.154.383.154a.305.305 0 0 0 .311-.155Z" clip-rule="evenodd"/>
</svg>
