<svg xmlns="http://www.w3.org/2000/svg" width="24" height="24" fill="none" viewBox="0 0 24 24">
  <path fill="#000" fill-rule="evenodd" d="m21.856 13.475-1.597-1.623-2.083-3.583a.382.382 0 0 0-.346-.203h-3.333V6.85a.323.323 0 0 0-.011-.046v-.766a2.065 2.065 0 0 0-2.081-2.036 2.021 2.021 0 0 0-2.082 2.036v.407H2.416A.395.395 0 0 0 2 6.85v11.359a.395.395 0 0 0 .416.406H4.12a2.024 2.024 0 0 0 2.041 1.628 2.08 2.08 0 0 0 2.041-1.628h7.592a2.025 2.025 0 0 0 2.042 1.628 2.08 2.08 0 0 0 2.038-1.628h1.707a.442.442 0 0 0 .419-.406v-4.463a.348.348 0 0 0-.144-.27Zm-4.305-4.598 2.014 3.449a.067.067 0 0 0 .07.067l1.527 1.555v2.222h-6.677V8.877h3.066Zm-1.759 8.922H8.2a1.973 1.973 0 0 0-.384-.814h8.343a1.97 1.97 0 0 0-.367.814ZM11.156 6.037a1.249 1.249 0 0 1 2.497 0v.407h-2.497v-.407Zm-.432 1.218c.006 0 .01.003.015.003h2.925v1.214c.001.015.004.03.008.043v7.655H2.83V7.255h7.894Zm-7.891 9.73h1.654a1.97 1.97 0 0 0-.366.817H2.833v-.817Zm3.328 2.442a1.229 1.229 0 0 1-1.247-1.213V18.2a1.248 1.248 0 1 1 1.248 1.228H6.16Zm11.67 0a1.222 1.222 0 1 1 1.248-1.231v.022a1.23 1.23 0 0 1-1.246 1.21h-.002Zm2.04-1.625a1.97 1.97 0 0 0-.383-.817h1.674v.817h-1.29Zm-4.526-7.7a.393.393 0 0 1 .256-.378.392.392 0 0 1 .16-.023h1.246a.383.383 0 0 1 .347.2l1.246 2.407a.366.366 0 0 1-.21.536c0 .067-.068.067-.138.067a.5.5 0 0 1-.415-.2l-1.108-2.21h-.97a.392.392 0 0 1-.414-.398Zm-9.581 2.826h1.25v1.211a.394.394 0 0 0 .42.404H9.1a.441.441 0 0 0 .419-.404v-1.211h1.251a.442.442 0 0 0 .419-.404v-1.616a.442.442 0 0 0-.419-.404H9.519V9.293a.442.442 0 0 0-.419-.404H7.433a.395.395 0 0 0-.418.404v1.211H5.764a.392.392 0 0 0-.39.244.395.395 0 0 0-.029.16v1.616a.395.395 0 0 0 .419.402v.002Zm.418-1.616h1.252a.441.441 0 0 0 .419-.404V9.696h.834v1.212a.394.394 0 0 0 .418.404h1.251v.808h-1.25a.393.393 0 0 0-.42.404v1.212h-.833v-1.212a.442.442 0 0 0-.419-.404H6.182v-.808Z" clip-rule="evenodd"/>
</svg>
