<svg xmlns="http://www.w3.org/2000/svg" width="24" height="24" fill="none" viewBox="0 0 24 24">
  <path fill="#000" fill-rule="evenodd" d="M6.86 20.53h10.28a5.77 5.77 0 0 0-2.571-1.293.373.373 0 0 1-.279-.408c-.069-.136.07-.34.279-.34 2.847-1.02 4.931-4.15 4.931-7.347a.443.443 0 0 1 .417-.408h.833a.41.41 0 0 0 .423-.408.41.41 0 0 0-.423-.409H3.25a.409.409 0 1 0 0 .817h.833a.394.394 0 0 1 .417.408c0 3.197 2.084 6.327 5 7.347.139 0 .278.204.278.34a.433.433 0 0 1-.348.408 6.217 6.217 0 0 0-2.57 1.293Zm10.972.816H6.168a.445.445 0 0 1-.417-.408c0-.816 1.11-1.633 2.5-2.177a9.02 9.02 0 0 1-4.583-7.21H3.25a1.225 1.225 0 1 1 0-2.45h17.5a1.224 1.224 0 1 1 0 2.45h-.416a8.792 8.792 0 0 1-4.515 7.21c1.32.544 2.431 1.36 2.431 2.177a.395.395 0 0 1-.418.408Zm-.836-13.038a.257.257 0 0 1-.21-.068.435.435 0 0 1-.14-.61c1.597-2.102 2.501-3.39 2.918-4.068.277-.472.21-.543.07-.61-.07-.136-.21-.204-.834.339a60.799 60.799 0 0 0-4.791 4.88c-.21.137-.417.204-.625 0a.405.405 0 0 1 0-.542c5.277-5.627 5.832-6.102 6.804-5.356.903.746.556 1.22-2.846 5.831a.383.383 0 0 1-.346.204Zm-7.088 8.55c-.069 0-.069 0-.138-.067a5.645 5.645 0 0 1-3.097-3.043c-.139-.203 0-.406.206-.541a.508.508 0 0 1 .55.27 4.739 4.739 0 0 0 2.685 2.571.45.45 0 0 1 .207.541.377.377 0 0 1-.413.268v.002Z" clip-rule="evenodd"/>
</svg>
