<svg xmlns="http://www.w3.org/2000/svg" width="24" height="24" fill="none" viewBox="0 0 24 24">
  <path fill="#000" fill-rule="evenodd" d="M19.061 17.206c-.415.625-1.867.834-3.941.208.207-1.042.415-2.083.622-3.333a11.847 11.847 0 0 1 1.66-1.458c.207.414.622.832.83 1.25 1.036 1.459 1.244 2.708.83 3.333Zm-7.471 3.958c-.83 0-1.867-1.25-2.49-3.124.83-.415 1.66-.623 2.49-1.25.83.625 1.66.833 2.49 1.25-.622 1.874-1.66 3.127-2.49 3.127v-.003Zm-7.471-3.958c-.415-.625-.207-1.874.83-3.333.207-.414.622-.833.83-1.25a11.92 11.92 0 0 1 1.659 1.459c.207 1.25.415 2.29.622 3.333-2.073.625-3.526.416-3.941-.209Zm.83-7.082c-1.037-1.458-1.245-2.708-.83-3.333.415-.625 1.867-.834 3.941-.208a99.917 99.917 0 0 0-.622 3.333 11.915 11.915 0 0 1-1.66 1.458c-.206-.417-.621-.834-.829-1.25Zm6.64-7.291c.83 0 1.867 1.25 2.49 3.124-.83.415-1.66.626-2.49 1.25-.83-.622-1.659-.833-2.489-1.25.622-1.874 1.66-3.124 2.49-3.124Zm4.149 8.124 1.037 1.042-1.037 1.041v-2.083Zm-3.319-3.333a7.364 7.364 0 0 1 1.867-.833 8.88 8.88 0 0 1 .415 2.291 1.076 1.076 0 0 0-.83-.415 3.722 3.722 0 0 0-1.45-1.043h-.002ZM8.48 9.082a8.836 8.836 0 0 1 .414-2.291c.658.19 1.286.47 1.867.833a3.722 3.722 0 0 0-1.452 1.042 1.076 1.076 0 0 0-.831.418l.001-.002ZM7.44 13.04l-1.037-1.041 1.037-1.042v2.083Zm3.319 3.333a7.344 7.344 0 0 1-1.867.833 8.894 8.894 0 0 1-.415-2.291 1.077 1.077 0 0 0 .83.415c.392.46.89.818 1.452 1.043Zm3.94-1.458a8.898 8.898 0 0 1-.414 2.291 7.344 7.344 0 0 1-1.867-.833 3.721 3.721 0 0 0 1.452-1.041 1.077 1.077 0 0 0 .832-.417H14.7Zm-1.244-.208c-.622.415-1.244.832-1.867 1.25l-1.866-1.25a6.3 6.3 0 0 1-1.452-1.042v-3.332A6.3 6.3 0 0 1 9.723 9.29l1.866-1.25 1.867 1.25c.531.277 1.02.627 1.452 1.041v3.333a6.29 6.29 0 0 1-1.45 1.042h-.002Zm3.942-8.54c.83 0 1.451.207 1.659.624.415.622.207 1.875-.83 3.333-.207.415-.622.833-.83 1.25a11.915 11.915 0 0 1-1.659-1.458 99.96 99.96 0 0 0-.622-3.333 10.62 10.62 0 0 1 2.285-.417h-.003Zm.414 5.832c.415-.415.83-1.042 1.245-1.458 1.037-1.667 1.452-3.333.83-4.166-.83-1.25-2.697-1.25-4.979-.625C14.078 3.458 12.834 2 11.59 2 10.345 2 9.1 3.458 8.271 5.75c-2.282-.622-4.149-.622-4.979.625-.622.833-.207 2.5.83 4.166.415.415.83 1.041 1.245 1.458-.415.415-.83 1.041-1.245 1.458-1.037 1.667-1.452 3.333-.83 4.166a3.43 3.43 0 0 0 2.49 1.042 10.408 10.408 0 0 0 2.489-.415c.83 2.292 2.074 3.75 3.318 3.75 1.245 0 2.49-1.458 3.32-3.75.81.24 1.645.378 2.489.415a3.43 3.43 0 0 0 2.489-1.042c.622-.833.207-2.5-.83-4.166-.41-.417-.826-1.042-1.241-1.458h-.004Zm-6.226 1.26a1.26 1.26 0 1 1 1.245-1.26 1.348 1.348 0 0 1-1.241 1.26h-.004Zm0-3.36a2.1 2.1 0 1 0 2.075 2.1 1.97 1.97 0 0 0-2.071-2.1h-.004Z" clip-rule="evenodd"/>
</svg>
