<svg xmlns="http://www.w3.org/2000/svg" width="24" height="24" fill="none" viewBox="0 0 24 24">
  <path fill="#000" fill-rule="evenodd" d="M20.502 15.124 5.874 10.749a4.942 4.942 0 0 0-1.625-.208L5.47 6.583a.704.704 0 0 1 .406-.21 1.678 1.678 0 0 1 1.422 0L20.5 10.33v4.794Zm-2.843 6.04H15.22l2.843-4.166v3.75a.443.443 0 0 1-.407.417h.002Zm-13.204-.21a.293.293 0 0 1 0-.416c.203-1.25 1.219-2.084 2.437-2.5l.61 3.125H4.659a.2.2 0 0 1-.206-.207l.002-.002Zm6.297-3.125.813 3.334h-3.25l-.813-3.334h3.25Zm6.704-1.458-3.25 4.79h-1.829l-.812-3.333 5.89-1.457Zm.61-1.041-6.501 1.666v-3.75l6.5 2.083Zm-11.174-2.5c0 .416-.812.625-1.625.21-1.015-.21-1.421-.832-1.421-1.249 0-.21.406-.416 1.015-.416.286-.008.568.065.813.21.81.205 1.42.83 1.217 1.247l.001-.002Zm4.673-6.666 6.5-1.875v4.375l-6.5-1.875v-.625Zm6.5-3.333v.625l-6.5 1.875v-2.5h6.5Zm3.048 6.666-2.235-.625V2.416A.443.443 0 0 0 18.472 2h-7.315a.442.442 0 0 0-.406.416v4.167L7.5 5.54a2.173 2.173 0 0 0-1.626 0 1.373 1.373 0 0 0-1.219.833L3.03 11.581c-.203.833.61 1.875 1.828 2.291.383.17.802.243 1.22.211a1.607 1.607 0 0 0 1.625-1.042c.203-.21 0-.625 0-.832l3.047.832V17H7.908a4.375 4.375 0 0 0-4.264 3.542c-.203.208 0 .625.204 1.041.221.219.505.364.812.417h13.002a1.327 1.327 0 0 0 1.22-1.25v-5.208l1.827.625h.407c.203-.21.203-.21.203-.416V9.918a.733.733 0 0 0-.208-.42l.002-.001Z" clip-rule="evenodd"/>
</svg>
