<svg xmlns="http://www.w3.org/2000/svg" width="24" height="24" fill="none" viewBox="0 0 24 24">
  <path fill="#000" fill-rule="evenodd" d="M20.541 13.19 15.78 8.545l-2.277-2.257a.553.553 0 0 0-.067-.03l-2.904-2.834a5.038 5.038 0 0 0-7.02 0 4.712 4.712 0 0 0 0 6.918l2.833 2.762c.022.032.048.06.08.083l4.092 4.058a.246.246 0 0 0 .124.053l2.88 2.81a5.037 5.037 0 0 0 7.02 0 4.827 4.827 0 0 0 0-6.918Zm-13.213-.278 5.825-5.745 3.54 3.45-5.864 5.713-3.501-3.418Zm-3.26-8.878a4.185 4.185 0 0 1 5.908 0l2.607 2.544-5.846 5.758-2.67-2.605a3.982 3.982 0 0 1 0-5.697Zm15.917 15.463a4.184 4.184 0 0 1-5.908 0l-2.624-2.56 5.845-5.756c.805.787 1.695 1.652 2.686 2.62a4.024 4.024 0 0 1 0 5.696ZM5.788 8.582a.387.387 0 0 1 0 .612.343.343 0 0 1-.262.136.498.498 0 0 1-.266-.136.518.518 0 0 1 0-.612.39.39 0 0 1 .266-.068c.13-.002.196-.002.262.066v.002Zm1.55-1.837a.53.53 0 0 1 .278.136.405.405 0 0 1 0 .544.28.28 0 0 1-.278.137c-.14 0-.28 0-.35-.137a.405.405 0 0 1 0-.544.538.538 0 0 1 .35-.138v.002ZM5.25 7.29a.367.367 0 0 1-.278-.136.316.316 0 0 1-.116-.43.316.316 0 0 1 .116-.115c.07-.136.139-.136.278-.136a.532.532 0 0 1 .28.136.406.406 0 0 1 0 .545.536.536 0 0 1-.28.133v.003Zm1.465-1.837a.5.5 0 0 1 0-.613.537.537 0 0 1 .28-.136c.14 0 .21.068.349.136a.5.5 0 0 1 0 .613.64.64 0 0 1-.35.068.429.429 0 0 1-.278-.071v.003Zm.893 3.334a.281.281 0 0 1 .278.136.406.406 0 0 1 0 .545.536.536 0 0 1-.278.136.368.368 0 0 1-.28-.136.315.315 0 0 1 0-.545c.072-.139.142-.139.282-.139l-.002.003Zm1.744-1.77a.368.368 0 0 1 .28.137.376.376 0 0 1 0 .613c-.07.067-.14.067-.28.067a.429.429 0 0 1-.279-.067.5.5 0 0 1 0-.613.533.533 0 0 1 .282-.14l-.003.004Zm-.568-1.27a.372.372 0 0 1 0-.612c.072-.068.143-.068.286-.068.142 0 .213 0 .285.068a.372.372 0 0 1 0 .613.367.367 0 0 1-.57 0Zm6.452 12.022a.498.498 0 0 1 0 .613.429.429 0 0 1-.28.068c-.14 0-.21 0-.279-.068a.377.377 0 0 1 0-.613.367.367 0 0 1 .28-.135.534.534 0 0 1 .281.132l-.002.003Zm1.465-.997a.534.534 0 0 1-.279-.136.406.406 0 0 1 0-.544.535.535 0 0 1 .28-.136c.139 0 .21.068.348.136a.406.406 0 0 1 0 .544c-.137.065-.207.132-.346.132l-.003.004Zm.622 1.293a.498.498 0 0 1 0 .613.533.533 0 0 1-.28.136.54.54 0 0 1-.348-.136.498.498 0 0 1 0-.613.534.534 0 0 1 .349-.068.428.428 0 0 1 .281.064l-.002.004Zm1.75-1.7a.32.32 0 0 1 0 .544c-.069.136-.137.136-.273.136s-.204 0-.272-.136a.32.32 0 0 1 0-.545.34.34 0 0 1 .544 0Zm-4.388.135c-.14 0-.21-.068-.349-.136a.497.497 0 0 1 0-.612.642.642 0 0 1 .349-.069.427.427 0 0 1 .279.069.496.496 0 0 1 0 .612.532.532 0 0 1-.277.132l-.002.004Zm1.731-1.769a.288.288 0 0 1-.285-.136.31.31 0 0 1 0-.545.553.553 0 0 1 .285-.136.38.38 0 0 1 .286.136.312.312 0 0 1 0 .545c-.067.132-.139.132-.28.132l-.006.004Zm2.077.272c-.14 0-.21 0-.28-.068a.375.375 0 0 1-.115-.478.376.376 0 0 1 .116-.134.367.367 0 0 1 .279-.137.536.536 0 0 1 .28.137.5.5 0 0 1 0 .612.429.429 0 0 1-.275.064l-.005.004Z" clip-rule="evenodd"/>
</svg>
