<svg xmlns="http://www.w3.org/2000/svg" width="24" height="24" fill="none" viewBox="0 0 24 24">
  <path fill="#000" fill-rule="evenodd" d="M18.73 20.41a1.244 1.244 0 0 1-1.131.681H7.19a1.244 1.244 0 0 1-1.13-.682 1.438 1.438 0 0 1 0-1.364.223.223 0 0 1 .226-.226l1.809-3.182h8.597l2.035 3.41a1.438 1.438 0 0 1 .001 1.362Zm-8.145-8.637V4.727h3.617v.91h-1.356a.454.454 0 1 0 0 .908h1.356v.91h-2.26a.455.455 0 1 0 0 .909h2.26v.909h-1.356a.454.454 0 1 0 0 .909h1.356v1.59l1.81 2.955h-7.24l1.813-2.954Zm-1.81-8.41a.487.487 0 0 1 .453-.452h6.335a.455.455 0 1 1 0 .91H9.228a.487.487 0 0 1-.453-.458Zm10.634 15-4.296-7.045v-6.59h.452a1.364 1.364 0 0 0 0-2.728H9.23a1.364 1.364 0 0 0 0 2.727h.452v6.591l-4.296 7.046a3.141 3.141 0 0 0-.226 2.5A2.695 2.695 0 0 0 7.195 22h10.408a2.698 2.698 0 0 0 2.035-1.136 3.143 3.143 0 0 0-.23-2.5h.001Zm-3.853.422a.926.926 0 1 0 .927.926.997.997 0 0 0-.928-.923l.001-.003Zm-2.27-1.554c0-.226 0-.226.226-.226s.226 0 .226.226-.454.228-.454 0h.002Zm.226-.678a.682.682 0 1 0 .678.678.602.602 0 0 0-.678-.68v.002Zm-3.379 2.698a.899.899 0 1 1 .912-.9.975.975 0 0 1-.912.897v.003Zm0-2.698a1.8 1.8 0 1 0 1.825 1.799 1.949 1.949 0 0 0-1.825-1.802v.003Z" clip-rule="evenodd"/>
</svg>
