<svg xmlns="http://www.w3.org/2000/svg" width="24" height="24" fill="none" viewBox="0 0 24 24">
  <path fill="#000" fill-rule="evenodd" d="M11.83 3.181c-1.28 2.014-5.975 9.305-5.975 12.152a5.976 5.976 0 0 0 11.95 0c0-2.847-4.623-10.138-5.974-12.152Zm0 18.819A6.798 6.798 0 0 1 5 15.333c0-3.542 6.26-12.777 6.475-13.124a.407.407 0 0 1 .71 0c.284.347 6.475 9.582 6.475 13.124A6.75 6.75 0 0 1 11.83 22Zm-2.55-3.485a.555.555 0 0 1-.288-.07 4.426 4.426 0 0 1-1.436-3.127c0-.973.79-2.848 2.297-5.63a.382.382 0 0 1 .574-.139.359.359 0 0 1 .144.556c-1.867 3.406-2.154 4.726-2.154 5.213a3.318 3.318 0 0 0 1.149 2.502.362.362 0 0 1 .073.556c-.072.14-.216.14-.36.14Z" clip-rule="evenodd"/>
</svg>
