<svg xmlns="http://www.w3.org/2000/svg" width="24" height="24" fill="none" viewBox="0 0 24 24">
  <path fill="#000" fill-rule="evenodd" d="M19.394 7.398a.444.444 0 0 0-.252-.367l-5.006-4.878a.446.446 0 0 0-.264-.142.284.284 0 0 0-.036-.01H4.431a.407.407 0 0 0-.428.416V21.58a.373.373 0 0 0 .428.417h14.536a.406.406 0 0 0 .427-.417V7.41c-.002-.004 0-.007 0-.011Zm-5.141-3.95 3.628 3.534h-3.628V3.448ZM4.858 21.162V2.834h8.538v4.564a.372.372 0 0 0 .43.415h4.712v13.35H4.858Zm11.979-3.747a.397.397 0 0 1-.43.395h-9.42c-.287 0-.431-.131-.431-.395a.396.396 0 0 1 .43-.395h9.42a.443.443 0 0 1 .431.395Zm0 1.65a.406.406 0 0 1-.43.42h-9.42a.379.379 0 0 1-.431-.42.406.406 0 0 1 .43-.418h9.42a.456.456 0 0 1 .431.419Zm-8.13-5.393H9.99v1.255a.376.376 0 0 0 .427.419h2.563a.407.407 0 0 0 .428-.419v-1.255h1.282a.407.407 0 0 0 .427-.418v-2.511a.455.455 0 0 0-.428-.419h-1.281V9.068a.455.455 0 0 0-.428-.418h-2.563a.407.407 0 0 0-.427.418v1.256H8.708a.405.405 0 0 0-.427.419v2.51a.376.376 0 0 0 .427.419Zm.428-2.511h1.282a.404.404 0 0 0 .428-.418V9.487h1.708v1.256a.374.374 0 0 0 .427.418h1.282v1.674H12.98a.407.407 0 0 0-.427.418v1.256h-1.708v-1.255a.455.455 0 0 0-.428-.419H9.135v-1.674Z" clip-rule="evenodd"/>
</svg>
