<svg xmlns="http://www.w3.org/2000/svg" width="24" height="24" fill="none" viewBox="0 0 24 24">
  <path fill="#000" fill-rule="evenodd" d="M19.811 4.504h-3.84v-.417a.455.455 0 0 0-.428-.418h-1.355a2.159 2.159 0 0 0-4.206 0H8.698a.405.405 0 0 0-.427.418v.417H4.43a.405.405 0 0 0-.427.416v16.66a.373.373 0 0 0 .427.417h15.381a.407.407 0 0 0 .427-.417V4.923a.455.455 0 0 0-.427-.42Zm-13.238 9.99h1.28c.142 0 .214 0 .285-.138l.924-1.175 1.423 2.004a.262.262 0 0 0 .356.139.393.393 0 0 0 .356-.207l1.635-3.18 1.423 4.769a.47.47 0 0 0 .356.276h.071a.394.394 0 0 0 .356-.207l1.138-2.28h1.494v4.16H6.573v-4.16Zm11.096-.829H15.96a.48.48 0 0 0-.426.277l-.783 1.52-1.423-4.768c0-.207-.142-.276-.356-.345a.586.586 0 0 0-.426.276l-1.779 3.524-1.28-1.935a.408.408 0 0 0-.711 0l-1.138 1.45H6.572V7.009H8.27v.42a.373.373 0 0 0 .427.418h6.845a.407.407 0 0 0 .428-.417v-.42h1.697l.002 6.656Zm-7.26-9.164a.406.406 0 0 0 .428-.417 1.284 1.284 0 0 1 2.567 0 .374.374 0 0 0 .428.417h1.283v.395c0 .007-.004.015-.004.022 0 .008.004.017.004.027v1.6a.363.363 0 0 0-.007.043.491.491 0 0 0 .007.05v.368h-5.99v-.383a.329.329 0 0 0 .008-.035.291.291 0 0 0-.007-.03V4.941c0-.007.004-.012.004-.02a.132.132 0 0 0-.004-.015v-.399l1.283-.007Zm8.975 16.656H4.857V5.334h3.416v.837H6.148a.405.405 0 0 0-.427.416v12.488a.372.372 0 0 0 .427.416h11.949a.405.405 0 0 0 .427-.416V6.592a.456.456 0 0 0-.427-.416h-2.125v-.837h3.416l-.004 15.818Z" clip-rule="evenodd"/>
</svg>
