<svg xmlns="http://www.w3.org/2000/svg" width="24" height="24" fill="none" viewBox="0 0 24 24">
  <path fill="#000" fill-rule="evenodd" d="M20.282 4.086v17.493a.373.373 0 0 1-.428.417H4.43a.407.407 0 0 1-.43-.417V4.086a.455.455 0 0 1 .43-.417h1.713a.406.406 0 0 1 .43.417.374.374 0 0 1-.43.416H4.86v16.66h14.565V4.502H18.14a.406.406 0 0 1-.43-.416.455.455 0 0 1 .43-.417h1.715a.405.405 0 0 1 .428.417ZM7.444 5.344V4.069a.452.452 0 0 1 .427-.415h2.206a2.16 2.16 0 0 1 4.197 0h2.138a.405.405 0 0 1 .428.415v1.275h1.291a.404.404 0 0 1 .43.416v14.145a.373.373 0 0 1-.43.416H6.149a.406.406 0 0 1-.428-.416V5.76a.454.454 0 0 1 .428-.416h1.295Zm9.396.832v.381a.372.372 0 0 1-.428.415h-8.54a.406.406 0 0 1-.428-.415v-.38H6.58v13.312h11.127V6.176h-.866Zm-8.541-.034h7.687V4.483H13.85a.405.405 0 0 1-.427-.414 1.282 1.282 0 0 0-2.563 0 .372.372 0 0 1-.427.414H8.298v1.66Zm7.274 9.2H8.71a.456.456 0 0 0-.43.419.408.408 0 0 0 .43.419h6.863a.374.374 0 0 0 .412-.248.377.377 0 0 0 .019-.171.407.407 0 0 0-.43-.417v-.002Zm0 1.675H8.71a.444.444 0 0 0-.43.395.398.398 0 0 0 .43.396h6.863c.287 0 .43-.132.43-.396a.395.395 0 0 0-.43-.394v-.001Zm-6.408-5.442V9.9a.454.454 0 0 1 .425-.418h1.276V8.228a.454.454 0 0 1 .425-.419h1.701a.406.406 0 0 1 .425.419v1.255h1.276a.405.405 0 0 1 .425.419v1.675a.372.372 0 0 1-.425.418h-1.276v1.256a.374.374 0 0 1-.425.419h-1.7a.408.408 0 0 1-.397-.255.405.405 0 0 1-.029-.164v-1.256H9.59a.407.407 0 0 1-.425-.418v-.002Zm.85-.419h1.276a.405.405 0 0 1 .426.42v1.255h.85v-1.256a.455.455 0 0 1 .425-.419h1.276v-.836h-1.276a.402.402 0 0 1-.396-.254.407.407 0 0 1-.03-.164V8.646h-.85v1.256a.372.372 0 0 1-.425.418h-1.275v.836Z" clip-rule="evenodd"/>
</svg>
