<svg xmlns="http://www.w3.org/2000/svg" width="24" height="24" fill="none" viewBox="0 0 24 24">
  <path fill="#000" fill-rule="evenodd" d="m19.557 10.046-2.592 1.523-2.595-1.523v-2.61l2.595-1.523 2.592 1.523v2.61Zm-7.776 9.136L8.325 21.14l-3.457-1.958v-3.48l3.457-1.958 3.456 1.958v3.48ZM9.186 5.26l-1.297.653L6.59 5.26V3.52l1.298-.652 1.297.652v1.74Zm11.017 1.523-3.027-1.74h-.433l-2.808 1.74-3.888-1.523V3.303c0-.216 0-.216-.217-.433L8.1 2h-.432l-1.73.87c-.216.217-.216.217-.216.433v2.175c0 .216 0 .216.216.433l1.73.87H8.1l1.514-.87 3.889 1.522v2.828c0 .216 0 .216.216.433l2.379 1.305-3.889 3.045-3.672-2.175h-.433l-3.888 2.175C4 15.26 4 15.26 4 15.477v3.915c0 .216 0 .216.216.433L8.104 22h.433l3.888-2.175c.216-.216.216-.216.216-.433v-3.69l4.537-3.263 3.027-1.74c.216-.217.216-.217.216-.433V7.22c0-.22 0-.22-.215-.437h-.003ZM7.676 15.078l-1.737.86c-.217.217-.217.217-.217.433v1.72a.434.434 0 0 0 .869 0v-1.506l1.52-.644a.785.785 0 0 0 .216-.645.803.803 0 0 0-.648-.218h-.003Zm8.642-7.817-.886.432c-.221.217-.221.217-.221.433v1.303a.443.443 0 0 0 .886 0V8.343l.664-.216a.789.789 0 0 0 .222-.649.823.823 0 0 0-.665-.217Z" clip-rule="evenodd"/>
</svg>
