<svg xmlns="http://www.w3.org/2000/svg" width="24" height="24" fill="none" viewBox="0 0 24 24">
  <path fill="#000" fill-rule="evenodd" d="m21.47 6.622-4.16-4.155a1.771 1.771 0 0 0-2.397 0 1.944 1.944 0 0 0-.493 1.175 1.652 1.652 0 0 0 .488 1.171l-6.35 6.074a.518.518 0 0 0-.141.344v3.456l-3.008 2.99-.3-.293a.333.333 0 0 0-.494-.069L2.282 18.49c-.142 0-.214.138-.282.277a.523.523 0 0 0 .14.346l2.404 2.355a.542.542 0 0 0 .283.139h.07a1.59 1.59 0 0 0 .354-.208l1.202-2.355a.393.393 0 0 0-.142-.485l-.334-.326 3.138-2.998h3.465c.141 0 .282 0 .353-.138l6.202-6.125.007.007c.301.298.704.472 1.128.485.448 0 .878-.173 1.2-.485a1.574 1.574 0 0 0 0-2.357ZM4.756 20.497 3.13 18.973l1.626-.831.777.761-.777 1.594Zm7.683-6.089H9.34v-.004a.348.348 0 0 0-.073-.044v-2.985l2.07-1.978 3.114 3.05-2.013 1.961Zm2.645-2.584L11.976 8.78l3.527-3.373 3.066 3.01-3.486 3.407Zm5.82-3.468a.821.821 0 0 1-1.198 0l-4.16-4.086a.785.785 0 0 1-.194-.909.785.785 0 0 1 .194-.266.821.821 0 0 1 1.199 0l4.16 4.086a.788.788 0 0 1 0 1.174v.001Z" clip-rule="evenodd"/>
</svg>
