<svg xmlns="http://www.w3.org/2000/svg" width="24" height="24" fill="none" viewBox="0 0 24 24">
  <path fill="#000" fill-rule="evenodd" d="M11.995 13.574c1.429 0 2.716 1.452 2.93 3.39 0 .07.072.07.072 0 .083-.48.13-.965.143-1.451.02-.88-.15-1.753-.5-2.56a.399.399 0 0 1 .071-.484 4.167 4.167 0 0 0 1.144-3.182c0-1.314-.858-2.352-1.859-2.352a1.905 1.905 0 0 0-1.645.9.53.53 0 0 1-.714 0 1.875 1.875 0 0 0-1.573-.9c-1.072 0-1.93 1.038-1.93 2.352a4.169 4.169 0 0 0 1.144 3.182.398.398 0 0 1 .071.484 7.443 7.443 0 0 0-.5 2.56c.005.487.053.972.143 1.451 0 .07.072.07.143 0 .215-1.937 1.428-3.39 2.86-3.39Zm2.93 4.29a.846.846 0 0 1-.858-.762c-.215-1.522-1.075-2.697-2.072-2.697-.997 0-1.86 1.107-2.074 2.628a.855.855 0 0 1-.857.83.983.983 0 0 1-.93-.691 13.2 13.2 0 0 1-.143-1.66c-.02-.902.15-1.798.5-2.629a5.247 5.247 0 0 1-1.215-3.597c0-1.799 1.215-3.182 2.788-3.182a2.595 2.595 0 0 1 1.93.83 2.634 2.634 0 0 1 2.002-.83c1.502 0 2.717 1.383 2.717 3.182a5.248 5.248 0 0 1-1.215 3.597c.35.831.52 1.727.5 2.629a13.02 13.02 0 0 1-.143 1.66.92.92 0 0 1-.93.691ZM3.856 6.487c0 6.817.714 11.895 8.139 14.678 7.423-2.782 8.137-7.86 8.137-14.678-1.285-.347-5.996-1.739-8.137-3.548-2.142 1.809-6.853 3.2-8.138 3.548ZM11.995 22h-.144C3.641 19.009 3 13.305 3 6.14a.571.571 0 0 1 .286-.419c.07 0 6.352-1.669 8.423-3.616a.441.441 0 0 1 .57 0c2.071 1.947 8.352 3.616 8.424 3.616a.572.572 0 0 1 .285.418c0 7.164-.645 12.868-8.851 15.861h-.142Z" clip-rule="evenodd"/>
</svg>
