<svg xmlns="http://www.w3.org/2000/svg" width="24" height="24" fill="none" viewBox="0 0 24 24">
  <path fill="#000" fill-rule="evenodd" d="M16.122 9.981h-2.29a.46.46 0 1 0 0 .922h1.832v1.381a.493.493 0 0 1-.458.461h-1.374a.46.46 0 0 0 0 .921h.916v1.383a.494.494 0 0 1-.458.46h-1.374a.44.44 0 0 0-.458.46.494.494 0 0 0 .458.461h.916v.845a.93.93 0 0 1-.916.921H10.09a8.358 8.358 0 0 1-2.366-.307l-4.809-1.382V8.83c1.985-1.382 7.634-4.76 7.71-4.76a.64.64 0 0 1 .916.153.708.708 0 0 1-.076.767l-2.06 2.38a.476.476 0 0 0-.077.538.42.42 0 0 0 .382.23h10.458a.97.97 0 0 1 .916.767.926.926 0 0 1-.916 1.075h-4.046v.001ZM22 9.06a1.863 1.863 0 0 0-1.832-1.842h-9.465l1.45-1.612a1.644 1.644 0 0 0-.077-2.15 1.508 1.508 0 0 0-1.985-.154c-.228.153-6.106 3.608-7.938 4.99A.398.398 0 0 0 2 8.6v8.215a.519.519 0 0 0 .306.46l5.19 1.46a7.353 7.353 0 0 0 2.596.383h2.824a1.812 1.812 0 0 0 1.832-1.842v-.998a1.311 1.311 0 0 0 .917-1.228v-1.46a1.411 1.411 0 0 0 .916-1.305v-1.381h3.587A1.863 1.863 0 0 0 22 9.06Zm-2.514 11.41a1.29 1.29 0 0 1-1.298-1.305c.311-1.34.746-2.65 1.298-3.91.552 1.26.986 2.57 1.298 3.91a1.248 1.248 0 0 1-1.298 1.304Zm0-6.903a.509.509 0 0 0-.382.307c-.306.69-1.834 4.294-1.834 5.29a2.216 2.216 0 1 0 4.432 0c0-.996-1.452-4.6-1.758-5.29a.516.516 0 0 0-.458-.306Z" clip-rule="evenodd"/>
</svg>
