<svg xmlns="http://www.w3.org/2000/svg" width="24" height="24" fill="none" viewBox="0 0 24 24">
  <path fill="#000" fill-rule="evenodd" d="M7.192 20.105c.15-.436.298-1.018.597-1.817h9.238c.293.587.542 1.194.746 1.817H7.192Zm1.194-2.762a14.61 14.61 0 0 1 1.193-1.745h5.737c.457.54.856 1.124 1.194 1.745v.072h-8.2l.076-.072Zm2.012-2.762a57.54 57.54 0 0 1 2.085-1.963c.746.727 1.493 1.38 2.012 1.963l.075.072h-4.249l.077-.072Zm0-5.162-.075-.072h4.322l-.075.072a13.397 13.397 0 0 1-2.089 1.963 13.424 13.424 0 0 1-2.085-1.963h.002Zm-.82-1.017a8.458 8.458 0 0 1-1.194-1.817h8.196v.072a14.61 14.61 0 0 1-1.193 1.745H9.578Zm-1.79-2.763c-.299-.727-.447-1.38-.597-1.744h10.58c-.204.623-.453 1.23-.746 1.817H7.862l-.074-.073Zm10.654 16.356a.39.39 0 0 0 .447-.436c0-.218-.075-4.725-5.662-9.45l-.075-.073h.075c5.587-4.797 5.662-9.595 5.662-9.595a.39.39 0 0 0-.447-.436.49.49 0 0 0-.522.436v.509H6.968v-.073a1.532 1.532 0 0 1-.074-.436.39.39 0 0 0-.447-.436A.425.425 0 0 0 6 2.44a9.452 9.452 0 0 0 .745 3.126 18.073 18.073 0 0 0 4.917 6.47h.075l-.075.072C6 16.834 6 21.486 6 21.56a.425.425 0 0 0 .447.436.39.39 0 0 0 .447-.436 2.3 2.3 0 0 1 .074-.509h10.953v.51a.489.489 0 0 0 .521.435Z" clip-rule="evenodd"/>
</svg>
