<svg xmlns="http://www.w3.org/2000/svg" width="24" height="24" fill="none" viewBox="0 0 24 24">
  <path fill="#000" fill-rule="evenodd" d="M21.947 5.452a.384.384 0 0 0-.349-.204c-.558 0-1.393-.477-2.23-.886-1.588-.835-3.656-1.984-5.363-.793A2.078 2.078 0 0 0 11.977 2a2.138 2.138 0 0 0-2.033 1.6c-1.697-1.143-3.75-.053-5.325.777-.833.408-1.665.883-2.22.883a.383.383 0 0 0-.347.203.301.301 0 0 0 0 .34c.625 1.494 3.4 2.785 6.383 2.785a11.07 11.07 0 0 0 1.76-.147c.108 1.428.237 3.104.374 4.887a9.485 9.485 0 0 1-2.178-.259c-.975-.27-1.392-.678-1.392-1.493 0-.473.696-1.086 2.365-1.425a.418.418 0 0 0 .363-.361.42.42 0 0 0-.203-.418.398.398 0 0 0-.3-.036c-1.95.407-3.063 1.29-3.063 2.24 0 1.156.696 1.968 2.02 2.308.04.01.082.013.123.022a1.93 1.93 0 0 0-1.19 1.81c0 1.56 1.391 2.123 2.777 2.327a1.95 1.95 0 0 0-.25.253 2.495 2.495 0 0 0-.07 2.24.473.473 0 0 0 .418.27.22.22 0 0 0 .14-.067c.21-.068.348-.272.21-.473a1.81 1.81 0 0 1 0-1.493 1.4 1.4 0 0 1 .615-.43l.187 2.447a.841.841 0 0 0 1.672 0c.052-.701.113-1.541.183-2.463.26.082.49.237.664.446a1.81 1.81 0 0 1 0 1.493.348.348 0 0 0 .21.473.219.219 0 0 0 .14.068.47.47 0 0 0 .418-.271 2.495 2.495 0 0 0-.07-2.24 1.715 1.715 0 0 0-.235-.255c1.381-.206 2.762-.77 2.762-2.324a1.93 1.93 0 0 0-1.189-1.81c.04-.01.084-.013.124-.023 1.323-.34 2.02-1.156 2.02-2.308 0-.95-1.115-1.833-3.064-2.24a.398.398 0 0 0-.487.272.536.536 0 0 0 .347.543c1.671.34 2.368.95 2.368 1.425 0 .815-.42 1.222-1.393 1.493-.73.173-1.479.26-2.23.26.133-1.712.263-3.415.377-4.892.587.095 1.181.145 1.776.15 2.998 0 5.788-1.295 6.415-2.794a.303.303 0 0 0-.002-.34Zm-18.855.486a6.955 6.955 0 0 0 1.944-.882c2.09-1.055 3.654-1.72 4.887-.389.04.625.116 1.656.213 2.958-3.086.546-6.038-.504-7.044-1.687Zm9.39 8.223-.246 3.182c-.076 0-.148.003-.226.003h-.021c-.098 0-.19 0-.284-.004-.09-1.127-.173-2.187-.251-3.18.172-.004.35-.007.535-.007h.021c.162 0 .319.003.472.006Zm-4.53 1.556c0-.894.844-1.37 2.684-1.514.078 1.02.157 2.065.239 3.11-2.004-.121-2.924-.61-2.924-1.596Zm4.025 5.003-.206-2.55a3.58 3.58 0 0 1 .228-.01c.049 0 .108.003.174.006l-.196 2.554Zm1.096-3.403c.075-.99.157-2.047.24-3.117 1.873.139 2.735.618 2.735 1.517 0 .994-.934 1.484-2.975 1.6Zm-.875-3.976h-.808c-.357-4.598-.57-7.587-.64-8.766v-.02a14.254 14.254 0 0 1-.025-.52 1.254 1.254 0 0 1 2.506 0c0 .063-.008.227-.025.485v.005c-.074 1.161-.309 4.239-.66 8.816h-.348Zm1.62-5.733c.098-1.283.174-2.326.215-2.954 1.243-1.406 2.88-.735 4.915.39a9.765 9.765 0 0 0 1.953.886c-1.02 1.196-4.024 2.256-7.082 1.678Z" clip-rule="evenodd"/>
</svg>
