<svg xmlns="http://www.w3.org/2000/svg" width="24" height="24" fill="none" viewBox="0 0 24 24">
  <path fill="#000" fill-rule="evenodd" d="M21.132 6.67h-10.43v-.89a.945.945 0 0 1 .87-.89h8.69a.946.946 0 0 1 .87.89v.89Zm-.87 2.671h-5.648a.473.473 0 0 0-.435.445v6.231a.474.474 0 0 0 .435.446h5.649v1.335a1.42 1.42 0 0 1-1.304 1.335h-6.085a1.42 1.42 0 0 1-1.303-1.335V7.56h8.69l.002 1.78Zm0 6.231h-5.214v-5.341h5.215v5.341ZM9.618 12.234l-1.304 1.113-1.086-1.113L8.313 10.9a1.067 1.067 0 0 1 1.304 0 .845.845 0 0 1 0 1.335ZM6.575 15.35a.803.803 0 0 1-1.304 0 1.133 1.133 0 0 1 0-1.335l1.304-1.113 1.086 1.113-1.086 1.335Zm2.39 2.893a.947.947 0 0 1-.87.89H6.358v-1.78h1.738a.946.946 0 0 1 .87.89Zm-6.084 0a.946.946 0 0 1 .87-.89h1.738v1.78h-1.74a.947.947 0 0 1-.869-.89h.001ZM20.264 4h-8.692a1.892 1.892 0 0 0-1.738 1.78v1.335a.473.473 0 0 0 .434.446h.435v3.783c0-.445-.218-.668-.435-1.113a1.943 1.943 0 0 0-2.608 0l-3.04 3.116a2.267 2.267 0 0 0 0 2.67c.434.223.651.446 1.086.446H3.75a1.78 1.78 0 0 0 0 3.56h4.346a1.78 1.78 0 0 0 0-3.56H6.139c.435 0 .652-.226 1.087-.446l3.041-3.115c.218-.445.435-.668.435-1.113v6.009a2.077 2.077 0 0 0 2.173 2.225h6.083a2.077 2.077 0 0 0 2.173-2.225V7.56h.435A.473.473 0 0 0 22 7.115V5.78A1.892 1.892 0 0 0 20.263 4Z" clip-rule="evenodd"/>
</svg>
