<svg xmlns="http://www.w3.org/2000/svg" width="24" height="24" fill="none" viewBox="0 0 24 24">
  <path fill="#000" fill-rule="evenodd" d="M21.153 8.964a4.059 4.059 0 0 1-1.2 2.964l-3.034 2.964-6.07-5.928 3.035-2.965a4.26 4.26 0 0 1 3.035-1.172c1.122 0 2.204.418 3.034 1.172a4.297 4.297 0 0 1 1.2 2.965Zm-4.87 6.549-3.034 2.895a4.33 4.33 0 0 1-6.069 0 4.135 4.135 0 0 1 0-5.86l3.034-2.964 6.07 5.929Zm4.235-10.065a5.286 5.286 0 0 0-7.269 0l-6.634 6.48a4.992 4.992 0 0 0 0 7.1 5.286 5.286 0 0 0 7.27 0l6.633-6.48a4.993 4.993 0 0 0 0-7.1Zm-1.563 1.54a3.264 3.264 0 0 0-4.66 0L12.74 8.43c-.07.138-.14.206-.14.344.017.103.066.2.14.274.08.073.177.12.283.138a.372.372 0 0 0 .283-.138l1.554-1.51a2.612 2.612 0 0 1 3.531 0 .438.438 0 0 0 .566 0 .515.515 0 0 0 .14-.275.354.354 0 0 0-.142-.275ZM6.298 5.315a3.676 3.676 0 0 1 1.761.414L3.761 9.808a2.502 2.502 0 0 1-.916-1.798c0-1.52 1.55-2.695 3.453-2.695Zm4.157 2.212a3.122 3.122 0 0 0-1.34-2.143 4.872 4.872 0 0 0-2.817-.899C4.043 4.485 2.14 5.937 2 7.803v2.143a3.494 3.494 0 0 0 1.902 2.834c.251.13.51.246.775.346.141 0 .211.069.283.069h.14a.477.477 0 0 0 .423-.277.61.61 0 0 0-.07-.345.531.531 0 0 0-.212-.139h-.07c-.07-.069-.211-.069-.283-.138a2.64 2.64 0 0 1-2.043-2.28 4.467 4.467 0 0 0 2.89 1.45h.774v-.069a.374.374 0 0 0 .352-.345v-.138a.542.542 0 0 0-.282-.277h-.353a4.982 4.982 0 0 1-1.761-.346l4.297-4.078c.336.252.603.585.776.968v.138a.068.068 0 0 1 .07.07v.138a.21.21 0 0 1 .07.138.46.46 0 0 0 .283.345h.141a.367.367 0 0 0 .283-.138c.07-.138.14-.207.07-.345Z" clip-rule="evenodd"/>
</svg>
