<svg xmlns="http://www.w3.org/2000/svg" width="24" height="24" fill="none" viewBox="0 0 24 24">
  <path fill="#000" fill-rule="evenodd" d="M17.293 16.402a1.32 1.32 0 0 1-1.285 1.22h-8.43a1.323 1.323 0 0 1-1.286-1.22L5.863 3.99a.606.606 0 0 1 .572-.717l1.143-.143a27.136 27.136 0 0 1 4.215-.287c1.41-.012 2.819.084 4.215.287l1.143.143a.651.651 0 0 1 .571.717l-.429 12.41Zm-.071-13.99L16.15 2.27a35.406 35.406 0 0 0-8.715 0l-1.072.144A1.452 1.452 0 0 0 5.006 3.99l.429 12.41a2.188 2.188 0 0 0 2.143 2.081h8.43a2.188 2.188 0 0 0 2.143-2.08l.428-12.411a1.502 1.502 0 0 0-1.357-1.578Zm-1.784 11.104H8.075L7.36 4.859h8.864l-.785 8.657ZM16.725 4H6.858c-.142 0-.214 0-.285.142a.286.286 0 0 0-.143.287l.857 9.587a.4.4 0 0 0 .43.358h8.148a.4.4 0 0 0 .43-.358l.857-9.587a.545.545 0 0 0-.143-.287C16.94 4 16.869 4 16.726 4Zm-6.209 11.976a.154.154 0 0 1-.143.144h-1.93c-.143 0-.143-.072-.143-.144v-.145h2.217v.145Zm.43-1.01H7.87a.382.382 0 0 0-.43.433v.577a.983.983 0 0 0 1.003 1.01h1.93a.982.982 0 0 0 1-1.01v-.577a.38.38 0 0 0-.427-.433Zm4.34 1.01a.155.155 0 0 1-.143.144h-1.93c-.143 0-.143-.072-.143-.144v-.145h2.217l-.001.145Zm.43-1.01H12.64a.382.382 0 0 0-.43.433v.577a.98.98 0 0 0 1.001 1.01h1.93a.981.981 0 0 0 1.002-1.01v-.577a.381.381 0 0 0-.428-.433Zm-3.923 3.725a.406.406 0 0 0-.418.431v2.445a.42.42 0 0 0 .418.433.417.417 0 0 0 .417-.433v-2.445a.408.408 0 0 0-.417-.43Zm.017-11.124c.446.967.782 1.981 1.003 3.024a1.016 1.016 0 0 1-1.003.937.966.966 0 0 1-1.003-.938c.22-1.041.557-2.056 1.003-3.023Zm0 4.823a1.84 1.84 0 0 0 1.862-1.8c0-.864-1.218-3.742-1.504-4.318 0-.216-.215-.288-.358-.288a.445.445 0 0 0-.43.288c-.215.576-1.433 3.454-1.433 4.319a1.84 1.84 0 0 0 1.863 1.799Z" clip-rule="evenodd"/>
</svg>
