<svg xmlns="http://www.w3.org/2000/svg" width="24" height="24" fill="none" viewBox="0 0 24 24">
  <path fill="#000" fill-rule="evenodd" d="M14.082 16.804h-.07a.564.564 0 0 1-.347-.338L12.278 11.8l-1.597 3.11a.459.459 0 0 1-.347.27.383.383 0 0 1-.347-.203L8.6 13.018l-.902 1.15c-.07.136-.14.203-.278.203H2.422a.396.396 0 0 1-.419-.405.363.363 0 0 1 .419-.405H7.21l1.11-1.488a.514.514 0 0 1 .695 0l1.249 1.893 1.735-3.448c.07-.135.278-.27.418-.203a.315.315 0 0 1 .348.27l1.388 4.665.764-1.487a.422.422 0 0 1 .418-.203h6.246a.392.392 0 0 1 .39.246c.02.05.03.105.029.16a.442.442 0 0 1-.419.405h-6.038l-1.11 2.164a.46.46 0 0 1-.35.269ZM4.18 12.688a.422.422 0 0 0 .21-.541 8.386 8.386 0 0 1-.693-3.317c0-3.248 1.799-4.805 3.599-4.94 1.8-.136 3.806 1.015 4.29 3.993a.385.385 0 0 0 .414.339.436.436 0 0 0 .415-.339c.416-2.978 2.492-4.196 4.29-4.06 1.798.135 3.599 1.556 3.599 4.534a8.451 8.451 0 0 1-1.039 3.79.422.422 0 0 0 .21.541.383.383 0 0 0 .464-.062.4.4 0 0 0 .09-.14 9.706 9.706 0 0 0 1.107-4.129c0-3.453-2.284-5.212-4.36-5.347A4.69 4.69 0 0 0 12 6.259c-.969-2.37-2.975-3.317-4.708-3.181-2.214.135-4.43 1.962-4.43 5.754a9.102 9.102 0 0 0 .762 3.655.467.467 0 0 0 .415.271.215.215 0 0 0 .14-.07Zm8.033 8.797a33.973 33.973 0 0 0 5.755-5.679.412.412 0 0 0-.07-.54.448.448 0 0 0-.624.067 32.767 32.767 0 0 1-5.338 5.34 28.545 28.545 0 0 1-5.685-5.34.37.37 0 0 0-.554-.068.351.351 0 0 0-.07.541 26.24 26.24 0 0 0 6.102 5.677c.07.067.139.067.277.067a.262.262 0 0 0 .207-.067v.002Z" clip-rule="evenodd"/>
</svg>
