<svg xmlns="http://www.w3.org/2000/svg" width="24" height="24" fill="none" viewBox="0 0 24 24">
  <path fill="#000" fill-rule="evenodd" d="M22 12.218a.397.397 0 0 0-.416-.407H17V10.71a5.626 5.626 0 0 0 .864-2.99 5.842 5.842 0 0 0-11.682 0A5.567 5.567 0 0 0 7 10.61v1.2H2.415a.443.443 0 0 0-.415.406v8.98a.43.43 0 0 0 .397.382c.007 0 .012.004.018.004h19.17c.007 0 .01-.003.018-.004a.383.383 0 0 0 .397-.403v-8.957Zm-.831.408v8.183h-4.154v-8.185l4.154.002ZM12.023 2.81a4.937 4.937 0 0 1 5.007 4.91c0 .895-.247 1.772-.716 2.534a.429.429 0 0 0-.105.17A4.976 4.976 0 0 1 7.015 7.7a4.975 4.975 0 0 1 5.007-4.889h.001Zm0 10.636a5.863 5.863 0 0 0 4.16-1.702v9.064h-2.5v-1.234a.396.396 0 0 0-.42-.402h-2.524a.442.442 0 0 0-.42.402v1.234H7.817v-9.142a5.879 5.879 0 0 0 4.205 1.779v.001Zm-.864 7.334v-.804h1.682v.804H11.16Zm-4.172-8.155v8.183H2.833v-8.185l4.154.002Zm2.112-3.27h1.253v1.228a.444.444 0 0 0 .417.409h2.507a.395.395 0 0 0 .388-.248.396.396 0 0 0 .029-.161V9.357h1.253a.396.396 0 0 0 .418-.41V6.494a.396.396 0 0 0-.418-.41h-1.253V4.858c0-.136 0-.204-.07-.273-.139-.067-.21-.136-.347-.136h-2.507a.444.444 0 0 0-.417.41v1.226H9.099a.444.444 0 0 0-.418.41v2.454a.446.446 0 0 0 .419.407v.002Zm.418-2.454h1.252a.397.397 0 0 0 .418-.41V5.267h1.671v1.227a.351.351 0 0 0 .14.273.53.53 0 0 0 .278.136h1.252v1.636h-1.252a.445.445 0 0 0-.418.41v1.226h-1.671V8.947a.396.396 0 0 0-.418-.41H9.517V6.903Zm-5.881 6.954a.449.449 0 0 1 .424-.409h1.698a.408.408 0 0 1 .39.57.409.409 0 0 1-.39.249H4.06a.448.448 0 0 1-.424-.411v.001Zm0 1.636a.448.448 0 0 1 .424-.408h1.698a.408.408 0 0 1 .302.706.408.408 0 0 1-.302.112H4.06a.448.448 0 0 1-.424-.411v.002Zm0 1.637a.448.448 0 0 1 .424-.409h1.698a.408.408 0 0 1 .302.706.408.408 0 0 1-.302.112H4.06a.448.448 0 0 1-.424-.41v.001Zm0 1.636a.449.449 0 0 1 .424-.409h1.698a.408.408 0 0 1 .302.706.408.408 0 0 1-.302.112H4.06a.448.448 0 0 1-.424-.41v.002Zm14.227-4.909a.443.443 0 0 1 .417-.409h1.666a.41.41 0 0 1 .162.792.409.409 0 0 1-.162.027H18.28a.444.444 0 0 1-.415-.411l-.002.001Zm0 1.636a.443.443 0 0 1 .417-.408h1.666a.409.409 0 0 1 0 .818H18.28a.445.445 0 0 1-.415-.411l-.002.002Zm0 1.637a.443.443 0 0 1 .417-.409h1.666a.41.41 0 0 1 0 .818H18.28a.443.443 0 0 1-.415-.41l-.002.001Zm0 1.636a.443.443 0 0 1 .417-.409h1.666a.409.409 0 0 1 0 .818H18.28a.443.443 0 0 1-.415-.41l-.002.002Zm-9.182-4.09a.44.44 0 0 1 .41-.41h.818a.409.409 0 0 1 0 .819H9.09a.44.44 0 0 1-.408-.411v.001Zm0 1.636a.44.44 0 0 1 .41-.409h.818a.409.409 0 0 1 0 .818H9.09a.44.44 0 0 1-.408-.41v.001Zm0 1.636a.44.44 0 0 1 .41-.409h.818a.409.409 0 0 1 0 .818H9.09a.44.44 0 0 1-.408-.41v.001Zm2.5-3.273a.44.44 0 0 1 .41-.408h.817a.409.409 0 0 1 0 .818h-.818a.44.44 0 0 1-.408-.411v.001Zm0 1.637a.44.44 0 0 1 .41-.409h.817a.409.409 0 0 1 0 .818h-.818a.44.44 0 0 1-.408-.41v.001Zm0 1.636a.44.44 0 0 1 .41-.409h.817a.409.409 0 0 1 0 .818h-.818a.44.44 0 0 1-.408-.41v.001Zm2.5-3.273a.447.447 0 0 1 .42-.408h.842a.409.409 0 1 1 0 .818h-.841a.446.446 0 0 1-.42-.411v.001Zm0 1.637a.447.447 0 0 1 .42-.409h.842a.409.409 0 1 1 0 .818h-.841a.446.446 0 0 1-.42-.41v.001Zm0 1.636a.447.447 0 0 1 .42-.409h.842a.409.409 0 1 1 0 .818h-.841a.446.446 0 0 1-.42-.41v.001Z" clip-rule="evenodd"/>
</svg>
