<svg xmlns="http://www.w3.org/2000/svg" width="24" height="24" fill="none" viewBox="0 0 24 24">
  <path fill="#000" fill-rule="evenodd" d="M22 15.646a1.23 1.23 0 0 0-1.252-1.217h-6.23v-2.862a1.23 1.23 0 0 0-1.253-1.22H8.667v-.839a3.765 3.765 0 1 0-.816 0v.84h-4.6A1.232 1.232 0 0 0 2 11.568v9.777a.433.433 0 0 0 .416.386h19.166a.432.432 0 0 0 .417-.386v-.02l.001-5.68ZM5.332 5.858a2.929 2.929 0 1 1 2.927 2.857 2.91 2.91 0 0 1-2.927-2.857Zm15.834 9.788v5.313h-4.154v-1.232a.44.44 0 0 0-.415-.4h-1.663a.44.44 0 0 0-.416.4v1.232H10.32v-2.743a.25.25 0 0 0 0-.227v-2.223a.336.336 0 0 0 .027-.113.306.306 0 0 0-.014-.06.442.442 0 0 1 .405-.353h10.013a.443.443 0 0 1 .414.406Zm-5.817 5.283v-.801h.832v.801h-.832ZM3.252 11.161h4.994c.005 0 .01.003.013.003l.015-.003h4.992a.443.443 0 0 1 .417.406v2.862h-2.947a1.237 1.237 0 0 0-1.177.817H4.914a.408.408 0 0 0 0 .816h4.57v1.632h-4.57a.409.409 0 1 0 0 .817h4.57v2.448H2.836v-9.39a.443.443 0 0 1 .417-.408Zm1.243 2.046a.444.444 0 0 1 .42-.409h6.692a.409.409 0 0 1 0 .817H4.915a.443.443 0 0 1-.42-.41v.002ZM8.26 7.9a.439.439 0 0 1-.407-.408V6.266h-1.26a.408.408 0 0 1 0-.816h1.26V4.226a.408.408 0 1 1 .816 0V5.45h1.26a.408.408 0 0 1 0 .816h-1.26V7.49a.439.439 0 0 1-.409.409V7.9Zm2.902 10.204a.446.446 0 0 1 .42-.409h.84a.408.408 0 1 1 0 .817h-.84a.445.445 0 0 1-.42-.41v.002Zm0-1.633a.446.446 0 0 1 .42-.408h.84a.408.408 0 0 1 0 .816h-.84a.445.445 0 0 1-.42-.41v.002Zm2.495 1.633a.445.445 0 0 1 .42-.409h.839a.41.41 0 0 1 .156.785.41.41 0 0 1-.156.032h-.84a.445.445 0 0 1-.42-.41v.002Zm0-1.633a.446.446 0 0 1 .42-.408h.839a.407.407 0 1 1 0 .816h-.84a.445.445 0 0 1-.42-.41v.002Zm2.54 1.633a.439.439 0 0 1 .408-.409h.816a.408.408 0 1 1 0 .817h-.816a.438.438 0 0 1-.409-.41v.002Zm0-1.633a.438.438 0 0 1 .408-.408h.816a.409.409 0 1 1 0 .816h-.816a.438.438 0 0 1-.409-.41v.002Zm2.494 1.633a.445.445 0 0 1 .42-.409h.839a.408.408 0 1 1 0 .817h-.84a.445.445 0 0 1-.42-.41l.001.002Zm0-1.633a.446.446 0 0 1 .42-.408h.839a.408.408 0 0 1 0 .816h-.84a.444.444 0 0 1-.42-.41l.001.002Z" clip-rule="evenodd"/>
</svg>
