<svg xmlns="http://www.w3.org/2000/svg" width="24" height="24" fill="none" viewBox="0 0 24 24">
  <path fill="#000" fill-rule="evenodd" d="M16.329 2h-5.955a.454.454 0 0 0-.425.415v1.661a1.277 1.277 0 0 1-2.552 0v-.415a.403.403 0 0 0-.425-.415.454.454 0 0 0-.425.415v.415a2.094 2.094 0 0 0 1.712 2.036v1.72H6.126A2.154 2.154 0 0 0 4 9.909v7.47a2.107 2.107 0 0 0 2.126 2.075h2.133v2.5h.834v-2.5h2.133a2.064 2.064 0 0 0 2.126-2.075v-7.47a2.106 2.106 0 0 0-2.126-2.075H9.093V6.11a2.045 2.045 0 0 0 1.704-2.036V2.829h5.53a2.96 2.96 0 0 1 2.976 2.906v15.85a.455.455 0 0 0 .426.414.404.404 0 0 0 .425-.415V5.735A3.812 3.812 0 0 0 16.33 2Zm-5.103 16.623h-5.1a1.256 1.256 0 0 1-1.276-1.245v-6.211h7.652v1.667H9.937a.455.455 0 0 0-.427.417.405.405 0 0 0 .427.416h2.565v.833h-1.69a.44.44 0 0 0-.423.394.392.392 0 0 0 .424.393h1.689v.834H9.937a.455.455 0 0 0-.427.416.405.405 0 0 0 .427.417h2.565v.425a1.255 1.255 0 0 1-1.276 1.244Zm1.275-8.715v.425h-7.65v-.425a1.255 1.255 0 0 1 1.275-1.245h2.53c.007 0 .013.003.02.003.007 0 .014-.003.024-.003h2.526a1.255 1.255 0 0 1 1.275 1.245Z" clip-rule="evenodd"/>
</svg>
