<svg xmlns="http://www.w3.org/2000/svg" width="24" height="24" fill="none" viewBox="0 0 24 24">
  <path fill="#000" fill-rule="evenodd" d="M15.732 12.105h-2.086v-2.03a.395.395 0 0 0-.417-.405h-2.503a.442.442 0 0 0-.42.406v2.03H8.22a.443.443 0 0 0-.417.405v2.435a.396.396 0 0 0 .417.406h2.086v2.03a.396.396 0 0 0 .42.405h2.503a.363.363 0 0 0 .417-.405v-2.03h2.086a.365.365 0 0 0 .42-.406v-2.435a.397.397 0 0 0-.42-.406Zm-.417 2.435H13.23a.443.443 0 0 0-.42.406v2.03h-1.67v-2.03a.394.394 0 0 0-.417-.406H8.637v-1.624h2.086a.365.365 0 0 0 .417-.406v-2.03h1.67v2.03a.398.398 0 0 0 .42.406h2.085v1.624Zm4.601-8.09h-4.583v-.84A1.615 1.615 0 0 0 13.667 4h-3.334a1.661 1.661 0 0 0-1.666 1.61v.84H4.083A2.108 2.108 0 0 0 2 8.477v9.732a2.062 2.062 0 0 0 2.083 2.028h15.834A2.019 2.019 0 0 0 22 18.209V8.477a2.062 2.062 0 0 0-2.084-2.027ZM9.5 5.61a.881.881 0 0 1 .833-.804h3.334a.828.828 0 0 1 .833.805v.839h-5v-.84Zm11.666 12.6a1.229 1.229 0 0 1-1.25 1.216H4.083a1.275 1.275 0 0 1-1.25-1.216V8.477a1.274 1.274 0 0 1 1.25-1.216h15.833a1.228 1.228 0 0 1 1.25 1.216v9.732Z" clip-rule="evenodd"/>
</svg>
