<svg xmlns="http://www.w3.org/2000/svg" width="24" height="24" fill="none" viewBox="0 0 24 24">
  <path fill="#000" fill-rule="evenodd" d="M10.317 21.128h3.41v-5.545a.38.38 0 0 1 .214-.347.462.462 0 0 1 .427 0l4.9 2.772 1.705-2.91-4.9-2.773a.388.388 0 0 1 0-.693l4.9-2.773-1.703-2.911-4.901 2.772a.268.268 0 0 1-.426 0 .38.38 0 0 1-.215-.346V2.83h-3.41v5.545a.379.379 0 0 1-.215.346.267.267 0 0 1-.426 0l-4.9-2.772L3.072 8.86l4.9 2.773a.389.389 0 0 1 0 .693l-4.9 2.772 1.704 2.911 4.901-2.772a.464.464 0 0 1 .426 0 .38.38 0 0 1 .215.347v5.545Zm3.836.832H9.89a.405.405 0 0 1-.426-.417v-5.198L4.777 18.91a.434.434 0 0 1-.283.07c-.143 0-.215-.07-.285-.21l-2.13-3.603a.37.37 0 0 1 .141-.555l4.689-2.63L2.22 9.35a.359.359 0 0 1-.142-.555L4.21 5.191a.979.979 0 0 1 .285-.208c.1-.01.2.014.283.07l4.688 2.63V2.417A.452.452 0 0 1 9.891 2h4.262a.452.452 0 0 1 .426.416v5.268l4.618-2.632a.655.655 0 0 1 .356-.069c.07.07.214.139.283.208l2.132 3.604a.432.432 0 0 1-.215.555l-4.618 2.631 4.618 2.631c.142.07.215.139.215.277.07.07 0 .208 0 .278l-2.132 3.604a.378.378 0 0 1-.283.208.655.655 0 0 1-.356-.069l-4.618-2.565v5.198a.405.405 0 0 1-.426.417Z" clip-rule="evenodd"/>
</svg>
