<svg xmlns="http://www.w3.org/2000/svg" width="24" height="24" fill="none" viewBox="0 0 24 24">
  <path fill="#000" fill-rule="evenodd" d="M16.665 6.177h-3.843V2.835h1.29a.406.406 0 0 0 .427-.417A.456.456 0 0 0 14.11 2H8.98a.456.456 0 0 0-.428.418.406.406 0 0 0 .428.417h1.29v3.342H6.426A.456.456 0 0 0 6 6.595a.405.405 0 0 0 .427.417h2.125v7.903c0 2.094 1.016 3.487 2.553 3.71v2.96a.442.442 0 0 0 .882 0v-2.96c1.537-.223 2.552-1.616 2.552-3.71V7.012h2.126a.406.406 0 0 0 .426-.417.456.456 0 0 0-.426-.418ZM11.12 2.835h.85v3.342h-.85V2.835Zm2.562 12.08c0 1.453-.638 2.904-2.127 2.912h-.02c-1.56-.008-2.128-1.528-2.128-2.912v-2.056h.854a.405.405 0 0 0 .427-.418.455.455 0 0 0-.427-.417h-.854v-.835h.854a.409.409 0 0 0 .427-.418.456.456 0 0 0-.427-.418h-.854v-.835h.854a.407.407 0 0 0 .427-.418.455.455 0 0 0-.427-.417h-.854V7.012h4.276v7.903Z" clip-rule="evenodd"/>
</svg>
