<svg xmlns="http://www.w3.org/2000/svg" width="24" height="24" fill="none" viewBox="0 0 24 24">
  <path fill="#000" fill-rule="evenodd" d="m21.76 9.616.01-.01-.116-.119c-.014-.016-.03-.031-.045-.046l-3.03-3.083a.469.469 0 0 0-.415-.067.297.297 0 0 0-.278.27l-.55 1.88c-.3-.591-.79-1.56-1.612-3.169A.467.467 0 0 0 15.309 5H8.664a.46.46 0 0 0-.346.272L6.706 8.44l-.55-1.879a.297.297 0 0 0-.278-.27.468.468 0 0 0-.415.067l-2.95 3.003A1.251 1.251 0 0 0 2 10.3c0 .068.07.135.07.203.691 1.895 1.25 3.316 1.596 4.332 1.111 2.978 1.181 3.18 2.084 3.18h12.5c.903 0 1.041-.202 2.152-3.18.346-1.016.903-2.437 1.598-4.332V10.3a1.171 1.171 0 0 0-.24-.684Zm-3.319-2.175 1.64 1.64h-2.113l.475-1.64h-.002ZM8.94 5.815h6.16l1.662 3.263H7.279l1.66-3.263ZM5.6 7.44s0 .006.472 1.64H3.96l1.638-1.64Zm13.967 7.12c-.972 2.64-.972 2.64-1.32 2.64h-12.5c-.277 0-.277 0-1.25-2.64-.416-1.015-.902-2.437-1.597-4.264a.454.454 0 0 1 .068-.228l.146-.146a.303.303 0 0 1 .134-.032h3.318c.007 0 .013.004.02.004h10.8c.019 0 .031-.003.05-.004h3.312c.09.004.177.039.245.098l.075.076a.382.382 0 0 1 .096.232c-.693 1.829-1.179 3.25-1.596 4.266l-.001-.002Zm-4.654-2.23H13.66v-1.213a.395.395 0 0 0-.419-.405h-1.67a.445.445 0 0 0-.419.405v1.215H9.898a.445.445 0 0 0-.417.405v1.619a.396.396 0 0 0 .417.405h1.254v1.215a.395.395 0 0 0 .418.405h1.671a.364.364 0 0 0 .419-.405v-1.215h1.253a.363.363 0 0 0 .418-.405v-1.62a.396.396 0 0 0-.416-.404l-.002-.002Zm-.418 1.62h-1.254a.445.445 0 0 0-.418.404v1.215h-.835v-1.215a.395.395 0 0 0-.418-.405h-1.254v-.81h1.254a.364.364 0 0 0 .418-.404v-1.213h.835v1.215a.396.396 0 0 0 .418.405h1.254v.807Z" clip-rule="evenodd"/>
</svg>
