<svg xmlns="http://www.w3.org/2000/svg" width="24" height="24" fill="none" viewBox="0 0 24 24">
  <path fill="#000" fill-rule="evenodd" d="M10.114 10.355H4.145a.452.452 0 0 0-.426.416v2.49a2.04 2.04 0 0 0 1.706 2.007v2.977a.453.453 0 0 0 .426.415h2.558a.407.407 0 0 0 .427-.415v-2.977a1.976 1.976 0 0 0 1.705-2.007v-2.492a.405.405 0 0 0-.427-.414Zm-.426 2.907a1.258 1.258 0 0 1-1.28 1.247.451.451 0 0 0-.426.415v2.907H6.277v-2.906a.404.404 0 0 0-.427-.415 1.258 1.258 0 0 1-1.279-1.246v-2.077h5.116v2.075Zm.016-5.412a2.576 2.576 0 1 0-2.576 2.505A2.532 2.532 0 0 0 9.705 7.85ZM7.128 9.52a1.67 1.67 0 1 1 1.718-1.67A1.718 1.718 0 0 1 7.13 9.52h-.002Zm4.246-5.78V2.419a.404.404 0 0 0-.425-.417H9.247a.452.452 0 0 0-.425.417v1.253H5.434V2.418a.404.404 0 0 0-.425-.417H3.307a.453.453 0 0 0-.425.417v1.32A1.244 1.244 0 0 0 2 4.92v14.16a1.242 1.242 0 0 0 .882 1.18v1.321a.454.454 0 0 0 .425.419H5.01a.407.407 0 0 0 .397-.255.405.405 0 0 0 .028-.164v-1.253h3.388v1.253a.453.453 0 0 0 .425.419h1.702a.407.407 0 0 0 .397-.255.403.403 0 0 0 .028-.164v-1.32a1.242 1.242 0 0 0 .882-1.18V4.923a1.242 1.242 0 0 0-.88-1.182h-.002Zm-1.701-.902h.85v.835h-.85v-.835Zm-5.94 0h.851v.835h-.851v-.835Zm.851 18.33h-.851v-.836h.851v.835Zm5.94 0h-.851v-.836h.85v.835Zm.877-2.085a.405.405 0 0 1-.429.416H3.281a.453.453 0 0 1-.43-.416V4.923a.454.454 0 0 1 .43-.417h7.691a.405.405 0 0 1 .43.417v14.16Zm9.802-12.082h-2.135V4.924a.406.406 0 0 0-.427-.416H16.08a.453.453 0 0 0-.427.416V7h-2.134a.454.454 0 0 0-.427.415v2.492a.453.453 0 0 0 .427.415h2.134V12.4a.454.454 0 0 0 .427.416h2.563a.404.404 0 0 0 .427-.416v-2.076h2.135a.401.401 0 0 0 .399-.251.405.405 0 0 0 .03-.164V7.416a.404.404 0 0 0-.429-.415Zm-.427 2.491h-2.134a.453.453 0 0 0-.43.416v2.076h-1.708V9.908a.405.405 0 0 0-.43-.416h-2.133V7.828h2.134a.405.405 0 0 0 .43-.415V5.337h1.708v2.076a.453.453 0 0 0 .429.415h2.134v1.664Z" clip-rule="evenodd"/>
</svg>
