<svg xmlns="http://www.w3.org/2000/svg" width="24" height="24" fill="none" viewBox="0 0 24 24">
  <path fill="#000" fill-rule="evenodd" d="M22 7.888a5.651 5.651 0 0 0-1.8-4.135A5.95 5.95 0 0 0 15.956 2a5.831 5.831 0 0 0-4.245 1.752L7.734 7.59a.72.72 0 0 0-.065.03.34.34 0 0 0-.055.088l-3.888 3.754a5.9 5.9 0 0 0 0 8.341 6.286 6.286 0 0 0 8.56 0l3.896-3.83a.212.212 0 0 0 .074-.038.573.573 0 0 0 .088-.121l3.856-3.793A5.536 5.536 0 0 0 22 7.888ZM11.71 19.173a5.181 5.181 0 0 1-3.668 1.472 4.946 4.946 0 0 1-3.67-1.472 4.698 4.698 0 0 1-1.51-3.576 4.918 4.918 0 0 1 1.51-3.576l3.623-3.529 7.36 7.128c-.976.953-2.172 2.12-3.645 3.553Zm4.256-4.146L8.606 7.9l3.68-3.585a5.31 5.31 0 0 1 7.339 0 4.984 4.984 0 0 1 0 7.152l-3.659 3.561Zm2.424-9.499a.51.51 0 0 1 0 .629.543.543 0 0 1-.644 0 2.949 2.949 0 0 0-4.226 0l-1.788 1.746c-.144.07-.217.14-.359.14a.548.548 0 0 1-.286-.14.417.417 0 0 1 0-.558l1.862-1.817a3.914 3.914 0 0 1 5.44 0Z" clip-rule="evenodd"/>
</svg>
