<svg xmlns="http://www.w3.org/2000/svg" width="24" height="24" fill="none" viewBox="0 0 24 24">
  <path fill="#000" d="M17.937 2H5.134A2.114 2.114 0 0 0 3 4.083v15.833a2.071 2.071 0 0 0 2.134 2.083h12.803a2.072 2.072 0 0 0 2.134-2.083V4.083A2.114 2.114 0 0 0 17.938 2Zm1.282 17.915a1.26 1.26 0 0 1-1.282 1.25H5.134a1.26 1.26 0 0 1-1.28-1.25V4.083a1.26 1.26 0 0 1 1.28-1.25h12.803a1.262 1.262 0 0 1 1.282 1.25v15.832ZM9.009 4.51H6.436a1.65 1.65 0 0 0-1.712 1.65 1.652 1.652 0 0 0 1.712 1.652h2.571a1.653 1.653 0 1 0 0-3.302ZM5.58 6.16a.852.852 0 0 1 .857-.824h.844v1.65h-.844a.81.81 0 0 1-.857-.825Zm3.428.826h-.89v-1.65h.89a.853.853 0 0 1 .858.825.81.81 0 0 1-.858.826Zm7.674-2.475h-2.57a1.652 1.652 0 1 0 0 3.303h2.57a1.652 1.652 0 1 0 0-3.303Zm-3.428 1.652a.853.853 0 0 1 .858-.826h.843v1.65h-.843a.81.81 0 0 1-.858-.826v.002Zm3.428.825h-.843v-1.65h.843a.854.854 0 0 1 .858.825.81.81 0 0 1-.858.824Zm-7.674 3.335H6.437a1.675 1.675 0 1 0 0 3.35h2.571a1.673 1.673 0 0 0 1.575-2.323 1.676 1.676 0 0 0-1.575-1.027ZM5.58 12a.86.86 0 0 1 .857-.838h.844v1.675h-.844a.812.812 0 0 1-.797-.508.815.815 0 0 1-.06-.328V12Zm3.428.837h-.89v-1.675h.89a.86.86 0 0 1 .858.838.816.816 0 0 1-.858.838Zm7.674-2.512h-2.57A1.677 1.677 0 0 0 12.407 12a1.676 1.676 0 0 0 1.705 1.674h2.57a1.675 1.675 0 1 0 0-3.349ZM13.254 12a.86.86 0 0 1 .858-.838h.843v1.675h-.843a.815.815 0 0 1-.858-.836V12Zm3.428.837h-.843v-1.675h.843a.862.862 0 0 1 .858.838.815.815 0 0 1-.858.838Zm-7.674 3.348H6.437a1.65 1.65 0 0 0-1.58 1.006 1.652 1.652 0 0 0 1.58 2.297h2.571a1.654 1.654 0 0 0 1.58-2.297 1.651 1.651 0 0 0-1.58-1.006ZM5.58 17.837a.852.852 0 0 1 .857-.826h.844v1.651h-.844a.81.81 0 0 1-.857-.825Zm3.428.825h-.89v-1.65h.89a.853.853 0 0 1 .858.825.81.81 0 0 1-.858.826Zm7.674-2.474h-2.57a1.654 1.654 0 0 0-1.207 2.84 1.654 1.654 0 0 0 1.207.462h2.57a1.652 1.652 0 1 0 0-3.302Zm0 2.474h-2.57a.811.811 0 0 1-.858-.825.852.852 0 0 1 .858-.826h2.57a.854.854 0 0 1 .858.826.811.811 0 0 1-.858.826Z"/>
</svg>
