<svg xmlns="http://www.w3.org/2000/svg" width="24" height="24" fill="none" viewBox="0 0 24 24">
  <path fill="#000" fill-rule="evenodd" d="M18.366 2H4.71a1.666 1.666 0 0 0-1.707 1.675V4.93a.377.377 0 0 0 .427.419h.41v13.735A2.928 2.928 0 0 0 6.834 22h9.408a2.972 2.972 0 0 0 2.993-2.915V5.35h.41a.405.405 0 0 0 .428-.419V3.675A1.715 1.715 0 0 0 18.366 2ZM3.856 3.675a.856.856 0 0 1 .854-.837h13.656a.91.91 0 0 1 .853.837v.837H3.857v-.837Zm14.527 15.41a2.117 2.117 0 0 1-2.139 2.082H6.837a2.072 2.072 0 0 1-2.139-2.082V5.35h13.685v13.736ZM5.99 18.651h11.1a.403.403 0 0 0 .397-.253.404.404 0 0 0 .03-.164V7.394a.454.454 0 0 0-.427-.417H5.99a.404.404 0 0 0-.427.417v10.84a.373.373 0 0 0 .424.42l.003-.003Zm.426-10.84h10.246v10.007H6.413L6.416 7.81Zm8.954 3.352h-2.128V9.07a.455.455 0 0 0-.425-.419h-2.554a.405.405 0 0 0-.425.419v2.093H7.71a.405.405 0 0 0-.426.419v2.511a.373.373 0 0 0 .426.419h2.128v2.093a.373.373 0 0 0 .425.418h2.554a.405.405 0 0 0 .425-.418V14.51h2.128a.404.404 0 0 0 .426-.418V11.58a.454.454 0 0 0-.429-.418h.003Zm-.425 2.512h-2.128a.404.404 0 0 0-.426.418v2.093H10.69v-2.093a.454.454 0 0 0-.426-.418H8.136V12h2.128a.406.406 0 0 0 .426-.418V9.488h1.702v2.094a.374.374 0 0 0 .426.418h2.128v1.675Z" clip-rule="evenodd"/>
</svg>
