<svg xmlns="http://www.w3.org/2000/svg" width="24" height="24" fill="none" viewBox="0 0 24 24">
  <path fill="#000" fill-rule="evenodd" d="M19.916 2H4.084A2.066 2.066 0 0 0 2 4.036v15.477a2.023 2.023 0 0 0 2.084 2.036h15.832A2.024 2.024 0 0 0 22 19.513V4.038A2.066 2.066 0 0 0 19.916 2ZM2.834 10.163H5.75a.536.536 0 0 0 .347-.136l1.32-1.973 1.32 1.973a.312.312 0 0 0 .416.136.383.383 0 0 0 .347-.204l1.18-2.721 2.153 6.733a.381.381 0 0 0 .417.272.47.47 0 0 0 .417-.272L15.4 5.74l1.181 4.15a.381.381 0 0 0 .417.272h4.166v6.485H19.5a.364.364 0 0 0-.279.136l-.556.545-1.391-1.361a.429.429 0 0 0-.557 0l-.694.68H13.66a.364.364 0 0 0-.279.136l-.556.545-1.391-1.361a.429.429 0 0 0-.557 0l-.694.68h-2.35a.364.364 0 0 0-.28.136l-.556.545-1.39-1.361a.428.428 0 0 0-.557 0l-.695.68H2.83l.004-6.484Zm1.25-7.349h15.832a1.276 1.276 0 0 1 1.25 1.224V9.35h-3.819l-1.598-5.374a.437.437 0 0 0-.416-.34.706.706 0 0 0-.417.34l-1.736 8.3-2.014-6.26c-.069-.203-.208-.271-.416-.34a.46.46 0 0 0-.347.273L9.01 8.94 7.76 7.105a.47.47 0 0 0-.695 0L5.538 9.35H2.83V4.04a1.277 1.277 0 0 1 1.254-1.224l-.002-.002Zm15.832 17.92H4.084a1.23 1.23 0 0 1-1.25-1.225v-2.046H4.5c.139 0 .208 0 .279-.068l.556-.544 1.391 1.36c.07.069.139.069.278.069.14 0 .209 0 .279-.068l.764-.749h2.291c.14 0 .209 0 .279-.068l.556-.544 1.391 1.36c.07.069.14.069.278.069.14 0 .21 0 .279-.068l.764-.749h2.292c.139 0 .208 0 .278-.068l.557-.544 1.39 1.36c.07.069.14.069.28.069.139 0 .207 0 .277-.068l.764-.749h1.458v2.046a1.232 1.232 0 0 1-1.265 1.225Z" clip-rule="evenodd"/>
</svg>
