<svg xmlns="http://www.w3.org/2000/svg" width="24" height="24" fill="none" viewBox="0 0 24 24">
  <path fill="#000" fill-rule="evenodd" d="M19.917 2H4.083A2.068 2.068 0 0 0 2 4.04v15.513a2.026 2.026 0 0 0 2.083 2.04h15.834A2.07 2.07 0 0 0 22 19.554V4.043A2.114 2.114 0 0 0 19.917 2Zm-15.834.816h15.834a1.278 1.278 0 0 1 1.25 1.227v5.323h-3.89L15.75 3.98a.51.51 0 0 0-.417-.341.705.705 0 0 0-.417.34l-1.736 8.319-2.013-6.273c-.07-.205-.209-.273-.417-.34a.571.571 0 0 0-.417.272l-1.32 3-1.25-1.84a.47.47 0 0 0-.694 0L5.54 9.366H2.833V4.043a1.278 1.278 0 0 1 1.25-1.226v-.002Zm15.834 17.96H4.083a1.232 1.232 0 0 1-1.25-1.227v-9.37H5.75a.532.532 0 0 0 .347-.137l1.32-1.977 1.32 1.977a.255.255 0 0 0 .346.136.321.321 0 0 0 .347-.204l1.25-2.728 2.153 6.75a.381.381 0 0 0 .417.272.468.468 0 0 0 .416-.273l1.736-8.25 1.181 4.16a.38.38 0 0 0 .417.272h4.166v9.37a1.233 1.233 0 0 1-1.25 1.23v-.001Zm-13.78-2.047v.818a.41.41 0 1 1-.819 0v-.819a.41.41 0 0 1 .818 0Zm5.044 0v.818a.432.432 0 0 1-.863 0v-.819a.432.432 0 0 1 .863 0Zm5 0v.818a.432.432 0 0 1-.863 0v-.819a.432.432 0 0 1 .864 0Zm-7.5-1.637v2.454a.432.432 0 0 1-.863 0v-2.454a.432.432 0 0 1 .863 0Zm5 0v2.454a.434.434 0 0 1-.863 0v-2.454a.433.433 0 0 1 .864 0Zm5 0v2.454a.433.433 0 0 1-.863 0v-2.454a.432.432 0 0 1 .864 0Z" clip-rule="evenodd"/>
</svg>
