<svg xmlns="http://www.w3.org/2000/svg" width="24" height="24" fill="none" viewBox="0 0 24 24">
  <path fill="#000" fill-rule="evenodd" d="M10.222 21.163a5.5 5.5 0 0 1-4.978-3.332H15.2a5.5 5.5 0 0 1-4.977 3.332ZM8.77 10.542a.729.729 0 0 0 .208-.415V4.5h2.488v5.622a.729.729 0 0 0 .208.415 5.561 5.561 0 0 1 3.94 5.207 2.65 2.65 0 0 1-.207 1.25H5.034a2.65 2.65 0 0 1-.207-1.25 5.561 5.561 0 0 1 3.943-5.205v.003Zm-.207-7.706h3.318a.416.416 0 1 1 0 .833H8.563a.417.417 0 0 1 0-.833Zm3.733 7.081V4.5a1.406 1.406 0 0 0 .83-1.25A1.342 1.342 0 0 0 11.88 2H8.563a1.341 1.341 0 0 0-1.245 1.25 1.406 1.406 0 0 0 .83 1.25v5.412a6.222 6.222 0 1 0 4.148 0v.005Zm7.88-5.415h-4.97a.446.446 0 0 0-.414.415v5.415a.415.415 0 1 0 .83 0V5.334h4.141v3.332h-2.07a.416.416 0 1 0 0 .833h2.07v1.666h-.83a.417.417 0 1 0 0 .833h.83v1.666h-2.07a.417.417 0 0 0 0 .833h2.07v1.667h-.83a.417.417 0 1 0 0 .832h.83v2.083a1.963 1.963 0 0 1-2.07 2.083 2.172 2.172 0 0 1-1.864-1.041c0-.208-.208-.208-.415-.208-.207.208-.415.415-.207.625a2.871 2.871 0 0 0 2.485 1.458 2.84 2.84 0 0 0 2.9-2.916V4.916a.446.446 0 0 0-.412-.416l-.003.002Z" clip-rule="evenodd"/>
</svg>
