<svg xmlns="http://www.w3.org/2000/svg" width="24" height="24" fill="none" viewBox="0 0 24 24">
  <path fill="#000" fill-rule="evenodd" d="M8.394 20.042H5.988c-.207 0-3.026-.269-3.095-2.96h8.595c-.137 2.692-2.888 2.96-3.094 2.96Zm-2.682-6.996c.138 0 .276-.202.276-.404a8.526 8.526 0 0 0-.344-2.893h3.095a8.511 8.511 0 0 0-.345 2.893c0 .202.07.404.276.404 0 0 2.406.74 2.75 3.163H2.895a4.195 4.195 0 0 1 2.818-3.163Zm6.601 3.499a4.789 4.789 0 0 0-3.094-4.172c0-1.884.344-2.49.412-2.624a.429.429 0 0 0 .345-.405c0-.269-.207-.403-.482-.403H4.818a.392.392 0 0 0-.412.403.454.454 0 0 0 .276.405c.137.134.412.74.48 2.624a4.789 4.789 0 0 0-3.094 4.172C2 16.612 2 16.612 2 16.68v.201c0 2.962 2.613 3.904 3.988 3.971h2.406c1.376-.067 3.989-1.009 3.989-3.97 0-.068-.069-.068-.069-.135a.067.067 0 0 1 .069-.067.234.234 0 0 0-.07-.137v.002Zm8.45-2.028-.276.27a.957.957 0 0 1-.758.403 1.253 1.253 0 0 1-.687-.404h-.07l-.412-.47.619-.607a.493.493 0 0 0 0-.607.523.523 0 0 0-.62 0l-.619.673-.894-.875.619-.673a.373.373 0 0 0 0-.607.523.523 0 0 0-.62 0l-.619.673-.827-.875.62-.606a.496.496 0 0 0 0-.607.525.525 0 0 0-.62 0l-.62.673-.893-.875.687-.607a.492.492 0 0 0 0-.606.523.523 0 0 0-.619 0l-.62.606-1.513-1.413h3.51l5.23 5.048v.067a.947.947 0 0 1 .343.673.713.713 0 0 1-.342.744v.002ZM10.026 6.508 12.3 4.287c.09.366.253.71.481 1.01l1.927 1.884h-3.51l-.137-.135a2.182 2.182 0 0 0-1.033-.54v.002Zm11.286 5.923L13.4 4.69a2.183 2.183 0 0 1-.414-1.28.618.618 0 0 0-.275-.403.589.589 0 0 0-.482.135L8.857 6.44a.41.41 0 0 0-.137.47.68.68 0 0 0 .344.27c.488-.002.966.139 1.376.404l7.913 7.807c.379.35.863.563 1.376.607a1.967 1.967 0 0 0 1.376-.607l.276-.27A1.887 1.887 0 0 0 22 13.777a2.187 2.187 0 0 0-.687-1.348v.003Z" clip-rule="evenodd"/>
</svg>
