<svg xmlns="http://www.w3.org/2000/svg" width="24" height="24" fill="none" viewBox="0 0 24 24">
  <path fill="#000" fill-rule="evenodd" d="M19.246 21.167H5.437L3.812 5.958a13.202 13.202 0 0 1 17.058 0l-1.624 15.209ZM21.48 5.333a14.195 14.195 0 0 0-18.277 0A.654.654 0 0 0 3 5.75l1.625 15.833A.442.442 0 0 0 5.03 22h14.621a.442.442 0 0 0 .406-.417L21.683 5.75a.654.654 0 0 0-.203-.417ZM10.722 17.425a1.946 1.946 0 0 1-2.035 2.083 1.99 1.99 0 0 1-1.832-1.875l-.407-4.167a2.81 2.81 0 0 1 .61-1.666 2.282 2.282 0 0 1 1.629-.626 2.215 2.215 0 0 1 2.035 2.084v4.167ZM8.687 10.34a3.235 3.235 0 0 0-2.239 1.042 3.177 3.177 0 0 0-.814 2.292l.407 4.166c.204 1.459 1.221 2.5 2.646 2.5a2.817 2.817 0 0 0 2.85-2.916v-4.167a2.816 2.816 0 0 0-2.85-2.917Zm9.14 7.292a2.026 2.026 0 0 1-2.035 1.875c-1.018 0-1.832-.833-1.832-2.083v-4.167a2.215 2.215 0 0 1 2.036-2.083 2.28 2.28 0 0 1 1.628.625 2.81 2.81 0 0 1 .61 1.666l-.407 4.167Zm-1.831-7.292a2.817 2.817 0 0 0-2.85 2.917v4.167a2.78 2.78 0 0 0 2.646 2.916 2.733 2.733 0 0 0 2.85-2.5l.407-4.166a3.176 3.176 0 0 0-.814-2.292 3.238 3.238 0 0 0-2.24-1.042Zm.231-5.22-.203.837c-.203.21 0 .418.203.627h.204l.406-.418.204-.627c.61.21 1.219.627 1.83.836v2.3h-5.49l-.609-2.3a.606.606 0 0 0-.813 0l-.61 2.3H5.863v-2.3c.61-.21 1.22-.627 1.829-.836l.203.627.407.418h.203c.203-.21.407-.418.203-.627l-.203-.836c.203 0 .61-.21.813-.21.203 0 .406 0 .406-.211l.204.836a.406.406 0 1 0 .813 0l-.204-.836a3.374 3.374 0 0 1 1.422-.211v.836a.406.406 0 1 0 .813 0v-.829a3.39 3.39 0 0 1 1.421.211l-.203.836a.407.407 0 0 0 .813 0l.203-.836c0 .21.203.21.406.21.204 0 .613.204.816.204Zm-4.065 3.555.204-.837.203.837h-.407Zm.204-5.018a17.32 17.32 0 0 0-3.252.418 13.325 13.325 0 0 0-3.862 1.882.203.203 0 0 0-.204.21v2.928a.443.443 0 0 0 .407.418h13.819a.443.443 0 0 0 .406-.418V6.169a.203.203 0 0 0-.203-.21 13.325 13.325 0 0 0-3.862-1.883 17.321 17.321 0 0 0-3.25-.418Z" clip-rule="evenodd"/>
</svg>
