<svg xmlns="http://www.w3.org/2000/svg" width="24" height="24" fill="none" viewBox="0 0 24 24">
  <path fill="#000" fill-rule="evenodd" d="M9.258 8.955c.625-.417 1.043-1.469 1.043-2.728.417 0 .625.209.834.209.245.167.54.24.834.209a.76.76 0 0 0 .626-.209 4.525 4.525 0 0 1 1.252-.209c1.46 0 2.294 1.26 2.294 3.147 0 1.888-1.46 4.407-2.503 4.407a1.215 1.215 0 0 1-.834-.209c-.209-.209-.417-.209-.835-.209-.417 0-.625 0-.834.209-.243.169-.54.243-.834.209-1.043 0-2.295-2.308-2.504-4.197a1.726 1.726 0 0 0 1.46-.629ZM10.3 14.62c.522.06 1.047-.09 1.46-.417h.417c.412.327.937.477 1.46.417 1.878 0 3.338-3.357 3.338-5.246 0-2.307-1.252-3.986-3.13-3.986-.492.02-.98.09-1.46.209V5.18a1.428 1.428 0 0 0-1.46-1.469h-.834a.42.42 0 0 0 0 .84h.834a.554.554 0 0 1 .626.629v.63a3.214 3.214 0 0 0-1.669-.418.45.45 0 0 0-.417.417c0 1.26-.208 2.098-.834 2.518a1.93 1.93 0 0 1-1.252.63c-.208-.21-.208 0-.417 0v.417c.002 1.889 1.461 5.246 3.337 5.246Zm4.582-11.775a1.89 1.89 0 0 1-1.247 1.267 1.89 1.89 0 0 1 1.246-1.267Zm-1.871 2.323a2.773 2.773 0 0 0 2.701-2.746.45.45 0 0 0-.417-.422 2.773 2.773 0 0 0-2.701 2.745.451.451 0 0 0 .416.423Zm8.152 14.038c0 1.26-.625 1.26-.834 1.26H18.66v-4.201h1.67c.208 0 .834 0 .834 1.26v1.68ZM8.242 16.265h2.92v4.201h-2.92c.232-.383.374-.814.417-1.26v-1.68a3.003 3.003 0 0 0-.417-1.261Zm8.755 0h.834v4.201h-.834v-4.201Zm-4.17 4.201h-.834v-4.201h.835v4.201Zm.835-4.201h2.503v4.201h-2.503v-4.201Zm6.67-.84H2.406a.42.42 0 0 0 0 .84h4.168a1.35 1.35 0 0 1 1.252 1.26v1.68a1.35 1.35 0 0 1-1.252 1.261H2.406a.42.42 0 0 0 0 .84H20.33c1.043 0 1.669-.84 1.669-2.1v-1.68c-.003-1.261-.628-2.102-1.67-2.102h.001Zm-17.12 4.224h3.337a.428.428 0 0 0 0-.855H3.21a.428.428 0 0 0 0 .855Zm0-1.71h3.337a.401.401 0 0 0 .39-.56.402.402 0 0 0-.39-.244H3.21a.401.401 0 0 0-.39.56.403.403 0 0 0 .39.244Z" clip-rule="evenodd"/>
</svg>
