<svg xmlns="http://www.w3.org/2000/svg" width="24" height="24" fill="none" viewBox="0 0 24 24">
  <path fill="#000" fill-rule="evenodd" d="M3.854 15.113c.216.485 1.713 4.244 8.139 6.052 6.495-1.808 7.993-5.565 8.138-6.052V3.633a7.096 7.096 0 0 1-3.854 1.186 5.97 5.97 0 0 1-4.282-1.809 5.693 5.693 0 0 1-4.21 1.809 7.501 7.501 0 0 1-3.926-1.186l-.005 11.48ZM11.993 22h-.072c-7.491-2.018-8.85-6.54-8.85-6.679 0-.07-.071-.07-.071-.139V2.8a.464.464 0 0 1 .286-.348.342.342 0 0 1 .428.07c1.499.973 2.783 1.46 4.068 1.46a5.164 5.164 0 0 0 3.926-1.878.545.545 0 0 1 .64 0 5.165 5.165 0 0 0 3.927 1.878c1.284 0 2.57-.485 4.068-1.46a.342.342 0 0 1 .427-.07.381.381 0 0 1 .216.348v12.521c-.07.14-1.356 4.661-8.85 6.679h-.143Zm-1.284-6.663h2.568v-2.096a.455.455 0 0 1 .428-.42h2.139v-2.516h-2.14a.409.409 0 0 1-.398-.255.406.406 0 0 1-.029-.164V7.789H10.71v2.097a.377.377 0 0 1-.428.419h-2.14v2.516h2.138a.408.408 0 0 1 .428.42l.002 2.096Zm2.995.839h-3.423a.406.406 0 0 1-.428-.42V13.66H7.714a.406.406 0 0 1-.427-.42V9.887a.456.456 0 0 1 .427-.42h2.14V7.37a.456.456 0 0 1 .427-.42h3.423a.408.408 0 0 1 .428.42v2.096h2.14a.407.407 0 0 1 .427.42v3.355a.375.375 0 0 1-.257.404.379.379 0 0 1-.17.015h-2.14v2.096a.378.378 0 0 1-.43.42h.002Z" clip-rule="evenodd"/>
</svg>
