<svg xmlns="http://www.w3.org/2000/svg" width="24" height="24" fill="none" viewBox="0 0 24 24">
  <path fill="#000" fill-rule="evenodd" d="M20.466 2.836H7.709a1.358 1.358 0 0 0-1.276 1.248V5.34H3.836V2.417A.398.398 0 0 0 3.417 2 .448.448 0 0 0 3 2.417V21.58a.399.399 0 0 0 .418.416.368.368 0 0 0 .417-.416v-6.262h2.598v1.252a1.305 1.305 0 0 0 1.276 1.25h12.757a1.255 1.255 0 0 0 1.275-1.25V4.084a1.303 1.303 0 0 0-1.275-1.248Zm-16.63 11.69v-8.35h2.597v8.35H3.836ZM20.89 16.57a.372.372 0 0 1-.425.417H7.709a.406.406 0 0 1-.425-.417V4.084a.455.455 0 0 1 .425-.416h12.757a.404.404 0 0 1 .425.416V16.57Zm-2.13-8.736h-2.12V5.755a.404.404 0 0 0-.425-.416H11.96a.455.455 0 0 0-.425.416v2.078H9.41a.452.452 0 0 0-.425.415v4.156a.404.404 0 0 0 .425.415h2.126v2.078a.405.405 0 0 0 .425.415h4.253a.372.372 0 0 0 .425-.415v-2.078h2.123a.371.371 0 0 0 .426-.415V8.248a.403.403 0 0 0-.426-.414Zm-.424 4.155H16.21a.456.456 0 0 0-.425.416v2.078h-3.4v-2.078a.404.404 0 0 0-.424-.416H9.836V8.665h2.126a.371.371 0 0 0 .425-.416V6.171h3.402V8.25a.405.405 0 0 0 .425.416h2.126l-.003 3.324Z" clip-rule="evenodd"/>
</svg>
