<svg xmlns="http://www.w3.org/2000/svg" width="24" height="24" fill="none" viewBox="0 0 24 24">
  <path fill="#000" fill-rule="evenodd" d="M11.77 2A10 10 0 1 0 22 11.997C22 6.513 17.382 2 11.77 2Zm0 19.161a9.166 9.166 0 1 1 0-18.328c5.115 0 9.377 4.165 9.377 9.162 0 5.07-4.262 9.166-9.376 9.166Zm7.677-9.164a7.68 7.68 0 1 1-7.676-7.492 7.6 7.6 0 0 1 7.677 7.492h-.001Zm-7.676 6.66a6.662 6.662 0 1 1 6.825-6.66 6.745 6.745 0 0 1-6.826 6.66Zm4.245-7.906v2.491a.402.402 0 0 1-.424.416h-2.123v2.076a.404.404 0 0 1-.425.415h-2.547a.371.371 0 0 1-.424-.415v-2.076H7.95a.37.37 0 0 1-.424-.416v-2.49a.403.403 0 0 1 .424-.416h2.123V8.26a.403.403 0 0 1 .424-.415h2.547a.452.452 0 0 1 .425.415v2.076h2.123a.451.451 0 0 1 .423.415Zm-.849 2.076h-2.123a.401.401 0 0 0-.424.415v2.076h-1.698v-2.076a.45.45 0 0 0-.425-.415H8.374v-1.66h2.122a.404.404 0 0 0 .425-.416V8.675h1.698v2.076a.372.372 0 0 0 .425.415h2.122l.001 1.661Z" clip-rule="evenodd"/>
</svg>
