<svg xmlns="http://www.w3.org/2000/svg" width="24" height="24" fill="none" viewBox="0 0 24 24">
  <path fill="#000" fill-rule="evenodd" d="M20.954 10.769a2.164 2.164 0 0 0-2.135-2.088 2.117 2.117 0 0 0-2.134 2.088 2.054 2.054 0 0 0 1.697 2.05v5.44a1.283 1.283 0 0 1-2.565 0v-2.494a2.565 2.565 0 0 0-5.13 0v4.157a1.283 1.283 0 0 1-2.563 0v-5.83a4.633 4.633 0 0 0 4.295-4.574V5.342A2.167 2.167 0 0 0 10.703 3.3v-.88a.455.455 0 0 0-.427-.418 1.659 1.659 0 0 0-1.708 1.67 1.614 1.614 0 0 0 1.708 1.671.406.406 0 0 0 .427-.417v-.753a1.31 1.31 0 0 1 .86 1.17v4.176a3.79 3.79 0 0 1-3.843 3.758c-.008 0-.015-.005-.023-.005s-.013.004-.02.004a3.79 3.79 0 0 1-3.82-3.758V5.341a1.31 1.31 0 0 1 .86-1.17v.753a.406.406 0 0 0 .427.417 1.651 1.651 0 0 0 1.708-1.67A1.699 1.699 0 0 0 5.144 2a.455.455 0 0 0-.427.418v.877A2.112 2.112 0 0 0 3 5.341v4.176a4.585 4.585 0 0 0 4.27 4.573v5.83A2.07 2.07 0 0 0 9.407 22a2.115 2.115 0 0 0 2.138-2.078v-4.157a1.71 1.71 0 1 1 3.42 0v2.495a2.073 2.073 0 0 0 2.138 2.078 2.115 2.115 0 0 0 2.138-2.078v-5.442a2.107 2.107 0 0 0 1.713-2.048ZM9.846 4.435c-.214-.07-.427-.278-.427-.766a.664.664 0 0 1 .427-.695v1.461ZM5.568 2.974a.665.665 0 0 1 .426.695c0 .488-.213.697-.426.766V2.974Zm13.251 9.048a1.262 1.262 0 0 1-.905-2.158 1.281 1.281 0 0 1 2.187.905 1.262 1.262 0 0 1-1.282 1.253Z" clip-rule="evenodd"/>
</svg>
