<svg xmlns="http://www.w3.org/2000/svg" width="24" height="24" fill="none" viewBox="0 0 24 24">
  <path fill="#000" d="M19.096 11.487h.82A2.024 2.024 0 0 0 22 9.446a2.068 2.068 0 0 0-2.084-2.042h-.582l-.682-1.32a.468.468 0 0 0-.415-.268H11.59a.457.457 0 0 0-.346.268l-.682 1.32H8.436c.149-.238.229-.513.232-.794A1.658 1.658 0 0 0 7.009 5H4.521a1.658 1.658 0 0 0-1.66 1.61c.005.364.137.714.372.99A2.092 2.092 0 0 0 2 9.447a2.069 2.069 0 0 0 2.084 2.04h1.318l5.853 2.794-5.531 2.633a1.588 1.588 0 1 0 .449 1.083v-.023h11.664v.023a1.679 1.679 0 1 0 .594-1.215l-5.227-2.494 5.892-2.8Zm-7.231-4.869h6.162l.408.787h-6.979l.409-.787Zm-7.346-.813h2.488a.828.828 0 0 1 .83.805.776.776 0 0 1-.702.794H4.407a.822.822 0 0 1-.716-.794.879.879 0 0 1 .825-.802l.003-.003Zm-1.687 3.64a1.233 1.233 0 0 1 1.25-1.224h15.837a1.225 1.225 0 1 1 0 2.45H4.082a1.231 1.231 0 0 1-1.253-1.225h.003Zm4.497 2.042h9.791l-4.902 2.333-4.89-2.333ZM4.516 18.8a.828.828 0 0 1-.828-.805.878.878 0 0 1 .828-.805.827.827 0 0 1 .827.805.787.787 0 0 1-.83.805h.003Zm14.968-1.61a.828.828 0 0 1 .828.805.788.788 0 0 1-.828.805.829.829 0 0 1-.828-.805.878.878 0 0 1 .827-.805h.002Zm-2.107.011H7.051l5.177-2.456 5.149 2.456Z"/>
</svg>
