<svg xmlns="http://www.w3.org/2000/svg" width="24" height="24" fill="none" viewBox="0 0 24 24">
  <path fill="#000" fill-rule="evenodd" d="M10.291 13.266a.415.415 0 1 1 .415.416.449.449 0 0 1-.415-.416Zm1.669 0a1.252 1.252 0 1 0-1.252 1.252 1.346 1.346 0 0 0 1.252-1.252Zm.426-2.487a.415.415 0 1 1 .409-.415.444.444 0 0 1-.41.415Zm0-1.67a1.252 1.252 0 1 0 1.227 1.252 1.333 1.333 0 0 0-1.227-1.251Zm-.827 9.18a.415.415 0 1 1 .416-.415.449.449 0 0 1-.416.414v.002Zm0-1.668a1.252 1.252 0 1 0 1.252 1.252 1.346 1.346 0 0 0-1.252-1.252Zm2.9-9.823v.208h-5.8v-.208a12.224 12.224 0 0 0-.623-3.964h7.044a12.239 12.239 0 0 0-.623 3.964h.002Zm-2.9 14.396a2.84 2.84 0 0 1-2.9-2.92V7.84h5.798v10.432a2.842 2.842 0 0 1-2.898 2.924v-.003Zm4.557-18.986C15.908 2 15.908 2 15.701 2H7.416c-.208 0-.208 0-.416.208v.415a9.398 9.398 0 0 1 .828 4.173v11.476a3.728 3.728 0 0 0 7.457 0V6.798a9.406 9.406 0 0 1 .828-4.173l.003-.417Z" clip-rule="evenodd"/>
</svg>
