<svg xmlns="http://www.w3.org/2000/svg" width="24" height="24" fill="none" viewBox="0 0 24 24">
  <path fill="#000" fill-rule="evenodd" d="m10.97 21.088-.594-.757h-5.63v.757h6.223Zm1.036.151a.564.564 0 0 1 .149.454c-.149.152-.297.304-.445.304H4.45a.397.397 0 0 1-.445-.455V2.76a.48.48 0 0 1 .445-.455c.147 0 .295.303.295.455v1.666h4.15v-.454c0-.152.148-.304.444-.304h2.816c.148 0 .444.152.444.304a.478.478 0 0 1-.444.454h-2.52v1.666h9.484c.148 0 .296.152.296.455 0 .151-.148.454-.296.454h-9.78a.48.48 0 0 1-.445-.454V5.335H4.745v14.087h5.78c.112.016.216.07.295.151l1.186 1.666Zm3.853-5.604a.862.862 0 0 1-.889.909c-.444 0-.74-.303-.74-.909a.708.708 0 0 1 .74-.757.835.835 0 0 1 .889.758Zm-2.519-1.363c0-.152 0-.303-.148-.303a.322.322 0 0 0-.296.303c0 .15.444.15.444 0Zm.445 0a.593.593 0 1 1-.593-.606.645.645 0 0 1 .593.606Zm4 .606c0-.303-.148-.455-.296-.455a.455.455 0 0 0 0 .909c.148 0 .296-.152.296-.454Zm.89 0a1.18 1.18 0 0 1-1.186 1.211 1.216 1.216 0 0 1-1.23-1.704 1.217 1.217 0 0 1 1.23-.719 1.18 1.18 0 0 1 1.186 1.212Zm.74-1.212v-.909h-8.001c0 .303-.149.606-.149.909a4.155 4.155 0 0 0 4.15 4.09 4.03 4.03 0 0 0 4-4.09Zm.89 0a4.89 4.89 0 1 1-9.78 0 4.91 4.91 0 0 1 3.26-4.696v-.759a.398.398 0 0 1 .444-.454c.148 0 .297.151.297.454v1.06c0 .152 0 .304-.297.304a4.042 4.042 0 0 0-2.519 2.423h7.409a3.951 3.951 0 0 0-2.668-2.423.322.322 0 0 1-.296-.303v-1.06a.478.478 0 0 1 .444-.455.398.398 0 0 1 .445.454v.758a4.911 4.911 0 0 1 3.26 4.697Zm-6.52-8.785V2.303c0-.151.148-.303.444-.303h2.372c.297 0 .445.152.445.303V4.88a.48.48 0 0 1-.445.454.677.677 0 0 1-.444-.454V2.76h-1.63v2.12c0 .152-.149.455-.297.455a.479.479 0 0 1-.445-.454Z" clip-rule="evenodd"/>
</svg>
