<svg xmlns="http://www.w3.org/2000/svg" width="24" height="24" fill="none" viewBox="0 0 24 24">
  <path fill="#000" fill-rule="evenodd" d="M19.98 8.5h-1.839l-.754-1.482a.438.438 0 0 0-.43-.212H13.62a2.61 2.61 0 1 0-2.827 0H7.478a.396.396 0 0 0-.359.212l-.754 1.481H4.432A.41.41 0 0 0 4 8.92v8.425a.461.461 0 0 0 .432.421H8.82l.792 3.88a.455.455 0 0 0 .432.353h4.32a.405.405 0 0 0 .433-.353s0-.012.791-3.88h4.39a.41.41 0 0 0 .433-.42V8.92a.377.377 0 0 0-.432-.42Zm-7.774-5.503a1.695 1.695 0 0 1 1.74 1.693 1.741 1.741 0 0 1-3.48 0 1.694 1.694 0 0 1 1.74-1.693ZM7.763 7.653h8.976l.43.846H7.335l.429-.846Zm6.241 13.496h-3.6s0-.007-.68-3.386h4.96c-.102.514-.298 1.494-.678 3.385l-.002.001Zm5.543-4.227H4.864v-7.58h14.684l-.001 7.58ZM7.528 11.603a.388.388 0 0 1 .217-.564l1.515-.565a3.74 3.74 0 0 1 1.442-.282h3.001c.496-.016.99.08 1.443.282l1.515.565a.42.42 0 0 1 .288.564.487.487 0 0 1-.432.282c-.072 0-.072 0-.145-.07l-1.515-.564a3.33 3.33 0 0 0-1.154-.212h-1.054v1.645h.186a4.74 4.74 0 0 1 1.443.212l1.728.706a.323.323 0 0 1 .216.493.367.367 0 0 1-.36.282h-.144l-1.8-.705a5.005 5.005 0 0 0-1.08-.14h-.187v1.692h1.265a.377.377 0 0 1 .428.423.408.408 0 0 1-.428.423h-3.422a.458.458 0 0 1-.428-.423.407.407 0 0 1 .428-.423h1.265V13.53h-.192c-.366.013-.73.06-1.087.141l-1.737.705h-.145a.397.397 0 0 1-.435-.282.354.354 0 0 1 .289-.493l1.738-.706c.445-.139.91-.21 1.376-.212h.192V11.04h-1.054a2.954 2.954 0 0 0-1.083.212l-1.587.564c0 .07-.072.07-.144.07a.477.477 0 0 1-.36-.282h-.002Z" clip-rule="evenodd"/>
</svg>
