<svg xmlns="http://www.w3.org/2000/svg" width="24" height="24" fill="none" viewBox="0 0 24 24">
  <path fill="#000" fill-rule="evenodd" d="M12.025 6.286a.53.53 0 0 1 .277.069l.836.69-.278-1.035a.333.333 0 0 1 .14-.415l.765-.691h-.905a.383.383 0 0 1-.418-.277l-.417-1.106-.487 1.106a.355.355 0 0 1-.348.277h-.974l.832.69c.14.07.14.278.14.416l-.349 1.036.905-.691a.42.42 0 0 1 .28-.07Zm1.88 2.28a.421.421 0 0 1-.278-.07l-1.601-1.312-1.6 1.243a.55.55 0 0 1-.555.07.426.426 0 0 1-.14-.484l.555-2.003-1.461-1.175a.455.455 0 0 1-.14-.484.468.468 0 0 1 .418-.277h1.81l.696-1.797A.469.469 0 0 1 12.026 2a.463.463 0 0 1 .348.277l.766 1.797h1.81c.138 0 .347.138.347.277a.423.423 0 0 1-.07.484l-1.46 1.175.554 2.003a.536.536 0 0 1-.209.483.258.258 0 0 1-.208.07Zm-8.56 2.717a.521.521 0 0 1 .277.07l.832.695-.277-1.043a.336.336 0 0 1 .138-.418l.76-.695h-.898a.379.379 0 0 1-.415-.278l-.415-1.113-.483 1.113a.353.353 0 0 1-.346.278H3.55l.83.695c.138.07.138.277.138.418l-.345 1.043.898-.695a.416.416 0 0 1 .274-.067v-.003ZM7.21 13.58a.412.412 0 0 1-.277-.07l-1.59-1.322-1.589 1.253a.54.54 0 0 1-.555.07.433.433 0 0 1-.138-.488l.555-2.017-1.451-1.183a.428.428 0 0 1 .277-.765h1.797l.69-1.81a.467.467 0 0 1 .416-.277.46.46 0 0 1 .345.278l.76 1.809h1.797c.138 0 .346.139.346.277a.43.43 0 0 1-.07.487l-1.45 1.183.554 2.017a.543.543 0 0 1-.207.487.253.253 0 0 1-.208.074l-.002-.003Zm11.471-2.296a.527.527 0 0 1 .278.07l.835.695-.277-1.043a.333.333 0 0 1 .14-.418l.765-.695h-.905a.382.382 0 0 1-.418-.278l-.418-1.113-.487 1.113a.354.354 0 0 1-.347.278h-.974l.832.695c.139.07.139.277.139.418l-.348 1.043.905-.695a.418.418 0 0 1 .28-.067v-.003Zm1.88 2.296a.416.416 0 0 1-.277-.07l-1.601-1.322-1.6 1.253a.544.544 0 0 1-.555.07.43.43 0 0 1-.14-.488l.555-2.017-1.462-1.183a.46.46 0 0 1-.139-.487.47.47 0 0 1 .418-.277h1.81l.695-1.81a.47.47 0 0 1 .418-.277.464.464 0 0 1 .348.278l.766 1.809h1.809c.139 0 .348.139.348.277a.43.43 0 0 1-.07.487l-1.461 1.183.555 2.017a.541.541 0 0 1-.21.487.256.256 0 0 1-.207.072v-.002Zm-4.387 5.205a.52.52 0 0 1 .277.07l.832.695-.277-1.044a.333.333 0 0 1 .138-.417l.76-.696h-.898a.38.38 0 0 1-.415-.277L16.176 16l-.483 1.114a.354.354 0 0 1-.346.277h-.967l.832.696c.138.07.138.277.138.417l-.346 1.044.899-.696a.413.413 0 0 1 .27-.067v-.002Zm1.865 2.296a.412.412 0 0 1-.277-.07l-1.59-1.322-1.59 1.253a.536.536 0 0 1-.554.069.431.431 0 0 1-.139-.487l.555-2.018-1.451-1.182a.428.428 0 0 1 .277-.766h1.798l.69-1.809a.468.468 0 0 1 .415-.277.46.46 0 0 1 .346.277l.76 1.81h1.796c.138 0 .346.138.346.276a.43.43 0 0 1-.069.488l-1.451 1.182.554 2.018a.542.542 0 0 1-.207.487.252.252 0 0 1-.209.073v-.002ZM7.853 18.784a.527.527 0 0 1 .277.07l.836.695-.278-1.044a.333.333 0 0 1 .14-.417l.765-.696h-.905a.382.382 0 0 1-.418-.277L7.853 16l-.487 1.114a.354.354 0 0 1-.348.277h-.975l.836.696c.139.07.139.277.139.417L6.67 19.55l.904-.696a.42.42 0 0 1 .279-.067v-.002Zm1.879 2.296a.416.416 0 0 1-.278-.07l-1.6-1.322-1.601 1.253a.544.544 0 0 1-.555.069.43.43 0 0 1-.139-.487l.555-2.018-1.462-1.182a.46.46 0 0 1-.14-.488.47.47 0 0 1 .418-.277h1.81l.694-1.805a.47.47 0 0 1 .417-.278.463.463 0 0 1 .348.278l.766 1.808h1.809c.14 0 .348.14.348.278a.428.428 0 0 1-.07.487l-1.46 1.183.554 2.017a.54.54 0 0 1-.209.487.257.257 0 0 1-.205.069v-.002Z" clip-rule="evenodd"/>
</svg>
