<svg xmlns="http://www.w3.org/2000/svg" width="24" height="24" fill="none" viewBox="0 0 24 24">
  <path fill="#000" fill-rule="evenodd" d="M12.487 2a7.47 7.47 0 0 0-1.802 14.723l1.456 4.93a.37.37 0 0 0 .346.347.44.44 0 0 0 .416-.347l1.385-4.93A7.47 7.47 0 0 0 12.486 2h.001Zm1.385 14.028a.3.3 0 0 0-.277.278l-1.11 3.75-1.04-3.75c-.069-.14-.138-.278-.346-.278a6.671 6.671 0 0 1 1.385-13.195A6.663 6.663 0 0 1 19.141 9.5a6.745 6.745 0 0 1-5.267 6.528h-.002Zm-1.385-11.54a5 5 0 1 0 5 5 5.024 5.024 0 0 0-5-5Zm0 9.167a4.166 4.166 0 1 1 0-8.333 4.167 4.167 0 1 1 0 8.333Zm2.465-4.566a.402.402 0 0 1-.415.423h-1.65v1.651a.404.404 0 0 1-.423.415.45.45 0 0 1-.423-.415v-1.65h-1.65a.45.45 0 0 1-.415-.422.402.402 0 0 1 .414-.423h1.651v-1.65a.402.402 0 0 1 .423-.415.37.37 0 0 1 .422.414v1.651h1.651a.37.37 0 0 1 .415.421Z" clip-rule="evenodd"/>
</svg>
