<svg xmlns="http://www.w3.org/2000/svg" width="24" height="24" fill="none" viewBox="0 0 24 24">
  <path fill="#000" fill-rule="evenodd" d="M17.054 7.223a1.287 1.287 0 0 0-1.594-.694l-2.266.902-2.44-1.604a.443.443 0 0 0-.416 0l-1.32.694a.693.693 0 0 0-.277.347.382.382 0 0 0 .209.347l1.759 1.206-1.695.675-1.594-.694a.31.31 0 0 0-.346 0l-1.317.764a.394.394 0 0 0 0 .694l2.98 1.942a.304.304 0 0 0 .346.069l2.15-.832-.971 2.428a.334.334 0 0 0 .138.415.359.359 0 0 0 .278.14.254.254 0 0 0 .208-.07l1.455-.764c.07-.07.139-.07.208-.208l1.733-3.19 2.149-.903c.295-.156.537-.398.693-.693a1.529 1.529 0 0 0-.07-.971ZM9.99 6.936l.486-.277L12.264 7.8l-.611.244L9.99 6.936Zm6.3.91c0 .138-.07.208-.208.277l-2.287.971c-.07.07-.138.139-.138.208l-1.802 3.191-.416.208.9-2.29c.07-.138 0-.277-.138-.415a.36.36 0 0 0-.277-.139c-.07 0-.07 0-.139.07l-2.772 1.11-2.287-1.458.555-.346 1.594.694a.211.211 0 0 0 .277 0l2.456-.984a.382.382 0 0 0 .217-.087l1.337-.536a.34.34 0 0 0 .314-.126l2.257-.903c.278-.07.485 0 .555.208a.31.31 0 0 1 .002.348v-.001ZM11.511 2a7.467 7.467 0 0 0-1.808 14.723l1.39 4.93a.44.44 0 0 0 .418.347.372.372 0 0 0 .348-.347l1.46-4.93A7.468 7.468 0 0 0 11.512 2Zm1.392 14.028c-.21 0-.279.139-.348.278l-1.044 3.75-1.112-3.75a.299.299 0 0 0-.279-.278A6.75 6.75 0 0 1 4.834 9.5a6.677 6.677 0 0 1 13.355 0 6.752 6.752 0 0 1-5.287 6.53v-.002Z" clip-rule="evenodd"/>
</svg>
