<svg xmlns="http://www.w3.org/2000/svg" width="24" height="24" fill="none" viewBox="0 0 24 24">
  <path fill="#000" fill-rule="evenodd" d="M17.524 7.222a1.287 1.287 0 0 0-1.594-.693l-2.265.902-2.44-1.604a.443.443 0 0 0-.416 0L9.42 6.52a.393.393 0 0 0 0 .694l1.76 1.206-1.696.675-1.594-.694a.31.31 0 0 0-.346 0l-1.317.764a.382.382 0 0 0-.208.347.531.531 0 0 0 .139.347l3.05 1.942a.304.304 0 0 0 .345.069l2.08-.832-.901 2.427a.334.334 0 0 0 .139.416.36.36 0 0 0 .277.14c.069 0 .138 0 .138-.07l1.525-.764c.07-.07.139-.07.208-.208l1.732-3.191 2.15-.902c.291-.139.516-.388.623-.693a1.184 1.184 0 0 0 0-.972Zm-7.063-.286.486-.278L12.736 7.8l-.612.243-1.662-1.107Zm6.3.91c0 .138-.138.207-.208.277l-2.287.971-.207.208-1.733 3.191-.416.208.901-2.22a.586.586 0 0 0-.138-.485.526.526 0 0 0-.278-.139c-.07 0-.138 0-.138.07l-2.77 1.11L7.2 9.579l.554-.346 1.525.694a.315.315 0 0 0 .346 0l2.456-.984a.382.382 0 0 0 .218-.087l1.34-.537a.36.36 0 0 0 .287-.114l2.285-.914a.436.436 0 0 1 .554.207.309.309 0 0 1-.004.35v-.002ZM11.911 2C7.401 2 4 5.542 4 10.334c0 5.972 7.355 11.318 7.633 11.597.07 0 .209.069.278.069.07 0 .139-.07.208-.07.347-.277 7.703-5.624 7.703-11.596 0-4.79-3.4-8.333-7.908-8.333L11.91 2Zm0 19.028c-1.25-.972-7.078-5.764-7.078-10.694 0-4.306 3.053-7.499 7.078-7.499s7.078 3.195 7.078 7.499c0 4.931-5.829 9.723-7.075 10.695h-.003Z" clip-rule="evenodd"/>
</svg>
