<svg xmlns="http://www.w3.org/2000/svg" width="24" height="24" fill="none" viewBox="0 0 24 24">
  <path fill="#000" fill-rule="evenodd" d="M21.85 6.83a2.122 2.122 0 0 0-2.781-1.11L15.54 7.25 10.108 5H9.83L6.703 6.326a.463.463 0 0 0-.278.349.472.472 0 0 0 .278.418l4.733 1.937-3.565 1.545-2.365-1.179c-.07 0-.209-.069-.347 0l-2.921 1.249a.382.382 0 0 0-.21.347c-.069.069 0 .277.07.346l3.756 3.746a.43.43 0 0 0 .487.07l5.355-2.151L9.54 18.83c-.07.138 0 .277.139.415a.362.362 0 0 0 .278.14c.07 0 .07-.07.14-.07l3.337-1.665c.069-.07.139-.07.208-.208l3.269-6.52 3.756-1.387A2.068 2.068 0 0 0 21.85 6.83ZM7.956 6.675l2.015-.838 4.5 1.878-1.952.846-4.563-1.886ZM20.39 8.773l-3.895 1.456a.964.964 0 0 0-.278.208l-3.268 6.52-2.226 1.11 2.087-5.618a.426.426 0 0 0-.07-.486.418.418 0 0 0-.278-.07h-.209l-5.981 2.428-3.13-3.12 2.156-.972 2.365 1.18a.318.318 0 0 0 .348 0l4.522-1.953a.43.43 0 0 0 .216-.095l6.667-2.879a1.157 1.157 0 0 1 1.6.693 1.193 1.193 0 0 1-.626 1.597Z" clip-rule="evenodd"/>
</svg>
