<svg xmlns="http://www.w3.org/2000/svg" width="24" height="24" fill="none" viewBox="0 0 24 24">
  <path fill="#000" fill-rule="evenodd" d="M12.146 5.876h-.145A6.586 6.586 0 0 0 7.365 7.83a6.48 6.48 0 0 0 4.636 11.078 6.612 6.612 0 0 0 6.517-6.66 6.73 6.73 0 0 0-1.955-4.562 6.246 6.246 0 0 0-4.417-1.81Zm-.29 13.9a7.123 7.123 0 0 1-5.068-2.096 7.235 7.235 0 0 1-2.173-5.141 7.416 7.416 0 0 1 7.386-7.53 7.385 7.385 0 0 1 0 14.77l-.145-.002Zm.561-6.401V8.96a.418.418 0 0 0-.416-.432.417.417 0 0 0-.415.432v4.415a.415.415 0 1 0 .831 0Zm-.416 1.559a.651.651 0 0 0-.662.647.642.642 0 0 0 .662.575.65.65 0 0 0 .662-.646.7.7 0 0 0-.662-.577Zm-6.234 4.77a.538.538 0 0 0 0-.651 8.964 8.964 0 0 1-2.898-6.65 9.17 9.17 0 0 1 2.826-6.65.383.383 0 0 0 .072-.58.467.467 0 0 0-.651-.072 10.033 10.033 0 0 0 .072 14.602c.072.073.144.073.29.073a.437.437 0 0 0 .29-.072Zm13.025 0a9.913 9.913 0 0 0 0-14.603.387.387 0 0 0-.583.073.375.375 0 0 0 0 .578 8.94 8.94 0 0 1 2.916 6.65 9.212 9.212 0 0 1-2.916 6.65.455.455 0 0 0-.073.651.662.662 0 0 0 .364.073.442.442 0 0 0 .294-.072h-.002Z" clip-rule="evenodd"/>
</svg>
