<svg xmlns="http://www.w3.org/2000/svg" width="24" height="24" fill="none" viewBox="0 0 24 24">
  <path fill="#000" fill-rule="evenodd" d="M21.581 5.488h-7.893v-.405A2.092 2.092 0 0 0 11.6 3a2.138 2.138 0 0 0-2.09 2.083v.772a.297.297 0 0 0-.012.05v2.919H6.167a.462.462 0 0 0-.348.277l-2.083 3.683-1.597 1.598A.53.53 0 0 0 2 14.66v4.587a.4.4 0 0 0 .417.417H4.11a2.094 2.094 0 0 0 2.045 1.642 2.039 2.039 0 0 0 2.048-1.642h7.595a2.094 2.094 0 0 0 2.045 1.642 2.039 2.039 0 0 0 2.047-1.642h1.69a.37.37 0 0 0 .417-.418V5.906a.4.4 0 0 0-.416-.417Zm-.417 11.688H10.31V9.405a.574.574 0 0 0 .024-.165V6.333h2.939a.588.588 0 0 0 .077-.011h7.815v10.854Zm-5.36 1.642H8.197a2.059 2.059 0 0 0-.408-.845h8.442a2.074 2.074 0 0 0-.427.846v-.001ZM11.6 3.833a1.293 1.293 0 0 1 1.254 1.25v.405h-2.507v-.405a1.292 1.292 0 0 1 1.252-1.25h.001ZM4.362 13.34c.07-.07.07-.07.07-.14l2.012-3.543h3.067v7.518H2.834v-2.307l1.528-1.528Zm-1.528 4.633h1.71a2.07 2.07 0 0 0-.432.856H2.834v-.856Zm3.321 2.507a1.24 1.24 0 0 1-1.246-1.174.515.515 0 0 0 .008-.06.434.434 0 0 0-.01-.057 1.25 1.25 0 0 1 2.499.024.236.236 0 0 0-.007.028c0 .012.005.02.006.031a1.239 1.239 0 0 1-1.25 1.208Zm11.688 0a1.24 1.24 0 0 1-1.25-1.2c0-.014.006-.024.006-.04 0-.014-.005-.021-.005-.033a1.25 1.25 0 0 1 2.498-.007.4.4 0 0 0-.01.046.466.466 0 0 0 .009.05 1.238 1.238 0 0 1-1.248 1.184Zm2.046-1.65a2.063 2.063 0 0 0-.412-.857h1.687v.856H19.89Zm-14.51-5.543 1.26-2.5a.464.464 0 0 1 .35-.277h1.258a.402.402 0 0 1 .42.417.371.371 0 0 1-.42.416h-.98L6.15 13.634a.5.5 0 0 1-.42.208h-.14c-.21-.138-.347-.345-.21-.554Zm6.193-3.612c-.14 0-.348.14-.348.278a.413.413 0 0 0 .069.487l2.295 1.877-1.113 3.059c-.07.209-.07.417.14.487a.335.335 0 0 0 .486 0l2.642-1.877 2.711 1.877a.256.256 0 0 0 .21.07c.138 0 .207 0 .277-.07a.398.398 0 0 0 .14-.487l-1.183-3.06 2.295-1.876a.43.43 0 0 0 .139-.487.47.47 0 0 0-.417-.278h-2.642L16.16 7.033a.469.469 0 0 0-.416-.278.461.461 0 0 0-.348.278l-1.182 2.642h-2.642Zm3.337.626.834-2.017.904 2.017a.385.385 0 0 0 .348.208h1.807l-1.668 1.39c-.14.07-.14.279-.07.487l.765 2.017-1.808-1.252a.53.53 0 0 0-.278-.139c-.07 0-.14.07-.209.14l-1.808 1.25.765-2.016a.399.399 0 0 0-.138-.486l-1.6-1.39h1.738a.42.42 0 0 0 .418-.209Z" clip-rule="evenodd"/>
</svg>
