<svg xmlns="http://www.w3.org/2000/svg" width="24" height="24" fill="none" viewBox="0 0 24 24">
  <path fill="#000" fill-rule="evenodd" d="M19.785 14.158a.413.413 0 0 0-.486.07l-1.666 1.656a.516.516 0 0 0 0 .622.424.424 0 0 0 .558 0l.902-.898a6.63 6.63 0 0 1-6.173 5.505V10.34h3.332a.37.37 0 0 0 .417-.421.406.406 0 0 0-.418-.422H12.92V6.129a2.036 2.036 0 0 0 1.64-2.044A2.08 2.08 0 0 0 12.498 2a2.127 2.127 0 0 0-2.061 2.085 2.083 2.083 0 0 0 1.64 2.039v3.373H8.741a.451.451 0 0 0-.416.422.405.405 0 0 0 .416.421h3.332v10.773a6.555 6.555 0 0 1-6.103-5.505l.832.898a.426.426 0 0 0 .558 0 .386.386 0 0 0 0-.622l-1.666-1.657c-.07-.138-.278-.138-.417-.069a.459.459 0 0 0-.278.345 7.497 7.497 0 0 0 14.994 0 .378.378 0 0 0-.209-.345ZM11.26 4.085a1.237 1.237 0 1 1 2.474 0 1.237 1.237 0 0 1-1.205 1.248c-.012 0-.02-.006-.032-.006-.011 0-.018.006-.027.006a1.237 1.237 0 0 1-1.208-1.25l-.002.002Z" clip-rule="evenodd"/>
</svg>
