<svg xmlns="http://www.w3.org/2000/svg" width="24" height="24" fill="none" viewBox="0 0 24 24">
  <path fill="#000" fill-rule="evenodd" d="M20.465 9.509C20.465 4.642 17.346 2 11.733 2 6.122 2 3 4.642 3 9.509c0 3.034 1.881 4.955 4.106 6.021l1.829 3.136h-.54a.403.403 0 0 0-.418.423.452.452 0 0 0 .417.422h.85v2.072A.445.445 0 0 0 9.66 22h4.147a.4.4 0 0 0 .415-.417v-2.072h.85a.405.405 0 0 0 .417-.422.37.37 0 0 0-.417-.423h-.534l1.879-3.156c2.206-1.069 4.049-2.98 4.049-6.001Zm-.834 0c0 3.308-2.599 5.12-5.188 5.857 1.333-1.327 2.217-3.591 2.217-6.136 0-2.66-.908-4.904-2.302-6.158 2.782.549 5.275 2.2 5.275 6.437h-.002Zm-7.9 6.257c-2.222 0-4.096-2.99-4.096-6.536 0-3.546 1.874-6.396 4.096-6.396 2.291 0 4.096 2.85 4.096 6.396s-1.805 6.536-4.096 6.536Zm-7.9-6.257c0-4.236 2.492-5.889 5.273-6.437-1.394 1.254-2.303 3.5-2.303 6.158 0 2.545.886 4.81 2.219 6.137-2.588-.736-5.188-2.55-5.188-5.858H3.83Zm9.558 11.657h-3.317v-1.655h3.317v1.655Zm.214-2.5H9.858l-1.521-2.64c1.094.368 2.24.562 3.394.574a11.14 11.14 0 0 0 3.389-.565l-1.517 2.631Z" clip-rule="evenodd"/>
</svg>
