<svg xmlns="http://www.w3.org/2000/svg" width="24" height="24" fill="none" viewBox="0 0 24 24">
  <path fill="#000" fill-rule="evenodd" d="M11.934 2C7.41 2 4 5.542 4 10.334c0 5.972 7.378 11.318 7.726 11.597.07 0 .139.069.208.069.07 0 .21-.07.279-.07.278-.277 7.655-5.624 7.655-11.596 0-4.792-3.41-8.334-7.934-8.334Zm0 19.028c-1.252-.972-7.099-5.764-7.099-10.694 0-4.306 3.063-7.499 7.1-7.499 4.036 0 7.099 3.195 7.099 7.499 0 4.93-5.777 9.722-7.1 10.694Zm0-16.54a5 5 0 1 0 5.024 5 5.036 5.036 0 0 0-5.024-5Zm0 9.167a4.167 4.167 0 1 1 4.187-4.166 4.188 4.188 0 0 1-4.187 4.166Zm-.616-5.267a.687.687 0 0 0 .629.695 1.489 1.489 0 0 1 1.537 1.459 1.452 1.452 0 0 1-1.127 1.4v.34a.373.373 0 0 1-.422.422.406.406 0 0 1-.423-.422v-.349a1.414 1.414 0 0 1-1.033-1.391.419.419 0 1 1 .839 0 .62.62 0 0 0 .595.62c.007 0 .014-.005.022-.005a.329.329 0 0 1 .043.009.626.626 0 1 0-.031-1.247 1.487 1.487 0 0 1-1.468-1.528 1.471 1.471 0 0 1 1.033-1.385V6.65a.454.454 0 0 1 .423-.422.405.405 0 0 1 .422.422v.345a1.512 1.512 0 0 1 1.127 1.395.4.4 0 0 1-.42.417.37.37 0 0 1-.42-.417.683.683 0 0 0-.668-.62.427.427 0 0 1-.043.008c-.007 0-.015-.005-.022-.005a.62.62 0 0 0-.592.614h-.001Z" clip-rule="evenodd"/>
</svg>
