<svg xmlns="http://www.w3.org/2000/svg" width="24" height="24" fill="none" viewBox="0 0 24 24">
  <path fill="#000" fill-rule="evenodd" d="M12.488 2a7.47 7.47 0 0 0-1.803 14.722l1.385 4.93a.422.422 0 0 0 .832 0l1.385-4.93A7.47 7.47 0 0 0 12.484 2h.004Zm1.385 14.027a.46.46 0 0 0-.347.278l-1.04 3.75-1.04-3.75a.461.461 0 0 0-.347-.278A6.746 6.746 0 0 1 5.829 9.5a6.656 6.656 0 0 1 13.313 0 6.746 6.746 0 0 1-5.268 6.527h-.002ZM12.488 4.488a5 5 0 1 0 5 5 4.98 4.98 0 0 0-5-5Zm0 9.167a4.167 4.167 0 1 1 4.166-4.167 4.178 4.178 0 0 1-4.166 4.167Zm-.634-5.267a.688.688 0 0 0 .634.694 1.432 1.432 0 0 1 1.48 1.46 1.415 1.415 0 0 1-1.08 1.402v.338a.402.402 0 0 1-.399.419.4.4 0 0 1-.399-.42v-.337a1.417 1.417 0 0 1-1.08-1.403.4.4 0 0 1 .423-.417.451.451 0 0 1 .423.417.624.624 0 0 0 .608.621.287.287 0 0 1 .025-.006c.01 0 .018.005.027.006a.623.623 0 0 0-.027-1.245 1.493 1.493 0 0 1-1.48-1.528 1.472 1.472 0 0 1 1.08-1.397v-.343a.4.4 0 1 1 .798 0v.342a1.473 1.473 0 0 1 1.08 1.398.372.372 0 0 1-.423.417.404.404 0 0 1-.423-.417.624.624 0 0 0-.607-.62c-.01 0-.017.006-.026.006a.258.258 0 0 1-.026-.007.624.624 0 0 0-.608.62Z" clip-rule="evenodd"/>
</svg>
