<svg xmlns="http://www.w3.org/2000/svg" width="24" height="24" fill="none" viewBox="0 0 24 24">
  <path fill="#000" fill-rule="evenodd" d="M11.212 5.753a.4.4 0 1 1 .398.423.411.411 0 0 1-.398-.423Zm2.065-.422a.422.422 0 1 0 0-.845.422.422 0 0 0 0 .845Zm.846.845a.423.423 0 1 0 0-.846.423.423 0 0 0 0 .846Zm1.22 1.217v1.674a2.893 2.893 0 0 1-2.488 2.898v1.723h.85c.279 0 .418.133.418.399a.392.392 0 0 1-.417.399h-2.5a.439.439 0 0 1-.417-.4.392.392 0 0 1 .416-.398h.805v-1.726a2.942 2.942 0 0 1-2.49-2.895V7.393a.401.401 0 0 1 .416-.42h4.991a.369.369 0 0 1 .415.42Zm-.832.418h-4.158v1.256a2.138 2.138 0 0 0 2.05 2.09c.01 0 .02-.005.03-.005.01 0 .02.005.032.005a2.091 2.091 0 0 0 2.046-2.09V7.811Zm5.433 1.686a7.428 7.428 0 0 1-5.684 7.226l-1.385 4.93a.439.439 0 0 1-.417.347.371.371 0 0 1-.346-.347l-1.456-4.93a7.473 7.473 0 1 1 9.29-7.223l-.002-.003Zm-.832 0a6.657 6.657 0 1 0-13.313 0 6.746 6.746 0 0 0 5.27 6.528c.208 0 .277.14.346.278l1.04 3.75 1.11-3.75a.298.298 0 0 1 .277-.278 6.746 6.746 0 0 0 5.27-6.528Z" clip-rule="evenodd"/>
</svg>
