<svg xmlns="http://www.w3.org/2000/svg" width="24" height="24" fill="none" viewBox="0 0 24 24">
  <path fill="#000" fill-rule="evenodd" d="M11.934 2C7.41 2 4 5.542 4 10.334c0 5.972 7.377 11.318 7.656 11.597.07 0 .139.069.278.069.07 0 .14-.07.209-.07.348-.277 7.725-5.624 7.725-11.596 0-4.792-3.41-8.334-7.934-8.334Zm0 19.028c-1.322-.972-7.1-5.764-7.1-10.694 0-4.306 2.994-7.499 7.1-7.499 4.037 0 7.1 3.195 7.1 7.499 0 4.93-5.847 9.722-7.1 10.694ZM10.667 5.756a.423.423 0 1 1 .845 0 .423.423 0 0 1-.845 0Zm1.69-.845a.422.422 0 1 1 .844 0 .422.422 0 0 1-.845 0Zm.845.845a.398.398 0 0 1 .69-.252.4.4 0 0 1-.291.674.411.411 0 0 1-.4-.422Zm1.227 1.22H9.44a.369.369 0 0 0-.416.42V9.07a2.892 2.892 0 0 0 2.489 2.897v2.521h-.804a.372.372 0 0 0-.417.423.403.403 0 0 0 .417.422h2.5a.451.451 0 0 0 .416-.422.403.403 0 0 0-.417-.422h-.85v-2.524a2.942 2.942 0 0 0 2.488-2.895V7.395a.4.4 0 0 0-.416-.418Zm-.416 2.094a2.138 2.138 0 0 1-2.05 2.09c-.01 0-.02-.005-.029-.005-.01 0-.02.004-.032.005a2.09 2.09 0 0 1-2.047-2.09V7.814h4.158V9.07Z" clip-rule="evenodd"/>
</svg>
