<svg xmlns="http://www.w3.org/2000/svg" width="24" height="24" fill="none" viewBox="0 0 24 24">
  <path fill="#000" fill-rule="evenodd" d="M6.078 11.802c.07.138.14.207.209.207a.256.256 0 0 0 .208.07h.14l1.947-.83c.07 0 .139-.07.209-.209l.278-.691.697.346h.348l3.505-1.4 2.366 5.999a7.457 7.457 0 0 0-4.636 1.775.363.363 0 0 0-.07.553.54.54 0 0 0 .626.07 7.125 7.125 0 0 1 4.614-1.59c.017.007.035.011.053.015h.208c.009-.003.015-.012.023-.016h4.767a.416.416 0 1 0 0-.83h-4.698l-2.5-6.277 3.53-1.411c.07 0 .14-.07.21-.208l.277-.691.698.276a.63.63 0 0 0 .348.07l1.947-.83a.356.356 0 0 0 .208-.484l-.278-.76c-.626-1.592-1.947-2.56-3.895-2.906a12.366 12.366 0 0 0-5.495.752l-.134-.404a.426.426 0 0 0-.543-.205.379.379 0 0 0-.203.547l.127.354a11.745 11.745 0 0 0-4.531 3.244c-1.18 1.522-1.46 3.112-.835 4.704l.275.76Zm1.18-4.98a11.72 11.72 0 0 1 4.461-3.058.29.29 0 0 0 .083-.037l.046-.02c1.4-.544 2.881-.847 4.382-.9.348 0 .698.07 1.113.07a4.19 4.19 0 0 1 3.199 2.352l.139.414-1.39.483-.905-.346a.369.369 0 0 0-.557.207l-.417.9-3.609 1.443a.527.527 0 0 0-.137.01.595.595 0 0 0-.088.08L9.97 9.86l-.904-.415a.318.318 0 0 0-.348 0 .222.222 0 0 0-.209.208l-.417.899-1.391.553-.14-.345a3.965 3.965 0 0 1 .699-3.94h-.003ZM21.984 20.68a.367.367 0 0 1-.417.414 2.292 2.292 0 0 1-1.667-.83 2.074 2.074 0 0 1-1.668.83 2.294 2.294 0 0 1-1.667-.83 2.072 2.072 0 0 1-1.667.83 2.293 2.293 0 0 1-1.667-.83 2.072 2.072 0 0 1-1.667.83 2.295 2.295 0 0 1-1.667-.83 2.072 2.072 0 0 1-1.666.83 2.294 2.294 0 0 1-1.668-.83 2.071 2.071 0 0 1-1.667.83 2.148 2.148 0 0 1-1.667-.898c-.15.217-.338.405-.556.553a.52.52 0 0 1-.625-.07.526.526 0 0 1 .14-.622 1.19 1.19 0 0 0 .624-1.037.447.447 0 0 1 .417-.414.4.4 0 0 1 .416.414 1.341 1.341 0 0 0 1.251 1.245 1.288 1.288 0 0 0 1.25-1.245.447.447 0 0 1 .417-.414.398.398 0 0 1 .417.414 1.34 1.34 0 0 0 1.25 1.245 1.287 1.287 0 0 0 1.25-1.245.447.447 0 0 1 .417-.414.398.398 0 0 1 .417.414 1.342 1.342 0 0 0 1.25 1.245 1.288 1.288 0 0 0 1.25-1.245.447.447 0 0 1 .417-.414.398.398 0 0 1 .417.414 1.34 1.34 0 0 0 1.25 1.245 1.288 1.288 0 0 0 1.25-1.245.447.447 0 0 1 .417-.414.397.397 0 0 1 .39.252.4.4 0 0 1 .027.162 1.341 1.341 0 0 0 1.25 1.245 1.288 1.288 0 0 0 1.25-1.245.447.447 0 0 1 .418-.414.398.398 0 0 1 .416.414 1.341 1.341 0 0 0 1.25 1.245.4.4 0 0 1 .42.415h-.003Z" clip-rule="evenodd"/>
</svg>
