<svg xmlns="http://www.w3.org/2000/svg" width="24" height="24" fill="none" viewBox="0 0 24 24">
  <path fill="#000" fill-rule="evenodd" d="M21.971 15.657 20.31 5.68V3.668a1.603 1.603 0 0 0-1.662-1.667h-13.3a1.642 1.642 0 0 0-1.662 1.667v2.084a.34.34 0 0 0 .02.086l-1.6 9.598a.4.4 0 0 0-.106.277v3.733a1.684 1.684 0 0 0 1.662 1.659h.867v.433a.434.434 0 0 0 .398.41.39.39 0 0 0 .374-.253.388.388 0 0 0 .024-.157v-.433h13.298v.433a.447.447 0 0 0 .422.41.4.4 0 0 0 .421-.41v-.433h.82a1.64 1.64 0 0 0 1.662-1.66v-3.569c.047-.07.077-.165.023-.219ZM5.462 7.6a.37.37 0 0 0 .277.208h5.048a.447.447 0 0 0 .415-.416l.033-1.177h1.759l.032 1.177a.446.446 0 0 0 .415.416h4.98a.38.38 0 0 0 .345-.208c.069-.07.138-.208.069-.277l-.162-1.164h.872l.415 2.494H4.08l.417-2.494h1.021l-.194 1.164c.017.104.065.2.138.277Zm.761-.623L6.5 5.314h3.942l-.07 1.663H6.223Zm7.563-1.663h3.942l.277 1.663h-4.15l-.069-1.663Zm-9.847 4.18h16.163l.968 5.806H2.974c.01-.074.113-.693.965-5.807Zm1.408-6.66h13.299a.802.802 0 0 1 .83.832v1.658h-.918l-.07-.499a.388.388 0 0 0-.414-.346H13.37a.417.417 0 0 0-.277.069.531.531 0 0 0-.137.346l.013.474h-1.712l.013-.474a.53.53 0 0 0-.139-.346.415.415 0 0 0-.277-.07H6.083a.326.326 0 0 0-.345.347l-.083.499h-1.14V3.666a.843.843 0 0 1 .832-.831Zm14.938 17.442H3.66a.892.892 0 0 1-.83-.83V16.14h18.285v3.305a.841.841 0 0 1-.831.831Z" clip-rule="evenodd"/>
</svg>
