<svg xmlns="http://www.w3.org/2000/svg" width="24" height="24" fill="none" viewBox="0 0 24 24">
  <path fill="#000" d="M17.002 9.418V4.903a1.985 1.985 0 0 1 1.666 2.014.4.4 0 0 0 .416.416.448.448 0 0 0 .417-.416c0-2.154-1.943-2.848-2.915-2.917-.139 0-.208 0-.278.07-.138.069-.138.208-.138.346v1.648h-.83a10.07 10.07 0 0 0-4.19.928V5.266h1.688v-.845H8.663v.844h1.689v2.133a9.963 9.963 0 0 0-4.514 5.33c-.028 0-.055-.004-.085-.004A3.737 3.737 0 0 0 2 16.478a3.782 3.782 0 0 0 3.753 3.753 3.831 3.831 0 0 0 3.754-3.753 3.782 3.782 0 0 0-2.831-3.632 9.232 9.232 0 0 1 8.666-5.948h.829v2.515a5.414 5.414 0 1 0 .832 0v.005ZM6.144 16.504a.444.444 0 0 1-.415.415.399.399 0 0 1-.414-.415.366.366 0 0 1 .414-.414.4.4 0 0 1 .415.415Zm2.529-.023a2.938 2.938 0 0 1-4.042 2.704 2.892 2.892 0 0 1-1.798-2.704 2.839 2.839 0 0 1 2.758-2.904 8.91 8.91 0 0 0-.24 1.748 1.238 1.238 0 1 0 .832.023 8.186 8.186 0 0 1 .247-1.701 2.879 2.879 0 0 1 2.243 2.835Zm7.86-2.075a.415.415 0 0 0 .055.01.305.305 0 0 0 .031-.007.389.389 0 0 1 .366.406.444.444 0 0 1-.415.415.4.4 0 0 1-.414-.415.36.36 0 0 1 .377-.408Zm.035 4.997a4.58 4.58 0 0 1-4.585-4.585 4.53 4.53 0 0 1 4.187-4.567v3.393a1.24 1.24 0 1 0 .832.011v-3.404a4.579 4.579 0 0 1 4.152 4.564 4.627 4.627 0 0 1-4.586 4.587v.001Z"/>
</svg>
