<svg xmlns="http://www.w3.org/2000/svg" width="24" height="24" fill="none" viewBox="0 0 24 24">
  <path fill="#000" fill-rule="evenodd" d="M21.09 14.303c-.073-.146-.218-.146-.363-.146h-8.288v-1.715h3.073c.073 0 .145-.073.218-.073a6.156 6.156 0 0 0 0-10.366H5.916a.398.398 0 0 0-.435.29.565.565 0 0 0 .217.508 4.825 4.825 0 0 1 2.4 4.422c0 3.117-2.254 4.349-2.4 4.349a.565.565 0 0 0-.217.508.46.46 0 0 0 .435.362h5.641v1.715h-9.12c-.146 0-.29 0-.363.146a.793.793 0 0 0-.073.364l.218.656c.428 1.41.964 3.33 2.895 3.904l-2.036 2.049a.439.439 0 0 0 0 .579c.08.076.182.127.292.145a.377.377 0 0 0 .292-.145l2.512-2.462c.062 0 .119.01.182.01H8.42l-1.863 1.873a.437.437 0 0 0 0 .579.55.55 0 0 0 .291.145.378.378 0 0 0 .292-.145l2.504-2.452H11.9l-1.863 1.873a.44.44 0 0 0 0 .579.562.562 0 0 0 .292.145.378.378 0 0 0 .292-.145s.003 0 2.504-2.452h3.684c2.976 0 3.63-2.404 4.137-4.079l.218-.655a.792.792 0 0 0-.075-.366ZM8.967 7.223a5.805 5.805 0 0 0-1.744-4.35h8.214a4.912 4.912 0 0 1 2.253 4.35 5.16 5.16 0 0 1-2.253 4.349H12.07a.23.23 0 0 0-.146 0h-4.7a6.074 6.074 0 0 0 1.745-4.35Zm7.838 11.304h-2.792l2.296-2.25a.538.538 0 0 0 0-.652.546.546 0 0 0-.656 0l-2.887 2.903h-2.233l2.297-2.25a.54.54 0 0 0 0-.652.547.547 0 0 0-.656 0l-2.887 2.902H7.055l2.296-2.25a.538.538 0 0 0 0-.651.546.546 0 0 0-.656 0l-2.851 2.866c-1.888-.242-2.36-1.844-2.829-3.388v-.072h8.946a.336.336 0 0 0 .036.007c.012 0 .023-.006.035-.007h8.113c-.507 1.6-1.015 3.494-3.338 3.494h-.001Z" clip-rule="evenodd"/>
</svg>
