<svg xmlns="http://www.w3.org/2000/svg" width="24" height="24" fill="none" viewBox="0 0 24 24">
  <path fill="#000" fill-rule="evenodd" d="M21.862 19.485a.521.521 0 0 0-.347-.069c-.43.085-.876.047-1.285-.109a9.333 9.333 0 0 0 1.348-3.58.627.627 0 0 0-.069-.346.532.532 0 0 0-.347-.139h-6.304l4.447-2.488c.069-.069.138-.208.208-.277a.521.521 0 0 0-.07-.347L13.61 4.7a.43.43 0 0 0-.486-.14.47.47 0 0 0-.277.418v10.264h-.845V2.443a.382.382 0 0 0-.278-.417.333.333 0 0 0-.416.14L2.984 12.12a.307.307 0 0 0-.07.348c0 .14.14.208.21.278l6.349 2.496H2.84a.36.36 0 0 0-.278.139.381.381 0 0 0-.139.347 11.011 11.011 0 0 0 1.417 3.619 2.352 2.352 0 0 1-1.284.069.532.532 0 0 0-.348.138.37.37 0 0 0-.208.277v1.663a.358.358 0 0 0 .139.277.527.527 0 0 0 .278.138h19.166a.4.4 0 0 0 .417-.415V19.83a.527.527 0 0 0-.138-.346ZM13.679 6.158l4.792 6.111-4.792 2.639v-8.75Zm-2.51-2.6v11.486L4.026 12.19l7.141-8.632ZM3.394 16.075h8.115a.14.14 0 0 0 .075.013.287.287 0 0 0 .052-.013h1.587c.012.006.025.01.039.013a.139.139 0 0 0 .039-.013h7.374c-.257.996-.654 1.95-1.18 2.835a3.244 3.244 0 0 1-.898-.949.382.382 0 0 0-.347-.208.421.421 0 0 0-.417.208 3.121 3.121 0 0 1-2.638 1.527 3.445 3.445 0 0 1-2.64-1.527.381.381 0 0 0-.347-.208.6.6 0 0 0-.416.208 3.145 3.145 0 0 1-2.64 1.527 3.444 3.444 0 0 1-2.638-1.527c-.14-.208-.556-.277-.695-.07a4.155 4.155 0 0 1-1.21 1.096 8.907 8.907 0 0 1-1.215-2.912Zm17.772 5.003H2.833v-.763a4.301 4.301 0 0 0 3.264-1.526 3.92 3.92 0 0 0 3.053 1.526 3.863 3.863 0 0 1 6.042 0 4.113 4.113 0 0 0 3.053-1.455 3.611 3.611 0 0 0 2.917 1.455l.005.763Z" clip-rule="evenodd"/>
</svg>
