<svg xmlns="http://www.w3.org/2000/svg" width="24" height="24" fill="none" viewBox="0 0 24 24">
  <path fill="#000" fill-rule="evenodd" d="M21.578 9.486h-.424V7.38a.403.403 0 0 0-.418-.422h-4.177a.403.403 0 0 0-.417.422v2.107h-.424a.4.4 0 0 0-.419.415v2.91h-4.964V8.217a.4.4 0 0 0-.417-.416h-.424V4.892a.4.4 0 0 0-.416-.417h-2.91V2.407a.422.422 0 0 0-.843 0v2.068H3.257a.4.4 0 0 0-.416.417V7.8h-.424A.4.4 0 0 0 2 8.216v13.31a.448.448 0 0 0 .417.417h19.164a.449.449 0 0 0 .419-.416V9.9a.4.4 0 0 0-.422-.413ZM16.977 7.8h3.34v1.686h-3.34V7.8Zm-1.679 5.855v7.447h-4.964v-7.447h4.964ZM3.671 5.308h2.031a.385.385 0 0 0 .041.01.352.352 0 0 0 .041-.01H8.66v2.493H3.67V5.308Zm-.84 3.324h.377a.369.369 0 0 0 .047.011h5.82a.376.376 0 0 0 .047-.01H9.5v4.552a.442.442 0 0 0-.01.048.378.378 0 0 0 .01.04v7.84H7.008v-1.237a.397.397 0 0 0-.414-.414H4.939a.395.395 0 0 0-.387.253.397.397 0 0 0-.027.161v1.237H2.828l.002-12.48Zm3.35 12.481h-.828v-.823h.828v.823Zm13.301 0h-.827v-.824h.827v.824Zm1.677 0h-.849v-1.238a.398.398 0 0 0-.413-.414h-1.655a.398.398 0 0 0-.414.414v1.238h-1.692v-7.856c0-.008.006-.016.006-.025 0-.008-.005-.019-.006-.03v-2.886h.372c.017.005.034.01.052.012h4.177a.334.334 0 0 0 .053-.012h.371l-.002 10.797ZM7.85 6.558a.438.438 0 0 1-.416.398H4.943a.438.438 0 0 1-.416-.398.392.392 0 0 1 .416-.398h2.492a.392.392 0 0 1 .416.399v-.001ZM3.683 9.907a.4.4 0 0 1 .414-.425h4.136a.401.401 0 0 1 .414.425.45.45 0 0 1-.414.424H4.097a.45.45 0 0 1-.414-.423v-.001Zm0 1.639a.401.401 0 0 1 .414-.424h4.136a.399.399 0 0 1 .414.424.45.45 0 0 1-.414.421H4.097a.45.45 0 0 1-.414-.42v-.001Zm0 1.686a.401.401 0 0 1 .414-.424h4.136a.399.399 0 0 1 .414.424.45.45 0 0 1-.414.425H4.097a.449.449 0 0 1-.414-.424Zm0 1.64a.401.401 0 0 1 .414-.425h4.136a.4.4 0 0 1 .414.424.45.45 0 0 1-.414.422H4.097a.449.449 0 0 1-.414-.421Zm0 1.686a.401.401 0 0 1 .414-.422h4.136a.4.4 0 0 1 .414.422.45.45 0 0 1-.414.424H4.097a.449.449 0 0 1-.414-.423v-.001Zm.414 2.06a.45.45 0 0 1-.414-.421.4.4 0 0 1 .414-.424h4.136a.4.4 0 0 1 .414.424.45.45 0 0 1-.414.422H4.097Zm16.213-7.072a.45.45 0 0 1-.415.421h-2.493a.45.45 0 0 1-.415-.421.4.4 0 0 1 .415-.424h2.492a.401.401 0 0 1 .416.425v-.001Zm0 1.686a.45.45 0 0 1-.415.425h-2.493a.45.45 0 0 1-.415-.425.4.4 0 0 1 .415-.424h2.492a.403.403 0 0 1 .416.425Zm0 1.64a.45.45 0 0 1-.415.421h-2.493a.45.45 0 0 1-.415-.422.4.4 0 0 1 .415-.424h2.492a.402.402 0 0 1 .416.425Zm0 1.686a.451.451 0 0 1-.415.424h-2.493a.45.45 0 0 1-.415-.424.4.4 0 0 1 .415-.422h2.492a.403.403 0 0 1 .416.423v-.001Zm0 1.639a.45.45 0 0 1-.415.422h-2.493a.45.45 0 0 1-.415-.422.4.4 0 0 1 .415-.424h2.492a.4.4 0 0 1 .391.26c.02.053.028.11.025.165v-.001Zm-9.133-3.326a.401.401 0 0 1 .415-.424h2.492a.401.401 0 0 1 .416.424.45.45 0 0 1-.416.422h-2.492a.45.45 0 0 1-.415-.421Zm0 1.687a.402.402 0 0 1 .415-.422h2.492a.402.402 0 0 1 .416.422.45.45 0 0 1-.416.424h-2.492a.45.45 0 0 1-.415-.423v-.001Zm3.325 1.639a.45.45 0 0 1-.416.422h-2.492a.45.45 0 0 1-.415-.422.401.401 0 0 1 .415-.424h2.492a.4.4 0 0 1 .416.425v-.001Z" clip-rule="evenodd"/>
</svg>
