<svg xmlns="http://www.w3.org/2000/svg" width="24" height="24" fill="none" viewBox="0 0 24 24">
  <path fill="#000" fill-rule="evenodd" d="M19.405 2h-8.322a.449.449 0 0 0-.416.417v6.25h-6.25A.448.448 0 0 0 4 9.082v12.5a.4.4 0 0 0 .416.417h14.989a.4.4 0 0 0 .416-.417V2.417A.448.448 0 0 0 19.405 2ZM6.476 21.166V19.5h1.667v1.666H6.476Zm5.847 0H8.977v-2.083a.447.447 0 0 0-.417-.417h-2.5a.448.448 0 0 0-.417.417v2.083h-.81v-6.678h1.241a.392.392 0 0 0 .415-.4.438.438 0 0 0-.415-.398H4.833v-.845h2.084a.403.403 0 0 0 .416-.425.452.452 0 0 0-.416-.425H4.833v-.84H7.76a.394.394 0 0 0 .417-.398.44.44 0 0 0-.417-.4H4.833v-.856h7.489v11.665Zm3.355 0V19.5h1.668v1.666h-1.668Zm3.311 0h-.81v-2.083a.448.448 0 0 0-.417-.417h-2.5a.448.448 0 0 0-.417.417v2.083h-1.682V9.084a.448.448 0 0 0-.416-.417H11.5v-.796h2.084A.402.402 0 0 0 14 7.446a.45.45 0 0 0-.417-.425H11.5v-.845h2.928a.404.404 0 0 0 .418-.425.453.453 0 0 0-.418-.425H11.5V4.53h4.573a.402.402 0 0 0 .416-.425.451.451 0 0 0-.416-.425H11.5v-.856h7.49v18.343Z" clip-rule="evenodd"/>
</svg>
