<svg xmlns="http://www.w3.org/2000/svg" width="24" height="24" fill="none" viewBox="0 0 24 24">
  <path fill="#000" fill-rule="evenodd" d="M18.727 16.197h-1.272V8.282a.4.4 0 0 0-.414-.417h-1.224V5.798a.415.415 0 0 0-.053-.208.38.38 0 0 0-.084-.133l-3.318-3.351a.51.51 0 0 0-.623 0L8.421 5.457a1.101 1.101 0 0 0-.068.183.542.542 0 0 0-.023.215v2.009H7.106a.367.367 0 0 0-.415.417v7.914H5.42a.367.367 0 0 0-.415.415v4.975A.399.399 0 0 0 5.42 22h13.302a.446.446 0 0 0 .416-.415V16.61a.4.4 0 0 0-.41-.413ZM12.086 3.015l2.278 2.37H9.742l2.344-2.37ZM9.162 6.227h5.825v1.638H9.162V6.227ZM7.52 8.7h1.183c.016 0 .027.008.044.008h6.656c.012 0 .024-.007.036-.008h1.19v7.497h-9.11L7.52 8.7Zm10.792 12.472H5.838v-4.146h1.2a.4.4 0 0 0 .067.014h9.94a.369.369 0 0 0 .056-.014h1.211l-.001 4.146ZM11.239 9.55H9.586a.366.366 0 0 0-.414.414v1.653a.398.398 0 0 0 .414.414h1.653a.445.445 0 0 0 .414-.414V9.964a.4.4 0 0 0-.413-.414Zm-.413 1.654h-.827v-.827h.827v.827Zm3.737-1.654H12.91a.366.366 0 0 0-.414.414v1.653a.397.397 0 0 0 .414.414h1.654a.445.445 0 0 0 .414-.414V9.964a.4.4 0 0 0-.416-.414Zm-.414 1.654h-.826v-.827h.826v.827Zm-2.91 1.67H9.586a.367.367 0 0 0-.414.413v1.654a.397.397 0 0 0 .414.413h1.653a.445.445 0 0 0 .414-.413v-1.654a.397.397 0 0 0-.413-.415v.002Zm-.413 1.654h-.827V13.7h.827v.827Zm3.737-1.655H12.91a.367.367 0 0 0-.414.414v1.654a.397.397 0 0 0 .414.413h1.654a.445.445 0 0 0 .414-.413v-1.654a.398.398 0 0 0-.416-.415v.002Zm-.414 1.655h-.826V13.7h.826v.827Zm-5.39 3.307H7.104a.37.37 0 0 0-.414.424v1.685a.402.402 0 0 0 .414.424h1.653a.45.45 0 0 0 .414-.424V18.26a.401.401 0 0 0-.413-.424Zm-.414 1.685h-.827v-.842h.827v.842Zm4.572-1.685h-1.685a.372.372 0 0 0-.424.424v1.685a.404.404 0 0 0 .424.424h1.685a.453.453 0 0 0 .42-.424V18.26a.404.404 0 0 0-.42-.424Zm-.424 1.685h-.843v-.842h.843v.842Zm4.548-1.685h-1.654a.37.37 0 0 0-.414.424v1.685a.403.403 0 0 0 .414.424h1.654a.449.449 0 0 0 .413-.424V18.26a.399.399 0 0 0-.41-.424h-.003Zm-.413 1.685H15.8v-.842h.827v.842Z" clip-rule="evenodd"/>
</svg>
