<svg xmlns="http://www.w3.org/2000/svg" width="24" height="24" fill="none" viewBox="0 0 24 24">
  <path fill="#000" d="M21.583 2H2.417A.448.448 0 0 0 2 2.416v19.12a.4.4 0 0 0 .417.417h19.166a.402.402 0 0 0 .417-.415V2.416A.448.448 0 0 0 21.583 2Zm-.417 14.145h-.852v-4.57a2.138 2.138 0 0 0-2.089-2.081h-.835a2.091 2.091 0 0 0-2.088 2.082v4.57h-.795V2.83h6.66v13.314Zm0 1.639h-6.67v-.795h.01v-.013h1.135a.46.46 0 0 0 .079.013h4.176a.46.46 0 0 0 .08-.013h1.19v.808Zm-6.67.843h6.67v.843h-6.67v-.843Zm4.982-2.482h-3.342v-4.57a1.292 1.292 0 0 1 1.254-1.248h.835a1.292 1.292 0 0 1 1.253 1.249v4.57ZM2.833 2.831h10.83v18.29H2.832V2.831ZM14.5 21.123h-.004v-.808h6.67v.81l-6.666-.002ZM5.77 3.686a2.088 2.088 0 0 0-2.084 2.079V9.92a.4.4 0 0 0 .417.416h3.335a.4.4 0 0 0 .417-.416V5.765A2.134 2.134 0 0 0 5.77 3.686Zm1.25 5.82h-2.5V5.765a1.25 1.25 0 0 1 2.5 0v3.741Zm3.715-5.82a2.088 2.088 0 0 0-2.084 2.079V9.92a.4.4 0 0 0 .417.416h3.334a.4.4 0 0 0 .417-.416V5.765a2.134 2.134 0 0 0-2.083-2.079Zm1.25 5.82h-2.5V5.765a1.25 1.25 0 1 1 2.5 0v3.741Zm-6.215 2.47a2.087 2.087 0 0 0-2.084 2.079v4.156a.4.4 0 0 0 .417.416h3.335a.399.399 0 0 0 .417-.416v-4.156a2.134 2.134 0 0 0-2.084-2.079H5.77Zm1.25 5.82h-2.5v-3.741a1.25 1.25 0 0 1 2.5 0v3.74Zm3.715-5.82a2.087 2.087 0 0 0-2.084 2.079v4.156a.4.4 0 0 0 .417.416h3.334a.399.399 0 0 0 .417-.416v-4.156a2.133 2.133 0 0 0-2.083-2.079Zm1.25 5.82h-2.5v-3.741a1.25 1.25 0 1 1 2.5 0v3.74Zm5.822-9.567a2.078 2.078 0 0 0 2.084-2.06 2.125 2.125 0 0 0-2.084-2.061 2.078 2.078 0 0 0-1.932 2.859 2.035 2.035 0 0 0 1.933 1.262Zm0-3.297a1.285 1.285 0 0 1 1.25 1.237 1.25 1.25 0 1 1-2.5 0 1.284 1.284 0 0 1 1.25-1.234v-.003Z"/>
</svg>
