<svg xmlns="http://www.w3.org/2000/svg" width="24" height="24" fill="none" viewBox="0 0 24 24">
  <path fill="#000" fill-rule="evenodd" d="M21.576 21.152H20.35V6.18h1.226a.402.402 0 0 0 .417-.423.373.373 0 0 0-.417-.421h-2.072V4.069a.373.373 0 0 0-.417-.423h-4.605V2.418a.365.365 0 0 0-.414-.414H9.923a.398.398 0 0 0-.414.414v1.228H4.907a.404.404 0 0 0-.417.423v1.267H2.417a.402.402 0 0 0-.416.422.451.451 0 0 0 .416.422h1.226v14.972H2.417a.402.402 0 0 0-.416.425.452.452 0 0 0 .416.423h19.16a.402.402 0 0 0 .417-.423.372.372 0 0 0-.418-.425ZM10.338 2.832h3.317v.814h-3.317v-.814ZM5.321 4.491H18.67v.844H5.32v-.844ZM4.478 6.18h15.038v14.972h-5.83v-2.915a.372.372 0 0 0-.422-.418H10.73a.404.404 0 0 0-.422.418v2.915H4.479L4.478 6.18Zm8.363 14.972h-1.69v-2.498h1.69v2.498Zm-3.332-2.065a.403.403 0 0 1-.417.422H6.595a.45.45 0 0 1-.417-.422.403.403 0 0 1 .417-.425h2.497a.373.373 0 0 1 .417.425Zm8.307 0a.402.402 0 0 1-.416.422h-2.498a.45.45 0 0 1-.416-.422.404.404 0 0 1 .416-.425H17.4a.372.372 0 0 1 .416.425ZM6.18 15.754a.402.402 0 0 1 .414-.425h4.145a.373.373 0 0 1 .415.425.403.403 0 0 1-.415.426H6.593a.45.45 0 0 1-.416-.426h.002Zm6.664 0a.4.4 0 0 1 .415-.425h4.145a.373.373 0 0 1 .415.425.403.403 0 0 1-.415.426h-4.145a.45.45 0 0 1-.417-.426h.002ZM6.18 13.267a.402.402 0 0 1 .414-.425h4.145a.372.372 0 0 1 .415.425.403.403 0 0 1-.415.425H6.593a.45.45 0 0 1-.416-.425h.002Zm6.664 0a.4.4 0 0 1 .415-.425h4.145a.372.372 0 0 1 .415.425.403.403 0 0 1-.415.425h-4.145a.45.45 0 0 1-.417-.425h.002Zm-6.664-2.51a.39.39 0 0 1 .414-.4h4.145c.277 0 .415.133.415.4a.39.39 0 0 1-.415.398H6.593a.437.437 0 0 1-.416-.399h.002Zm6.664 0a.391.391 0 0 1 .415-.4h4.145c.276 0 .415.133.415.4a.391.391 0 0 1-.415.398h-4.145a.436.436 0 0 1-.417-.399h.002ZM6.18 8.244a.401.401 0 0 1 .414-.422h4.145a.372.372 0 0 1 .415.422.403.403 0 0 1-.415.422H6.593a.45.45 0 0 1-.416-.422h.002Zm6.664 0a.402.402 0 0 1 .415-.422h4.145a.372.372 0 0 1 .415.422.401.401 0 0 1-.415.422h-4.145a.45.45 0 0 1-.417-.422h.002Z" clip-rule="evenodd"/>
</svg>
