<svg xmlns="http://www.w3.org/2000/svg" width="24" height="24" fill="none" viewBox="0 0 24 24">
  <path fill="#000" fill-rule="evenodd" d="M21.583 21.094h-2.909V6.151h.38a.4.4 0 0 0 .416-.417V4.9a.462.462 0 0 0-.277-.347L12.14 2.05a.212.212 0 0 0-.276 0L4.807 4.553a.461.461 0 0 0-.277.347v.834a.4.4 0 0 0 .415.417h.381v14.943H2.417a.45.45 0 0 0-.417.424.402.402 0 0 0 .417.422h19.166a.404.404 0 0 0 .417-.422.45.45 0 0 0-.417-.424ZM5.358 5.248l6.641-2.363 6.641 2.363v.07h-.343a.333.333 0 0 0-.04-.01H5.74a.352.352 0 0 0-.04.01h-.343v-.07Zm.8.901h11.681v14.943h-4.177v-3.708a.446.446 0 0 0-.416-.414h-2.493a.445.445 0 0 0-.416.414v3.708H6.16L6.158 6.15Zm6.672 14.943h-1.663v-3.294h1.663v3.294Zm-3.751-14.1H7.422a.445.445 0 0 0-.414.414v1.656a.397.397 0 0 0 .414.413h1.655a.397.397 0 0 0 .414-.413V7.406a.445.445 0 0 0-.412-.412v-.001Zm-.414 1.656h-.827V7.82h.827v.828Zm2.087.827h2.492a.398.398 0 0 0 .416-.413V7.406a.446.446 0 0 0-.416-.413h-2.492a.446.446 0 0 0-.416.413v1.656a.4.4 0 0 0 .416.415v-.002Zm.415-1.655h1.663v.828h-1.663V7.82Zm3.752 1.655h1.655a.397.397 0 0 0 .414-.413V7.406a.445.445 0 0 0-.414-.413h-1.655a.445.445 0 0 0-.414.413v1.656a.397.397 0 0 0 .414.415v-.002Zm.413-1.655h.828v.828h-.828V7.82ZM9.08 10.318H7.422a.445.445 0 0 0-.414.414v1.655a.398.398 0 0 0 .414.414h1.655a.397.397 0 0 0 .414-.414v-1.655a.445.445 0 0 0-.412-.412v-.002Zm-.414 1.655h-.827v-.827h.827v.827Zm2.087.828h2.492a.4.4 0 0 0 .389-.252.399.399 0 0 0 .027-.162v-1.655a.446.446 0 0 0-.416-.413h-2.492a.446.446 0 0 0-.416.413v1.655a.4.4 0 0 0 .416.416V12.8Zm.415-1.655h1.663v.827h-1.663v-.827ZM14.92 12.8h1.655a.397.397 0 0 0 .414-.414v-1.655a.445.445 0 0 0-.414-.413H14.92a.445.445 0 0 0-.414.413v1.655a.396.396 0 0 0 .414.416V12.8Zm.413-1.655h.828v.827h-.828v-.827ZM9.08 13.644H7.422a.445.445 0 0 0-.414.414v1.655a.397.397 0 0 0 .414.414h1.655a.398.398 0 0 0 .414-.414v-1.655a.445.445 0 0 0-.412-.412v-.002ZM8.665 15.3h-.827v-.827h.827v.827Zm2.087.828h2.492a.397.397 0 0 0 .416-.414v-1.655a.446.446 0 0 0-.416-.414h-2.492a.447.447 0 0 0-.416.414v1.655a.4.4 0 0 0 .416.416v-.002Zm.415-1.655h1.663v.827h-1.663v-.827Zm3.752 1.655h1.655a.398.398 0 0 0 .414-.414v-1.655a.445.445 0 0 0-.414-.414h-1.655a.445.445 0 0 0-.414.414v1.655a.397.397 0 0 0 .414.416v-.002Zm.413-1.655h.828v.827h-.828v-.827ZM9.08 16.97H7.422a.445.445 0 0 0-.414.414v1.655a.397.397 0 0 0 .414.413h1.655a.398.398 0 0 0 .414-.413v-1.655a.445.445 0 0 0-.412-.412v-.002Zm-.414 1.655h-.827v-.827h.827v.827Zm6.254.828h1.655a.398.398 0 0 0 .414-.414v-1.655a.445.445 0 0 0-.414-.414H14.92a.445.445 0 0 0-.414.414v1.655a.397.397 0 0 0 .414.415v-.002Zm.413-1.655h.828v.827h-.828v-.827Z" clip-rule="evenodd"/>
</svg>
