<svg xmlns="http://www.w3.org/2000/svg" width="24" height="24" fill="none" viewBox="0 0 24 24">
  <path fill="#000" fill-rule="evenodd" d="M21.59 21.147h-.428v-7.89a.398.398 0 0 0-.413-.416h-2.073v-.425a.406.406 0 0 0-.425-.424.453.453 0 0 0-.425.424v.425h-.385a.446.446 0 0 0-.413.416v7.89h-.845V5.751a.4.4 0 0 0-.417-.416h-2.07V4.107a.403.403 0 0 0-.425-.415h-.422V2.425A.407.407 0 0 0 12.424 2a.454.454 0 0 0-.422.425v1.267h-1.267a.45.45 0 0 0-.422.415v1.228H8.242a.448.448 0 0 0-.418.416v15.396H6.98v-7.89a.397.397 0 0 0-.413-.416h-.384v-.425a.406.406 0 0 0-.425-.424.454.454 0 0 0-.424.424v.425H3.258a.446.446 0 0 0-.413.416v7.89h-.428a.45.45 0 0 0-.416.425.403.403 0 0 0 .416.425h19.158a.371.371 0 0 0 .416-.425.402.402 0 0 0-.4-.425Zm-3.731-7.474h.318c.025.006.05.01.076.013a.571.571 0 0 0 .09-.013h1.994v7.474h-2.478v-7.474Zm-6.69-9.153h1.176c.03.008.06.013.091.015a.604.604 0 0 0 .109-.015h.314v.813h-1.69V4.52ZM8.674 6.165h2.004a.41.41 0 0 0 .07.012h2.534a.565.565 0 0 0 .083-.012h1.991v14.982H8.67l.005-14.982ZM3.69 13.673h2.008c.025.006.05.01.076.012a.565.565 0 0 0 .09-.012h.304v7.474H3.69v-7.474Zm5.838-5.408a.438.438 0 0 1 .415-.398h4.144a.39.39 0 0 1 .415.398c0 .266-.138.399-.415.399H9.943a.391.391 0 0 1-.418-.398h.003Zm4.974 2.487c0 .267-.138.4-.415.4H9.943a.39.39 0 0 1-.415-.4.438.438 0 0 1 .415-.399h4.144a.39.39 0 0 1 .412.4h.003Zm0 2.51a.371.371 0 0 1-.415.425H9.943a.403.403 0 0 1-.415-.424.45.45 0 0 1 .415-.422h4.144a.403.403 0 0 1 .412.422h.003Zm0 2.488a.372.372 0 0 1-.415.425H9.943a.401.401 0 0 1-.415-.425.45.45 0 0 1 .415-.425h4.144a.403.403 0 0 1 .412.426h.003Zm0 2.487a.371.371 0 0 1-.415.425H9.943a.401.401 0 0 1-.415-.425.45.45 0 0 1 .415-.425h4.144a.401.401 0 0 1 .412.425h.003Z" clip-rule="evenodd"/>
</svg>
