<svg xmlns="http://www.w3.org/2000/svg" width="24" height="24" fill="none" viewBox="0 0 24 24">
  <path fill="#000" fill-rule="evenodd" d="M11.562 9.455H10.34V4.862a.401.401 0 0 0-.416-.418h-2.91V2.377a.424.424 0 0 0-.843 0v2.067H4.104a.4.4 0 0 0-.416.418v4.593H2.415A.398.398 0 0 0 2 9.87v11.625a.446.446 0 0 0 .415.416h9.143a.447.447 0 0 0 .416-.416V9.87a.4.4 0 0 0-.412-.415ZM4.521 5.28h2.043c.01.002.019.005.029.006a.294.294 0 0 0 .029-.006h2.886v4.174H4.52V5.28Zm2.492 15.8H6.17v-.824h.843v.824Zm4.132 0H7.858v-1.238a.402.402 0 0 0-.424-.414H5.748a.403.403 0 0 0-.422.414v1.238H2.834V10.285h1.22c.017.006.035.01.053.013h5.818a.312.312 0 0 0 .053-.013h1.17l-.003 10.795ZM21.58 6.129h-7.498a.4.4 0 0 0-.417.415v14.951a.448.448 0 0 0 .417.416h7.5a.448.448 0 0 0 .418-.416V6.544a.399.399 0 0 0-.418-.414l-.002-.001Zm-2.939 14.95h-.827v-.823h.827v.824Zm2.523 0h-1.697v-1.237a.398.398 0 0 0-.413-.414h-1.655a.398.398 0 0 0-.414.414v1.238h-2.492V6.96h6.668l.003 14.12ZM15.3 8.19a.4.4 0 0 1 .417-.42h4.176a.403.403 0 0 1 .417.42.451.451 0 0 1-.417.422h-4.176a.451.451 0 0 1-.417-.422Zm0 1.686a.401.401 0 0 1 .417-.424h4.176a.403.403 0 0 1 .417.424.452.452 0 0 1-.417.424h-4.176a.452.452 0 0 1-.417-.424Zm0 1.639a.4.4 0 0 1 .417-.424h4.176a.402.402 0 0 1 .417.424.451.451 0 0 1-.417.421h-4.176a.452.452 0 0 1-.417-.421Zm0 1.686a.402.402 0 0 1 .417-.424h4.176a.402.402 0 0 1 .417.424.452.452 0 0 1-.417.424h-4.176a.451.451 0 0 1-.417-.424Zm0 1.639a.401.401 0 0 1 .417-.425h4.176a.404.404 0 0 1 .417.425.451.451 0 0 1-.417.421h-4.176a.45.45 0 0 1-.417-.422Zm0 1.686a.403.403 0 0 1 .417-.422h4.176a.403.403 0 0 1 .417.422.452.452 0 0 1-.417.424h-4.176a.452.452 0 0 1-.417-.424Zm0 1.638a.402.402 0 0 1 .417-.424h4.176a.404.404 0 0 1 .417.424.451.451 0 0 1-.417.422h-4.176a.451.451 0 0 1-.417-.422Zm-4.964-5.806a.45.45 0 0 1-.415.421H4.104a.45.45 0 0 1-.416-.421.401.401 0 0 1 .416-.424h5.818a.403.403 0 0 1 .417.424h-.002Zm0 2.482a.45.45 0 0 1-.415.421H4.104a.45.45 0 0 1-.416-.421.402.402 0 0 1 .416-.425h5.818a.403.403 0 0 1 .417.424h-.002Zm0 2.505a.437.437 0 0 1-.415.398H4.104a.438.438 0 0 1-.416-.398.39.39 0 0 1 .416-.398h5.818a.39.39 0 0 1 .417.398h-.002ZM5.327 6.529a.392.392 0 0 1 .415-.398h2.492a.392.392 0 0 1 .416.398.438.438 0 0 1-.416.398H5.742a.438.438 0 0 1-.414-.399l-.001.001ZM8.65 8.191a.45.45 0 0 1-.415.422H5.744a.45.45 0 0 1-.416-.422.401.401 0 0 1 .416-.42h2.492a.401.401 0 0 1 .417.42h-.002Z" clip-rule="evenodd"/>
</svg>
