<svg xmlns="http://www.w3.org/2000/svg" width="24" height="24" fill="none" viewBox="0 0 24 24">
  <path fill="#000" fill-rule="evenodd" d="M21.583 2H2.417A.447.447 0 0 0 2 2.416v19.121a.4.4 0 0 0 .417.416h19.166a.4.4 0 0 0 .417-.416V2.417A.447.447 0 0 0 21.583 2ZM9.488 21.121V18.63a2.513 2.513 0 0 1 5.024 0v2.492H9.488Zm11.679 0h-5.818V18.63a3.383 3.383 0 0 0-3.35-3.326 3.338 3.338 0 0 0-3.348 3.326v2.492H2.833V2.831h18.334v18.29Zm-1.273-6.662h-3.335a.448.448 0 0 0-.417.417v4.176a.4.4 0 0 0 .417.418h3.335a.402.402 0 0 0 .417-.418v-4.176a.45.45 0 0 0-.415-.417h-.002Zm-.417 4.176h-2.5v-3.341h2.5v3.34Zm-15.379.835h3.335a.402.402 0 0 0 .417-.418v-4.176a.449.449 0 0 0-.417-.417H4.098a.448.448 0 0 0-.416.417v4.176a.4.4 0 0 0 .42.418h-.004Zm.418-4.176h2.5v3.34h-2.5v-3.34Zm-.42-2.475h4.136a.397.397 0 0 0 .414-.413V8.269a.139.139 0 0 0-.004-.014c0-.006.004-.01.004-.017V4.102a.445.445 0 0 0-.414-.414H4.096a.444.444 0 0 0-.414.414v4.136c0 .006.002.011.003.017a.137.137 0 0 0-.003.014v4.137a.397.397 0 0 0 .418.413h-.004Zm3.723-.827h-3.31v-3.31h3.31v3.31Zm-3.31-7.477h3.31v3.31h-3.31v-3.31Zm5.398 8.305h4.176a.4.4 0 0 0 .418-.413V8.27a.143.143 0 0 0-.003-.014c0-.006.003-.01.003-.017V4.103a.447.447 0 0 0-.418-.414H9.907a.447.447 0 0 0-.418.414v4.136c0 .007.003.01.004.017a.14.14 0 0 0-.004.014v4.137a.4.4 0 0 0 .423.412l-.005.001Zm3.759-.827h-3.34v-3.31h3.34v3.31Zm-3.34-7.477h3.34v3.31h-3.34v-3.31Zm5.432 8.305h4.137a.4.4 0 0 0 .414-.413V8.27a.142.142 0 0 0-.004-.014c0-.006.004-.01.004-.017V4.104a.446.446 0 0 0-.414-.414h-4.136a.446.446 0 0 0-.415.414V8.24c0 .007.004.01.004.017a.142.142 0 0 0-.004.014v4.137a.398.398 0 0 0 .419.411l-.005.002Zm3.724-.827h-3.31v-3.31h3.31v3.31Zm-3.31-7.477h3.31v3.31h-3.31v-3.31Z" clip-rule="evenodd"/>
</svg>
