<svg xmlns="http://www.w3.org/2000/svg" width="24" height="24" fill="none" viewBox="0 0 24 24">
  <path fill="#000" fill-rule="evenodd" d="M13.735 13.697h-2.498a.4.4 0 0 0-.417.416v2.497a.448.448 0 0 0 .417.417h2.498a.4.4 0 0 0 .416-.417v-2.497a.367.367 0 0 0-.416-.416Zm-.417 2.497h-1.666v-1.666h1.666v1.666Zm4.547-2.497h-2.498a.4.4 0 0 0-.417.416v2.497a.448.448 0 0 0 .417.417h2.498a.4.4 0 0 0 .416-.417v-2.497a.367.367 0 0 0-.416-.416Zm-.417 2.497h-1.666v-1.666h1.666v1.666Zm-7.891-2.497H7.059a.4.4 0 0 0-.416.416v2.497a.448.448 0 0 0 .416.417h2.498a.401.401 0 0 0 .417-.417v-2.497a.368.368 0 0 0-.417-.416Zm-.416 2.497H7.475v-1.666H9.14v1.666Zm4.594-6.677h-2.498a.4.4 0 0 0-.417.417v2.498a.448.448 0 0 0 .417.416h2.498a.399.399 0 0 0 .416-.416V9.934a.368.368 0 0 0-.416-.415v-.002Zm-.417 2.498h-1.666V10.35h1.666v1.666Zm4.547-2.498h-2.498a.4.4 0 0 0-.417.417v2.498a.448.448 0 0 0 .417.416h2.498a.4.4 0 0 0 .416-.416V9.934a.368.368 0 0 0-.416-.415v-.002Zm-.417 2.498h-1.666V10.35h1.666v1.666ZM9.557 9.517H7.059a.4.4 0 0 0-.416.417v2.498a.448.448 0 0 0 .416.416h2.498a.4.4 0 0 0 .417-.416V9.934a.368.368 0 0 0-.417-.415v-.002Zm-.416 2.498H7.475V10.35H9.14v1.666Zm4.594-6.676h-2.498a.4.4 0 0 0-.417.416v2.498a.448.448 0 0 0 .417.416h2.498a.4.4 0 0 0 .416-.416V5.755a.368.368 0 0 0-.416-.413v-.003Zm-.417 2.498h-1.666V6.17h1.666v1.667Zm4.547-2.498h-2.498a.4.4 0 0 0-.417.416v2.498a.448.448 0 0 0 .417.416h2.498a.4.4 0 0 0 .416-.416V5.755a.368.368 0 0 0-.416-.413v-.003Zm-.417 2.498h-1.666V6.17h1.666v1.667ZM9.557 5.339H7.059a.4.4 0 0 0-.416.416v2.498a.448.448 0 0 0 .416.416h2.498a.4.4 0 0 0 .417-.416V5.755a.368.368 0 0 0-.417-.413v-.003Zm-.416 2.498H7.475V6.17H9.14v1.667Zm10.81-3.918a1.138 1.138 0 0 0-.069-.186L18.22 2.074a.525.525 0 0 0-.346-.068H7.076a.42.42 0 0 0-.277.068L5.14 3.733a.385.385 0 0 0-.08.119.416.416 0 0 0-.059.212v17.518a.448.448 0 0 0 .416.418h14.14a.401.401 0 0 0 .416-.418V4.128a.516.516 0 0 0-.022-.204v-.005ZM7.281 2.834h10.45l.814.813H6.466l.816-.813Zm4.37 18.33v-2.507h1.666v2.507h-1.666Zm2.498 0V18.24a.369.369 0 0 0-.417-.418h-2.498a.402.402 0 0 0-.416.418v2.925H5.83V4.491h13.31v16.673h-4.99Z" clip-rule="evenodd"/>
</svg>
