<svg xmlns="http://www.w3.org/2000/svg" width="24" height="24" fill="none" viewBox="0 0 24 24">
  <path fill="#000" fill-rule="evenodd" d="M21.583 2H6.584a2.048 2.048 0 0 0-2.083 2.087v.764a.413.413 0 0 0-.012.06.321.321 0 0 0 .012.051v3.222a.415.415 0 0 0-.012.06.343.343 0 0 0 .012.052v3.221a.412.412 0 0 0-.012.06.34.34 0 0 0 .012.052v2.865a.45.45 0 0 0-.127.022H3.25a.441.441 0 0 0-.416.348L2 19.87c-.005.12.019.24.069.348.139.07.208.139.347.139h1.748a2.055 2.055 0 0 0 4.028 0h7.615a2.056 2.056 0 0 0 4.028 0h1.747A.448.448 0 0 0 22 19.94V2.418A.399.399 0 0 0 21.583 2Zm-7.94 12.489V12h3.334v2.488h-3.333Zm-4.13 0V12h3.332v2.488H9.512Zm-4.178 0V12h3.333v2.488H5.335Zm7.512-9.156v2.488H9.509V5.333h3.338Zm4.131 0v2.488h-3.333V5.333h3.333Zm4.19 0v2.488h-3.345V5.333h3.345ZM5.335 11.154V8.666h15.833v2.488H5.335Zm3.333-3.333H5.332V5.333h3.333l.003 2.488Zm9.156 4.177h3.345v2.488h-3.345v-2.488ZM6.586 2.833h14.583v1.654H5.332v-.4a1.246 1.246 0 0 1 1.252-1.252l.002-.002ZM3.599 15.349h1.32a.37.37 0 0 0 .073-.018h16.177v2.489H3.189c.096-.591.228-1.388.408-2.469l.002-.002Zm12.197 4.16H8.208a2.068 2.068 0 0 0-.357-.844h8.302a2.064 2.064 0 0 0-.36.847l.003-.002Zm-12.748-.844H4.51a2.07 2.07 0 0 0-.36.855H2.906l.143-.855Zm3.133 2.498a1.25 1.25 0 0 1-.093-2.498h.186a1.25 1.25 0 0 1-.093 2.498Zm11.642 0a1.25 1.25 0 0 1-.092-2.498h.185a1.25 1.25 0 0 1-.093 2.498Zm2.03-1.643a2.07 2.07 0 0 0-.36-.855h1.676v.855h-1.317Z" clip-rule="evenodd"/>
</svg>
