<svg xmlns="http://www.w3.org/2000/svg" width="24" height="24" fill="none" viewBox="0 0 24 24">
  <path fill="#000" fill-rule="evenodd" d="M9.928 6.178h4.147a.449.449 0 0 0 .414-.422v-1.69a.4.4 0 0 0-.414-.422H9.928a.37.37 0 0 0-.414.422v1.69a.4.4 0 0 0 .414.422Zm.415-1.69h3.319v.846h-3.32v-.845Zm.015 13.754a.455.455 0 0 1-.422.423H7.402a.406.406 0 0 1-.423-.423.374.374 0 0 1 .423-.422h2.534a.406.406 0 0 1 .422.422Zm6.667 0a.452.452 0 0 1-.417.423h-2.5a.403.403 0 0 1-.417-.423.37.37 0 0 1 .417-.422h2.5a.401.401 0 0 1 .417.422Zm4.56-10.42h-2.918v-2.49A3.333 3.333 0 0 0 15.334 2H8.67a3.289 3.289 0 0 0-3.333 3.331v2.49H2.418a.368.368 0 0 0-.414.417v5.833a.4.4 0 0 0 .414.416h1.66a.447.447 0 0 0 .414-.416V8.667h.845v11.237a1.238 1.238 0 0 0 .845 1.177v.506a.396.396 0 0 0 .414.41h1.66a.444.444 0 0 0 .415-.41v-.433h6.665v.435a.396.396 0 0 0 .415.41h1.66a.444.444 0 0 0 .413-.41v-.507a1.24 1.24 0 0 0 .846-1.177V8.668h.845v5.404a.4.4 0 0 0 .415.417h1.659a.447.447 0 0 0 .415-.417V8.24a.4.4 0 0 0-.419-.417v-.002ZM3.662 13.653h-.83v-5h.83v5Zm2.507-5.36a.297.297 0 0 0 .012-.05.366.366 0 0 0-.012-.058v-.372h11.665v.35a.601.601 0 0 0-.012.082.498.498 0 0 0 .012.069v6.184H6.17V8.293Zm2.5-5.46h6.665a2.533 2.533 0 0 1 2.5 2.497v1.645H6.17V5.331a2.488 2.488 0 0 1 2.5-2.498Zm8.749 17.486H6.586a.399.399 0 0 1-.417-.416v-4.572h11.665v4.572a.448.448 0 0 1-.416.416Zm3.753-6.666h-.83v-5h.83v5Z" clip-rule="evenodd"/>
</svg>
