<svg xmlns="http://www.w3.org/2000/svg" width="24" height="24" fill="none" viewBox="0 0 24 24">
  <path fill="#000" fill-rule="evenodd" d="M20.779 5.334h-1.69c-.008 0-.014.003-.021.004-.008 0-.013-.004-.02-.004h-1.18A3.339 3.339 0 0 0 14.525 2h-5.85a3.296 3.296 0 0 0-3.342 3.334h-2.91A.403.403 0 0 0 2 5.752V9.94a.452.452 0 0 0 .422.418h1.555l.963.963a2.043 2.043 0 0 0-1.25 1.919v4.002a1.631 1.631 0 0 0-.845 1.45 1.69 1.69 0 0 0 1.668 1.666h.022v1.228a.447.447 0 0 0 .417.415h2.5a.447.447 0 0 0 .416-.415v-1.23h7.465v1.229a.447.447 0 0 0 .416.415h2.5a.447.447 0 0 0 .417-.415v-1.229h.022a1.69 1.69 0 0 0 1.668-1.666 1.628 1.628 0 0 0-.845-1.449v-4.002a2.08 2.08 0 0 0-1.275-1.917l.964-.965h1.579a.452.452 0 0 0 .422-.418V5.75a.403.403 0 0 0-.422-.417Zm-2.113.845v3.526l-.801.798V6.179h.801ZM6.17 11.157V6.179h5.03v4.978H6.17ZM12 6.179h5.036v4.978H12V6.179ZM8.677 2.834h5.85a2.494 2.494 0 0 1 2.506 2.5H6.17a2.493 2.493 0 0 1 2.507-2.5Zm-3.343 7.693-.8-.798V6.18h.8v4.348ZM2.845 6.171h.845V9.52h-.845V6.17Zm4.19 15H5.368v-.816h1.667v.816Zm10.798 0h-1.667v-.816h1.666l.001.816Zm.855-1.648h-.37a.475.475 0 0 0-.068-.011h-2.5a.493.493 0 0 0-.07.011H7.521a.492.492 0 0 0-.07-.011H4.95a.492.492 0 0 0-.07.011h-.369a.845.845 0 0 1-.834-.833.8.8 0 0 1 .834-.833h14.176a.845.845 0 0 1 .834.833.897.897 0 0 1-.833.833Zm-.01-6.284v3.75H4.523v-3.75a1.241 1.241 0 0 1 1.202-1.245c.01 0 .02.007.03.007h.008c.006 0 .017-.007.025-.009.007 0 .011-.002.017-.004h5.75c.016.006.033.01.05.013a.316.316 0 0 0 .047-.012h5.722c.017 0 .026.011.045.011a.17.17 0 0 0 .014-.004c.007 0 .013.005.019.005s.02-.007.029-.007a1.242 1.242 0 0 1 1.199 1.245Zm1.678-3.72h-.845V6.171h.845v3.348ZM16.6 13.267a1.244 1.244 0 1 0 1.169.764 1.25 1.25 0 0 0-1.169-.763Zm0 1.66a.45.45 0 0 1-.422-.415.423.423 0 0 1 .845 0 .451.451 0 0 1-.423.415Zm-10-1.66a1.243 1.243 0 1 0 1.17.764 1.25 1.25 0 0 0-1.17-.763Zm0 1.66a.45.45 0 0 1-.421-.415.422.422 0 0 1 .844 0 .45.45 0 0 1-.422.415Zm7.09-.837a.44.44 0 0 1-.418.4H9.928a.44.44 0 0 1-.417-.4.393.393 0 0 1 .417-.4h3.343a.393.393 0 0 1 .419.4Zm0 1.666a.453.453 0 0 1-.418.423H9.928a.453.453 0 0 1-.417-.423.4.4 0 0 1 .417-.422h3.343a.403.403 0 0 1 .419.422Zm1.643-11.69a.4.4 0 1 1-.4-.422.412.412 0 0 1 .4.422Zm-6.666 0a.4.4 0 1 1-.401-.422.412.412 0 0 1 .403.422h-.002Z" clip-rule="evenodd"/>
</svg>
