<svg xmlns="http://www.w3.org/2000/svg" width="24" height="24" fill="none" viewBox="0 0 24 24">
  <path fill="#000" fill-rule="evenodd" d="M19.558 10.328a.401.401 0 0 0 .416-.416V4.915a2.846 2.846 0 0 0-2.911-2.914H7.912A2.887 2.887 0 0 0 5 4.915v15.821a.448.448 0 0 0 .416.417h.382v.434a.448.448 0 0 0 .423.41h1.69a.4.4 0 0 0 .422-.41v-.433h8.31v.435a.444.444 0 0 0 .416.41h1.659a.397.397 0 0 0 .414-.41v-.434h.43a.4.4 0 0 0 .415-.417v-4.996a.369.369 0 0 0-.416-.417h-.416V10.33l.413-.002ZM9.438 20.32l.829-1.667h4.488l.829 1.667H9.438Zm9.289-10.825a.458.458 0 0 0-.097.016h-2.417a.4.4 0 0 0-.417.417v5.832a.449.449 0 0 0 .417.417h2.5a.421.421 0 0 0 .104-.02h.325v.865h-2.084a.4.4 0 0 0-.416.415v1.659a.447.447 0 0 0 .416.415h2.084v.81h-2.626c-.133-.269-.438-.883-1.14-2.292a.417.417 0 0 0-.414-.208H9.99a.378.378 0 0 0-.343.208l-1.14 2.292H5.83v-.81h2.085a.4.4 0 0 0 .416-.415v-1.66a.367.367 0 0 0-.416-.414H5.83v-.845h7.906a.402.402 0 0 0 .416-.417V9.928a.369.369 0 0 0-.416-.417H5.83V4.915a2.087 2.087 0 0 1 2.08-2.082h9.151a2.043 2.043 0 0 1 2.08 2.082v4.58h-.414Zm-.43.85v4.999H16.63v-4.999h1.666Zm.844 7.507v.828h-1.666v-.828h1.666Zm-13.307.828v-.828H7.5v.828H5.834Zm0-3.336v-4.999h7.489v4.999h-7.49ZM17.87 5.334H7.06a.401.401 0 0 0-.416.417V8.25a.448.448 0 0 0 .416.417h10.81a.4.4 0 0 0 .416-.417v-2.5a.369.369 0 0 0-.417-.416h.001Zm-.416 2.5H7.476V6.166h9.978v1.666Z" clip-rule="evenodd"/>
</svg>
