<svg xmlns="http://www.w3.org/2000/svg" width="24" height="24" fill="none" viewBox="0 0 24 24">
  <path fill="#000" fill-rule="evenodd" d="M21.583 3H5.76c-.139 0-.347.139-.347.278L2.915 9.105a.442.442 0 0 0 0 .416.53.53 0 0 0 .347.139h2.25l-1.77 3.118-1.602 1.598a.522.522 0 0 0-.14.277v3.75a.402.402 0 0 0 .418.417h1.733a2.062 2.062 0 0 0 4.055 0h7.588a2.062 2.062 0 0 0 4.055 0h1.734a.4.4 0 0 0 .417-.417V3.415A.447.447 0 0 0 21.583 3ZM10.357 16.33v-5.022h10.808v5.023H10.357Zm5.451 1.643H8.193a2.114 2.114 0 0 0-.368-.798h8.35a2.11 2.11 0 0 0-.368.801l.001-.003ZM6.038 3.828h15.127v6.679H10.357V9.236a.449.449 0 0 0-.417-.417H6.178a.225.225 0 0 0-.032.008h-2.26l2.152-4.999Zm-1.67 9.503c.07-.07.07-.07.07-.14L6.45 9.658h3.068v1.213a.312.312 0 0 0-.01.038l.01.046v5.377H2.834v-1.47l1.535-1.53Zm-1.532 3.842h1.696c-.18.24-.307.517-.371.81H2.836v-.81Zm3.343 2.498a1.24 1.24 0 0 1-1.24-1.253 1.29 1.29 0 0 1 1.157-1.245h.166a1.29 1.29 0 0 1 1.156 1.245 1.242 1.242 0 0 1-1.24 1.258l.001-.005Zm11.643 0a1.24 1.24 0 0 1-1.24-1.253 1.29 1.29 0 0 1 1.156-1.245h.168a1.29 1.29 0 0 1 1.155 1.245 1.242 1.242 0 0 1-1.24 1.258v-.005Zm2.018-1.687a2.107 2.107 0 0 0-.371-.81h1.7v.81h-1.33Zm-14.415-4.7 1.242-2.5a.458.458 0 0 1 .345-.277h1.241a.445.445 0 0 1 .414.416.399.399 0 0 1-.414.417h-.969l-1.172 2.292a.379.379 0 0 1-.346.208H5.56a.376.376 0 0 1-.136-.55v-.005Zm1.172-5.312H9.94a.401.401 0 0 0 .417-.417v-2.5a.449.449 0 0 0-.417-.416H7.433a.44.44 0 0 0-.418.347l-.836 2.5c-.004.12.02.238.07.347.07.144.208.144.347.144v-.005Zm1.112-2.5H9.52v1.667H7.153l.556-1.667Zm4.705 2.5h7.48a.4.4 0 0 0 .415-.417v-2.5a.447.447 0 0 0-.416-.416h-7.479a.447.447 0 0 0-.415.416v2.5a.399.399 0 0 0 .416.422v-.005Zm.416-2.5h6.647v1.667H12.83V5.472Z" clip-rule="evenodd"/>
</svg>
