<svg xmlns="http://www.w3.org/2000/svg" width="24" height="24" fill="none" viewBox="0 0 24 24">
  <path fill="#000" fill-rule="evenodd" d="M20.003 18.261v-1.669a.522.522 0 0 0-.139-.276L18.2 14.66c0-.003-.008-.005-.01-.008-.123-.305-.489-1.225-1.598-4.011 0-.14-.207-.277-.346-.277H7.122a.466.466 0 0 0-.414.276s0 .004-1.64 4.12l-1.563 1.556a.277.277 0 0 0-.138.276v3.31a.398.398 0 0 0 .415.415h.426v1.262a.401.401 0 0 0 .414.42h2.489a.402.402 0 0 0 .414-.42v-1.262h8.319v1.262a.402.402 0 0 0 .415.42h2.488a.401.401 0 0 0 .415-.42v-1.262h.424a.399.399 0 0 0 .417-.414V18.26ZM7.399 11.197h8.57l1.311 3.325H6.09l1.31-3.325Zm-.703 9.961H5.037v-.84h1.659v.84Zm11.636 0h-1.659v-.84h1.66v.84Zm.47-1.669a.35.35 0 0 0-.055-.013h-2.488a.328.328 0 0 0-.056.013H7.167a.339.339 0 0 0-.055-.013H4.623a.35.35 0 0 0-.055.013H4.2v-.808h3.33a.404.404 0 0 0 .39-.257.402.402 0 0 0 .027-.163.45.45 0 0 0-.417-.42H4.2v-1.042l1.373-1.435h12.158l1.441 1.435v1.041h-3.33a.45.45 0 0 0-.418.421.403.403 0 0 0 .417.42h3.331v.808h-.37ZM5.867 4.195a1.638 1.638 0 0 0-1.66 1.659 1.659 1.659 0 1 0 3.318 0 1.637 1.637 0 0 0-1.658-1.659Zm0 2.488a.84.84 0 0 1-.83-.829.799.799 0 0 1 .83-.83.84.84 0 0 1 .829.83.892.892 0 0 1-.83.83Zm14.527-2.12H9.407a3.808 3.808 0 1 0 0 2.491h3.939V8.3a.4.4 0 0 0 .415.416h1.659a.399.399 0 0 0 .414-.416V7.054h.83V8.3a.398.398 0 0 0 .415.416h1.659a.399.399 0 0 0 .414-.416V7.054h1.244a1.246 1.246 0 1 0 0-2.492h-.002Zm0 1.658h-1.659a.446.446 0 0 0-.414.415v1.247h-.83V6.636a.447.447 0 0 0-.415-.415h-1.659a.447.447 0 0 0-.414.415v1.247h-.83V6.636a.446.446 0 0 0-.414-.415h-4.7a.37.37 0 0 0-.346.346 2.91 2.91 0 0 1-5.735-.692 2.92 2.92 0 0 1 5.735-.761c0 .207.208.276.346.276h11.333a.446.446 0 0 1 .414.415.399.399 0 0 1-.412.418v-.002Z" clip-rule="evenodd"/>
</svg>
