<svg xmlns="http://www.w3.org/2000/svg" width="24" height="24" fill="none" viewBox="0 0 24 24">
  <path fill="#000" fill-rule="evenodd" d="M17.875 14.692a.484.484 0 0 0-.146-.146.38.38 0 0 0-.201-.07H5.7l1.313-3.312H9.78a.413.413 0 0 0 0-.827H6.737a.38.38 0 0 0-.415.276s0 .003-1.636 4.077l-1.617 1.613C3 16.373 3 16.442 3 16.58v3.319a.4.4 0 0 0 .416.414h.38v1.265a.403.403 0 0 0 .416.422h2.494a.45.45 0 0 0 .415-.422v-1.265h8.335v1.265a.402.402 0 0 0 .416.422h2.494a.45.45 0 0 0 .416-.422v-1.265h.427a.447.447 0 0 0 .416-.414V16.58a.359.359 0 0 0-.139-.276s.001-.003-1.611-1.612ZM6.288 21.157H4.626v-.843h1.662v.843Zm11.663 0h-1.663v-.843h1.663v.843Zm.472-1.673a.35.35 0 0 0-.057-.013h-2.494a.411.411 0 0 0-.067.013H6.76a.33.33 0 0 0-.057-.013H4.209a.415.415 0 0 0-.067.013h-.314v-.81h3.3a.42.42 0 1 0 0-.842H3.833v-1.114l1.385-1.382h12.124l1.456 1.382v1.114h-3.342a.422.422 0 0 0 0 .842h3.341v.81h-.375ZM20.85 2h-9.145a.4.4 0 0 0-.416.417v10.83a.4.4 0 0 0 .416.416h9.145a.448.448 0 0 0 .416-.417V2.417A.448.448 0 0 0 20.852 2h-.003Zm-.416 10.83h-8.31V2.833h8.313l-.003 9.997Zm-7.043-.853h5.82a.447.447 0 0 0 .415-.415v-7.46a.446.446 0 0 0-.415-.415h-5.82a.4.4 0 0 0-.415.414v7.461a.4.4 0 0 0 .418.415h-.003Zm.416-7.461h4.988v6.632h-4.988V4.516Zm3.996.529a.533.533 0 0 1 0 .632l-1.858 1.616a.355.355 0 0 1-.275.14h-.07a.37.37 0 0 1-.275-.21l-.62-.914a.463.463 0 0 1 .138-.632.426.426 0 0 1 .55.14l.343.563 1.514-1.335a.411.411 0 0 1 .554 0h-.002Zm0 2.504a.526.526 0 0 1 0 .628l-1.858 1.602a.357.357 0 0 1-.275.138h-.07c-.069-.07-.206-.138-.275-.209l-.62-.974a.389.389 0 0 1 .138-.557.37.37 0 0 1 .55.14l.343.556L17.25 7.55a.354.354 0 0 1 .554-.001h-.002Z" clip-rule="evenodd"/>
</svg>
