<svg xmlns="http://www.w3.org/2000/svg" width="24" height="24" fill="none" viewBox="0 0 24 24">
  <path fill="#000" fill-rule="evenodd" d="m19.316 12.03-.43-5.011c0-1.533-1.813-2.473-4.144-2.902-.097-.216-.32-.718-.839-1.889a.417.417 0 0 0-.38-.228h-4.25c-.151 0-.38.076-.38.228l-.83 1.944c-2.197.451-3.87 1.376-3.87 2.847l-.423 5.01A2.22 2.22 0 0 0 2 14.247v5.456a.488.488 0 0 0 .453.455h.468v1.389a.487.487 0 0 0 .453.452h2.724a.487.487 0 0 0 .454-.452v-1.39h9.976v1.39a.487.487 0 0 0 .453.452h2.724a.487.487 0 0 0 .454-.452v-1.39h.468a.488.488 0 0 0 .453-.454v-5.456a2.221 2.221 0 0 0-1.764-2.218ZM5.644 21.097H3.83v-.904h1.815v.904Zm7.711-4.11a.49.49 0 0 0-.46.454v1.814h-.92V17.44a.437.437 0 0 0-.873 0v1.814h-.92V17.44a.46.46 0 0 0-.921 0v1.814h-.887v-2.259c0-.828 1.581-1.356 3.163-1.356a6.89 6.89 0 0 1 2.334.374c.374.227.829.528.829.98v2.258h-.887v-1.814a.492.492 0 0 0-.46-.45h.002Zm1.381-2.74v1.26a7.026 7.026 0 0 0-6.393 0v-1.26a2.217 2.217 0 0 0-1.598-2.167 18.841 18.841 0 0 1 9.726-.04 2.22 2.22 0 0 0-1.738 2.208h.003ZM9.577 2.914h3.643l.454 1.047a19.128 19.128 0 0 0-4.547.036c.105-.261.25-.61.447-1.083h.003ZM5.103 7.019c0-1.286 2.801-2.27 6.437-2.27a13.85 13.85 0 0 1 4.62.681c.681.227 1.817.757 1.817 1.589l.379 4.69a20.09 20.09 0 0 0-13.632 0l.379-4.69Zm-2.197 7.229a1.356 1.356 0 0 1 1.36-1.364h1.812a1.358 1.358 0 0 1 1.359 1.364v5.001h-4.53v-5.001Zm16.345 6.849h-1.816v-.904h1.816v.904Zm.922-1.848h-4.536v-5.001a1.354 1.354 0 0 1 1.36-1.364h1.811a1.357 1.357 0 0 1 1.36 1.364l.005 5.001Zm-2.29-5.433a1.815 1.815 0 1 0 1.815 1.816 1.84 1.84 0 0 0-1.816-1.816Zm0 2.724a.92.92 0 0 1-.908-.908.908.908 0 1 1 1.815 0 .92.92 0 0 1-.908.908ZM5.196 13.816a1.816 1.816 0 1 0 1.816 1.816 1.841 1.841 0 0 0-1.82-1.816h.004Zm0 2.724a.92.92 0 0 1-.908-.908.908.908 0 0 1 1.816 0 .92.92 0 0 1-.911.908h.003Z" clip-rule="evenodd"/>
</svg>
