<svg xmlns="http://www.w3.org/2000/svg" width="24" height="24" fill="none" viewBox="0 0 24 24">
  <path fill="#000" fill-rule="evenodd" d="M21.256 12.255c-.688-.69-1.834-1.073-3.36-1.073-.025 0-.049.01-.072.01l-.338-2.157C17.18 6.751 14.816 5 11.994 5 9.095 5 6.807 6.751 6.502 9.035l-.336 2.15c-.007 0-.014-.003-.02-.003-1.529 0-2.675.384-3.362 1.073-1.145 1.226-.763 3.066-.534 3.829a1.922 1.922 0 0 0 1.398 1.149v1.115a.347.347 0 0 0 .38.3h3.338c.227 0 .455-.151.455-.3V17.31h8.398v1.038a.347.347 0 0 0 .38.3h3.338c.303 0 .455-.151.455-.3v-1.121a1.775 1.775 0 0 0 1.322-1.143c.229-.763.687-2.603-.458-3.829ZM7.342 9.111c.228-1.903 2.213-3.426 4.652-3.426s4.427 1.523 4.653 3.426l.305 1.828a15.091 15.091 0 0 0-9.915 0l.305-1.828Zm9.483 2.525c-1.343 1.077-2.54 3.807-3.038 5.059h-3.534c-.5-1.256-1.703-4-3.051-5.07a14.677 14.677 0 0 1 9.623.011Zm-9.838 6.341H4.483v-.662h2.504v.662Zm.412-1.274a.307.307 0 0 0-.033-.006h-3.12a1.313 1.313 0 0 1-1.156-.76c-.23-.69-.61-2.223.382-3.22.535-.538 1.376-.843 2.673-.843.763 0 2.213 2.376 3.208 4.829H7.399Zm9.654 1.274v-.662h2.504v.662h-2.504Zm3.897-2.04a1.408 1.408 0 0 1-1.162.76h-3.19a.275.275 0 0 0-.031.006h-1.88c.993-2.453 2.368-4.829 3.208-4.829a3.722 3.722 0 0 1 2.673.843c.916.994.535 2.527.382 3.217v.002ZM12.026 7.44c-1.142 0-2.055.612-2.131 1.53 0 .153-.229.306-.38.306h-.077a.358.358 0 0 1-.38-.382c.152-1.224 1.446-2.142 2.968-2.142a.348.348 0 0 1 .38.306.359.359 0 0 1-.38.381v.001Zm6.692 5.649a1.393 1.393 0 1 0 1.675 1.365 1.547 1.547 0 0 0-1.675-1.366Zm0 2.048a.697.697 0 1 1 .837-.683.774.774 0 0 1-.837.681v.002ZM5.323 13.09a1.393 1.393 0 1 0 1.675 1.365 1.548 1.548 0 0 0-1.675-1.366Zm0 2.048a.697.697 0 1 1 .837-.683.774.774 0 0 1-.837.681v.002Z" clip-rule="evenodd"/>
</svg>
