<svg xmlns="http://www.w3.org/2000/svg" width="24" height="24" fill="none" viewBox="0 0 24 24">
  <path fill="#000" fill-rule="evenodd" d="M22 10.457v-1.66a.4.4 0 0 0-.417-.414h-2.5a.45.45 0 0 0-.381.268c-.37-.744-.909-1.83-1.704-3.438a.417.417 0 0 0-.416-.21H7.445a.38.38 0 0 0-.343.21L5.335 8.778a.396.396 0 0 0-.413-.395H2.417A.448.448 0 0 0 2 8.798v1.659a.447.447 0 0 0 .417.415H3.4a3.715 3.715 0 0 0-.555 5.264v2.626a.448.448 0 0 0 .417.417h2.5a.4.4 0 0 0 .416-.417v-1.226H17.82v1.226a.448.448 0 0 0 .416.417h2.5a.399.399 0 0 0 .416-.417v-2.597a3.78 3.78 0 0 0-.526-5.294h.954a.4.4 0 0 0 .42-.414ZM7.722 5.842h8.655l2.076 4.192h-.066c-.045 0-.089-.007-.134-.007h-12.5c-.036 0-.072.004-.107.005l2.076-4.19Zm7.218 8.363H4.527v-.845h14.997v.845H14.94Zm-.561.844-.553 1.654H10.27l-.553-1.654h4.661Zm-4.02-4.177v1.643H9.003l.812-1.643h.544Zm.797 0h1.69v1.643h-1.69v-1.643Zm2.535 0h.59l.812 1.643h-1.402v-1.643Zm-4.83 0-.812 1.643H6.916c.171-.336.432-.855.83-1.643H8.86Zm7.186 1.643c-.114-.229-.343-.699-.811-1.643h1.115c.11.22.343.687.83 1.643h-1.134ZM2.836 9.214h1.667v.829H2.836v-.83Zm2.815 1.659h1.12l-.83 1.643H4.11a.45.45 0 0 0-.417.422v1.69a.45.45 0 0 0 .416.422h4.725l.554 1.654H5.89a.435.435 0 0 0-.126-.025.347.347 0 0 0-.078.018 2.902 2.902 0 0 1-2.047-.921.304.304 0 0 0-.11-.133 2.892 2.892 0 0 1-.694-1.86 2.931 2.931 0 0 1 2.815-2.911Zm-1.97 7.474V16.9c.498.336 1.07.547 1.667.615v.832H3.68Zm14.974 0v-.83a3.722 3.722 0 0 0 1.666-.598v1.43l-1.666-.002Zm2.512-4.564a2.92 2.92 0 0 1-.676 1.865.366.366 0 0 0-.137.172 2.882 2.882 0 0 1-2.027.879.435.435 0 0 0-.088-.018.348.348 0 0 0-.107.025H14.71l.552-1.653h4.68a.4.4 0 0 0 .416-.423v-1.69a.404.404 0 0 0-.416-.422h-1.786l-.829-1.643h1.03a2.886 2.886 0 0 1 2.81 2.907Zm0-3.74H19.5v-.829h1.667v.83Z" clip-rule="evenodd"/>
</svg>
