<svg xmlns="http://www.w3.org/2000/svg" width="24" height="24" fill="none" viewBox="0 0 24 24">
  <path fill="#000" fill-rule="evenodd" d="M20.77 11.837a2.416 2.416 0 0 0-.658-.386 4.249 4.249 0 0 0-.224-.608h.372a1.74 1.74 0 0 0 0-3.48h-.858v-.461A3.896 3.896 0 0 0 15.483 3H8.517a3.895 3.895 0 0 0-3.919 3.902v.46H3.74a1.74 1.74 0 1 0 0 3.481h.322a3.73 3.73 0 0 0-.184.626 2.56 2.56 0 0 0-.647.389c-1.305 1.017-1.378 2.978-.943 4.43a3.594 3.594 0 0 0 2.31 2.292v1.388a.467.467 0 0 0 .435.434h2.61a.468.468 0 0 0 .436-.434v-1.282h7.843v1.282a.467.467 0 0 0 .435.434h2.61a.467.467 0 0 0 .435-.434V18.58a3.392 3.392 0 0 0 2.237-2.298c.508-1.459.435-3.426-.87-4.445Zm-.513-3.604a.838.838 0 0 1 .87.87.881.881 0 0 1-.87.87h-.87v-.035h.012V8.233h.858ZM8.514 3.867h6.968a3.059 3.059 0 0 1 3.047 3.035v.846a.429.429 0 0 0-.011.05v1.366a3.75 3.75 0 0 0-1.666-.676 35.996 35.996 0 0 0-9.707 0 4.33 4.33 0 0 0-1.666.632V7.796a.375.375 0 0 0-.012-.05V6.9a3.06 3.06 0 0 1 3.05-3.034l-.003.001ZM3.738 9.973a.936.936 0 0 1-.87-.87.882.882 0 0 1 .87-.87h.857v1.679c-.016.02-.036.04-.053.06h-.804Zm1.309.774a.334.334 0 0 0 .13-.218c.023-.031.053-.057.076-.089a.505.505 0 0 0 .19-.224 3.109 3.109 0 0 1 1.775-.854 34.939 34.939 0 0 1 9.563 0 3.165 3.165 0 0 1 1.792 1.033c0 .004.006.006.008.01.057.068.122.134.176.208.013.03.031.06.054.084.119.173.22.358.3.551a6.62 6.62 0 0 0-3.566 1.21l-3.255-2.451a.438.438 0 0 0-.58 0l-3.265 2.458c-1.533-.977-2.728-1.27-3.627-1.212.058-.177.135-.347.23-.507h-.001Zm3.913 2.462.883-.675v5.277H8.96v-4.602Zm1.716-1.313.882-.675v6.59h-.882v-5.915Zm1.765-.675.882.675v5.915h-.882v-6.59Zm1.715 1.313.883.675v4.602h-.883v-5.277ZM3.158 15.998c-.435-1.162-.29-2.688.653-3.486a2.069 2.069 0 0 1 1.233-.363 6.19 6.19 0 0 1 3.034 1.081v4.583h-.39a.33.33 0 0 0-.045-.01H5.216a2.39 2.39 0 0 1-2.057-1.806v.001Zm4.05 3.537h-1.74v-.849h1.74v.85Zm9.583 0v-.849h1.74v.85h-1.74Zm4.05-3.545a2.384 2.384 0 0 1-2.086 1.814h-2.399a.342.342 0 0 0-.035.008h-.398v-4.597c1.878-1.159 3.399-1.376 4.269-.722.94.8 1.085 2.33.65 3.496l-.001.001ZM18.543 13a1.298 1.298 0 1 0 1.3 1.299 1.292 1.292 0 0 0-1.299-1.3Zm0 1.732a.432.432 0 1 1 .434-.433.465.465 0 0 1-.433.432Zm-13.088.866a1.299 1.299 0 1 0-.496-.1c.157.064.326.097.497.096v.004Zm0-1.732a.433.433 0 1 1-.433.433.466.466 0 0 1 .434-.435v.002Z" clip-rule="evenodd"/>
</svg>
