<svg xmlns="http://www.w3.org/2000/svg" width="24" height="24" fill="none" viewBox="0 0 24 24">
  <path fill="#000" fill-rule="evenodd" d="M22 13.709a3.243 3.243 0 0 0-1.805-2.92 3.36 3.36 0 0 0-2.024-.436l-.69-4.165A1.343 1.343 0 0 0 16.23 5H7.68a1.407 1.407 0 0 0-1.253 1.188s0 .013-.628 4.168a3.357 3.357 0 0 0-2.062.433 3.214 3.214 0 0 0-1.735 2.99 3.734 3.734 0 0 0 2.487 3.534v1.447a.4.4 0 0 0 .417.415h2.5a.447.447 0 0 0 .416-.415v-1.228h1.69v.428a.4.4 0 0 0 .414.417h4.146a.447.447 0 0 0 .414-.417v-.428h1.69v1.228a.402.402 0 0 0 .417.415h2.5a.448.448 0 0 0 .416-.415v-1.458A3.818 3.818 0 0 0 22 13.709ZM7.264 6.328c.07-.28.279-.49.417-.49h8.549a.466.466 0 0 1 .416.49s0 .012.686 4.134a8.498 8.498 0 0 0-5.318-1.707 8.393 8.393 0 0 0-5.379 1.749l.63-4.176Zm9.295 4.632-3.238 1.985a2.426 2.426 0 0 1-2.638.07L7.39 10.969a8.351 8.351 0 0 1 9.17-.008Zm-9.567 7.386H5.326v-.84c.142.017.285.025.428.026h1.238v.814Zm6.669-.801h-3.317v-1.666h3.317v1.666Zm5.018.801h-1.666v-.813h1.238c.143 0 .286-.01.428-.027v.84Zm.459-1.789a.288.288 0 0 0-.042-.01.402.402 0 0 0-.259.092c-.193.04-.39.06-.586.06h-1.598a.342.342 0 0 0-.054-.013.424.424 0 0 0-.067.013h-2.04v-1.237a.446.446 0 0 0-.414-.416H9.93a.398.398 0 0 0-.414.416v1.237h-2.05a.341.341 0 0 0-.055-.013.425.425 0 0 0-.067.013H5.753a3.05 3.05 0 0 1-.618-.063.392.392 0 0 0-.227-.088.418.418 0 0 0-.062.012 2.892 2.892 0 0 1-2.01-2.78 2.6 2.6 0 0 1 1.32-2.295 2.775 2.775 0 0 1 1.807-.244.6.6 0 0 0 .119.05h.069c.007 0 .012-.003.019-.003.218.063.428.152.624.267l3.471 2.155a3.444 3.444 0 0 0 3.472 0l3.472-2.155c.188-.119.391-.21.605-.272a.672.672 0 0 0 .082.01.5.5 0 0 0 .092-.049 2.73 2.73 0 0 1 1.79.244 2.668 2.668 0 0 1 1.388 2.294 2.942 2.942 0 0 1-2.028 2.774v.001ZM5.314 12.088a1.666 1.666 0 1 0 0 3.333 1.666 1.666 0 0 0 0-3.333Zm0 2.5a.845.845 0 0 1-.833-.834.802.802 0 0 1 .833-.833.844.844 0 0 1 .833.833.897.897 0 0 1-.833.833Zm13.377-2.5a1.666 1.666 0 1 0 0 3.333 1.666 1.666 0 0 0 0-3.333Zm0 2.5a.844.844 0 0 1-.833-.834.8.8 0 0 1 .833-.833.845.845 0 0 1 .833.833.896.896 0 0 1-.833.833Zm-6.689-2.875a.4.4 0 1 1-.422.399.41.41 0 0 1 .422-.4Z" clip-rule="evenodd"/>
</svg>
