<svg xmlns="http://www.w3.org/2000/svg" width="24" height="24" fill="none" viewBox="0 0 24 24">
  <path fill="#000" fill-rule="evenodd" d="m14.403 14.59-1.628-4.086c0-.139-.209-.278-.347-.278H5.769a.47.47 0 0 0-.416.278s0 .003-1.643 4.123l-1.57 1.56a.275.275 0 0 0-.138.276v2.482a.4.4 0 0 0 .417.414h.426v1.273a.4.4 0 0 0 .416.414h2.494a.399.399 0 0 0 .416-.414v-1.273h5.808v1.273a.398.398 0 0 0 .422.414h2.529a.399.399 0 0 0 .422-.414v-1.273h.38a.401.401 0 0 0 .416-.414v-2.482a.52.52 0 0 0-.139-.276l-1.606-1.597ZM5.34 20.218H3.677v-.827H5.34v.827Zm9.169 0h-1.687v-.827h1.687v.827ZM6.047 11.06h6.103l1.313 3.334H4.728l1.319-3.334Zm-3.212 6.66h3.34a.406.406 0 0 0 .418-.423.452.452 0 0 0-.417-.421H2.835v-.207l1.37-1.433h9.669l1.44 1.433v.207h-3.298a.448.448 0 0 0-.413.421.4.4 0 0 0 .413.422h3.298v.812H2.833l.002-.812Zm18.751-6.652H18.39L9.017 3.104a.422.422 0 0 0-.554 0 .514.514 0 0 0 0 .62l9.37 7.964v2.56a.367.367 0 0 0 0 .336v2.754a.367.367 0 0 0 0 .337v2.802a.422.422 0 0 0 .114.5c.07.07.14.07.28.07h3.356A.398.398 0 0 0 22 20.63v-9.146a.448.448 0 0 0-.414-.414v-.002Zm-2.918 3.52 2.5-2.486v1.909l-2.5 2.487v-1.91Zm0 3.091 2.5-2.487v1.957l-2.5 2.487V17.68Zm1.465-5.78-1.465 1.49V11.9h1.465Zm-.857 8.314c.394-.39.99-.985 1.894-1.884v1.884h-1.894Z" clip-rule="evenodd"/>
</svg>
