<svg xmlns="http://www.w3.org/2000/svg" width="24" height="24" fill="none" viewBox="0 0 24 24">
  <path fill="#000" fill-rule="evenodd" d="M22 10.448v-1.69a.403.403 0 0 0-.418-.422H19.08a.382.382 0 0 0-.218.084l-1.036-3.138a.38.38 0 0 0-.415-.28H6.61a.354.354 0 0 0-.346.28L5.217 8.459a.4.4 0 0 0-.3-.123h-2.5A.45.45 0 0 0 2 8.758v1.69a.451.451 0 0 0 .416.422h1.516L2.23 12.574a.439.439 0 0 0-.229.354v3.346a.448.448 0 0 0 .416.417h.429v1.268a.452.452 0 0 0 .417.422h2.5a.404.404 0 0 0 .416-.422V16.69h2.488v.428a.447.447 0 0 0 .416.417h5.833a.4.4 0 0 0 .417-.417v-.428h2.488v1.268a.451.451 0 0 0 .416.422h2.5a.403.403 0 0 0 .416-.422V16.69h.429a.4.4 0 0 0 .417-.417V12.92c0-.122-.003-.192-.069-.257l-1.793-1.794h1.446a.403.403 0 0 0 .418-.422ZM6.96 5.84h10.176l1.381 4.184H5.577L6.96 5.84ZM2.834 9.18H4.5v.845H2.836l-.001-.845Zm0 4.162h2.507v.83H2.835v-.83Zm2.507 4.194H3.676v-.845h1.666v.845Zm9.154-.833H9.497v-1.666h5v1.666Zm5.821.833H18.65v-.845h1.666v.845Zm.476-1.678a.424.424 0 0 0-.06-.012h-2.5a.316.316 0 0 0-.048.012H15.33v-1.239a.401.401 0 0 0-.417-.416H9.08a.448.448 0 0 0-.416.417v1.238H5.818a.42.42 0 0 0-.059-.012h-2.5a.327.327 0 0 0-.049.012h-.381V15h2.926a.402.402 0 0 0 .418-.415v-1.658a.4.4 0 0 0-.418-.415H3.411l1.694-1.643h13.842l1.643 1.643h-2.36a.448.448 0 0 0-.417.415v1.658a.448.448 0 0 0 .418.415h2.926v.857h-.364Zm.367-2.516v.83h-2.507v-.83h2.507Zm0-3.317h-1.666V9.18h1.666v.845Zm-8.743 2.066v.845a.406.406 0 0 1-.423.422.455.455 0 0 1-.422-.422v-.845a.455.455 0 0 1 .422-.423.405.405 0 0 1 .429.423h-.006Z" clip-rule="evenodd"/>
</svg>
