<svg xmlns="http://www.w3.org/2000/svg" width="24" height="24" fill="none" viewBox="0 0 24 24">
  <path fill="#000" fill-rule="evenodd" d="M12.82 13.24a.407.407 0 0 1-.424.425h-.422v.422a.405.405 0 0 1-.421.424.454.454 0 0 1-.425-.424v-.422h-.421a.424.424 0 0 1 0-.843h.421V12.4a.454.454 0 0 1 .425-.424.403.403 0 0 1 .395.26c.02.052.03.108.026.164v.422h.422a.407.407 0 0 1 .424.419Zm9.133-.003v8.345a.397.397 0 0 1-.252.39.4.4 0 0 1-.162.028h-8.315a.448.448 0 0 1-.415-.417v-3.335a.8.8 0 0 0-.832-.834.843.843 0 0 0-.832.834v3.335a.4.4 0 0 1-.415.417H2.418A.448.448 0 0 1 2 21.582v-8.347a.45.45 0 0 1 .418-.417h2.504a.4.4 0 0 1 .418.418v1.251h.987l.591-4.151h-.77a1.692 1.692 0 0 1-1.665-1.67V5.74a.448.448 0 0 1 .416-.417h1.665a.4.4 0 0 1 .417.417v.418c0 .418.278.836.625.836.346 0 .624-.418.624-.836V5.74a.448.448 0 0 1 .416-.417h1.666a.4.4 0 0 1 .416.417v.418a.817.817 0 0 0 .406.637v-4.38a.356.356 0 0 1 .032-.134c.002-.006 0-.012.004-.017A.584.584 0 0 1 11.55 2h.552l1.66.424a.46.46 0 0 1 0 .843l-1.66.424h-.125V6.98a.96.96 0 0 0 .833-.815v-.418a.448.448 0 0 1 .416-.417h1.666a.4.4 0 0 1 .416.417v.418a.897.897 0 0 0 .833.835.845.845 0 0 0 .832-.835v-.418a.448.448 0 0 1 .417-.417h1.665a.4.4 0 0 1 .417.417V8.67a1.692 1.692 0 0 1-1.666 1.67h-.77l.592 4.152h1.004V13.24a.447.447 0 0 1 .415-.417h2.493a.398.398 0 0 1 .413.412v.002ZM6.15 9.5h1.212a.395.395 0 0 1 .044-.007h9.145c.016 0 .03.006.047.007h1.208a.848.848 0 0 0 .834-.835V6.16h-.834a1.665 1.665 0 1 1-3.33 0h-.833a1.789 1.789 0 0 1-1.874 1.671c-.022 0-.041-.005-.063-.006a.451.451 0 0 1-.15.03.387.387 0 0 1-.2-.069 1.735 1.735 0 0 1-1.46-1.626h-.833a1.47 1.47 0 1 1-2.914 0h-.833v2.506a.897.897 0 0 0 .832.835h.002ZM2.837 21.165h2.54l.832-5.842H4.924a.449.449 0 0 1-.418-.417v-1.252h-1.67v7.511Zm14.892 0-1.523-10.83H7.751l-1.523 10.83h4.088v-2.917a1.664 1.664 0 1 1 3.326 0v2.917h4.087Zm3.394-7.512h-1.662v1.252a.4.4 0 0 1-.414.417h-1.301l.832 5.842h2.546v-7.511Z" clip-rule="evenodd"/>
</svg>
