<svg xmlns="http://www.w3.org/2000/svg" width="24" height="24" fill="none" viewBox="0 0 24 24">
  <path fill="#000" fill-rule="evenodd" d="M11.91 2.832c-4.024 0-7.078 3.195-7.078 7.499 0 4.93 5.83 9.723 7.079 10.695 1.249-.972 7.078-5.764 7.078-10.695 0-4.304-3.054-7.499-7.078-7.499Zm0 19.168c-.069 0-.138-.07-.207-.07C11.354 21.654 4 16.305 4 10.335 4 5.542 7.4 2 11.911 2c4.51 0 7.911 3.542 7.911 8.334 0 5.972-7.355 11.32-7.633 11.598-.07-.001-.21.068-.278.068Zm-2.1-8.873a.36.36 0 0 1-.279-.14l-2.085-2.083a.393.393 0 1 1 .556-.556l1.807 1.736 5.35-5.557a.439.439 0 0 1 .625-.07.52.52 0 0 1 0 .626l-5.698 5.905a.36.36 0 0 1-.276.139Z" clip-rule="evenodd"/>
</svg>
