<svg xmlns="http://www.w3.org/2000/svg" width="24" height="24" fill="none" viewBox="0 0 24 24">
  <path fill="#000" fill-rule="evenodd" d="M12 5.331a2.526 2.526 0 0 0-2.5 2.483 2.5 2.5 0 0 0 5 0A2.525 2.525 0 0 0 12 5.33Zm0 5.793A3.323 3.323 0 0 1 8.667 7.81 3.368 3.368 0 0 1 12 4.501a3.323 3.323 0 0 1 3.334 3.31A3.28 3.28 0 0 1 12 11.122v.002Zm.013-8.322A5.34 5.34 0 0 0 6.73 8.149c0 2.571 4.1 9.097 5.282 11.043 1.25-1.945 5.35-8.473 5.35-11.043a5.396 5.396 0 0 0-5.348-5.347h-.002Zm0 17.57a.382.382 0 0 1-.347-.208c-.208-.346-5.768-8.82-5.768-12.014a6.15 6.15 0 0 1 12.301 0c0 3.195-5.56 11.668-5.837 12.014a.382.382 0 0 1-.347.208h-.002Zm9.154-.41L12 21.97c-.972 0-10 0-10-2.077 0-.9 1.944-1.522 5.764-1.868a.463.463 0 0 1 .486.346c0 .277-.139.484-.417.484-3.541.277-4.722.83-4.93 1.038.346.484 3.609 1.245 9.097 1.245 5.488 0 8.75-.76 9.167-1.245-.209-.207-1.459-.761-5-1.038-.278 0-.417-.207-.417-.484a.462.462 0 0 1 .486-.346c3.82.346 5.764.968 5.764 1.868.003 2.077-8.956 2.077-10 2.077l9.167-2.007Z" clip-rule="evenodd"/>
</svg>
