<svg xmlns="http://www.w3.org/2000/svg" width="24" height="24" fill="none" viewBox="0 0 24 24">
  <path fill="#000" fill-rule="evenodd" d="M12.487 2.833A6.663 6.663 0 0 0 5.831 9.5a6.746 6.746 0 0 0 5.27 6.528.298.298 0 0 1 .277.278l1.11 3.75 1.04-3.75a.46.46 0 0 1 .346-.278 6.746 6.746 0 0 0 5.27-6.528 6.663 6.663 0 0 0-6.657-6.667Zm0 19.167a.44.44 0 0 1-.416-.347l-1.385-4.93A7.47 7.47 0 0 1 12.49 2a7.507 7.507 0 0 1 7.488 7.498 7.426 7.426 0 0 1-5.683 7.222l-1.385 4.93a.44.44 0 0 1-.422.35Zm-2.163-9.718a.528.528 0 0 1-.278-.139l-2.09-2.084a.422.422 0 0 1 0-.556.391.391 0 0 1 .626 0l1.742 1.737 5.364-5.557a.448.448 0 0 1 .627-.07.52.52 0 0 1 0 .626l-5.643 5.904a.534.534 0 0 1-.35.139h.002Z" clip-rule="evenodd"/>
</svg>
