<svg xmlns="http://www.w3.org/2000/svg" width="24" height="24" fill="none" viewBox="0 0 24 24">
  <path fill="#000" fill-rule="evenodd" d="M11.828 8.667a1.973 1.973 0 1 0-2.019-2.006 2.014 2.014 0 0 0 2.019 2.006Zm0-3.115A1.157 1.157 0 0 1 13.01 6.66a1.183 1.183 0 1 1-2.367 0 1.157 1.157 0 0 1 1.184-1.107Zm7.55 5.247a.413.413 0 0 0 .009-.044.325.325 0 0 0-.024-.099l-.517-4.906a.448.448 0 0 0-.417-.417h-2.152a4.637 4.637 0 0 0-8.899 0H5.086a.448.448 0 0 0-.417.417l-.517 4.907a.318.318 0 0 0-.024.099c.002.015.005.03.01.044L3 21.583c0 .14 0 .208.139.278.07.139.14.139.278.139h16.679c.139 0 .208 0 .278-.139.139-.07.139-.139.139-.278L19.377 10.8ZM8.36 16.178c.087-1.327.198-2.975.33-5.024h.463a32.82 32.82 0 0 0 2.396 3.195c.07.139.139.139.278.139s.277 0 .346-.14c.072-.108 1.236-1.517 2.334-3.194h.513l.303 5.024H8.36Zm7.014.845c.072 1.19.154 2.564.247 4.143H8.033l.273-4.143h7.07Zm-10.45-5.87h2.94c-.07 1.05-.174 2.636-.33 5.024H4.413l.512-5.023Zm10.923 0h2.742l.512 5.024H16.15c-.081-1.322-.18-2.97-.302-5.023Zm2.233-4.988.427 4.19H15.8l-.076-1.273-.003-.005c.423-.747.68-1.575.756-2.43 0-.16-.01-.322-.027-.482h1.632Zm-6.253-3.334a3.849 3.849 0 0 1 3.815 3.816c0 1.665-2.497 5.134-3.815 6.8-1.318-1.666-3.816-5.135-3.816-6.8a3.85 3.85 0 0 1 3.816-3.814V2.83ZM5.433 6.165h1.773c-.017.16-.026.321-.026.482.083.897.36 1.765.814 2.543l-.077 1.165h-2.91l.426-4.188v-.002ZM4.327 17.022h3.152l-.272 4.144h-3.3l.42-4.142v-.002Zm12.123 4.144-.25-4.144h2.988l.422 4.144h-3.16Z" clip-rule="evenodd"/>
</svg>
