<svg xmlns="http://www.w3.org/2000/svg" width="24" height="24" fill="none" viewBox="0 0 24 24">
  <path fill="#000" fill-rule="evenodd" d="M12.097 7.855c-2.916 0-5.141 2.357-5.141 5.477 0 3.536 4.098 6.933 5.141 7.765 1.042-.832 5.07-4.23 5.07-7.765 0-3.119-2.153-5.477-5.07-5.477Zm0 14.143c-.139 0-.208 0-.278-.07-.208-.138-5.695-4.16-5.695-8.596 0-3.605 2.57-6.309 5.973-6.309s5.904 2.704 5.904 6.309c0 4.437-5.418 8.458-5.696 8.597a.255.255 0 0 1-.208.069Zm-.011-11.654a2.534 2.534 0 0 0-2.5 2.5 2.489 2.489 0 0 0 2.5 2.5 2.534 2.534 0 0 0 2.5-2.5 2.583 2.583 0 0 0-2.5-2.5Zm0 5.834a3.29 3.29 0 0 1-3.333-3.334 3.334 3.334 0 0 1 3.333-3.332 3.38 3.38 0 0 1 3.333 3.332 3.335 3.335 0 0 1-3.333 3.333Zm0-10.844a.403.403 0 0 1-.422-.417v-2.5A.402.402 0 0 1 12.086 2a.452.452 0 0 1 .422.417v2.5a.452.452 0 0 1-.422.416Zm3.7.89h-.138a.561.561 0 0 1-.207-.625l1.17-2.15a.46.46 0 0 1 .551-.207.466.466 0 0 1 .207.554l-1.17 2.22a.415.415 0 0 1-.413.21v-.002Zm2.892 2.582a.534.534 0 0 1-.35-.14.442.442 0 0 1 .07-.627l2.096-1.394a.378.378 0 0 1 .56.14.421.421 0 0 1-.07.557l-2.096 1.394a.257.257 0 0 1-.21.071v-.001ZM8.323 6.224a.373.373 0 0 1-.34-.208l-1.16-2.22a.378.378 0 0 1 .137-.554.426.426 0 0 1 .544.207L8.662 5.6a.457.457 0 0 1-.136.625h-.203ZM5.498 8.806a.415.415 0 0 1-.278-.07L3.21 7.342a.378.378 0 0 1-.14-.558.383.383 0 0 1 .555-.14l2.08 1.395a.456.456 0 0 1 .14.627.53.53 0 0 1-.347.141v-.001Z" clip-rule="evenodd"/>
</svg>
