<svg xmlns="http://www.w3.org/2000/svg" width="24" height="24" fill="none" viewBox="0 0 24 24">
  <path fill="#000" fill-rule="evenodd" d="M12 2a10 10 0 1 0 10 10A10.048 10.048 0 0 0 12 2Zm9.14 9.492-6.347-1.073 1.293-1.901a.362.362 0 0 0-.07-.556.428.428 0 0 0-.486-.07l-1.95 1.301-1.071-6.332a9.141 9.141 0 0 1 8.632 8.631Zm-9.944 2.774.79-.54.815.544-.803 4.817c.002 0 .001-.004-.802-4.821Zm1.07-1.373c-.07 0-.208-.07-.277-.07-.07 0-.14.07-.209.07l-2.014 1.39 1.32-2.014a.337.337 0 0 0 0-.487l-1.32-2.014 2.014 1.32a.337.337 0 0 0 .487 0l2.014-1.32-1.39 2.014a.596.596 0 0 0 0 .486l1.39 2.014-2.014-1.389Zm-2.014-.902-.54.81-4.728-.8 4.732-.8.536.79ZM12.8 9.713l-.811.544-.791-.537c.073-.445.271-1.632.8-4.801.002-.002.003.001.803 4.793H12.8Zm.925 2.278.539-.791 4.821.804-4.817.803c-.167-.253-.344-.518-.543-.816ZM11.49 2.86l-1.07 6.328-1.904-1.295a.456.456 0 0 0-.625.625l1.295 1.904-6.328 1.07A9.141 9.141 0 0 1 11.49 2.86Zm-8.63 9.65 6.332 1.07-1.3 1.951a.427.427 0 0 0 .07.486.363.363 0 0 0 .555.07l1.901-1.293 1.073 6.348A9.141 9.141 0 0 1 2.86 12.51Zm9.65 8.632 1.074-6.353 1.947 1.298a.257.257 0 0 0 .21.07c.138 0 .207 0 .277-.14a.297.297 0 0 0 .07-.486l-1.3-1.947 6.354-1.074a9.141 9.141 0 0 1-8.632 8.632Z" clip-rule="evenodd"/>
</svg>
