<svg xmlns="http://www.w3.org/2000/svg" width="24" height="24" fill="none" viewBox="0 0 24 24">
  <path fill="#000" fill-rule="evenodd" d="M12 2a10 10 0 1 0 10 10A10.048 10.048 0 0 0 12 2Zm0 19.166A9.166 9.166 0 1 1 21.166 12 9.203 9.203 0 0 1 12 21.168v-.002Zm4.868-14.495-6.95 2.852c-.019 0-.037-.011-.055-.011a.65.65 0 0 0-.107.073.223.223 0 0 0-.166.198l-.005.008-2.916 7.056c-.07.139-.07.346.069.416a.277.277 0 0 0 .278.138h.208l7.079-2.906c.032-.016.05-.046.073-.069a.34.34 0 0 0 .034-.032.403.403 0 0 0 .053-.06c.015-.018.03-.037.044-.049l2.917-7.057a.564.564 0 0 0-.07-.484.428.428 0 0 0-.483-.072l-.003-.002Zm-9.087 9.552 2.36-5.537 3.263 3.252-5.623 2.285Zm6.193-2.89-3.241-3.23-.042-.043 5.553-2.283-2.27 5.556Z" clip-rule="evenodd"/>
</svg>
