<svg xmlns="http://www.w3.org/2000/svg" width="24" height="24" fill="none" viewBox="0 0 24 24">
  <path fill="#000" fill-rule="evenodd" d="M22 21.56a.402.402 0 0 1-.417.426H2.42a.372.372 0 0 1-.417-.425.402.402 0 0 1 .417-.425h19.162a.45.45 0 0 1 .416.425ZM2.003 19.919a.403.403 0 0 1 .417-.425h1.226v-1.268a.403.403 0 0 1 .418-.425h.425V9.493H3.263a.367.367 0 0 1-.416-.415V7.62a.35.35 0 0 1 .09-.463.372.372 0 0 1 .176-.123l8.666-4.981a.439.439 0 0 1 .416 0l8.667 4.981a.446.446 0 0 1 .29.386v1.658a.398.398 0 0 1-.416.415H19.51V17.8h.425a.452.452 0 0 1 .418.425v1.268h1.226a.452.452 0 0 1 .417.425.402.402 0 0 1-.417.425H2.416a.373.373 0 0 1-.412-.425ZM18.68 9.498h-.856v8.308h.856V9.498Zm-9.163 0v8.308h.845V9.498h-.845Zm1.642 8.308h1.69V9.498h-1.69v8.308Zm2.535 0h.796V9.498h-.796v8.308Zm1.643 0h1.69V9.498h-1.69v8.308ZM6.98 9.498v8.308h1.69V9.498H6.98ZM4.78 7.01h14.35l-7.14-4.114L4.78 7.01ZM3.684 8.67H4.83a.42.42 0 0 1 .08-.016h14.186a.338.338 0 0 1 .067.016h1.161v-.814H3.683v.814Zm1.646 9.137h.855V9.498H5.33v8.308Zm-.844 1.69h15.039v-.845H4.484v.845Z" clip-rule="evenodd"/>
</svg>
