<svg xmlns="http://www.w3.org/2000/svg" width="24" height="24" fill="none" viewBox="0 0 24 24">
  <path fill="#000" fill-rule="evenodd" d="M11.803 5.498h2.274a.4.4 0 1 0 0-.8h-.43V3.417a.393.393 0 0 0-.4-.416.44.44 0 0 0-.4.416v1.28h-.85v-1.28a.404.404 0 0 0-.424-.416.451.451 0 0 0-.423.416v1.28H5.305v-1.28a.404.404 0 0 0-.427-.416.452.452 0 0 0-.424.416v1.28h-.849v-1.28a.393.393 0 0 0-.4-.416.44.44 0 0 0-.4.416v1.28H2.42a.4.4 0 1 0 0 .801h2.274L7.8 9.385V21.01a.454.454 0 0 0 .425.42.406.406 0 0 0 .427-.42V9.445l3.15-3.947Zm-5.977 0h4.896l-2.505 3.08-2.391-3.08Zm15.796 5.044h-.43v-.424a.399.399 0 0 0-.401-.427.443.443 0 0 0-.4.427v.424h-1.128a.496.496 0 0 0-.303 0h-4.464v-.424a.408.408 0 0 0-.425-.427.456.456 0 0 0-.423.427v.424h-.8v-.424a.407.407 0 0 0-.425-.427.456.456 0 0 0-.427.427v.424h-.336a.427.427 0 0 0 0 .848h2.304l2.227 2.989v6.632a.453.453 0 0 0 .424.42.404.404 0 0 0 .427-.42V14.38l2.227-2.989h2.352a.427.427 0 0 0 0-.848h.001Zm-5.038 3.07-1.576-2.222h3.206l-1.63 2.222Z" clip-rule="evenodd"/>
</svg>
