<svg xmlns="http://www.w3.org/2000/svg" width="24" height="24" fill="none" viewBox="0 0 24 24">
  <path fill="#000" fill-rule="evenodd" d="M7.303 15.3a1.662 1.662 0 1 0-1.663-1.662A1.685 1.685 0 0 0 7.303 15.3Zm0-2.494a.831.831 0 1 1-.831.832.803.803 0 0 1 .831-.83v-.002ZM19.37 11.18a.45.45 0 0 0 .415-.421V9.072a.45.45 0 0 0-.415-.422h-1.248A7.067 7.067 0 0 0 4 9.068v12.515a.447.447 0 0 0 .416.417h13.312a.447.447 0 0 0 .416-.417v-2.909h1.224a.45.45 0 0 0 .415-.42v-1.687a.45.45 0 0 0-.415-.421h-1.224V11.18l1.225-.002Zm-.415-.843h-.809v-.843h.809v.843Zm-4.977 7.494h-2.482v-.844h2.482v.844Zm.843-.844h2.494v.844H14.82v-.844ZM11.495 2.853a6.21 6.21 0 0 1 2.482.692V8.65h-2.482V2.853Zm-.843 5.797H8.17V3.545a6.23 6.23 0 0 1 2.482-.692l.001 5.797Zm0 .843v.843H4.834v-.843h5.818Zm0 1.686v4.965H4.834v-4.965h5.818Zm-5.818 5.807h5.818v.844H4.834v-.844Zm5.818 1.686v2.493H8.17v-2.493h2.483Zm.843 0h2.482v2.493h-2.482v-2.493Zm0-2.528v-4.965h2.482v4.965h-2.482Zm0-5.808v-.843h2.482v.843h-2.482Zm3.325-.843h2.494v.843H14.82v-.843Zm2.472-.843H14.82V4.08a6.214 6.214 0 0 1 2.471 4.57ZM7.327 4.08v4.57H4.855a6.212 6.212 0 0 1 2.471-4.57ZM4.834 18.672h2.493v2.493H4.834v-2.493Zm12.48 2.493H14.82v-2.493h2.494v2.493Zm1.64-4.179v.844h-.808v-.844h.808Zm-1.64-.842H14.82v-4.965h2.494v4.965Z" clip-rule="evenodd"/>
</svg>
