<svg xmlns="http://www.w3.org/2000/svg" width="24" height="24" fill="none" viewBox="0 0 24 24">
  <path fill="#000" fill-rule="evenodd" d="M3.266 5.333A1.679 1.679 0 0 0 4.92 6.977h1.242a1.602 1.602 0 0 1 2.513 0h1.242a1.635 1.635 0 0 0 1.655-1.644.375.375 0 0 0 .422-.422v-.845a.404.404 0 0 0-.422-.423.36.36 0 0 0-.145.034A2.467 2.467 0 0 0 9.087 2H7.433l-.013.003c-.004 0-.01-.003-.017-.003H5.75a2.525 2.525 0 0 0-2.33 1.673.439.439 0 0 0-.153-.03.454.454 0 0 0-.423.423v.845a.406.406 0 0 0 .422.422ZM7.849 2.83h1.242a1.637 1.637 0 0 1 1.656 1.658v.83a.798.798 0 0 1-.828.829H8.677c-.207 0-.828 0-.828-1.244V2.83ZM4.095 4.488A1.68 1.68 0 0 1 5.75 2.83h1.241v2.073c0 1.244-.62 1.244-.827 1.244H4.923a.84.84 0 0 1-.828-.83v-.829Zm17.058 7.934a2.892 2.892 0 0 0-1.643-2.625v-1.56a.397.397 0 0 0-.415-.414h-.483a2.145 2.145 0 0 0-2.029-1.643h-.833c-1.945 0-2.917 1.11-2.916 3.33v6.453c0 3.468-1.598 5.203-4.792 5.203a5.198 5.198 0 0 1-5.208-5.203v-3.122A2.935 2.935 0 0 1 5.41 9.949 1.688 1.688 0 0 0 7 11.156a1.666 1.666 0 0 0 0-3.333 1.692 1.692 0 0 0-1.617 1.29A3.78 3.78 0 0 0 2 12.84v3.122A6.044 6.044 0 0 0 8.041 22c3.68 0 5.624-2.151 5.624-6.037V9.51c0-2.151 1.042-2.497 2.084-2.497h.833a1.302 1.302 0 0 1 1.159.81h-.304a.445.445 0 0 0-.415.414V9.79a2.93 2.93 0 0 0-1.69 2.633v7.911a1.686 1.686 0 0 0 1.663 1.663h2.494a1.641 1.641 0 0 0 1.663-1.663v-7.912ZM6.999 8.654a.844.844 0 0 1 .833.834.804.804 0 0 1-.833.833.844.844 0 0 1-.833-.833.896.896 0 0 1 .831-.834H7Zm9.164 10.856v-6.666h4.158v6.668l-4.158-.002ZM18.68 9.48h-.83v-.828h.248a.458.458 0 0 0 .15.025.605.605 0 0 0 .179-.025h.253v.829Zm-.438.865A2.083 2.083 0 0 1 20.274 12H16.21a2.142 2.142 0 0 1 2.031-1.66l.002.005Zm1.247 10.822h-2.494a.843.843 0 0 1-.83-.81h4.154a.798.798 0 0 1-.831.809h.001Z" clip-rule="evenodd"/>
</svg>
