<svg xmlns="http://www.w3.org/2000/svg" width="24" height="24" fill="none" viewBox="0 0 24 24">
  <path fill="#000" fill-rule="evenodd" d="M11.656 2.818a5.865 5.865 0 0 0-5.824 5.838c0 2.85 4.578 10.077 5.824 12.163 1.318-2.085 5.824-9.313 5.824-12.163a5.822 5.822 0 0 0-5.824-5.838Zm0 19.182c-.139 0-.208-.07-.346-.208C11.102 21.444 5 12.2 5 8.656a6.656 6.656 0 1 1 13.313 0c0 3.545-6.032 12.788-6.31 13.136a.382.382 0 0 1-.347.208Zm.012-12.53c.14 0 .21 0 .28.07l.974.763-.348-1.11a.43.43 0 0 1 .14-.486l1.114-.902h-1.324a.462.462 0 0 1-.348-.278l-.488-1.11-.417 1.11a.47.47 0 0 1-.419.278H9.578l1.115.902a.43.43 0 0 1 .14.485l-.35 1.11.976-.762a.255.255 0 0 1 .21-.07Zm2.09 2.498c-.07 0-.139-.069-.209-.069l-1.88-1.457L9.855 11.9a.6.6 0 0 1-.488 0 .46.46 0 0 1-.139-.486l.697-2.22-1.812-1.457a.458.458 0 0 1-.14-.486.355.355 0 0 1 .349-.278h2.23l.766-1.804a.355.355 0 0 1 .348-.277.382.382 0 0 1 .418.277l.766 1.804h2.16a.381.381 0 0 1 .418.278.457.457 0 0 1-.14.486l-1.88 1.457.766 2.22a.46.46 0 0 1-.14.486c-.067 0-.137.07-.277.07Z" clip-rule="evenodd"/>
</svg>
