<svg xmlns="http://www.w3.org/2000/svg" width="24" height="24" fill="none" viewBox="0 0 24 24">
  <path fill="#000" fill-rule="evenodd" d="M11.904 11.164c.139 0 .209 0 .278.07l1.525 1.25-.555-2.086a.993.993 0 0 1 .138-.417l1.666-1.321h-2.013c-.138 0-.346-.14-.346-.279l-.694-1.808-.624 1.808a.469.469 0 0 1-.417.279H8.92l1.595 1.32c.139.14.209.28.139.418l-.486 2.087 1.458-1.252a.524.524 0 0 1 .278-.07Zm2.498 2.92c-.07 0-.139-.07-.277-.139l-2.22-1.808-2.22 1.808a.43.43 0 0 1-.486.07.541.541 0 0 1-.208-.487l.832-3.06L7.464 8.52c-.139-.07-.139-.279-.07-.418 0-.209.21-.278.348-.278h2.844l.971-2.643c0-.208.209-.278.347-.278a.381.381 0 0 1 .417.278l.902 2.643h2.844a.381.381 0 0 1 .416.278.334.334 0 0 1-.139.418l-2.289 1.947.762 3.06a.36.36 0 0 1-.208.487.256.256 0 0 1-.207.07Zm-2.486-11.25c-4.027 0-7.083 3.192-7.083 7.5 0 4.93 5.833 9.72 7.083 10.694 1.319-.973 7.082-5.765 7.082-10.694.001-4.305-3.055-7.5-7.082-7.5Zm0 19.166c-.07 0-.14-.07-.209-.07C11.36 21.654 4 16.307 4 10.335 4 5.542 7.402 2 11.916 2c4.513 0 7.915 3.542 7.915 8.334 0 5.972-7.36 11.32-7.637 11.597-.07 0-.209.069-.278.069Z" clip-rule="evenodd"/>
</svg>
