<svg xmlns="http://www.w3.org/2000/svg" width="24" height="24" fill="none" viewBox="0 0 24 24">
  <path fill="#000" fill-rule="evenodd" d="M12.471 10.772a.419.419 0 0 1 .277.069l1.523 1.244-.554-2.073c0-.139 0-.277.138-.346l1.802-1.796h-2.148c-.138 0-.346-.139-.346-.277l-.693-1.589-.623 1.59a.57.57 0 0 1-.416.276H9.352l1.732 1.796c.139.07.139.207.139.346l-.554 2.072 1.522-1.243a.418.418 0 0 1 .28-.07Zm2.494 2.902a.523.523 0 0 1-.277-.138l-2.217-1.796-2.217 1.796a.429.429 0 0 1-.485.07.537.537 0 0 1-.208-.484l.762-3.04-2.284-2.35a.506.506 0 0 1-.139-.415.431.431 0 0 1 .416-.276h2.84l.97-2.211c0-.207.209-.277.347-.277a.432.432 0 0 1 .416.277l.9 2.21h2.841a.428.428 0 0 1 .416.277c.069.139 0 .277-.139.415l-2.284 2.35.761 3.04a.537.537 0 0 1-.207.483.256.256 0 0 1-.212.069ZM12.46 2.86a6.646 6.646 0 0 0-6.632 6.657 6.733 6.733 0 0 0 5.25 6.52.459.459 0 0 1 .346.277l1.036 3.745 1.036-3.745a.46.46 0 0 1 .345-.278 6.733 6.733 0 0 0 5.25-6.519 6.646 6.646 0 0 0-6.63-6.658Zm0 19.14a.438.438 0 0 1-.414-.346l-1.38-4.854A7.552 7.552 0 0 1 5 9.52a7.46 7.46 0 1 1 14.921 0 7.553 7.553 0 0 1-5.662 7.28l-1.38 4.854a.439.439 0 0 1-.42.346Z" clip-rule="evenodd"/>
</svg>
