<svg xmlns="http://www.w3.org/2000/svg" width="24" height="24" fill="none" viewBox="0 0 24 24">
  <path fill="#000" fill-rule="evenodd" d="m21.86 7.016-2.51-2.49a.427.427 0 0 0-.557 0l-2.51 2.49a.526.526 0 0 0-.138.277v1.215h-.843V7.287a.524.524 0 0 0-.14-.277l-2.909-2.906a.423.423 0 0 0-.554 0L8.789 7.01a.523.523 0 0 0-.138.277v1.221h-.797V7.293a.523.523 0 0 0-.139-.277l-2.51-2.49a.427.427 0 0 0-.556 0L2.14 7.016a.524.524 0 0 0-.14.277v11.62a.4.4 0 0 0 .418.415h5.019a.4.4 0 0 0 .418-.414v-2.068h.796v2.067a.4.4 0 0 0 .416.415h5.82a.4.4 0 0 0 .415-.415v-2.067h.843v2.068a.4.4 0 0 0 .418.414h5.018a.401.401 0 0 0 .419-.414V7.294a.525.525 0 0 0-.14-.278ZM2.835 18.5v-11l2.09-2.076L7.018 7.5v1.401c0 .01-.006.019-.006.03 0 .01.006.02.006.033v7.43c0 .01-.006.02-.006.03 0 .01.006.022.006.035v2.039H2.836Zm5.018-2.496v-6.65h.796v6.65h-.796Zm6.616 2.495H9.482v-2.013a.43.43 0 0 0 .011-.06.368.368 0 0 0-.011-.05V8.99a.42.42 0 0 0 .011-.06.376.376 0 0 0-.011-.05V7.496l2.493-2.491 2.495 2.491v11.001Zm.831-2.495v-6.65h.843v6.65H15.3Zm5.861 2.496h-4.18v-2.04a.376.376 0 0 0 .007-.035.281.281 0 0 0-.007-.029v-7.43a.365.365 0 0 0 .007-.034.258.258 0 0 0-.007-.029V7.501l2.09-2.076L21.165 7.5l-.002 10.998Z" clip-rule="evenodd"/>
</svg>
