<svg xmlns="http://www.w3.org/2000/svg" width="24" height="24" fill="none" viewBox="0 0 24 24">
  <path fill="#000" fill-rule="evenodd" d="M14.007 22H4.862a.448.448 0 0 1-.415-.418v-4.176a.448.448 0 0 1 .415-.418.399.399 0 0 1 .416.418v3.758h8.314v-3.758a.449.449 0 0 1 .415-.418.4.4 0 0 1 .416.418v4.176a.4.4 0 0 1-.416.418Zm2.784-4.75a.367.367 0 0 0 .07-.554L9.792 8.812a.39.39 0 0 0-.622 0l-7.067 7.884a.42.42 0 0 0 0 .553.44.44 0 0 0 .622 0l6.721-7.538 6.79 7.538a.526.526 0 0 0 .277.138.362.362 0 0 0 .277-.138Zm-8.188-3.6h1.663v1.663H8.603V13.65Zm2.495 2.078v-2.494a.4.4 0 0 0-.416-.415H8.188a.446.446 0 0 0-.416.415v2.494a.447.447 0 0 0 .416.416h2.494a.399.399 0 0 0 .415-.416Zm6.44-.474c4.285-1.873 3.594-7.703 3.525-7.98 0-.14-.07-.278-.207-.278a.434.434 0 0 0-.415 0c-.07.07-1.728 1.388-3.456.971.069-.902.276-3.331 1.52-5.343a.44.44 0 0 0 0-.417A.382.382 0 0 0 18.16 2c-1.797 0-4.493 1.041-5.806 2.776a3.771 3.771 0 0 0-.899 2.568c-1.037-.416-2.074-2.082-2.42-2.776a1.51 1.51 0 0 0-.345-.208.527.527 0 0 0-.346.139c-.069.138-2.212 2.429-1.313 4.72a.366.366 0 0 0 .553.207.359.359 0 0 0 .208-.485c-.484-1.32.345-2.707.829-3.401.553.971 1.867 2.776 3.318 2.776a.526.526 0 0 0 .346-.139.46.46 0 0 0 .069-.416 2.888 2.888 0 0 1 .622-2.499c.968-1.25 2.903-2.151 4.423-2.36a13.146 13.146 0 0 0-1.244 5.344.384.384 0 0 0 .276.417c1.52.555 3.041-.07 3.871-.555.07 1.526-.207 5.135-3.111 6.384a.438.438 0 0 0-.207.555.38.38 0 0 0 .345.208h.209Z" clip-rule="evenodd"/>
</svg>
