<svg xmlns="http://www.w3.org/2000/svg" width="24" height="24" fill="none" viewBox="0 0 24 24">
  <path fill="#000" d="M21.908 4.142c-.07-.14-.208-.14-.348-.14H2.375a.278.278 0 0 0-.278.14.306.306 0 0 0-.07.348l.833 3.342a.373.373 0 0 0 .348.348h.417v12.113a.449.449 0 0 0 .417.418h15.846a.4.4 0 0 0 .417-.418V8.179h.417a.39.39 0 0 0 .417-.349l.833-3.342a.307.307 0 0 0-.064-.346ZM6.128 8.18v1.69H4.462V8.18h1.666Zm13.347 0v1.69H17.81V8.18h1.666Zm-1.666 7.51h1.666v1.69H17.81v-1.69Zm0-.845v-1.643h1.666v1.643H17.81Zm0-2.487v-1.69h1.666v1.69H17.81Zm-.833-4.178v11.688h-3.469a3.73 3.73 0 0 0 2.207-3.421 6.396 6.396 0 0 0-4.852-6.18.358.358 0 0 0-.486.209.399.399 0 0 0 .14.486 2.88 2.88 0 0 1 .9 3.124.926.926 0 0 1-.207-.555 1.518 1.518 0 0 0-.209-.348.441.441 0 0 0-.415 0 3.353 3.353 0 0 0-2.287 3.264 3.752 3.752 0 0 0 2.178 3.42h-3.51V8.18h10.01Zm-4.936 3.407a5.752 5.752 0 0 1 2.842 4.86 2.931 2.931 0 0 1-2.911 2.916 2.872 2.872 0 0 1-2.842-2.916 2.458 2.458 0 0 1 1.389-2.291c.177.398.466.736.833.971.081.056.18.08.277.07.14 0 .278-.07.278-.208a3.627 3.627 0 0 0 .13-3.402h.004Zm-7.577-.92H6.13v1.69H4.463v-1.69Zm0 2.535H6.13v1.643H4.463v-1.643Zm0 2.488H6.13v1.69H4.463v-1.69Zm0 4.187v-1.7H6.13v1.7H4.463Zm13.347 0v-1.7h1.666v1.7H17.81Zm2.642-12.533h-.56v-.01h-3.333v.01H6.983v-.01H3.651v.01H3.56l-.626-2.507h18.143l-.626 2.507Z"/>
</svg>
