<svg xmlns="http://www.w3.org/2000/svg" width="24" height="24" fill="none" viewBox="0 0 24 24">
  <path fill="#000" fill-rule="evenodd" d="M20.332 18.669h-.771a2.777 2.777 0 0 0 .794-1.94 2.904 2.904 0 0 0-2.084-2.716l-1.066-.264 1.46-9.665a2.082 2.082 0 0 0-2.073-2.08h-2.488a.367.367 0 0 0-.415.416.399.399 0 0 0 .415.416h2.488a1.272 1.272 0 0 1 1.244 1.179s0 .007-1.45 9.53l-6.874-1.698V9.514h1.944a1.395 1.395 0 0 0 1.389-1.392A1.34 1.34 0 0 0 11.8 6.8L7.63 5.756a1.915 1.915 0 0 0-1.6.348 1.75 1.75 0 0 0-.695 1.461 1.93 1.93 0 0 0 1.877 1.949h1.456v2.123l-.818-.202a4.212 4.212 0 0 0-3.474.766 4.064 4.064 0 0 0-1.529 3.203 4.148 4.148 0 0 0 1.606 3.263h-.784A1.604 1.604 0 0 0 2 20.333 1.645 1.645 0 0 0 3.668 22h16.664a1.69 1.69 0 0 0 1.666-1.666 1.645 1.645 0 0 0-1.666-1.665ZM6.167 7.567a.997.997 0 0 1 .349-.765.889.889 0 0 1 .694-.278c.07 0 .14.07.21.07l4.172 1.043a.528.528 0 0 1-.14 1.044H9.15a.465.465 0 0 0-.06-.01.582.582 0 0 0-.073.01H7.21a1.042 1.042 0 0 1-1.042-1.114ZM3.68 15.405a3.106 3.106 0 0 1 1.25-2.576 3.315 3.315 0 0 1 1.945-.697c.282.013.562.06.833.14l1.178.293a.439.439 0 0 0 .162.04l9.013 2.243a1.944 1.944 0 0 1 1.459 1.88 1.989 1.989 0 0 1-1.858 1.94H6.694a3.255 3.255 0 0 1-3.014-3.263h-.001Zm16.652 5.763H3.666a.844.844 0 0 1-.834-.833.802.802 0 0 1 .834-.833h2.986c.074.004.147.012.222.012h10.7c.04 0 .076-.01.115-.012h2.641a.845.845 0 0 1 .833.833.897.897 0 0 1-.832.833h-.002ZM12 17.424a.44.44 0 0 1-.418.4H8.239a.44.44 0 0 1-.418-.4.392.392 0 0 1 .418-.398h.907l-2.078-2.661a.444.444 0 0 1 .695-.556l2.459 3.218h1.359a.393.393 0 0 1 .419.397h-.002Z" clip-rule="evenodd"/>
</svg>
