<svg xmlns="http://www.w3.org/2000/svg" width="24" height="24" fill="none" viewBox="0 0 24 24">
  <path fill="#000" fill-rule="evenodd" d="M20.7 18.25a2.811 2.811 0 0 1-2.846 2.916H5.66a2.814 2.814 0 0 1-2.845-2.916V5.752A2.813 2.813 0 0 1 5.66 2.836h12.191a2.814 2.814 0 0 1 2.845 2.916L20.7 18.25ZM17.853 2.003H5.66A3.69 3.69 0 0 0 2 5.753V18.25A3.69 3.69 0 0 0 5.66 22h12.191a3.69 3.69 0 0 0 3.66-3.75V5.752A3.69 3.69 0 0 0 17.85 2l.003.003Zm.015 7.91c-.203.209-.203.416-.407.416l-2.848 1.249-.204.208-2.034 4.159-.814.415 1.22-3.12a.776.776 0 0 0-.203-.624h-.407l-3.459 1.456-3.05-2.08.814-.417 2.035.832h.407l8.138-3.327a.807.807 0 0 1 .814.416l-.002.417ZM9.731 8.665l.814-.416 2.44 1.664-1.017.416L9.73 8.665Zm6.918-.416L13.8 9.497l-3.05-2.08h-.407l-1.627.831c-.204.208-.204.208-.204.416s0 .209.204.417l2.238 1.663-2.238.832-2.035-.832c-.203-.208-.203 0-.407 0l-1.627.832c0 .208-.204.208-.204.416s.204.208.204.416l3.66 2.496h.407l2.848-1.248-1.22 3.327c0 .208 0 .416.204.416 0 .208 0 .208.203.208h.204l1.83-1.04.203-.208 2.238-4.16 2.645-1.039c.407-.208.61-.624.814-.832a2.691 2.691 0 0 0-.203-1.248 1.519 1.519 0 0 0-1.831-.834v.003Z" clip-rule="evenodd"/>
</svg>
