<svg xmlns="http://www.w3.org/2000/svg" width="24" height="24" fill="none" viewBox="0 0 24 24">
  <path fill="#000" fill-rule="evenodd" d="M21.583 5H2.417A.455.455 0 0 0 2 5.428v12.843a.455.455 0 0 0 .417.428h19.166a.456.456 0 0 0 .417-.428V5.428A.455.455 0 0 0 21.583 5Zm-.416 12.843H5.332v-.856H4.5v.856H2.833V5.853h18.333v11.99ZM5.35 7.6h-.852v-.853h.852V7.6Zm0 1.7h-.852v-.85h.852v.85Zm0 1.7h-.852v-.85h.852V11Zm0 1.7h-.852v-.853h.852v.853Zm0 1.7h-.852v-.85h.852v.85Zm0 1.7h-.852v-.853h.852v.853Zm4.768-1.903a.642.642 0 0 0 .417.212l2.923-1.276-1.25 2.978c0 .213 0 .426.209.426 0 .213 0 .213.209.213h.209l1.878-1.064.21-.213 2.297-3.83 2.297-1.063c.417-.213.625-.639.835-.853a2.747 2.747 0 0 0-.209-1.277 1.307 1.307 0 0 0-1.879-.638l-2.506 1.064-3.132-2.128h-.418l-1.67.853c-.21.212-.21.212-.21.425 0 .212 0 .212.21.426l2.296 1.489-2.297 1.063-2.088-.852c-.209-.213-.209-.213-.417 0l-1.671.852c0 .214-.209.214-.209.426 0 .213.209.213.209.425l3.757 2.342Zm1.461-6.17.836-.426 2.296 1.49-1.043.638-2.089-1.703Zm-3.34 2.978 2.087.853h.418l7.935-3.404a.83.83 0 0 1 .836.425v.426c-.21.212-.21.426-.418.426l-2.506 1.276-.21.213-2.087 3.616-.836.426 1.045-2.766c.208 0 .208-.213 0-.425h-.418l-3.55 1.49-3.132-2.129.835-.427Z" clip-rule="evenodd"/>
</svg>
