<svg xmlns="http://www.w3.org/2000/svg" width="24" height="24" fill="none" viewBox="0 0 24 24">
  <path fill="#000" fill-rule="evenodd" d="M10.74 12.999H9.08a.447.447 0 0 0-.415.417v3.342a.448.448 0 0 0 .415.418h1.66a.448.448 0 0 0 .413-.418v-3.342A.447.447 0 0 0 10.74 13Zm-.416 3.342h-.828v-2.507h.828v2.507Zm11.511-5.888a.448.448 0 0 0 .069-.625c-.207-.14-.414-.208-.62 0-.966.833-2.62 2.43-2.62 3.194v3.615a.361.361 0 0 0-.03.127v2.503a1.242 1.242 0 0 1-2.482 0V8.003a1.684 1.684 0 0 0-1.654-1.669h-.858V3.417A.448.448 0 0 0 13.223 3H2.416A.447.447 0 0 0 2 3.417v17.517a.448.448 0 0 0 .416.417h10.808a.449.449 0 0 0 .415-.417V7.167h.859a.8.8 0 0 1 .827.834v11.263a2.068 2.068 0 0 0 4.136 0v-2.248l1.482-.744a.381.381 0 0 0 .207-.347V14.26a.447.447 0 0 0-.414-.416H19.49v-.822c.07-.346 1.242-1.596 2.345-2.568Zm-9.026-6.617v5.83H2.833V3.84l9.976-.003ZM2.833 20.52V10.512h9.976v10.007H2.833Zm16.66-5.842h.828v.972l-.829.417v-1.39ZM4.103 8.822h7.476a.445.445 0 0 0 .415-.413V5.105a.446.446 0 0 0-.415-.414H4.104a.446.446 0 0 0-.415.414v3.304a.445.445 0 0 0 .418.413h-.003Zm.415-3.304h6.646v2.478H4.519V5.518Zm6.631 12.925a.45.45 0 0 1-.414.423H9.077a.423.423 0 0 1 0-.845h1.66a.45.45 0 0 1 .416.422h-.003Z" clip-rule="evenodd"/>
</svg>
