<svg xmlns="http://www.w3.org/2000/svg" width="24" height="24" fill="none" viewBox="0 0 24 24">
  <path fill="#000" fill-rule="evenodd" d="M22 9.718a.555.555 0 0 1-.145.364l-4.339 4.432a.431.431 0 0 1-.289.072h-.217a11.24 11.24 0 0 0-3.76-1.09l.145-.872c1.272.16 2.515.502 3.69 1.018l3.76-3.779a18.53 18.53 0 0 0-7.594-2.327l.073-.872a18.52 18.52 0 0 1 8.46 2.761c.144.075.216.148.216.293Zm-7.822 8.46a2.181 2.181 0 0 1-2.175 2.176 2.182 2.182 0 0 1-1.366-3.875l-1.889-2.582c-.598.179-1.18.41-1.738.69h-.218a.435.435 0 0 1-.29-.073l-4.423-4.432a.545.545 0 0 1-.073-.364c0-.145.073-.218.218-.29a18.32 18.32 0 0 1 8.411-2.761l.073.871a18.608 18.608 0 0 0-7.614 2.328l3.77 3.778c.446-.184.894-.34 1.343-.484l-2.145-2.932a.398.398 0 0 1 .146-.579.454.454 0 0 1 .581.073l2.3 3.19a12.017 12.017 0 0 1 1.546-.284l.073.872c-.363.04-.719.102-1.07.176l1.748 2.425c.2-.06.408-.09.617-.093a2.182 2.182 0 0 1 2.175 2.17Zm-.87 0a1.306 1.306 0 1 0-2.612.001 1.306 1.306 0 0 0 2.612 0ZM12.003 4.713a.454.454 0 0 0 .415-.428v-.856A.454.454 0 0 0 12.003 3a.405.405 0 0 0-.416.428v.856a.405.405 0 0 0 .416.428Zm0 2.64a.46.46 0 0 0 .415-.44v-.88a.46.46 0 0 0-.415-.44.412.412 0 0 0-.416.44v.88a.41.41 0 0 0 .416.44Zm0 2.59a.46.46 0 0 0 .415-.44v-.88a.46.46 0 0 0-.415-.44.413.413 0 0 0-.416.44v.88a.412.412 0 0 0 .416.44Zm0 2.591a.454.454 0 0 0 .415-.428v-.855a.454.454 0 0 0-.415-.428.405.405 0 0 0-.416.428v.855a.405.405 0 0 0 .416.428Zm0 2.59a.455.455 0 0 0 .415-.427v-.856a.454.454 0 0 0-.415-.427.406.406 0 0 0-.416.427v.856a.405.405 0 0 0 .416.428Z" clip-rule="evenodd"/>
</svg>
