<svg xmlns="http://www.w3.org/2000/svg" width="24" height="24" fill="none" viewBox="0 0 24 24">
  <path fill="#000" fill-rule="evenodd" d="M21.58 10.65a.447.447 0 0 0 .417-.415V8.571a.38.38 0 0 0-.277-.415L12.139 4h-.278l-9.58 4.156a.38.38 0 0 0-.278.415v1.662a.448.448 0 0 0 .417.416h1.27v9.13H2.42a.422.422 0 0 0 0 .843h19.16a.421.421 0 0 0 0-.842h-1.268v-9.13h1.269ZM2.837 8.849 12 4.831l9.164 4.017v.97h-1.22a.35.35 0 0 0-.05-.012H4.103a.338.338 0 0 0-.05.012h-1.22l.003-.97ZM17.84 19.78H6.163v-7.458h11.676v7.458Zm1.644 0h-.808v-7.87a.447.447 0 0 0-.417-.415H5.747a.447.447 0 0 0-.417.415v7.873h-.808v-9.13h14.96v9.126ZM7.016 14.395a.45.45 0 0 1 .415-.424h9.143a.424.424 0 0 1 0 .842H7.43a.45.45 0 0 1-.418-.417l.003-.001Zm0 1.662a.438.438 0 0 1 .415-.398h9.143a.4.4 0 1 1 0 .795H7.43a.438.438 0 0 1-.418-.395l.003-.002Zm0 1.662a.45.45 0 0 1 .415-.424h9.143a.424.424 0 0 1 0 .843H7.43a.45.45 0 0 1-.418-.417l.003-.002Z" clip-rule="evenodd"/>
</svg>
