<svg xmlns="http://www.w3.org/2000/svg" width="24" height="24" fill="none" viewBox="0 0 24 24">
  <path fill="#000" fill-rule="evenodd" d="M19.216 18.655a3.615 3.615 0 0 0 .77-2.215 3.587 3.587 0 1 0-7.174 0 3.636 3.636 0 0 0 3.622 3.611 3.478 3.478 0 0 0 2.239-.828l2.613 2.612a.277.277 0 0 0 .277.139c.14 0 .209 0 .279-.14a.325.325 0 0 0 0-.555l-2.626-2.624Zm-5.568-2.215a2.79 2.79 0 0 1 2.786-2.777 2.732 2.732 0 0 1 2.716 2.777 2.811 2.811 0 0 1-.703 1.871.43.43 0 0 0-.207.21 2.668 2.668 0 0 1-1.806.697 2.79 2.79 0 0 1-2.786-2.777ZM7.827 8.656 6.301 11.09l3.884 3.13a.361.361 0 0 1 .14.278v2.087a.416.416 0 1 1-.833 0V14.71l-4.023-3.2a.421.421 0 0 1-.07-.557l1.873-2.921a.382.382 0 0 1 .346-.209h4.37V5.946l-1.041-.696a.395.395 0 0 1 0-.696l2.705-1.564a9.155 9.155 0 1 0-1.664 18.154.448.448 0 0 1 .418.417.401.401 0 0 1-.418.416 9.99 9.99 0 0 1 0-19.977 9.88 9.88 0 0 1 2.772.402.444.444 0 0 1 .309.093 10.081 10.081 0 0 1 4.209 2.69l.006.002a.48.48 0 0 1 .166.187A9.914 9.914 0 0 1 22 11.99a.417.417 0 1 1-.834 0 9.105 9.105 0 0 0-2.021-5.728l-1.18 2.19a.381.381 0 0 1-.346.207H16.37l-1.389 1.318c-.069.139-.138.139-.277.139a.278.278 0 0 1-.278-.139.324.324 0 0 1 0-.555l1.458-1.457a.36.36 0 0 1 .278-.138h1.18l1.23-2.213a9.168 9.168 0 0 0-3.78-2.341L11.92 4.976l.692.418a.383.383 0 0 1 .208.345v2.504a.402.402 0 0 1-.416.418l-4.577-.005Z" clip-rule="evenodd"/>
</svg>
