<svg xmlns="http://www.w3.org/2000/svg" width="24" height="24" fill="none" viewBox="0 0 24 24">
  <path fill="#000" fill-rule="evenodd" d="M12.417 21.583A.401.401 0 0 1 12 22a10 10 0 1 1 10-10 .399.399 0 0 1-.417.417.368.368 0 0 1-.416-.417 9.085 9.085 0 0 0-2.023-5.685l-1.168 2.147a.385.385 0 0 1-.349.207h-1.326l-1.326 1.384a.425.425 0 0 1-.28.07.638.638 0 0 1-.349-.07.515.515 0 0 1 0-.622l1.466-1.451c.14-.07.21-.138.349-.138h1.186l1.204-2.197a9.287 9.287 0 0 0-3.658-2.324l-2.956 1.674.698.417c.14.14.21.209.21.346v2.503a.402.402 0 0 1-.42.418H7.82l-1.535 2.433 3.838 3.128a.373.373 0 0 1 .209.279v2.086a.403.403 0 0 1-.418.417.37.37 0 0 1-.42-.417V14.73l-4.046-3.198a.362.362 0 0 1-.07-.556l1.884-2.92a.384.384 0 0 1 .349-.209h4.395V6.04l-1.116-.764a.531.531 0 0 1-.14-.346.383.383 0 0 1 .21-.346l2.74-1.576A8.92 8.92 0 0 0 12 2.84a9.166 9.166 0 0 0 0 18.332.448.448 0 0 1 .418.412ZM22 16.577a5.423 5.423 0 1 1-5.422-5.422 5.43 5.43 0 0 1 5.42 5.422H22Zm-.834 0a4.588 4.588 0 1 0-9.175-.095 4.588 4.588 0 0 0 9.175.095Zm-2.914-.389h-1.244v-2.503a.445.445 0 0 0-.415-.418.4.4 0 0 0-.415.418v2.92a.369.369 0 0 0 .415.418h1.658a.4.4 0 0 0 .415-.418.447.447 0 0 0-.415-.417Z" clip-rule="evenodd"/>
</svg>
