<svg xmlns="http://www.w3.org/2000/svg" width="24" height="24" fill="none" viewBox="0 0 24 24">
  <path fill="#000" fill-rule="evenodd" d="M21.998 11.997a.37.37 0 0 1-.417.416.4.4 0 0 1-.417-.416 9.115 9.115 0 0 0-1.984-5.661L18.035 8.46a.494.494 0 0 1-.415.207h-1.245l-1.315 1.384a.625.625 0 0 1-.346.069.418.418 0 0 1-.277-.069.518.518 0 0 1 0-.622l1.453-1.451a.525.525 0 0 1 .277-.138h1.245l1.182-2.175a9.2 9.2 0 0 0-3.65-2.334l-2.93 1.663.696.418c.07.139.14.208.14.346V8.26a.369.369 0 0 1-.418.418H7.908l-1.6 2.432 3.897 3.128a.527.527 0 0 1 .14.279v2.085a.369.369 0 0 1-.418.417.402.402 0 0 1-.418-.417v-1.876l-4.036-3.198a.524.524 0 0 1-.07-.556l1.879-2.92a.383.383 0 0 1 .346-.208h4.385V6.037l-1.044-.764a.396.396 0 0 1 0-.696l2.779-1.57a9.108 9.108 0 0 0-1.75-.174 9.165 9.165 0 1 0 0 18.33.4.4 0 0 1 .417.417.369.369 0 0 1-.417.416 9.998 9.998 0 1 1 9.998-9.998l.002-.001Zm-1.236 4.998v.486l.695.417a.505.505 0 0 1 .139.556l-1.25 2.152a.963.963 0 0 1-.278.208.416.416 0 0 1-.278-.07l-.694-.345a7.622 7.622 0 0 1-.764.416v.764a.4.4 0 0 1-.417.417h-2.5a.368.368 0 0 1-.416-.417v-.764a2.355 2.355 0 0 1-.834-.416l-.694.346a.376.376 0 0 1-.556-.14l-1.25-2.151a.627.627 0 0 1-.07-.346c.07-.07.14-.209.209-.209l.692-.417c0-.139-.07-.277-.07-.485 0-.14.07-.278.07-.417l-.692-.416a.364.364 0 0 1-.139-.556l1.25-2.152a.374.374 0 0 1 .556-.139l.694.346c.248-.193.53-.335.834-.417v-.833a.4.4 0 0 1 .416-.416h2.5a.448.448 0 0 1 .417.416v.833c.275.097.533.238.764.417l.694-.346a.415.415 0 0 1 .278-.07c.139 0 .208.07.278.209l1.25 2.152a.505.505 0 0 1-.139.556l-.695.416v.416Zm-.692-1.04.556-.279-.834-1.457-.486.346a.412.412 0 0 1-.486-.07 3.535 3.535 0 0 0-1.111-.625.382.382 0 0 1-.209-.346v-.694h-1.666v.694a.373.373 0 0 1-.346.346c-.37.167-.72.377-1.042.625a.412.412 0 0 1-.486.07l-.555-.346-.833 1.457.555.278c.208.139.278.278.208.486 0 .209-.07.417-.07.555 0 .21.07.417.07.625.07.209 0 .346-.208.487l-.555.277.833 1.458.555-.346a.412.412 0 0 1 .486.07c.337.263.712.474 1.112.625a.461.461 0 0 1 .277.346v.625H17.5v-.625a.381.381 0 0 1 .208-.346c.406-.14.782-.351 1.112-.626a.41.41 0 0 1 .485-.069l.487.346.833-1.458-.555-.346a.308.308 0 0 1-.14-.417v-1.18a.43.43 0 0 1 .14-.487Zm-1.407 1.04a2.05 2.05 0 0 1-2.089 2.09 2.095 2.095 0 0 1-2.089-2.09 2.141 2.141 0 0 1 2.09-2.088 2.094 2.094 0 0 1 2.087 2.088Zm-.836 0a1.253 1.253 0 1 0-2.506 0 1.253 1.253 0 0 0 2.506 0Z" clip-rule="evenodd"/>
</svg>
