<svg xmlns="http://www.w3.org/2000/svg" width="24" height="24" fill="none" viewBox="0 0 24 24">
  <path fill="#000" fill-rule="evenodd" d="M12.387 21.526a.399.399 0 0 1-.416.416 9.971 9.971 0 0 1 0-19.942 9.876 9.876 0 0 1 2.766.402.45.45 0 0 1 .309.093 10.06 10.06 0 0 1 4.201 2.685h.006c.071.046.128.11.166.186a9.897 9.897 0 0 1 2.546 6.606.416.416 0 1 1-.833 0 9.086 9.086 0 0 0-2.018-5.719L17.937 8.44a.381.381 0 0 1-.345.208h-1.247l-1.387 1.316c-.07.138-.139.138-.277.138a.276.276 0 0 1-.277-.138.324.324 0 0 1 0-.554l1.455-1.455a.361.361 0 0 1 .277-.138h1.179l1.228-2.21A9.139 9.139 0 0 0 14.77 3.27l-2.868 1.7.69.416a.381.381 0 0 1 .208.345v2.5a.4.4 0 0 1-.416.416h-4.57l-1.523 2.43 3.877 3.126a.357.357 0 0 1 .139.277v2.083a.416.416 0 0 1-.831 0V14.69L5.46 11.496a.422.422 0 0 1-.07-.555l1.87-2.917a.38.38 0 0 1 .345-.208h4.363V5.943l-1.039-.694a.394.394 0 0 1 0-.695l2.7-1.562a9.252 9.252 0 0 0-1.66-.157 9.14 9.14 0 1 0 0 18.28.447.447 0 0 1 .418.411Zm9.415-5.46-2.29 1.874 1.18 3.47a.43.43 0 0 1-.139.486.334.334 0 0 1-.375.077.335.335 0 0 1-.11-.077l-3.124-2.083-3.124 2.083a.254.254 0 0 1-.208.07.42.42 0 0 1-.277-.07.586.586 0 0 1-.14-.486l1.18-3.47-2.29-1.874a.587.587 0 0 1-.139-.486.571.571 0 0 1 .417-.277H15l1.597-3.057a.46.46 0 0 1 .345-.277c.139 0 .277.139.416.277l1.529 3.057h2.637a.469.469 0 0 1 .417.277.43.43 0 0 1-.138.486Zm-1.457.07H18.61a.382.382 0 0 1-.345-.209l-1.32-2.568-1.318 2.568a.381.381 0 0 1-.347.209h-1.736l1.597 1.388a.334.334 0 0 1 .139.417l-.902 2.567 2.36-1.596a.444.444 0 0 1 .416 0l2.36 1.596-.902-2.567c0-.14 0-.345.139-.417l1.594-1.389Z" clip-rule="evenodd"/>
</svg>
