<svg xmlns="http://www.w3.org/2000/svg" width="24" height="24" fill="none" viewBox="0 0 24 24">
  <path fill="#000" fill-rule="evenodd" d="M15.755 20.87a.51.51 0 0 1-.277.555 11.69 11.69 0 0 1-3.469.555A9.989 9.989 0 0 1 6.58 3.592a9.99 9.99 0 0 1 8.217-1.19.346.346 0 0 1 .297.089 10 10 0 0 1 6.902 9.499.368.368 0 0 1-.416.416.4.4 0 0 1-.416-.416 9.114 9.114 0 0 0-1.98-5.68l-1.147 2.14a.416.416 0 0 1-.415.208h-1.244l-1.313 1.318c-.07.14-.207.14-.346.14a.275.275 0 0 1-.276-.14.422.422 0 0 1 0-.555l1.451-1.457a.522.522 0 0 1 .277-.139h1.244l1.162-2.21a9.138 9.138 0 0 0-3.727-2.327l-2.844 1.685.694.418a.534.534 0 0 1 .139.348v2.504a.367.367 0 0 1-.416.418h-4.51l-1.595 2.435 3.885 3.13c.138.07.138.14.138.279v2.087a.368.368 0 0 1-.416.418.401.401 0 0 1-.416-.418v-1.877l-3.955-3.2a.437.437 0 0 1-.138-.556l1.873-2.923c.139-.138.208-.208.346-.208h4.37V5.951l-1.04-.696a.382.382 0 0 1-.208-.345c.053-.124.124-.24.208-.346l2.745-1.558a9.156 9.156 0 1 0-1.705 18.15 8.375 8.375 0 0 0 3.192-.554.508.508 0 0 1 .558.268ZM22 15.736c0 1.943-3.057 5.689-3.405 6.105a.418.418 0 0 1-.625 0c-.345-.416-3.474-4.162-3.474-6.105a3.777 3.777 0 0 1 3.754-3.746A3.734 3.734 0 0 1 22 15.736Zm-.833 0a2.89 2.89 0 0 0-2.919-2.914 2.933 2.933 0 0 0-2.918 2.914c0 1.25 1.946 3.885 2.918 5.203 1.045-1.318 2.919-3.954 2.919-5.203Zm-1.23-.017a1.644 1.644 0 0 1-2.824 1.167 1.665 1.665 0 0 1 1.159-2.832 1.643 1.643 0 0 1 1.663 1.665h.002Zm-.833 0a.844.844 0 0 0-.832-.833.895.895 0 0 0-.833.833.844.844 0 0 0 .833.832.8.8 0 0 0 .832-.832Z" clip-rule="evenodd"/>
</svg>
