<svg xmlns="http://www.w3.org/2000/svg" width="24" height="24" fill="none" viewBox="0 0 24 24">
  <path fill="#000" d="M12.719 5.385a.534.534 0 0 1 .139.348v2.504a.368.368 0 0 1-.417.417H7.922l-1.599 2.434 3.893 3.13a.363.363 0 0 1 .14.279v2.087a.368.368 0 0 1-.418.417.402.402 0 0 1-.417-.417v-1.877L5.49 11.508a.526.526 0 0 1-.07-.556L7.297 8.03a.383.383 0 0 1 .346-.208h4.38V5.945l-1.044-.695a.395.395 0 0 1 0-.696l2.747-1.556a9.254 9.254 0 0 0-1.719-.166 9.155 9.155 0 1 0 0 18.31.4.4 0 0 1 .416.417.367.367 0 0 1-.416.416 9.987 9.987 0 1 1 2.785-19.574.408.408 0 0 1 .322.1 9.997 9.997 0 0 1 6.88 9.489.368.368 0 0 1-.415.416.399.399 0 0 1-.417-.417 9.113 9.113 0 0 0-1.979-5.678l-1.147 2.14a.494.494 0 0 1-.415.207h-1.243l-1.313 1.318a.38.38 0 0 1-.346.14.276.276 0 0 1-.276-.14.423.423 0 0 1 0-.555l1.45-1.456a.521.521 0 0 1 .277-.139h1.244l1.162-2.21a9.134 9.134 0 0 0-3.712-2.32L12.02 4.974l.698.41Zm9.277 10.344v5.826a.367.367 0 0 1-.415.417h-7.47a.399.399 0 0 1-.415-.417V15.73a.447.447 0 0 1 .416-.416h.804v-.408a2.908 2.908 0 1 1 5.814 0v.408h.851a.402.402 0 0 1 .415.416Zm-6.25-.416H19.9v-.408a2.088 2.088 0 0 0-2.077-2.086 2.134 2.134 0 0 0-2.077 2.086v.408Zm5.42.832h-.771a.56.56 0 0 1-.08.012.469.469 0 0 1-.068-.012h-4.835a.567.567 0 0 1-.081.012.469.469 0 0 1-.068-.012h-.736v4.994h6.639v-4.994Zm-3.32.856a.82.82 0 0 0-.444 1.508v1.4a.405.405 0 0 0 .422.42.372.372 0 0 0 .422-.42v-1.373a.818.818 0 0 0-.399-1.534v-.001Z"/>
</svg>
