<svg xmlns="http://www.w3.org/2000/svg" width="24" height="24" fill="none" viewBox="0 0 24 24">
  <path fill="#000" fill-rule="evenodd" d="M22 11.972a.417.417 0 0 1-.833 0 9.086 9.086 0 0 0-2.018-5.719L17.972 8.44a.38.38 0 0 1-.346.208H16.31l-1.317 1.316a.276.276 0 0 1-.277.138c-.138 0-.208 0-.277-.138a.324.324 0 0 1 0-.555l1.456-1.454a.361.361 0 0 1 .277-.139h1.178l1.229-2.209a9.15 9.15 0 0 0-3.774-2.337l-2.868 1.7.69.416a.383.383 0 0 1 .209.346v2.5a.4.4 0 0 1-.416.417H7.85l-1.524 2.43 3.878 3.125a.36.36 0 0 1 .138.278v2.083a.415.415 0 1 1-.83 0v-1.873l-4.017-3.195a.421.421 0 0 1-.07-.555l1.87-2.917a.38.38 0 0 1 .346-.209h4.362V5.942l-1.035-.698a.394.394 0 0 1 0-.694l2.7-1.562a9.14 9.14 0 1 0-1.66 18.125.448.448 0 0 1 .416.415.4.4 0 0 1-.416.416 9.972 9.972 0 1 1 2.767-19.542.358.358 0 0 1 .262.076 10.066 10.066 0 0 1 4.249 2.701l.005.003c.071.046.128.11.166.186A9.897 9.897 0 0 1 22 11.972Zm-8.74 4.213a.567.567 0 0 0 .415-.277 3.28 3.28 0 0 1 3.105-2.215 3.616 3.616 0 0 1 3.038 1.663h-1.383a.415.415 0 1 0 0 .83h2.073a.443.443 0 0 0 .415-.415V13.7a.415.415 0 0 0-.83 0v.676a4.51 4.51 0 0 0-3.313-1.512 4.176 4.176 0 0 0-3.934 2.77.394.394 0 0 0 .276.485c.07.066.07.066.139.066Zm7.6 1.662a.434.434 0 0 0-.553.207 3.255 3.255 0 0 1-3.106 2.216 3.68 3.68 0 0 1-3.069-1.664h1.415a.401.401 0 0 0 .387-.253.399.399 0 0 0 .027-.161.444.444 0 0 0-.415-.415h-2.07a.444.444 0 0 0-.415.415v2.073a.415.415 0 1 0 .83 0v-.621a4.535 4.535 0 0 0 3.312 1.457 4.087 4.087 0 0 0 3.866-2.77.318.318 0 0 0-.21-.484Z" clip-rule="evenodd"/>
</svg>
