<svg xmlns="http://www.w3.org/2000/svg" width="24" height="24" fill="none" viewBox="0 0 24 24">
  <path fill="#000" fill-rule="evenodd" d="M12.416 21.582a.4.4 0 0 1-.417.417A10 10 0 1 1 12 2a9.856 9.856 0 0 1 2.764.402.362.362 0 0 1 .306.091A10.056 10.056 0 0 1 22 12a.4.4 0 0 1-.417.417.368.368 0 0 1-.416-.417 9.09 9.09 0 0 0-2.02-5.708l-1.171 2.164a.384.384 0 0 1-.35.208H16.3l-1.324 1.321a.28.28 0 0 1-.28.139.385.385 0 0 1-.349-.139.421.421 0 0 1 0-.556l1.466-1.458c.14-.07.21-.139.35-.139h1.186c.7-1.319 1.028-1.939 1.186-2.233a9.232 9.232 0 0 0-3.726-2.314l-2.867 1.693.698.417a.383.383 0 0 1 .21.346v2.507a.403.403 0 0 1-.42.419H7.827l-1.533 2.437 3.837 3.133c.14.07.21.14.21.279v2.089a.403.403 0 0 1-.42.418.37.37 0 0 1-.418-.418v-1.879l-4.046-3.203a.361.361 0 0 1-.07-.557L7.27 8.04a.383.383 0 0 1 .348-.209h4.396V5.952l-1.116-.696a.531.531 0 0 1-.14-.346.383.383 0 0 1 .21-.346l2.711-1.562a9.035 9.035 0 0 0-1.672-.162 9.166 9.166 0 0 0 0 18.332.448.448 0 0 1 .409.41Zm9.583-5.005a5.423 5.423 0 1 1-5.423-5.422A5.43 5.43 0 0 1 22 16.577Zm-.834 0a4.589 4.589 0 1 0-9.178-.095 4.589 4.589 0 0 0 9.178.095Zm-4.589 2.23a.517.517 0 1 0 .495.516.507.507 0 0 0-.495-.517Zm.012-5.537a1.932 1.932 0 0 0-1.96 1.867.45.45 0 0 0 .42.415.401.401 0 0 0 .42-.415 1.088 1.088 0 0 1 1.12-1.038 1.038 1.038 0 0 1 0 2.076.4.4 0 0 0-.42.416v1.522a.4.4 0 0 0 .42.415.449.449 0 0 0 .42-.415v-1.11a1.935 1.935 0 0 0 1.47-1.867 1.872 1.872 0 0 0-1.89-1.869v.003Z" clip-rule="evenodd"/>
</svg>
