<svg xmlns="http://www.w3.org/2000/svg" width="24" height="24" fill="none" viewBox="0 0 24 24">
  <path fill="#000" d="M11.988 2h-.415a9.787 9.787 0 0 0-6.79 2.942A9.764 9.764 0 0 0 2 11.792a10.123 10.123 0 0 0 2.888 7.16 10.146 10.146 0 0 0 7.1 3.048c2.655 0 5.202-1.054 7.08-2.929a9.994 9.994 0 0 0 0-14.142A10.018 10.018 0 0 0 11.988 2Zm-9.146 9.977h4.653c.051 1.419.31 2.823.766 4.168h-4.37a9.473 9.473 0 0 1-1.05-4.168Zm4.652-.796H2.862a8.828 8.828 0 0 1 1.342-4.168h4.093a13.05 13.05 0 0 0-.803 4.167v.001Zm1.673-4.168h5.735c.53 1.328.821 2.739.857 4.168H8.308a12.06 12.06 0 0 1 .86-4.17v.002Zm-.85 4.965h7.441a13.937 13.937 0 0 1-.818 4.168H9.136a13.954 13.954 0 0 1-.823-4.17l.005.002Zm8.261 0h4.566a9.233 9.233 0 0 1-1.018 4.168H15.81c.457-1.345.714-2.75.765-4.17l.002.002Zm0-.796a13.05 13.05 0 0 0-.803-4.168h3.905a8.998 8.998 0 0 1 1.428 4.168h-4.53Zm2.49-5.011h-3.637a14.757 14.757 0 0 0-1.976-3.208 9.16 9.16 0 0 1 5.612 3.206l.001.002ZM12.26 2.849a14.4 14.4 0 0 1 2.263 3.322h-4.97a14.376 14.376 0 0 1 2.274-3.335h.164c.09-.002.178.009.268.012l.002.001Zm-1.614.081a14.77 14.77 0 0 0-2.003 3.24h-3.84a9.135 9.135 0 0 1 5.84-3.242l.002.002ZM4.381 16.99h4.194a19.508 19.508 0 0 0 2.243 4.093 9.147 9.147 0 0 1-6.44-4.095l.003.002Zm7.479 4.172a20.12 20.12 0 0 1-2.393-4.172h5.142a20.114 20.114 0 0 1-2.39 4.167c-.076 0-.15.012-.227.012-.048-.003-.09-.009-.135-.01l.003.003Zm1.41-.094a19.524 19.524 0 0 0 2.234-4.078h4.137a9.146 9.146 0 0 1-6.373 4.076l.002.002Z"/>
</svg>
