<svg xmlns="http://www.w3.org/2000/svg" width="24" height="24" fill="none" viewBox="0 0 24 24">
  <path fill="#000" fill-rule="evenodd" d="M20.806 12.418a9.89 9.89 0 0 1-.768 3.147l-.07.07H17.38c0 .21.07.349.07.56v.279h2.098l-.14.14a8.934 8.934 0 0 1-6.012 4.124h-.21l.069-.14a23.21 23.21 0 0 0 1.259-2.027 4.262 4.262 0 0 1-.84-.35 17.415 17.415 0 0 1-1.607 2.587l-.07.07h-.35v-.07A21.667 21.667 0 0 1 9.2 16.614v-.14h3.428v-.28c-.011-.19.012-.379.07-.56H8.851v-.07c-.15-.457-.266-.924-.35-1.397a2.637 2.637 0 0 1-.698.07h-.21c.14.419.21.838.35 1.258v.14H3.748l-.07-.07a11.575 11.575 0 0 1-.84-3.146v-.14h2.587c0-.14-.07-.28-.07-.42 0-.14.07-.279.07-.419H2.84v-.07a8.94 8.94 0 0 1 1.258-4.265v-.07h3.985l-.07.14c-.21.77-.42 1.539-.559 2.308h.839c.136-.818.37-1.616.699-2.378v-.07h5.66l.07.07a12.75 12.75 0 0 1 .769 4.265v.07h-5.313v.839h5.313v.14c-.07.419-.14.909-.21 1.398.292.003.58.075.839.21.07-.56.14-1.119.21-1.608v-.14h4.474l.002.14Zm-10.486 8.32a9.068 9.068 0 0 1-6.082-4.124l-.07-.14h4.124v.07a17.275 17.275 0 0 0 2.098 4.055l.14.14h-.21ZM4.867 6.057A8.707 8.707 0 0 1 10.18 3.05l.21-.07-.14.21a12.829 12.829 0 0 0-1.818 2.938v.07H4.727l.14-.142Zm6.711-3.146h.141a.131.131 0 0 1 .21 0h.14c.87.939 1.6 1.999 2.167 3.146l.07.14H9.342l.07-.14a15.77 15.77 0 0 1 2.166-3.146Zm8.95 6.572c.16.617.255 1.25.28 1.887v.07h-4.475v-.07a12.012 12.012 0 0 0-.7-4.194v-.14h.91v-.84h-1.258l-.07-.07a12.547 12.547 0 0 0-1.748-2.938l-.21-.21.28.07a7.774 7.774 0 0 1 3.635 1.608 6.34 6.34 0 0 1 .7-.629A10.04 10.04 0 0 0 11.858 2h-.42A9.62 9.62 0 0 0 2 11.648a9.93 9.93 0 0 0 9.3 10.066h1.05a9.892 9.892 0 0 0 9.368-9.857 8.581 8.581 0 0 0-.42-2.728 2.59 2.59 0 0 1-.769.354ZM7.815 12.747a.908.908 0 0 1-.643-1.553.91.91 0 0 1 1.554.643.925.925 0 0 1-.912.909v.001Zm0-2.659a1.749 1.749 0 1 0 1.75 1.75 1.733 1.733 0 0 0-1.75-1.752v.002Zm7.186 7.009a.909.909 0 1 1 0-1.818.909.909 0 0 1 0 1.818Zm0-2.66a1.748 1.748 0 0 0-1.236 2.987 1.748 1.748 0 1 0 1.236-2.986Zm4.621-9.42a1.551 1.551 0 0 1 1.538 1.538 1.572 1.572 0 1 1-1.538-1.538Zm0 3.983A2.416 2.416 0 0 0 22 6.555a2.357 2.357 0 0 0-2.377-2.376 2.416 2.416 0 0 0-2.448 2.376 2.476 2.476 0 0 0 2.447 2.444l.001.001Z" clip-rule="evenodd"/>
</svg>
