<svg xmlns="http://www.w3.org/2000/svg" width="24" height="24" fill="none" viewBox="0 0 24 24">
  <path fill="#000" fill-rule="evenodd" d="M22 11.987a.416.416 0 1 1-.834 0 9.099 9.099 0 0 0-2.022-5.706l-1.173 2.17a.38.38 0 0 1-.346.207h-1.317L14.99 10.04a.422.422 0 0 1-.278.069c-.139 0-.208 0-.277-.069a.387.387 0 0 1 0-.62l1.456-1.449a.363.363 0 0 1 .277-.137h1.18l1.246-2.17a9.196 9.196 0 0 0-3.707-2.35l-2.955 1.681.69.416c.138.139.208.209.208.346v2.497a.4.4 0 0 1-.416.416H7.843l-1.524 2.428 3.88 3.12a.525.525 0 0 1 .138.278v2.081a.414.414 0 0 1-.578.397.415.415 0 0 1-.253-.397V14.7l-4.019-3.19a.42.42 0 0 1-.07-.555L7.29 8.041a.38.38 0 0 1 .345-.208H12V6.029l-1.04-.763a.395.395 0 0 1 0-.694l2.729-1.575A9.15 9.15 0 0 0 9.5 20.793a.425.425 0 0 1-.14.832h-.138A10.11 10.11 0 0 1 2 11.986a9.974 9.974 0 0 1 17.427-6.64A9.92 9.92 0 0 1 22 11.986Zm-.49 9.412a.444.444 0 0 1 0 .416.532.532 0 0 1-.346.138h-9.146a.531.531 0 0 1-.345-.138.882.882 0 0 1-.07-.416l4.573-9.144a.572.572 0 0 1 .416-.278.461.461 0 0 1 .345.278l4.572 9.144Zm-1.04-.277-3.88-7.76-3.88 7.76h7.76Zm-4.325-4.981v2.493a.422.422 0 0 0 .843 0v-2.493a.422.422 0 1 0-.843 0Zm.422 3.33a.42.42 0 1 0 .299.122.42.42 0 0 0-.3-.124v.003Z" clip-rule="evenodd"/>
</svg>
