<svg xmlns="http://www.w3.org/2000/svg" width="24" height="24" fill="none" viewBox="0 0 24 24">
  <path fill="#000" fill-rule="evenodd" d="M12.047 2A10 10 0 1 0 22 12a9.98 9.98 0 0 0-9.953-10Zm6.583 3.66c-.12.488-.554 1.915-1.688 2.598a3.819 3.819 0 0 0-3.173.83c-.208.276-.139.484-.07.553a.694.694 0 0 0 .345.277c.23.41.394.854.483 1.315.07.069.07.138.138.207a1.289 1.289 0 0 0 1.38.208c0 .484-.622 1.176-1.243 1.799-.414.484-.69.76-.69 1.038a.875.875 0 0 0 .483.689c0 .07.07.138.138.208a.067.067 0 0 0-.05.02.068.068 0 0 0-.019.049c-.328.288-.7.521-1.104.69a.466.466 0 0 0-.276.414c0 1.107-.689 1.66-2.001 1.66a4.359 4.359 0 0 1-.897-1.66.599.599 0 0 1 .207-.415c.102-.268.171-.546.207-.83a2.6 2.6 0 0 0-.828-1.453 1.365 1.365 0 0 0-.414-1.107c-.483-.484-1.173-.415-1.863-.346h-.618c-.828 0-.828-1.176-.828-1.245 0-.07.07-2.56 1.725-2.906 1.173-.277 1.587-.07 1.587 0a.36.36 0 0 0 .138.277c.759.76 1.863.484 2.758.276.271-.069.548-.115.828-.138a.386.386 0 0 0 .413-.346c.139-1.107.277-2.493-.275-2.906a.816.816 0 0 0-.69-.07.96.96 0 0 1-.828.14.752.752 0 0 1-.276-.623c-.068-.547 1.68-1.227 3.252-1.578a9.108 9.108 0 0 1 3.749 2.374Zm-6.583 15.508a9.166 9.166 0 1 1 1.039-18.27c-1.13.4-2.37 1.06-2.284 2.038a1.578 1.578 0 0 0 .758 1.246 1.6 1.6 0 0 0 1.38 0c.07.55.07 1.109 0 1.66a2.04 2.04 0 0 1-.69.138c-.69.208-1.449.346-1.863.07a.922.922 0 0 0-.345-.416c-.414-.346-1.104-.415-2.208-.207-2.346.484-2.415 3.597-2.415 3.736 0 .69.345 2.075 1.656 2.075.232.012.464-.012.69-.069a2.7 2.7 0 0 1 1.172.139c.16.22.234.49.207.76a.54.54 0 0 0 .138.278c.297.27.532.6.69.968a1.438 1.438 0 0 1-.138.415 1.697 1.697 0 0 0-.276.83c0 .416.897 2.493 1.656 2.493 1.725 0 2.758-.83 2.898-2.213.408-.219.78-.5 1.104-.83a.765.765 0 0 0 .345-.69c0-.346-.276-.553-.483-.761l-.07-.07c.07-.138.277-.276.415-.484.759-.76 2.068-2.144 1.035-3.113a.332.332 0 0 0-.414-.139.894.894 0 0 1-.69.139 6.213 6.213 0 0 0-.62-1.453 2.754 2.754 0 0 1 2.208-.346.414.414 0 0 0 .276-.07 4.578 4.578 0 0 0 2.056-2.6 9.168 9.168 0 0 1-7.228 14.75v-.005Z" clip-rule="evenodd"/>
</svg>
