<svg xmlns="http://www.w3.org/2000/svg" width="24" height="24" fill="none" viewBox="0 0 24 24">
  <path fill="#000" fill-rule="evenodd" d="M12.422 21.526a.4.4 0 0 1-.416.416 9.971 9.971 0 1 1 2.766-19.54.363.363 0 0 1 .263.076 10.06 10.06 0 0 1 4.247 2.701h.007c.07.047.127.11.165.186A9.898 9.898 0 0 1 22 11.971a.417.417 0 1 1-.833 0 9.086 9.086 0 0 0-2.017-5.718l-1.178 2.185a.381.381 0 0 1-.345.208H16.31l-1.316 1.316a.277.277 0 0 1-.277.139c-.14 0-.208 0-.278-.139a.323.323 0 0 1 0-.554l1.456-1.454a.358.358 0 0 1 .277-.139h1.178l1.228-2.21a9.145 9.145 0 0 0-3.773-2.336l-2.867 1.7.69.416a.383.383 0 0 1 .208.348v2.5a.402.402 0 0 1-.416.416H7.85l-1.524 2.43 3.878 3.125a.36.36 0 0 1 .138.278v2.083a.415.415 0 1 1-.83 0v-1.873l-4.016-3.194a.42.42 0 0 1-.07-.555l1.87-2.917a.382.382 0 0 1 .345-.208h4.363V5.944l-1.04-.694a.394.394 0 0 1 0-.694l2.7-1.562a9.259 9.259 0 0 0-1.66-.157 9.14 9.14 0 0 0 0 18.28.448.448 0 0 1 .418.409ZM22 16.535a5.406 5.406 0 1 1-5.407-5.407A5.413 5.413 0 0 1 22 16.535Zm-.832 0a4.575 4.575 0 1 0-9.15 0 4.575 4.575 0 1 0 9.15 0Zm-4.63-1.95c.011 0 .021.007.032.007s.02-.006.032-.007a.768.768 0 0 1 .73.759.399.399 0 0 0 .414.416.447.447 0 0 0 .415-.416 1.604 1.604 0 0 0-1.17-1.528v-.4a.422.422 0 0 0-.842 0v.393a1.554 1.554 0 0 0 .421 3.06.762.762 0 1 1-.761.763.415.415 0 1 0-.83 0 1.56 1.56 0 0 0 1.17 1.534v.441a.422.422 0 0 0 .842 0v-.448a1.605 1.605 0 0 0 1.17-1.528 1.66 1.66 0 0 0-1.59-1.594.712.712 0 0 1-.762-.693.767.767 0 0 1 .73-.76Z" clip-rule="evenodd"/>
</svg>
