<svg xmlns="http://www.w3.org/2000/svg" width="24" height="24" fill="none" viewBox="0 0 24 24">
  <path fill="#000" fill-rule="evenodd" d="M12.358 21.58a.368.368 0 0 1-.418.416 9.997 9.997 0 1 1 10.022-10.831.4.4 0 0 1-.418.416.345.345 0 0 1-.417-.346 9.121 9.121 0 0 0-1.981-4.899 1139.552 1139.552 0 0 1-1.147 2.126.417.417 0 0 1-.415.207H16.34l-1.314 1.384a.521.521 0 0 1-.346.069.42.42 0 0 1-.277-.069.52.52 0 0 1 0-.622l1.453-1.452a.527.527 0 0 1 .276-.138h1.245l1.18-2.172a9.328 9.328 0 0 0-3.673-2.335l-2.935 1.662.697.417c.07.139.14.209.14.346v2.503a.367.367 0 0 1-.25.402.37.37 0 0 1-.169.015H7.832l-1.604 2.433 3.905 3.128a.278.278 0 0 1 .139.278v2.085a.368.368 0 0 1-.419.418.403.403 0 0 1-.418-.418v-1.875L5.458 11.53a.436.436 0 0 1-.139-.556l1.883-2.92c.14-.138.21-.208.35-.208h4.394V6.038L10.9 5.274a.383.383 0 0 1-.21-.346c.055-.124.125-.24.21-.346l2.789-1.573a9.165 9.165 0 1 0-1.75 18.16.4.4 0 0 1 .419.41Zm5.931-6.149-3.052 1.52c.038.154.057.31.059.468a2.252 2.252 0 0 1-.034.355l2.848 1.055a2.126 2.126 0 0 1 1.763-1.01 2.095 2.095 0 0 1 2.089 2.088 2.052 2.052 0 0 1-2.09 2.09 2.095 2.095 0 0 1-2.088-2.09 1.82 1.82 0 0 1 .029-.265l-2.832-1.104a2.052 2.052 0 0 1-1.774.97 2.094 2.094 0 0 1-2.088-2.088 2.142 2.142 0 0 1 2.088-2.09 2.065 2.065 0 0 1 1.651.829l3.015-1.502a2.051 2.051 0 0 1-.088-.57 2.142 2.142 0 0 1 2.088-2.089 2.094 2.094 0 0 1 2.09 2.089 2.052 2.052 0 0 1-2.09 2.088 2.093 2.093 0 0 1-1.584-.744Zm.47 3.96a.336.336 0 0 1-.012.123.37.37 0 0 1-.095.149.996.996 0 0 0-.032.247 1.294 1.294 0 0 0 1.253 1.253 1.246 1.246 0 0 0 1.253-1.253 1.294 1.294 0 0 0-1.253-1.254 1.345 1.345 0 0 0-1.114.736Zm-4.3-1.971a1.294 1.294 0 0 0-1.253-1.254 1.348 1.348 0 0 0-1.253 1.253 1.295 1.295 0 0 0 1.253 1.254 1.249 1.249 0 0 0 1.255-1.253h-.002Zm4.16-3.333c0 .168.036.333.105.486a.292.292 0 0 1 .046.054.383.383 0 0 1 .033.083 1.298 1.298 0 0 0 1.068.63 1.249 1.249 0 0 0 1.254-1.253 1.295 1.295 0 0 0-1.254-1.254 1.348 1.348 0 0 0-1.251 1.252l-.002.002Z" clip-rule="evenodd"/>
</svg>
