<svg xmlns="http://www.w3.org/2000/svg" width="24" height="24" fill="none" viewBox="0 0 24 24">
  <path fill="#000" fill-rule="evenodd" d="M21.203 16.118v-.8h-4.141v-5.035h1.647v-.847h-1.67a5.43 5.43 0 0 0-5.013-4.968V2.415a.401.401 0 0 0-.423-.414.451.451 0 0 0-.426.414V4.47A5.43 5.43 0 0 0 6.21 9.436H4.494v.847h1.694v5.035H2v.8h.847v5.035H2V22h19.2v-.847h-.8v-5.035h.803ZM11.626 5.28a4.616 4.616 0 0 1 4.598 4.156H7.098a4.6 4.6 0 0 1 4.528-4.157v.001Zm-4.588 5.002h9.177v5.035H7.038v-5.035Zm12.518 10.87H3.696v-5.034h15.86v5.034ZM9.532 11.975h.847v2.07h-.847v-2.07Zm4.188 0v2.07h-.847v-2.07h.847Zm-3.341 7.482h-.847v-2.07h.847v2.07Zm-4.188 0v-2.07h.847v2.07H6.19Zm7.53 0h-.848v-2.07h.847v2.07Zm3.34 0h-.846v-2.07h.847v2.07Z" clip-rule="evenodd"/>
</svg>
