<svg xmlns="http://www.w3.org/2000/svg" width="24" height="24" fill="none" viewBox="0 0 24 24">
  <path fill="#000" fill-rule="evenodd" d="M21.574 12h-3.173c-.008-.003-.012-.008-.02-.01l-.568-.228V9.08a5.759 5.759 0 0 0-5.396-5.787v-.875a.369.369 0 0 0-.422-.413.401.401 0 0 0-.422.413v.875a5.807 5.807 0 0 0-5.396 5.792v2.681l-.567.227-.016.01H2.418A.402.402 0 0 0 2 12.42v6.674a.449.449 0 0 0 .418.418h2.914v2.072A.448.448 0 0 0 5.75 22h12.49a.402.402 0 0 0 .417-.417V19.51h2.914a.4.4 0 0 0 .418-.418V12.42a.37.37 0 0 0-.416-.42Zm-7.888 7.508v-5.022h1.642v5.022h-1.642Zm-2.534 0v-5.022h1.69v5.022h-1.69Zm-2.487 0v-5.022h1.642v5.022H8.665Zm-2.497 0v-.349a.504.504 0 0 0 .012-.068.605.605 0 0 0-.012-.082v-4.523h1.654v5.022H6.168Zm5.83-9.186 5.83 2.362v1.005H6.169v-1.005l5.83-2.362Zm4.177 4.164h1.654v4.545a.524.524 0 0 0-.012.06.414.414 0 0 0 .012.05v.367h-1.654v-5.022Zm-4.003-4.984h4.814v1.928l-4.814-1.928Zm-.174-5.398a4.964 4.964 0 0 1 4.966 4.564H7.031a5.015 5.015 0 0 1 4.966-4.564h.002ZM7.011 9.502h4.814L7.01 11.43V9.502Zm-4.173 9.172v-5.84h2.497v5.84H2.838Zm3.33 2.487v-.808h11.66v.808H6.169Zm14.99-2.487h-2.497v-5.84h2.497v5.84Z" clip-rule="evenodd"/>
</svg>
