<svg xmlns="http://www.w3.org/2000/svg" width="24" height="24" fill="none" viewBox="0 0 24 24">
  <path fill="#000" fill-rule="evenodd" d="M18.218 2H5.747a3.747 3.747 0 1 0 0 7.494 2.896 2.896 0 0 0 2.035-.843h.032v12.932a.401.401 0 0 0 .422.417.45.45 0 0 0 .42-.417V8.651h1.687v12.932a.391.391 0 0 0 .398.417.438.438 0 0 0 .398-.417V8.651h1.687v12.932a.401.401 0 0 0 .421.417.45.45 0 0 0 .421-.417V8.651h1.64v12.932a.403.403 0 0 0 .421.417.45.45 0 0 0 .425-.417V8.651h.005a2.882 2.882 0 0 0 2.061.843 3.747 3.747 0 0 0 0-7.494h-.002ZM8.619 7.012h6.722c.042.292.128.576.255.843H8.354c.132-.266.222-.55.267-.843h-.002Zm9.599 1.65a2.083 2.083 0 0 1-2.075-2.04.3.3 0 0 0 .008-.032.342.342 0 0 0-.01-.038 1.24 1.24 0 0 1 1.245-1.22.448.448 0 0 1 .416.416.4.4 0 0 0 .416.416.447.447 0 0 0 .415-.416A1.243 1.243 0 0 0 17.386 4.5a2.033 2.033 0 0 0-2.04 1.67H8.613A2.09 2.09 0 0 0 6.576 4.5a1.243 1.243 0 0 0-1.247 1.25.4.4 0 0 0 .415.415.447.447 0 0 0 .416-.416.4.4 0 0 1 .416-.416 1.241 1.241 0 0 1 1.243 1.212c0 .016-.008.031-.008.047s.006.026.007.038a2.132 2.132 0 0 1-2.074 2.034 2.917 2.917 0 0 1 0-5.829h12.47a2.916 2.916 0 0 1 0 5.829l.004-.001Z" clip-rule="evenodd"/>
</svg>
