<svg xmlns="http://www.w3.org/2000/svg" width="24" height="24" fill="none" viewBox="0 0 24 24">
  <path fill="#000" fill-rule="evenodd" d="M12.457 9.024a2.255 2.255 0 0 0-2.291 2.267 2.215 2.215 0 0 0 2.29 2.268 2.255 2.255 0 0 0 2.292-2.268 2.299 2.299 0 0 0-2.291-2.267Zm0 3.71a1.414 1.414 0 0 1-1.458-1.444 1.46 1.46 0 0 1 1.458-1.443 1.507 1.507 0 0 1 1.458 1.444 1.46 1.46 0 0 1-1.458 1.443Zm8.5-9.202a4.549 4.549 0 0 0-3.533-1.522 4.596 4.596 0 0 0-3.603 1.522 4.518 4.518 0 0 0-.943 3.5c-.135-.01-.27-.02-.41-.02a5.58 5.58 0 0 0-1.325.16 4.723 4.723 0 0 0-.986-3.64A4.549 4.549 0 0 0 6.624 2.01 4.324 4.324 0 0 0 2.12 7.337c.208 1.246 1.179 2.699 2.148 4.152.97 1.384 1.94 2.906 1.94 3.944 0 .055.01.11.03.16v.967a.388.388 0 0 0 .398.41.435.435 0 0 0 .397-.41v-1.098c0-.01.007-.019.007-.028 0-.732.476-1.699 1.034-2.635.333 1.137 1.186 2.415 2.039 3.693.882 1.355 1.891 2.84 1.932 3.876a.648.648 0 0 0-.009.062v1.123a.404.404 0 0 0 .421.42.453.453 0 0 0 .421-.42v-1.09c0-.01.006-.018.006-.027 0-1.107 1.04-2.699 2.009-4.221a27.97 27.97 0 0 0 1.552-2.514c.313.53.505 1.12.564 1.732 0 .055.01.11.03.16v.967a.388.388 0 0 0 .397.41.435.435 0 0 0 .398-.41v-1.098c0-.01.007-.019.007-.028 0-1.108 1.038-2.7 2.009-4.222.97-1.453 1.87-2.837 2.078-3.875a4.769 4.769 0 0 0-.971-3.804ZM6.624 13.773a24.399 24.399 0 0 0-1.665-2.768c-.9-1.314-1.801-2.698-2.01-3.875a3.633 3.633 0 0 1 .694-3.044 3.725 3.725 0 0 1 2.98-1.245A3.58 3.58 0 0 1 9.53 4.086a3.633 3.633 0 0 1 .761 3.114c-.043.103-.079.21-.106.319a4.151 4.151 0 0 0-1.323 1.016 4.47 4.47 0 0 0-.986 2.98 12.685 12.685 0 0 0-1.253 2.26v-.002Zm7.576 1.958a27.9 27.9 0 0 0-1.732 3.044 24.394 24.394 0 0 0-1.664-2.767c-.901-1.315-1.802-2.699-2.01-3.876a3.468 3.468 0 0 1 3.672-4.29 3.58 3.58 0 0 1 2.91 1.246 3.635 3.635 0 0 1 .76 3.114 3.183 3.183 0 0 1-.089.3.35.35 0 0 0-.075.2 17.393 17.393 0 0 1-1.772 3.03ZM21.096 7.2c-.208.9-1.039 2.214-1.94 3.529a27.88 27.88 0 0 0-1.732 3.044 7.84 7.84 0 0 0-.561-1.03 3.52 3.52 0 0 0 .109-.403 4.771 4.771 0 0 0-.97-3.805 4.317 4.317 0 0 0-2.25-1.36V7.13a3.47 3.47 0 0 1 3.672-4.29 3.58 3.58 0 0 1 2.91 1.245 3.634 3.634 0 0 1 .762 3.115Zm-3.662-3.18a2.256 2.256 0 0 0-2.268 2.291 2.216 2.216 0 0 0 2.268 2.291 2.256 2.256 0 0 0 2.268-2.29 2.3 2.3 0 0 0-2.266-2.29l-.002-.002Zm0 3.75a1.416 1.416 0 0 1-1.443-1.459 1.46 1.46 0 0 1 1.443-1.457 1.507 1.507 0 0 1 1.443 1.457 1.46 1.46 0 0 1-1.441 1.459h-.002ZM8.902 6.31a2.268 2.268 0 1 0-4.536 0 2.268 2.268 0 0 0 4.536 0ZM6.634 7.77a1.417 1.417 0 0 1-1.443-1.458 1.459 1.459 0 0 1 1.443-1.457A1.507 1.507 0 0 1 8.077 6.31a1.46 1.46 0 0 1-1.441 1.46h-.002Z" clip-rule="evenodd"/>
</svg>
