<svg xmlns="http://www.w3.org/2000/svg" width="24" height="24" fill="none" viewBox="0 0 24 24">
  <path fill="#000" fill-rule="evenodd" d="M21.533 12.847H20.26V8.669h1.273a.404.404 0 0 0 .417-.423.372.372 0 0 0-.417-.422h-.555l-1.976-3.968a.419.419 0 0 0-.416-.21H16.93V2.418a.368.368 0 0 0-.417-.414H14.01a.4.4 0 0 0-.417.414v1.228h-3.332V2.418a.367.367 0 0 0-.417-.414h-2.5a.399.399 0 0 0-.416.414v1.228H5.25a.382.382 0 0 0-.347.21L2.929 7.824h-.512A.402.402 0 0 0 2 8.246a.452.452 0 0 0 .417.423h1.18v4.178h-1.18a.392.392 0 0 0-.417.398.44.44 0 0 0 .417.4h1.18v7.938a.448.448 0 0 0 .416.417h15.83a.401.401 0 0 0 .416-.418v-7.937h1.273a.391.391 0 0 0 .417-.4c0-.266-.138-.399-.416-.398ZM16.095 2.833V4.01a.437.437 0 0 0-.011.056.382.382 0 0 0 .01.047V6.15h-1.666V4.138a.51.51 0 0 0 .012-.07.608.608 0 0 0-.012-.082V2.833h1.667Zm-8.332 0H9.43v1.175a.425.425 0 0 0-.011.061.34.34 0 0 0 .011.05v2.03H7.763V2.834ZM5.53 4.483h1.4v2.082a.447.447 0 0 0 .417.414h2.5a.4.4 0 0 0 .416-.414V4.492h3.332v2.073a.447.447 0 0 0 .417.414h2.5a.4.4 0 0 0 .416-.414V4.483h1.444l1.663 3.341H3.865l1.665-3.34ZM4.43 8.67h14.997v4.178H4.431V8.669Zm9.173 12.497h-3.348v-3.312h3.348v3.313Zm5.824 0H14.44V17.44a.367.367 0 0 0-.419-.414H9.836a.4.4 0 0 0-.418.414v3.727H4.43v-7.52h14.996v7.52ZM18.195 9.514h-1.69a.402.402 0 0 0-.422.415v1.658a.45.45 0 0 0 .422.415h1.69a.4.4 0 0 0 .422-.415V9.93a.368.368 0 0 0-.252-.401.37.37 0 0 0-.17-.014Zm-.422 1.66h-.845v-.83h.845v.83Zm-2.91-1.66h-1.69a.403.403 0 0 0-.422.415v1.658a.45.45 0 0 0 .422.415h1.69a.4.4 0 0 0 .422-.415V9.93a.369.369 0 0 0-.423-.415Zm-.423 1.66h-.845v-.83h.845v.83Zm-3.747-1.66H9.035a.398.398 0 0 0-.415.415v1.658a.445.445 0 0 0 .415.415h1.658a.399.399 0 0 0 .415-.415V9.93a.368.368 0 0 0-.415-.415Zm-.415 1.66H9.45v-.83h.83v.83Zm-2.926-1.66h-1.69a.402.402 0 0 0-.422.415v1.658a.45.45 0 0 0 .423.415h1.69a.4.4 0 0 0 .422-.415V9.93a.37.37 0 0 0-.423-.415Zm-.422 1.66h-.845v-.83h.845v.83Zm8.771 6.649h2.5a.4.4 0 0 0 .416-.417v-2.5a.369.369 0 0 0-.416-.416h-2.5a.401.401 0 0 0-.416.417v2.5a.448.448 0 0 0 .416.415Zm.417-2.5h1.666v1.667h-1.666v-1.667Zm-10.455 2.5h2.534a.4.4 0 0 0 .423-.417v-2.5a.37.37 0 0 0-.423-.416H5.663a.404.404 0 0 0-.423.417v2.5a.45.45 0 0 0 .423.415Zm.422-2.5h1.69v1.667h-1.69v-1.667Z" clip-rule="evenodd"/>
</svg>
