<svg xmlns="http://www.w3.org/2000/svg" width="24" height="24" fill="none" viewBox="0 0 24 24">
  <path fill="#000" fill-rule="evenodd" d="M19.56 21.2h-4.183v-7.939a.4.4 0 0 0-.417-.416h-.606L12.38 8.876a.382.382 0 0 0-.347-.209.42.42 0 0 0-.417.21L9.64 12.844h-.512a.367.367 0 0 0-.417.416v7.94H4.528c-.278 0-.417.133-.417.399a.391.391 0 0 0 .417.4H19.56a.44.44 0 0 0 .417-.4.393.393 0 0 0-.418-.4Zm-6.66-.034h-1.665V19.5H12.9v1.666Zm1.643 0h-.809v-2.083a.401.401 0 0 0-.416-.417h-2.5a.369.369 0 0 0-.417.417v2.084h-.857v-7.49H9.9c.017 0 .032.013.05.013h4.166c.017 0 .032-.01.049-.013h.379v7.49ZM12.032 9.993l1.385 2.852h-2.84l1.455-2.852ZM10.5 5.283l-.556 1.605a.464.464 0 0 0 .14.489.597.597 0 0 0 .487 0l1.46-1.117 1.393 1.117c.07 0 .139.07.277.07.07 0 .14-.07.21-.07a.433.433 0 0 0 .138-.489l-.418-1.606 1.111-.907a.333.333 0 0 0 .14-.419.355.355 0 0 0-.348-.277h-1.462l-.695-1.467a.383.383 0 0 0-.348-.209.42.42 0 0 0-.418.21l-.696 1.466h-1.39a.382.382 0 0 0-.418.277.463.463 0 0 0 .14.489l1.254.837Zm.696-.768a.462.462 0 0 0 .348-.278l.487-.908.417.908a.47.47 0 0 0 .418.278h.417l-.348.277a.496.496 0 0 0-.208.42l.209.697-.696-.488a.255.255 0 0 0-.21-.07c-.138 0-.208 0-.277.07l-.556.418.21-.558a.4.4 0 0 0-.14-.489l-.417-.277h.346Zm5.583 4.1-.556 1.606a.467.467 0 0 0 .139.489.587.587 0 0 0 .483 0l1.45-1.117 1.38 1.117c.069 0 .138.07.278.07.069 0 .138-.07.207-.07a.436.436 0 0 0 .138-.489l-.414-1.606 1.104-.907a.336.336 0 0 0 .139-.419.353.353 0 0 0-.345-.277h-1.45l-.69-1.467a.378.378 0 0 0-.346-.209.416.416 0 0 0-.414.209l-.69 1.467h-1.38a.379.379 0 0 0-.415.277.466.466 0 0 0 .138.489l1.244.837Zm.69-.767a.461.461 0 0 0 .345-.278l.483-.908.414.908a.467.467 0 0 0 .415.278h.414l-.345.277a.5.5 0 0 0-.208.42l.208.697-.69-.488a.25.25 0 0 0-.207-.07c-.139 0-.208 0-.278.07l-.552.418.207-.558a.402.402 0 0 0-.138-.489l-.414-.277h.346Zm4.503 6.107a.355.355 0 0 0-.348-.278h-1.462l-.696-1.466a.382.382 0 0 0-.348-.209.42.42 0 0 0-.417.21l-.696 1.465h-1.392a.381.381 0 0 0-.417.278.463.463 0 0 0 .14.488l1.252.838-.556 1.606a.465.465 0 0 0 .14.489.594.594 0 0 0 .486 0l1.462-1.117 1.388 1.117c.07 0 .14.07.278.07.07 0 .14-.07.209-.07a.432.432 0 0 0 .14-.489l-.418-1.606 1.11-.907a.336.336 0 0 0 .145-.419Zm-1.949.838a.498.498 0 0 0-.208.419l.208.698-.695-.489a.254.254 0 0 0-.209-.07c-.14 0-.209 0-.278.07l-.555.419.208-.559a.4.4 0 0 0-.139-.488l-.417-.278h.348a.463.463 0 0 0 .348-.278l.487-.907.417.907a.468.468 0 0 0 .418.278h.418l-.35.278Zm-13.69 2.583c.07 0 .14.07.279.07.07 0 .14-.07.209-.07a.432.432 0 0 0 .14-.489l-.419-1.606 1.111-.907a.337.337 0 0 0 .14-.419.356.356 0 0 0-.348-.278H5.984l-.696-1.466a.382.382 0 0 0-.347-.209.42.42 0 0 0-.418.21l-.696 1.465H2.438a.381.381 0 0 0-.417.278.463.463 0 0 0 .139.488l1.253.838-.556 1.606a.464.464 0 0 0 .139.489.595.595 0 0 0 .487 0l1.462-1.117 1.39 1.117ZM4.11 15.84l.208-.559a.4.4 0 0 0-.139-.488l-.418-.278h.349a.463.463 0 0 0 .347-.278l.487-.907.418.907a.47.47 0 0 0 .417.278h.418l-.348.278a.499.499 0 0 0-.209.419l.209.698-.696-.489a.255.255 0 0 0-.209-.07c-.139 0-.208 0-.277.07l-.557.419Zm.148-7.225-.555 1.606a.465.465 0 0 0 .139.489.596.596 0 0 0 .487 0L5.79 9.593l1.39 1.117c.07 0 .139.07.277.07.07 0 .14-.07.209-.07a.433.433 0 0 0 .14-.489l-.419-1.606 1.111-.907a.333.333 0 0 0 .14-.419.356.356 0 0 0-.348-.277H6.832l-.696-1.467a.382.382 0 0 0-.348-.209.42.42 0 0 0-.418.209l-.695 1.467H3.283a.381.381 0 0 0-.417.277.463.463 0 0 0 .138.489l1.253.837Zm.696-.767a.463.463 0 0 0 .348-.278l.487-.908.418.908a.47.47 0 0 0 .417.278h.418l-.348.277a.5.5 0 0 0-.209.42l.209.697-.696-.488a.255.255 0 0 0-.209-.07c-.14 0-.209 0-.277.07l-.556.418.208-.558a.4.4 0 0 0-.138-.489l-.418-.277h.346Zm6.246 7.094v.407a.433.433 0 0 1-.4.406.389.389 0 0 1-.398-.406v-.407a.356.356 0 0 1 .399-.407.387.387 0 0 1 .399.407Zm2.535 0v.407a.445.445 0 0 1-.585.383.397.397 0 0 1-.26-.383v-.407c0-.271.14-.407.422-.407a.398.398 0 0 1 .423.407ZM11.2 17.023v.422a.444.444 0 0 1-.4.423.394.394 0 0 1-.398-.423v-.422c0-.281.133-.422.399-.423a.394.394 0 0 1 .399.423Zm2.535 0v.422a.455.455 0 0 1-.423.423.407.407 0 0 1-.422-.423v-.422a.374.374 0 0 1 .422-.423.408.408 0 0 1 .423.423Z" clip-rule="evenodd"/>
</svg>
