<svg xmlns="http://www.w3.org/2000/svg" width="24" height="24" fill="none" viewBox="0 0 24 24">
  <path fill="#000" fill-rule="evenodd" d="M19.084 21.19h-4.99a.448.448 0 0 1-.416-.419v-5.435h-3.327v5.435a.448.448 0 0 1-.416.419h-4.99a.448.448 0 0 1-.417-.419V12.41a.416.416 0 1 1 .832 0v7.944h4.159v-5.435a.449.449 0 0 1 .415-.418h4.16a.448.448 0 0 1 .415.418v5.435h4.158v-7.526a.416.416 0 1 1 .832 0v7.944a.448.448 0 0 1-.415.419Zm2.811-8.915a.42.42 0 0 0 0-.555l-9.59-9.564a.326.326 0 0 0-.557 0L2.156 11.72a.323.323 0 0 0 0 .555.425.425 0 0 0 .556 0l9.314-9.288 9.314 9.288a.36.36 0 0 0 .278.138.523.523 0 0 0 .277-.138Zm-3.193-6.098V3.254a.448.448 0 0 0-.417-.417h-2.92a.417.417 0 1 0 0 .834h2.503v2.504a.417.417 0 1 0 .834 0v.002Z" clip-rule="evenodd"/>
</svg>
