<svg xmlns="http://www.w3.org/2000/svg" width="24" height="24" fill="none" viewBox="0 0 24 24">
  <path fill="#000" fill-rule="evenodd" d="M15.715 5.339a1.576 1.576 0 0 1 .983-1.595 1.273 1.273 0 0 0 .702-1.318.421.421 0 1 1 .843 0 1.991 1.991 0 0 1-1.123 2.01.868.868 0 0 0-.562.9.421.421 0 1 1-.843 0v.003Zm2.52.416a.446.446 0 0 0 .414-.416.869.869 0 0 1 .551-.902c.482-.277 1.103-.693 1.103-2.01a.414.414 0 1 0-.827 0 1.278 1.278 0 0 1-.69 1.318 1.575 1.575 0 0 0-.964 1.596.446.446 0 0 0 .413.414Zm.81 7.486a.447.447 0 0 0-.414.418v7.507h-4.149v-5.422a.447.447 0 0 0-.414-.417H9.919a.447.447 0 0 0-.415.417v5.422H5.356v-7.925a.415.415 0 1 0-.83 0v8.342a.447.447 0 0 0 .415.417h4.978a.447.447 0 0 0 .415-.417v-5.422h3.318v5.422a.448.448 0 0 0 .416.417h4.978a.447.447 0 0 0 .415-.417V13.66a.448.448 0 0 0-.415-.418Zm2.782-.134a.36.36 0 0 1-.277.139.529.529 0 0 1-.277-.139l-9.281-8.844-9.282 8.844a.422.422 0 0 1-.554 0 .323.323 0 0 1 0-.553l9.557-9.12a.325.325 0 0 1 .554 0l2.874 2.742h3.104a.448.448 0 0 1 .416.417v2.943l3.163 3.018a.323.323 0 0 1 .003.553Zm-5.81-6.098L17.83 8.74V7.01h-1.815Z" clip-rule="evenodd"/>
</svg>
