<svg xmlns="http://www.w3.org/2000/svg" width="24" height="24" fill="none" viewBox="0 0 24 24">
  <path fill="#000" fill-rule="evenodd" d="M21.558 11.901a.467.467 0 0 0 .416-.277.43.43 0 0 0-.139-.486l-2.368-1.753V5.667a.4.4 0 0 0-.416-.418h-2.494a.448.448 0 0 0-.417.418v1.258l-3.878-2.873a.591.591 0 0 0-.485 0l-9.575 7.086a.431.431 0 0 0-.14.486c0 .138.209.277.348.277h2.066v7.496H2.408a.422.422 0 0 0 0 .843h19.126a.422.422 0 0 0 0-.843h-2.068v-7.496h2.092Zm-4.586-5.818h1.663V8.77l-1.663-1.23V6.082Zm-4.989-1.127 8.326 6.112H19.1a.386.386 0 0 0-.048-.01H4.894a.318.318 0 0 0-.042.01H3.66l8.323-6.112Zm-2.53 12.755H7.79v-3.295h1.663v3.294Zm-2.464.843h3.31v.843H6.99v-.843Zm11.645.843h-7.506v-1.265a.402.402 0 0 0-.414-.422h-.43v-3.708a.4.4 0 0 0-.417-.414H7.373a.447.447 0 0 0-.416.414v3.708h-.383a.45.45 0 0 0-.414.422v1.265h-.854v-7.496h13.326l.002 7.496Zm-6.245-2.483h4.177a.397.397 0 0 0 .39-.254.4.4 0 0 0 .028-.162v-2.495a.4.4 0 0 0-.418-.415H12.39a.45.45 0 0 0-.418.416v2.494a.448.448 0 0 0 .415.416h.003Zm.418-2.495h3.342v1.663h-3.342V14.42Z" clip-rule="evenodd"/>
</svg>
