<svg xmlns="http://www.w3.org/2000/svg" width="24" height="24" fill="none" viewBox="0 0 24 24">
  <path fill="#000" d="M21.591 19.82h-1.224v-8.152l.946.587c.081.055.18.08.277.07a.384.384 0 0 0 .348-.209.434.434 0 0 0-.14-.554l-2.274-1.41V6.089a.447.447 0 0 0-.414-.418h-1.655a.399.399 0 0 0-.414.418v2.523L9.723 4.077a.363.363 0 0 0-.555.138.42.42 0 0 0 .07.555l1.149.713v4.449L2.232 13.18a.462.462 0 0 0-.208.553.38.38 0 0 0 .417.277h.138l1.11-.442v6.251H2.464a.422.422 0 0 0 0 .843h19.127a.422.422 0 0 0 0-.843v.001ZM17.868 6.506h.828v3.132l-.828-.513V6.506Zm1.656 4.64v8.674h-.844v-2.91a.447.447 0 0 0-.415-.416h-5.821a.4.4 0 0 0-.416.417v2.91h-.841V5.976l8.337 5.169Zm-4.17 8.674H12.86v-2.492h2.494v2.492Zm.843-2.492h1.652v2.492h-1.652v-2.492ZM4.532 13.233l5.856-2.333v8.92h-.843v-3.752a.448.448 0 0 0-.417-.418H5.792a.4.4 0 0 0-.417.418v3.752h-.843v-6.587Zm4.179 6.587H6.207v-3.336H8.71l.002 3.336Zm4.98-7.074a1.663 1.663 0 1 0 0-3.327 1.663 1.663 0 0 0 0 3.327Zm0-2.495a.832.832 0 1 1-.001 1.663.832.832 0 0 1 0-1.663Zm-8.317 4.181a.403.403 0 0 1 .417-.421h3.336a.422.422 0 0 1 0 .843H5.79a.402.402 0 0 1-.416-.421Z"/>
</svg>
