<svg xmlns="http://www.w3.org/2000/svg" width="24" height="24" fill="none" viewBox="0 0 24 24">
  <path fill="#000" fill-rule="evenodd" d="m21.955 13.418-2.5-5.817a.382.382 0 0 0-.416-.277h-.43V4.843h.43a.421.421 0 1 0 0-.843h-3.245a.422.422 0 1 0 0 .843h.335v2.481h-2.005L12.32 5.051a.388.388 0 0 0-.622 0L9.894 7.324H7.795V4.843h.431a.422.422 0 1 0 0-.843H4.973a.422.422 0 0 0 0 .843h.335v2.481h-.409a.354.354 0 0 0-.346.277l-2.5 5.817a.309.309 0 0 0 0 .347c.139.138.209.207.347.207h1.27v6.233a.447.447 0 0 0 .415.416h15.788a.399.399 0 0 0 .416-.416v-6.233h1.244a.383.383 0 0 0 .347-.207c.144-.07.144-.208.075-.347Zm-5.002-8.575h.826v2.481h-.826V4.843ZM11.97 5.951l3.732 4.71h-.775a.461.461 0 0 0-.06-.012H9.051a.358.358 0 0 0-.048.011h-.691l3.659-4.709Zm2.48 13.838h-.807v-4.56a.399.399 0 0 0-.416-.414h-2.493a.446.446 0 0 0-.415.415v4.558h-.855v-8.297h4.987v8.297Zm-1.638 0H11.15v-4.144h1.662v4.143ZM6.138 4.842h.826v2.481h-.826v-2.48ZM5.18 8.155h.495a.299.299 0 0 0 .048.012h1.654a.374.374 0 0 0 .059-.012H9.23L7.134 10.8a.428.428 0 0 0-.07.485.38.38 0 0 0 .346.207h1.224v1.639H4.09a.413.413 0 0 0-.048.011H3.1l2.08-4.986Zm-.677 5.817h4.131v5.816h-4.13v-5.816Zm14.959 5.816h-4.179v-5.826h.008v.01h4.17v5.816Zm.474-6.647a.445.445 0 0 0-.06-.011h-4.592v-1.64h1.248a.418.418 0 0 0 .415-.207.427.427 0 0 0-.07-.485s0-.003-2.097-2.644h1.71a.311.311 0 0 0 .048.012h1.655a.371.371 0 0 0 .058-.012h.51l2.153 4.986h-.978Zm-3.397 4.156h1.655a.399.399 0 0 0 .413-.414V15.23a.396.396 0 0 0-.413-.414H16.54a.444.444 0 0 0-.413.414v1.654a.445.445 0 0 0 .412.414h.001Zm.414-1.655h.827v.827h-.827v-.827Zm-9.574-.827H5.725a.444.444 0 0 0-.413.414v1.654a.445.445 0 0 0 .413.414H7.38a.399.399 0 0 0 .413-.414V15.23a.397.397 0 0 0-.415-.413h.002Zm-.414 1.654h-.827v-.827h.827v.827Z" clip-rule="evenodd"/>
</svg>
