<svg xmlns="http://www.w3.org/2000/svg" width="24" height="24" fill="none" viewBox="0 0 24 24">
  <path fill="#000" fill-rule="evenodd" d="m15.795 5.744 2.939-1.172a.705.705 0 0 0 .283-.354.388.388 0 0 0-.212-.354 4.436 4.436 0 0 0-4.826-.283 4.352 4.352 0 0 0-1.783 1.705 4.619 4.619 0 0 0-1.833-1.705 4.468 4.468 0 0 0-4.843.283.258.258 0 0 0-.142.354.389.389 0 0 0 .214.354l2.957 1.175c-2.43.064-5.027.982-6.142 3.676a.32.32 0 0 0 0 .358.39.39 0 0 0 .356.214c.781.072 1.563.072 2.274.072 2.058.09 4.107-.326 5.967-1.211L6.841 16.42c-2.675.478-4.84 1.663-4.84 3.962a.407.407 0 0 0 .424.423h15.162a.406.406 0 0 0 .425-.423c0-2.563-2.688-3.744-5.777-4.102l.363-7.69c1.514 1.263 3.522 1.525 5.635 1.525.851 0 1.773-.072 2.624-.072.233-.055.472-.08.712-.07a.391.391 0 0 0 .355-.214.538.538 0 0 0 .07-.356c-1.161-2.681-3.768-3.595-6.199-3.659ZM14.333 4.29a4.079 4.079 0 0 1 1.774-.425c.49-.015.975.081 1.42.284l-4.826 1.91a3.879 3.879 0 0 1 1.632-1.77Zm-4.326 0a3.889 3.889 0 0 1 1.638 1.769l-4.843-1.91a3.905 3.905 0 0 1 3.205.14ZM3.472 9.21c1.845-3.216 6.452-2.794 8.306-2.151v.368C9.152 9.208 6.524 9.279 3.472 9.208Zm13.689 10.75H2.847c.425-2.184 4.038-2.957 7.155-2.957 3.118 0 6.734.773 7.159 2.957Zm-7.156-3.805c-.691 0-1.382.037-2.07.11l3.712-6.846-.131 3.335h-.602a.384.384 0 0 0-.432.432.415.415 0 0 0 .432.431h.566l-.032.815h-.97a.379.379 0 0 0-.428.432.41.41 0 0 0 .428.43h.936c-.01.29-.023.593-.035.911a18.53 18.53 0 0 0-1.374-.05Zm10.78-6.966c-3.114.142-6.3.354-8.143-1.768v-.373c1.85-.638 6.444-1.058 8.284 2.141h-.142Z" clip-rule="evenodd"/>
</svg>
