<svg xmlns="http://www.w3.org/2000/svg" width="24" height="24" fill="none" viewBox="0 0 24 24">
  <path fill="#000" fill-rule="evenodd" d="M22.06 21.12h-7.14l.582-3.249.431.077h.072a.526.526 0 0 0 .425-.358.537.537 0 0 0-.354-.5l-.42-.074.45-2.503.404.07h.072a.449.449 0 0 0 .425-.35.526.526 0 0 0-.355-.49l-.396-.07.445-2.48.41.074h.07a.4.4 0 0 0 .428-.361.384.384 0 0 0-.357-.505l-.396-.07.46-2.57.396.07a.07.07 0 0 0 .071.07c.213 0 .355-.212.426-.353 0-.283-.142-.495-.355-.495l-2.142-.379L16 4.987l.435.08h.072a.398.398 0 0 0 .426-.356c.072-.214-.071-.428-.356-.499l-2.487-.455.2-1.243c.07-.214-.138-.429-.346-.5-.209-.071-.417.143-.486.357l-.2 1.233-2.51-.46c-.285 0-.498.142-.498.356-.071.285.07.499.284.499l.43.078-.283 1.71-2.05-.361a.358.358 0 0 0-.497.354.327.327 0 0 0 .355.425l.427.075-.5 2.54-.43-.076c-.214-.072-.428.144-.5.36a.544.544 0 0 0 .357.506l.404.071-.494 2.509-.326-.054a.532.532 0 0 0-.497.35c-.07.21.143.42.355.49l.301.054-.485 2.468-.251-.044c-.284 0-.497.142-.497.357-.07.285.071.5.355.5l.225.04-.94 4.775H2.432a.411.411 0 0 0-.427.435.381.381 0 0 0 .427.436h19.624a.413.413 0 0 0 .427-.436.462.462 0 0 0-.422-.44ZM13.19 4.477l.362.07a.11.11 0 0 0 .05.038.378.378 0 0 0 .076-.014l1.475.283-.284 1.64-3.33-.57.28-1.695 1.37.248ZM9.703 6.49l1.26.213.008.002 4.18.713h.068l1.246.21-.458 2.548L9.22 8.961l.484-2.47Zm-.648 3.331 6.803 1.218-.445 2.484-6.844-1.198.486-2.504Zm-.65 3.343 6.857 1.197-.449 2.504-6.888-1.227.48-2.474Zm-.648 3.324 6.902 1.23-.61 3.4H11.93c.06-.363.163-.983.344-2.054a.314.314 0 0 0-.287-.427l-1.719-.428a.407.407 0 0 0-.5.285s0 .007-.755 2.624H6.856l.901-4.63Zm3.303 4.63H9.843l.641-1.983.932.213-.356 1.77Z" clip-rule="evenodd"/>
</svg>
