<svg xmlns="http://www.w3.org/2000/svg" width="24" height="24" fill="none" viewBox="0 0 24 24">
  <path fill="#000" fill-rule="evenodd" d="M6.266 9.455a.524.524 0 0 0 .276-.139c.14-.207 1.799-2.209 1.799-3.244A2.04 2.04 0 0 0 6.266 4a2.078 2.078 0 0 0-2.074 2.072c0 1.035 1.66 3.037 1.799 3.244a.522.522 0 0 0 .275.139Zm0-4.833a1.507 1.507 0 0 1 1.452 1.449c0 .482-.76 1.588-1.452 2.485-.692-.897-1.383-2.002-1.383-2.485a1.449 1.449 0 0 1 1.383-1.449Zm.815 1.43a.816.816 0 1 0-.815.839.797.797 0 0 0 .815-.837v-.002Zm-.815.28a.28.28 0 1 1 .272-.28.297.297 0 0 1-.272.28Zm13.867 8.649V9.358a.445.445 0 0 0-.413-.416h-9.523a.447.447 0 0 0-.414.416v5.623a.388.388 0 0 0 .414.347h9.52a.387.387 0 0 0 .416-.347Zm-.758-.416h-8.831v-4.86h8.83v4.86Zm2.278 1.309h-.207V8.971a1.236 1.236 0 0 0-1.242-1.242H9.714a1.233 1.233 0 0 0-1.241 1.242v6.9h-.208a.326.326 0 0 0-.345.344v1.174a.93.93 0 0 0 .897.965h12.217a.943.943 0 0 0 .965-.965v-1.174a.326.326 0 0 0-.346-.345v.002ZM9.233 8.971a.471.471 0 0 1 .482-.483h10.49a.47.47 0 0 1 .483.483v6.9h-4.279a.387.387 0 0 0-.414.344v.207h-2.14v-.207a.325.325 0 0 0-.344-.345H9.23l.001-6.9Zm12.007 8.422a.183.183 0 0 1-.207.208H8.818c-.07 0-.138-.07-.138-.208v-.759h4.415v.207a.387.387 0 0 0 .415.345h2.897a.323.323 0 0 0 .324-.21.325.325 0 0 0 .02-.135v-.207h4.486l.003.76Zm-6.257-3.182a.522.522 0 0 0 .276-.138c.206-.208 1.24-1.59 1.24-2.281a1.517 1.517 0 1 0-3.03 0c0 .76 1.033 2.073 1.24 2.28a.354.354 0 0 0 .274.135v.004Zm0-3.318a.912.912 0 0 1 .896.899 4.69 4.69 0 0 1-.896 1.52 4.18 4.18 0 0 1-.895-1.52.912.912 0 0 1 .895-.902v.003Zm-.023 1.22a.376.376 0 1 1 .42-.376.399.399 0 0 1-.42.373v.003Zm-10.266.84A2.716 2.716 0 0 0 2 15.723c0 1.384 2.14 4.017 2.414 4.363a.344.344 0 0 0 .552 0c.276-.346 2.485-2.979 2.485-4.364a2.773 2.773 0 0 0-2.759-2.772v.002Zm0 6.232c-.966-1.247-1.932-2.77-1.932-3.463a1.948 1.948 0 0 1 1.932-2.008 2.007 2.007 0 0 1 2.001 2.008c0 .69-1.035 2.214-2.002 3.46v.003Zm-.013-4.788a1.255 1.255 0 0 0-1.233 1.317 1.235 1.235 0 1 0 2.47 0 1.254 1.254 0 0 0-1.237-1.32v.003Zm0 1.802a.472.472 0 0 1-.48-.483.483.483 0 1 1 .961 0 .472.472 0 0 1-.481.48v.003Zm3.264 2.347a.441.441 0 0 1-.138.56l-1.244.769c-.07 0-.138.07-.207.07-.139 0-.208-.07-.277-.21a.421.421 0 0 1-.07-.28c0-.07.07-.21.14-.21l1.242-.839H7.6c.128.003.25.052.344.138l.001.002Zm3.166-5.92a.956.956 0 0 1-.205-.28c0-.07.068-.21.068-.28a.514.514 0 0 1 .451-.128.247.247 0 0 1 .094.059l.068.07a.379.379 0 0 1-.204.697c-.068 0-.136-.07-.204-.07l-.068-.068Zm.867.14c0-.07.14-.14.21-.14h.07a.256.256 0 0 1 .21.07l.14.07a.424.424 0 0 1 .07.56.531.531 0 0 1-.28.139c-.07 0-.21 0-.21-.07l-.14-.07a.364.364 0 0 1-.072-.562l.002.003Zm1.068 1.22a.342.342 0 0 1-.136-.265.486.486 0 0 1 .068-.264.528.528 0 0 1 .34-.132.258.258 0 0 1 .206.066l.068.066a.336.336 0 0 1 .148.4.339.339 0 0 1-.08.129.358.358 0 0 1-.273.132.257.257 0 0 1-.205-.066l-.136-.066Zm-5.59-4.833.56.35a.363.363 0 0 1 .139.28.42.42 0 0 1-.07.279.36.36 0 0 1-.28.14.257.257 0 0 1-.21-.07l-.56-.35a.362.362 0 0 1-.14-.279.36.36 0 0 1 .35-.42c.07-.002.21-.002.21.068v.002Z" clip-rule="evenodd"/>
</svg>
