<svg xmlns="http://www.w3.org/2000/svg" width="24" height="24" fill="none" viewBox="0 0 24 24">
  <path fill="#000" fill-rule="evenodd" d="M22 9.754v-.863c-2.168.072-3.54.935-3.902 2.518-.361 1.87.65 2.662 1.518 3.454.794.648 1.517 1.295 1.517 2.663 0 1.223-.288 2.014-.867 2.302-.576.365-1.492.124-2.146-.145l.843-.66c.144 0 .215-.145.215-.289a.288.288 0 0 0-.143-.288l-4.63-5.648 6.794-7.43a.531.531 0 0 0-.072-.649l-3.45-2.665a.46.46 0 0 0-.432 0 .35.35 0 0 0-.215.432l.215 1.945-2.015.288a.544.544 0 0 0-.287.144c0 .144-.072.216-.072.36l.287 1.944-2.014.288a.374.374 0 0 0-.288.144c-.072.072-.144.216-.072.288L13 9.759h-2.732l.288-1.872a.433.433 0 0 0-.072-.288.546.546 0 0 0-.288-.144l-2.084-.288.287-1.945a.54.54 0 0 0-.072-.36.373.373 0 0 0-.287-.143L6.025 4.43l.288-1.945a.436.436 0 0 0-.216-.432.613.613 0 0 0-.503 0L2.216 4.719c-.144.072-.144.216-.216.288a.552.552 0 0 0 .144.36l6.722 7.426-4.63 5.65c-.072.073-.144.216-.072.288 0 .144.072.288.143.288l2.73 2.082c.07.072.143.072.287.072a.287.287 0 0 0 .288-.143l4.022-4.883 4.021 4.883a.455.455 0 0 0 .646.071l1.025-.805c.66.355 1.391.562 2.14.605.44.026.873-.101 1.228-.36.868-.431 1.302-1.51 1.302-3.021 0-1.8-1.013-2.663-1.807-3.31-.867-.72-1.517-1.295-1.228-2.662.366-1.434 1.883-1.794 3.039-1.794ZM5.312 3.422l-.215 1.297c.017.121.04.241.072.36.08.075.18.126.288.143l2.015.288-.216 1.945a.653.653 0 0 0 .072.36.374.374 0 0 0 .287.144l2.015.287-.288 1.873a.551.551 0 0 0 .144.36c.08.076.18.126.288.144h3.738c.144 0 .216-.072.36-.144a.544.544 0 0 0 .071-.36l-.288-1.873 2.085-.287a.546.546 0 0 0 .287-.144.54.54 0 0 0 .072-.36l-.287-1.945 2.014-.288a.374.374 0 0 0 .288-.143.433.433 0 0 0 .072-.288l-.144-1.37L20.2 5.15l-6.546 7.193H9.636L3.09 5.149l2.221-1.727ZM16.09 20.169l-4.093-4.954c-.072-.144-.216-.144-.359-.144s-.216 0-.288.144L7.257 20.17l-2.083-1.51 4.524-5.456h3.95l4.453 5.456-2.01 1.508Z" clip-rule="evenodd"/>
</svg>
