<svg xmlns="http://www.w3.org/2000/svg" width="24" height="24" fill="none" viewBox="0 0 24 24">
  <path fill="#000" fill-rule="evenodd" d="M17.358 21.157H15.29v-9.973h.426a.421.421 0 0 0 0-.843h-1.272V7.016h.428a.421.421 0 0 0 0-.842h-.47a2.467 2.467 0 0 0-2.44-2.06V2.42a.421.421 0 0 0-.843 0v1.85a2.46 2.46 0 0 0-1.596 1.905h-.47a.421.421 0 0 0 0 .842h.427v3.325H8.212a.422.422 0 0 0 0 .843h.426v9.973H6.57a.421.421 0 0 0 0 .843h10.783a.421.421 0 0 0 0-.843h.004ZM11.966 4.943a1.679 1.679 0 0 1 1.59 1.23h-3.178a1.678 1.678 0 0 1 1.588-1.23Zm-1.654 2.073h3.309v3.325h-3.309V7.016Zm-.84 4.168h4.988v9.973h-.855v-2.066a.444.444 0 0 0-.41-.415h-2.458a.443.443 0 0 0-.41.415v2.066h-.854v-9.973Zm3.314 9.973h-1.64v-1.65h1.64v1.65ZM2.016 5.632a.47.47 0 0 1 .553-.278l4.976 1.67a.474.474 0 0 1 .277.557.466.466 0 0 1-.415.278h-.14L2.292 6.19a.474.474 0 0 1-.276-.557Zm5.53 3.881-4.976 1.67h-.138a.567.567 0 0 1-.415-.278.473.473 0 0 1 .277-.556l4.976-1.67a.44.44 0 0 1 .277.834Zm8.563-1.932a.474.474 0 0 1 .277-.557l4.976-1.67a.44.44 0 0 1 .277.835l-4.977 1.67h-.138a.568.568 0 0 1-.415-.278Zm5.808 3.324a.467.467 0 0 1-.414.279h-.139l-4.976-1.67a.44.44 0 0 1 .276-.836l4.977 1.67a.473.473 0 0 1 .277.557ZM5.747 7.86a.398.398 0 1 1 0 .795H4.092a.398.398 0 1 1 0-.795h1.655Zm14.094 0a.398.398 0 1 1 0 .795h-1.655a.398.398 0 1 1 0-.795h1.655Z" clip-rule="evenodd"/>
</svg>
