<svg xmlns="http://www.w3.org/2000/svg" width="24" height="24" fill="none" viewBox="0 0 24 24">
  <path fill="#000" fill-rule="evenodd" d="M11.844 19.086a.531.531 0 0 0 .347-.14c.21-.346 5.496-7.569 5.496-11.111C17.687 4.155 15.53 2 11.843 2 8.09 2 6 4.153 6 7.835c0 3.542 5.287 10.765 5.496 11.112a.532.532 0 0 0 .348.139Zm0-16.251c3.2 0 5.008 1.805 5.008 5 0 2.778-3.826 8.473-5.008 10.14-1.183-1.667-5.01-7.362-5.01-10.14 0-3.195 1.738-5 5.01-5Zm2.51 4.986a2.511 2.511 0 1 0-2.51 2.486 2.487 2.487 0 0 0 2.509-2.486h.001Zm-4.185 0a1.675 1.675 0 1 1 1.675 1.659 1.69 1.69 0 0 1-1.675-1.659Zm5.574 11.692-2.611.863 2.61.862a.39.39 0 0 1 .28.483.433.433 0 0 1-.419.276h-.139l-3.62-1.196-3.622 1.196h-.139a.382.382 0 0 1-.38-.576.391.391 0 0 1 .24-.183l2.612-.862-2.611-.863a.469.469 0 0 1-.279-.552.386.386 0 0 1 .558-.206l3.622 1.195 3.62-1.195c.21-.139.418 0 .558.206a.469.469 0 0 1-.282.552h.002Z" clip-rule="evenodd"/>
</svg>
