<svg xmlns="http://www.w3.org/2000/svg" width="24" height="24" fill="none" viewBox="0 0 24 24">
  <path fill="#000" fill-rule="evenodd" d="M11.982 2.545A5.868 5.868 0 0 0 6.148 8.38c0 2.847 4.584 10.139 5.834 12.153 1.32-2.014 5.834-9.306 5.834-12.153a5.823 5.823 0 0 0-5.834-5.834Zm0 19.167c-.14 0-.208-.07-.346-.139-.208-.417-6.32-9.653-6.32-13.194a6.667 6.667 0 1 1 13.334 0c0 3.54-6.042 12.777-6.32 13.194a.533.533 0 0 1-.348.139Zm0-15.413a2.132 2.132 0 0 0-2.08 2.08 2.085 2.085 0 0 0 2.08 2.079 2.042 2.042 0 0 0 2.08-2.08 2.086 2.086 0 0 0-2.08-2.079Zm0 4.99a2.883 2.883 0 0 1-2.91-2.91A2.928 2.928 0 0 1 13.1 5.682a2.885 2.885 0 0 1 1.793 2.697 2.841 2.841 0 0 1-2.911 2.91Z" clip-rule="evenodd"/>
</svg>
