<svg xmlns="http://www.w3.org/2000/svg" width="24" height="24" fill="none" viewBox="0 0 24 24">
  <path fill="#000" fill-rule="evenodd" d="M11.498 2.8a6.718 6.718 0 0 0-6.667 6.677 6.64 6.64 0 0 0 5.278 6.536c.139.069.278.139.278.346l1.111 3.756 1.04-3.756a.57.57 0 0 1 .346-.346 6.64 6.64 0 0 0 5.278-6.536A6.718 6.718 0 0 0 11.498 2.8Zm0 19.196a.381.381 0 0 1-.417-.278L9.695 16.78a7.5 7.5 0 1 1 3.61 0l-1.386 4.938a.38.38 0 0 1-.421.278Zm0-16.66a4.176 4.176 0 0 0-4.173 4.152 4.173 4.173 0 1 0 8.346 0 4.176 4.176 0 0 0-4.173-4.153Zm0 9.137a4.985 4.985 0 1 1 4.628-3.07 4.976 4.976 0 0 1-4.628 3.07Z" clip-rule="evenodd"/>
</svg>
