<svg xmlns="http://www.w3.org/2000/svg" width="24" height="24" fill="none" viewBox="0 0 24 24">
  <path fill="#000" fill-rule="evenodd" d="M11.106 9.553v9.557a.45.45 0 0 0 .42.415.401.401 0 0 0 .42-.415V9.553a3.77 3.77 0 0 0 3.316-3.71 3.737 3.737 0 1 0-7.471 0 3.77 3.77 0 0 0 3.315 3.71Zm.42-6.616a2.88 2.88 0 0 1 2.906 2.905 2.922 2.922 0 0 1-2.852 2.902c-.019 0-.033-.008-.054-.008-.02 0-.031.007-.049.008a2.922 2.922 0 0 1-2.644-4.018 2.879 2.879 0 0 1 2.693-1.789Zm-.42 1.225a.403.403 0 0 1 .42-.42 2.066 2.066 0 0 1 2.102 2.1.405.405 0 0 1-.42.42.452.452 0 0 1-.42-.42 1.258 1.258 0 0 0-1.261-1.26.452.452 0 0 1-.42-.42Zm10.787 15.76c0 2.009-8.91 2.078-9.946 2.078C10.98 22 2 21.93 2 19.922c0-1.455 4.42-1.869 7.046-2.009a.387.387 0 0 1 .414.344c0 .277-.138.485-.414.485-4.145.208-5.871.831-6.147 1.18.344.415 3.59 1.247 9.048 1.247 5.459 0 8.704-.832 9.118-1.247-.276-.344-2.349-1.04-7.046-1.247a.416.416 0 0 1 0-.831c2.417.138 7.874.485 7.874 2.078Z" clip-rule="evenodd"/>
</svg>
