<svg xmlns="http://www.w3.org/2000/svg" width="24" height="24" fill="none" viewBox="0 0 24 24">
  <path fill="#000" fill-rule="evenodd" d="M15.603 19.513 13 20.376l2.604.862a.399.399 0 0 1-.139.759h-.139l-3.61-1.196-3.611 1.196h-.14a.38.38 0 0 1-.427-.43.392.392 0 0 1 .289-.329l2.604-.862-2.604-.863a.468.468 0 0 1-.278-.552.369.369 0 0 1 .556-.207l3.61 1.196 3.611-1.196a.321.321 0 0 1 .486.207.433.433 0 0 1-.208.552Zm.278-10.848a4.178 4.178 0 1 1-4.178-4.177 4.19 4.19 0 0 1 4.178 4.177Zm-.835 0a3.389 3.389 0 0 0-3.343-3.342 3.343 3.343 0 0 0-3.342 3.342 3.298 3.298 0 0 0 3.342 3.342 3.343 3.343 0 0 0 3.343-3.342Zm3.323.003a6.76 6.76 0 0 1-5.207 6.528l-1.112 3.612c0 .208-.208.278-.347.278a.381.381 0 0 1-.416-.278l-1.111-3.612a6.684 6.684 0 1 1 8.193-6.528Zm-.834 0a5.833 5.833 0 1 0-6.943 5.764.461.461 0 0 1 .347.278l.764 2.5.761-2.5a.299.299 0 0 1 .278-.278 5.876 5.876 0 0 0 4.793-5.764Z" clip-rule="evenodd"/>
</svg>
