<svg xmlns="http://www.w3.org/2000/svg" width="24" height="24" fill="none" viewBox="0 0 24 24">
  <path fill="#000" d="M19.084 6.326h-3.782V5.06A2.076 2.076 0 0 0 13.224 3h-2.495a2.076 2.076 0 0 0-2.078 2.061v1.265H4.917A2.927 2.927 0 0 0 2 9.228v8.295a2.927 2.927 0 0 0 2.917 2.902h14.167A2.928 2.928 0 0 0 22 17.523V9.228a2.927 2.927 0 0 0-2.916-2.902Zm-10.435.83h6.65v12.438H8.65V7.155Zm-.796 12.438H6.166V7.155h1.687v12.44Zm8.29-12.439h1.686v12.44h-1.686V7.155ZM9.48 5.061a1.237 1.237 0 0 1 1.247-1.236h2.494A1.236 1.236 0 0 1 14.47 5.06v1.265H9.48V5.06Zm-6.65 12.46V9.227a2.087 2.087 0 0 1 2.085-2.073h.409v12.44h-.41a2.04 2.04 0 0 1-2.08-2.073H2.83Zm18.335 0a2.042 2.042 0 0 1-2.084 2.073h-.409V7.155h.41a2.087 2.087 0 0 1 2.083 2.073v8.293Z"/>
</svg>
