<svg xmlns="http://www.w3.org/2000/svg" width="24" height="24" fill="none" viewBox="0 0 24 24">
  <path fill="#000" fill-rule="evenodd" d="M21.562 21.102h-.424V8.218a.4.4 0 0 0-.416-.415h-.424V6.579a.424.424 0 0 0-.027-.137.193.193 0 0 0-.007-.033l-.014-.029a.158.158 0 0 0-.021-.039L17.74 2.205a.392.392 0 0 0-.69 0l-2.488 4.136a.158.158 0 0 0-.02.04c-.005.009-.011.018-.015.028a.321.321 0 0 0-.007.032.425.425 0 0 0-.027.138v1.225h-.424a.4.4 0 0 0-.416.416v2.113h-3.325V8.22a.401.401 0 0 0-.416-.416h-.424V6.58a.44.44 0 0 0-.027-.137.307.307 0 0 0-.007-.033c-.004-.01-.01-.02-.015-.029a.159.159 0 0 0-.02-.039l-2.49-4.136a.392.392 0 0 0-.688 0L3.752 6.341a.13.13 0 0 0-.02.04l-.016.028a.325.325 0 0 0-.006.032.444.444 0 0 0-.027.138v1.225h-.424a.4.4 0 0 0-.417.416v12.884h-.424a.4.4 0 0 0-.417.424.451.451 0 0 0 .417.424h8.344a.452.452 0 0 0 .417-.424.403.403 0 0 0-.417-.424h-.425v-7.446h3.325v7.446h-.424a.4.4 0 0 0-.417.424.451.451 0 0 0 .417.424h8.344a.451.451 0 0 0 .417-.424.403.403 0 0 0-.437-.426ZM17.391 3.168l1.728 2.965h-3.457l1.729-2.965Zm-2.074 3.824h4.147v.811h-4.147v-.811ZM6.573 3.168l1.729 2.965H4.845l1.728-2.965ZM4.5 6.992h4.148v.811H4.5v-.811Zm-.84 14.11V8.635h.378a.362.362 0 0 0 .048.011h4.977a.41.41 0 0 0 .048-.01h.377v2.059a.404.404 0 0 0-.01.053v2.492a.34.34 0 0 0 .01.044V21.1l-5.827.001Zm6.66-8.277v-1.662h3.325v1.662H10.32Zm4.158.46a.348.348 0 0 0 .01-.044v-2.492a.414.414 0 0 0-.01-.053v-2.06h.377a.367.367 0 0 0 .048.011h4.977a.366.366 0 0 0 .048-.01h.377v12.466h-5.827v-7.818Zm4.974-2.555a.439.439 0 0 1-.417.398H15.7a.44.44 0 0 1-.417-.398.392.392 0 0 1 .417-.398h3.334a.391.391 0 0 1 .417.398Zm0 2.505a.45.45 0 0 1-.417.422H15.7a.45.45 0 0 1-.417-.422.402.402 0 0 1 .417-.424h3.334a.4.4 0 0 1 .417.424Zm0 2.482a.452.452 0 0 1-.417.424H15.7a.452.452 0 0 1-.417-.424.402.402 0 0 1 .417-.421h3.334a.402.402 0 0 1 .417.421Zm0 2.482a.45.45 0 0 1-.417.424H15.7a.45.45 0 0 1-.417-.424.402.402 0 0 1 .417-.424h3.334a.4.4 0 0 1 .417.424Zm-10.816-7.47a.436.436 0 0 1-.412.4H4.926a.436.436 0 0 1-.412-.4.39.39 0 0 1 .412-.397h3.297a.387.387 0 0 1 .381.241c.02.05.03.103.03.157h.001Zm0 2.506a.448.448 0 0 1-.412.422H4.926a.448.448 0 0 1-.412-.422.4.4 0 0 1 .412-.424h3.297a.398.398 0 0 1 .41.424h.002Zm0 2.482a.448.448 0 0 1-.412.424H4.926a.449.449 0 0 1-.412-.424.4.4 0 0 1 .412-.421h3.297a.4.4 0 0 1 .41.421h.002Zm0 2.482a.448.448 0 0 1-.412.424H4.926a.449.449 0 0 1-.412-.424.4.4 0 0 1 .412-.424h3.297a.398.398 0 0 1 .41.424h.002Z" clip-rule="evenodd"/>
</svg>
