<svg xmlns="http://www.w3.org/2000/svg" width="24" height="24" fill="none" viewBox="0 0 24 24">
  <path fill="#000" fill-rule="evenodd" d="m14.459 3.18 5.021 3.606v3.954a.4.4 0 0 0 .417.416.447.447 0 0 0 .416-.416V6.578a.38.38 0 0 0-.208-.347L14.279 2.07c-.011-.005-.026-.003-.038-.007a.346.346 0 0 0-.18-.062.39.39 0 0 0-.2.055.548.548 0 0 0-.068.014L8.244 6.092 2.624 2.07a.442.442 0 0 0-.415 0A.38.38 0 0 0 2 2.416v13.315a.527.527 0 0 0 .14.347l5.825 4.161c.066.066.135.068.259.069h.019a.254.254 0 0 0 .208-.07l4.994-3.606c.208-.07.208-.347.138-.557a.437.437 0 0 0-.624-.07L8.65 19.11V6.776l5.012-3.588v7.568a.392.392 0 0 0 .399.418.439.439 0 0 0 .398-.418V3.181Zm-11.625.068 4.975 3.564v12.285l-4.975-3.571V3.248Zm15.371 8.728a3.735 3.735 0 0 0-3.746 3.757c0 1.95 3.053 5.707 3.4 6.126a.415.415 0 0 0 .624 0c.347-.417 3.469-4.175 3.469-6.126a3.78 3.78 0 0 0-3.747-3.758Zm0 8.977c-1.04-1.322-2.913-3.967-2.913-5.22a2.892 2.892 0 0 1 2.913-2.923 2.936 2.936 0 0 1 2.914 2.923c0 1.253-1.873 3.898-2.914 5.22Zm.024-6.87a1.662 1.662 0 1 0 0 3.325 1.662 1.662 0 0 0 0-3.325Zm0 2.493a.831.831 0 1 1 0-1.662.831.831 0 0 1 0 1.662Z" clip-rule="evenodd"/>
</svg>
