<svg xmlns="http://www.w3.org/2000/svg" width="24" height="24" fill="none" viewBox="0 0 24 24">
  <path fill="#000" fill-rule="evenodd" d="m21.8 6.622-6.347-4.546a.59.59 0 0 0-.074-.016.471.471 0 0 0-.231-.06.423.423 0 0 0-.221.075h-.004L8.8 6.47 2.756 2.075a.481.481 0 0 0-.454 0 .503.503 0 0 0-.302.38v14.547a.417.417 0 0 0 .227.379l6.348 4.545h.01c.066.045.143.07.222.074a.468.468 0 0 0 .232-.061.622.622 0 0 0 .068-.015l6.045-4.394 6.122 4.394a.378.378 0 0 0 .453 0 .417.417 0 0 0 .227-.379V7.001c-.002-.151-.002-.303-.154-.38Zm-12.535.641 5.422-3.941v13.47l-5.422 3.893V7.264Zm-6.357-3.9 5.437 3.853v13.472l-5.437-3.913V3.364Zm18.14 17.276-5.437-3.904V3.315l5.437 3.913v13.41Z" clip-rule="evenodd"/>
</svg>
