<svg xmlns="http://www.w3.org/2000/svg" width="24" height="24" fill="none" viewBox="0 0 24 24">
  <path fill="#000" fill-rule="evenodd" d="M21.995 21.572a.37.37 0 0 1-.416.425H2.42a.402.402 0 0 1-.417-.425.451.451 0 0 1 .417-.425h19.16a.402.402 0 0 1 .416.425ZM10.742 3.69c-.824 0-3.296.413-3.296 1.653a.396.396 0 0 0 .412.412.365.365 0 0 0 .412-.412c0-.276 1.511-.827 2.472-.827a.365.365 0 0 0 .412-.413.397.397 0 0 0-.412-.413Zm-8.74 16.24a.451.451 0 0 1 .417-.426h1.274v-1.267a.451.451 0 0 1 .417-.425h.428V9.505H3.264a.4.4 0 0 1-.417-.415V7.437a.447.447 0 0 1 .417-.415h.872C4.291 5.441 5.423 2 12.023 2c6.663 0 7.744 3.44 7.888 5.022h.824a.399.399 0 0 1 .416.415v1.658a.367.367 0 0 1-.416.415H19.51v8.307h.428a.403.403 0 0 1 .417.425v1.267h1.226a.404.404 0 0 1 .416.425.37.37 0 0 1-.416.425H2.42a.402.402 0 0 1-.42-.43h.002ZM18.675 9.51h-.857v8.307h.857V9.51Zm-9.165 0v8.307h.845V9.51H9.51Zm1.643 8.307h1.69V9.51h-1.69v8.307Zm2.535 0h.796V9.51h-.796v8.307Zm1.642 0h1.69V9.51h-1.691l.001 8.307ZM7.023 9.51v8.307h1.642V9.51H7.023ZM5.016 7.023h14.083c-.141-1.469-1.256-4.184-7.075-4.184-5.751 0-6.866 2.715-7.007 4.184h-.001ZM3.678 8.68h1.206a.34.34 0 0 1 .067-.016h14.14a.412.412 0 0 1 .08.016h1.147v-.83h-.696a.565.565 0 0 1-.109.017H4.53a.451.451 0 0 1-.091-.016h-.76v.829Zm1.69 9.136h.81V9.51h-.81v8.307Zm-.844 1.69h14.995v-.845H4.524v.845Z" clip-rule="evenodd"/>
</svg>
