<svg xmlns="http://www.w3.org/2000/svg" width="24" height="24" fill="none" viewBox="0 0 24 24">
  <path fill="#000" fill-rule="evenodd" d="M20.215 10.335a.422.422 0 0 0 0-.843h-1.271V4.526h1.27a.42.42 0 1 0 0-.842h-2.111V2.421a.4.4 0 0 0-.413-.42h-3.296a.448.448 0 0 0-.412.42v1.265h-9.56a.42.42 0 0 0 0 .843h1.222v4.965H4.421a.422.422 0 0 0 0 .843h1.223v4.966H4.421a.422.422 0 0 0 0 .843h1.223v5.01H4.421a.422.422 0 0 0 0 .844h15.793a.421.421 0 0 0 0-.843h-1.27v-5.01h1.27a.421.421 0 0 0 0-.844h-1.27v-4.966l1.27-.002Zm-5.41-7.492h2.472v.843h-2.472v-.843Zm-8.33 1.685h11.638v4.966H6.476V4.528Zm11.638 16.624H6.476v-5.01h11.637v5.01Zm0-5.854H6.476v-4.965h11.637v4.966Z" clip-rule="evenodd"/>
</svg>
