<svg xmlns="http://www.w3.org/2000/svg" width="24" height="24" fill="none" viewBox="0 0 24 24">
  <path fill="#000" fill-rule="evenodd" d="M20.246 21.157H19.03l-.037-.088c0-.006-.007-.013-.01-.02L14.105 9.493h1.132a.422.422 0 0 0 0-.843h-1.488l-.228-.546-.833-2.08a.462.462 0 0 0-.347-.278.469.469 0 0 0-.417.277l-.834 2.08-.228.547H9.417a.422.422 0 0 0 0 .843h1.092L5.744 20.918a.357.357 0 0 0-.086.206l-.013.033H4.406a.422.422 0 0 0 0 .843h15.841a.421.421 0 0 0 0-.843h-.001Zm-9.722-9.591 1.084.84-2.122 1.65 1.038-2.49Zm4.651 2.55-2.226-1.699 1.136-.886 1.09 2.586Zm.745 1.765 1.824 4.319-4.607-2.694 2.783-1.625Zm-.593-.593-2.994 1.748-3.032-1.77 2.987-2.33 3.04 2.352Zm-6.598.58 2.8 1.637-4.603 2.686 1.803-4.324Zm3.604 2.106 5.442 3.183H6.88l5.453-3.183Zm-.482-9.59.486-1.11.417 1.11.114.268H11.74l.111-.269Zm1.37 1.11.526 1.247-1.485 1.155-1.424-1.085.549-1.313 1.834-.003Zm.762-4.284a.435.435 0 0 1-.07-.62 3.254 3.254 0 0 1 3.733-1.17.348.348 0 0 1 .276.482c-.07.276-.276.342-.553.275a2.561 2.561 0 0 0-2.833.896.372.372 0 0 1-.276.206c-.136 0-.206-.07-.275-.07l-.002.001ZM6.632 3.902a.391.391 0 0 1 .276-.482 3.384 3.384 0 0 1 3.8 1.17.524.524 0 0 1-.138.62c-.069 0-.138.07-.207.07a.38.38 0 0 1-.342-.207 2.497 2.497 0 0 0-2.834-.896.413.413 0 0 1-.553-.276h-.002Zm5.27.588V2.416A.398.398 0 0 1 12.324 2a.45.45 0 0 1 .421.415V4.49a.45.45 0 0 1-.421.415.4.4 0 0 1-.42-.416h-.002Z" clip-rule="evenodd"/>
</svg>
