<svg xmlns="http://www.w3.org/2000/svg" width="24" height="24" fill="none" viewBox="0 0 24 24">
  <path fill="#000" d="M22 12.571a.399.399 0 0 0-.418-.417.45.45 0 0 0-.417.417 2.046 2.046 0 0 1-2.085 2.083h-2.762l2.348-8.602v-.138C18.666 3.902 15.333 3 12 3c-3.264 0-6.666.902-6.666 2.914 0 .069.069.069.069.138l1.626 6.125a4.577 4.577 0 1 0-.452 9.132 4.531 4.531 0 0 0 4.578-4.578 4.581 4.581 0 0 0-.176-1.242h7.263a2.928 2.928 0 0 0-2.695 4.028 2.884 2.884 0 0 0 2.697 1.793 2.843 2.843 0 0 0 2.91-2.91 2.883 2.883 0 0 0-2.91-2.911h.836A2.85 2.85 0 0 0 22 12.57Zm-4.179 3.797v1.608h-1.608a2.167 2.167 0 0 1 1.608-1.608Zm-1.613 2.453h1.613v1.61a2.092 2.092 0 0 1-1.613-1.61Zm2.458 1.616V18.82h1.616a2.022 2.022 0 0 1-1.616 1.616Zm1.61-2.461h-1.61v-1.614a2.09 2.09 0 0 1 1.613 1.614h-.002ZM17.833 5.914 16.82 9.666h-2.331V4.047c.568.095 1.13.23 1.678.407.625.21 1.666.696 1.666 1.46ZM13.69 3.933v5.733h-3.333V3.914A16.373 16.373 0 0 1 12 3.832a14.74 14.74 0 0 1 1.688.1h.002Zm-4.178.094v5.64H7.173L6.167 5.913c.05-.854 1.378-1.561 3.345-1.887ZM6.6 16.317a.402.402 0 0 1 .423.414.37.37 0 0 1-.423.415.403.403 0 0 1-.422-.415.45.45 0 0 1 .422-.412v-.002Zm-.422-.738a1.36 1.36 0 0 0-.127.063L4.247 13.84a3.739 3.739 0 0 1 1.932-.829v2.57Zm-.075 2.283a.873.873 0 0 0 .075.03v2.561a3.747 3.747 0 0 1-1.891-.775l1.816-1.816Zm.919.039c.04-.014.08-.029.118-.046l1.814 1.778a3.729 3.729 0 0 1-1.932.815v-2.547Zm.695-.591c.024-.043.045-.087.063-.132h2.512a3.724 3.724 0 0 1-.798 1.909L7.718 17.31Zm.07-.977a1.084 1.084 0 0 0-.047-.108l1.783-1.783c.43.546.698 1.2.776 1.89H7.788Zm-.595-.683a1.222 1.222 0 0 0-.17-.08v-2.554c.728.09 1.413.393 1.97.87l-1.8 1.764ZM3.68 14.402l1.801 1.8a1.231 1.231 0 0 0-.064.13H2.853c.087-.71.375-1.38.831-1.93h-.003Zm-.823 2.776h2.567c.024.052.05.104.08.153L3.71 19.127a3.715 3.715 0 0 1-.848-1.95h-.004Zm5.032-4.83-.493-1.837h9.19l-1.118 4.143H10.65a4.566 4.566 0 0 0-2.757-2.306H7.89Z"/>
</svg>
