<svg xmlns="http://www.w3.org/2000/svg" width="24" height="24" fill="none" viewBox="0 0 24 24">
  <path fill="#000" d="M10.385 12.175h1.181a.419.419 0 0 0 .417-.209c.07-.139.07-.348-.07-.417L9.481 8.005h.417a.42.42 0 0 0 .417-.208.442.442 0 0 0 0-.417L7.813 3.209A.496.496 0 0 0 7.397 3a.383.383 0 0 0-.348.209l-2.085 4.17a.444.444 0 0 0 0 .418.382.382 0 0 0 .348.208h.486L3.366 11.55c-.139.07-.139.278-.07.417a.382.382 0 0 0 .348.209h1.251l-2.78 3.476a.43.43 0 0 0-.069.486.382.382 0 0 0 .347.21h4.612v3.763a.453.453 0 0 0 .423.419.406.406 0 0 0 .423-.42v-3.763h4.966a.42.42 0 0 0 .417-.209.43.43 0 0 0-.07-.486l-2.78-3.476Zm-2.896 3.337a.447.447 0 0 0-.06-.012.342.342 0 0 0-.052.012h-4.08l2.78-3.476a.41.41 0 0 0 .069-.487.42.42 0 0 0-.417-.208H4.478L6.91 7.797c.14-.07.14-.278.07-.417a.42.42 0 0 0-.417-.209h-.556l1.459-2.92 1.738 2.92h-.557a.383.383 0 0 0-.347.209c-.07.139-.07.347.07.417l2.431 3.544h-1.32a.383.383 0 0 0-.347.208.412.412 0 0 0 .07.487l2.779 3.476H7.489Zm14.09-2.503h-6.684a.448.448 0 0 0-.417.416v4.994a.448.448 0 0 0 .418.416h.43v1.692h.845v-1.692h4.183v1.692h.798v-1.692h.43A.402.402 0 0 0 22 18.42v-4.994a.402.402 0 0 0-.42-.416Zm-.417 3.337h-.81v-2.504h.81v2.504Zm-4.146 0v-2.504h.799v2.504h-.8Zm1.645-2.504h.846v2.504h-.847v-2.504Zm-2.491 0v2.504h-.855v-2.504h.855Zm-.857 4.162v-.81h5.85v.812l-5.85-.002Z"/>
</svg>
