<svg xmlns="http://www.w3.org/2000/svg" width="24" height="24" fill="none" viewBox="0 0 24 24">
  <path fill="#000" fill-rule="evenodd" d="M19.906 8.67h-6.672a2.138 2.138 0 0 0-2.085 2.082v9.165A2.092 2.092 0 0 0 13.234 22h6.672a2.047 2.047 0 0 0 2.085-2.083v-9.165a2.091 2.091 0 0 0-2.085-2.082Zm1.25 11.247a1.245 1.245 0 0 1-1.25 1.25h-6.672a1.245 1.245 0 0 1-1.25-1.25v-9.165a1.248 1.248 0 0 1 1.25-1.25h6.672a1.245 1.245 0 0 1 1.25 1.25v9.165Zm-4.563-8.76a3.757 3.757 0 0 0-1.12 7.342.42.42 0 0 0 .276.12.427.427 0 0 0 .12-.022c.479.094.971.094 1.45 0a.31.31 0 0 0 .096.023.377.377 0 0 0 .279-.115 3.732 3.732 0 0 0 2.502-2.53.425.425 0 0 0 .058-.218v-.007a3.808 3.808 0 0 0-.186-2.277 3.74 3.74 0 0 0-3.475-2.316Zm-2.92 3.754a2.85 2.85 0 0 1 .035-.423h1.618v.845h-1.618a2.86 2.86 0 0 1-.035-.42v-.002Zm2.498-.423h.845v.845h-.845v-.845Zm1.643 0h1.665c.022.14.034.281.035.423a2.84 2.84 0 0 1-.035.422h-1.665v-.845Zm1.425-.798h-1.425v-1.425c.627.294 1.131.8 1.425 1.427v-.002Zm-2.223-1.665v1.665h-.845v-1.665a2.55 2.55 0 0 1 .845 0Zm-1.69.262v1.403h-1.378a2.968 2.968 0 0 1 1.378-1.4v-.002Zm-1.355 3.89h1.355v1.356a2.964 2.964 0 0 1-1.355-1.354v-.001Zm2.198 1.62v-1.62h.845v1.62c-.28.046-.565.046-.845 0Zm1.643-.24v-1.38h1.403a2.97 2.97 0 0 1-1.401 1.381l-.002-.002ZM6.94 7.842 5.759 9.58l2.777 2.57c.14.07.139.14.139.278v1.737a.4.4 0 0 1-.417.417.448.448 0 0 1-.416-.417v-1.528l-2.916-2.64a.43.43 0 0 1-.07-.556l1.528-2.224a.383.383 0 0 1 .347-.208h3.75V5.411l-1.042-.556a.394.394 0 0 1 0-.697l2.145-1.22a7.499 7.499 0 1 0-1.249 14.891.401.401 0 0 1 .417.417.368.368 0 0 1-.417.417A8.33 8.33 0 1 1 12.758 2.36c.01 0 .02.006.03.009a8.259 8.259 0 0 1 5.47 5.325.438.438 0 0 1-.278.555.394.394 0 0 1-.487-.277 7.61 7.61 0 0 0-1.222-2.244l-.955 1.687a.462.462 0 0 1-.348.276h-1.043l-.417.415a.42.42 0 0 1-.626 0 .418.418 0 0 1 0-.553l.626-.622c.07-.069.14-.069.278-.069h.974l.934-1.793a7.542 7.542 0 0 0-2.97-1.847L10.48 4.507l.624.347a.382.382 0 0 1 .209.348v2.223a.4.4 0 0 1-.417.417H6.94Z" clip-rule="evenodd"/>
</svg>
