<svg xmlns="http://www.w3.org/2000/svg" width="24" height="24" fill="none" viewBox="0 0 24 24">
  <path fill="#000" fill-rule="evenodd" d="M7.838 21.165h8.385V9.69a4.996 4.996 0 0 1-4.192 2.295c-2.448 0-4.193 2.017-4.193 5.008v4.172Zm8.805.835H7.419A.45.45 0 0 1 7 21.582v-4.59c0-3.407 2.166-5.841 5.031-5.841a4.195 4.195 0 0 0 4.192-4.173 4.192 4.192 0 0 0-8.385 0 .402.402 0 0 1-.419.417A.45.45 0 0 1 7 6.978a5.03 5.03 0 0 1 10.062 0v14.604a.402.402 0 0 1-.42.418Zm-2.536-2.492H9.954a.451.451 0 0 1-.415-.424.402.402 0 0 1 .415-.422h4.153a.37.37 0 0 1 .416.422.403.403 0 0 1-.416.424Z" clip-rule="evenodd"/>
</svg>
