<svg xmlns="http://www.w3.org/2000/svg" width="24" height="24" fill="none" viewBox="0 0 24 24">
  <path fill="#000" fill-rule="evenodd" d="M21.54 5.326h-2.494a.448.448 0 0 0-.416.418v.425h-2.912a.448.448 0 0 0-.416.415V9.08a.448.448 0 0 0 .416.415h1.238v2.49a6.643 6.643 0 0 1-6.627 6.655h-.04V8.27a.4.4 0 0 0-.413-.415H7.808v-2.53h4.595a.4.4 0 0 0 .416-.415V2.416A.399.399 0 0 0 12.403 2H2.416A.447.447 0 0 0 2 2.416V4.91a.447.447 0 0 0 .416.416h4.549v2.53H4.897a.446.446 0 0 0-.415.414v11.2h-.394a1.265 1.265 0 0 0 0 2.53h6.642a1.265 1.265 0 0 0 0-2.53h-.399a7.438 7.438 0 0 0 7.455-7.486v-2.49h.843v.426a.448.448 0 0 0 .415.418h2.494a.4.4 0 0 0 .416-.418V5.744a.402.402 0 0 0-.253-.39.4.4 0 0 0-.161-.028ZM2.835 2.832h9.155v1.663H2.835V2.832Zm2.48 5.853h4.148V19.47H5.315V8.685Zm5.418 11.629a.422.422 0 0 1 0 .843H4.091a.422.422 0 0 1 0-.843h6.642Zm5.405-11.65V7h2.492v1.663h-2.492Zm4.986.838H19.46v-.355a.46.46 0 0 0 .012-.068V6.584a.46.46 0 0 0-.012-.067V6.16h1.663v3.341Z" clip-rule="evenodd"/>
</svg>
