<svg xmlns="http://www.w3.org/2000/svg" width="24" height="24" fill="none" viewBox="0 0 24 24">
  <path fill="#000" fill-rule="evenodd" d="M11.892 2C7.392 2 4 5.542 4 10.334c0 5.972 7.338 11.32 7.616 11.597.069 0 .207.069.276.069.07 0 .139-.07.208-.07.346-.277 7.685-5.624 7.685-11.596C19.785 5.542 16.393 2 11.892 2Zm0 19.028c-1.246-.973-7.061-5.765-7.061-10.694 0-4.306 3.046-7.5 7.061-7.5 4.016 0 7.062 3.192 7.062 7.5 0 4.93-5.816 9.721-7.062 10.694Zm.646-9.465.599-.588 1.107 1.108c.069.07.138.07.277.07.138 0 .207 0 .276-.07 1.8-1.8 3.114-4.572 2.145-5.542a.518.518 0 0 0-.623 0l-4.375 4.422-.667-.676a2.28 2.28 0 0 0 .404-1.338 2.397 2.397 0 0 0-.694-1.728L9.598 5.839a.52.52 0 0 0-.625 0 .514.514 0 0 0 0 .62L10.43 7.84c.278.3.428.697.417 1.106 0 .254-.058.505-.167.735L8.23 7.195a.442.442 0 1 0-.625.627l2.478 2.484a1.525 1.525 0 0 1-1.87-.255L6.753 8.67a.326.326 0 0 0-.556 0 .42.42 0 0 0 0 .553l1.388 1.382a2.49 2.49 0 0 0 1.735.762c.484-.018.95-.187 1.334-.483l.686.688-2.356 2.382a.324.324 0 0 0 0 .554c.069.139.138.139.276.139a.276.276 0 0 0 .277-.139l2.39-2.347 2.41 2.417c.08.055.179.08.276.069.14 0 .209 0 .278-.07a.39.39 0 0 0 0-.626l-2.354-2.388Zm3.92-3.913a7.874 7.874 0 0 1-1.937 3.533l-.83-.831 2.767-2.702Z" clip-rule="evenodd"/>
</svg>
