<svg xmlns="http://www.w3.org/2000/svg" width="24" height="24" fill="none" viewBox="0 0 24 24">
  <path fill="#000" fill-rule="evenodd" d="M12.495 2A7.511 7.511 0 0 0 5 9.501a7.648 7.648 0 0 0 5.69 7.291l1.389 4.861a.512.512 0 0 0 .416.347.44.44 0 0 0 .417-.347l1.388-4.86A7.568 7.568 0 0 0 19.99 9.5 7.467 7.467 0 0 0 12.496 2Zm1.389 14.03a.299.299 0 0 0-.278.278l-1.11 3.75-1.042-3.75a.46.46 0 0 0-.347-.278A6.748 6.748 0 0 1 5.833 9.5a6.662 6.662 0 1 1 13.324 0 6.748 6.748 0 0 1-5.276 6.529h.003Zm3.515-10.19a.42.42 0 0 0-.554 0L13.32 9.373l-.905.905-.66-.657c.29-.4.45-.88.457-1.373a2.726 2.726 0 0 0-.691-1.728L10.07 5.138a.42.42 0 0 0-.553 0 .514.514 0 0 0 0 .62l1.382 1.381c.296.293.47.69.483 1.106a1.53 1.53 0 0 1-.232.771L8.665 6.538a.422.422 0 0 0-.556 0 .387.387 0 0 0 0 .623l2.434 2.45a1.525 1.525 0 0 1-.751.222 1.63 1.63 0 0 1-1.106-.484L7.304 7.967a.387.387 0 0 0-.622 0 .42.42 0 0 0 0 .553l1.45 1.382a2.209 2.209 0 0 0 1.66.763 2.373 2.373 0 0 0 1.352-.446l.662.667-2.36 2.365a.422.422 0 0 0 0 .554.275.275 0 0 0 .276.14.381.381 0 0 0 .346-.14l2.324-2.329 2.383 2.399a.525.525 0 0 0 .347.07.419.419 0 0 0 .278-.07.515.515 0 0 0 0-.623l-2.396-2.388.59-.592 1.106 1.109a.516.516 0 0 0 .62 0 9.826 9.826 0 0 0 2.074-3.118c.486-1.107.486-1.939.002-2.423h.003Zm-.763 2.147a7.846 7.846 0 0 1-1.66 2.495l-.76-.832 2.697-2.702c-.01.363-.105.72-.277 1.04Z" clip-rule="evenodd"/>
</svg>
