<svg xmlns="http://www.w3.org/2000/svg" width="24" height="24" fill="none" viewBox="0 0 24 24">
  <path fill="#000" fill-rule="evenodd" d="M2.362 22h-.069a.47.47 0 0 1-.278-.555l5.84-19.143a.396.396 0 0 1 .487-.278.472.472 0 0 1 .278.555L2.78 21.722a.47.47 0 0 1-.418.277ZM20.8 22a.472.472 0 0 0 .279-.555l-5.84-19.143a.396.396 0 0 0-.488-.278.472.472 0 0 0-.277.555l5.84 19.143c0 .139.21.277.347.277h.14Zm-8.879-.417v-3.335a.403.403 0 0 0-.422-.416.45.45 0 0 0-.423.416v3.335a.452.452 0 0 0 .423.416.401.401 0 0 0 .423-.416Zm0-6.692v-3.298a.399.399 0 0 0-.422-.412.448.448 0 0 0-.423.412v3.297a.449.449 0 0 0 .423.412.401.401 0 0 0 .423-.412Zm0-6.654V5.743a.402.402 0 0 0-.422-.416.451.451 0 0 0-.423.416v2.494a.45.45 0 0 0 .423.415.401.401 0 0 0 .423-.415Zm0-4.97v-.844A.405.405 0 0 0 11.498 2a.454.454 0 0 0-.423.423v.843a.453.453 0 0 0 .423.423.405.405 0 0 0 .423-.423Z" clip-rule="evenodd"/>
</svg>
