<svg xmlns="http://www.w3.org/2000/svg" width="24" height="24" fill="none" viewBox="0 0 24 24">
  <path fill="#000" fill-rule="evenodd" d="M21.576 15.315h-5.402v-4.13h5.402a.424.424 0 1 0 0-.848h-5.402v-1.26a7.087 7.087 0 1 0-7.087 7.097h1.23v4.59a.45.45 0 0 0 .417.418.4.4 0 0 0 .418-.418V15.87a.47.47 0 0 0 .019-.113.472.472 0 0 0-.019-.114V9.092a2.047 2.047 0 0 0-2.088-2.084 2.085 2.085 0 1 0 0 4.168h1.253v1.67H9.074a6.043 6.043 0 0 1-1.103-.137.412.412 0 0 0-.563.428.391.391 0 0 0 .287.329c.445.14.91.21 1.377.207h1.243v1.667h-1.23a6.26 6.26 0 1 1 6.253-6.26v1.634a.115.115 0 0 0 0 .097v4.879a.368.368 0 0 0-.01.048.4.4 0 0 0 .01.048v4.978a.45.45 0 0 0 .417.418.403.403 0 0 0 .417-.418V16.16h5.402a.424.424 0 0 0 0-.845h.002ZM9.063 10.343a1.25 1.25 0 1 1 1.253-1.25v1.25H9.063Zm4.623 5.39v4.185a.402.402 0 0 1-.424.418.452.452 0 0 1-.424-.418v-4.184a.453.453 0 0 1 .424-.419.405.405 0 0 1 .424.417v.002Zm0-7.467v4.146a.37.37 0 0 1-.424.414.403.403 0 0 1-.424-.415V8.267a.45.45 0 0 1 .424-.415.402.402 0 0 1 .424.415Zm-8.023-.794a4.197 4.197 0 0 0-.346 1.61c.006.586.148 1.16.415 1.681a.471.471 0 0 1-.208.56h-.207a.38.38 0 0 1-.346-.211 4.189 4.189 0 0 1-.484-2.031 3.924 3.924 0 0 1 .484-1.96.381.381 0 0 1 .553-.212.37.37 0 0 1 .139.563Zm5.653-1.998c-.14.215-.348.358-.557.215a3.675 3.675 0 0 0-3.345.072h-.14a.418.418 0 0 1-.418-.215.457.457 0 0 1 .212-.573 4.036 4.036 0 0 1 2.021-.501 4.884 4.884 0 0 1 2.021.43.517.517 0 0 1 .206.573Zm9.42 7.352a.424.424 0 0 1 0 .844H17.43a.424.424 0 0 1 0-.844h3.304Z" clip-rule="evenodd"/>
</svg>
