<svg xmlns="http://www.w3.org/2000/svg" width="24" height="24" fill="none" viewBox="0 0 24 24">
  <path fill="#000" fill-rule="evenodd" d="M6.648 7.86a3.804 3.804 0 0 0-3.816 3.816c0 1.665 2.498 5.134 3.816 6.73 1.318-1.596 3.815-5.063 3.815-6.73A3.85 3.85 0 0 0 6.648 7.86Zm0 11.656a.531.531 0 0 1-.347-.139C6.162 19.17 2 14.105 2 11.676a4.648 4.648 0 1 1 9.296 0c0 2.429-4.162 7.493-4.37 7.701a.525.525 0 0 1-.278.14Zm0-9.026a1.184 1.184 0 1 0 0 2.367 1.184 1.184 0 0 0 0-2.367Zm0 3.202a2.02 2.02 0 1 1 0-4.043 2.02 2.02 0 0 1 0 4.045v-.002Zm7.431 7.512H6.642a.418.418 0 0 1 0-.836h7.02v-7.103a.401.401 0 0 1 .418-.418h4.17a.418.418 0 0 1 0 .835h-3.753v7.104a.449.449 0 0 1-.418.42v-.002Zm4.165-18.369a2.892 2.892 0 0 0-2.921 2.917c0 1.25 1.878 3.889 2.921 5.139 1.043-1.25 2.921-3.89 2.921-5.139a2.937 2.937 0 0 0-2.92-2.914v-.003Zm0 9.167a.533.533 0 0 1-.348-.139c-.348-.417-3.408-4.167-3.408-6.113A3.736 3.736 0 0 1 18.244 2 3.782 3.782 0 0 1 22 5.75c0 1.944-3.13 5.694-3.478 6.113a.525.525 0 0 1-.278.141v-.002Zm.024-7.054a.802.802 0 0 0-.834.833.845.845 0 0 0 .834.834.896.896 0 0 0 .833-.834.845.845 0 0 0-.833-.83v-.003Zm0 2.5a1.667 1.667 0 1 1 0-3.334 1.667 1.667 0 0 1 0 3.334Z" clip-rule="evenodd"/>
</svg>
