<svg xmlns="http://www.w3.org/2000/svg" width="24" height="24" fill="none" viewBox="0 0 24 24">
  <path fill="#000" fill-rule="evenodd" d="M10.926 2.807a2.624 2.624 0 0 0-2.629 2.577c0 1.115 1.66 3.483 2.629 4.666.899-1.183 2.559-3.551 2.559-4.666a2.563 2.563 0 0 0-2.56-2.577Zm0 8.358a.525.525 0 0 1-.346-.14c-.277-.417-3.113-3.83-3.113-5.641a3.424 3.424 0 0 1 6.848 0c0 1.813-2.767 5.224-3.113 5.641a.359.359 0 0 1-.276.14Zm-.023-6.479a.763.763 0 0 0-.769.698.775.775 0 0 0 .769.768.715.715 0 0 0 .698-.768.7.7 0 0 0-.698-.698Zm0 2.304a1.572 1.572 0 1 1 0-3.142 1.55 1.55 0 0 1 1.536 1.536 1.568 1.568 0 0 1-1.536 1.606Zm7.516 1.675a2.26 2.26 0 0 0-2.287 2.283c0 .9 1.247 2.837 2.287 4.082.832-1.038 2.288-3.113 2.288-4.082a2.305 2.305 0 0 0-2.288-2.283Zm0 7.472a.53.53 0 0 1-.346-.138c-.277-.346-2.773-3.46-2.773-5.051a3.12 3.12 0 0 1 6.238 0c0 1.591-2.495 4.705-2.842 5.05a.361.361 0 0 1-.277.139Zm-.023-5.83a.623.623 0 1 0 0 1.247.623.623 0 0 0 0-1.247Zm0 2.077a1.42 1.42 0 0 1-1.454-1.454 1.463 1.463 0 0 1 1.454-1.454 1.51 1.51 0 0 1 1.454 1.454 1.463 1.463 0 0 1-1.454 1.454Zm-12.477-1.23a3.14 3.14 0 0 0-2.433.974A3.012 3.012 0 0 0 2.93 14.7c.138.904.906 2.086 1.67 3.197.49.687.932 1.407 1.321 2.155.348-.763.904-1.599 1.391-2.433.764-1.043 1.46-2.155 1.6-2.92a3.15 3.15 0 0 0-.626-2.572 2.986 2.986 0 0 0-2.367-.972ZM5.92 22a.4.4 0 0 1-.417-.417c0-.834-.835-2.086-1.6-3.268-.835-1.181-1.6-2.363-1.808-3.476a3.697 3.697 0 0 1 3.825-4.518 3.633 3.633 0 0 1 3.825 4.518c-.139.907-.906 2.017-1.739 3.268-.832 1.25-1.67 2.572-1.67 3.476A.449.449 0 0 1 5.92 22Zm-.012-9.198a1.218 1.218 0 0 0-1.175 1.189 1.158 1.158 0 0 0 1.175 1.119 1.097 1.097 0 0 0 1.106-1.12 1.16 1.16 0 0 0-1.106-1.187v-.001Zm0 3.149a1.992 1.992 0 0 1-1.43-3.414 1.993 1.993 0 0 1 1.43-.573 1.994 1.994 0 0 1 0 3.987Zm9.845-.844a.417.417 0 0 1-.277-.07l-4.025-2.709a.386.386 0 0 1-.139-.555.375.375 0 0 1 .556-.139l4.093 2.709a.413.413 0 0 1-.208.763Zm-7.774 5.91a.445.445 0 0 1-.14-.832l8.268-3.883a.438.438 0 0 1 .556.208.383.383 0 0 1-.208.554l-8.268 3.884c-.07-.002-.139.067-.208.067v.002Z" clip-rule="evenodd"/>
</svg>
