<svg xmlns="http://www.w3.org/2000/svg" width="24" height="24" fill="none" viewBox="0 0 24 24">
  <path fill="#000" fill-rule="evenodd" d="M8.641 2.562 2.79 21.719a.382.382 0 0 1-.418.277h-.07a.438.438 0 0 1-.279-.558L7.875 2.281a.467.467 0 0 1 .488-.277.472.472 0 0 1 .278.558Zm12.204 19.434h-.14c-.138 0-.347-.07-.347-.278l-2.716-8.833a32.922 32.922 0 0 1-2.355 3.153.413.413 0 0 1-.623 0c-.207-.208-4.358-5.22-4.358-7.726a4.669 4.669 0 1 1 9.338 0c0 .97-.624 2.317-1.4 3.614l2.88 9.514a.44.44 0 0 1-.279.556ZM18.816 8.312a3.84 3.84 0 0 0-7.677 0c0 1.67 2.559 5.151 3.873 6.821 1.243-1.67 3.802-5.15 3.802-6.82h.002ZM11.53 17.82a.452.452 0 0 0-.423.418v3.34a.403.403 0 0 0 .26.391.39.39 0 0 0 .162.027.373.373 0 0 0 .423-.417v-3.341a.408.408 0 0 0-.424-.418h.002Zm0-4.13a.45.45 0 0 0-.423.415v1.658a.402.402 0 0 0 .422.414.37.37 0 0 0 .423-.414v-1.658a.4.4 0 0 0-.424-.415h.002Zm0-9.197a.371.371 0 0 0 .422-.414V2.42a.402.402 0 0 0-.423-.415.45.45 0 0 0-.422.415v1.658a.402.402 0 0 0 .42.416l.002-.002Zm5.443 3.824a1.995 1.995 0 1 1-1.96-1.994 1.998 1.998 0 0 1 1.958 1.994h.002Zm-.84 0a1.155 1.155 0 0 0-1.12-1.166 1.167 1.167 0 0 0-1.19 1.166 1.13 1.13 0 0 0 1.19 1.17 1.112 1.112 0 0 0 1.118-1.17h.002Z" clip-rule="evenodd"/>
</svg>
