<svg xmlns="http://www.w3.org/2000/svg" width="24" height="24" fill="none" viewBox="0 0 24 24">
  <path fill="#000" fill-rule="evenodd" d="M7.086 2.832A3.195 3.195 0 0 0 3.83 6.025c0 1.387 2.147 4.3 3.255 5.757 1.108-1.457 3.186-4.37 3.186-5.757a3.137 3.137 0 0 0-3.186-3.193Zm0 9.988a.527.527 0 0 1-.346-.139C6.393 12.196 3 8.104 3 6.023A4.082 4.082 0 0 1 7.086 2a4.023 4.023 0 0 1 4.017 4.023c0 2.08-3.324 6.173-3.74 6.658a.36.36 0 0 1-.277.139Zm-.011-7.74a.986.986 0 0 0-.959.971.942.942 0 0 0 .959.972.985.985 0 0 0 .958-.972 1.037 1.037 0 0 0-.958-.97Zm0 2.775a1.804 1.804 0 1 1 1.78-1.804 1.824 1.824 0 0 1-1.78 1.804Zm10.83 4.158a3.193 3.193 0 0 0-3.254 3.192c0 1.387 2.147 4.3 3.255 5.757 1.108-1.457 3.186-4.37 3.186-5.757a3.136 3.136 0 0 0-3.186-3.192Zm0 9.987a.527.527 0 0 1-.345-.139c-.347-.485-3.74-4.577-3.74-6.658a4.083 4.083 0 0 1 4.085-4.023 4.023 4.023 0 0 1 4.018 4.023c0 2.08-3.325 6.173-3.74 6.658a.358.358 0 0 1-.277.139Zm-.034-7.786a.992.992 0 0 0-.903 1.346.948.948 0 0 0 .903.596.992.992 0 0 0 .971-.971 1.044 1.044 0 0 0-.97-.971Zm0 2.774a1.803 1.803 0 1 1 1.803-1.803 1.836 1.836 0 0 1-1.803 1.803ZM7.918 22h-.843a.453.453 0 0 1-.422-.421v-.844a.421.421 0 1 1 .843 0v.422h.422a.405.405 0 0 1 .421.422.453.453 0 0 1-.421.421Zm7.459 0h-.82a.447.447 0 0 1-.41-.421.4.4 0 0 1 .41-.422h.82a.397.397 0 0 1 .385.26c.02.051.028.107.025.162a.447.447 0 0 1-.41.421Zm-2.482 0h-.82a.446.446 0 0 1-.41-.421.4.4 0 0 1 .41-.422h.82a.397.397 0 0 1 .385.26.4.4 0 0 1 .024.162.447.447 0 0 1-.41.421ZM10.4 22h-.843a.454.454 0 0 1-.421-.421.405.405 0 0 1 .421-.422h.843a.405.405 0 0 1 .422.422.453.453 0 0 1-.42.421H10.4Zm-3.325-7.494a.454.454 0 0 1-.422-.422v-.842a.421.421 0 1 1 .843 0v.842a.453.453 0 0 1-.421.422Zm0 2.482a.454.454 0 0 1-.422-.421v-.845a.422.422 0 1 1 .843 0v.843a.454.454 0 0 1-.421.423Zm0 2.483a.448.448 0 0 1-.422-.41v-.82a.422.422 0 0 1 .843 0v.82a.447.447 0 0 1-.421.41Z" clip-rule="evenodd"/>
</svg>
