<svg xmlns="http://www.w3.org/2000/svg" width="24" height="24" fill="none" viewBox="0 0 24 24">
  <path fill="#000" fill-rule="evenodd" d="M15.748 3.64h-2.087V2.414A.447.447 0 0 0 13.246 2H10.75a.446.446 0 0 0-.415.414V3.64H8.249a2.133 2.133 0 0 0-2.083 2.078v16.236h.843V6.964h9.977v14.99h.843V5.72a2.087 2.087 0 0 0-2.08-2.08Zm-4.58-.812h1.663v.812h-1.663v-.812Zm-4.167 2.89a1.243 1.243 0 0 1 1.25-1.248h2.433c.022.006.045.01.068.012h2.495a.43.43 0 0 0 .068-.012h2.433a1.243 1.243 0 0 1 1.25 1.247v.416H7v-.416Zm7.083 4.596a2.09 2.09 0 0 0-2.087-2.087 2.138 2.138 0 0 0-2.087 2.087 2.09 2.09 0 0 0 2.087 2.084 2.046 2.046 0 0 0 2.087-2.084Zm-3.335 0a1.25 1.25 0 1 1 2.5-.002 1.25 1.25 0 0 1-2.5.002Zm4.137 2.505h-5.82a.446.446 0 0 0-.415.415c0 3.322.831 4.152 1.662 4.913v3.39a.4.4 0 0 0 .416.416h2.494a.4.4 0 0 0 .416-.415v-3.39c.9-.762 1.662-1.592 1.662-4.914a.446.446 0 0 0-.415-.414Zm-1.94 4.775a.528.528 0 0 0-.139.346v3.183h-1.662V17.94a.529.529 0 0 0-.139-.346l-.069-.07c-.693-.623-1.386-1.177-1.455-3.874h4.989c-.07 2.768-.763 3.322-1.525 3.944ZM22 14.88a.403.403 0 0 1-.416.421H19.09a.402.402 0 0 1-.416-.42.45.45 0 0 1 .416-.422h2.494a.451.451 0 0 1 .416.422Zm-3.281-2.9a.322.322 0 0 1 .207-.486l2.147-1.04a.437.437 0 0 1 .554.207.386.386 0 0 1-.208.555l-2.216.972c0 .07-.069.07-.138.07a.353.353 0 0 1-.346-.277v-.002Zm2.908 7.142a.382.382 0 0 1-.346.208h-.208l-2.146-1.04a.323.323 0 0 1-.257-.341.321.321 0 0 1 .049-.146.367.367 0 0 1 .554-.208l2.146.971a.386.386 0 0 1 .208.556Zm-19.21-3.82A.403.403 0 0 1 2 14.88a.45.45 0 0 1 .416-.421H4.91a.45.45 0 0 1 .416.421.4.4 0 0 1-.416.421H2.416Zm-.044-4.641a.436.436 0 0 1 .554-.208l2.147 1.041a.35.35 0 0 1 .276.486.429.429 0 0 1-.415.277c-.07 0-.138 0-.138-.07l-2.216-.97a.382.382 0 0 1-.209-.556h.001Zm2.977 7.142a.359.359 0 0 1-.207.486l-2.216 1.04h-.208a.395.395 0 0 1-.138-.763l2.216-.971c.206-.138.414 0 .552.209h.001Z" clip-rule="evenodd"/>
</svg>
