<svg xmlns="http://www.w3.org/2000/svg" width="24" height="24" fill="none" viewBox="0 0 24 24">
  <path fill="#000" fill-rule="evenodd" d="M21.567 16.177h-1.225v-3.33h1.226a.402.402 0 0 0 .415-.425.45.45 0 0 0-.415-.424h-4.556V7.87h1.225a.403.403 0 0 0 .417-.425V5.758a.451.451 0 0 0-.417-.424h-6.243v-.796h2.07a.402.402 0 0 0 .415-.425V2.425A.452.452 0 0 0 14.065 2h-2.498a.403.403 0 0 0-.416.425v2.91h-5.4a.403.403 0 0 0-.416.424v1.688a.371.371 0 0 0 .416.425h1.226v4.127H2.419a.404.404 0 0 0-.415.425.372.372 0 0 0 .415.424h1.227v3.33H2.421a.402.402 0 0 0-.417.422.372.372 0 0 0 .417.424h1.225v4.556a.369.369 0 0 0 .417.416h15.862a.4.4 0 0 0 .417-.416v-4.556h1.225a.403.403 0 0 0 .416-.424.45.45 0 0 0-.416-.423Zm-7.92-12.476h-1.653v-.843h1.653V3.7Zm5.86 12.476h-2.494v-3.33h2.494v3.33Zm-13.34-9.99h11.657v.844H6.17l-.003-.844Zm10.009 1.689v8.301H7.812V7.876h8.364ZM4.48 12.847h2.493v3.33H4.481v-3.33Zm0 4.174h2.493v4.139H4.481v-4.14Zm3.34 4.139h-.008v-4.14h8.364v4.14H7.82Zm11.687 0h-2.494v-4.14h2.494v4.14ZM9.078 11.158h1.658a.398.398 0 0 0 .414-.414V9.087a.446.446 0 0 0-.415-.415H9.079a.399.399 0 0 0-.414.415v1.657a.366.366 0 0 0 .414.416v-.002Zm.415-1.657h.828v.829h-.828V9.5Zm3.76 1.657h1.657a.398.398 0 0 0 .414-.414V9.087a.446.446 0 0 0-.414-.415h-1.658a.398.398 0 0 0-.414.415v1.657a.365.365 0 0 0 .414.416v-.002Zm.414-1.657h.828v.829h-.828V9.5Zm-4.589 4.988h1.658a.4.4 0 0 0 .414-.414v-1.657a.446.446 0 0 0-.415-.415H9.079a.397.397 0 0 0-.414.415v1.657a.366.366 0 0 0 .414.413Zm.415-1.657h.828v.828h-.828v-.828Zm3.76 1.657h1.657a.398.398 0 0 0 .414-.414v-1.657a.445.445 0 0 0-.414-.415h-1.658a.396.396 0 0 0-.414.415v1.657a.366.366 0 0 0 .414.413Zm.414-1.657h.828v.828h-.828v-.828Zm-2.931 4.987H9.078a.403.403 0 0 0-.414.425v1.688a.372.372 0 0 0 .414.425h1.658a.403.403 0 0 0 .414-.425v-1.688a.45.45 0 0 0-.415-.426v.001Zm-.415 1.689h-.828v-.845h.829v.845Zm4.589-1.689h-1.658a.4.4 0 0 0-.414.425v1.688a.37.37 0 0 0 .414.425h1.658a.403.403 0 0 0 .414-.425v-1.688a.45.45 0 0 0-.414-.426v.001Zm-.415 1.689h-.828v-.845h.828v.845Z" clip-rule="evenodd"/>
</svg>
