<svg xmlns="http://www.w3.org/2000/svg" width="24" height="24" fill="none" viewBox="0 0 24 24">
  <path fill="#000" fill-rule="evenodd" d="M18.604 3.69h-3.386a4.758 4.758 0 0 0-7.273 0H4.42a.452.452 0 0 0-.42.424.404.404 0 0 0 .418.423H7.55a2.33 2.33 0 0 0-.077.587c0 1.349 1.097 2.485 2.665 2.924-2.428.63-4.026 2.94-4.026 6.055v2.493a3.72 3.72 0 0 0 3.374 3.72A2.079 2.079 0 0 0 11.51 22a2.025 2.025 0 0 0 2.029-1.7 3.885 3.885 0 0 0 3.37-3.704v-2.493c0-3.09-1.524-5.386-3.944-6.04 1.599-.427 2.723-1.574 2.723-2.94 0-.197-.027-.395-.077-.586h2.992a.37.37 0 0 0 .418-.424.405.405 0 0 0-.418-.423Zm-7.515 5.032c.138-.012.276-.023.423-.023.148 0 .285.011.424.023v3.289h-.846l-.001-3.289Zm1.661 11.19a1.24 1.24 0 1 1-2.478 0v-3.339a1.24 1.24 0 1 1 2.478 0v3.338Zm3.33-5.812v2.493a3.004 3.004 0 0 1-2.502 2.86v-2.88a2.083 2.083 0 0 0-2.066-2.086 2.128 2.128 0 0 0-2.066 2.086v2.898a2.872 2.872 0 0 1-2.502-2.878v-2.492c0-2.243 1.06-4.58 3.3-5.224v3.55a.404.404 0 0 0 .424.416h1.69a.37.37 0 0 0 .424-.416V8.869c2.282.636 3.298 2.98 3.298 5.231Zm-4.5-6.689c-1.81 0-3.271-.971-3.271-2.29a1.65 1.65 0 0 1 .153-.688.391.391 0 0 0 .118-.217 3.946 3.946 0 0 1 6.001 0 .395.395 0 0 0 .118.217c.1.216.152.45.154.689-.003 1.318-1.463 2.287-3.273 2.287v.002Zm0-3.721a1.689 1.689 0 0 0-1.188 2.864 1.666 1.666 0 0 0 2.855-1.198A1.69 1.69 0 0 0 11.58 3.69Zm0 2.5a.801.801 0 0 1-.832-.834.833.833 0 1 1 1.666 0 .802.802 0 0 1-.834.835V6.19Z" clip-rule="evenodd"/>
</svg>
