<svg xmlns="http://www.w3.org/2000/svg" width="24" height="24" fill="none" viewBox="0 0 24 24">
  <path fill="#000" fill-rule="evenodd" d="M19.028 12.82a2.048 2.048 0 0 0-2.084 2.086v.882l-.613-2.947a2.01 2.01 0 0 0-2.006-1.66h-1.5V7.012h1.238a2.096 2.096 0 0 0 2.045-1.686H19.9a.447.447 0 0 0 .418-.414V3.257a.447.447 0 0 0-.418-.414h-4.17A2.094 2.094 0 0 0 14.063 2H9.056a2.056 2.056 0 0 0-1.685.843H3.257a.397.397 0 0 0-.414.414v1.655a.398.398 0 0 0 .414.414h3.747A2.04 2.04 0 0 0 9.05 7.012h1.24v4.169H8.719a2.067 2.067 0 0 0-2.005 1.66s0 .008-.545 2.802v-.737a2.092 2.092 0 0 0-2.085-2.087A2.047 2.047 0 0 0 2 14.906v5.007A2.048 2.048 0 0 0 4.084 22a2.092 2.092 0 0 0 2.085-2.087v-.352a1.967 1.967 0 0 0 1.582.753h7.54a2.207 2.207 0 0 0 1.65-.754v.354A2.049 2.049 0 0 0 19.027 22a2.091 2.091 0 0 0 2.084-2.087v-5.007a2.091 2.091 0 0 0-2.082-2.086Zm-13.69 7.094a1.25 1.25 0 1 1-2.5 0v-5.008a1.25 1.25 0 1 1 2.5 0v5.008ZM16.142 3.671h3.341v.828H16.15v-.41c0-.027-.007-.05-.008-.077v-.341Zm-12.467 0h3.31v.255c-.004.053-.015.106-.015.163v.41H3.674V3.67Zm4.13 1.268a.297.297 0 0 0 .008-.029v-.908a1.242 1.242 0 0 1 1.243-1.168h5.008a1.243 1.243 0 0 1 1.243 1.167v.91c0 .012.005.023.006.035a1.245 1.245 0 0 1-1.25 1.23H9.056a1.247 1.247 0 0 1-1.252-1.232l.002-.005ZM11.98 7.01v12.474h-.842V7.01h.842ZM6.786 18.998a1.242 1.242 0 0 1-.277-.969l1.038-4.982a1.189 1.189 0 0 1 1.176-1.038h1.571v7.473h-2.54a1.047 1.047 0 0 1-.969-.481l.001-.003Zm9.476 0a1.048 1.048 0 0 1-.968.484h-2.47V12.01h1.502a1.257 1.257 0 0 1 1.245 1.038l.968 4.982a1.03 1.03 0 0 1-.28.972l.003-.003Zm4.017.914a1.25 1.25 0 1 1-2.5 0v-5.007a1.25 1.25 0 1 1 2.5 0v5.007Z" clip-rule="evenodd"/>
</svg>
