<svg xmlns="http://www.w3.org/2000/svg" width="24" height="24" fill="none" viewBox="0 0 24 24">
  <path fill="#000" fill-rule="evenodd" d="M17.266 12.583a.293.293 0 0 1-.239.08.607.607 0 0 1-.396-.16 5.404 5.404 0 0 0-4.529-2.53.457.457 0 0 1-.477-.473.512.512 0 0 1 .477-.474 6.275 6.275 0 0 1 5.323 2.923.59.59 0 0 1 .08.396.253.253 0 0 1-.239.238ZM3.03 15.847l.553 2.763h16.91l.475-2.763H3.03Zm16.673-.948c-.237-1.737-1.58-7.027-7.586-7.027-6.084 0-7.348 5.29-7.585 7.027h15.171Zm-8.297-9.95v.554h1.422V4.95h-1.422Zm10.589 10.503-.632 3.71a.442.442 0 0 1-.475.396H3.108a.421.421 0 0 1-.394-.395l-.711-3.711a.714.714 0 0 1 .078-.395.605.605 0 0 1 .395-.16h1.107c.236-1.895 1.66-7.738 8.06-7.975v-.474h-.712a.457.457 0 0 1-.475-.474v-1.5A.455.455 0 0 1 10.931 4h2.371a.454.454 0 0 1 .474.474v1.5a.456.456 0 0 1-.474.474h-.71v.474c6.4.237 7.822 6.08 8.059 7.975h.87c.146.004.286.06.394.16a.59.59 0 0 1 .078.394h.002Z" clip-rule="evenodd"/>
</svg>
