<svg xmlns="http://www.w3.org/2000/svg" width="24" height="24" fill="none" viewBox="0 0 24 24">
  <path fill="#000" fill-rule="evenodd" d="M14.251 17.816c-.475.31-.973.582-1.49.815-1.081.543-1.623.747-2.3.747a6.773 6.773 0 0 1-1.893-.407c-.407-.137-.88-.34-1.49-.544-.473-.136-1.015-.34-1.691-.543v-3.125h1.624a4.098 4.098 0 0 1 2.235.883l.068.068c.118.114.255.207.405.274a.518.518 0 0 0 .339.137h2.368a.41.41 0 0 1 .067.273c0 .137 0 .204-.067.272l-.068.067H8.705a.34.34 0 0 0 0 .68h3.653a.832.832 0 0 0 .677-.34l.067-.068 2.707-.883c.152-.051.313-.074.474-.067.187.013.37.059.541.136.068.068.203.137.27.204a52.935 52.935 0 0 0-2.843 1.421Zm-9.608.883H2.749V14.08h1.894v4.62Zm12.517-3.125a1.482 1.482 0 0 0-.88-.273.248.248 0 0 0-.202.068l-.677.136-2.165.68c-.067-.137-.067-.34-.202-.476a.831.831 0 0 0-.677-.34h-2.3c-.068-.067-.138-.067-.204-.136l-.136-.137a6.162 6.162 0 0 1-.541-.34 3.723 3.723 0 0 0-2.165-.747h-.339v.068h-.677v-.068h-.608v-.273a.353.353 0 0 0-.137-.274c-.068-.068-.137-.137-.203-.137H2.34a.51.51 0 0 0-.27.137c-.068.068-.068.137-.068.274v5.366a.25.25 0 0 0 .068.204.51.51 0 0 0 .27.136h2.707c.067 0 .137-.067.203-.136.066-.07.137-.137.137-.204v-.475c.541.204 1.015.34 1.489.475.54.204 1.015.407 1.488.543a6.67 6.67 0 0 0 2.097.408 5.36 5.36 0 0 0 2.64-.815c.473-.204.947-.476 1.489-.747.88-.476 1.96-1.02 3.315-1.699.067-.068.137-.204.203-.271a.522.522 0 0 0-.137-.34 3.184 3.184 0 0 0-.81-.607Zm2.398-2.416H8.788l-.609-.611h11.988l-.61.61Zm-5.35-6.512a5.54 5.54 0 0 1 5.485 5.155H8.721a5.494 5.494 0 0 1 5.487-5.155Zm0-1.967a.668.668 0 0 1 .61.678.61.61 0 1 1-1.22 0 .669.669 0 0 1 .61-.678Zm7.45 7.122h-1.287a5.953 5.953 0 0 0-1.558-3.73 6.028 6.028 0 0 0-3.522-2.036A1.329 1.329 0 0 0 14.208 4a1.36 1.36 0 0 0-1.356 1.357c.005.24.075.475.204.678A6.463 6.463 0 0 0 9.534 8.07a6.808 6.808 0 0 0-1.558 3.731H6.689a.375.375 0 0 0 0 .746h.542L8.45 13.7c.067.068.136.137.202.137h11.04a.354.354 0 0 0 .274-.137l1.219-1.153h.474a.365.365 0 0 0 .339-.34.38.38 0 0 0-.341-.406Zm-7.467-4.232a.34.34 0 0 0 0 .68 3.787 3.787 0 0 1 3.241 1.837c.075.071.17.12.271.136a.246.246 0 0 0 .202-.068c.068 0 .137-.137.203-.204a.41.41 0 0 0-.068-.273 4.676 4.676 0 0 0-3.849-2.108Z" clip-rule="evenodd"/>
</svg>
