<svg xmlns="http://www.w3.org/2000/svg" width="24" height="24" fill="none" viewBox="0 0 24 24">
  <path fill="#000" fill-rule="evenodd" d="M21.577 10.58h-1.232V9.348a.401.401 0 0 0-.419-.416h-.695a5.79 5.79 0 0 0-4.475-5.064c.078-.168.119-.35.12-.535A1.264 1.264 0 0 0 13.635 2a1.318 1.318 0 0 0-1.307 1.332c.002.189.049.375.137.543A5.788 5.788 0 0 0 8.022 8.93h-.65a.45.45 0 0 0-.418.416v1.234H5.676a.452.452 0 0 0-.419.42v3.786h-.82V9.33A2.085 2.085 0 0 0 2.42 7.232a.403.403 0 0 0-.417.42.37.37 0 0 0 .417.419A1.237 1.237 0 0 1 3.604 9.33v5.874a.401.401 0 0 0 .417.42h1.237v3.777a.403.403 0 0 0 .419.42H7a2.087 2.087 0 0 0 2.029 1.65 2.031 2.031 0 0 0 2.032-1.65h5.133a2.104 2.104 0 0 0 2.053 1.65 2.049 2.049 0 0 0 2.055-1.65h1.275a.37.37 0 0 0 .418-.42v-8.402a.403.403 0 0 0-.42-.418Zm-8.422-7.248a.475.475 0 0 1 .482-.491.466.466 0 0 1 .412.49.446.446 0 0 1-.39.415H13.6a.457.457 0 0 1-.445-.414Zm.414 1.255c.023 0 .045.006.068.006.023 0 .04-.005.06-.006a4.897 4.897 0 0 1 4.697 4.344H8.858a4.896 4.896 0 0 1 4.711-4.343v-.001ZM7.791 9.764h11.717v.817H7.79v-.817ZM9.03 20.64a1.236 1.236 0 0 1-1.165-.817h2.33a1.238 1.238 0 0 1-1.165.817Zm9.218 0a1.248 1.248 0 0 1-1.178-.817h2.355a1.249 1.249 0 0 1-1.177.817Zm2.911-1.658H19.97a.362.362 0 0 0-.044-.009.313.313 0 0 0-.037.01h-1.24v-3.785a.403.403 0 0 0-.26-.394.407.407 0 0 0-.165-.027.455.455 0 0 0-.424.42v3.785h-1.187a.391.391 0 0 0-.044-.009.308.308 0 0 0-.037.01H13.65v-3.785a.406.406 0 0 0-.425-.42.453.453 0 0 0-.424.42v3.784h-2.069a.381.381 0 0 0-.043-.009.3.3 0 0 0-.037.01H9.453v-3.785a.405.405 0 0 0-.424-.42.454.454 0 0 0-.424.42v3.784H7.413a.358.358 0 0 0-.044-.009.33.33 0 0 0-.036.01H6.094v-3.694a.622.622 0 0 0 .012-.083.51.51 0 0 0-.012-.07v-3.715H6.9a.468.468 0 0 0 .049.009H20.35c.022 0 .038-.007.056-.009h.75l.002 7.561Z" clip-rule="evenodd"/>
</svg>
