<svg xmlns="http://www.w3.org/2000/svg" width="24" height="24" fill="none" viewBox="0 0 24 24">
  <path fill="#000" fill-rule="evenodd" d="M18.975 21.09a.452.452 0 0 0-.556-.14.876.876 0 0 1-.835.07.472.472 0 0 1-.208-.42 1.298 1.298 0 0 0-1.175-1.3l1.916-7.501.348.084h.139a.47.47 0 0 0 .416-.28.552.552 0 0 0-.347-.558l-1.718-.406V8.253A2.086 2.086 0 0 0 14.87 6.18h-1.248V2.42a.4.4 0 0 0-.417-.415H9.863a.367.367 0 0 0-.418.415v3.76H8.198a2.043 2.043 0 0 0-2.086 2.074v2.364l-1.811.428a.442.442 0 0 0-.278.559.395.395 0 0 0 .486.279l.436-.104 1.92 7.64a1.21 1.21 0 0 0-.75 1.182.381.381 0 0 1-.277.419.751.751 0 0 1-.763 0 .365.365 0 0 0-.557.14.388.388 0 0 0 .14.558 1.629 1.629 0 0 0 1.598 0 1.244 1.244 0 0 0 .695-1.117c0-.49.557-.49.626-.49.069 0 .625 0 .625.49a1.37 1.37 0 0 0 1.46 1.396 1.407 1.407 0 0 0 1.46-1.396c0-.49.556-.49.626-.49.07 0 .626 0 .626.49a1.368 1.368 0 0 0 1.46 1.396 1.406 1.406 0 0 0 1.46-1.396c0-.49.556-.49.626-.49.07 0 .625 0 .625.49a1.185 1.185 0 0 0 .626 1.117 1.764 1.764 0 0 0 1.668 0 .456.456 0 0 0 .136-.628ZM16.8 13.476l-4.867-1.472v-1.696l5.335 1.287-.468 1.88ZM12.787 2.83v1.66h-2.508V2.83h2.508Zm-2.508 2.503h2.508v.845h-2.508v-.845Zm-3.333 2.92a1.243 1.243 0 0 1 1.25-1.245h6.673a1.244 1.244 0 0 1 1.253 1.244v2.189l-4.53-1.071h-.208l-4.436 1.05-.002-2.168Zm4.188 2.047v1.708l-4.865 1.453-.474-1.886 5.338-1.275Zm-.85 10.3a.63.63 0 0 1-1.254 0 1.318 1.318 0 0 0-1.299-1.313l-1.254-4.996 4.656-1.409v6.497a1.22 1.22 0 0 0-.848 1.22l-.001.002Zm4.171 0a.63.63 0 0 1-1.254 0 1.313 1.313 0 0 0-1.272-1.311v-6.412l4.662 1.428-1.259 5.061a1.223 1.223 0 0 0-.877 1.234Zm-.83-11.935H9.442a.403.403 0 0 1-.419-.423.372.372 0 0 1 .419-.422h4.185a.403.403 0 0 1 .419.422.452.452 0 0 1-.418.424l-.002-.001Z" clip-rule="evenodd"/>
</svg>
