<svg xmlns="http://www.w3.org/2000/svg" width="24" height="24" fill="none" viewBox="0 0 24 24">
  <path fill="#000" fill-rule="evenodd" d="M13.896 2a4.98 4.98 0 0 0-5 5v.048a3.722 3.722 0 0 0-3.334 3.708v.83A.447.447 0 0 0 5.98 12h6.677a.445.445 0 0 0 .417-.415v-.83A3.722 3.722 0 0 0 9.73 7.047V7a4.167 4.167 0 0 1 8.333 0v15h.834V7a4.978 4.978 0 0 0-5-5Zm-1.656 8.756v.415H6.397v-.415a2.921 2.921 0 0 1 5.843 0Zm-2.5 3.771v1.66a.423.423 0 0 1-.845 0v-1.66a.423.423 0 0 1 .845 0Zm0 4.985v1.69a.423.423 0 0 1-.845 0v-1.69a.423.423 0 1 1 .845 0Zm2.73-2.912h-.07a.437.437 0 0 1-.413-.346l-.207-1.659c-.07-.207.069-.414.345-.484a.389.389 0 0 1 .414.346l.278 1.659c.068.207-.07.415-.346.484Zm.89 2.787.277 1.659c0 .207-.138.484-.345.484h-.069a.39.39 0 0 1-.414-.346l-.278-1.66c-.07-.207.138-.414.345-.483a.519.519 0 0 1 .484.346Zm-6.485-4.792-.278 1.659a.438.438 0 0 1-.414.346h-.07c-.206-.07-.413-.278-.344-.484l.277-1.66c0-.206.208-.345.484-.345a.52.52 0 0 1 .345.484Zm-.82 4.93-.278 1.659a.37.37 0 0 1-.346.346h-.068a.37.37 0 0 1-.345-.484l.207-1.66a.518.518 0 0 1 .483-.345c.278.07.417.276.348.484h-.001Z" clip-rule="evenodd"/>
</svg>
