<svg xmlns="http://www.w3.org/2000/svg" width="24" height="24" fill="none" viewBox="0 0 24 24">
  <path fill="#000" fill-rule="evenodd" d="m21.861 11.34-9.583-9.236a.424.424 0 0 0-.556 0L2.14 11.34a.348.348 0 0 0 0 .555l9.583 9.931a.278.278 0 0 0 .278.139.383.383 0 0 0 .347-.139l9.584-9.93c.07-.07.069-.14.069-.279 0-.14 0-.21-.139-.277ZM12 20.993l-8.959-9.378L12 3.005l9.028 8.61L12 20.993ZM9.417 8.833l2.726-2.974a.53.53 0 0 1 .279-.138c.13.002.253.051.35.138l2.515 2.904a.363.363 0 0 1-.07.553.37.37 0 0 1-.558-.07l-1.83-2.035v3.509c0 .138 0 .208-.14.277l-1.33 1.387 2.59 2.635a.324.324 0 0 1 0 .555l-1.54 1.595v1.04h-.84v-1.248a.523.523 0 0 1 .14-.278l1.4-1.387-2.66-2.634a.42.42 0 0 1 0-.555l1.54-1.526V7.236l-1.943 2.15a.533.533 0 0 1-.28.137.465.465 0 0 1-.35-.688v-.003Z" clip-rule="evenodd"/>
</svg>
