<svg xmlns="http://www.w3.org/2000/svg" width="24" height="24" fill="none" viewBox="0 0 24 24">
  <path fill="#000" fill-rule="evenodd" d="m21.86 11.382-9.582-9.226a.325.325 0 0 0-.556 0L2.14 11.382a.362.362 0 0 0-.139.277.528.528 0 0 0 .139.278l9.583 9.92a.347.347 0 0 0 .556 0l9.583-9.92a.528.528 0 0 0 .139-.278.359.359 0 0 0-.14-.277ZM12 20.954 3.042 11.66 12 2.991l9.027 8.668L12 20.954Zm-.024-13.947a3.322 3.322 0 0 1 3.326 3.315v1.85l1.061-1.306a.423.423 0 0 1 .557-.07.436.436 0 0 1 .07.623l-1.74 2.146a.533.533 0 0 1-.348.138.362.362 0 0 1-.279-.138l-2.226-2.146a.419.419 0 0 1 0-.553.393.393 0 0 1 .626 0l1.448 1.386v-1.931a2.494 2.494 0 1 0-4.989 0v4.974h-.831v-4.974a3.367 3.367 0 0 1 3.325-3.314Z" clip-rule="evenodd"/>
</svg>
