<svg xmlns="http://www.w3.org/2000/svg" width="24" height="24" fill="none" viewBox="0 0 24 24">
  <path fill="#000" fill-rule="evenodd" d="M12 2a10 10 0 1 0 10 10A10.047 10.047 0 0 0 12 2Zm0 19.167A9.165 9.165 0 1 1 21.166 12 9.202 9.202 0 0 1 12 21.167Zm5.355-14.428a.519.519 0 0 0-.623 0l-3.825 3.825a1.651 1.651 0 0 0-.884-.254 1.69 1.69 0 1 0 1.19 2.887A1.657 1.657 0 0 0 13.69 12a1.733 1.733 0 0 0-.215-.828l3.88-3.88a.42.42 0 0 0-.001-.553Zm-5.332 6.106A.847.847 0 0 1 11.19 12a.9.9 0 0 1 .833-.845.851.851 0 0 1 .834.845.807.807 0 0 1-.834.845ZM5.763 12H4.104a.371.371 0 0 1-.414-.424.402.402 0 0 1 .414-.424h1.66a.45.45 0 0 1 .414.424.402.402 0 0 1-.415.424Zm.91 2.207a.447.447 0 0 1-.208.563l-1.59.636c0 .07-.068.07-.138.07a.46.46 0 0 1-.345-.281c-.138-.212 0-.424.207-.564l1.52-.636a.432.432 0 0 1 .553.212Zm13.029.986a.46.46 0 0 1-.346.28.25.25 0 0 1-.207-.07l-1.521-.635a.447.447 0 0 1-.207-.564.432.432 0 0 1 .553-.211l1.52.635c.208.142.346.353.208.565Zm.654-3.616a.372.372 0 0 1-.252.41.374.374 0 0 1-.171.014h-1.69a.406.406 0 0 1-.424-.424.454.454 0 0 1 .424-.424h1.69a.405.405 0 0 1 .423.424ZM17.628 9.23l1.521-.636c.276-.07.484 0 .553.212a.392.392 0 0 1-.208.563l-1.52.636a.212.212 0 0 1-.138.07.467.467 0 0 1-.415-.282.477.477 0 0 1 .207-.563Zm-3.07-3.14.636-1.537a.48.48 0 0 1 .564-.28.465.465 0 0 1 .212.559l-.636 1.536a.386.386 0 0 1-.424.28h-.14a.466.466 0 0 1-.212-.556V6.09ZM12 5.897v-1.69a.454.454 0 0 1 .424-.424.407.407 0 0 1 .424.424v1.69a.374.374 0 0 1-.424.424.406.406 0 0 1-.424-.424ZM8.595 4.834a.44.44 0 0 1 .278-.558.395.395 0 0 1 .485.28l.694 1.536a.515.515 0 0 1-.277.558h-.139a.432.432 0 0 1-.416-.28l-.625-1.536Zm-.677 3.081a.517.517 0 0 1-.275.141.355.355 0 0 1-.276-.14l-1.17-1.198a.4.4 0 0 1 0-.635.411.411 0 0 1 .55 0L7.918 7.28a.537.537 0 0 1 0 .635ZM6.672 9.793a.466.466 0 0 1-.415.282.213.213 0 0 1-.138-.07L4.6 9.369a.392.392 0 0 1-.207-.563.355.355 0 0 1 .483-.212l1.59.636a.477.477 0 0 1 .207.563Zm9.088 5.54H8.238a.448.448 0 0 0-.417.417v2.5a.4.4 0 0 0 .417.416h7.524a.37.37 0 0 0 .417-.416v-2.5a.401.401 0 0 0-.418-.417Zm-.418 2.5H8.657v-1.667h6.683l.002 1.667Z" clip-rule="evenodd"/>
</svg>
