<svg xmlns="http://www.w3.org/2000/svg" width="24" height="24" fill="none" viewBox="0 0 24 24">
  <path fill="#000" fill-rule="evenodd" d="M12 2a10 10 0 1 0 0 20 10 10 0 0 0 0-20Zm0 19.167a9.166 9.166 0 1 1 8.47-5.657A9.157 9.157 0 0 1 12 21.167Zm0-16.679A7.512 7.512 0 1 0 19.512 12 7.523 7.523 0 0 0 12 4.488Zm0 .835a6.676 6.676 0 0 1 6.186 4.17 23.63 23.63 0 0 0-12.37-.005A6.678 6.678 0 0 1 12 5.323Zm-6.62 7.514a5.068 5.068 0 0 1 4.942 5.001 3.667 3.667 0 0 1-.058.603 6.676 6.676 0 0 1-4.883-5.604Zm5.71 5.77a5.49 5.49 0 0 0 .065-.769A5.868 5.868 0 0 0 5.327 12h-.004a6.662 6.662 0 0 1 .183-1.529 22.01 22.01 0 0 1 12.994.022c.116.494.175 1 .177 1.507h-.004a5.825 5.825 0 0 0-5.828 5.838c0 .295 0 .538.017.777a6.014 6.014 0 0 1-1.772-.007Zm2.601-.155a9.023 9.023 0 0 1-.014-.614 5.023 5.023 0 0 1 4.942-5 6.676 6.676 0 0 1-4.928 5.614Zm0-6.452a1.701 1.701 0 0 0-1.666-1.69 1.69 1.69 0 1 0 0 3.38A1.702 1.702 0 0 0 13.69 12h.002Zm-1.666.845A.806.806 0 0 1 11.19 12a.85.85 0 0 1 .834-.845.9.9 0 0 1 .833.845.848.848 0 0 1-.835.845h.002Z" clip-rule="evenodd"/>
</svg>
