<svg xmlns="http://www.w3.org/2000/svg" width="24" height="24" fill="none" viewBox="0 0 24 24">
  <path fill="#000" fill-rule="evenodd" d="M11.915 2.833c-4.027 0-7.082 3.192-7.082 7.5 0 4.999 5.832 9.719 7.082 10.762 1.32-1.042 7.082-5.764 7.082-10.762 0-4.305-3.055-7.5-7.082-7.5Zm0 19.165a.254.254 0 0 1-.208-.07C11.36 21.72 4 16.305 4 10.334 4 5.61 7.402 2 11.915 2s7.915 3.61 7.915 8.333c0 5.971-7.36 11.386-7.637 11.596a.419.419 0 0 1-.278.069ZM9.843 11.146h4.987V8.657H9.843v2.489Zm5.403.83h-5.82a.446.446 0 0 1-.415-.415V6.998H7.834a.415.415 0 0 1 0-.83h1.593a.399.399 0 0 1 .415.415v1.245h5.403a.399.399 0 0 1 .416.414v3.319a.398.398 0 0 1-.415.414ZM9.434 13.24a.82.82 0 1 1 .82.843.832.832 0 0 1-.82-.843Zm4.168 0a.82.82 0 1 1 .82.843.832.832 0 0 1-.82-.843Z" clip-rule="evenodd"/>
</svg>
