<svg xmlns="http://www.w3.org/2000/svg" width="24" height="24" fill="none" viewBox="0 0 24 24">
  <path fill="#000" fill-rule="evenodd" d="M21.586 15.69h-.429v-2.072a.424.424 0 0 0-.847 0v2.072h-.995a5.403 5.403 0 0 0-5.255-6.666h-1.214V7.757a.453.453 0 0 0-.418-.424h-2.12V6.089A2.127 2.127 0 0 0 8.249 4H7.013a.446.446 0 0 0-.412.418.398.398 0 0 0 .412.418H8.25a1.239 1.239 0 0 1 1.235 1.253v1.244H8.24a.452.452 0 0 0-.419.424v1.267h-.415A5.41 5.41 0 0 0 2.3 16.215a.41.41 0 0 0 .045.123 5.41 5.41 0 0 0 5.059 3.53h6.652a5.414 5.414 0 0 0 4.987-3.333h1.263v2.072a.424.424 0 0 0 .847 0v-2.07h.429a.403.403 0 0 0 .416-.423.452.452 0 0 0-.413-.424ZM8.66 8.18h3.348v.844H8.661V8.18ZM7.407 9.858h.772c.02.004.042.008.063.01h4.184a.522.522 0 0 0 .063-.01h1.57a4.581 4.581 0 0 1 4.4 5.83H3.001a4.738 4.738 0 0 1-.169-1.243A4.576 4.576 0 0 1 7.41 9.86l-.003-.001Zm6.653 9.175H7.407a4.518 4.518 0 0 1-4.083-2.5H18.13a4.573 4.573 0 0 1-4.068 2.502l-.002-.002Zm-7.903-4.19a1.665 1.665 0 1 0-1.666-1.666 1.69 1.69 0 0 0 1.669 1.668l-.003-.001Zm0-2.498a.895.895 0 0 1 .833.832.844.844 0 0 1-.833.834.803.803 0 0 1-.833-.834.844.844 0 0 1 .836-.83l-.003-.002Zm4.178 2.499a1.666 1.666 0 1 0-1.667-1.667 1.69 1.69 0 0 0 1.67 1.668l-.003-.001Zm0-2.5a.895.895 0 0 1 .833.833.844.844 0 0 1-.833.834.803.803 0 0 1-.834-.834.844.844 0 0 1 .836-.83l-.002-.002Zm4.177 2.5a1.665 1.665 0 0 0 .326-3.301 1.666 1.666 0 0 0-1.992 1.634 1.69 1.69 0 0 0 1.67 1.668l-.004-.001Zm0-2.5a.895.895 0 0 1 .834.833.845.845 0 0 1-.834.834.802.802 0 0 1-.833-.834.844.844 0 0 1 .838-.83l-.005-.002Z" clip-rule="evenodd"/>
</svg>
