<svg xmlns="http://www.w3.org/2000/svg" width="24" height="24" fill="none" viewBox="0 0 24 24">
  <path fill="#000" fill-rule="evenodd" d="M21.553 20.299a.425.425 0 1 1-.851 0c0-.425-.07-.638-.212-.709-.284-.354-.85-.213-.85.709A1.557 1.557 0 0 1 18.151 22a1.6 1.6 0 0 1-1.487-1.701c0-.638-.284-.85-.638-.85-.284 0-.638.212-.638.85A1.557 1.557 0 0 1 13.902 22a1.6 1.6 0 0 1-1.488-1.701c0-.638-.284-.85-.637-.85-.284 0-.638.212-.638.85A1.557 1.557 0 0 1 9.651 22a1.6 1.6 0 0 1-1.487-1.701c0-.638-.284-.85-.638-.85-.284 0-.637.212-.637.85C6.889 21.433 6.18 22 5.4 22a1.554 1.554 0 0 1-1.488-1.701c0-.425-.07-.638-.212-.709-.283-.354-.85-.213-.85.709a.426.426 0 0 1-.851 0c0-1.134.709-1.701 1.418-1.701.637 0 1.345.567 1.345 1.7 0 .568.355.851.638.851.354 0 .638-.283.638-.85a1.555 1.555 0 0 1 1.487-1.701c.78 0 1.488.567 1.488 1.7 0 .568.354.851.637.851.355 0 .638-.283.638-.85a1.557 1.557 0 0 1 1.488-1.701c.779 0 1.487.567 1.487 1.7 0 .568.354.851.638.851.354 0 .637-.283.637-.85a1.555 1.555 0 0 1 1.488-1.701c.779 0 1.488.567 1.488 1.7 0 .568.354.851.637.851.355 0 .638-.283.638-.85 0-1.134.708-1.701 1.417-1.701.638 0 1.346.567 1.346 1.7Zm.431-15.73v.85a.422.422 0 0 1-.589.406.424.424 0 0 1-.258-.406v-.85a1.693 1.693 0 1 0-3.386 0v12.125a.573.573 0 0 0 .402.19c.354 0 .637-.283.637-.85 0-1.134.708-1.701 1.418-1.701.637 0 1.345.567 1.345 1.701a.425.425 0 1 1-.85 0c0-.425-.071-.638-.212-.709-.284-.354-.85-.212-.85.709a1.555 1.555 0 0 1-1.488 1.701 1.6 1.6 0 0 1-1.488-1.701c0-.638-.283-.85-.638-.85-.283 0-.637.212-.637.85a1.555 1.555 0 0 1-1.487 1.701 1.6 1.6 0 0 1-1.488-1.701c0-.638-.284-.85-.638-.85-.283 0-.637.212-.637.85a1.557 1.557 0 0 1-1.488 1.701 1.6 1.6 0 0 1-1.487-1.701c0-.638-.284-.85-.638-.85-.284 0-.638.212-.638.85 0 1.134-.708 1.701-1.487 1.701a1.555 1.555 0 0 1-1.488-1.701c0-.425-.071-.638-.212-.709-.284-.354-.85-.212-.85.709a.426.426 0 0 1-.851 0c0-1.134.708-1.701 1.417-1.701.638 0 1.346.567 1.346 1.701 0 .567.354.85.638.85.354 0 .637-.283.637-.85a1.555 1.555 0 0 1 1.488-1.701c.78 0 1.488.567 1.488 1.701 0 .567.353.85.637.85.354 0 .637-.283.637-.85a1.687 1.687 0 0 1 .624-1.396V4.564a2.564 2.564 0 1 1 5.127 0v.85a.427.427 0 1 1-.854 0v-.85a1.709 1.709 0 1 0-3.418 0v2.533h5.135V4.569a2.54 2.54 0 0 1 5.08 0h.001ZM11.77 12.224h5.135v-1.725H11.77v1.725Zm0-4.265v1.725h5.135V7.96H11.77Zm5.135 6.666v-1.539H11.77v1.248h.008c.78 0 1.488.567 1.488 1.701 0 .567.354.85.638.85.353 0 .637-.283.637-.85a1.554 1.554 0 0 1 1.487-1.701c.317-.002.625.1.877.292v-.001Z" clip-rule="evenodd"/>
</svg>
