<svg xmlns="http://www.w3.org/2000/svg" width="24" height="24" fill="none" viewBox="0 0 24 24">
  <path fill="#000" fill-rule="evenodd" d="M11.994 8.505a3.484 3.484 0 0 0-3.495 3.47 3.438 3.438 0 0 0 3.495 3.471 3.485 3.485 0 0 0 3.496-3.47 3.532 3.532 0 0 0-3.496-3.471Zm0 6.073a2.603 2.603 0 1 1 .036-5.205 2.603 2.603 0 0 1-.036 5.205Zm9.566-2.994h-2.227a7.393 7.393 0 0 0-6.923-6.969V2.437a.416.416 0 1 0-.83 0v2.178a7.393 7.393 0 0 0-6.923 6.97H2.43a.415.415 0 1 0 0 .83h2.228a7.394 7.394 0 0 0 6.92 6.92v2.228a.415.415 0 1 0 .83 0v-2.227a7.394 7.394 0 0 0 6.92-6.92h2.228a.416.416 0 1 0 0-.832h.003Zm-9.566 6.904a6.512 6.512 0 1 1-.039-13.024.271.271 0 0 0 .04.01.254.254 0 0 0 .038-.01 6.512 6.512 0 1 1-.039 13.024Z" clip-rule="evenodd"/>
</svg>
