<svg xmlns="http://www.w3.org/2000/svg" width="24" height="24" fill="none" viewBox="0 0 24 24">
  <path fill="#000" fill-rule="evenodd" d="M15.775 17.87a.39.39 0 0 1-.146.578 6.808 6.808 0 0 1-3.188.929v2.172a.442.442 0 0 1-.883 0v-2.185a7.418 7.418 0 0 1-6.937-6.937H2.436a.42.42 0 0 1-.435-.44.471.471 0 0 1 .435-.442h2.179a7.805 7.805 0 0 1 .926-3.092.424.424 0 0 1 .726.435 6.627 6.627 0 0 0-.795 3.064c0 .011.008.022.008.035a.494.494 0 0 1-.01.05 6.494 6.494 0 0 0 6.482 6.478.375.375 0 0 1 .047-.01l.045.01a6.727 6.727 0 0 0 3.15-.794.381.381 0 0 1 .581.148Zm5.787-6.322h-2.184a7.426 7.426 0 0 0-6.937-6.936V2.426a.442.442 0 0 0-.883 0v2.178a7.817 7.817 0 0 0-3.19.928.472.472 0 0 0-.144.653.38.38 0 0 0 .583.145 6.202 6.202 0 0 1 3.144-.868c.017 0 .033.009.05.009a.455.455 0 0 0 .053-.01 6.547 6.547 0 0 1 6.475 6.488.275.275 0 0 0-.01.04c0 .017.008.029.01.045a6.776 6.776 0 0 1-.651 2.854.517.517 0 0 0 .218.583h.217a.399.399 0 0 0 .363-.217c.43-.881.67-1.842.704-2.822h2.184a.421.421 0 0 0 .436-.44.472.472 0 0 0-.438-.444ZM4.001 3.41a.44.44 0 0 0-.58 0 .545.545 0 0 0 0 .654L20.758 21.4c.145.073.218.145.363.145a.547.547 0 0 0 .29-.145.441.441 0 0 0 0-.58L4 3.41Z" clip-rule="evenodd"/>
</svg>
