<svg xmlns="http://www.w3.org/2000/svg" width="24" height="24" fill="none" viewBox="0 0 24 24">
  <path fill="#000" fill-rule="evenodd" d="M17.464 8.653H16.17a3.726 3.726 0 0 0-3.301-3.301V4.105a.404.404 0 0 0-.421-.417.451.451 0 0 0-.422.417v1.248a3.786 3.786 0 0 0-3.3 3.3H7.478a.422.422 0 0 0 0 .843h1.248a3.786 3.786 0 0 0 3.3 3.298v1.296a.451.451 0 0 0 .422.417.402.402 0 0 0 .421-.416v-1.293a3.726 3.726 0 0 0 3.301-3.3h1.294a.422.422 0 0 0 0-.844v-.001Zm-4.595 3.303v-1.2a.404.404 0 0 0-.421-.417.45.45 0 0 0-.422.417v1.197a2.935 2.935 0 0 1-2.458-2.457h1.245a.421.421 0 1 0 0-.843H9.568a2.937 2.937 0 0 1 2.458-2.459V7.44a.451.451 0 0 0 .422.417.403.403 0 0 0 .421-.417V6.192a2.873 2.873 0 0 1 2.46 2.46h-1.2a.422.422 0 0 0 0 .844h1.2a2.872 2.872 0 0 1-2.46 2.462v-.002ZM12.471 2A7.499 7.499 0 0 0 5 9.501a7.58 7.58 0 0 0 5.672 7.29l1.453 4.931c0 .14.207.278.346.278a.467.467 0 0 0 .415-.278l1.382-4.93A7.51 7.51 0 0 0 12.47 2l.001.001Zm1.382 14.028a.298.298 0 0 0-.277.278l-1.106 3.75-1.038-3.75c-.07-.139-.138-.278-.346-.278a6.641 6.641 0 1 1 2.767 0Z" clip-rule="evenodd"/>
</svg>
