<svg xmlns="http://www.w3.org/2000/svg" width="24" height="24" fill="none" viewBox="0 0 24 24">
  <path fill="#000" fill-rule="evenodd" d="M11.916 2C7.402 2 4 5.611 4 10.333c0 5.973 7.36 11.389 7.638 11.596.069.069.139.069.278.069a.253.253 0 0 0 .208-.07c.347-.208 7.707-5.624 7.707-11.595C19.831 5.611 16.43 2 11.916 2Zm0 19.097c-1.32-1.041-7.083-5.764-7.083-10.764 0-4.304 2.988-7.5 7.083-7.5 4.027 0 7.082 3.195 7.082 7.5 0 5-5.831 9.723-7.082 10.764ZM16.89 9.494h-1.253a3.784 3.784 0 0 0-3.3-3.298V4.94a.448.448 0 0 0-.421-.411.4.4 0 0 0-.422.411v1.253a3.725 3.725 0 0 0-3.301 3.3H6.941a.422.422 0 0 0 0 .843h1.252a3.726 3.726 0 0 0 3.3 3.301v1.252a.4.4 0 0 0 .423.412.448.448 0 0 0 .421-.412v-1.254a3.785 3.785 0 0 0 3.3-3.299h1.253a.422.422 0 0 0 0-.843Zm-4.553 3.301v-1.202a.448.448 0 0 0-.421-.412.4.4 0 0 0-.422.412v1.205a2.872 2.872 0 0 1-2.46-2.46h1.205a.422.422 0 0 0 0-.844H9.034a2.872 2.872 0 0 1 2.46-2.46V8.24a.4.4 0 0 0 .422.412.448.448 0 0 0 .421-.412V7.036a2.937 2.937 0 0 1 2.458 2.458h-1.203a.422.422 0 0 0 0 .843h1.203a2.937 2.937 0 0 1-2.458 2.458Z" clip-rule="evenodd"/>
</svg>
