<svg xmlns="http://www.w3.org/2000/svg" width="24" height="24" fill="none" viewBox="0 0 24 24">
  <path fill="#000" fill-rule="evenodd" d="M21.56 11.585h-2.226a7.407 7.407 0 0 0-6.922-6.968v-2.18a.416.416 0 1 0-.83 0v2.177a7.405 7.405 0 0 0-6.971 6.97H2.434A.456.456 0 0 0 2 12a.408.408 0 0 0 .434.416h2.18a7.406 7.406 0 0 0 6.967 6.922v2.226a.418.418 0 0 0 .416.437.415.415 0 0 0 .415-.437v-2.228a7.407 7.407 0 0 0 6.919-6.92h2.228a.41.41 0 0 0 .434-.414.457.457 0 0 0-.433-.416Zm-9.587 6.903a6.484 6.484 0 0 1-6.51-6.447.328.328 0 0 0 .009-.04.311.311 0 0 0-.01-.043 6.483 6.483 0 0 1 6.492-6.493.323.323 0 0 0 .044.01c.011 0 .023-.007.034-.008a6.511 6.511 0 0 1-.059 13.022Z" clip-rule="evenodd"/>
</svg>
