<svg xmlns="http://www.w3.org/2000/svg" width="24" height="24" fill="none" viewBox="0 0 24 24">
  <path fill="#000" fill-rule="evenodd" d="M22 12.855v-1.659a.447.447 0 0 0-.417-.414h-2.5a.392.392 0 0 0-.23.09l-1.047-3.146a.466.466 0 0 0-.415-.277h-1.246a2.954 2.954 0 0 0-2.89-2.535h-2.508a2.954 2.954 0 0 0-2.89 2.535H6.61a.466.466 0 0 0-.414.277L5.15 10.873a.392.392 0 0 0-.231-.091h-2.5a.447.447 0 0 0-.417.414v1.659a.4.4 0 0 0 .417.415h1.642l-1.992 2.493c-.07.07-.069.139-.069.278v1.808c-.001.389.105.77.307 1.103.015.024.025.053.04.076.016.024.038.044.053.067a2 2 0 0 0 .443.444v1.664a.403.403 0 0 0 .417.424h2.5a.403.403 0 0 0 .416-.424v-1.267h11.642v1.267a.403.403 0 0 0 .417.424h2.5a.402.402 0 0 0 .416-.424v-1.665c.17-.122.318-.271.441-.44.018-.025.04-.045.056-.07.017-.024.025-.049.039-.073.203-.333.31-.716.309-1.106v-1.808c0-.14 0-.209-.07-.278l-1.99-2.493h1.642a.4.4 0 0 0 .422-.415ZM6.992 19.1H5.8a.353.353 0 0 0-.04-.01H3.985a1.39 1.39 0 0 1-.159-.015c-.04-.008-.079-.024-.118-.037-.04-.012-.078-.02-.114-.035a1.248 1.248 0 0 1-.761-1.154v-1.256h1.246A2.982 2.982 0 0 1 6.992 19.1Zm-.539-2.497h11.095a3.745 3.745 0 0 0-1.345 2.498H7.799a3.745 3.745 0 0 0-1.346-2.498Zm14.713 1.246a1.246 1.246 0 0 1-.76 1.154c-.039.016-.08.025-.12.037-.04.012-.074.027-.113.035a1.41 1.41 0 0 1-.159.016h-1.776c-.013 0-.026.007-.04.009H17.01a2.98 2.98 0 0 1 2.91-2.507h1.246v1.256Zm-1.245-2.091a3.75 3.75 0 0 0-.37.018.348.348 0 0 0-.079-.018H4.53a.346.346 0 0 0-.078.018 3.735 3.735 0 0 0-.37-.018h-.915l1.951-2.49h13.768l1.952 2.49h-.916Zm-8.765-9.999h1.69v1.69h-1.69v-1.69Zm4.117 1.69h-1.629V5.797a2.033 2.033 0 0 1 1.63 1.652Zm-4.915-1.647V7.45h-1.63a2.097 2.097 0 0 1 1.629-1.647h.001ZM6.887 8.281h1.276a.486.486 0 0 0 .078.013h7.522a.497.497 0 0 0 .079-.013h1.275l1.377 4.144H5.511L6.887 8.28Zm-4.052 3.33h1.667v.83H2.834l.001-.83Zm2.512 9.17H3.682v-.848h1.666l-.001.848Zm14.974-.848v.848h-1.666v-.848h1.666Zm.845-7.495H19.5v-.83h1.666v.83Zm-5.41 5.43a.402.402 0 0 1-.417.424H8.664a.4.4 0 0 1-.417-.424.451.451 0 0 1 .417-.424h6.675a.452.452 0 0 1 .418.426v-.002Zm-4.6-14.177V2.424a.424.424 0 0 1 .848 0V3.69a.424.424 0 0 1-.848 0Zm2.649.282a.334.334 0 0 1 0-.563l.823-.845a.41.41 0 0 1 .549 0 .333.333 0 0 1 0 .563l-.824.845c-.069.14-.137.14-.274.14a.27.27 0 0 1-.276-.138l.002-.002Zm-5.399-.845a.333.333 0 0 1 0-.563.409.409 0 0 1 .549 0l.823.845a.334.334 0 0 1 0 .563c-.068.14-.137.14-.274.14a.272.272 0 0 1-.275-.14l-.823-.845Z" clip-rule="evenodd"/>
</svg>
