<svg xmlns="http://www.w3.org/2000/svg" width="24" height="24" fill="none" viewBox="0 0 24 24">
  <path fill="#000" fill-rule="evenodd" d="M21.581 15.997h-.43v-4.591a.4.4 0 0 0-.416-.418h-1.317a4.856 4.856 0 0 0-4.577-3.345h-1.788l-.627-1.364a.474.474 0 0 0-.42-.279h-1.68a.515.515 0 0 0-.42.349c-.101.456-.24.985-.335 1.294h-.9a.462.462 0 0 0-.348.278l-1.525 3.067H3.26a.449.449 0 0 0-.415.418v4.591h-.429A.452.452 0 0 0 2 16.42a.403.403 0 0 0 .417.422h2.12a2.1 2.1 0 0 0 2.04 1.644 2.043 2.043 0 0 0 2.043-1.644h5.117a2.08 2.08 0 0 0 2.016 1.644 2.027 2.027 0 0 0 2.02-1.644h3.808a.369.369 0 0 0 .415-.422.403.403 0 0 0-.415-.423Zm-11.045-8.6c.005-.195.053-.386.14-.56h1.05l.385.807h-1.659l.084-.248Zm-6.859 4.428h3.329a.418.418 0 0 0 .416-.21L8.947 8.48h.812c.026.01.051.024.078.033.08.02.163.008.234-.033h2.552c.048.02.1.031.152.033h.21c.015-.01.024-.023.037-.033h1.82a3.926 3.926 0 0 1 3.813 3.066.467.467 0 0 0 .416.279h1.248v4.173h-2.54a2.076 2.076 0 0 0-2.026-1.69 2.135 2.135 0 0 0-2.023 1.69H8.625a2.093 2.093 0 0 0-2.048-1.69 2.153 2.153 0 0 0-2.046 1.69h-.854v-4.173Zm2.9 5.826a1.246 1.246 0 0 1-1.248-1.2c0-.012.004-.02.004-.03 0-.011-.006-.03-.007-.046a1.252 1.252 0 0 1 2.503.009.315.315 0 0 0-.008.035c0 .01.004.016.004.024a1.245 1.245 0 0 1-1.248 1.207Zm9.178 0a1.254 1.254 0 1 1 1.239-1.254 1.24 1.24 0 0 1-1.242 1.253h.002Zm-7.043-6.383L9.55 9.61a.464.464 0 0 1 .349-.277h.837a.4.4 0 0 1 .419.415.369.369 0 0 1-.419.415h-.558l-.698 1.45a.498.498 0 0 1-.419.208h-.139c-.21-.14-.35-.347-.21-.554v.001Zm-.045 1.398h.845v.845h-.845v-.845Zm-.845.845h-.845v-.845h.845v.845Zm-1.643 0h-.846v-.845h.846v.845Zm4.13-.845h.845v.845h-.845v-.845Zm2.535.845h-.845v-.845h.845v.845Zm1.643 0h-.798v-.845h.798v.845Zm1.69 0h-.845v-.845h.845v.845Zm1.643 0h-.798v-.845h.798v.845Zm1.69 0h-.845v-.845h.845v.845Z" clip-rule="evenodd"/>
</svg>
