<svg xmlns="http://www.w3.org/2000/svg" width="24" height="24" fill="none" viewBox="0 0 24 24">
  <path fill="#000" fill-rule="evenodd" d="M18.617 2h-1.676a2.097 2.097 0 0 0-2.096 2.088v7.114H4.418a.4.4 0 0 0-.418.414v1.659a.448.448 0 0 0 .418.415h.438a4.366 4.366 0 0 0 3.954 4.079l-.556 3.745c-.07.139 0 .208.07.347A.527.527 0 0 0 8.6 22h8.347a.4.4 0 0 0 .417-.416v-4.786l2.365-1.526a.529.529 0 0 0 .139-.347v-1.309a1.241 1.241 0 0 0 .845-1.179v-8.35A2.056 2.056 0 0 0 18.617 2ZM4.835 12.031h10.01v.814H5.262a.475.475 0 0 0-.091.016h-.334l-.002-.83Zm11.904 4.212a.382.382 0 0 0-.21.347v4.578H9.087l.555-3.677a.304.304 0 0 0-.07-.346c-.07-.14-.208-.14-.348-.14a3.504 3.504 0 0 1-3.476-3.315H19.03v.958l-2.291 1.595Zm3.136-3.806a.402.402 0 0 1-.391.413c-.013 0-.021-.005-.033-.005H15.69v-1.229c0-.018-.006-.03-.007-.046V4.087a1.296 1.296 0 0 1 1.258-1.253h1.677a1.25 1.25 0 0 1 1.257 1.253v8.35Zm-1.674-8.324a1.244 1.244 0 1 0 .053 2.488 1.244 1.244 0 0 0-.053-2.488Zm0 1.658a.444.444 0 0 1-.414-.414.399.399 0 0 1 .414-.415.367.367 0 0 1 .415.415.399.399 0 0 1-.415.414Z" clip-rule="evenodd"/>
</svg>
