<svg xmlns="http://www.w3.org/2000/svg" width="24" height="24" fill="none" viewBox="0 0 24 24">
  <path fill="#000" fill-rule="evenodd" d="M17.219 21.15h-4.135v-2.486h1.227a.45.45 0 0 0 .415-.425.402.402 0 0 0-.415-.425h-1.227v-1.641h1.227a.451.451 0 0 0 .415-.425.403.403 0 0 0-.415-.422h-1.227V12.6a3.886 3.886 0 0 0 2.25-2.263h.62a.447.447 0 0 0 .414-.417V8.253a.398.398 0 0 0-.414-.417h-.62a3.707 3.707 0 0 0-3.094-2.469V2.422a.422.422 0 0 0-.844 0v2.945a3.707 3.707 0 0 0-3.094 2.47h-.62a.399.399 0 0 0-.414.416v1.668a.447.447 0 0 0 .413.417h.62a3.887 3.887 0 0 0 2.25 2.263v2.725H9.326a.402.402 0 0 0-.415.422.451.451 0 0 0 .415.425h1.227v1.642H9.325a.402.402 0 0 0-.415.424.45.45 0 0 0 .415.425h1.227v2.486H6.416a.403.403 0 0 0-.415.425.45.45 0 0 0 .415.425h10.802a.45.45 0 0 0 .415-.425.401.401 0 0 0-.414-.425ZM8.634 9.52c-.02 0-.037-.005-.053-.005h-.483V8.68h.483c.01 0 .02-.004.031-.004h6.354c.008 0 .017.004.024.004h.552v.835h-.552c-.012 0-.028.003-.042.004H8.634Zm3.151-3.338c.011 0 .021.007.033.007.01 0 .021-.006.033-.007a2.847 2.847 0 0 1 2.554 1.65H9.187a2.961 2.961 0 0 1 2.598-1.654v.004Zm-2.573 4.182h5.17a2.816 2.816 0 0 1-2.564 1.652 2.92 2.92 0 0 1-2.606-1.654v.002Zm2.184 2.451c.28.046.564.046.844 0v2.52h-.844v-2.52Zm0 3.365h.844v1.642h-.844V16.18Zm0 2.486h.844v2.486h-.844v-2.486Z" clip-rule="evenodd"/>
</svg>
