<svg xmlns="http://www.w3.org/2000/svg" width="24" height="24" fill="none" viewBox="0 0 24 24">
  <path fill="#000" fill-rule="evenodd" d="m12.468 5.757-.05-.912a.388.388 0 0 0-.416-.347.844.844 0 0 1-.832-.835.831.831 0 1 1 1.663 0 .416.416 0 1 0 .832 0 1.663 1.663 0 0 0-3.326 0 1.71 1.71 0 0 0 1.247 1.6l.038.499C7.553 6.05 2 10.108 2 11.847a.869.869 0 0 0 .417.762c.25.15.54.223.832.209h2.919v8.719a.448.448 0 0 0 .417.416h10.83a.447.447 0 0 0 .418-.416v-8.72h2.918a1.48 1.48 0 0 0 .832-.208.87.87 0 0 0 .417-.762c.003-1.678-5.7-5.811-9.532-6.09ZM17 18.624H7.002V10.32h9.999v8.304Zm-9.999 2.494v-1.651H17v1.651H7.002Zm13.751-9.136h-2.919V9.904a.4.4 0 0 0-.417-.416H6.587a.4.4 0 0 0-.418.416v2.078H3.25a1.006 1.006 0 0 1-.416-.069c.064-.254.182-.49.347-.694C4.567 9.355 8.905 6.6 12.027 6.575c.016 0 .027.009.044.009.008 0 .015-.007.023-.01 2.848.014 7.273 2.778 8.66 4.576.415.554.416.693.416.693 0 .07-.14.14-.417.14Z" clip-rule="evenodd"/>
</svg>
