<svg xmlns="http://www.w3.org/2000/svg" width="24" height="24" fill="none" viewBox="0 0 24 24">
  <path fill="#000" fill-rule="evenodd" d="M12.13 9.508a2.488 2.488 0 1 0 0 4.976 2.488 2.488 0 0 0 0-4.976Zm0 4.147a1.66 1.66 0 1 1 0-3.318 1.66 1.66 0 0 1 0 3.318Zm0 1.674a2.512 2.512 0 0 0 0 5.022 2.512 2.512 0 0 0 0-5.022Zm0 4.186a1.674 1.674 0 1 1 0-3.348 1.674 1.674 0 0 1 0 3.348Zm0-15.875a2.512 2.512 0 0 0 0 5.022 2.512 2.512 0 0 0 0-5.022Zm0 4.186a1.675 1.675 0 1 1 0-3.349 1.675 1.675 0 0 1 0 3.35Zm9.11 2.376a.422.422 0 0 0 .07-.414.469.469 0 0 0-.417-.277h-3.74V8.445c.216-.216 1.026-1.033 4.088-4.104a.431.431 0 0 0 .069-.419.468.468 0 0 0-.417-.279h-3.79A2.085 2.085 0 0 0 15.07 2H9.238A2.146 2.146 0 0 0 7.21 3.643H3.393a.461.461 0 0 0-.347.28c-.07.139-.07.348.069.418l4.04 4.058v1.113H3.393a.46.46 0 0 0-.347.277c-.07.138-.07.345.069.414l4.04 4.02v1.111H3.393a.46.46 0 0 0-.347.28c-.07.139-.07.348.069.418l4.06 4.078A2.085 2.085 0 0 0 9.237 22h5.832a2.034 2.034 0 0 0 2.06-1.841l4.11-4.129a.431.431 0 0 0 .07-.418.468.468 0 0 0-.417-.28h-3.74v-1.064l4.088-4.066Zm-1.32.139-2.767 2.753v-2.753h2.767Zm-2.767-3.082v-2.78h2.767l-2.767 2.78Zm-12.72-2.78h2.72v2.732L4.433 4.48Zm0 5.862h2.72v2.706c-.5-.5-1.328-1.325-2.72-2.71v.004Zm2.72 5.831v2.732l-2.72-2.732h2.72Zm7.917 4.997H9.238a1.293 1.293 0 0 1-1.242-1.152.454.454 0 0 0-.01-.216v-5.586a.444.444 0 0 0 0-.278V8.391a.452.452 0 0 0 0-.281V4.085a1.292 1.292 0 0 1 1.25-1.25h5.831a1.242 1.242 0 0 1 1.246 1.2.282.282 0 0 0-.007.029.42.42 0 0 0 .011.06V9.88a.321.321 0 0 0-.011.05.4.4 0 0 0 .011.06v5.716a.32.32 0 0 0-.011.05.42.42 0 0 0 .011.06v4.104a1.243 1.243 0 0 1-1.247 1.244v.006Zm4.85-4.997-2.767 2.78v-2.78h2.767Z" clip-rule="evenodd"/>
</svg>
