<svg xmlns="http://www.w3.org/2000/svg" width="24" height="24" fill="none" viewBox="0 0 24 24">
  <path fill="#000" fill-rule="evenodd" d="M12.317 7.82a1.666 1.666 0 1 0 0 3.332 1.666 1.666 0 0 0 0-3.332Zm0 2.5a.8.8 0 0 1-.833-.834.844.844 0 0 1 .833-.833.897.897 0 0 1 .834.833.845.845 0 0 1-.834.834Zm0 1.678a1.666 1.666 0 1 0 0 3.332 1.666 1.666 0 0 0 0-3.332Zm0 2.5a.802.802 0 0 1-.833-.834.844.844 0 0 1 .833-.833.898.898 0 0 1 .834.833.845.845 0 0 1-.834.834Zm0-10.856a1.665 1.665 0 1 0 0 3.333 1.667 1.667 0 1 0 0-3.333Zm0 2.5a.801.801 0 0 1-.833-.834.844.844 0 0 1 .833-.833.896.896 0 0 1 .834.833.845.845 0 0 1-.834.834ZM18.4 8.515c.138-.07.138-.278.07-.417a.462.462 0 0 0-.347-.278h-2.495v-.694L18.4 4.337c.138-.07.138-.278.07-.417a.46.46 0 0 0-.347-.278h-2.55A2.145 2.145 0 0 0 13.543 2h-2.5a2.087 2.087 0 0 0-2.032 1.642H6.446a.472.472 0 0 0-.42.278.424.424 0 0 0 .07.417l2.865 2.847v.635H6.446a.472.472 0 0 0-.42.278.424.424 0 0 0 .07.418l2.865 2.846v.636H6.446a.472.472 0 0 0-.42.278.424.424 0 0 0 .07.417l2.865 2.847v.229a1.245 1.245 0 0 0 1.25 1.252h1.238v4.56a.37.37 0 0 0 .423.416.401.401 0 0 0 .424-.416v-4.557h2.084a1.246 1.246 0 0 0 1.25-1.252v-.287l2.771-2.789c.139-.069.139-.278.07-.417a.462.462 0 0 0-.346-.278h-2.496v-.694l2.77-2.79Zm-1.314.14-1.458 1.467V8.655h1.458Zm-1.458-2.711V4.477h1.458l-1.458 1.467Zm-8.2-1.467h1.535v1.525L7.426 4.477Zm0 4.178h1.535v1.524L7.426 8.655Zm0 4.178h1.535v1.524l-1.536-1.524Zm6.95 3.353h-2.46a.342.342 0 0 0-.046-.01.436.436 0 0 0-.053.01h-1.606a.37.37 0 0 1-.417-.417v-3.294c.006-.02.01-.04.012-.06a.332.332 0 0 0-.012-.05V8.298c.006-.02.01-.04.012-.06a.347.347 0 0 0-.012-.05V4.12c.006-.02.01-.04.012-.06 0-.009-.006-.018-.007-.027a1.243 1.243 0 0 1 1.245-1.199h2.5a1.246 1.246 0 0 1 1.25 1.253V6.84a.46.46 0 0 0 0 .283v3.895a.46.46 0 0 0 0 .283v3.895a.459.459 0 0 0 0 .283v.292a.4.4 0 0 1-.418.415Zm2.708-3.353L15.627 14.3v-1.467h1.458Z" clip-rule="evenodd"/>
</svg>
