<svg xmlns="http://www.w3.org/2000/svg" width="24" height="24" fill="none" viewBox="0 0 24 24">
  <path fill="#000" d="m16.12 10.102 1.67-3.304a.436.436 0 0 0 0-.414.383.383 0 0 0-.348-.206H6.588a.383.383 0 0 0-.348.206.868.868 0 0 0-.07.414l1.67 3.304a.496.496 0 0 0 .418.207h7.514a.383.383 0 0 0 .348-.207Zm-7.584-.62L7.284 7.004h9.462l-1.252 2.478H8.536Zm13.408 11.959-3.346-8.456c.547-1.326.838-2.745.857-4.18a6.681 6.681 0 0 0-1.738-4.722C16.395 2.694 14.518 2 12.014 2c-2.504 0-4.45.694-5.702 2.083a6.683 6.683 0 0 0-1.738 4.722 11.33 11.33 0 0 0 .834 4.12L2.015 21.44a.473.473 0 0 0 .278.557h.138a.354.354 0 0 0 .346-.278s0-.004.549-1.365h17.3l.551 1.365a.383.383 0 0 0 .419.278h.14a.385.385 0 0 0 .208-.556Zm-3.005-5.265h-2.251a11.153 11.153 0 0 0 1.404-2.096l.847 2.096Zm-6.924 1.655a3.9 3.9 0 0 1-.636-.053 4.79 4.79 0 0 1-1.854-.777 1.942 1.942 0 0 1-.415-1.249c0-1.387 1.313-2.497 2.903-2.497s2.902 1.11 2.902 2.497c.012.452-.135.894-.414 1.249a4.788 4.788 0 0 1-1.854.777c-.21.035-.42.053-.632.053ZM6.87 4.638c1.181-1.18 2.85-1.805 5.145-1.805 2.224 0 3.963.625 5.076 1.805a6.017 6.017 0 0 1 1.53 4.167 10.494 10.494 0 0 1-.82 3.912.37.37 0 0 0-.118.264 10.477 10.477 0 0 1-1.956 3.005c.007-.078.02-.156.02-.233 0-1.804-1.66-3.33-3.732-3.33-2.073 0-3.732 1.526-3.732 3.33 0 .077.013.155.02.232a11.027 11.027 0 0 1-2.894-7.178 5.972 5.972 0 0 1 1.46-4.169Zm.472 11.538H5.004l.882-2.195c.398.786.886 1.523 1.456 2.195ZM3.665 19.51l1-2.49H8.16c.248.223.51.43.785.618a.072.072 0 0 1 .028.053c.26.16.517.297.771.418.703.357 1.48.547 2.27.554h.003a5.805 5.805 0 0 0 3.85-1.642h3.411l1.007 2.49H3.666Z"/>
</svg>
