<svg xmlns="http://www.w3.org/2000/svg" width="24" height="24" fill="none" viewBox="0 0 24 24">
  <path fill="#000" fill-rule="evenodd" d="M21.832 13.706A9.994 9.994 0 0 1 2 11.974a9.985 9.985 0 0 1 18.237-5.61.382.382 0 0 1-.138.554.43.43 0 0 1-.555-.07 9.975 9.975 0 0 0-.5-.651L17.736 7.67c-.069.135-.205.135-.342.135a.38.38 0 0 1-.273-.684l1.396-1.514a9.195 9.195 0 0 0-4.074-2.433l-3.431 1.948.555.97a.443.443 0 0 1 0 .416L9.9 9.281c-.07.138-.139.208-.278.208l-3.749 1.109L7.33 15.45l4.374 1.595a.354.354 0 0 1 .278.346v2.08a.368.368 0 0 1-.416.416.402.402 0 0 1-.417-.416v-1.733l-4.304-1.594c-.07-.07-.208-.14-.208-.278L4.968 10.46a.21.21 0 0 1 0-.277c.07-.139.139-.208.278-.208l3.957-1.248L10.66 6.3l-.625-1.178a.576.576 0 0 1 .139-.555l2.965-1.662a9.053 9.053 0 0 0-1.159-.075A9.144 9.144 0 1 0 21 13.57a.52.52 0 0 1 .484-.346c.278.068.417.275.347.482Zm.072-3.175a1.763 1.763 0 0 1-.763.829l-2.775 1.172-2.218 4.074-.209.207-1.872.967h-.208a.42.42 0 0 1-.278-.07.406.406 0 0 1-.069-.483l1.248-3.246-2.912 1.172a.884.884 0 0 1-.416-.069l-3.745-2.416a.417.417 0 0 1-.208-.415.379.379 0 0 1 .208-.345l1.664-.898c.139-.069.277-.138.347-.069l2.08.898 2.358-.935-2.376-1.55a.591.591 0 0 1-.207-.412.376.376 0 0 1 .207-.342l1.66-.823a.44.44 0 0 1 .415 0l3.172 1.989 2.954-1.173a1.464 1.464 0 0 1 1.873.76 1.411 1.411 0 0 1 .068 1.18l.002-.002Zm-6.813 0 .992-.393-2.454-1.533-.83.41 2.292 1.516Zm5.98-.827a.642.642 0 0 0-.832-.276l-8.322 3.314a.76.76 0 0 1-.347-.069l-2.011-.898-.902.553 3.052 1.934 3.607-1.382c.07 0 .07-.069.139-.069a.363.363 0 0 1 .277.138.427.427 0 0 1 .14.484l-1.25 3.107.833-.414 2.219-4.074c.07-.138.139-.138.208-.207l2.913-1.243a.84.84 0 0 0 .347-.345.775.775 0 0 0-.07-.553Z" clip-rule="evenodd"/>
</svg>
