<svg xmlns="http://www.w3.org/2000/svg" width="24" height="24" fill="none" viewBox="0 0 24 24">
  <path fill="#000" fill-rule="evenodd" d="M15.557 6.973h-2.098V2.845h.852a.403.403 0 0 0 .415-.423.451.451 0 0 0-.415-.422H9.325a.45.45 0 0 0-.415.422.403.403 0 0 0 .415.423h.852v4.128H8.079A2.087 2.087 0 0 0 6 9.056V19.06a2.044 2.044 0 0 0 2.079 2.083h.408v.435a.423.423 0 0 0 .845 0v-.435h4.974v.435a.423.423 0 0 0 .844 0v-.435h.41a2.086 2.086 0 0 0 2.078-2.083V9.056a2.134 2.134 0 0 0-2.081-2.083Zm-4.585-4.128h1.69v4.128h-1.69V2.845Zm5.832 16.216a1.243 1.243 0 0 1-1.247 1.25h-7.48a1.243 1.243 0 0 1-1.247-1.25V9.057a1.244 1.244 0 0 1 1.247-1.25h2.434c.02.006.041.01.062.012a.406.406 0 0 0 .062-.012h2.363a.41.41 0 0 0 .062.012.398.398 0 0 0 .062-.012h2.435a1.244 1.244 0 0 1 1.247 1.25v10.004Zm-1.656-9.154a.392.392 0 0 1-.416.398h-4.557v.434a.423.423 0 0 1-.844 0v-.434h-.429a.392.392 0 0 1-.416-.398.44.44 0 0 1 .416-.4h5.83a.438.438 0 0 1 .414.4h.002Zm-.416 4.575h-5.83a.448.448 0 0 0-.417.417v2.506a1.247 1.247 0 0 0 1.25 1.253h4.164a1.245 1.245 0 0 0 1.249-1.253v-2.506a.448.448 0 0 0-.418-.419l.002.002Zm-.417 2.923a.402.402 0 0 1-.416.417H9.735a.402.402 0 0 1-.417-.417v-2.091h4.997v2.09Z" clip-rule="evenodd"/>
</svg>
