<svg xmlns="http://www.w3.org/2000/svg" width="24" height="24" fill="none" viewBox="0 0 24 24">
  <path fill="#000" fill-rule="evenodd" d="M21.166 3.423a.528.528 0 0 0-.14-.348.754.754 0 0 0-.347-.07l-4.513 1.252-4.03-1.251h-.205l-4.098 1.25-4.444-1.25a.519.519 0 0 0-.347.07.384.384 0 0 0-.208.347L2 18.85a.44.44 0 0 0 .347.416l5 1.251h.208L12 19.267l4.514 1.25h.208l5-1.25A.47.47 0 0 0 22 18.85l-.834-15.427Zm-4.584 16.26-4.444-1.25h-.207l-4.514 1.25-4.583-1.18.833-14.524L7.764 5.09h.208l4.03-1.25L16.1 5.09h.209l4.097-1.111.764 14.523-4.587 1.181Zm1.546-11.825-.559.558.559.558a.326.326 0 0 1 0 .559.362.362 0 0 1-.28.14.528.528 0 0 1-.279-.14l-.558-.559-.558.559a.362.362 0 0 1-.28.14.528.528 0 0 1-.278-.14.424.424 0 0 1 0-.559l.558-.558-.558-.558a.424.424 0 0 1 0-.558.325.325 0 0 1 .558 0l.558.558.558-.558a.395.395 0 0 1 .559.558ZM6.44 14.388a.322.322 0 0 1 0 .552l-.416.415a.358.358 0 0 1-.276.139.522.522 0 0 1-.277-.139.42.42 0 0 1 0-.553l.415-.415a.323.323 0 0 1 .554 0Zm2.488-2.49a.323.323 0 0 1 0 .554l-.415.415a.36.36 0 0 1-.277.139.528.528 0 0 1-.277-.139.421.421 0 0 1 0-.553l.415-.415a.324.324 0 0 1 .554 0Zm8.893-1.39v.82a.392.392 0 0 1-.4.412.435.435 0 0 1-.399-.411v-.822a.436.436 0 0 1 .4-.41.39.39 0 0 1 .399.409v.001Zm-3.448 2.23a.325.325 0 0 1 .115.435.324.324 0 0 1-.114.118.358.358 0 0 1-.277.139.528.528 0 0 1-.277-.139l-.415-.415a.422.422 0 0 1 0-.553.324.324 0 0 1 .554 0l.415.415Zm-1.952-1.797a.405.405 0 0 1-.422.423h-.845a.423.423 0 0 1 0-.845h.845a.405.405 0 0 1 .422.42v.002Zm4.864 2.227a.322.322 0 0 1 .113.435.323.323 0 0 1-.113.118l-.416.415a.358.358 0 0 1-.277.139.522.522 0 0 1-.276-.139.42.42 0 0 1 0-.553l.415-.415a.324.324 0 0 1 .553-.002v.002Z" clip-rule="evenodd"/>
</svg>
