<svg xmlns="http://www.w3.org/2000/svg" width="24" height="24" fill="none" viewBox="0 0 24 24">
  <path fill="#000" fill-rule="evenodd" d="m5.312 13.929 1.259-2.5a.472.472 0 0 1 .42-.277h1.258a.45.45 0 0 1 .42.417.4.4 0 0 1-.42.416h-1.05l-1.118 2.291a.384.384 0 0 1-.35.209H5.52a.464.464 0 0 1-.207-.556Zm16.686 1.817v4.185a.403.403 0 0 1-.417.423h-1.698a2.099 2.099 0 0 1-2.04 1.642 2.042 2.042 0 0 1-2.042-1.642H8.2a2.098 2.098 0 0 1-2.04 1.642 2.043 2.043 0 0 1-2.043-1.642H2.421a.372.372 0 0 1-.418-.417V15.35a.416.416 0 0 1 .07-.278l1.672-1.6L5.763 9.79a.472.472 0 0 1 .418-.278h3.761a.449.449 0 0 1 .418.417v4.56l9.152-12.172a.389.389 0 0 1 .583-.259c.018.005.036.007.053.013.016.018.03.036.044.056a.543.543 0 0 1 .037.048c.003.005.008.01.01.015a.39.39 0 0 1 .09.228v7.922a.4.4 0 0 1-.418.416 1.372 1.372 0 0 0-1.253 1.39 1.307 1.307 0 0 0 1.253 1.32c.557 0 1.254-.208 1.254-1.042a.4.4 0 0 1 .418-.417.448.448 0 0 1 .417.417 1.927 1.927 0 0 1-2.089 1.876 2.107 2.107 0 0 1-2.088-2.154 2.171 2.171 0 0 1 1.67-2.154V4.738c-2.601 6.92-3.602 9.576-3.982 10.594h6.073a.448.448 0 0 1 .416.414h-.002Zm-5.82 2.917h-6.112a.476.476 0 0 1-.28-.001H7.8c.197.248.334.538.402.848h7.594c.063-.308.195-.598.385-.848h-.001Zm4.988-2.5h-6.198c-.016 0-.03.011-.045.011h-4.565v1.643h10.807v-1.654ZM18.474 5.056 10.75 15.332h3.827l3.897-10.276Zm-15.637 10.5v2.261h6.674v-1.829c-.006-.01-.019-.013-.024-.024a.321.321 0 0 1 .033-.37V10.34H6.387l-1.95 3.544c0 .07-.069.07-.069.14l-1.531 1.532Zm0 3.962h1.272c.062-.31.193-.603.384-.856H2.84l-.003.856Zm4.567.441c0-.01-.004-.018-.004-.03a.362.362 0 0 1 .007-.043 1.295 1.295 0 0 0-1.165-1.224h-.17a1.295 1.295 0 0 0-1.165 1.196.358.358 0 0 1 .018.077.428.428 0 0 1-.014.07 1.248 1.248 0 0 0 2.49-.046h.003Zm11.685.024c0-.018-.007-.033-.007-.053a.43.43 0 0 1 .01-.065 1.295 1.295 0 0 0-1.164-1.202h-.17a1.294 1.294 0 0 0-1.166 1.232.3.3 0 0 1 .009.035c0 .009-.005.015-.005.024a1.249 1.249 0 0 0 2.494.03Zm2.076-.477v-.845h-1.677c.196.248.333.537.402.845h1.275Z" clip-rule="evenodd"/>
</svg>
