<svg xmlns="http://www.w3.org/2000/svg" width="24" height="24" fill="none" viewBox="0 0 24 24">
  <path fill="#000" fill-rule="evenodd" d="M20.734 6.179h-1.229V4.952a.399.399 0 0 0-.416-.416h-.428V3.26a.4.4 0 0 0-.417-.415h-2.5a.447.447 0 0 0-.416.415v1.275h-.847V2.417A.4.4 0 0 0 14.066 2H9.08a.447.447 0 0 0-.416.417v2.119H7.82V3.26a.4.4 0 0 0-.417-.415h-2.5a.448.448 0 0 0-.416.415v1.275h-.382a.448.448 0 0 0-.416.416V6.18H2.415A.448.448 0 0 0 2 6.597v3.341a.4.4 0 0 0 .415.418H3.69v5.82h-.428a.449.449 0 0 0-.417.418v3.342a.401.401 0 0 0 .417.418h1.226v1.227a.4.4 0 0 0 .417.415h2.5a.369.369 0 0 0 .416-.415v-1.227h7.51v1.227a.398.398 0 0 0 .416.415h2.5a.367.367 0 0 0 .416-.415v-1.227h1.271a.37.37 0 0 0 .417-.418v-3.342a.4.4 0 0 0-.417-.418h-.428v-5.82h1.228a.37.37 0 0 0 .415-.418V6.597a.4.4 0 0 0-.415-.418ZM16.16 3.676h1.666v.829H16.16v-.83Zm-10.842 0h1.666v.829H5.32l-.001-.83ZM3.657 9.52h-.83V7.014h.83V9.52Zm15.016-2.978a.32.32 0 0 0-.012.053v3.342a.404.404 0 0 0 .012.063v1.152h-6.679V5.368h6.678l.001 1.175ZM4.521 11.154V5.368h6.63v5.786h-6.63Zm4.974-8.32h4.157v1.667H9.495V2.835Zm4.782 16.685-1.921-2.497h1.527l1.888 2.49h-.026a.351.351 0 0 0-.04.008l-1.428-.001Zm-6.815 0 1.895-2.497h1.527l-1.92 2.497H7.462Zm.904-2.497-1.887 2.49H4.982l1.888-2.49h1.496Zm3.254.35 1.652 2.147H9.968l1.652-2.148Zm6.624 2.138h-1.483l-1.887-2.49h1.497l1.89 2.49a.185.185 0 0 0-.017-.001ZM3.678 17.012h.371a.477.477 0 0 0 .053.01h1.775L3.983 19.52h-.308l.003-2.506Zm3.309 4.156H5.32v-.813h1.667v.813Zm10.842 0h-1.666v-.813h1.666v.813Zm1.69-1.65h-.262l-1.894-2.496h1.728a.605.605 0 0 0 .065-.01h.362v2.507Zm-14.997-3.34V12h14.153v4.177H4.522Zm15.799-6.656h-.814V7.015h.814v2.507ZM6.998 13.267a1.337 1.337 0 0 0-1.243 1.244 1.285 1.285 0 0 0 1.243 1.244 1.236 1.236 0 0 0 1.245-1.244 1.285 1.285 0 0 0-1.247-1.245l.002.001Zm0 1.659a.399.399 0 0 1-.414-.415.446.446 0 0 1 .414-.415.4.4 0 0 1 .415.415.367.367 0 0 1-.417.414h.002Zm9.153-1.659a1.337 1.337 0 0 0-1.244 1.244 1.285 1.285 0 0 0 1.244 1.244 1.237 1.237 0 0 0 1.244-1.244 1.285 1.285 0 0 0-1.246-1.245l.002.001Zm0 1.659a.4.4 0 0 1-.415-.415.447.447 0 0 1 .415-.415.399.399 0 0 1 .415.415.366.366 0 0 1-.417.414h.002Zm-2.089-1.659a.371.371 0 0 1-.414.424H9.502a.402.402 0 0 1-.414-.424.45.45 0 0 1 .414-.423h4.146a.402.402 0 0 1 .412.422l.002.001Zm0 1.642a.371.371 0 0 1-.414.424H9.502a.4.4 0 0 1-.414-.424.45.45 0 0 1 .414-.424h4.146a.4.4 0 0 1 .412.424h.002Z" clip-rule="evenodd"/>
</svg>
