<svg xmlns="http://www.w3.org/2000/svg" width="24" height="24" fill="none" viewBox="0 0 24 24">
  <path fill="#000" fill-rule="evenodd" d="M15.554 11.529H8.703a.46.46 0 0 0-.429.426v5.122a.411.411 0 0 0 .429.427h6.851a.41.41 0 0 0 .429-.427v-5.12a.46.46 0 0 0-.429-.428Zm-.428 5.121H9.13v-4.268h5.996v4.268Zm-4.251-.88h-.867v-2.556h.867v2.556Zm1.685 0h-.819v-2.556h.82v2.556Zm1.735 0h-.867v-2.556h.867v2.556Zm7.276-10.216a2.155 2.155 0 0 0-2.168 2.128v2.112h-.393a.459.459 0 0 0-.426.428v3.853h-.87V5.128A2.14 2.14 0 0 0 15.573 3H8.721a2.14 2.14 0 0 0-2.14 2.128v8.947h-.87v-3.853a.46.46 0 0 0-.426-.428h-.442V7.682c0-1.206-1.279-2.128-2.417-2.128A.458.458 0 0 0 2 5.979a.41.41 0 0 0 .426.426c.712 0 1.564.639 1.564 1.277v2.112h-.407a.459.459 0 0 0-.426.428v10.277a.41.41 0 0 0 .428.428h1.258v.398a.411.411 0 0 0 .435.422h1.735a.413.413 0 0 0 .435-.422v-.398h9.396v.398a.407.407 0 0 0 .426.422h1.703a.407.407 0 0 0 .425-.422v-.398h1.305a.412.412 0 0 0 .428-.428V10.222a.458.458 0 0 0-.425-.428h-.442V7.682a1.284 1.284 0 0 1 1.3-1.277A.412.412 0 0 0 22 5.98a.463.463 0 0 0-.428-.425ZM16.86 9.795H7.442v-3.42h9.42l-.002 3.42ZM8.726 3.852h6.851a1.276 1.276 0 0 1 1.285 1.277v.426h-9.42v-.426A1.276 1.276 0 0 1 8.727 3.85l-.001.001Zm-3.861 10.27c-.31.066-.6.202-.851.397V10.65h.345c.022.006.045.01.067.012a.446.446 0 0 0 .067-.012h.376l-.004 3.47Zm14.159 5.948a.302.302 0 0 0-.048-.011h-1.703a.302.302 0 0 0-.048.011H7.066a.293.293 0 0 0-.049-.011H5.283a.318.318 0 0 0-.05.011H4.019v-.881h3.004a.411.411 0 0 0 .43-.426V17.06a.46.46 0 0 0-.43-.425H4.018v-.42a1.278 1.278 0 0 1 1.284-1.285h1.712a.411.411 0 0 0 .428-.428V10.66h9.415v3.842a.414.414 0 0 0 .428.428h1.712a1.28 1.28 0 0 1 1.283 1.284v.421h-3.004a.458.458 0 0 0-.429.425v1.703a.41.41 0 0 0 .429.426h3.004v.878l-1.256.003ZM4.02 18.34v-.851h2.573v.851H4.02Zm16.259-.851v.851h-2.573v-.851h2.573Zm.006-2.97a2.108 2.108 0 0 0-.851-.398v-3.47h.334a.46.46 0 0 0 .068.012.486.486 0 0 0 .068-.012h.38l.001 3.868Z" clip-rule="evenodd"/>
</svg>
