<svg xmlns="http://www.w3.org/2000/svg" width="24" height="24" fill="none" viewBox="0 0 24 24">
  <path fill="#000" fill-rule="evenodd" d="M15.514 12.849a1.285 1.285 0 0 0-1.244 1.244 1.246 1.246 0 0 0 2.49 0 1.285 1.285 0 0 0-1.246-1.244Zm0 1.659a.398.398 0 0 1-.415-.415.415.415 0 0 1 .83 0 .399.399 0 0 1-.415.415Zm-6.668-1.66a1.286 1.286 0 0 0-1.245 1.245 1.246 1.246 0 0 0 2.491 0 1.286 1.286 0 0 0-1.246-1.244Zm0 1.66a.397.397 0 0 1-.415-.415.415.415 0 0 1 .83 0 .398.398 0 0 1-.415.415Zm10.425-.814c-.45 0-.886.147-1.244.417v-3.263a.255.255 0 0 0-.07-.208L16.16 5.335h1.027a.393.393 0 0 0 .417-.399.439.439 0 0 0-.417-.4h-2.495V2.418A.449.449 0 0 0 14.274 2h-4.187a.449.449 0 0 0-.419.417v2.12H7.174a.44.44 0 0 0-.417.4.393.393 0 0 0 .417.398h1.092L6.404 10.57a.524.524 0 0 0-.07.278v3.286a2.052 2.052 0 0 0-1.244-.442A2.088 2.088 0 0 0 3 15.767v4.566a1.667 1.667 0 0 0 3.334 0V18.81h.428a.436.436 0 0 0 .075-.012 2.067 2.067 0 0 0 1.585.717h2.092v.825a1.666 1.666 0 0 0 3.334 0v-.825h2.091a2.097 2.097 0 0 0 1.566-.72.441.441 0 0 0 .095.015h.427v1.523a1.667 1.667 0 1 0 3.335 0v-4.566a2.136 2.136 0 0 0-2.091-2.073Zm-8.766-10.86h3.35v1.668h-3.35V2.835Zm6.513 7.526H7.342l1.776-4.991h6.124l1.776 4.991ZM5.502 20.335a.848.848 0 0 1-.834.835.802.802 0 0 1-.833-.835v-1.523h1.667v1.523Zm.843-2.352h-.361a.347.347 0 0 0-.066-.016.359.359 0 0 0-.064.016H3.837v-2.214a1.25 1.25 0 0 1 2.499-.087v1.754c0 .034.007.065.009.098v.449Zm6.67 2.36a.843.843 0 0 1-.833.83.802.802 0 0 1-.834-.83v-2.497a.844.844 0 0 1 .834-.831.894.894 0 0 1 .833.831v2.496Zm2.925-1.658h-2.09v-.839a1.668 1.668 0 0 0-3.334 0v.839H8.423a1.241 1.241 0 0 1-1.242-1.147v-1.769c0-.032-.009-.062-.01-.093v-4.518h10.022v4.512c0 .033-.01.065-.01.1v1.767a1.242 1.242 0 0 1-1.244 1.148h.002Zm2.079-1.158c0-.03.01-.059.01-.09v-1.754a1.251 1.251 0 0 1 2.497.086v2.214H18.51a.349.349 0 0 0-.065-.016.358.358 0 0 0-.065.016h-.361v-.456Zm1.677 3.643a.803.803 0 0 1-.834-.835v-1.523h1.667v1.523a.848.848 0 0 1-.835.835h.002Z" clip-rule="evenodd"/>
</svg>
