<svg xmlns="http://www.w3.org/2000/svg" width="24" height="24" fill="none" viewBox="0 0 24 24">
  <path fill="#000" fill-rule="evenodd" d="M19.916 6.127h-8.642l3.45-3.418a.416.416 0 0 0 0-.553.396.396 0 0 0-.628 0l-4.078 3.971h-.121l-4.078-3.97a.394.394 0 0 0-.628 0 .418.418 0 0 0 0 .552l3.45 3.418H4.084A2.135 2.135 0 0 0 2 8.21v11.658a2.088 2.088 0 0 0 2.083 2.082h15.833A2.044 2.044 0 0 0 22 19.867V8.21a2.088 2.088 0 0 0-2.084-2.082Zm1.25 13.74a1.247 1.247 0 0 1-1.25 1.249H4.083a1.246 1.246 0 0 1-1.25-1.249V8.21a1.29 1.29 0 0 1 1.25-1.249h15.833a1.291 1.291 0 0 1 1.25 1.249v11.658ZM13.26 7.771H7.406a3.783 3.783 0 0 0-3.763 3.746v4.995a3.74 3.74 0 0 0 3.763 3.746h5.854a3.739 3.739 0 0 0 3.763-3.746v-4.995A3.784 3.784 0 0 0 13.26 7.77Zm2.927 8.741a2.896 2.896 0 0 1-2.927 2.914H7.406a2.893 2.893 0 0 1-2.927-2.914v-4.995a2.938 2.938 0 0 1 2.927-2.914h5.854a2.938 2.938 0 0 1 2.927 2.914v4.995Zm3.747-7.896h-1.69a.451.451 0 0 0-.423.417v6.677a.404.404 0 0 0 .423.417h1.69a.372.372 0 0 0 .422-.417V9.033a.403.403 0 0 0-.42-.417h-.002Zm-.423 6.676h-.845V9.45h.845v5.842Zm.423 1.633h-1.69a.45.45 0 0 0-.423.417v2.5a.403.403 0 0 0 .423.416h1.69a.369.369 0 0 0 .406-.247.372.372 0 0 0 .016-.17v-2.5a.406.406 0 0 0-.257-.39.402.402 0 0 0-.163-.026h-.002Zm-.423 2.5h-.845v-1.667h.845v1.667Z" clip-rule="evenodd"/>
</svg>
