<svg xmlns="http://www.w3.org/2000/svg" width="24" height="24" fill="none" viewBox="0 0 24 24">
  <path fill="#000" fill-rule="evenodd" d="M11.892 2C7.392 2 4 5.611 4 10.333c0 5.972 7.338 11.389 7.685 11.595a.253.253 0 0 0 .207.07.415.415 0 0 0 .277-.07c.277-.208 7.615-5.625 7.615-11.595C19.784 5.611 16.392 2 11.892 2Zm0 19.097c-1.246-1.042-7.061-5.764-7.061-10.764 0-4.304 3.046-7.5 7.061-7.5 4.016 0 7.062 3.195 7.062 7.5.002 5-5.816 9.722-7.062 10.764ZM14.82 8.75a2.91 2.91 0 0 1-2.509 2.841v.624a.418.418 0 0 1-.836 0v-1.04a.448.448 0 0 1 .418-.415 2.046 2.046 0 1 0 0-4.089 2.152 2.152 0 0 0-2.09 2.149.418.418 0 1 1-.837 0 2.928 2.928 0 1 1 5.854-.07Zm-2.107 5.333a.82.82 0 1 1-.82-.843.802.802 0 0 1 .82.843Z" clip-rule="evenodd"/>
</svg>
