<svg xmlns="http://www.w3.org/2000/svg" width="24" height="24" fill="none" viewBox="0 0 24 24">
  <path fill="#000" fill-rule="evenodd" d="M14.46 7.909a2.911 2.911 0 0 1-2.51 2.841v.624a.418.418 0 0 1-.837 0v-1.04a.449.449 0 0 1 .418-.415 2.045 2.045 0 1 0 0-4.09 2.152 2.152 0 0 0-2.09 2.15.418.418 0 0 1-.837 0 2.928 2.928 0 1 1 5.855-.07ZM19.001 9.5a7.504 7.504 0 0 1-5.671 7.292l-1.383 4.93a.45.45 0 0 1-.83 0l-1.384-4.93a7.502 7.502 0 1 1 9.27-7.292h-.002Zm-.83 0a6.64 6.64 0 1 0-8.024 6.528.298.298 0 0 1 .277.278l1.106 3.75 1.038-3.75a.46.46 0 0 1 .346-.278A6.684 6.684 0 0 0 18.172 9.5Zm-6.64 2.899a.844.844 0 0 0 0 1.686.843.843 0 0 0 0-1.686Z" clip-rule="evenodd"/>
</svg>
