<svg xmlns="http://www.w3.org/2000/svg" width="24" height="24" fill="none" viewBox="0 0 24 24">
  <path fill="#000" fill-rule="evenodd" d="M11.975 2.837a2.091 2.091 0 0 0 0 4.182 2.091 2.091 0 0 0 0-4.182Zm0 5.018A2.928 2.928 0 1 1 11.928 2a2.928 2.928 0 0 1 .047 5.855Zm-.834 9.142h1.668v-3.2a.462.462 0 0 1 .278-.347c1.25-.486 2.084-2.295 2.223-3.964H8.64c.14 1.67.973 3.477 2.223 3.964a.355.355 0 0 1 .278.348v3.199Zm2.084.834h-2.5a.449.449 0 0 1-.418-.417v-3.338c-1.598-.765-2.5-3.06-2.5-5.007a.448.448 0 0 1 .416-.417h7.504a.4.4 0 0 1 .416.417c0 1.947-.833 4.242-2.5 5.007v3.338a.4.4 0 0 1-.418.42v-.003Zm-1.25 2.061c-2.284 0-6.228-.413-6.228-1.86 0-.76.969-1.24 2.835-1.584.208-.068.416.138.485.345.07.206-.138.413-.346.482-1.661.275-2.076.689-2.146.76.138.344 2.076 1.033 5.399 1.033 3.322 0 5.33-.689 5.399-1.034 0-.069-.485-.482-2.146-.76a.392.392 0 0 1-.277-.481.377.377 0 0 1 .485-.345c1.868.345 2.768.827 2.768 1.584.001 1.447-3.875 1.86-6.228 1.86Zm0 2.108C7.125 22 2 20.678 2 18.242c0-1.948 3.395-3.131 6.582-3.548.277 0 .485.138.485.347a.38.38 0 0 1-.346.488c-3.88.487-5.89 1.74-5.89 2.713 0 1.392 3.742 2.923 9.146 2.923 5.403 0 9.145-1.531 9.145-2.922 0-.975-2.01-2.228-5.82-2.714-.277 0-.415-.209-.415-.488a.52.52 0 0 1 .485-.347c3.187.417 6.582 1.6 6.582 3.548-.003 2.436-5.13 3.758-9.98 3.758Z" clip-rule="evenodd"/>
</svg>
