<svg xmlns="http://www.w3.org/2000/svg" width="24" height="24" fill="none" viewBox="0 0 24 24">
  <path fill="#000" fill-rule="evenodd" d="m15.768 17.943 5.632-5.088a2.086 2.086 0 0 0 0-2.928 1.902 1.902 0 0 0-1.53-.627 2.044 2.044 0 0 0-1.53.627l-4.588 4.043c-.07.14-.21.14-.348.14H4.086A2.092 2.092 0 0 0 2 16.2a2.05 2.05 0 0 0 2.086 2.092h3.318L5.38 20.996a.371.371 0 0 0 .07.56c.07.07.14.07.28.07s.21-.07.35-.14l2.392-3.193h4.497l2.377 3.193c.139.07.208.14.347.14a.417.417 0 0 0 .278-.07.437.437 0 0 0 .07-.56l-2.012-2.703h.836c.333-.01.652-.134.904-.35ZM2.835 16.2a1.248 1.248 0 0 1 1.252-1.254h9.318a1.32 1.32 0 0 0 .903-.348l4.59-4.043a.069.069 0 0 0 .05-.02.067.067 0 0 0 .014-.023.067.067 0 0 0 .005-.027 1.32 1.32 0 0 1 .904-.348 1.066 1.066 0 0 1 .904.348 1.29 1.29 0 0 1 .07 1.742l-5.702 5.089a.278.278 0 0 1-.278.14h-1.556a.317.317 0 0 0-.258 0H8.384a.322.322 0 0 0-.26 0h-4.04A1.247 1.247 0 0 1 2.836 16.2ZM6.977 3.268v-.845A.406.406 0 0 1 7.4 2a.454.454 0 0 1 .422.423v.845a.406.406 0 0 1-.422.422.375.375 0 0 1-.423-.422ZM9.7 4.674a.44.44 0 0 1 0-.572l.634-.644a.425.425 0 0 1 .564 0 .406.406 0 0 1 0 .644l-.564.572a.418.418 0 0 1-.634 0Zm1.456 1.927H12a.454.454 0 0 1 .422.423.405.405 0 0 1-.422.423h-.845a.375.375 0 0 1-.423-.423.405.405 0 0 1 .423-.423Zm-.822 2.768.564.624a.321.321 0 0 1 0 .554.368.368 0 0 1-.282.139.54.54 0 0 1-.282-.139L9.7 9.993a.512.512 0 0 1 0-.624.536.536 0 0 1 .634 0Zm-2.934.988a.448.448 0 0 1 .422.41v.822A.4.4 0 0 1 7.4 12a.369.369 0 0 1-.423-.41v-.822a.4.4 0 0 1 .423-.411Zm-2.418-.988a.387.387 0 0 1 0 .624l-.563.554a.536.536 0 0 1-.282.139c-.14 0-.211-.07-.352-.139a.416.416 0 0 1 0-.554l.634-.624a.434.434 0 0 1 .563 0ZM2.423 7.024a.4.4 0 0 1 .411-.423h.822a.448.448 0 0 1 .41.423.4.4 0 0 1-.41.423h-.822a.369.369 0 0 1-.41-.423Zm1.362-2.922a.543.543 0 0 1 0-.644.52.52 0 0 1 .634 0l.563.644a.338.338 0 0 1 0 .572.364.364 0 0 1-.282.143.53.53 0 0 1-.281-.143l-.634-.572Zm3.639 5.41a2.49 2.49 0 0 0 2.51-2.488 2.512 2.512 0 0 0-5.022 0 2.49 2.49 0 0 0 2.512 2.487v.001Zm0-4.147a1.69 1.69 0 0 1 1.674 1.659 1.646 1.646 0 0 1-1.674 1.659 1.605 1.605 0 0 1-1.675-1.659 1.645 1.645 0 0 1 1.675-1.659Z" clip-rule="evenodd"/>
</svg>
