<svg xmlns="http://www.w3.org/2000/svg" width="24" height="24" fill="none" viewBox="0 0 24 24">
  <path fill="#000" fill-rule="evenodd" d="M21.792 20.765c-.07-.07-6.101-3.66-6.448-7.181a.438.438 0 0 0-.415-.345H13.69c.004-1.212.048-1.816.49-2.419a4.635 4.635 0 0 0 1.794.312 7.657 7.657 0 0 0 1.246-.139 3.08 3.08 0 0 0 1.732-.97 1.855 1.855 0 0 0 1.8.07 2.032 2.032 0 0 0 .95-2.931 1.996 1.996 0 0 0-.811-.742 2.122 2.122 0 0 0-1.469-.21 2.062 2.062 0 0 0-.893-1.294 4.406 4.406 0 0 0-2.246-.662 4.985 4.985 0 0 0-4.27-2.253A5.09 5.09 0 0 0 7.71 4.214a3.925 3.925 0 0 0-1.786.47 2.45 2.45 0 0 0-1.203 1.133A2.22 2.22 0 0 0 3.097 6a1.936 1.936 0 0 0-1.042 1.802 2.068 2.068 0 0 0 1.042 1.803 1.932 1.932 0 0 0 1.736.139 2.85 2.85 0 0 0 1.527 1.11 4.802 4.802 0 0 0 1.737.277 4.515 4.515 0 0 0 1.714-.305c.488.6.535 1.205.54 2.411H9.103a.4.4 0 0 0-.416.414c0 3.453-6.379 7.044-6.448 7.114a.357.357 0 0 0-.208.481.468.468 0 0 0 .416.276h19.135c.138 0 .346-.138.346-.276a.396.396 0 0 0-.136-.48ZM6.64 10.092a1.912 1.912 0 0 1-1.18-1.04.545.545 0 0 0-.278-.278.519.519 0 0 0-.347.07 1.292 1.292 0 0 1-1.32.07 1.176 1.176 0 0 1-.625-1.11 1.25 1.25 0 0 1 .625-1.11 1.17 1.17 0 0 1 1.216.054c.006.007.008.014.015.02a1.099 1.099 0 0 1 .555.696.439.439 0 0 0 .416.347l.07-.07a.395.395 0 0 0 .277-.485 2.006 2.006 0 0 0-.625-1.04c.164-.372.46-.67.833-.833a3.613 3.613 0 0 1 3.048 0 .437.437 0 0 0 .555-.208.384.384 0 0 0-.208-.555 3.836 3.836 0 0 0-1-.327 4.388 4.388 0 0 1 3.347-1.463 4.329 4.329 0 0 1 3.309 1.497 4.039 4.039 0 0 0-1.007.318.438.438 0 0 0-.208.556.462.462 0 0 0 .553.208 3.394 3.394 0 0 1 3.383.208c.321.235.543.581.622.97a1.99 1.99 0 0 0-.622.696.437.437 0 0 0 .207.555c.036.04.085.064.138.07a.417.417 0 0 0 .415-.209.837.837 0 0 1 .481-.485c.007-.007.012-.021.018-.03a1.157 1.157 0 0 1 1.238-.063 1.411 1.411 0 0 1 .623 1.108 1.186 1.186 0 0 1-.762 1.108 1.3 1.3 0 0 1-1.315-.139.525.525 0 0 0-.346-.138c-.07.069-.208.138-.277.207a2.096 2.096 0 0 1-1.454.901 4.186 4.186 0 0 1-2.656-.187.344.344 0 0 0-.102-.053l-.022-.011a.351.351 0 0 0-.042-.01.341.341 0 0 0-.19-.005.32.32 0 0 0-.146.065l-.014.01-.02.015a5.257 5.257 0 0 1-3.566.043.46.46 0 0 0-.156-.107.315.315 0 0 0-.093-.03.345.345 0 0 0-.141-.004l-.011.003c-.011 0-.021.004-.032.007a.363.363 0 0 0-.204.093c-.953.367-2.001.4-2.975.095Zm4.264.943c.367.065.74.097 1.112.097.375 0 .75-.036 1.117-.107a6.326 6.326 0 0 0-.261 2.213h-1.687a5.865 5.865 0 0 0-.281-2.203Zm-7 9.66c1.873-1.242 5.27-3.866 5.547-6.628h5.13c.555 2.762 3.814 5.386 5.616 6.629H3.905Z" clip-rule="evenodd"/>
</svg>
