<svg xmlns="http://www.w3.org/2000/svg" width="24" height="24" fill="none" viewBox="0 0 24 24">
  <path fill="#000" d="m19.714 5.543-1.66-3.335A.38.38 0 0 0 17.71 2H6.076a.494.494 0 0 0-.415.208L4.003 5.543a.885.885 0 0 0 .069.417.381.381 0 0 0 .346.208h2.067v8.337H5.258a.447.447 0 0 0-.415.416v6.663a.447.447 0 0 0 .415.416h13.27a.447.447 0 0 0 .414-.416v-6.661a.447.447 0 0 0-.414-.417h-1.225V6.17h2.067a.38.38 0 0 0 .346-.209.443.443 0 0 0-.002-.418ZM8.168 15.335v2.493H5.672v-2.493h2.496Zm1.64 3.336v2.493H7.325V18.67h2.483Zm.842 0h2.482v2.493H10.65V18.67Zm3.326 0h2.482v2.493h-2.482V18.67Zm-1.686-.843v-2.493h2.528v2.493H12.29Zm-.796 0h-2.53v-2.493h2.53v2.493Zm-5.822.843h.81v2.493h-.81V18.67Zm11.629 2.493V18.67h.81v2.493h-.81Zm.81-3.336h-2.497v-2.493h2.497v2.493Zm-1.653-3.325H7.325V6.166h4.169v2.482H9.383a.532.532 0 0 0-.349.14.624.624 0 0 0-.07.348l.837 4.173a.442.442 0 0 0 .418.349h3.345a.441.441 0 0 0 .418-.349l.836-4.173a.384.384 0 0 0-.139-.348.363.363 0 0 0-.278-.14H12.29V6.166h4.168v8.337Zm-2.545-5.02-.696 3.342h-2.649l-.695-3.341h4.04Zm-8.806-4.15 1.247-2.501H17.43l1.245 2.5H5.107Z"/>
</svg>
