<svg xmlns="http://www.w3.org/2000/svg" width="24" height="24" fill="none" viewBox="0 0 24 24">
  <path fill="#000" fill-rule="evenodd" d="M21.766 5.503c-6.464-3.337-13.068-3.337-19.531 0-.209.14-.279.278-.209.486l2.502 10.847a.299.299 0 0 0 .278.278c0 .07.07.07.14.07.068 0 .138-.07.207-.07a14.938 14.938 0 0 1 2.717-1.553v4.303a.403.403 0 0 0 .422.417.452.452 0 0 0 .423-.417V15.23a9.765 9.765 0 0 1 6.664.042v4.591a.403.403 0 0 0 .423.418.451.451 0 0 0 .422-.418v-4.252c.92.414 1.8.918 2.622 1.503a.443.443 0 0 0 .417 0c.139 0 .209-.14.209-.278L21.974 5.99c.07-.209 0-.348-.208-.487Zm-2.92 10.569a14.203 14.203 0 0 0-2.622-1.392v-3.74l1.722 1.72c.14.068.209.138.348.138a.53.53 0 0 0 .278-.139.423.423 0 0 0 0-.556l-2.379-2.376a.453.453 0 0 0-.391-.287.41.41 0 0 0-.318.132c-.014.011-.03.017-.043.03l-2.504 2.5a.423.423 0 0 0 0 .556.392.392 0 0 0 .626 0l1.816-1.756v3.476a11.279 11.279 0 0 0-3.414-.531 10.89 10.89 0 0 0-3.25.497v-3.405l1.722 1.719c.139.07.209.139.348.139a.532.532 0 0 0 .278-.139.422.422 0 0 0 0-.556l-2.38-2.376a.454.454 0 0 0-.39-.287.41.41 0 0 0-.318.132c-.014.011-.03.016-.043.03l-2.504 2.5a.422.422 0 0 0 0 .556.39.39 0 0 0 .626 0L7.87 10.9v3.743c-.933.375-1.82.854-2.647 1.428L2.93 6.127c5.978-3.06 12.094-3.06 18.211 0l-2.294 9.945Z" clip-rule="evenodd"/>
</svg>
