<svg xmlns="http://www.w3.org/2000/svg" width="24" height="24" fill="none" viewBox="0 0 24 24">
  <path fill="#000" fill-rule="evenodd" d="M15.058 7.427a.112.112 0 0 0-.005-.01c-.006-.003-.012-.005-.017-.009a5.398 5.398 0 0 0-3.435-1.23h-.03a5.428 5.428 0 0 0-5.294 4.407.347.347 0 0 0-.053.167.38.38 0 0 0 .015.071 5.39 5.39 0 0 0-.061.773v8.337a.4.4 0 0 0 .416.417h10.01a.369.369 0 0 0 .416-.417v-8.337a5.408 5.408 0 0 0-1.962-4.17Zm-4.701 7.058v-3.331h2.488v3.332h-2.488Zm2.488.846v4.188h-2.488v-4.188h2.488Zm-5.831-3.734c0-.148.008-.296.023-.444h2.475v3.332H7.016l-.002-2.888ZM12 7.03a4.54 4.54 0 0 1 2.09.714L12 9.774V7.03Zm-.845 2.653L9.154 7.738a4.534 4.534 0 0 1 2.001-.705v2.65Zm2.535 1.469h2.476c.014.146.023.294.023.444v2.888h-2.496l-.003-3.332Zm-1.036-.797 2.1-2.086c.6.57 1.035 1.29 1.26 2.086h-3.36ZM8.487 8.26l2.108 2.095H7.192A4.638 4.638 0 0 1 8.487 8.26Zm-1.473 7.07H9.51v4.189H7.014V15.33Zm6.676 4.189V15.33h2.496v4.189H13.69ZM20.737 7h-1.806a7.926 7.926 0 0 0-7.354-5 8.072 8.072 0 0 0-7.355 5H2.416A.448.448 0 0 0 2 7.415v3.333a.4.4 0 0 0 .416.416h1.25V21.58a.4.4 0 0 0 .416.416H19.07a.369.369 0 0 0 .416-.416V11.165h1.249a.369.369 0 0 0 .416-.417V7.415A.398.398 0 0 0 20.737 7Zm-.416 3.332h-1.25a.448.448 0 0 0-.416.417v10.414H4.5V10.75a.4.4 0 0 0-.416-.417h-1.25v-2.5h1.874c.139-.069.208-.139.208-.277a7.11 7.11 0 0 1 13.392 0c.07.208.208.347.416.278h1.597v2.499Z" clip-rule="evenodd"/>
</svg>
