<svg xmlns="http://www.w3.org/2000/svg" xmlns:xlink="http://www.w3.org/1999/xlink" width="19" height="19" viewBox="0 0 19 19">
  <defs>
    <clipPath id="clip-path">
      <path id="Clip_2" data-name="Clip 2" d="M0,0H19V19H0Z"/>
    </clipPath>
  </defs>
  <g id="Group_36" data-name="Group 36" clip-path="url(#clip-path)">
    <path id="Fill_1" data-name="Fill 1" d="M18.852,18.339a.372.372,0,0,1,0,.595c-.066.066-.132.066-.264.066a.4.4,0,0,1-.264-.066L9.475,10.079.627,18.934C.561,19,.5,19,.363,19A.4.4,0,0,1,.1,18.934a.5.5,0,0,1,0-.595L8.914,9.517.1.694A.5.5,0,0,1,.1.1.4.4,0,0,1,.627.1L9.475,8.955,18.323.1a.4.4,0,0,1,.528,0,.373.373,0,0,1,0,.6L10.037,9.517l8.815,8.822"/>
  </g>
</svg>
