<svg xmlns="http://www.w3.org/2000/svg" width="16" height="16" viewBox="0 0 16 16">
  <g id="Group_208033" data-name="Group 208033" transform="translate(-201.5 -7)">
    <path id="Path_415302" data-name="Path 415302" d="M30.611-9.637a.847.847,0,0,1,.069,1.108L26.218-2.988a.845.845,0,0,1-.549.277H25.6a.621.621,0,0,1-.48-.208l-1.991-1.87a.778.778,0,0,1,0-1.108.71.71,0,0,1,1.1,0l1.3,1.247L29.513-9.5A.769.769,0,0,1,30.611-9.637Z" transform="translate(182.661 20.794)" fill="#008731" fill-rule="evenodd"/>
    <path id="Path_415305" data-name="Path 415305" d="M8,.878A7.122,7.122,0,1,0,15.121,8,7.13,7.13,0,0,0,8,.878M8,0A8,8,0,1,1,0,8,8,8,0,0,1,8,0Z" transform="translate(201.5 7)" fill="#008731"/>
  </g>
</svg>
