<svg width="21" height="21" viewBox="0 0 21 21" fill="none" xmlns="http://www.w3.org/2000/svg">
<circle cx="10.5" cy="10.5" r="10.3" fill="#AC9AFC" stroke="#E6E3EA" stroke-width="0.4"/>
<path d="M14.8058 8.94995V6.42554C14.8058 6.31278 14.765 6.20427 14.6922 6.12447C14.6194 6.04468 14.5203 6.00001 14.4174 6.00001H11.7651C11.5505 6.00001 11.3767 6.19043 11.3767 6.42553C11.3767 7.11062 10.8699 7.66593 10.2447 7.66593C9.6195 7.66593 9.11271 7.11062 9.11271 6.42553C9.11271 6.31277 9.07194 6.20426 8.99912 6.12446C8.92631 6.04467 8.82728 6 8.72437 6H6.06802C5.85347 6 5.67969 6.19042 5.67969 6.42552V12.8649C5.68163 14.5957 6.96118 15.9978 8.54083 16H14.4174C14.5204 16 14.6194 15.9553 14.6922 15.8755C14.765 15.7957 14.8058 15.6872 14.8058 15.5745V13.0501C15.6922 12.8479 16.3281 11.9926 16.3281 11.0001C16.3281 10.0076 15.6921 9.15205 14.8058 8.94995Z" fill="black"/>
<path d="M14.8058 8.94995V6.42554C14.8058 6.31278 14.765 6.20427 14.6922 6.12447C14.6194 6.04468 14.5203 6.00001 14.4174 6.00001H11.7651C11.5505 6.00001 11.3767 6.19043 11.3767 6.42553C11.3767 7.11062 10.8699 7.66593 10.2447 7.66593C9.6195 7.66593 9.11271 7.11062 9.11271 6.42553C9.11271 6.31277 9.07194 6.20426 8.99912 6.12446C8.92631 6.04467 8.82728 6 8.72437 6H6.06802C5.85347 6 5.67969 6.19042 5.67969 6.42552V12.8649C5.68163 14.5957 6.96118 15.9978 8.54083 16H14.4174C14.5204 16 14.6194 15.9553 14.6922 15.8755C14.765 15.7957 14.8058 15.6872 14.8058 15.5745V13.0501C15.6922 12.8479 16.3281 11.9926 16.3281 11.0001C16.3281 10.0076 15.6921 9.15205 14.8058 8.94995Z" fill="url(#paint0_linear_9631_265514)"/>
<path d="M14.8058 8.94995V6.42554C14.8058 6.31278 14.765 6.20427 14.6922 6.12447C14.6194 6.04468 14.5203 6.00001 14.4174 6.00001H11.7651C11.5505 6.00001 11.3767 6.19043 11.3767 6.42553C11.3767 7.11062 10.8699 7.66593 10.2447 7.66593C9.6195 7.66593 9.11271 7.11062 9.11271 6.42553C9.11271 6.31277 9.07194 6.20426 8.99912 6.12446C8.92631 6.04467 8.82728 6 8.72437 6H6.06802C5.85347 6 5.67969 6.19042 5.67969 6.42552V12.8649C5.68163 14.5957 6.96118 15.9978 8.54083 16H14.4174C14.5204 16 14.6194 15.9553 14.6922 15.8755C14.765 15.7957 14.8058 15.6872 14.8058 15.5745V13.0501C15.6922 12.8479 16.3281 11.9926 16.3281 11.0001C16.3281 10.0076 15.6921 9.15205 14.8058 8.94995Z" fill="white"/>
<rect x="9" y="9.5" width="3" height="3" rx="0.5" fill="#AC9AFC"/>
<defs>
<linearGradient id="paint0_linear_9631_265514" x1="7.32765" y1="7.42867" x2="14.2047" y2="15.0036" gradientUnits="userSpaceOnUse">
<stop stop-color="#703DC4"/>
<stop offset="1" stop-color="#6B8CD0"/>
</linearGradient>
</defs>
</svg>
