<svg xmlns="http://www.w3.org/2000/svg" width="16" height="10.899" viewBox="0 0 16 10.899">
  <g id="Group_209141" data-name="Group 209141" transform="translate(-0.5 24)">
    <path id="Path_415804" data-name="Path 415804" d="M15.045-13.1H1.955A1.474,1.474,0,0,1,.5-14.555v-7.992A1.474,1.474,0,0,1,1.955-24H15.045A1.474,1.474,0,0,1,16.5-22.547v7.992A1.474,1.474,0,0,1,15.045-13.1ZM1.955-23.273a.737.737,0,0,0-.727.727v7.992a.7.7,0,0,0,.727.727H15.045a.737.737,0,0,0,.727-.727v-7.992a.782.782,0,0,0-.727-.727Z" fill="#5a5a5a" fill-rule="evenodd"/>
    <path id="Path_415805" data-name="Path 415805" d="M9.216-16.431a.366.366,0,0,1-.241-.06l-7.23-5.718a.44.44,0,0,1-.06-.536.383.383,0,0,1,.542,0l6.989,5.54,6.989-5.54c.181-.179.362-.119.542,0a.44.44,0,0,1-.06.536l-7.23,5.718A.46.46,0,0,1,9.216-16.431Z" transform="translate(-0.6 -0.612)" fill="#5a5a5a" fill-rule="evenodd"/>
  </g>
</svg>
