<svg width="51" height="167" viewBox="0 0 51 167" fill="none" xmlns="http://www.w3.org/2000/svg">
<path opacity="0.1" d="M50.78 166.64C44.66 166.64 39.26 165.98 34.58 164.66C29.9 163.46 26.12 161.42 23.24 158.54C20.48 155.78 18.62 152.12 17.66 147.56C16.7 143 16.88 137.42 18.2 130.82L22.16 110.3C22.76 107.18 22.82 104.24 22.34 101.48C21.98 98.6 20.96 96.14 19.28 94.1C17.6 91.94 15.2 90.26 12.08 89.06C9.08 87.74 5.24 87.08 0.560001 87.08V79.88C5.24 79.88 9.08 79.28 12.08 78.08C15.2 76.76 17.6 75.08 19.28 73.04C20.96 70.88 21.98 68.42 22.34 65.66C22.82 62.78 22.76 59.78 22.16 56.66L18.2 36.14C16.88 29.54 16.7 23.96 17.66 19.4C18.62 14.84 20.48 11.18 23.24 8.42C26.12 5.53999 29.9 3.49999 34.58 2.29999C39.26 0.979995 44.66 0.319996 50.78 0.319996V7.88C46.1 7.88 42.02 8.36 38.54 9.32C35.18 10.16 32.48 11.66 30.44 13.82C28.4 15.86 27.08 18.68 26.48 22.28C26 25.88 26.24 30.44 27.2 35.96L31.34 57.56C32.66 65.12 31.7 71 28.46 75.2C25.22 79.28 20.54 82.04 14.42 83.48C20.54 84.92 25.22 87.74 28.46 91.94C31.7 96.02 32.66 101.84 31.34 109.4L27.2 131C26.24 136.52 26 141.08 26.48 144.68C27.08 148.28 28.4 151.1 30.44 153.14C32.48 155.3 35.18 156.8 38.54 157.64C42.02 158.6 46.1 159.08 50.78 159.08V166.64Z" fill="url(#paint0_linear_2308_36956)"/>
<defs>
<linearGradient id="paint0_linear_2308_36956" x1="3" y1="13" x2="87.0765" y2="18.7954" gradientUnits="userSpaceOnUse">
<stop stop-color="#A72DD4"/>
<stop offset="1" stop-color="#77B3C0"/>
</linearGradient>
</defs>
</svg>
