<svg width="14" height="14" viewBox="0 0 14 14" fill="none" xmlns="http://www.w3.org/2000/svg">
<path d="M11.6498 1.34211H10.639V0.263158C10.639 0.105263 10.5379 0 10.3863 0C10.2347 0 10.1336 0.105263 10.1336 0.263158V1.34211H7.25271V0.263158C7.25271 0.105263 7.15162 0 7 0C6.84838 0 6.74729 0.105263 6.74729 0.263158V1.34211H3.86643V0.263158C3.86643 0.105263 3.76534 0 3.61372 0C3.46209 0 3.36101 0.105263 3.36101 0.263158V1.34211H2.35018C1.06137 1.34211 0 2.44737 0 3.84211V11.5526C0 12.9211 1.06137 14 2.35018 14H11.6498C12.9386 14 14 12.8947 14 11.5526V3.84211C14 2.44737 12.9639 1.34211 11.6498 1.34211ZM2.35018 1.86842H3.36101V2.97368C3.36101 3.13158 3.46209 3.23684 3.61372 3.23684C3.76534 3.23684 3.86643 3.13158 3.86643 2.97368V1.86842H6.74729V2.97368C6.74729 3.13158 6.84838 3.23684 7 3.23684C7.15162 3.23684 7.25271 3.13158 7.25271 2.97368V1.86842H10.1336V2.97368C10.1336 3.13158 10.2347 3.23684 10.3863 3.23684C10.5379 3.23684 10.639 3.13158 10.639 2.97368V1.86842H11.6498C12.6607 1.86842 13.4946 2.73684 13.4946 3.84211V4.76316H0.505415V3.84211C0.505415 2.73684 1.31408 1.86842 2.35018 1.86842ZM11.6498 13.4737H2.35018C1.33935 13.4737 0.505415 12.6053 0.505415 11.5526V5.26316H13.5199V11.5263C13.4946 12.6053 12.6859 13.4737 11.6498 13.4737Z" fill="black"/>
</svg>
