<svg xmlns="http://www.w3.org/2000/svg" width="15.896" height="16.417" viewBox="0 0 15.896 16.417">
  <g id="Group_166367" data-name="Group 166367" transform="translate(0 31.5)">
    <path id="Path_261874" data-name="Path 261874" d="M14.629-13.167H3.837a.326.326,0,0,1-.337-.341v-13.65a.365.365,0,0,1,.337-.341H14.629a.326.326,0,0,1,.337.341v13.65A.3.3,0,0,1,14.629-13.167ZM4.174-13.85H14.292V-26.818H4.174Z" transform="translate(-1.676 -1.915)" fill-rule="evenodd"/>
    <path id="Path_261875" data-name="Path 261875" d="M14.407-28.633H8.847a.339.339,0,0,1-.347-.358v-2.15a.38.38,0,0,1,.347-.358h5.559a.339.339,0,0,1,.347.358v2.15A.312.312,0,0,1,14.407-28.633ZM9.195-29.35h4.864v-1.433H9.195Z" transform="translate(-4.07)" fill-rule="evenodd"/>
    <path id="Path_261876" data-name="Path 261876" d="M15.55-26.718H.346A.354.354,0,0,1,0-27.109.4.4,0,0,1,.346-27.5h15.2a.357.357,0,0,1,.346.391Q15.9-26.718,15.55-26.718Z" transform="translate(0 -1.915)" fill-rule="evenodd"/>
    <path id="Path_261877" data-name="Path 261877" d="M8.891-14.14a.355.355,0,0,1-.391-.341v-8.179A.4.4,0,0,1,8.891-23a.352.352,0,0,1,.391.341v8.179Q9.282-14.14,8.891-14.14Z" transform="translate(-4.07 -4.07)" fill-rule="evenodd"/>
    <path id="Path_261878" data-name="Path 261878" d="M14.391-14.14A.355.355,0,0,1,14-14.481v-8.179A.4.4,0,0,1,14.391-23a.352.352,0,0,1,.391.341v8.179Q14.782-14.14,14.391-14.14Z" transform="translate(-6.703 -4.07)" fill-rule="evenodd"/>
    <path id="Path_261879" data-name="Path 261879" d="M19.391-14.14A.355.355,0,0,1,19-14.481v-8.179A.4.4,0,0,1,19.391-23a.352.352,0,0,1,.391.341v8.179Q19.782-14.14,19.391-14.14Z" transform="translate(-9.098 -4.07)" fill-rule="evenodd"/>
  </g>
</svg>
