<svg xmlns="http://www.w3.org/2000/svg" width="20" height="20.005" viewBox="0 0 20 20.005">
  <path id="Shape" d="M17.029,20H2.9A2.9,2.9,0,0,1,0,17.113V15.452a.435.435,0,1,1,.87,0v1.661A2.071,2.071,0,0,0,2.9,19.137h14.13a2.086,2.086,0,0,0,2.1-2.024V15.452a.435.435,0,1,1,.87,0v1.661a2.92,2.92,0,0,1-2.916,2.893Zm-7.016-4.3H10c-.132,0-.2,0-.273-.072L3.641,9.553a.406.406,0,0,1,0-.65.44.44,0,0,1,.58,0c3.365,3.362,4.774,4.769,5.364,5.359V.439a.418.418,0,0,1,.2-.379.413.413,0,0,1,.429,0,.418.418,0,0,1,.2.379V14.285L15.8,8.9a.44.44,0,0,1,.58,0,.54.54,0,0,1,0,.65L10.3,15.628a.442.442,0,0,1-.246.075Z" transform="translate(0 0)"/>
</svg>
