<svg width="26" height="22" viewBox="0 0 26 22" fill="none" xmlns="http://www.w3.org/2000/svg">
<path d="M12.5708 0.9601L1.45226 19.5595C1.25303 19.8927 1.49314 20.316 1.88143 20.316H24.1186C24.5069 20.316 24.747 19.8927 24.5477 19.5595L13.4292 0.9601C13.2351 0.635502 12.7649 0.635502 12.5708 0.9601Z" fill="white"/>
<path d="M11.5798 1.66053C12.3562 0.717286 13.8983 0.784151 14.5655 1.86186L24.7333 18.2888L24.8528 18.5156C25.3585 19.6638 24.5037 21 23.1683 21H2.83279C1.40836 21 0.529611 19.4795 1.26641 18.2888L11.4355 1.86186L11.5798 1.66053ZM13.8428 2.28867C13.4835 1.70852 12.6533 1.67219 12.2352 2.17995L12.1569 2.28867L1.98914 18.7156C1.59249 19.3568 2.06582 20.1759 2.83279 20.1759H23.1683C23.8874 20.1759 24.3474 19.456 24.0751 18.8377L24.0105 18.7156L13.8428 2.28867Z" fill="#C3101A" stroke="#C3101A" stroke-width="0.1"/>
<path d="M12.5781 8.85601L12.5864 8.77279C12.6258 8.58496 12.796 8.44396 12.9999 8.44396C13.2039 8.44396 13.3741 8.58496 13.4135 8.77279L13.4218 8.85601L13.4218 14.3536C13.4218 14.5813 13.2331 14.7656 12.9999 14.7656C12.7668 14.7656 12.5781 14.5813 12.5781 14.3536L12.5781 8.85601Z" fill="#C3101A" stroke="#C3101A" stroke-width="0.1" stroke-linecap="round" stroke-linejoin="bevel"/>
<path d="M12.3106 16.9636C12.376 16.6502 12.6602 16.4147 13.0004 16.4147C13.3405 16.4147 13.6247 16.6502 13.6901 16.9636L13.7039 17.1019C13.7039 17.4814 13.3889 17.7891 13.0004 17.7891C12.6118 17.7891 12.2969 17.4814 12.2969 17.1019L12.3106 16.9636Z" fill="#C3101A" stroke="#C3101A" stroke-width="0.1" stroke-linecap="round" stroke-linejoin="bevel"/>
</svg>
