<svg width="14" height="12" viewBox="0 0 14 12" fill="none" xmlns="http://www.w3.org/2000/svg">
<path d="M6.56823 1.23099L1.4392 10.0144C1.24456 10.3478 1.48498 10.7666 1.87098 10.7666H12.129C12.515 10.7666 12.7554 10.3478 12.5608 10.0144L7.43178 1.23099C7.23879 0.900501 6.76121 0.9005 6.56823 1.23099Z" fill="white"/>
<path d="M6.26436 1.02692C6.73689 0.570358 7.54843 0.642478 7.91279 1.24469L12.9968 9.65289L13.0017 9.66168V9.66266L13.0612 9.77789L13.0661 9.78766L13.112 9.91754C13.2968 10.5689 12.8147 11.2691 12.0856 11.2691H1.91768C1.08911 11.2688 0.577924 10.3623 1.00654 9.65289L6.09151 1.24469L6.09639 1.2359L6.16865 1.13336L6.17451 1.12555L6.26436 1.02692ZM7.29463 1.61872C7.16992 1.41259 6.88107 1.39932 6.73604 1.57965L6.70869 1.61872L1.62471 10.0269C1.48711 10.2549 1.65126 10.5461 1.91768 10.5464H12.0856C12.3349 10.5464 12.4955 10.2906 12.4011 10.0709H12.4001L12.3786 10.0269L7.29463 1.61872Z" fill="#C3101A"/>
<path d="M7.00195 8.61963C7.24445 8.61963 7.44735 8.79205 7.49414 9.021L7.49609 9.03662L7.50293 9.10693L7.50391 9.12158C7.50381 9.3986 7.279 9.62354 7.00195 9.62354C6.72499 9.62343 6.5001 9.39854 6.5 9.12158L6.50098 9.10693L6.50781 9.03662L6.51074 9.021C6.55752 8.79211 6.75954 8.61972 7.00195 8.61963ZM7.00195 4.53955C7.17626 4.53956 7.3216 4.66308 7.35547 4.82764L7.3584 4.84326L7.3623 4.88623L7.36328 4.90088V7.71436C7.36328 7.91375 7.20134 8.07567 7.00195 8.07568C6.80255 8.07568 6.64062 7.91376 6.64062 7.71436V4.90088L6.6416 4.88623L6.64551 4.84326L6.64844 4.82764C6.68232 4.66308 6.82764 4.53955 7.00195 4.53955Z" fill="#C3101A"/>
</svg>
