<?xml version="1.0" encoding="UTF-8"?><svg id="Group_3" xmlns="http://www.w3.org/2000/svg" xmlns:xlink="http://www.w3.org/1999/xlink" viewBox="0 0 22 22"><defs><style>.cls-1{fill:none;}.cls-2{clip-path:url(#clippath);}</style><clipPath id="clippath"><rect class="cls-1" width="22" height="22"/></clipPath></defs><path id="Clip_2-2" class="cls-1" d="M0,0H22V22H0V0Z"/><g class="cls-2"><g id="Group_3-2"><path id="Fill_1" d="M9.65,22h-.23c-.16-.09-.25-.27-.23-.46V11.69L.11,.76C0,.63-.02,.46,.03,.31,.11,.12,.29,0,.49,0H21.57c.17,.03,.32,.15,.38,.31,.09,.15,.06,.34-.08,.46L12.86,11.69v7.1c0,.12-.06,.23-.15,.31l-2.75,2.75c-.06,.11-.18,.17-.31,.16ZM1.41,.92L9.96,11.23c.03,.06,.06,.1,.08,.15,.04,.05,.06,.1,.07,.16v8.94l1.83-1.83v-7.1c0-.11,.02-.21,.08-.31L20.58,.92H1.41Z"/></g></g></svg>