<svg width="31" height="31" viewBox="0 0 31 31" fill="none" xmlns="http://www.w3.org/2000/svg">
<g id="Group 2147208045">
<circle id="Ellipse 35853" cx="15.261" cy="15.825" r="14.9344" fill="url(#paint0_linear_1394_20568)"/>
<g id="head">
<g id="Group">
<path id="Vector" d="M21.6088 25.8548C20.8996 26.2413 19.9754 26.5205 18.9007 26.5849C18.4279 26.6278 17.9766 26.5849 17.4607 26.5205C17.3748 26.5205 17.0309 26.499 16.9449 26.4775C15.7843 26.3057 14.1508 25.4253 12.9472 24.6952C11.8296 24.0295 10.841 22.9128 9.72334 21.8821C9.68035 21.8391 9.46543 21.6244 9.44393 21.6029C7.59556 19.7991 6.52092 17.8449 6.02658 15.8264C5.91912 15.3969 5.76867 14.5379 5.76867 14.5165C5.72568 14.1729 5.68269 13.8293 5.68269 13.4857C5.68269 11.0162 6.69286 8.82584 8.60571 7.58034C10.7765 6.16306 13.8714 5.66915 16.5795 6.03421C18.9007 6.50664 20.9211 7.43003 21.7808 8.76142C21.8023 8.80437 21.8238 8.82584 21.8453 8.86879C21.8882 8.93321 21.9312 9.0191 21.9742 9.105C21.9742 9.14795 22.0172 9.16942 22.0172 9.21237C22.0602 9.31974 22.1247 9.42711 22.1676 9.53448C22.1676 9.53448 22.1676 9.57742 22.1891 9.5989C22.619 10.6082 22.9629 11.9825 23.1993 13.4857C23.2423 13.8078 23.3497 15.0533 23.4787 16.5995C23.8226 20.9802 22.2536 25.4682 21.5873 25.8333L21.6088 25.8548Z" fill="url(#paint1_linear_1394_20568)"/>
<path id="Vector_2" d="M14.1736 12.05C13.7653 12.1144 13.5288 12.5654 13.7008 12.9304C14.0447 13.6605 14.3241 14.5839 14.4745 15.722C14.4745 15.8294 13.9587 16.9246 14.0232 17.3111C14.0877 17.6547 14.7324 18.4922 14.8399 18.8143C15.7641 22.1428 15.4202 24.9344 18.9235 26.5879C18.4507 26.6094 17.9564 26.6094 17.4405 26.5664C17.3546 26.5664 17.2686 26.5665 17.2041 26.545C17.1181 26.545 17.0322 26.545 16.9462 26.502C15.7856 26.3302 14.0662 25.5142 12.9271 24.7197C10.9712 23.3883 9.5097 21.7133 9.46671 21.6704C7.4249 19.6947 6.32877 17.6332 5.98488 15.8079C5.98488 15.8079 5.98488 15.808 5.98488 15.7865C5.87742 15.3785 5.81295 14.949 5.74847 14.5195C5.70548 14.1974 5.68398 13.8753 5.66249 13.5532C5.53354 10.6756 6.47923 9.49458 7.55387 8.70004C7.57536 8.70004 13.2065 5.35008 16.5808 6.03725C18.902 6.50968 20.9224 7.43306 21.8036 8.76446C21.8251 8.8074 21.8465 8.82888 21.868 8.87183C21.911 8.93625 21.954 9.02214 21.997 9.10804C21.997 9.15098 22.04 9.17246 22.04 9.21541C22.083 9.32278 22.1474 9.43015 22.1904 9.53752C22.1904 9.53752 22.1904 9.58046 22.2119 9.60194C21.1803 10.4824 19.9767 11.0192 18.6656 11.2984C17.9134 11.4702 14.539 11.9856 14.1736 12.05Z" fill="#8B00DD"/>
<path id="Vector_3" d="M21.9951 9.10585C21.8447 9.23469 21.6942 9.34207 21.5868 9.44944C20.77 10.0937 19.8244 10.5017 18.5778 10.7808C18.0405 10.9097 16.0416 11.2103 14.967 11.3821C14.5371 11.4465 14.2148 11.5109 14.1073 11.5109C12.4309 11.8116 11.9795 10.3084 9.35738 10.4802C7.35856 10.609 6.43438 11.8975 5.91855 13.2718C5.91855 13.2718 5.72512 13.916 5.70363 13.9375C5.25228 11.2533 6.19795 8.26836 7.59497 7.02286C9.33589 5.47673 11.8505 4.0165 17.3527 5.47674C19.3085 5.99211 20.942 7.38792 21.8017 8.74078C21.8232 8.78373 21.8447 8.80521 21.8662 8.84815C21.9092 8.91258 21.9521 8.99848 21.9951 9.08438V9.10585Z" fill="#DCE3EB"/>
<g id="Group_2" style="mix-blend-mode:screen">
<path id="Vector_4" d="M10.7769 11.1884C11.6151 11.4246 13.3561 11.8756 13.8934 15.7194C13.8934 15.7839 13.8289 15.8698 13.8074 15.9557C13.571 16.5784 13.399 17.0723 13.4635 17.4374C13.5065 17.7165 13.6999 18.0172 13.9793 18.4896C14.0868 18.6614 14.2588 18.9405 14.2802 19.005C14.4737 19.7351 14.6241 20.4223 14.7531 21.1094C15.1185 22.9132 15.4623 24.6097 16.8594 25.9411C15.9997 25.7693 14.8605 25.1895 13.8289 24.6526C13.5495 24.5023 12.1095 23.6434 10.9489 22.4623L10.7984 22.312C10.519 22.0328 10.2611 21.7537 9.96019 21.4745C7.48853 19.0909 6.17747 16.4066 6.41389 14.1089C6.52135 12.9493 7.03719 11.983 7.87541 11.489C8.34825 11.2099 8.88556 11.0596 9.55184 11.0381C10.0032 11.0381 10.4975 11.124 10.7339 11.1884H10.7769Z" fill="#E9EEF3"/>
</g>
<g id="Group_3">
<path id="Vector_5" d="M12.1939 19.091C12.2369 20.4439 11.3127 21.0022 10.1306 20.3794C8.94847 19.7567 7.93831 18.1462 7.89532 16.8148C7.85233 15.4619 8.77652 14.9036 9.95862 15.5263C11.1407 16.1491 12.1509 17.7596 12.1939 19.091Z" fill="url(#paint2_linear_1394_20568)"/>
<path id="Vector_6" d="M11.1847 19.048C11.2277 20.1003 10.497 20.5727 9.55128 20.0573C8.6056 19.5634 7.83185 18.2965 7.78887 17.2227C7.74588 16.1705 8.47663 15.6981 9.42231 16.2135C10.368 16.7074 11.1417 17.9743 11.1847 19.048Z" fill="url(#paint3_linear_1394_20568)"/>
<path id="Vector_7" d="M11.1623 19.156C11.2052 20.2082 10.4745 20.6806 9.5288 20.1652C8.58312 19.6713 7.80939 18.4044 7.76641 17.3307C7.72342 16.2784 8.45417 15.806 9.39985 16.3214C10.3455 16.8153 11.1193 18.0823 11.1623 19.156Z" fill="#8B00DD"/>
<g id="Group_4">
<path id="Vector_8" d="M10.2567 19.8652C10.1707 19.8652 9.99878 19.8652 9.76236 19.7148C8.98862 19.3068 8.30085 18.2116 8.27936 17.3312C8.27936 17.0735 8.30085 16.6655 8.64473 16.644C8.73071 16.644 8.90264 16.644 9.13907 16.7944C9.9128 17.2024 10.6006 18.2975 10.6221 19.178C10.6221 19.4357 10.6006 19.8437 10.2567 19.8652Z" fill="#191E2B"/>
<g id="Clip path group">
<mask id="mask0_1394_20568" style="mask-type:luminance" maskUnits="userSpaceOnUse" x="8" y="16" width="3" height="4">
<g id="clippath-1">
<path id="Vector_9" d="M10.2557 19.8622C10.1697 19.8622 9.9978 19.8622 9.76138 19.7119C8.98764 19.3039 8.29987 18.2087 8.27838 17.3283C8.27838 17.0706 8.29987 16.6626 8.64376 16.6411C8.72973 16.6411 8.90167 16.6411 9.13809 16.7914C9.91183 17.1994 10.5996 18.2946 10.6211 19.1751C10.6211 19.4327 10.5996 19.8407 10.2557 19.8622Z" fill="white"/>
</g>
</mask>
<g mask="url(#mask0_1394_20568)">
<g id="Group_5">
<g id="Group_6">
<path id="Vector_10" d="M10.3665 17.5862C10.3665 17.5862 10.3665 17.6287 10.3877 17.6499C10.324 17.6075 10.2602 17.5437 10.2602 17.48C10.2602 17.48 10.2602 17.4587 10.2602 17.4375C10.3027 17.5012 10.324 17.5437 10.3665 17.6075V17.5862Z" fill="#8B00DD"/>
<path id="Vector_11" d="M9.84958 17.266C9.84958 17.3302 9.91378 17.4158 9.97797 17.4372C10.0422 17.48 10.085 17.4372 10.085 17.373C10.085 17.3088 10.0208 17.2232 9.95657 17.2018C9.89238 17.159 9.84958 17.2018 9.84958 17.266Z" fill="#8B00DD"/>
<path id="Vector_12" d="M9.44041 17.0497C9.44041 17.1139 9.5046 17.1995 9.56879 17.2209C9.63299 17.2637 9.67578 17.2209 9.67578 17.1567C9.67578 17.0925 9.61159 17.0069 9.5474 16.9855C9.48321 16.9427 9.44041 16.9855 9.44041 17.0497Z" fill="#8B00DD"/>
<path id="Vector_13" d="M9.05467 16.8554C9.05467 16.9196 9.11886 17.0052 9.18305 17.0266C9.24724 17.0694 9.29004 17.0266 9.29004 16.9624C9.29004 16.8982 9.22585 16.8126 9.16166 16.7912C9.09747 16.7698 9.05467 16.7912 9.05467 16.8554Z" fill="#8B00DD"/>
<path id="Vector_14" d="M10.4525 17.8431C10.4525 17.8431 10.4525 17.8431 10.4525 17.8218C10.4525 17.8644 10.4951 17.9071 10.4951 17.9497C10.4738 17.9071 10.4525 17.8644 10.4525 17.8431Z" fill="#8B00DD"/>
<path id="Vector_15" d="M10.0664 17.6494C10.0664 17.7136 10.1306 17.7992 10.1948 17.8206C10.259 17.8633 10.3018 17.8205 10.3018 17.7564C10.3018 17.6922 10.2376 17.6066 10.1734 17.5852C10.1092 17.5638 10.0664 17.5852 10.0664 17.6494Z" fill="#8B00DD"/>
<path id="Vector_16" d="M9.65623 17.434C9.65623 17.4981 9.72042 17.5837 9.78461 17.6051C9.84881 17.6479 9.8916 17.6051 9.8916 17.5409C9.8916 17.4768 9.82741 17.3912 9.76322 17.3698C9.69903 17.327 9.65623 17.3698 9.65623 17.434Z" fill="#8B00DD"/>
<path id="Vector_17" d="M9.25192 17.2401C9.25192 17.3043 9.31612 17.3899 9.38032 17.4113C9.44451 17.4541 9.4873 17.4113 9.4873 17.3471C9.4873 17.2829 9.4231 17.1973 9.35891 17.1759C9.29472 17.1331 9.25192 17.1759 9.25192 17.2401Z" fill="#8B00DD"/>
<path id="Vector_18" d="M8.86317 17.0507C8.86317 17.1149 8.92737 17.1791 8.97016 17.2219C9.03435 17.2433 9.07715 17.2219 9.07715 17.1791C9.07715 17.1149 9.01296 17.0507 8.97016 17.0079C8.90597 16.9865 8.86317 17.0079 8.86317 17.0507Z" fill="#8B00DD"/>
<path id="Vector_19" d="M10.2832 18.0541C10.2832 18.1183 10.3474 18.2039 10.4116 18.2253C10.4758 18.268 10.5186 18.2253 10.5186 18.1611C10.5186 18.0969 10.4544 18.0113 10.3902 17.9899C10.326 17.9471 10.2832 17.9899 10.2832 18.0541Z" fill="#8B00DD"/>
<path id="Vector_20" d="M9.89157 17.8666C9.89157 17.9308 9.95577 18.0164 10.02 18.0378C10.0842 18.0806 10.127 18.0378 10.127 17.9736C10.127 17.9094 10.0628 17.8238 9.99856 17.8024C9.93437 17.7596 9.89157 17.8024 9.89157 17.8666Z" fill="#8B00DD"/>
<path id="Vector_21" d="M9.48534 17.6698C9.48534 17.734 9.54952 17.8196 9.61372 17.841C9.67791 17.8838 9.7207 17.841 9.7207 17.7768C9.7207 17.7126 9.65652 17.627 9.59232 17.6056C9.52813 17.5628 9.48534 17.6056 9.48534 17.6698Z" fill="#8B00DD"/>
<path id="Vector_22" d="M9.09763 17.4593C9.09763 17.5235 9.16183 17.6091 9.22602 17.6305C9.29021 17.6733 9.33301 17.6305 9.33301 17.5663C9.33301 17.5021 9.26881 17.4166 9.20462 17.3952C9.14042 17.3524 9.09763 17.3952 9.09763 17.4593Z" fill="#8B00DD"/>
<path id="Vector_23" d="M10.4941 18.4437C10.4941 18.5079 10.5583 18.5935 10.6225 18.6149C10.6867 18.6577 10.7295 18.6149 10.7295 18.5507C10.7295 18.4865 10.6653 18.4009 10.6011 18.3795C10.5369 18.3367 10.4941 18.3795 10.4941 18.4437Z" fill="#8B00DD"/>
<path id="Vector_24" d="M10.0849 18.2533C10.0849 18.3175 10.1491 18.4031 10.2133 18.4245C10.2775 18.4673 10.3203 18.4245 10.3203 18.3603C10.3203 18.2961 10.2561 18.2105 10.1919 18.1891C10.1277 18.1463 10.0849 18.1891 10.0849 18.2533Z" fill="#8B00DD"/>
<path id="Vector_25" d="M9.70018 18.0541C9.70018 18.1183 9.76437 18.2039 9.82856 18.2253C9.89275 18.268 9.93555 18.2253 9.93555 18.1611C9.93555 18.0969 9.87136 18.0113 9.80717 17.9899C9.74297 17.9471 9.70018 17.9899 9.70018 18.0541Z" fill="#8B00DD"/>
<path id="Vector_26" d="M9.29295 17.8436C9.29295 17.9078 9.35714 17.9934 9.42133 18.0148C9.48553 18.0576 9.52832 18.0148 9.52832 17.9506C9.52832 17.8864 9.46413 17.8008 9.39994 17.7794C9.33575 17.7366 9.29295 17.7794 9.29295 17.8436Z" fill="#8B00DD"/>
<path id="Vector_27" d="M8.90526 17.6513C8.90526 17.7155 8.96945 17.7797 9.03364 17.8225C9.09783 17.8439 9.14062 17.8225 9.14062 17.7797C9.14062 17.7155 9.07644 17.6513 9.01225 17.6085C8.94805 17.5871 8.90526 17.6085 8.90526 17.6513Z" fill="#8B00DD"/>
<path id="Vector_28" d="M10.3232 18.6771C10.3232 18.7413 10.3874 18.8269 10.4516 18.8483C10.5158 18.8911 10.5586 18.8483 10.5586 18.7841C10.5586 18.7199 10.4944 18.6343 10.4302 18.6129C10.366 18.5701 10.3232 18.6129 10.3232 18.6771Z" fill="#8B00DD"/>
<path id="Vector_29" d="M9.93651 18.4867C9.93651 18.5509 10.0007 18.6365 10.0649 18.6579C10.1291 18.7007 10.1719 18.6579 10.1719 18.5937C10.1719 18.5295 10.1077 18.4439 10.0435 18.4225C9.9793 18.3797 9.93651 18.4225 9.93651 18.4867Z" fill="#8B00DD"/>
<path id="Vector_30" d="M9.52927 18.2733C9.52927 18.3375 9.59347 18.4231 9.65766 18.4445C9.72185 18.4659 9.76465 18.4445 9.76465 18.3803C9.76465 18.3161 9.70045 18.2305 9.63626 18.2091C9.57206 18.1663 9.52927 18.2091 9.52927 18.2733Z" fill="#8B00DD"/>
<path id="Vector_31" d="M9.12108 18.08C9.12108 18.1441 9.18527 18.2297 9.24946 18.2511C9.31365 18.2939 9.35645 18.2511 9.35645 18.1869C9.35645 18.1227 9.29226 18.0372 9.22807 18.0158C9.16387 17.973 9.12108 18.0158 9.12108 18.08Z" fill="#8B00DD"/>
<path id="Vector_32" d="M10.5371 19.0643C10.5371 19.1285 10.6013 19.2141 10.6655 19.2355C10.7297 19.2783 10.7725 19.2355 10.7725 19.1713C10.7725 19.1071 10.7083 19.0215 10.6441 19.0001C10.5799 18.9573 10.5371 19.0001 10.5371 19.0643Z" fill="#8B00DD"/>
<path id="Vector_33" d="M10.1299 18.8734C10.1299 18.9376 10.1941 19.0232 10.2582 19.0446C10.3224 19.0874 10.3652 19.0446 10.3652 18.9804C10.3652 18.9162 10.301 18.8306 10.2369 18.8092C10.1727 18.7664 10.1299 18.8092 10.1299 18.8734Z" fill="#8B00DD"/>
<path id="Vector_34" d="M9.72069 18.6605C9.72069 18.7247 9.78487 18.8103 9.84907 18.8317C9.91326 18.8745 9.95605 18.8317 9.95605 18.7675C9.95605 18.7033 9.89187 18.6177 9.82768 18.5963C9.76348 18.5535 9.72069 18.5963 9.72069 18.6605Z" fill="#8B00DD"/>
<path id="Vector_35" d="M9.33495 18.4642C9.33495 18.5284 9.39913 18.614 9.46333 18.6354C9.52752 18.6782 9.57031 18.6354 9.57031 18.5712C9.57031 18.507 9.50613 18.4214 9.44193 18.4C9.37774 18.3572 9.33495 18.4 9.33495 18.4642Z" fill="#8B00DD"/>
<path id="Vector_36" d="M10.3662 19.2806C10.3662 19.3448 10.4304 19.4304 10.4946 19.4518C10.5588 19.4946 10.6016 19.4518 10.6016 19.3876C10.6016 19.3234 10.5374 19.2378 10.4732 19.2164C10.409 19.1737 10.3662 19.2164 10.3662 19.2806Z" fill="#8B00DD"/>
<path id="Vector_37" d="M9.95798 19.0873C9.95798 19.1515 10.0222 19.2371 10.0864 19.2585C10.1506 19.3012 10.1934 19.2585 10.1934 19.1943C10.1934 19.1301 10.1292 19.0445 10.065 19.0231C10.0008 18.9803 9.95798 19.0231 9.95798 19.0873Z" fill="#8B00DD"/>
<path id="Vector_38" d="M9.57173 18.8946C9.57173 18.9583 9.63547 19.022 9.67796 19.0433C9.74169 19.0645 9.78418 19.0433 9.78418 19.0008C9.78418 18.9371 9.72045 18.8733 9.67796 18.8521C9.61422 18.8308 9.57173 18.8521 9.57173 18.8946Z" fill="#8B00DD"/>
<path id="Vector_39" d="M10.1299 19.4315C10.1299 19.4957 10.1941 19.5813 10.2582 19.6027C10.3224 19.6455 10.3652 19.6027 10.3652 19.5385C10.3652 19.4743 10.301 19.3887 10.2369 19.3673C10.1727 19.3245 10.1299 19.3673 10.1299 19.4315Z" fill="#8B00DD"/>
</g>
<g id="Group_7" style="mix-blend-mode:multiply">
<path id="Vector_40" d="M10.4075 17.5896C10.4075 17.5896 10.4075 17.6321 10.4287 17.6534C10.365 17.6109 10.3012 17.5471 10.3012 17.4834C10.3012 17.4834 10.3012 17.4622 10.3012 17.4409C10.3437 17.5047 10.365 17.5472 10.4075 17.6109V17.5896Z" fill="#003286"/>
<path id="Vector_41" d="M9.8906 17.266C9.8906 17.3302 9.9548 17.4158 10.019 17.4372C10.0832 17.48 10.126 17.4372 10.126 17.373C10.126 17.3088 10.0618 17.2232 9.99758 17.2018C9.93339 17.159 9.8906 17.2018 9.8906 17.266Z" fill="#003286"/>
<path id="Vector_42" d="M9.48143 17.0756C9.48143 17.1398 9.54562 17.2253 9.60981 17.2467C9.674 17.2895 9.7168 17.2467 9.7168 17.1826C9.7168 17.1184 9.65261 17.0328 9.58842 17.0114C9.52422 16.9686 9.48143 17.0114 9.48143 17.0756Z" fill="#003286"/>
<path id="Vector_43" d="M9.09567 16.8593C9.09567 16.9235 9.15987 17.009 9.22407 17.0304C9.28826 17.0732 9.33105 17.0304 9.33105 16.9662C9.33105 16.9021 9.26685 16.8165 9.20266 16.7951C9.13847 16.7523 9.09567 16.7951 9.09567 16.8593Z" fill="#003286"/>
<path id="Vector_44" d="M10.4935 17.8465C10.4935 17.8465 10.4935 17.8465 10.4935 17.8252C10.4935 17.8678 10.5361 17.9105 10.5361 17.9531C10.5148 17.9105 10.4935 17.8678 10.4935 17.8465Z" fill="#003286"/>
<path id="Vector_45" d="M10.0849 17.6532C10.0849 17.7174 10.1491 17.803 10.2133 17.8244C10.2775 17.8672 10.3203 17.8244 10.3203 17.7602C10.3203 17.696 10.2561 17.6104 10.1919 17.589C10.1277 17.5462 10.0849 17.589 10.0849 17.6532Z" fill="#003286"/>
<path id="Vector_46" d="M9.69725 17.4628C9.69725 17.527 9.76144 17.6125 9.82563 17.6339C9.88982 17.6767 9.93262 17.6339 9.93262 17.5698C9.93262 17.5056 9.86843 17.42 9.80424 17.3986C9.74005 17.3558 9.69725 17.3986 9.69725 17.4628Z" fill="#003286"/>
<path id="Vector_47" d="M9.291 17.2465C9.291 17.3106 9.35519 17.3962 9.41938 17.4176C9.48357 17.4604 9.52637 17.4176 9.52637 17.3534C9.52637 17.2893 9.46218 17.2037 9.39799 17.1823C9.3338 17.1395 9.291 17.1823 9.291 17.2465Z" fill="#003286"/>
<path id="Vector_48" d="M8.90224 17.0747C8.90224 17.1389 8.96643 17.2031 9.00922 17.2459C9.07342 17.2673 9.11621 17.2459 9.11621 17.2031C9.11621 17.1389 9.05202 17.0747 9.00922 17.0319C8.96643 16.9891 8.90224 17.0319 8.90224 17.0747Z" fill="#003286"/>
<path id="Vector_49" d="M10.3242 18.0858C10.3242 18.15 10.3884 18.2356 10.4526 18.257C10.5168 18.2998 10.5596 18.257 10.5596 18.1928C10.5596 18.1286 10.4954 18.043 10.4312 18.0216C10.367 17.9788 10.3242 18.0216 10.3242 18.0858Z" fill="#003286"/>
<path id="Vector_50" d="M9.9326 17.8695C9.9326 17.9337 9.99679 18.0193 10.061 18.0407C10.1252 18.0835 10.168 18.0407 10.168 17.9765C10.168 17.9123 10.1038 17.8267 10.0396 17.8053C9.9754 17.7625 9.9326 17.8053 9.9326 17.8695Z" fill="#003286"/>
<path id="Vector_51" d="M9.52439 17.6761C9.52439 17.7403 9.58859 17.8259 9.65278 17.8473C9.71697 17.8901 9.75977 17.8473 9.75977 17.7831C9.75977 17.7189 9.69557 17.6334 9.63137 17.612C9.56718 17.5692 9.52439 17.612 9.52439 17.6761Z" fill="#003286"/>
<path id="Vector_52" d="M9.11815 17.4823C9.11815 17.5465 9.18234 17.6321 9.24653 17.6535C9.31072 17.6963 9.35352 17.6535 9.35352 17.5893C9.35352 17.5251 9.28933 17.4395 9.22514 17.4181C9.16094 17.3753 9.11815 17.4181 9.11815 17.4823Z" fill="#003286"/>
<path id="Vector_53" d="M10.5351 18.4701C10.5351 18.5343 10.5993 18.6199 10.6635 18.6413C10.7277 18.6841 10.7705 18.6413 10.7705 18.5771C10.7705 18.5129 10.7063 18.4273 10.6421 18.4059C10.5779 18.3631 10.5351 18.4059 10.5351 18.4701Z" fill="#003286"/>
<path id="Vector_54" d="M10.1269 18.2538C10.1269 18.318 10.1911 18.4036 10.2553 18.425C10.3195 18.4678 10.3623 18.425 10.3623 18.3608C10.3623 18.2966 10.2981 18.211 10.2339 18.1896C10.1697 18.1468 10.1269 18.1896 10.1269 18.2538Z" fill="#003286"/>
<path id="Vector_55" d="M9.72069 18.0629C9.72069 18.1271 9.78487 18.2126 9.84907 18.234C9.91326 18.2768 9.95605 18.234 9.95605 18.1698C9.95605 18.1057 9.89187 18.0201 9.82768 17.9987C9.76348 17.9559 9.72069 17.9987 9.72069 18.0629Z" fill="#003286"/>
<path id="Vector_56" d="M9.33299 17.8695C9.33299 17.9337 9.39718 18.0193 9.46137 18.0407C9.52556 18.0835 9.56836 18.0407 9.56836 17.9765C9.56836 17.9123 9.50417 17.8267 9.43998 17.8053C9.37579 17.7625 9.33299 17.8053 9.33299 17.8695Z" fill="#003286"/>
<path id="Vector_57" d="M8.94627 17.6742C8.94627 17.7384 9.01046 17.8026 9.07465 17.8454C9.13885 17.8882 9.18164 17.8454 9.18164 17.8026C9.18164 17.7384 9.11745 17.6742 9.05326 17.6314C8.98907 17.61 8.94627 17.6314 8.94627 17.6742Z" fill="#003286"/>
<path id="Vector_58" d="M10.3642 18.6859C10.3642 18.7501 10.4284 18.8357 10.4926 18.8571C10.5568 18.8999 10.5996 18.8571 10.5996 18.7929C10.5996 18.7287 10.5354 18.6431 10.4712 18.6217C10.407 18.5789 10.3642 18.6217 10.3642 18.6859Z" fill="#003286"/>
<path id="Vector_59" d="M9.95505 18.4925C9.95505 18.5567 10.0192 18.6423 10.0834 18.6637C10.1476 18.7065 10.1904 18.6637 10.1904 18.5995C10.1904 18.5353 10.1262 18.4498 10.062 18.4284C9.99784 18.3856 9.95505 18.4284 9.95505 18.4925Z" fill="#003286"/>
<path id="Vector_60" d="M9.57028 18.2963C9.57028 18.3605 9.63448 18.4461 9.69868 18.4675C9.76287 18.4888 9.80566 18.4674 9.80566 18.4032C9.80566 18.3391 9.74146 18.2535 9.67727 18.2321C9.61308 18.1893 9.57028 18.2321 9.57028 18.2963Z" fill="#003286"/>
<path id="Vector_61" d="M9.16209 18.0858C9.16209 18.15 9.22628 18.2356 9.29047 18.257C9.35467 18.2998 9.39746 18.257 9.39746 18.1928C9.39746 18.1286 9.33327 18.043 9.26908 18.0216C9.20489 17.9788 9.16209 18.0216 9.16209 18.0858Z" fill="#003286"/>
<path id="Vector_62" d="M10.5596 19.0707C10.5596 19.1349 10.6237 19.2205 10.6879 19.2419C10.7521 19.2632 10.7949 19.2419 10.7949 19.1777C10.7949 19.1135 10.7307 19.0279 10.6665 19.0065C10.6023 18.9637 10.5596 19.0065 10.5596 19.0707Z" fill="#003286"/>
<path id="Vector_63" d="M10.1709 18.8768C10.1709 18.941 10.2351 19.0266 10.2993 19.048C10.3635 19.0694 10.4062 19.048 10.4062 18.9838C10.4062 18.9196 10.342 18.834 10.2779 18.8126C10.2137 18.7698 10.1709 18.8126 10.1709 18.8768Z" fill="#003286"/>
<path id="Vector_64" d="M9.7617 18.6864C9.7617 18.7506 9.82589 18.8362 9.89008 18.8576C9.95428 18.9004 9.99707 18.8576 9.99707 18.7934C9.99707 18.7292 9.93288 18.6436 9.86869 18.6222C9.8045 18.5794 9.7617 18.6222 9.7617 18.6864Z" fill="#003286"/>
<path id="Vector_65" d="M9.37401 18.4701C9.37401 18.5343 9.4382 18.6199 9.50239 18.6413C9.56658 18.6841 9.60938 18.6413 9.60938 18.5771C9.60938 18.5129 9.54519 18.4273 9.481 18.4059C9.4168 18.3631 9.37401 18.4059 9.37401 18.4701Z" fill="#003286"/>
<path id="Vector_66" d="M10.4072 19.3065C10.4072 19.3707 10.4714 19.4563 10.5356 19.4777C10.5998 19.5205 10.6426 19.4777 10.6426 19.4135C10.6426 19.3493 10.5784 19.2637 10.5142 19.2423C10.45 19.1995 10.4072 19.2423 10.4072 19.3065Z" fill="#003286"/>
<path id="Vector_67" d="M9.99899 19.0961C9.99899 19.1603 10.0632 19.2458 10.1274 19.2672C10.1916 19.31 10.2344 19.2672 10.2344 19.2031C10.2344 19.1389 10.1702 19.0533 10.106 19.0319C10.0418 18.9891 9.99899 19.0319 9.99899 19.0961Z" fill="#003286"/>
<path id="Vector_68" d="M9.61275 18.8946C9.61275 18.9583 9.67648 19.022 9.71897 19.0433C9.78271 19.0645 9.8252 19.0433 9.8252 19.0008C9.8252 18.9371 9.76146 18.8733 9.71897 18.8521C9.65524 18.8308 9.61275 18.8521 9.61275 18.8946Z" fill="#003286"/>
<path id="Vector_69" d="M10.1709 19.4374C10.1709 19.5016 10.2351 19.5872 10.2993 19.6086C10.3635 19.6514 10.4062 19.6086 10.4062 19.5444C10.4062 19.4802 10.342 19.3946 10.2779 19.3732C10.2137 19.3304 10.1709 19.3732 10.1709 19.4374Z" fill="#003286"/>
</g>
</g>
</g>
</g>
</g>
<path id="Vector_70" d="M10.3456 19.6075C9.5719 19.1995 8.88412 18.1043 8.86263 17.2238C8.86263 17.0735 8.86264 16.8588 8.94861 16.7085C8.81965 16.6655 8.71218 16.644 8.6477 16.644C8.30382 16.644 8.26083 17.0735 8.28232 17.3312C8.30382 18.2116 8.99159 19.3068 9.76533 19.7148C10.0017 19.8437 10.1522 19.8652 10.2597 19.8652C10.3886 19.8652 10.4746 19.8007 10.5391 19.6934C10.4746 19.6934 10.4101 19.6504 10.3456 19.6075Z" fill="#272D40"/>
<g id="Vector_71" style="mix-blend-mode:multiply">
<path d="M10.6025 18.8974C9.33445 18.8759 8.23832 17.5445 8.49624 16.707C8.53922 16.6855 8.6037 16.6641 8.66818 16.6641C8.75415 16.6641 8.9261 16.6641 9.16252 16.8144C9.85029 17.1794 10.4736 18.1028 10.624 18.9188L10.6025 18.8974Z" fill="#ABABAB"/>
</g>
</g>
</g>
</g>
</g>
<defs>
<linearGradient id="paint0_linear_1394_20568" x1="15.261" y1="0.890625" x2="15.261" y2="30.7594" gradientUnits="userSpaceOnUse">
<stop stop-color="#6A439F"/>
<stop offset="1" stop-color="#417B8A"/>
</linearGradient>
<linearGradient id="paint1_linear_1394_20568" x1="25.9625" y1="23.1382" x2="18.6065" y2="17.414" gradientUnits="userSpaceOnUse">
<stop stop-color="#C7D3DE"/>
<stop offset="0.0001" stop-color="#F4F6FA"/>
<stop offset="0.3" stop-color="#EBEFF4"/>
<stop offset="0.5001" stop-color="#F7F9FC"/>
<stop offset="0.961538" stop-color="#DCE3EB"/>
</linearGradient>
<linearGradient id="paint2_linear_1394_20568" x1="8.00548" y1="18.7349" x2="12.2157" y2="18.5951" gradientUnits="userSpaceOnUse">
<stop stop-color="#7E87A8"/>
<stop offset="0.3" stop-color="#6A7495"/>
<stop offset="0.5" stop-color="#616B8C"/>
<stop offset="0.6" stop-color="#5B6485"/>
<stop offset="0.7" stop-color="#4A5372"/>
<stop offset="0.8" stop-color="#404966"/>
<stop offset="1" stop-color="#3D4663"/>
</linearGradient>
<linearGradient id="paint3_linear_1394_20568" x1="7.88401" y1="18.9324" x2="11.2136" y2="18.8218" gradientUnits="userSpaceOnUse">
<stop stop-color="#272D40"/>
<stop offset="0.2" stop-color="#2A3043"/>
<stop offset="0.4" stop-color="#333A4F"/>
<stop offset="0.6" stop-color="#434A62"/>
<stop offset="0.8" stop-color="#5A617D"/>
<stop offset="1" stop-color="#7E87A8"/>
</linearGradient>
</defs>
</svg>
