<svg width="14" height="14" viewBox="0 0 14 14" fill="none" xmlns="http://www.w3.org/2000/svg">
<path d="M13.3898 7.57508C13.2775 8.78529 12.8229 9.9385 12.0792 10.8998C11.3355 11.8611 10.3335 12.5908 9.19027 13.0035C8.04707 13.4162 6.80999 13.4948 5.62375 13.2302C4.4375 12.9655 3.35113 12.3686 2.49171 11.5092C1.63228 10.6498 1.03535 9.56339 0.770724 8.37715C0.5061 7.1909 0.584727 5.95382 0.99741 4.81063C1.41009 3.66743 2.13977 2.66537 3.10108 1.92168C4.0624 1.17798 5.2156 0.723391 6.42581 0.611084C5.71623 1.57008 5.37456 2.75197 5.46298 3.94165C5.5514 5.13134 6.06404 6.24974 6.9076 7.09329C7.75116 7.93685 8.86955 8.44949 10.0592 8.53791C11.2489 8.62633 12.4308 8.28466 13.3898 7.57508Z" stroke="#460973" stroke-linecap="round" stroke-linejoin="round"/>
</svg>
