<svg xmlns="http://www.w3.org/2000/svg" width="16" height="16" viewBox="0 0 16 16">
  <path id="notific" d="M8,16a2.3,2.3,0,0,1-2.293-2.079H.334A.366.366,0,0,1,0,13.574a.327.327,0,0,1,.326-.348H.334A1.715,1.715,0,0,0,2,11.485V7.657a6.283,6.283,0,0,1,3.722-5.8A2.386,2.386,0,0,1,8,0h.023a2.3,2.3,0,0,1,2.255,1.856A6.287,6.287,0,0,1,14,7.657v3.828a1.746,1.746,0,0,0,1.667,1.741c.222,0,.334.117.334.348a.328.328,0,0,1-.327.347H10.293A2.3,2.3,0,0,1,8,16ZM6.376,13.921A1.731,1.731,0,0,0,8,15.3a1.691,1.691,0,0,0,1.626-1.382H6.376ZM10,13.215h0a.327.327,0,0,1,.066.01h3.993a2.558,2.558,0,0,1-.722-1.741V7.657a5.575,5.575,0,0,0-3.445-5.22.38.38,0,0,1-.221-.291A1.655,1.655,0,0,0,8.026.7H8a1.688,1.688,0,0,0-1.611,1.45.571.571,0,0,1-.221.291,5.563,5.563,0,0,0-3.5,5.22v3.828A2.812,2.812,0,0,1,2,13.225H5.949A.278.278,0,0,1,6,13.215a.328.328,0,0,1,.066.01H9.941A.278.278,0,0,1,10,13.215Z" fill="#5a5a5a"/>
</svg>
