<svg width="60" height="40" viewBox="0 0 60 40" fill="none" xmlns="http://www.w3.org/2000/svg">
<path id="Union" d="M59.5596 20L38.4893 39.5898L19.9199 22.3252L24.4824 18.083L29.7959 23.0234L30 23.2129L30.2041 23.0234L33.2197 20.2197L33.4561 20L33.2197 19.7803L21.7148 9.08301L21.5107 8.89258L21.3057 9.08301L9.80078 19.7803L9.56445 20L9.80078 20.2197L23.5713 33.0225L19.0088 37.2646L0.439453 20L21.5098 0.40918L29.7959 8.11328L30 8.30371L30.2041 8.11328L38.4893 0.40918L59.5596 20ZM38.2852 9.08301L34.7979 12.3252L34.5625 12.5449L34.7979 12.7646L42.5791 20L34.7979 27.2354L34.5625 27.4551L34.7979 27.6748L38.2852 30.917L38.4893 31.1074L38.6943 30.917L50.1992 20.2197L50.4355 20L50.1992 19.7803L38.6943 9.08301L38.4893 8.89258L38.2852 9.08301Z" stroke="url(#paint0_linear_6437_58245)" stroke-width="0.6"/>
<defs>
<linearGradient id="paint0_linear_6437_58245" x1="30" y1="0" x2="30" y2="40" gradientUnits="userSpaceOnUse">
<stop stop-color="#A72DD4"/>
<stop offset="1" stop-color="#77B3C0"/>
</linearGradient>
</defs>
</svg>
