<svg width="16" height="77" viewBox="0 0 16 77" fill="none" xmlns="http://www.w3.org/2000/svg">
<g id="Group 2147205952">
<rect id="Rectangle 1321324694" x="15.5" y="76.5" width="15" height="76" rx="7.5" transform="rotate(-180 15.5 76.5)" fill="#FAFAFA" stroke="#E5E4FE"/>
<path id="Icon" fill-rule="evenodd" clip-rule="evenodd" d="M11.8338 44.5963L6.29814 50.2008C6.07728 50.4279 5.72015 50.4279 5.49929 50.2008L5.16565 49.8578C4.94478 49.6307 4.94478 49.2635 5.16565 49.0364L9.97289 44.1856L5.17035 39.3348C4.94949 39.1077 4.94949 38.7405 5.17035 38.5135L5.50399 38.1704C5.72485 37.9434 6.08198 37.9434 6.30285 38.1704L11.8385 43.7749C12.0546 44.002 12.0546 44.3692 11.8338 44.5963Z" fill="black"/>
<path id="Icon_2" fill-rule="evenodd" clip-rule="evenodd" d="M5.16624 31.7748L10.7019 26.1703C10.9227 25.9432 11.2799 25.9432 11.5007 26.1703L11.8344 26.5133C12.0552 26.7404 12.0552 27.1076 11.8344 27.3347L7.02711 32.1855L11.8297 37.0363C12.0505 37.2634 12.0505 37.6305 11.8297 37.8576L11.496 38.2007C11.2752 38.4277 10.918 38.4277 10.6972 38.2007L5.16154 32.5962C4.94538 32.3691 4.94538 32.0019 5.16624 31.7748Z" fill="black"/>
</g>
</svg>
