<svg id="Group_100195" xmlns="http://www.w3.org/2000/svg" width="16" height="16" viewBox="0 0 16 16">
  <path id="Path_40422" d="M9.03,16H7a.826.826,0,0,1-.822-.752L6.07,14.14a6.372,6.372,0,0,1-1.028-.432l-.856.715a.807.807,0,0,1-.53.2H3.634a.827.827,0,0,1-.585-.244L1.614,12.937a.824.824,0,0,1-.05-1.108l.712-.864a6.188,6.188,0,0,1-.419-1.023L.751,9.837A.827.827,0,0,1,0,9.012V6.975a.826.826,0,0,1,.751-.831l1.105-.1a5.766,5.766,0,0,1,.419-1.019l-.718-.875a.822.822,0,0,1,.05-1.107L3.055,1.606a.821.821,0,0,1,1.105-.05l.867.724a6.927,6.927,0,0,1,1.016-.421L6.148.752A.826.826,0,0,1,6.97,0H9L9,.029a.834.834,0,0,1,.829.752l.105,1.107a6.761,6.761,0,0,1,1.01.421l.873-.724a.809.809,0,0,1,.525-.2h.02a.841.841,0,0,1,.593.243l1.436,1.451a.847.847,0,0,1,.049,1.108l-.718.874a6.258,6.258,0,0,1,.42,1.019l1.105.1a.825.825,0,0,1,.751.83V9.063a.828.828,0,0,1-.751.824l-1.105.1a6.094,6.094,0,0,1-.425,1.03l.718.864a.838.838,0,0,1-.05,1.107l-1.435,1.439a.846.846,0,0,1-.543.2h-.04a.8.8,0,0,1-.527-.2l-.861-.714a6.27,6.27,0,0,1-1.024.428l-.1,1.108A.832.832,0,0,1,9.03,16Zm-4.1-3.25h0a5.481,5.481,0,0,0,1.882.78l.155,1.695H9.006l.16-1.71a5.434,5.434,0,0,0,1.883-.78l1.309,1.107,1.431-1.44-1.1-1.307a5.533,5.533,0,0,0,.718-1.66,1.311,1.311,0,0,0,.044-.244l1.706-.155V7l-1.7-.155a5.441,5.441,0,0,0-.778-1.874l1.105-1.318L12.346,2.206,11.031,3.314a5.476,5.476,0,0,0-1.869-.77L9,.834l-2.034,0L6.8,2.552a5.5,5.5,0,0,0-1.869.769L3.613,2.214,2.177,3.652l1.1,1.331a5.433,5.433,0,0,0-.774,1.873l-1.7.155V9.048l1.718.177A5.67,5.67,0,0,0,3.3,11.112l-1.1,1.307L3.63,13.858l1.3-1.107Z" fill="#5a5a5a"/>
  <path id="Path_40423" d="M3.176,6.367a3.179,3.179,0,1,1,2.246-.932A3.183,3.183,0,0,1,3.176,6.367Zm0-5.535A2.353,2.353,0,1,0,5.523,3.184a2.322,2.322,0,0,0-.6-1.567A2.362,2.362,0,0,0,3.176.832Z" transform="translate(4.811 4.846)" fill="#5a5a5a"/>
</svg>
