<svg xmlns="http://www.w3.org/2000/svg" width="24" height="25" viewBox="0 0 24 25" fill="none">
  <path d="M12.0012 3.89844C12.1325 3.89844 12.2625 3.92516 12.3909 3.97949L12.5188 4.04297C12.6442 4.11447 12.7451 4.21291 12.8215 4.33887L12.8899 4.47363L14.7649 8.92383L14.7737 8.94629L14.7981 8.94824L19.6458 9.37207V9.37305C19.8739 9.40564 20.0492 9.47873 20.175 9.58887C20.3028 9.70064 20.3995 9.84485 20.4641 10.0225C20.528 10.1984 20.5399 10.3781 20.5002 10.5625C20.461 10.7448 20.362 10.9084 20.2004 11.0527L16.5256 14.2285L16.5071 14.2441L16.5129 14.2676L17.6125 18.9922C17.6608 19.2014 17.6446 19.3887 17.5657 19.5547C17.485 19.7244 17.3716 19.8646 17.2268 19.9766C17.0833 20.0875 16.9157 20.1522 16.7229 20.1689C16.5802 20.1813 16.4416 20.1577 16.3069 20.0977L16.1731 20.0244H16.1721L12.0217 17.5244L12.0012 17.5117L11.9807 17.5244L7.8313 20.0244H7.83032C7.65372 20.1368 7.47009 20.1848 7.27954 20.1689C7.08694 20.1528 6.91909 20.0881 6.77563 19.9766C6.63084 19.8638 6.51837 19.7227 6.43774 19.5537C6.37872 19.4298 6.35445 19.2941 6.36646 19.1455L6.39087 18.9922L7.49048 14.2676L7.49634 14.2441L7.47778 14.2285L3.80298 11.0527H3.802C3.64137 10.9078 3.5424 10.7437 3.50317 10.5615C3.47345 10.4231 3.473 10.2874 3.50122 10.1543L3.53931 10.0225C3.60322 9.84557 3.69991 9.70135 3.82837 9.58887C3.95483 9.47817 4.12957 9.40499 4.35669 9.37305L4.35571 9.37207L9.20532 8.94824L9.22876 8.94629L9.23853 8.92383L11.1135 4.47363C11.1737 4.32939 11.2585 4.21339 11.3674 4.12402L11.4846 4.04297C11.6544 3.9462 11.8264 3.8985 12.0012 3.89844Z" fill="url(#paint0_linear_1293_1301)" stroke="url(#paint1_linear_1293_1301)" stroke-width="0.08"/>
  <defs>
    <linearGradient id="paint0_linear_1293_1301" x1="3.44067" y1="12.0351" x2="20.5633" y2="12.0351" gradientUnits="userSpaceOnUse">
      <stop stop-color="#A72DD4"/>
      <stop offset="0.5" stop-color="white"/>
      <stop offset="1" stop-color="white"/>
    </linearGradient>
    <linearGradient id="paint1_linear_1293_1301" x1="7.20161" y1="13.8834" x2="16.8016" y2="13.8834" gradientUnits="userSpaceOnUse">
      <stop stop-color="#A72DD4"/>
      <stop offset="1" stop-color="#68DBBA"/>
    </linearGradient>
  </defs>
</svg>