<svg width="14" height="14" viewBox="0 0 14 14" fill="none" xmlns="http://www.w3.org/2000/svg">
<path d="M9.90156 6.99521C9.90156 7.56878 9.73148 8.12947 9.41283 8.60637C9.09417 9.08327 8.64125 9.45497 8.11135 9.67447C7.58144 9.89396 6.99835 9.95139 6.4358 9.83949C5.87326 9.7276 5.35653 9.4514 4.95095 9.04582C4.54538 8.64025 4.26918 8.12352 4.15729 7.56098C4.04539 6.99843 4.10282 6.41534 4.32231 5.88543C4.54181 5.35553 4.91351 4.90261 5.39041 4.58395C5.86731 4.2653 6.428 4.09521 7.00156 4.09521C7.77069 4.09521 8.50832 4.40075 9.05217 4.9446C9.59603 5.48846 9.90156 6.22609 9.90156 6.99521Z" stroke="white" stroke-linecap="round" stroke-linejoin="round"/>
<path d="M6.99609 0.611328V1.77233" stroke="white" stroke-linecap="round" stroke-linejoin="round"/>
<path d="M6.99609 12.2263V13.3873" stroke="white" stroke-linecap="round" stroke-linejoin="round"/>
<path d="M2.48047 2.48145L3.30547 3.30645" stroke="white" stroke-linecap="round" stroke-linejoin="round"/>
<path d="M10.6914 10.6934L11.5164 11.5184" stroke="white" stroke-linecap="round" stroke-linejoin="round"/>
<path d="M0.609375 6.99927H1.77038" stroke="white" stroke-linecap="round" stroke-linejoin="round"/>
<path d="M12.2227 6.99927H13.3837" stroke="white" stroke-linecap="round" stroke-linejoin="round"/>
<path d="M2.48047 11.5184L3.30547 10.6934" stroke="white" stroke-linecap="round" stroke-linejoin="round"/>
<path d="M10.6914 3.30645L11.5164 2.48145" stroke="white" stroke-linecap="round" stroke-linejoin="round"/>
</svg>
