<svg xmlns="http://www.w3.org/2000/svg" width="20" height="18.485" viewBox="0 0 20 18.485">
  <path d="M2.971,18.484A2.968,2.968,0,0,1,0,15.494v-1.72a.475.475,0,0,1,.435-.448.422.422,0,0,1,.316.129.428.428,0,0,1,.12.319v1.72a2.071,2.071,0,0,0,2.1,2.093H17.1a2.059,2.059,0,0,0,2.03-2.093v-1.72a.474.474,0,0,1,.434-.448.423.423,0,0,1,.434.448v1.72a2.953,2.953,0,0,1-2.9,2.99ZM10,14.186a.449.449,0,0,1-.44-.39V1.387L4.206,6.195a.481.481,0,0,1-.582,0,.451.451,0,0,1,0-.587L9.607.235A.48.48,0,0,1,10,0a.42.42,0,0,1,.385.2l6.015,5.4a.345.345,0,0,1,0,.587c-.072.065-.145.065-.29.065a.48.48,0,0,1-.29-.065c-3.383-3.04-4.789-4.3-5.379-4.831V13.8a.343.343,0,0,1-.122.279.461.461,0,0,1-.3.112Z" transform="translate(0 0)"/>
</svg>
