<svg xmlns="http://www.w3.org/2000/svg" width="16" height="13.007" viewBox="0 0 16 13.007">
  <g id="Group_209143" data-name="Group 209143" transform="translate(-0.5 27.696)">
    <path id="Path_415812" data-name="Path 415812" d="M13.324-13.772c-.054,0-.108-.055-.162-.055A.306.306,0,0,1,13-14.1v-5.983a.306.306,0,0,1,.162-.277c.054-.111.216-.111.324-.055l5.838,2.991a.337.337,0,0,1,.162.332.306.306,0,0,1-.162.277l-5.838,2.991C13.432-13.828,13.378-13.772,13.324-13.772Zm.324-5.816v4.93L18.405-17.1Z" transform="translate(-7.095 -3.863)" fill="#5a5a5a" fill-rule="evenodd"/>
    <path id="Path_415813" data-name="Path 415813" d="M13.5-12.493H3.5c-1.667,0-3-1.694-3-3.658v-5.691c0-2.032,1.333-3.658,3-3.658h10c1.667,0,3,1.626,3,3.658v5.691C16.5-14.187,15.167-12.493,13.5-12.493ZM3.5-24.687a2.6,2.6,0,0,0-2.333,2.845v5.691A2.644,2.644,0,0,0,3.5-13.306h10a2.644,2.644,0,0,0,2.333-2.845v-5.691A2.6,2.6,0,0,0,13.5-24.687Z" transform="translate(0 -2.196)" fill="#5a5a5a" fill-rule="evenodd"/>
  </g>
</svg>
