<svg width="25" height="24" viewBox="0 0 25 24" fill="none" xmlns="http://www.w3.org/2000/svg">
<g id="Frame 2147208783">
<g id="Group 2106265214">
<path id="Vector" d="M5.84687 5H11.3625C11.554 5 11.7094 5.15255 11.7094 5.34146V10.7712C11.7094 10.9596 11.5544 11.1126 11.3625 11.1126H5.84687C5.65542 11.1126 5.5 10.9596 5.5 10.7712V5.34146C5.5 5.15299 5.65542 5 5.84687 5ZM13.6375 12.8874H19.1531C19.3446 12.8874 19.5 13.0404 19.5 13.2288V18.6585C19.5 18.847 19.345 19 19.1531 19H13.6375C13.446 19 13.2906 18.8474 13.2906 18.6585V13.2288C13.2906 13.0404 13.4456 12.8874 13.6375 12.8874ZM18.8067 13.5703H13.9843V18.3175H18.8067V13.5703ZM13.6375 5H19.1531C19.3446 5 19.5 5.15255 19.5 5.34146V10.7712C19.5 10.9596 19.345 11.1126 19.1531 11.1126H13.6375C13.446 11.1126 13.2906 10.9596 13.2906 10.7712V5.34146C13.2906 5.15299 13.4456 5 13.6375 5ZM18.8067 5.68248H13.9843V10.4297H18.8067V5.68248ZM5.84687 12.8869H11.3625C11.554 12.8869 11.7094 13.0399 11.7094 13.2284V18.6581C11.7094 18.8466 11.5544 18.9996 11.3625 18.9996H5.84687C5.65542 18.9996 5.5 18.847 5.5 18.6581V13.2284C5.5 13.0399 5.65542 12.8869 5.84687 12.8869ZM11.0161 13.5698H6.19374V18.3171H11.0161V13.5698ZM11.0161 5.68248H6.19374V10.4297H11.0161V5.68248Z" fill="#404040"/>
</g>
</g>
</svg>
