<svg xmlns="http://www.w3.org/2000/svg" width="40" height="45" viewBox="0 0 40 45" fill="none">
  <path d="M32.2932 44.1249C32.112 44.1249 31.9644 43.9838 31.9644 43.8024C31.8838 40.2211 32.5818 36.2365 34.045 31.95C34.1054 31.7753 34.2933 31.6812 34.4678 31.7417C34.6423 31.8022 34.7363 31.9903 34.6759 32.165C33.2396 36.3779 32.5483 40.2886 32.6289 43.789C32.6356 43.9705 32.4879 44.125 32.3067 44.125L32.2932 44.1249Z" fill="#EAEAEA"/>
  <path d="M32.2932 44.1249C32.112 44.1249 31.9644 43.9838 31.9644 43.8024C31.8838 40.2211 32.5818 36.2365 34.045 31.95C34.1054 31.7753 34.2933 31.6812 34.4678 31.7417C34.6423 31.8022 34.7363 31.9903 34.6759 32.165C33.2396 36.3779 32.5483 40.2886 32.6289 43.789C32.6356 43.9705 32.4879 44.125 32.3067 44.125L32.2932 44.1249Z" fill="url(#paint0_linear_1285_39439)"/>
  <path d="M14.4603 44.1249C14.2791 44.1249 14.1314 43.9771 14.1314 43.7957V39.6298C14.1314 39.0116 13.628 38.501 13.0038 38.501H7.50696C6.4264 38.501 5.55387 37.6207 5.55387 36.5457V28.355L2.88262 28.3617C1.99668 28.3617 1.19129 27.8779 0.781889 27.0985C0.593963 26.7357 0.5 26.3594 0.5 25.9831C0.5 25.4791 0.661079 24.9887 0.963092 24.5653L4.51353 19.7813C4.56723 10.2739 9.46017 3.48074 17.6078 1.58605C20.3931 0.9343 23.3933 0.974594 26.2725 1.70027C31.9773 3.13819 36.2526 6.64557 38.32 11.5775C40.1052 15.8509 39.8569 20.8162 37.6287 25.1904C37.0783 26.2655 36.528 27.4347 36.0447 28.5903C35.9709 28.7583 35.7762 28.8389 35.6085 28.765C35.4407 28.6911 35.3601 28.503 35.434 28.3283C35.9239 27.1659 36.481 25.9765 37.0381 24.8881C39.1724 20.6886 39.4207 15.9246 37.7092 11.8329C35.7293 7.10262 31.6084 3.7295 26.1115 2.33879C23.3329 1.64 20.4467 1.59967 17.762 2.23129C9.89622 4.05219 5.19099 10.6572 5.17123 19.8959C5.17123 19.9698 5.1511 20.037 5.10411 20.0907L1.49328 24.9552C1.2718 25.2576 1.1577 25.6137 1.1577 25.9832C1.1577 26.252 1.22481 26.5275 1.36576 26.7962C1.66107 27.3539 2.23825 27.7033 2.88257 27.7033H5.56722C5.92293 27.7033 6.21154 27.999 6.21154 28.3618V36.5525C6.21154 37.2647 6.78876 37.8493 7.50687 37.8493H13.0037C13.9904 37.8493 14.789 38.6489 14.789 39.6365V43.8024C14.789 43.9771 14.6415 44.1249 14.4603 44.1249Z" fill="#EAEAEA"/>
  <path d="M14.4603 44.1249C14.2791 44.1249 14.1314 43.9771 14.1314 43.7957V39.6298C14.1314 39.0116 13.628 38.501 13.0038 38.501H7.50696C6.4264 38.501 5.55387 37.6207 5.55387 36.5457V28.355L2.88262 28.3617C1.99668 28.3617 1.19129 27.8779 0.781889 27.0985C0.593963 26.7357 0.5 26.3594 0.5 25.9831C0.5 25.4791 0.661079 24.9887 0.963092 24.5653L4.51353 19.7813C4.56723 10.2739 9.46017 3.48074 17.6078 1.58605C20.3931 0.9343 23.3933 0.974594 26.2725 1.70027C31.9773 3.13819 36.2526 6.64557 38.32 11.5775C40.1052 15.8509 39.8569 20.8162 37.6287 25.1904C37.0783 26.2655 36.528 27.4347 36.0447 28.5903C35.9709 28.7583 35.7762 28.8389 35.6085 28.765C35.4407 28.6911 35.3601 28.503 35.434 28.3283C35.9239 27.1659 36.481 25.9765 37.0381 24.8881C39.1724 20.6886 39.4207 15.9246 37.7092 11.8329C35.7293 7.10262 31.6084 3.7295 26.1115 2.33879C23.3329 1.64 20.4467 1.59967 17.762 2.23129C9.89622 4.05219 5.19099 10.6572 5.17123 19.8959C5.17123 19.9698 5.1511 20.037 5.10411 20.0907L1.49328 24.9552C1.2718 25.2576 1.1577 25.6137 1.1577 25.9832C1.1577 26.252 1.22481 26.5275 1.36576 26.7962C1.66107 27.3539 2.23825 27.7033 2.88257 27.7033H5.56722C5.92293 27.7033 6.21154 27.999 6.21154 28.3618V36.5525C6.21154 37.2647 6.78876 37.8493 7.50687 37.8493H13.0037C13.9904 37.8493 14.789 38.6489 14.789 39.6365V43.8024C14.789 43.9771 14.6415 44.1249 14.4603 44.1249Z" fill="url(#paint1_linear_1285_39439)"/>
  <path d="M22.0645 27.132C16.5809 27.132 12.118 22.6636 12.118 17.1743C12.118 11.685 16.5814 7.21663 22.0645 7.21663C27.5476 7.21663 32.011 11.685 32.011 17.1743C32.011 22.6636 27.5476 27.132 22.0645 27.132ZM22.0645 7.88145C16.9435 7.88145 12.7756 12.054 12.7756 17.1808C12.7756 22.3075 16.9435 26.4801 22.0645 26.4801C27.1855 26.4801 31.3534 22.3075 31.3534 17.1808C31.3534 12.054 27.1855 7.88145 22.0645 7.88145Z" fill="#EAEAEA"/>
  <path d="M22.0645 27.132C16.5809 27.132 12.118 22.6636 12.118 17.1743C12.118 11.685 16.5814 7.21663 22.0645 7.21663C27.5476 7.21663 32.011 11.685 32.011 17.1743C32.011 22.6636 27.5476 27.132 22.0645 27.132ZM22.0645 7.88145C16.9435 7.88145 12.7756 12.054 12.7756 17.1808C12.7756 22.3075 16.9435 26.4801 22.0645 26.4801C27.1855 26.4801 31.3534 22.3075 31.3534 17.1808C31.3534 12.054 27.1855 7.88145 22.0645 7.88145Z" fill="url(#paint2_linear_1285_39439)"/>
  <path d="M22.0645 29.6184C15.212 29.6184 9.63434 24.0349 9.63434 17.1743C9.63434 10.3137 15.2115 4.7371 22.0645 4.7371C28.9174 4.7371 34.4946 10.3141 34.4946 17.1743C34.4946 24.0345 28.9174 29.6184 22.0645 29.6184ZM22.0645 5.3959C15.5745 5.3959 10.2988 10.6839 10.2988 17.1747C10.2988 23.6655 15.5741 28.9536 22.0645 28.9536C28.5549 28.9536 33.8301 23.6655 33.8301 17.1747C33.8301 10.6839 28.5549 5.3959 22.0645 5.3959Z" fill="#EAEAEA"/>
  <path d="M22.0645 29.6184C15.212 29.6184 9.63434 24.0349 9.63434 17.1743C9.63434 10.3137 15.2115 4.7371 22.0645 4.7371C28.9174 4.7371 34.4946 10.3141 34.4946 17.1743C34.4946 24.0345 28.9174 29.6184 22.0645 29.6184ZM22.0645 5.3959C15.5745 5.3959 10.2988 10.6839 10.2988 17.1747C10.2988 23.6655 15.5741 28.9536 22.0645 28.9536C28.5549 28.9536 33.8301 23.6655 33.8301 17.1747C33.8301 10.6839 28.5549 5.3959 22.0645 5.3959Z" fill="url(#paint3_linear_1285_39439)"/>
  <path d="M35.4946 33.3003C35.2597 33.3003 35.0382 33.2062 34.8705 33.045L29.0046 27.1725C28.8771 27.0449 28.8771 26.8366 29.0046 26.7022C29.1321 26.5745 29.3402 26.5745 29.4744 26.7022L35.3403 32.5746C35.4208 32.6552 35.5685 32.6552 35.649 32.5746L37.3605 30.8612C37.4008 30.8209 37.4276 30.7671 37.4276 30.7066C37.4276 30.6462 37.4075 30.5924 37.3605 30.5521L31.535 24.7201C31.4075 24.5924 31.4075 24.3841 31.535 24.2497C31.6625 24.1221 31.8706 24.1221 32.0049 24.2497L37.8303 30.0817C37.9981 30.2497 38.0854 30.4715 38.0854 30.7066C38.0854 30.9418 37.9914 31.1635 37.8303 31.3315L36.1189 33.0449C35.9511 33.2061 35.7295 33.3003 35.4946 33.3003Z" fill="#EAEAEA"/>
  <path d="M35.4946 33.3003C35.2597 33.3003 35.0382 33.2062 34.8705 33.045L29.0046 27.1725C28.8771 27.0449 28.8771 26.8366 29.0046 26.7022C29.1321 26.5745 29.3402 26.5745 29.4744 26.7022L35.3403 32.5746C35.4208 32.6552 35.5685 32.6552 35.649 32.5746L37.3605 30.8612C37.4008 30.8209 37.4276 30.7671 37.4276 30.7066C37.4276 30.6462 37.4075 30.5924 37.3605 30.5521L31.535 24.7201C31.4075 24.5924 31.4075 24.3841 31.535 24.2497C31.6625 24.1221 31.8706 24.1221 32.0049 24.2497L37.8303 30.0817C37.9981 30.2497 38.0854 30.4715 38.0854 30.7066C38.0854 30.9418 37.9914 31.1635 37.8303 31.3315L36.1189 33.0449C35.9511 33.2061 35.7295 33.3003 35.4946 33.3003Z" fill="url(#paint4_linear_1285_39439)"/>
  <path d="M27.2594 22.3682H16.635C16.4538 22.3682 16.3062 22.2203 16.3062 22.0389V12.4911C16.3062 12.3096 16.4538 12.1618 16.635 12.1618C16.8163 12.1618 16.9639 12.3096 16.9639 12.4911V21.71H27.2597C27.4409 21.71 27.5885 21.8578 27.5885 22.0392C27.5885 22.2206 27.4406 22.3682 27.2594 22.3682Z" fill="#EAEAEA"/>
  <path d="M27.2594 22.3682H16.635C16.4538 22.3682 16.3062 22.2203 16.3062 22.0389V12.4911C16.3062 12.3096 16.4538 12.1618 16.635 12.1618C16.8163 12.1618 16.9639 12.3096 16.9639 12.4911V21.71H27.2597C27.4409 21.71 27.5885 21.8578 27.5885 22.0392C27.5885 22.2206 27.4406 22.3682 27.2594 22.3682Z" fill="url(#paint5_linear_1285_39439)"/>
  <path d="M27.6825 15.3738C27.5953 15.3738 27.5147 15.3402 27.4476 15.273L26.2462 14.0568L25.1589 15.1722C25.0314 15.3066 24.8234 15.3066 24.6891 15.179C24.5548 15.0513 24.5549 14.843 24.6824 14.7086L26.0046 13.3514C26.065 13.2909 26.1522 13.2506 26.2395 13.2506C26.3267 13.2506 26.414 13.2842 26.4744 13.3514L27.9174 14.8027C28.0449 14.9304 28.0449 15.1387 27.9174 15.2731C27.857 15.3402 27.7698 15.3738 27.6825 15.3738Z" fill="#EAEAEA"/>
  <path d="M27.6825 15.3738C27.5953 15.3738 27.5147 15.3402 27.4476 15.273L26.2462 14.0568L25.1589 15.1722C25.0314 15.3066 24.8234 15.3066 24.6891 15.179C24.5548 15.0513 24.5549 14.843 24.6824 14.7086L26.0046 13.3514C26.065 13.2909 26.1522 13.2506 26.2395 13.2506C26.3267 13.2506 26.414 13.2842 26.4744 13.3514L27.9174 14.8027C28.0449 14.9304 28.0449 15.1387 27.9174 15.2731C27.857 15.3402 27.7698 15.3738 27.6825 15.3738Z" fill="url(#paint6_linear_1285_39439)"/>
  <path d="M26.2461 22.3682C26.0649 22.3682 25.9172 22.2203 25.9172 22.0389V13.5863C25.9172 13.4049 26.0649 13.2571 26.2461 13.2571C26.4273 13.2571 26.575 13.4049 26.575 13.5863V22.0389C26.575 22.2203 26.4273 22.3682 26.2461 22.3682Z" fill="#EAEAEA"/>
  <path d="M26.2461 22.3682C26.0649 22.3682 25.9172 22.2203 25.9172 22.0389V13.5863C25.9172 13.4049 26.0649 13.2571 26.2461 13.2571C26.4273 13.2571 26.575 13.4049 26.575 13.5863V22.0389C26.575 22.2203 26.4273 22.3682 26.2461 22.3682Z" fill="url(#paint7_linear_1285_39439)"/>
  <path d="M19.0444 22.3682C18.8631 22.3682 18.7155 22.2203 18.7155 22.0389V18.8944C18.7155 18.7129 18.8632 18.5651 19.0444 18.5651C19.2256 18.5651 19.3732 18.7129 19.3732 18.8944V22.0389C19.3732 22.2203 19.2256 22.3682 19.0444 22.3682Z" fill="#EAEAEA"/>
  <path d="M19.0444 22.3682C18.8631 22.3682 18.7155 22.2203 18.7155 22.0389V18.8944C18.7155 18.7129 18.8632 18.5651 19.0444 18.5651C19.2256 18.5651 19.3732 18.7129 19.3732 18.8944V22.0389C19.3732 22.2203 19.2256 22.3682 19.0444 22.3682Z" fill="url(#paint8_linear_1285_39439)"/>
  <path d="M21.427 22.3682C21.2458 22.3682 21.0982 22.2203 21.0982 22.0389V17.6178C21.0982 17.4364 21.2458 17.2886 21.427 17.2886C21.6083 17.2886 21.7559 17.4364 21.7559 17.6178V22.0389C21.7559 22.2203 21.6083 22.3682 21.427 22.3682Z" fill="#EAEAEA"/>
  <path d="M21.427 22.3682C21.2458 22.3682 21.0982 22.2203 21.0982 22.0389V17.6178C21.0982 17.4364 21.2458 17.2886 21.427 17.2886C21.6083 17.2886 21.7559 17.4364 21.7559 17.6178V22.0389C21.7559 22.2203 21.6083 22.3682 21.427 22.3682Z" fill="url(#paint9_linear_1285_39439)"/>
  <path d="M23.8368 22.3682C23.6556 22.3682 23.5079 22.2203 23.5079 22.0389V17.0734C23.5079 16.892 23.6556 16.7442 23.8368 16.7442C24.018 16.7442 24.1657 16.892 24.1657 17.0734V22.0389C24.1657 22.2203 24.018 22.3682 23.8368 22.3682Z" fill="#EAEAEA"/>
  <path d="M23.8368 22.3682C23.6556 22.3682 23.5079 22.2203 23.5079 22.0389V17.0734C23.5079 16.892 23.6556 16.7442 23.8368 16.7442C24.018 16.7442 24.1657 16.892 24.1657 17.0734V22.0389C24.1657 22.2203 24.018 22.3682 23.8368 22.3682Z" fill="url(#paint10_linear_1285_39439)"/>
  <path d="M32.2932 44.1249C32.112 44.1249 31.9644 43.9838 31.9644 43.8024C31.8838 40.2211 32.5818 36.2365 34.045 31.95C34.1054 31.7753 34.2933 31.6812 34.4678 31.7417C34.6423 31.8022 34.7363 31.9903 34.6759 32.165C33.2396 36.3779 32.5483 40.2886 32.6289 43.789C32.6356 43.9705 32.4879 44.125 32.3067 44.125L32.2932 44.1249Z" stroke="#EAEAEA" stroke-width="0.4"/>
  <path d="M32.2932 44.1249C32.112 44.1249 31.9644 43.9838 31.9644 43.8024C31.8838 40.2211 32.5818 36.2365 34.045 31.95C34.1054 31.7753 34.2933 31.6812 34.4678 31.7417C34.6423 31.8022 34.7363 31.9903 34.6759 32.165C33.2396 36.3779 32.5483 40.2886 32.6289 43.789C32.6356 43.9705 32.4879 44.125 32.3067 44.125L32.2932 44.1249Z" stroke="url(#paint11_linear_1285_39439)" stroke-width="0.4"/>
  <path d="M14.4603 44.1249C14.2791 44.1249 14.1314 43.9771 14.1314 43.7957V39.6298C14.1314 39.0116 13.628 38.501 13.0038 38.501H7.50696C6.4264 38.501 5.55387 37.6207 5.55387 36.5457V28.355L2.88262 28.3617C1.99668 28.3617 1.19129 27.8779 0.781889 27.0985C0.593963 26.7357 0.5 26.3594 0.5 25.9831C0.5 25.4791 0.661079 24.9887 0.963092 24.5653L4.51353 19.7813C4.56723 10.2739 9.46017 3.48074 17.6078 1.58605C20.3931 0.9343 23.3933 0.974594 26.2725 1.70027C31.9773 3.13819 36.2526 6.64557 38.32 11.5775C40.1052 15.8509 39.8569 20.8162 37.6287 25.1904C37.0783 26.2655 36.528 27.4347 36.0447 28.5903C35.9709 28.7583 35.7762 28.8389 35.6085 28.765C35.4407 28.6911 35.3601 28.503 35.434 28.3283C35.9239 27.1659 36.481 25.9765 37.0381 24.8881C39.1724 20.6886 39.4207 15.9246 37.7092 11.8329C35.7293 7.10262 31.6084 3.7295 26.1115 2.33879C23.3329 1.64 20.4467 1.59967 17.762 2.23129C9.89622 4.05219 5.19099 10.6572 5.17123 19.8959C5.17123 19.9698 5.1511 20.037 5.10411 20.0907L1.49328 24.9552C1.2718 25.2576 1.1577 25.6137 1.1577 25.9832C1.1577 26.252 1.22481 26.5275 1.36576 26.7962C1.66107 27.3539 2.23825 27.7033 2.88257 27.7033H5.56722C5.92293 27.7033 6.21154 27.999 6.21154 28.3618V36.5525C6.21154 37.2647 6.78876 37.8493 7.50687 37.8493H13.0037C13.9904 37.8493 14.789 38.6489 14.789 39.6365V43.8024C14.789 43.9771 14.6415 44.1249 14.4603 44.1249Z" stroke="#EAEAEA" stroke-width="0.4"/>
  <path d="M14.4603 44.1249C14.2791 44.1249 14.1314 43.9771 14.1314 43.7957V39.6298C14.1314 39.0116 13.628 38.501 13.0038 38.501H7.50696C6.4264 38.501 5.55387 37.6207 5.55387 36.5457V28.355L2.88262 28.3617C1.99668 28.3617 1.19129 27.8779 0.781889 27.0985C0.593963 26.7357 0.5 26.3594 0.5 25.9831C0.5 25.4791 0.661079 24.9887 0.963092 24.5653L4.51353 19.7813C4.56723 10.2739 9.46017 3.48074 17.6078 1.58605C20.3931 0.9343 23.3933 0.974594 26.2725 1.70027C31.9773 3.13819 36.2526 6.64557 38.32 11.5775C40.1052 15.8509 39.8569 20.8162 37.6287 25.1904C37.0783 26.2655 36.528 27.4347 36.0447 28.5903C35.9709 28.7583 35.7762 28.8389 35.6085 28.765C35.4407 28.6911 35.3601 28.503 35.434 28.3283C35.9239 27.1659 36.481 25.9765 37.0381 24.8881C39.1724 20.6886 39.4207 15.9246 37.7092 11.8329C35.7293 7.10262 31.6084 3.7295 26.1115 2.33879C23.3329 1.64 20.4467 1.59967 17.762 2.23129C9.89622 4.05219 5.19099 10.6572 5.17123 19.8959C5.17123 19.9698 5.1511 20.037 5.10411 20.0907L1.49328 24.9552C1.2718 25.2576 1.1577 25.6137 1.1577 25.9832C1.1577 26.252 1.22481 26.5275 1.36576 26.7962C1.66107 27.3539 2.23825 27.7033 2.88257 27.7033H5.56722C5.92293 27.7033 6.21154 27.999 6.21154 28.3618V36.5525C6.21154 37.2647 6.78876 37.8493 7.50687 37.8493H13.0037C13.9904 37.8493 14.789 38.6489 14.789 39.6365V43.8024C14.789 43.9771 14.6415 44.1249 14.4603 44.1249Z" stroke="url(#paint12_linear_1285_39439)" stroke-width="0.4"/>
  <path d="M22.0645 27.132C16.5809 27.132 12.118 22.6636 12.118 17.1743C12.118 11.685 16.5814 7.21663 22.0645 7.21663C27.5476 7.21663 32.011 11.685 32.011 17.1743C32.011 22.6636 27.5476 27.132 22.0645 27.132ZM22.0645 7.88145C16.9435 7.88145 12.7756 12.054 12.7756 17.1808C12.7756 22.3075 16.9435 26.4801 22.0645 26.4801C27.1855 26.4801 31.3534 22.3075 31.3534 17.1808C31.3534 12.054 27.1855 7.88145 22.0645 7.88145Z" stroke="#EAEAEA" stroke-width="0.4"/>
  <path d="M22.0645 27.132C16.5809 27.132 12.118 22.6636 12.118 17.1743C12.118 11.685 16.5814 7.21663 22.0645 7.21663C27.5476 7.21663 32.011 11.685 32.011 17.1743C32.011 22.6636 27.5476 27.132 22.0645 27.132ZM22.0645 7.88145C16.9435 7.88145 12.7756 12.054 12.7756 17.1808C12.7756 22.3075 16.9435 26.4801 22.0645 26.4801C27.1855 26.4801 31.3534 22.3075 31.3534 17.1808C31.3534 12.054 27.1855 7.88145 22.0645 7.88145Z" stroke="url(#paint13_linear_1285_39439)" stroke-width="0.4"/>
  <path d="M22.0645 29.6184C15.212 29.6184 9.63434 24.0349 9.63434 17.1743C9.63434 10.3137 15.2115 4.7371 22.0645 4.7371C28.9174 4.7371 34.4946 10.3141 34.4946 17.1743C34.4946 24.0345 28.9174 29.6184 22.0645 29.6184ZM22.0645 5.3959C15.5745 5.3959 10.2988 10.6839 10.2988 17.1747C10.2988 23.6655 15.5741 28.9536 22.0645 28.9536C28.5549 28.9536 33.8301 23.6655 33.8301 17.1747C33.8301 10.6839 28.5549 5.3959 22.0645 5.3959Z" stroke="#EAEAEA" stroke-width="0.4"/>
  <path d="M22.0645 29.6184C15.212 29.6184 9.63434 24.0349 9.63434 17.1743C9.63434 10.3137 15.2115 4.7371 22.0645 4.7371C28.9174 4.7371 34.4946 10.3141 34.4946 17.1743C34.4946 24.0345 28.9174 29.6184 22.0645 29.6184ZM22.0645 5.3959C15.5745 5.3959 10.2988 10.6839 10.2988 17.1747C10.2988 23.6655 15.5741 28.9536 22.0645 28.9536C28.5549 28.9536 33.8301 23.6655 33.8301 17.1747C33.8301 10.6839 28.5549 5.3959 22.0645 5.3959Z" stroke="url(#paint14_linear_1285_39439)" stroke-width="0.4"/>
  <path d="M35.4946 33.3003C35.2597 33.3003 35.0382 33.2062 34.8705 33.045L29.0046 27.1725C28.8771 27.0449 28.8771 26.8366 29.0046 26.7022C29.1321 26.5745 29.3402 26.5745 29.4744 26.7022L35.3403 32.5746C35.4208 32.6552 35.5685 32.6552 35.649 32.5746L37.3605 30.8612C37.4008 30.8209 37.4276 30.7671 37.4276 30.7066C37.4276 30.6462 37.4075 30.5924 37.3605 30.5521L31.535 24.7201C31.4075 24.5924 31.4075 24.3841 31.535 24.2497C31.6625 24.1221 31.8706 24.1221 32.0049 24.2497L37.8303 30.0817C37.9981 30.2497 38.0854 30.4715 38.0854 30.7066C38.0854 30.9418 37.9914 31.1635 37.8303 31.3315L36.1189 33.0449C35.9511 33.2061 35.7295 33.3003 35.4946 33.3003Z" stroke="#EAEAEA" stroke-width="0.4"/>
  <path d="M35.4946 33.3003C35.2597 33.3003 35.0382 33.2062 34.8705 33.045L29.0046 27.1725C28.8771 27.0449 28.8771 26.8366 29.0046 26.7022C29.1321 26.5745 29.3402 26.5745 29.4744 26.7022L35.3403 32.5746C35.4208 32.6552 35.5685 32.6552 35.649 32.5746L37.3605 30.8612C37.4008 30.8209 37.4276 30.7671 37.4276 30.7066C37.4276 30.6462 37.4075 30.5924 37.3605 30.5521L31.535 24.7201C31.4075 24.5924 31.4075 24.3841 31.535 24.2497C31.6625 24.1221 31.8706 24.1221 32.0049 24.2497L37.8303 30.0817C37.9981 30.2497 38.0854 30.4715 38.0854 30.7066C38.0854 30.9418 37.9914 31.1635 37.8303 31.3315L36.1189 33.0449C35.9511 33.2061 35.7295 33.3003 35.4946 33.3003Z" stroke="url(#paint15_linear_1285_39439)" stroke-width="0.4"/>
  <path d="M27.2594 22.3682H16.635C16.4538 22.3682 16.3062 22.2203 16.3062 22.0389V12.4911C16.3062 12.3096 16.4538 12.1618 16.635 12.1618C16.8163 12.1618 16.9639 12.3096 16.9639 12.4911V21.71H27.2597C27.4409 21.71 27.5885 21.8578 27.5885 22.0392C27.5885 22.2206 27.4406 22.3682 27.2594 22.3682Z" stroke="#EAEAEA" stroke-width="0.4"/>
  <path d="M27.2594 22.3682H16.635C16.4538 22.3682 16.3062 22.2203 16.3062 22.0389V12.4911C16.3062 12.3096 16.4538 12.1618 16.635 12.1618C16.8163 12.1618 16.9639 12.3096 16.9639 12.4911V21.71H27.2597C27.4409 21.71 27.5885 21.8578 27.5885 22.0392C27.5885 22.2206 27.4406 22.3682 27.2594 22.3682Z" stroke="url(#paint16_linear_1285_39439)" stroke-width="0.4"/>
  <path d="M27.6825 15.3738C27.5953 15.3738 27.5147 15.3402 27.4476 15.273L26.2462 14.0568L25.1589 15.1722C25.0314 15.3066 24.8234 15.3066 24.6891 15.179C24.5548 15.0513 24.5549 14.843 24.6824 14.7086L26.0046 13.3514C26.065 13.2909 26.1522 13.2506 26.2395 13.2506C26.3267 13.2506 26.414 13.2842 26.4744 13.3514L27.9174 14.8027C28.0449 14.9304 28.0449 15.1387 27.9174 15.2731C27.857 15.3402 27.7698 15.3738 27.6825 15.3738Z" stroke="#EAEAEA" stroke-width="0.4"/>
  <path d="M27.6825 15.3738C27.5953 15.3738 27.5147 15.3402 27.4476 15.273L26.2462 14.0568L25.1589 15.1722C25.0314 15.3066 24.8234 15.3066 24.6891 15.179C24.5548 15.0513 24.5549 14.843 24.6824 14.7086L26.0046 13.3514C26.065 13.2909 26.1522 13.2506 26.2395 13.2506C26.3267 13.2506 26.414 13.2842 26.4744 13.3514L27.9174 14.8027C28.0449 14.9304 28.0449 15.1387 27.9174 15.2731C27.857 15.3402 27.7698 15.3738 27.6825 15.3738Z" stroke="url(#paint17_linear_1285_39439)" stroke-width="0.4"/>
  <path d="M26.2461 22.3682C26.0649 22.3682 25.9172 22.2203 25.9172 22.0389V13.5863C25.9172 13.4049 26.0649 13.2571 26.2461 13.2571C26.4273 13.2571 26.575 13.4049 26.575 13.5863V22.0389C26.575 22.2203 26.4273 22.3682 26.2461 22.3682Z" stroke="#EAEAEA" stroke-width="0.4"/>
  <path d="M26.2461 22.3682C26.0649 22.3682 25.9172 22.2203 25.9172 22.0389V13.5863C25.9172 13.4049 26.0649 13.2571 26.2461 13.2571C26.4273 13.2571 26.575 13.4049 26.575 13.5863V22.0389C26.575 22.2203 26.4273 22.3682 26.2461 22.3682Z" stroke="url(#paint18_linear_1285_39439)" stroke-width="0.4"/>
  <path d="M19.0444 22.3682C18.8631 22.3682 18.7155 22.2203 18.7155 22.0389V18.8944C18.7155 18.7129 18.8632 18.5651 19.0444 18.5651C19.2256 18.5651 19.3732 18.7129 19.3732 18.8944V22.0389C19.3732 22.2203 19.2256 22.3682 19.0444 22.3682Z" stroke="#EAEAEA" stroke-width="0.4"/>
  <path d="M19.0444 22.3682C18.8631 22.3682 18.7155 22.2203 18.7155 22.0389V18.8944C18.7155 18.7129 18.8632 18.5651 19.0444 18.5651C19.2256 18.5651 19.3732 18.7129 19.3732 18.8944V22.0389C19.3732 22.2203 19.2256 22.3682 19.0444 22.3682Z" stroke="url(#paint19_linear_1285_39439)" stroke-width="0.4"/>
  <path d="M21.427 22.3682C21.2458 22.3682 21.0982 22.2203 21.0982 22.0389V17.6178C21.0982 17.4364 21.2458 17.2886 21.427 17.2886C21.6083 17.2886 21.7559 17.4364 21.7559 17.6178V22.0389C21.7559 22.2203 21.6083 22.3682 21.427 22.3682Z" stroke="#EAEAEA" stroke-width="0.4"/>
  <path d="M21.427 22.3682C21.2458 22.3682 21.0982 22.2203 21.0982 22.0389V17.6178C21.0982 17.4364 21.2458 17.2886 21.427 17.2886C21.6083 17.2886 21.7559 17.4364 21.7559 17.6178V22.0389C21.7559 22.2203 21.6083 22.3682 21.427 22.3682Z" stroke="url(#paint20_linear_1285_39439)" stroke-width="0.4"/>
  <path d="M23.8368 22.3682C23.6556 22.3682 23.5079 22.2203 23.5079 22.0389V17.0734C23.5079 16.892 23.6556 16.7442 23.8368 16.7442C24.018 16.7442 24.1657 16.892 24.1657 17.0734V22.0389C24.1657 22.2203 24.018 22.3682 23.8368 22.3682Z" stroke="#EAEAEA" stroke-width="0.4"/>
  <path d="M23.8368 22.3682C23.6556 22.3682 23.5079 22.2203 23.5079 22.0389V17.0734C23.5079 16.892 23.6556 16.7442 23.8368 16.7442C24.018 16.7442 24.1657 16.892 24.1657 17.0734V22.0389C24.1657 22.2203 24.018 22.3682 23.8368 22.3682Z" stroke="url(#paint21_linear_1285_39439)" stroke-width="0.4"/>
  <defs>
    <linearGradient id="paint0_linear_1285_39439" x1="0.5" y1="1.125" x2="53.3496" y2="7.74609" gradientUnits="userSpaceOnUse">
      <stop stop-color="#9342CE"/>
      <stop offset="0.514675" stop-color="#6284B6"/>
      <stop offset="1" stop-color="#35C29F"/>
    </linearGradient>
    <linearGradient id="paint1_linear_1285_39439" x1="0.5" y1="1.125" x2="53.3496" y2="7.74609" gradientUnits="userSpaceOnUse">
      <stop stop-color="#9342CE"/>
      <stop offset="0.514675" stop-color="#6284B6"/>
      <stop offset="1" stop-color="#35C29F"/>
    </linearGradient>
    <linearGradient id="paint2_linear_1285_39439" x1="0.5" y1="1.125" x2="53.3496" y2="7.74609" gradientUnits="userSpaceOnUse">
      <stop stop-color="#9342CE"/>
      <stop offset="0.514675" stop-color="#6284B6"/>
      <stop offset="1" stop-color="#35C29F"/>
    </linearGradient>
    <linearGradient id="paint3_linear_1285_39439" x1="0.5" y1="1.125" x2="53.3496" y2="7.74609" gradientUnits="userSpaceOnUse">
      <stop stop-color="#9342CE"/>
      <stop offset="0.514675" stop-color="#6284B6"/>
      <stop offset="1" stop-color="#35C29F"/>
    </linearGradient>
    <linearGradient id="paint4_linear_1285_39439" x1="0.5" y1="1.125" x2="53.3496" y2="7.74609" gradientUnits="userSpaceOnUse">
      <stop stop-color="#9342CE"/>
      <stop offset="0.514675" stop-color="#6284B6"/>
      <stop offset="1" stop-color="#35C29F"/>
    </linearGradient>
    <linearGradient id="paint5_linear_1285_39439" x1="0.5" y1="1.125" x2="53.3496" y2="7.74609" gradientUnits="userSpaceOnUse">
      <stop stop-color="#9342CE"/>
      <stop offset="0.514675" stop-color="#6284B6"/>
      <stop offset="1" stop-color="#35C29F"/>
    </linearGradient>
    <linearGradient id="paint6_linear_1285_39439" x1="0.5" y1="1.125" x2="53.3496" y2="7.74609" gradientUnits="userSpaceOnUse">
      <stop stop-color="#9342CE"/>
      <stop offset="0.514675" stop-color="#6284B6"/>
      <stop offset="1" stop-color="#35C29F"/>
    </linearGradient>
    <linearGradient id="paint7_linear_1285_39439" x1="0.5" y1="1.125" x2="53.3496" y2="7.74609" gradientUnits="userSpaceOnUse">
      <stop stop-color="#9342CE"/>
      <stop offset="0.514675" stop-color="#6284B6"/>
      <stop offset="1" stop-color="#35C29F"/>
    </linearGradient>
    <linearGradient id="paint8_linear_1285_39439" x1="0.5" y1="1.125" x2="53.3496" y2="7.74609" gradientUnits="userSpaceOnUse">
      <stop stop-color="#9342CE"/>
      <stop offset="0.514675" stop-color="#6284B6"/>
      <stop offset="1" stop-color="#35C29F"/>
    </linearGradient>
    <linearGradient id="paint9_linear_1285_39439" x1="0.5" y1="1.125" x2="53.3496" y2="7.74609" gradientUnits="userSpaceOnUse">
      <stop stop-color="#9342CE"/>
      <stop offset="0.514675" stop-color="#6284B6"/>
      <stop offset="1" stop-color="#35C29F"/>
    </linearGradient>
    <linearGradient id="paint10_linear_1285_39439" x1="0.5" y1="1.125" x2="53.3496" y2="7.74609" gradientUnits="userSpaceOnUse">
      <stop stop-color="#9342CE"/>
      <stop offset="0.514675" stop-color="#6284B6"/>
      <stop offset="1" stop-color="#35C29F"/>
    </linearGradient>
    <linearGradient id="paint11_linear_1285_39439" x1="0.5" y1="1.125" x2="53.3496" y2="7.74609" gradientUnits="userSpaceOnUse">
      <stop stop-color="#9342CE"/>
      <stop offset="0.514675" stop-color="#6284B6"/>
      <stop offset="1" stop-color="#35C29F"/>
    </linearGradient>
    <linearGradient id="paint12_linear_1285_39439" x1="0.5" y1="1.125" x2="53.3496" y2="7.74609" gradientUnits="userSpaceOnUse">
      <stop stop-color="#9342CE"/>
      <stop offset="0.514675" stop-color="#6284B6"/>
      <stop offset="1" stop-color="#35C29F"/>
    </linearGradient>
    <linearGradient id="paint13_linear_1285_39439" x1="0.5" y1="1.125" x2="53.3496" y2="7.74609" gradientUnits="userSpaceOnUse">
      <stop stop-color="#9342CE"/>
      <stop offset="0.514675" stop-color="#6284B6"/>
      <stop offset="1" stop-color="#35C29F"/>
    </linearGradient>
    <linearGradient id="paint14_linear_1285_39439" x1="0.5" y1="1.125" x2="53.3496" y2="7.74609" gradientUnits="userSpaceOnUse">
      <stop stop-color="#9342CE"/>
      <stop offset="0.514675" stop-color="#6284B6"/>
      <stop offset="1" stop-color="#35C29F"/>
    </linearGradient>
    <linearGradient id="paint15_linear_1285_39439" x1="0.5" y1="1.125" x2="53.3496" y2="7.74609" gradientUnits="userSpaceOnUse">
      <stop stop-color="#9342CE"/>
      <stop offset="0.514675" stop-color="#6284B6"/>
      <stop offset="1" stop-color="#35C29F"/>
    </linearGradient>
    <linearGradient id="paint16_linear_1285_39439" x1="0.5" y1="1.125" x2="53.3496" y2="7.74609" gradientUnits="userSpaceOnUse">
      <stop stop-color="#9342CE"/>
      <stop offset="0.514675" stop-color="#6284B6"/>
      <stop offset="1" stop-color="#35C29F"/>
    </linearGradient>
    <linearGradient id="paint17_linear_1285_39439" x1="0.5" y1="1.125" x2="53.3496" y2="7.74609" gradientUnits="userSpaceOnUse">
      <stop stop-color="#9342CE"/>
      <stop offset="0.514675" stop-color="#6284B6"/>
      <stop offset="1" stop-color="#35C29F"/>
    </linearGradient>
    <linearGradient id="paint18_linear_1285_39439" x1="0.5" y1="1.125" x2="53.3496" y2="7.74609" gradientUnits="userSpaceOnUse">
      <stop stop-color="#9342CE"/>
      <stop offset="0.514675" stop-color="#6284B6"/>
      <stop offset="1" stop-color="#35C29F"/>
    </linearGradient>
    <linearGradient id="paint19_linear_1285_39439" x1="0.5" y1="1.125" x2="53.3496" y2="7.74609" gradientUnits="userSpaceOnUse">
      <stop stop-color="#9342CE"/>
      <stop offset="0.514675" stop-color="#6284B6"/>
      <stop offset="1" stop-color="#35C29F"/>
    </linearGradient>
    <linearGradient id="paint20_linear_1285_39439" x1="0.5" y1="1.125" x2="53.3496" y2="7.74609" gradientUnits="userSpaceOnUse">
      <stop stop-color="#9342CE"/>
      <stop offset="0.514675" stop-color="#6284B6"/>
      <stop offset="1" stop-color="#35C29F"/>
    </linearGradient>
    <linearGradient id="paint21_linear_1285_39439" x1="0.5" y1="1.125" x2="53.3496" y2="7.74609" gradientUnits="userSpaceOnUse">
      <stop stop-color="#9342CE"/>
      <stop offset="0.514675" stop-color="#6284B6"/>
      <stop offset="1" stop-color="#35C29F"/>
    </linearGradient>
  </defs>
</svg>