<svg width="30" height="33" viewBox="0 0 30 33" fill="none" xmlns="http://www.w3.org/2000/svg">
<g id="Component 964375">
<g id="Union">
<path d="M15.373 1C16.7216 1 17.8191 2.07288 17.8193 3.3916C17.8193 4.52817 17.0029 5.47752 15.915 5.7207V9.3291C18.3624 9.49828 20.501 10.7782 21.793 12.6641L25.0254 10.8457C24.9565 10.6251 24.9073 10.3954 24.9072 10.1523C24.9072 8.8335 26.0049 7.75993 27.3535 7.75977C28.7023 7.75977 29.7998 8.8334 29.7998 10.1523C29.7996 11.4711 28.7022 12.5439 27.3535 12.5439C26.6428 12.5439 26.0059 12.2403 25.5586 11.7646L22.3232 13.5859C22.8124 14.5784 23.0967 15.6858 23.0967 16.8594C23.0966 18.0329 22.8138 19.1404 22.3232 20.1328L25.5586 21.9541C26.0059 21.4784 26.6414 21.1739 27.3535 21.1738C28.7023 21.1738 29.7998 22.2475 29.7998 23.5664C29.7997 24.8853 28.7022 25.958 27.3535 25.958C26.005 25.9578 24.9073 24.8852 24.9072 23.5664C24.9072 23.3232 24.9565 23.0928 25.0254 22.8721L21.793 21.0537C20.5011 22.9396 18.3625 24.2205 15.915 24.3896V27.9971C17.003 28.2389 17.8193 29.1896 17.8193 30.3262C17.8193 31.6451 16.7218 32.7188 15.373 32.7188C14.0243 32.7187 12.9268 31.6451 12.9268 30.3262C12.9268 29.1883 13.7447 28.2379 14.834 27.9961V24.3896C12.3931 24.2258 10.258 22.9554 8.96191 21.0801L5.77637 22.874C5.8439 23.0947 5.89258 23.3233 5.89258 23.5664C5.89253 24.8853 4.79497 25.9579 3.44629 25.958C2.09756 25.958 1.00005 24.8853 1 23.5664C1 22.2475 2.09753 21.1738 3.44629 21.1738C4.15712 21.1739 4.79389 21.4784 5.24121 21.9541L8.42676 20.1602C7.92678 19.1611 7.63872 18.0434 7.63867 16.8594C7.63867 15.6752 7.92806 14.5567 8.42676 13.5576L5.24121 11.7646C4.79524 12.2404 4.15845 12.5439 3.44629 12.5439C2.09765 12.5439 1.0002 11.4711 1 10.1523C1 8.8334 2.09753 7.75977 3.44629 7.75977C4.795 7.75983 5.89258 8.83344 5.89258 10.1523C5.89253 10.3941 5.84526 10.6241 5.77637 10.8447L8.96191 12.6377C10.258 10.7639 12.3934 9.49429 14.834 9.3291V5.72168C13.7447 5.47984 12.9268 4.5295 12.9268 3.3916C12.927 2.07289 14.0245 1.00001 15.373 1ZM15.3721 28.9922C14.6208 28.9922 14.008 29.5902 14.0078 30.3262C14.0078 31.0623 14.6203 31.6611 15.373 31.6611C16.1258 31.6611 16.7383 31.0623 16.7383 30.3262H16.7393C16.739 29.5915 16.1282 28.9948 15.377 28.9922H15.3721ZM3.44629 22.2314C2.6936 22.2314 2.0812 22.8304 2.08105 23.5664C2.08105 24.3025 2.69351 24.9014 3.44629 24.9014C4.19901 24.9013 4.81152 24.3025 4.81152 23.5664C4.81138 22.8304 4.19893 22.2315 3.44629 22.2314ZM27.3535 22.2314C26.6009 22.2317 25.9893 22.8304 25.9893 23.5664C25.9893 24.3024 26.601 24.9011 27.3535 24.9014C28.1063 24.9014 28.7187 24.3025 28.7188 23.5664C28.7188 22.8303 28.1063 22.2314 27.3535 22.2314ZM15.3691 10.3604C11.704 10.3604 8.72285 13.2753 8.72266 16.8594C8.72266 20.4436 11.7039 23.3594 15.3691 23.3594C19.0343 23.3593 22.0156 20.4435 22.0156 16.8594C22.0154 13.2754 19.0342 10.3605 15.3691 10.3604ZM16.2412 12.7705C17.1467 12.7705 17.8818 13.4908 17.8818 14.375V15.7979C18.3791 15.9538 18.742 16.406 18.7422 16.9424V19.5908C18.7422 20.2568 18.1879 20.7987 17.5068 20.7988H13.2275C12.5465 20.7987 11.9922 20.2569 11.9922 19.5908V16.9424C11.9923 16.406 12.3553 15.9538 12.8525 15.7979V14.375C12.8525 13.4895 13.589 12.7705 14.4932 12.7705H16.2412ZM13.2305 16.792C13.1456 16.7922 13.0773 16.8594 13.0771 16.9424V19.5908C13.0771 19.674 13.1455 19.742 13.2305 19.7422H17.5068C17.592 19.7422 17.6611 19.6741 17.6611 19.5908H17.6621V16.9424C17.6619 16.8593 17.5928 16.792 17.5078 16.792H13.2305ZM15.3682 17.5361C15.6668 17.5362 15.9082 17.7724 15.9082 18.0645V18.4609C15.9082 18.753 15.6668 18.9892 15.3682 18.9893C15.0695 18.9893 14.8271 18.753 14.8271 18.4609V18.0645C14.8272 17.7724 15.0695 17.5361 15.3682 17.5361ZM14.4961 13.8281C14.188 13.8281 13.9365 14.0737 13.9365 14.375V15.7344H16.8027V14.375C16.8027 14.0737 16.5513 13.8281 16.2432 13.8281H14.4961ZM3.44629 8.81738C2.69351 8.81738 2.08105 9.41621 2.08105 10.1523C2.08111 10.8884 2.69354 11.4873 3.44629 11.4873C4.19898 11.4872 4.81147 10.8884 4.81152 10.1523C4.81152 9.41625 4.19901 8.81745 3.44629 8.81738ZM27.3535 8.81738C26.6009 8.81762 25.9893 9.41635 25.9893 10.1523C25.9893 10.8883 26.601 11.4871 27.3535 11.4873C28.1063 11.4873 28.7187 10.8884 28.7188 10.1523C28.7188 9.41621 28.1063 8.81738 27.3535 8.81738ZM15.3721 2.05762C14.6193 2.05762 14.0068 2.65644 14.0068 3.39258H14.0049C14.0049 4.12737 14.6177 4.72622 15.3691 4.72754H15.374C16.1254 4.72622 16.7363 4.12869 16.7363 3.39258C16.7363 2.65659 16.1246 2.05785 15.3721 2.05762Z" fill="#EAEAEA"/>
<path d="M15.373 1C16.7216 1 17.8191 2.07288 17.8193 3.3916C17.8193 4.52817 17.0029 5.47752 15.915 5.7207V9.3291C18.3624 9.49828 20.501 10.7782 21.793 12.6641L25.0254 10.8457C24.9565 10.6251 24.9073 10.3954 24.9072 10.1523C24.9072 8.8335 26.0049 7.75993 27.3535 7.75977C28.7023 7.75977 29.7998 8.8334 29.7998 10.1523C29.7996 11.4711 28.7022 12.5439 27.3535 12.5439C26.6428 12.5439 26.0059 12.2403 25.5586 11.7646L22.3232 13.5859C22.8124 14.5784 23.0967 15.6858 23.0967 16.8594C23.0966 18.0329 22.8138 19.1404 22.3232 20.1328L25.5586 21.9541C26.0059 21.4784 26.6414 21.1739 27.3535 21.1738C28.7023 21.1738 29.7998 22.2475 29.7998 23.5664C29.7997 24.8853 28.7022 25.958 27.3535 25.958C26.005 25.9578 24.9073 24.8852 24.9072 23.5664C24.9072 23.3232 24.9565 23.0928 25.0254 22.8721L21.793 21.0537C20.5011 22.9396 18.3625 24.2205 15.915 24.3896V27.9971C17.003 28.2389 17.8193 29.1896 17.8193 30.3262C17.8193 31.6451 16.7218 32.7188 15.373 32.7188C14.0243 32.7187 12.9268 31.6451 12.9268 30.3262C12.9268 29.1883 13.7447 28.2379 14.834 27.9961V24.3896C12.3931 24.2258 10.258 22.9554 8.96191 21.0801L5.77637 22.874C5.8439 23.0947 5.89258 23.3233 5.89258 23.5664C5.89253 24.8853 4.79497 25.9579 3.44629 25.958C2.09756 25.958 1.00005 24.8853 1 23.5664C1 22.2475 2.09753 21.1738 3.44629 21.1738C4.15712 21.1739 4.79389 21.4784 5.24121 21.9541L8.42676 20.1602C7.92678 19.1611 7.63872 18.0434 7.63867 16.8594C7.63867 15.6752 7.92806 14.5567 8.42676 13.5576L5.24121 11.7646C4.79524 12.2404 4.15845 12.5439 3.44629 12.5439C2.09765 12.5439 1.0002 11.4711 1 10.1523C1 8.8334 2.09753 7.75977 3.44629 7.75977C4.795 7.75983 5.89258 8.83344 5.89258 10.1523C5.89253 10.3941 5.84526 10.6241 5.77637 10.8447L8.96191 12.6377C10.258 10.7639 12.3934 9.49429 14.834 9.3291V5.72168C13.7447 5.47984 12.9268 4.5295 12.9268 3.3916C12.927 2.07289 14.0245 1.00001 15.373 1ZM15.3721 28.9922C14.6208 28.9922 14.008 29.5902 14.0078 30.3262C14.0078 31.0623 14.6203 31.6611 15.373 31.6611C16.1258 31.6611 16.7383 31.0623 16.7383 30.3262H16.7393C16.739 29.5915 16.1282 28.9948 15.377 28.9922H15.3721ZM3.44629 22.2314C2.6936 22.2314 2.0812 22.8304 2.08105 23.5664C2.08105 24.3025 2.69351 24.9014 3.44629 24.9014C4.19901 24.9013 4.81152 24.3025 4.81152 23.5664C4.81138 22.8304 4.19893 22.2315 3.44629 22.2314ZM27.3535 22.2314C26.6009 22.2317 25.9893 22.8304 25.9893 23.5664C25.9893 24.3024 26.601 24.9011 27.3535 24.9014C28.1063 24.9014 28.7187 24.3025 28.7188 23.5664C28.7188 22.8303 28.1063 22.2314 27.3535 22.2314ZM15.3691 10.3604C11.704 10.3604 8.72285 13.2753 8.72266 16.8594C8.72266 20.4436 11.7039 23.3594 15.3691 23.3594C19.0343 23.3593 22.0156 20.4435 22.0156 16.8594C22.0154 13.2754 19.0342 10.3605 15.3691 10.3604ZM16.2412 12.7705C17.1467 12.7705 17.8818 13.4908 17.8818 14.375V15.7979C18.3791 15.9538 18.742 16.406 18.7422 16.9424V19.5908C18.7422 20.2568 18.1879 20.7987 17.5068 20.7988H13.2275C12.5465 20.7987 11.9922 20.2569 11.9922 19.5908V16.9424C11.9923 16.406 12.3553 15.9538 12.8525 15.7979V14.375C12.8525 13.4895 13.589 12.7705 14.4932 12.7705H16.2412ZM13.2305 16.792C13.1456 16.7922 13.0773 16.8594 13.0771 16.9424V19.5908C13.0771 19.674 13.1455 19.742 13.2305 19.7422H17.5068C17.592 19.7422 17.6611 19.6741 17.6611 19.5908H17.6621V16.9424C17.6619 16.8593 17.5928 16.792 17.5078 16.792H13.2305ZM15.3682 17.5361C15.6668 17.5362 15.9082 17.7724 15.9082 18.0645V18.4609C15.9082 18.753 15.6668 18.9892 15.3682 18.9893C15.0695 18.9893 14.8271 18.753 14.8271 18.4609V18.0645C14.8272 17.7724 15.0695 17.5361 15.3682 17.5361ZM14.4961 13.8281C14.188 13.8281 13.9365 14.0737 13.9365 14.375V15.7344H16.8027V14.375C16.8027 14.0737 16.5513 13.8281 16.2432 13.8281H14.4961ZM3.44629 8.81738C2.69351 8.81738 2.08105 9.41621 2.08105 10.1523C2.08111 10.8884 2.69354 11.4873 3.44629 11.4873C4.19898 11.4872 4.81147 10.8884 4.81152 10.1523C4.81152 9.41625 4.19901 8.81745 3.44629 8.81738ZM27.3535 8.81738C26.6009 8.81762 25.9893 9.41635 25.9893 10.1523C25.9893 10.8883 26.601 11.4871 27.3535 11.4873C28.1063 11.4873 28.7187 10.8884 28.7188 10.1523C28.7188 9.41621 28.1063 8.81738 27.3535 8.81738ZM15.3721 2.05762C14.6193 2.05762 14.0068 2.65644 14.0068 3.39258H14.0049C14.0049 4.12737 14.6177 4.72622 15.3691 4.72754H15.374C16.1254 4.72622 16.7363 4.12869 16.7363 3.39258C16.7363 2.65659 16.1246 2.05785 15.3721 2.05762Z" fill="url(#paint0_linear_1930_12062)"/>
<path d="M15.373 1V0.84H15.373L15.373 1ZM17.8193 3.3916H17.9793V3.39157L17.8193 3.3916ZM15.915 5.7207L15.8801 5.56456L15.755 5.59252V5.7207H15.915ZM15.915 9.3291H15.755V9.47842L15.904 9.48872L15.915 9.3291ZM21.793 12.6641L21.661 12.7545L21.7438 12.8753L21.8714 12.8035L21.793 12.6641ZM25.0254 10.8457L25.1038 10.9852L25.2167 10.9217L25.1781 10.798L25.0254 10.8457ZM24.9072 10.1523H24.7472V10.1524L24.9072 10.1523ZM27.3535 7.75977V7.59977H27.3535L27.3535 7.75977ZM29.7998 10.1523L29.9598 10.1524V10.1523H29.7998ZM27.3535 12.5439L27.3535 12.7039H27.3535V12.5439ZM25.5586 11.7646L25.6752 11.655L25.5893 11.5637L25.4801 11.6252L25.5586 11.7646ZM22.3232 13.5859L22.2448 13.4465L22.1128 13.5208L22.1797 13.6567L22.3232 13.5859ZM23.0967 16.8594L23.2567 16.8594V16.8594H23.0967ZM22.3232 20.1328L22.1798 20.0619L22.1126 20.1979L22.2448 20.2722L22.3232 20.1328ZM25.5586 21.9541L25.4801 22.0935L25.5893 22.155L25.6752 22.0637L25.5586 21.9541ZM27.3535 21.1738V21.0138H27.3535L27.3535 21.1738ZM29.7998 23.5664L29.9598 23.5664V23.5664H29.7998ZM27.3535 25.958L27.3535 26.118H27.3535V25.958ZM24.9072 23.5664H24.7472V23.5664L24.9072 23.5664ZM25.0254 22.8721L25.1781 22.9198L25.2167 22.7961L25.1038 22.7326L25.0254 22.8721ZM21.793 21.0537L21.8714 20.9143L21.7437 20.8424L21.661 20.9633L21.793 21.0537ZM15.915 24.3896L15.904 24.23L15.755 24.2403V24.3896H15.915ZM15.915 27.9971H15.755V28.1254L15.8803 28.1533L15.915 27.9971ZM17.8193 30.3262H17.9793V30.3262L17.8193 30.3262ZM15.373 32.7188L15.373 32.8787H15.373V32.7188ZM12.9268 30.3262L12.7668 30.3262V30.3262H12.9268ZM14.834 27.9961L14.8687 28.1523L14.994 28.1245V27.9961H14.834ZM14.834 24.3896H14.994V24.24L14.8447 24.23L14.834 24.3896ZM8.96191 21.0801L9.09354 20.9891L9.01057 20.8691L8.8834 20.9407L8.96191 21.0801ZM5.77637 22.874L5.69786 22.7346L5.5857 22.7978L5.62337 22.9209L5.77637 22.874ZM5.89258 23.5664L6.05258 23.5664V23.5664H5.89258ZM3.44629 25.958V26.118H3.4463L3.44629 25.958ZM1 23.5664H0.84V23.5664L1 23.5664ZM3.44629 21.1738L3.4463 21.0138H3.44629V21.1738ZM5.24121 21.9541L5.12465 22.0637L5.21051 22.155L5.31972 22.0935L5.24121 21.9541ZM8.42676 20.1602L8.50527 20.2996L8.63803 20.2248L8.56984 20.0885L8.42676 20.1602ZM7.63867 16.8594H7.47867V16.8594L7.63867 16.8594ZM8.42676 13.5576L8.56992 13.6291L8.6379 13.4929L8.50524 13.4182L8.42676 13.5576ZM5.24121 11.7646L5.31969 11.6252L5.21032 11.5637L5.12448 11.6552L5.24121 11.7646ZM3.44629 12.5439V12.7039H3.4463L3.44629 12.5439ZM1 10.1523H0.84V10.1524L1 10.1523ZM3.44629 7.75977L3.4463 7.59977H3.44629V7.75977ZM5.89258 10.1523L6.05258 10.1524V10.1523H5.89258ZM5.77637 10.8447L5.62364 10.797L5.58504 10.9206L5.69789 10.9842L5.77637 10.8447ZM8.96191 12.6377L8.88344 12.7771L9.01054 12.8487L9.0935 12.7287L8.96191 12.6377ZM14.834 9.3291L14.8448 9.48874L14.994 9.47864V9.3291H14.834ZM14.834 5.72168H14.994V5.59331L14.8687 5.56548L14.834 5.72168ZM12.9268 3.3916L12.7668 3.39157V3.3916H12.9268ZM14.0078 30.3262L13.8478 30.3261V30.3262H14.0078ZM15.373 31.6611V31.8211H15.3731L15.373 31.6611ZM16.7383 30.3262V30.1662H16.5783V30.3262H16.7383ZM16.7393 30.3262V30.4862H16.8993L16.8993 30.3261L16.7393 30.3262ZM15.377 28.9922L15.3775 28.8322H15.377V28.9922ZM3.44629 22.2314L3.4463 22.0714H3.44629V22.2314ZM2.08105 23.5664L1.92105 23.5664V23.5664H2.08105ZM3.44629 24.9014V25.0614H3.4463L3.44629 24.9014ZM4.81152 23.5664H4.97152V23.5664L4.81152 23.5664ZM27.3535 22.2314V22.0714H27.3535L27.3535 22.2314ZM25.9893 23.5664H25.8293V23.5664L25.9893 23.5664ZM27.3535 24.9014L27.3535 25.0614H27.3535V24.9014ZM28.7188 23.5664L28.8787 23.5664V23.5664H28.7188ZM15.3691 10.3604L15.3691 10.2004H15.3691V10.3604ZM8.72266 16.8594L8.56266 16.8594V16.8594H8.72266ZM15.3691 23.3594V23.5194H15.3691L15.3691 23.3594ZM22.0156 16.8594H22.1756V16.8594L22.0156 16.8594ZM17.8818 15.7979H17.7218V15.9154L17.834 15.9505L17.8818 15.7979ZM18.7422 16.9424H18.9022V16.9423L18.7422 16.9424ZM17.5068 20.7988V20.9588H17.5069L17.5068 20.7988ZM13.2275 20.7988L13.2275 20.9588H13.2275V20.7988ZM11.9922 16.9424L11.8322 16.9423V16.9424H11.9922ZM12.8525 15.7979L12.9004 15.9505L13.0125 15.9154V15.7979H12.8525ZM13.2305 16.792V16.632L13.2301 16.632L13.2305 16.792ZM13.0771 16.9424L12.9171 16.942V16.9424H13.0771ZM13.2305 19.7422L13.2301 19.9022H13.2305V19.7422ZM17.5068 19.7422V19.9022H17.5069L17.5068 19.7422ZM17.6611 19.5908V19.4308H17.5011V19.5908H17.6611ZM17.6621 19.5908V19.7508H17.8221V19.5908H17.6621ZM17.6621 16.9424H17.8221V16.942L17.6621 16.9424ZM15.3682 17.5361L15.3682 17.3761H15.3682V17.5361ZM15.9082 18.0645H16.0682V18.0644L15.9082 18.0645ZM15.3682 18.9893V19.1493H15.3682L15.3682 18.9893ZM14.8271 18.0645L14.6671 18.0644V18.0645H14.8271ZM13.9365 15.7344H13.7765V15.8944H13.9365V15.7344ZM16.8027 15.7344V15.8944H16.9627V15.7344H16.8027ZM3.44629 8.81738L3.4463 8.65738H3.44629V8.81738ZM2.08105 10.1523H1.92105V10.1524L2.08105 10.1523ZM3.44629 11.4873V11.6473H3.4463L3.44629 11.4873ZM4.81152 10.1523L4.97152 10.1524V10.1523H4.81152ZM27.3535 8.81738V8.65738H27.3535L27.3535 8.81738ZM25.9893 10.1523H25.8293V10.1524L25.9893 10.1523ZM27.3535 11.4873L27.3535 11.6473H27.3535V11.4873ZM28.7188 10.1523L28.8787 10.1524V10.1523H28.7188ZM15.3721 2.05762L15.3721 1.89762H15.3721V2.05762ZM14.0068 3.39258V3.55258H14.1668V3.39258H14.0068ZM14.0049 3.39258V3.23258H13.8449L13.8449 3.39258L14.0049 3.39258ZM15.3691 4.72754L15.3689 4.88754H15.3691V4.72754ZM15.374 4.72754V4.88754L15.3743 4.88754L15.374 4.72754ZM16.7363 3.39258L16.8963 3.39258V3.39258H16.7363ZM15.373 1V1.16C16.6367 1.16 17.6591 2.16463 17.6593 3.39163L17.8193 3.3916L17.9793 3.39157C17.979 1.98114 16.8066 0.84 15.373 0.84V1ZM17.8193 3.3916H17.6593C17.6593 4.44859 16.8996 5.33667 15.8801 5.56456L15.915 5.7207L15.9499 5.87685C17.1063 5.61836 17.9793 4.60775 17.9793 3.3916H17.8193ZM15.915 5.7207H15.755V9.3291H15.915H16.075V5.7207H15.915ZM15.915 9.3291L15.904 9.48872C18.302 9.65449 20.3962 10.9084 21.661 12.7545L21.793 12.6641L21.925 12.5736C20.6057 10.6479 18.4229 9.34208 15.9261 9.16948L15.915 9.3291ZM21.793 12.6641L21.8714 12.8035L25.1038 10.9852L25.0254 10.8457L24.9469 10.7063L21.7145 12.5246L21.793 12.6641ZM25.0254 10.8457L25.1781 10.798C25.1121 10.5865 25.0673 10.3737 25.0672 10.1523L24.9072 10.1523L24.7472 10.1524C24.7473 10.417 24.8009 10.6637 24.8727 10.8934L25.0254 10.8457ZM24.9072 10.1523H25.0672C25.0672 8.92521 26.0899 7.91992 27.3535 7.91977L27.3535 7.75977L27.3535 7.59977C25.9199 7.59994 24.7472 8.7418 24.7472 10.1523H24.9072ZM27.3535 7.75977V7.91977C28.6173 7.91977 29.6398 8.92509 29.6398 10.1523H29.7998H29.9598C29.9598 8.74171 28.7873 7.59977 27.3535 7.59977V7.75977ZM29.7998 10.1523L29.6398 10.1523C29.6396 11.3794 28.6172 12.3839 27.3535 12.3839V12.5439V12.7039C28.7871 12.7039 29.9596 11.5629 29.9598 10.1524L29.7998 10.1523ZM27.3535 12.5439L27.3535 12.3839C26.6894 12.3839 26.0939 12.1004 25.6752 11.655L25.5586 11.7646L25.442 11.8743C25.9178 12.3802 26.5961 12.7038 27.3535 12.7039L27.3535 12.5439ZM25.5586 11.7646L25.4801 11.6252L22.2448 13.4465L22.3232 13.5859L22.4017 13.7254L25.6371 11.9041L25.5586 11.7646ZM22.3232 13.5859L22.1797 13.6567C22.6589 14.6287 22.9367 15.7121 22.9367 16.8594H23.0967H23.2567C23.2567 15.6596 22.966 14.5281 22.4668 13.5152L22.3232 13.5859ZM23.0967 16.8594L22.9367 16.8594C22.9366 18.0068 22.6602 19.0901 22.1798 20.0619L22.3232 20.1328L22.4667 20.2037C22.9674 19.1906 23.2566 18.059 23.2567 16.8594L23.0967 16.8594ZM22.3232 20.1328L22.2448 20.2722L25.4801 22.0935L25.5586 21.9541L25.6371 21.8147L22.4017 19.9934L22.3232 20.1328ZM25.5586 21.9541L25.6752 22.0637C26.0941 21.6182 26.6882 21.3339 27.3535 21.3338L27.3535 21.1738L27.3535 21.0138C26.5946 21.0139 25.9177 21.3386 25.442 21.8445L25.5586 21.9541ZM27.3535 21.1738V21.3338C28.6173 21.3338 29.6398 22.3392 29.6398 23.5664H29.7998H29.9598C29.9598 22.1558 28.7873 21.0138 27.3535 21.0138V21.1738ZM29.7998 23.5664L29.6398 23.5664C29.6397 24.7935 28.6173 25.798 27.3535 25.798V25.958V26.118C28.7872 26.118 29.9597 24.977 29.9598 23.5664L29.7998 23.5664ZM27.3535 25.958L27.3535 25.798C26.0899 25.7979 25.0673 24.7934 25.0672 23.5664L24.9072 23.5664L24.7472 23.5664C24.7473 24.977 25.92 26.1178 27.3535 26.118L27.3535 25.958ZM24.9072 23.5664H25.0672C25.0672 23.3448 25.1121 23.1313 25.1781 22.9198L25.0254 22.8721L24.8727 22.8244C24.8009 23.0543 24.7472 23.3016 24.7472 23.5664H24.9072ZM25.0254 22.8721L25.1038 22.7326L21.8714 20.9143L21.793 21.0537L21.7145 21.1932L24.9469 23.0115L25.0254 22.8721ZM21.793 21.0537L21.661 20.9633C20.3963 22.8094 18.302 24.0643 15.904 24.23L15.915 24.3896L15.9261 24.5493C18.423 24.3767 20.6059 23.0698 21.925 21.1441L21.793 21.0537ZM15.915 24.3896H15.755V27.9971H15.915H16.075V24.3896H15.915ZM15.915 27.9971L15.8803 28.1533C16.8995 28.3798 17.6593 29.269 17.6593 30.3262L17.8193 30.3262L17.9793 30.3262C17.9793 29.1102 17.1064 28.098 15.9498 27.8409L15.915 27.9971ZM17.8193 30.3262H17.6593C17.6593 31.5534 16.6368 32.5588 15.373 32.5588V32.7188V32.8787C16.8068 32.8787 17.9793 31.7368 17.9793 30.3262H17.8193ZM15.373 32.7188L15.373 32.5588C14.1093 32.5587 13.0868 31.5534 13.0868 30.3262H12.9268H12.7668C12.7668 31.7368 13.9393 32.8787 15.373 32.8787L15.373 32.7188ZM12.9268 30.3262L13.0868 30.3262C13.0868 29.2679 13.848 28.3789 14.8687 28.1523L14.834 27.9961L14.7993 27.8399C13.6414 28.097 12.7668 29.1087 12.7668 30.3262L12.9268 30.3262ZM14.834 27.9961H14.994V24.3896H14.834H14.674V27.9961H14.834ZM14.834 24.3896L14.8447 24.23C12.4532 24.0695 10.3623 22.8249 9.09354 20.9891L8.96191 21.0801L8.83029 21.171C10.1537 23.0859 12.333 24.3821 14.8233 24.5493L14.834 24.3896ZM8.96191 21.0801L8.8834 20.9407L5.69786 22.7346L5.77637 22.874L5.85488 23.0134L9.04043 21.2195L8.96191 21.0801ZM5.77637 22.874L5.62337 22.9209C5.68824 23.1328 5.73258 23.3448 5.73258 23.5664H5.89258H6.05258C6.05258 23.3019 5.99956 23.0565 5.92936 22.8272L5.77637 22.874ZM5.89258 23.5664L5.73258 23.5664C5.73253 24.7935 4.71005 25.7979 3.44628 25.798L3.44629 25.958L3.4463 26.118C4.87989 26.1179 6.05253 24.977 6.05258 23.5664L5.89258 23.5664ZM3.44629 25.958V25.798C2.18248 25.798 1.16004 24.7935 1.16 23.5664L1 23.5664L0.84 23.5664C0.84005 24.9771 2.01263 26.118 3.44629 26.118V25.958ZM1 23.5664H1.16C1.16 22.3392 2.18253 21.3338 3.44629 21.3338V21.1738V21.0138C2.01252 21.0138 0.84 22.1558 0.84 23.5664H1ZM3.44629 21.1738L3.44628 21.3338C4.11034 21.3339 4.7057 21.6182 5.12465 22.0637L5.24121 21.9541L5.35777 21.8445C4.88207 21.3386 4.20391 21.0139 3.4463 21.0138L3.44629 21.1738ZM5.24121 21.9541L5.31972 22.0935L8.50527 20.2996L8.42676 20.1602L8.34825 20.0207L5.1627 21.8147L5.24121 21.9541ZM8.42676 20.1602L8.56984 20.0885C8.08031 19.1104 7.79872 18.017 7.79867 16.8594L7.63867 16.8594L7.47867 16.8594C7.47872 18.0697 7.77326 19.2119 8.28368 20.2318L8.42676 20.1602ZM7.63867 16.8594H7.79867C7.79867 15.7017 8.08154 14.6075 8.56992 13.6291L8.42676 13.5576L8.2836 13.4862C7.77459 14.506 7.47867 15.6488 7.47867 16.8594H7.63867ZM8.42676 13.5576L8.50524 13.4182L5.31969 11.6252L5.24121 11.7646L5.16273 11.9041L8.34828 13.697L8.42676 13.5576ZM5.24121 11.7646L5.12448 11.6552C4.70713 12.1004 4.11191 12.3839 3.44628 12.3839L3.44629 12.5439L3.4463 12.7039C4.205 12.7039 4.88334 12.3803 5.35794 11.8741L5.24121 11.7646ZM3.44629 12.5439V12.3839C2.1826 12.3839 1.16019 11.3794 1.16 10.1523L1 10.1523L0.84 10.1524C0.840219 11.5629 2.01271 12.7039 3.44629 12.7039V12.5439ZM1 10.1523H1.16C1.16 8.92509 2.18253 7.91977 3.44629 7.91977V7.75977V7.59977C2.01252 7.59977 0.84 8.74171 0.84 10.1523H1ZM3.44629 7.75977L3.44628 7.91977C4.70999 7.91982 5.73258 8.92513 5.73258 10.1523H5.89258H6.05258C6.05258 8.74175 4.88 7.59983 3.4463 7.59977L3.44629 7.75977ZM5.89258 10.1523L5.73258 10.1523C5.73253 10.3731 5.68938 10.5865 5.62364 10.797L5.77637 10.8447L5.92909 10.8924C6.00114 10.6617 6.05253 10.415 6.05258 10.1524L5.89258 10.1523ZM5.77637 10.8447L5.69789 10.9842L8.88344 12.7771L8.96191 12.6377L9.04039 12.4983L5.85485 10.7053L5.77637 10.8447ZM8.96191 12.6377L9.0935 12.7287C10.3622 10.8944 12.4534 9.65059 14.8448 9.48874L14.834 9.3291L14.8232 9.16947C12.3333 9.33799 10.1537 10.6333 8.83032 12.5467L8.96191 12.6377ZM14.834 9.3291H14.994V5.72168H14.834H14.674V9.3291H14.834ZM14.834 5.72168L14.8687 5.56548C13.848 5.33888 13.0868 4.44989 13.0868 3.3916H12.9268H12.7668C12.7668 4.60912 13.6414 5.6208 14.7993 5.87788L14.834 5.72168ZM12.9268 3.3916L13.0868 3.39163C13.087 2.16464 14.1094 1.16001 15.373 1.16L15.373 1L15.373 0.84C13.9395 0.840011 12.767 1.98114 12.7668 3.39157L12.9268 3.3916ZM15.3721 28.9922V28.8322C14.5359 28.8322 13.8481 29.4984 13.8478 30.3261L14.0078 30.3262L14.1678 30.3262C14.168 29.682 14.7057 29.1522 15.3721 29.1522V28.9922ZM14.0078 30.3262H13.8478C13.8478 31.154 14.5353 31.8211 15.373 31.8211V31.6611V31.5011C14.7052 31.5011 14.1678 30.9706 14.1678 30.3262H14.0078ZM15.373 31.6611L15.3731 31.8211C16.2107 31.8211 16.8983 31.154 16.8983 30.3262H16.7383H16.5783C16.5783 30.9705 16.0408 31.5011 15.373 31.5011L15.373 31.6611ZM16.7383 30.3262V30.4862H16.7393V30.3262V30.1662H16.7383V30.3262ZM16.7393 30.3262L16.8993 30.3261C16.899 29.4996 16.2132 28.8351 15.3775 28.8322L15.377 28.9922L15.3764 29.1522C16.0433 29.1545 16.5791 29.6834 16.5793 30.3262L16.7393 30.3262ZM15.377 28.9922V28.8322H15.3721V28.9922V29.1522H15.377V28.9922ZM3.44629 22.2314V22.0714C2.6086 22.0714 1.92121 22.7387 1.92105 23.5664L2.08105 23.5664L2.24105 23.5664C2.24118 22.9221 2.77859 22.3914 3.44629 22.3914V22.2314ZM2.08105 23.5664H1.92105C1.92105 24.3943 2.60855 25.0614 3.44629 25.0614V24.9014V24.7414C2.77847 24.7414 2.24105 24.2108 2.24105 23.5664H2.08105ZM3.44629 24.9014L3.4463 25.0614C4.28396 25.0613 4.97152 24.3943 4.97152 23.5664H4.81152H4.65152C4.65152 24.2108 4.11406 24.7413 3.44628 24.7414L3.44629 24.9014ZM4.81152 23.5664L4.97152 23.5664C4.97137 22.7387 4.28391 22.0715 3.4463 22.0714L3.44629 22.2314L3.44628 22.3914C4.11395 22.3915 4.6514 22.9221 4.65152 23.5664L4.81152 23.5664ZM27.3535 22.2314L27.3535 22.0714C26.5159 22.0717 25.8293 22.7388 25.8293 23.5664H25.9893H26.1493C26.1493 22.9221 26.686 22.3917 27.3536 22.3914L27.3535 22.2314ZM25.9893 23.5664L25.8293 23.5664C25.8293 24.394 26.5159 25.0611 27.3535 25.0614L27.3535 24.9014L27.3536 24.7414C26.6861 24.7412 26.1493 24.2107 26.1493 23.5664L25.9893 23.5664ZM27.3535 24.9014V25.0614C28.1912 25.0614 28.8787 24.3942 28.8787 23.5664L28.7188 23.5664L28.5588 23.5664C28.5587 24.2108 28.0213 24.7414 27.3535 24.7414V24.9014ZM28.7188 23.5664H28.8787C28.8787 22.7385 28.1913 22.0714 27.3535 22.0714V22.2314V22.3914C28.0213 22.3914 28.5588 22.922 28.5588 23.5664H28.7188ZM15.3691 10.3604V10.2004C11.6191 10.2004 8.56285 13.1836 8.56266 16.8594L8.72266 16.8594L8.88266 16.8594C8.88284 13.3671 11.789 10.5204 15.3691 10.5204V10.3604ZM8.72266 16.8594H8.56266C8.56266 20.5353 11.6189 23.5194 15.3691 23.5194V23.3594V23.1994C11.7889 23.1994 8.88266 20.3519 8.88266 16.8594H8.72266ZM15.3691 23.3594L15.3691 23.5194C19.1193 23.5193 22.1756 20.5352 22.1756 16.8594H22.0156H21.8556C21.8556 20.3518 18.9493 23.1993 15.3691 23.1994L15.3691 23.3594ZM22.0156 16.8594L22.1756 16.8594C22.1754 13.1837 19.1192 10.2005 15.3691 10.2004L15.3691 10.3604L15.3691 10.5204C18.9493 10.5205 21.8554 13.3671 21.8556 16.8594L22.0156 16.8594ZM16.2412 12.7705V12.9305C17.0616 12.9305 17.7218 13.5825 17.7218 14.375H17.8818H18.0418C18.0418 13.3992 17.2318 12.6105 16.2412 12.6105V12.7705ZM17.8818 14.375H17.7218V15.7979H17.8818H18.0418V14.375H17.8818ZM17.8818 15.7979L17.834 15.9505C18.2696 16.0871 18.5821 16.4812 18.5822 16.9424L18.7422 16.9424L18.9022 16.9423C18.902 16.3308 18.4885 15.8204 17.9297 15.6452L17.8818 15.7979ZM18.7422 16.9424H18.5822V19.5908H18.7422H18.9022V16.9424H18.7422ZM18.7422 19.5908H18.5822C18.5822 20.165 18.1029 20.6387 17.5068 20.6388L17.5068 20.7988L17.5069 20.9588C18.2728 20.9587 18.9022 20.3486 18.9022 19.5908H18.7422ZM17.5068 20.7988V20.6388H13.2275V20.7988V20.9588H17.5068V20.7988ZM13.2275 20.7988L13.2276 20.6388C12.6315 20.6387 12.1522 20.1651 12.1522 19.5908H11.9922H11.8322C11.8322 20.3486 12.4616 20.9587 13.2275 20.9588L13.2275 20.7988ZM11.9922 19.5908H12.1522V16.9424H11.9922H11.8322V19.5908H11.9922ZM11.9922 16.9424L12.1522 16.9424C12.1523 16.4812 12.4647 16.0871 12.9004 15.9505L12.8525 15.7979L12.8047 15.6452C12.2459 15.8204 11.8324 16.3308 11.8322 16.9423L11.9922 16.9424ZM12.8525 15.7979H13.0125V14.375H12.8525H12.6925V15.7979H12.8525ZM12.8525 14.375H13.0125C13.0125 13.5813 13.6739 12.9305 14.4932 12.9305V12.7705V12.6105C13.5041 12.6105 12.6925 13.3977 12.6925 14.375H12.8525ZM14.4932 12.7705V12.9305H16.2412V12.7705V12.6105H14.4932V12.7705ZM13.2305 16.792L13.2301 16.632C13.0599 16.6324 12.9176 16.7682 12.9171 16.942L13.0771 16.9424L13.2371 16.9428C13.2371 16.9461 13.2355 16.949 13.2342 16.9503C13.2335 16.9509 13.2329 16.9514 13.2322 16.9516C13.2319 16.9518 13.2315 16.9519 13.2312 16.9519C13.231 16.952 13.2308 16.952 13.2309 16.952L13.2305 16.792ZM13.0771 16.9424H12.9171V19.5908H13.0771H13.2371V16.9424H13.0771ZM13.0771 19.5908H12.9171C12.9171 19.7641 13.0588 19.9018 13.2301 19.9022L13.2305 19.7422L13.2309 19.5822C13.2322 19.5822 13.2371 19.5838 13.2371 19.5908H13.0771ZM13.2305 19.7422V19.9022H17.5068V19.7422V19.5822H13.2305V19.7422ZM17.5068 19.7422L17.5069 19.9022C17.6776 19.9022 17.8211 19.7652 17.8211 19.5908H17.6611H17.5011C17.5011 19.5871 17.5029 19.5845 17.5038 19.5836C17.5047 19.5827 17.506 19.5822 17.5068 19.5822L17.5068 19.7422ZM17.6611 19.5908V19.7508H17.6621V19.5908V19.4308H17.6611V19.5908ZM17.6621 19.5908H17.8221V16.9424H17.6621H17.5021V19.5908H17.6621ZM17.6621 16.9424L17.8221 16.942C17.8217 16.7672 17.6775 16.632 17.5078 16.632V16.792V16.952C17.5078 16.952 17.5074 16.952 17.5067 16.9517C17.5062 16.9515 17.5056 16.9511 17.5051 16.9506C17.5039 16.9495 17.5021 16.9466 17.5021 16.9428L17.6621 16.9424ZM17.5078 16.792V16.632H13.2305V16.792V16.952H17.5078V16.792ZM15.3682 17.5361L15.3681 17.6961C15.5817 17.6962 15.7482 17.8641 15.7482 18.0645L15.9082 18.0645L16.0682 18.0644C16.0682 17.6808 15.7518 17.3762 15.3682 17.3761L15.3682 17.5361ZM15.9082 18.0645H15.7482V18.4609H15.9082H16.0682V18.0645H15.9082ZM15.9082 18.4609H15.7482C15.7482 18.6613 15.5817 18.8292 15.3681 18.8293L15.3682 18.9893L15.3682 19.1493C15.7518 19.1492 16.0682 18.8446 16.0682 18.4609H15.9082ZM15.3682 18.9893V18.8293C15.1542 18.8293 14.9871 18.661 14.9871 18.4609H14.8271H14.6671C14.6671 18.845 14.9848 19.1493 15.3682 19.1493V18.9893ZM14.8271 18.4609H14.9871V18.0645H14.8271H14.6671V18.4609H14.8271ZM14.8271 18.0645L14.9871 18.0645C14.9872 17.8644 15.1542 17.6961 15.3682 17.6961V17.5361V17.3761C14.9848 17.3761 14.6672 17.6804 14.6671 18.0644L14.8271 18.0645ZM14.4961 13.8281V13.6681C14.1031 13.6681 13.7765 13.9818 13.7765 14.375H13.9365H14.0965C14.0965 14.1655 14.2728 13.9881 14.4961 13.9881V13.8281ZM13.9365 14.375H13.7765V15.7344H13.9365H14.0965V14.375H13.9365ZM13.9365 15.7344V15.8944H16.8027V15.7344V15.5744H13.9365V15.7344ZM16.8027 15.7344H16.9627V14.375H16.8027H16.6427V15.7344H16.8027ZM16.8027 14.375H16.9627C16.9627 13.9818 16.6361 13.6681 16.2432 13.6681V13.8281V13.9881C16.4665 13.9881 16.6427 14.1655 16.6427 14.375H16.8027ZM16.2432 13.8281V13.6681H14.4961V13.8281V13.9881H16.2432V13.8281ZM3.44629 8.81738V8.65738C2.60855 8.65738 1.92105 9.32447 1.92105 10.1523H2.08105H2.24105C2.24105 9.50794 2.77847 8.97738 3.44629 8.97738V8.81738ZM2.08105 10.1523L1.92105 10.1524C1.92112 10.9802 2.60857 11.6473 3.44629 11.6473V11.4873V11.3273C2.77852 11.3273 2.2411 10.7967 2.24105 10.1523L2.08105 10.1523ZM3.44629 11.4873L3.4463 11.6473C4.28394 11.6472 4.97146 10.9801 4.97152 10.1524L4.81152 10.1523L4.65152 10.1523C4.65148 10.7967 4.11402 11.3272 3.44628 11.3273L3.44629 11.4873ZM4.81152 10.1523H4.97152C4.97152 9.3245 4.28396 8.65745 3.4463 8.65738L3.44629 8.81738L3.44628 8.97738C4.11406 8.97744 4.65152 9.50799 4.65152 10.1523H4.81152ZM27.3535 8.81738L27.3535 8.65738C26.5159 8.65765 25.8293 9.32472 25.8293 10.1523H25.9893H26.1493C26.1493 9.50799 26.686 8.97759 27.3536 8.97738L27.3535 8.81738ZM25.9893 10.1523L25.8293 10.1524C25.8293 10.9799 26.5159 11.647 27.3535 11.6473L27.3535 11.4873L27.3536 11.3273C26.6861 11.3271 26.1493 10.7967 26.1493 10.1523L25.9893 10.1523ZM27.3535 11.4873V11.6473C28.1912 11.6473 28.8787 10.9802 28.8787 10.1524L28.7188 10.1523L28.5588 10.1523C28.5587 10.7967 28.0213 11.3273 27.3535 11.3273V11.4873ZM28.7188 10.1523H28.8787C28.8787 9.32447 28.1913 8.65738 27.3535 8.65738V8.81738V8.97738C28.0213 8.97738 28.5588 9.50794 28.5588 10.1523H28.7188ZM15.3721 2.05762V1.89762C14.5343 1.89762 13.8468 2.56471 13.8468 3.39258H14.0068H14.1668C14.1668 2.74817 14.7043 2.21762 15.3721 2.21762V2.05762ZM14.0068 3.39258V3.23258H14.0049V3.39258V3.55258H14.0068V3.39258ZM14.0049 3.39258L13.8449 3.39258C13.8449 4.2192 14.5328 4.88607 15.3689 4.88754L15.3691 4.72754L15.3694 4.56754C14.7026 4.56637 14.1649 4.03554 14.1649 3.39257L14.0049 3.39258ZM15.3691 4.72754V4.88754H15.374V4.72754V4.56754H15.3691V4.72754ZM15.374 4.72754L15.3743 4.88754C16.2106 4.88607 16.8963 4.22033 16.8963 3.39258L16.7363 3.39258L16.5763 3.39257C16.5763 4.03705 16.0403 4.56637 15.3737 4.56754L15.374 4.72754ZM16.7363 3.39258H16.8963C16.8963 2.56495 16.2097 1.89788 15.3721 1.89762L15.3721 2.05762L15.372 2.21762C16.0396 2.21783 16.5763 2.74822 16.5763 3.39258H16.7363Z" fill="#EAEAEA"/>
<path d="M15.373 1V0.84H15.373L15.373 1ZM17.8193 3.3916H17.9793V3.39157L17.8193 3.3916ZM15.915 5.7207L15.8801 5.56456L15.755 5.59252V5.7207H15.915ZM15.915 9.3291H15.755V9.47842L15.904 9.48872L15.915 9.3291ZM21.793 12.6641L21.661 12.7545L21.7438 12.8753L21.8714 12.8035L21.793 12.6641ZM25.0254 10.8457L25.1038 10.9852L25.2167 10.9217L25.1781 10.798L25.0254 10.8457ZM24.9072 10.1523H24.7472V10.1524L24.9072 10.1523ZM27.3535 7.75977V7.59977H27.3535L27.3535 7.75977ZM29.7998 10.1523L29.9598 10.1524V10.1523H29.7998ZM27.3535 12.5439L27.3535 12.7039H27.3535V12.5439ZM25.5586 11.7646L25.6752 11.655L25.5893 11.5637L25.4801 11.6252L25.5586 11.7646ZM22.3232 13.5859L22.2448 13.4465L22.1128 13.5208L22.1797 13.6567L22.3232 13.5859ZM23.0967 16.8594L23.2567 16.8594V16.8594H23.0967ZM22.3232 20.1328L22.1798 20.0619L22.1126 20.1979L22.2448 20.2722L22.3232 20.1328ZM25.5586 21.9541L25.4801 22.0935L25.5893 22.155L25.6752 22.0637L25.5586 21.9541ZM27.3535 21.1738V21.0138H27.3535L27.3535 21.1738ZM29.7998 23.5664L29.9598 23.5664V23.5664H29.7998ZM27.3535 25.958L27.3535 26.118H27.3535V25.958ZM24.9072 23.5664H24.7472V23.5664L24.9072 23.5664ZM25.0254 22.8721L25.1781 22.9198L25.2167 22.7961L25.1038 22.7326L25.0254 22.8721ZM21.793 21.0537L21.8714 20.9143L21.7437 20.8424L21.661 20.9633L21.793 21.0537ZM15.915 24.3896L15.904 24.23L15.755 24.2403V24.3896H15.915ZM15.915 27.9971H15.755V28.1254L15.8803 28.1533L15.915 27.9971ZM17.8193 30.3262H17.9793V30.3262L17.8193 30.3262ZM15.373 32.7188L15.373 32.8787H15.373V32.7188ZM12.9268 30.3262L12.7668 30.3262V30.3262H12.9268ZM14.834 27.9961L14.8687 28.1523L14.994 28.1245V27.9961H14.834ZM14.834 24.3896H14.994V24.24L14.8447 24.23L14.834 24.3896ZM8.96191 21.0801L9.09354 20.9891L9.01057 20.8691L8.8834 20.9407L8.96191 21.0801ZM5.77637 22.874L5.69786 22.7346L5.5857 22.7978L5.62337 22.9209L5.77637 22.874ZM5.89258 23.5664L6.05258 23.5664V23.5664H5.89258ZM3.44629 25.958V26.118H3.4463L3.44629 25.958ZM1 23.5664H0.84V23.5664L1 23.5664ZM3.44629 21.1738L3.4463 21.0138H3.44629V21.1738ZM5.24121 21.9541L5.12465 22.0637L5.21051 22.155L5.31972 22.0935L5.24121 21.9541ZM8.42676 20.1602L8.50527 20.2996L8.63803 20.2248L8.56984 20.0885L8.42676 20.1602ZM7.63867 16.8594H7.47867V16.8594L7.63867 16.8594ZM8.42676 13.5576L8.56992 13.6291L8.6379 13.4929L8.50524 13.4182L8.42676 13.5576ZM5.24121 11.7646L5.31969 11.6252L5.21032 11.5637L5.12448 11.6552L5.24121 11.7646ZM3.44629 12.5439V12.7039H3.4463L3.44629 12.5439ZM1 10.1523H0.84V10.1524L1 10.1523ZM3.44629 7.75977L3.4463 7.59977H3.44629V7.75977ZM5.89258 10.1523L6.05258 10.1524V10.1523H5.89258ZM5.77637 10.8447L5.62364 10.797L5.58504 10.9206L5.69789 10.9842L5.77637 10.8447ZM8.96191 12.6377L8.88344 12.7771L9.01054 12.8487L9.0935 12.7287L8.96191 12.6377ZM14.834 9.3291L14.8448 9.48874L14.994 9.47864V9.3291H14.834ZM14.834 5.72168H14.994V5.59331L14.8687 5.56548L14.834 5.72168ZM12.9268 3.3916L12.7668 3.39157V3.3916H12.9268ZM14.0078 30.3262L13.8478 30.3261V30.3262H14.0078ZM15.373 31.6611V31.8211H15.3731L15.373 31.6611ZM16.7383 30.3262V30.1662H16.5783V30.3262H16.7383ZM16.7393 30.3262V30.4862H16.8993L16.8993 30.3261L16.7393 30.3262ZM15.377 28.9922L15.3775 28.8322H15.377V28.9922ZM3.44629 22.2314L3.4463 22.0714H3.44629V22.2314ZM2.08105 23.5664L1.92105 23.5664V23.5664H2.08105ZM3.44629 24.9014V25.0614H3.4463L3.44629 24.9014ZM4.81152 23.5664H4.97152V23.5664L4.81152 23.5664ZM27.3535 22.2314V22.0714H27.3535L27.3535 22.2314ZM25.9893 23.5664H25.8293V23.5664L25.9893 23.5664ZM27.3535 24.9014L27.3535 25.0614H27.3535V24.9014ZM28.7188 23.5664L28.8787 23.5664V23.5664H28.7188ZM15.3691 10.3604L15.3691 10.2004H15.3691V10.3604ZM8.72266 16.8594L8.56266 16.8594V16.8594H8.72266ZM15.3691 23.3594V23.5194H15.3691L15.3691 23.3594ZM22.0156 16.8594H22.1756V16.8594L22.0156 16.8594ZM17.8818 15.7979H17.7218V15.9154L17.834 15.9505L17.8818 15.7979ZM18.7422 16.9424H18.9022V16.9423L18.7422 16.9424ZM17.5068 20.7988V20.9588H17.5069L17.5068 20.7988ZM13.2275 20.7988L13.2275 20.9588H13.2275V20.7988ZM11.9922 16.9424L11.8322 16.9423V16.9424H11.9922ZM12.8525 15.7979L12.9004 15.9505L13.0125 15.9154V15.7979H12.8525ZM13.2305 16.792V16.632L13.2301 16.632L13.2305 16.792ZM13.0771 16.9424L12.9171 16.942V16.9424H13.0771ZM13.2305 19.7422L13.2301 19.9022H13.2305V19.7422ZM17.5068 19.7422V19.9022H17.5069L17.5068 19.7422ZM17.6611 19.5908V19.4308H17.5011V19.5908H17.6611ZM17.6621 19.5908V19.7508H17.8221V19.5908H17.6621ZM17.6621 16.9424H17.8221V16.942L17.6621 16.9424ZM15.3682 17.5361L15.3682 17.3761H15.3682V17.5361ZM15.9082 18.0645H16.0682V18.0644L15.9082 18.0645ZM15.3682 18.9893V19.1493H15.3682L15.3682 18.9893ZM14.8271 18.0645L14.6671 18.0644V18.0645H14.8271ZM13.9365 15.7344H13.7765V15.8944H13.9365V15.7344ZM16.8027 15.7344V15.8944H16.9627V15.7344H16.8027ZM3.44629 8.81738L3.4463 8.65738H3.44629V8.81738ZM2.08105 10.1523H1.92105V10.1524L2.08105 10.1523ZM3.44629 11.4873V11.6473H3.4463L3.44629 11.4873ZM4.81152 10.1523L4.97152 10.1524V10.1523H4.81152ZM27.3535 8.81738V8.65738H27.3535L27.3535 8.81738ZM25.9893 10.1523H25.8293V10.1524L25.9893 10.1523ZM27.3535 11.4873L27.3535 11.6473H27.3535V11.4873ZM28.7188 10.1523L28.8787 10.1524V10.1523H28.7188ZM15.3721 2.05762L15.3721 1.89762H15.3721V2.05762ZM14.0068 3.39258V3.55258H14.1668V3.39258H14.0068ZM14.0049 3.39258V3.23258H13.8449L13.8449 3.39258L14.0049 3.39258ZM15.3691 4.72754L15.3689 4.88754H15.3691V4.72754ZM15.374 4.72754V4.88754L15.3743 4.88754L15.374 4.72754ZM16.7363 3.39258L16.8963 3.39258V3.39258H16.7363ZM15.373 1V1.16C16.6367 1.16 17.6591 2.16463 17.6593 3.39163L17.8193 3.3916L17.9793 3.39157C17.979 1.98114 16.8066 0.84 15.373 0.84V1ZM17.8193 3.3916H17.6593C17.6593 4.44859 16.8996 5.33667 15.8801 5.56456L15.915 5.7207L15.9499 5.87685C17.1063 5.61836 17.9793 4.60775 17.9793 3.3916H17.8193ZM15.915 5.7207H15.755V9.3291H15.915H16.075V5.7207H15.915ZM15.915 9.3291L15.904 9.48872C18.302 9.65449 20.3962 10.9084 21.661 12.7545L21.793 12.6641L21.925 12.5736C20.6057 10.6479 18.4229 9.34208 15.9261 9.16948L15.915 9.3291ZM21.793 12.6641L21.8714 12.8035L25.1038 10.9852L25.0254 10.8457L24.9469 10.7063L21.7145 12.5246L21.793 12.6641ZM25.0254 10.8457L25.1781 10.798C25.1121 10.5865 25.0673 10.3737 25.0672 10.1523L24.9072 10.1523L24.7472 10.1524C24.7473 10.417 24.8009 10.6637 24.8727 10.8934L25.0254 10.8457ZM24.9072 10.1523H25.0672C25.0672 8.92521 26.0899 7.91992 27.3535 7.91977L27.3535 7.75977L27.3535 7.59977C25.9199 7.59994 24.7472 8.7418 24.7472 10.1523H24.9072ZM27.3535 7.75977V7.91977C28.6173 7.91977 29.6398 8.92509 29.6398 10.1523H29.7998H29.9598C29.9598 8.74171 28.7873 7.59977 27.3535 7.59977V7.75977ZM29.7998 10.1523L29.6398 10.1523C29.6396 11.3794 28.6172 12.3839 27.3535 12.3839V12.5439V12.7039C28.7871 12.7039 29.9596 11.5629 29.9598 10.1524L29.7998 10.1523ZM27.3535 12.5439L27.3535 12.3839C26.6894 12.3839 26.0939 12.1004 25.6752 11.655L25.5586 11.7646L25.442 11.8743C25.9178 12.3802 26.5961 12.7038 27.3535 12.7039L27.3535 12.5439ZM25.5586 11.7646L25.4801 11.6252L22.2448 13.4465L22.3232 13.5859L22.4017 13.7254L25.6371 11.9041L25.5586 11.7646ZM22.3232 13.5859L22.1797 13.6567C22.6589 14.6287 22.9367 15.7121 22.9367 16.8594H23.0967H23.2567C23.2567 15.6596 22.966 14.5281 22.4668 13.5152L22.3232 13.5859ZM23.0967 16.8594L22.9367 16.8594C22.9366 18.0068 22.6602 19.0901 22.1798 20.0619L22.3232 20.1328L22.4667 20.2037C22.9674 19.1906 23.2566 18.059 23.2567 16.8594L23.0967 16.8594ZM22.3232 20.1328L22.2448 20.2722L25.4801 22.0935L25.5586 21.9541L25.6371 21.8147L22.4017 19.9934L22.3232 20.1328ZM25.5586 21.9541L25.6752 22.0637C26.0941 21.6182 26.6882 21.3339 27.3535 21.3338L27.3535 21.1738L27.3535 21.0138C26.5946 21.0139 25.9177 21.3386 25.442 21.8445L25.5586 21.9541ZM27.3535 21.1738V21.3338C28.6173 21.3338 29.6398 22.3392 29.6398 23.5664H29.7998H29.9598C29.9598 22.1558 28.7873 21.0138 27.3535 21.0138V21.1738ZM29.7998 23.5664L29.6398 23.5664C29.6397 24.7935 28.6173 25.798 27.3535 25.798V25.958V26.118C28.7872 26.118 29.9597 24.977 29.9598 23.5664L29.7998 23.5664ZM27.3535 25.958L27.3535 25.798C26.0899 25.7979 25.0673 24.7934 25.0672 23.5664L24.9072 23.5664L24.7472 23.5664C24.7473 24.977 25.92 26.1178 27.3535 26.118L27.3535 25.958ZM24.9072 23.5664H25.0672C25.0672 23.3448 25.1121 23.1313 25.1781 22.9198L25.0254 22.8721L24.8727 22.8244C24.8009 23.0543 24.7472 23.3016 24.7472 23.5664H24.9072ZM25.0254 22.8721L25.1038 22.7326L21.8714 20.9143L21.793 21.0537L21.7145 21.1932L24.9469 23.0115L25.0254 22.8721ZM21.793 21.0537L21.661 20.9633C20.3963 22.8094 18.302 24.0643 15.904 24.23L15.915 24.3896L15.9261 24.5493C18.423 24.3767 20.6059 23.0698 21.925 21.1441L21.793 21.0537ZM15.915 24.3896H15.755V27.9971H15.915H16.075V24.3896H15.915ZM15.915 27.9971L15.8803 28.1533C16.8995 28.3798 17.6593 29.269 17.6593 30.3262L17.8193 30.3262L17.9793 30.3262C17.9793 29.1102 17.1064 28.098 15.9498 27.8409L15.915 27.9971ZM17.8193 30.3262H17.6593C17.6593 31.5534 16.6368 32.5588 15.373 32.5588V32.7188V32.8787C16.8068 32.8787 17.9793 31.7368 17.9793 30.3262H17.8193ZM15.373 32.7188L15.373 32.5588C14.1093 32.5587 13.0868 31.5534 13.0868 30.3262H12.9268H12.7668C12.7668 31.7368 13.9393 32.8787 15.373 32.8787L15.373 32.7188ZM12.9268 30.3262L13.0868 30.3262C13.0868 29.2679 13.848 28.3789 14.8687 28.1523L14.834 27.9961L14.7993 27.8399C13.6414 28.097 12.7668 29.1087 12.7668 30.3262L12.9268 30.3262ZM14.834 27.9961H14.994V24.3896H14.834H14.674V27.9961H14.834ZM14.834 24.3896L14.8447 24.23C12.4532 24.0695 10.3623 22.8249 9.09354 20.9891L8.96191 21.0801L8.83029 21.171C10.1537 23.0859 12.333 24.3821 14.8233 24.5493L14.834 24.3896ZM8.96191 21.0801L8.8834 20.9407L5.69786 22.7346L5.77637 22.874L5.85488 23.0134L9.04043 21.2195L8.96191 21.0801ZM5.77637 22.874L5.62337 22.9209C5.68824 23.1328 5.73258 23.3448 5.73258 23.5664H5.89258H6.05258C6.05258 23.3019 5.99956 23.0565 5.92936 22.8272L5.77637 22.874ZM5.89258 23.5664L5.73258 23.5664C5.73253 24.7935 4.71005 25.7979 3.44628 25.798L3.44629 25.958L3.4463 26.118C4.87989 26.1179 6.05253 24.977 6.05258 23.5664L5.89258 23.5664ZM3.44629 25.958V25.798C2.18248 25.798 1.16004 24.7935 1.16 23.5664L1 23.5664L0.84 23.5664C0.84005 24.9771 2.01263 26.118 3.44629 26.118V25.958ZM1 23.5664H1.16C1.16 22.3392 2.18253 21.3338 3.44629 21.3338V21.1738V21.0138C2.01252 21.0138 0.84 22.1558 0.84 23.5664H1ZM3.44629 21.1738L3.44628 21.3338C4.11034 21.3339 4.7057 21.6182 5.12465 22.0637L5.24121 21.9541L5.35777 21.8445C4.88207 21.3386 4.20391 21.0139 3.4463 21.0138L3.44629 21.1738ZM5.24121 21.9541L5.31972 22.0935L8.50527 20.2996L8.42676 20.1602L8.34825 20.0207L5.1627 21.8147L5.24121 21.9541ZM8.42676 20.1602L8.56984 20.0885C8.08031 19.1104 7.79872 18.017 7.79867 16.8594L7.63867 16.8594L7.47867 16.8594C7.47872 18.0697 7.77326 19.2119 8.28368 20.2318L8.42676 20.1602ZM7.63867 16.8594H7.79867C7.79867 15.7017 8.08154 14.6075 8.56992 13.6291L8.42676 13.5576L8.2836 13.4862C7.77459 14.506 7.47867 15.6488 7.47867 16.8594H7.63867ZM8.42676 13.5576L8.50524 13.4182L5.31969 11.6252L5.24121 11.7646L5.16273 11.9041L8.34828 13.697L8.42676 13.5576ZM5.24121 11.7646L5.12448 11.6552C4.70713 12.1004 4.11191 12.3839 3.44628 12.3839L3.44629 12.5439L3.4463 12.7039C4.205 12.7039 4.88334 12.3803 5.35794 11.8741L5.24121 11.7646ZM3.44629 12.5439V12.3839C2.1826 12.3839 1.16019 11.3794 1.16 10.1523L1 10.1523L0.84 10.1524C0.840219 11.5629 2.01271 12.7039 3.44629 12.7039V12.5439ZM1 10.1523H1.16C1.16 8.92509 2.18253 7.91977 3.44629 7.91977V7.75977V7.59977C2.01252 7.59977 0.84 8.74171 0.84 10.1523H1ZM3.44629 7.75977L3.44628 7.91977C4.70999 7.91982 5.73258 8.92513 5.73258 10.1523H5.89258H6.05258C6.05258 8.74175 4.88 7.59983 3.4463 7.59977L3.44629 7.75977ZM5.89258 10.1523L5.73258 10.1523C5.73253 10.3731 5.68938 10.5865 5.62364 10.797L5.77637 10.8447L5.92909 10.8924C6.00114 10.6617 6.05253 10.415 6.05258 10.1524L5.89258 10.1523ZM5.77637 10.8447L5.69789 10.9842L8.88344 12.7771L8.96191 12.6377L9.04039 12.4983L5.85485 10.7053L5.77637 10.8447ZM8.96191 12.6377L9.0935 12.7287C10.3622 10.8944 12.4534 9.65059 14.8448 9.48874L14.834 9.3291L14.8232 9.16947C12.3333 9.33799 10.1537 10.6333 8.83032 12.5467L8.96191 12.6377ZM14.834 9.3291H14.994V5.72168H14.834H14.674V9.3291H14.834ZM14.834 5.72168L14.8687 5.56548C13.848 5.33888 13.0868 4.44989 13.0868 3.3916H12.9268H12.7668C12.7668 4.60912 13.6414 5.6208 14.7993 5.87788L14.834 5.72168ZM12.9268 3.3916L13.0868 3.39163C13.087 2.16464 14.1094 1.16001 15.373 1.16L15.373 1L15.373 0.84C13.9395 0.840011 12.767 1.98114 12.7668 3.39157L12.9268 3.3916ZM15.3721 28.9922V28.8322C14.5359 28.8322 13.8481 29.4984 13.8478 30.3261L14.0078 30.3262L14.1678 30.3262C14.168 29.682 14.7057 29.1522 15.3721 29.1522V28.9922ZM14.0078 30.3262H13.8478C13.8478 31.154 14.5353 31.8211 15.373 31.8211V31.6611V31.5011C14.7052 31.5011 14.1678 30.9706 14.1678 30.3262H14.0078ZM15.373 31.6611L15.3731 31.8211C16.2107 31.8211 16.8983 31.154 16.8983 30.3262H16.7383H16.5783C16.5783 30.9705 16.0408 31.5011 15.373 31.5011L15.373 31.6611ZM16.7383 30.3262V30.4862H16.7393V30.3262V30.1662H16.7383V30.3262ZM16.7393 30.3262L16.8993 30.3261C16.899 29.4996 16.2132 28.8351 15.3775 28.8322L15.377 28.9922L15.3764 29.1522C16.0433 29.1545 16.5791 29.6834 16.5793 30.3262L16.7393 30.3262ZM15.377 28.9922V28.8322H15.3721V28.9922V29.1522H15.377V28.9922ZM3.44629 22.2314V22.0714C2.6086 22.0714 1.92121 22.7387 1.92105 23.5664L2.08105 23.5664L2.24105 23.5664C2.24118 22.9221 2.77859 22.3914 3.44629 22.3914V22.2314ZM2.08105 23.5664H1.92105C1.92105 24.3943 2.60855 25.0614 3.44629 25.0614V24.9014V24.7414C2.77847 24.7414 2.24105 24.2108 2.24105 23.5664H2.08105ZM3.44629 24.9014L3.4463 25.0614C4.28396 25.0613 4.97152 24.3943 4.97152 23.5664H4.81152H4.65152C4.65152 24.2108 4.11406 24.7413 3.44628 24.7414L3.44629 24.9014ZM4.81152 23.5664L4.97152 23.5664C4.97137 22.7387 4.28391 22.0715 3.4463 22.0714L3.44629 22.2314L3.44628 22.3914C4.11395 22.3915 4.6514 22.9221 4.65152 23.5664L4.81152 23.5664ZM27.3535 22.2314L27.3535 22.0714C26.5159 22.0717 25.8293 22.7388 25.8293 23.5664H25.9893H26.1493C26.1493 22.9221 26.686 22.3917 27.3536 22.3914L27.3535 22.2314ZM25.9893 23.5664L25.8293 23.5664C25.8293 24.394 26.5159 25.0611 27.3535 25.0614L27.3535 24.9014L27.3536 24.7414C26.6861 24.7412 26.1493 24.2107 26.1493 23.5664L25.9893 23.5664ZM27.3535 24.9014V25.0614C28.1912 25.0614 28.8787 24.3942 28.8787 23.5664L28.7188 23.5664L28.5588 23.5664C28.5587 24.2108 28.0213 24.7414 27.3535 24.7414V24.9014ZM28.7188 23.5664H28.8787C28.8787 22.7385 28.1913 22.0714 27.3535 22.0714V22.2314V22.3914C28.0213 22.3914 28.5588 22.922 28.5588 23.5664H28.7188ZM15.3691 10.3604V10.2004C11.6191 10.2004 8.56285 13.1836 8.56266 16.8594L8.72266 16.8594L8.88266 16.8594C8.88284 13.3671 11.789 10.5204 15.3691 10.5204V10.3604ZM8.72266 16.8594H8.56266C8.56266 20.5353 11.6189 23.5194 15.3691 23.5194V23.3594V23.1994C11.7889 23.1994 8.88266 20.3519 8.88266 16.8594H8.72266ZM15.3691 23.3594L15.3691 23.5194C19.1193 23.5193 22.1756 20.5352 22.1756 16.8594H22.0156H21.8556C21.8556 20.3518 18.9493 23.1993 15.3691 23.1994L15.3691 23.3594ZM22.0156 16.8594L22.1756 16.8594C22.1754 13.1837 19.1192 10.2005 15.3691 10.2004L15.3691 10.3604L15.3691 10.5204C18.9493 10.5205 21.8554 13.3671 21.8556 16.8594L22.0156 16.8594ZM16.2412 12.7705V12.9305C17.0616 12.9305 17.7218 13.5825 17.7218 14.375H17.8818H18.0418C18.0418 13.3992 17.2318 12.6105 16.2412 12.6105V12.7705ZM17.8818 14.375H17.7218V15.7979H17.8818H18.0418V14.375H17.8818ZM17.8818 15.7979L17.834 15.9505C18.2696 16.0871 18.5821 16.4812 18.5822 16.9424L18.7422 16.9424L18.9022 16.9423C18.902 16.3308 18.4885 15.8204 17.9297 15.6452L17.8818 15.7979ZM18.7422 16.9424H18.5822V19.5908H18.7422H18.9022V16.9424H18.7422ZM18.7422 19.5908H18.5822C18.5822 20.165 18.1029 20.6387 17.5068 20.6388L17.5068 20.7988L17.5069 20.9588C18.2728 20.9587 18.9022 20.3486 18.9022 19.5908H18.7422ZM17.5068 20.7988V20.6388H13.2275V20.7988V20.9588H17.5068V20.7988ZM13.2275 20.7988L13.2276 20.6388C12.6315 20.6387 12.1522 20.1651 12.1522 19.5908H11.9922H11.8322C11.8322 20.3486 12.4616 20.9587 13.2275 20.9588L13.2275 20.7988ZM11.9922 19.5908H12.1522V16.9424H11.9922H11.8322V19.5908H11.9922ZM11.9922 16.9424L12.1522 16.9424C12.1523 16.4812 12.4647 16.0871 12.9004 15.9505L12.8525 15.7979L12.8047 15.6452C12.2459 15.8204 11.8324 16.3308 11.8322 16.9423L11.9922 16.9424ZM12.8525 15.7979H13.0125V14.375H12.8525H12.6925V15.7979H12.8525ZM12.8525 14.375H13.0125C13.0125 13.5813 13.6739 12.9305 14.4932 12.9305V12.7705V12.6105C13.5041 12.6105 12.6925 13.3977 12.6925 14.375H12.8525ZM14.4932 12.7705V12.9305H16.2412V12.7705V12.6105H14.4932V12.7705ZM13.2305 16.792L13.2301 16.632C13.0599 16.6324 12.9176 16.7682 12.9171 16.942L13.0771 16.9424L13.2371 16.9428C13.2371 16.9461 13.2355 16.949 13.2342 16.9503C13.2335 16.9509 13.2329 16.9514 13.2322 16.9516C13.2319 16.9518 13.2315 16.9519 13.2312 16.9519C13.231 16.952 13.2308 16.952 13.2309 16.952L13.2305 16.792ZM13.0771 16.9424H12.9171V19.5908H13.0771H13.2371V16.9424H13.0771ZM13.0771 19.5908H12.9171C12.9171 19.7641 13.0588 19.9018 13.2301 19.9022L13.2305 19.7422L13.2309 19.5822C13.2322 19.5822 13.2371 19.5838 13.2371 19.5908H13.0771ZM13.2305 19.7422V19.9022H17.5068V19.7422V19.5822H13.2305V19.7422ZM17.5068 19.7422L17.5069 19.9022C17.6776 19.9022 17.8211 19.7652 17.8211 19.5908H17.6611H17.5011C17.5011 19.5871 17.5029 19.5845 17.5038 19.5836C17.5047 19.5827 17.506 19.5822 17.5068 19.5822L17.5068 19.7422ZM17.6611 19.5908V19.7508H17.6621V19.5908V19.4308H17.6611V19.5908ZM17.6621 19.5908H17.8221V16.9424H17.6621H17.5021V19.5908H17.6621ZM17.6621 16.9424L17.8221 16.942C17.8217 16.7672 17.6775 16.632 17.5078 16.632V16.792V16.952C17.5078 16.952 17.5074 16.952 17.5067 16.9517C17.5062 16.9515 17.5056 16.9511 17.5051 16.9506C17.5039 16.9495 17.5021 16.9466 17.5021 16.9428L17.6621 16.9424ZM17.5078 16.792V16.632H13.2305V16.792V16.952H17.5078V16.792ZM15.3682 17.5361L15.3681 17.6961C15.5817 17.6962 15.7482 17.8641 15.7482 18.0645L15.9082 18.0645L16.0682 18.0644C16.0682 17.6808 15.7518 17.3762 15.3682 17.3761L15.3682 17.5361ZM15.9082 18.0645H15.7482V18.4609H15.9082H16.0682V18.0645H15.9082ZM15.9082 18.4609H15.7482C15.7482 18.6613 15.5817 18.8292 15.3681 18.8293L15.3682 18.9893L15.3682 19.1493C15.7518 19.1492 16.0682 18.8446 16.0682 18.4609H15.9082ZM15.3682 18.9893V18.8293C15.1542 18.8293 14.9871 18.661 14.9871 18.4609H14.8271H14.6671C14.6671 18.845 14.9848 19.1493 15.3682 19.1493V18.9893ZM14.8271 18.4609H14.9871V18.0645H14.8271H14.6671V18.4609H14.8271ZM14.8271 18.0645L14.9871 18.0645C14.9872 17.8644 15.1542 17.6961 15.3682 17.6961V17.5361V17.3761C14.9848 17.3761 14.6672 17.6804 14.6671 18.0644L14.8271 18.0645ZM14.4961 13.8281V13.6681C14.1031 13.6681 13.7765 13.9818 13.7765 14.375H13.9365H14.0965C14.0965 14.1655 14.2728 13.9881 14.4961 13.9881V13.8281ZM13.9365 14.375H13.7765V15.7344H13.9365H14.0965V14.375H13.9365ZM13.9365 15.7344V15.8944H16.8027V15.7344V15.5744H13.9365V15.7344ZM16.8027 15.7344H16.9627V14.375H16.8027H16.6427V15.7344H16.8027ZM16.8027 14.375H16.9627C16.9627 13.9818 16.6361 13.6681 16.2432 13.6681V13.8281V13.9881C16.4665 13.9881 16.6427 14.1655 16.6427 14.375H16.8027ZM16.2432 13.8281V13.6681H14.4961V13.8281V13.9881H16.2432V13.8281ZM3.44629 8.81738V8.65738C2.60855 8.65738 1.92105 9.32447 1.92105 10.1523H2.08105H2.24105C2.24105 9.50794 2.77847 8.97738 3.44629 8.97738V8.81738ZM2.08105 10.1523L1.92105 10.1524C1.92112 10.9802 2.60857 11.6473 3.44629 11.6473V11.4873V11.3273C2.77852 11.3273 2.2411 10.7967 2.24105 10.1523L2.08105 10.1523ZM3.44629 11.4873L3.4463 11.6473C4.28394 11.6472 4.97146 10.9801 4.97152 10.1524L4.81152 10.1523L4.65152 10.1523C4.65148 10.7967 4.11402 11.3272 3.44628 11.3273L3.44629 11.4873ZM4.81152 10.1523H4.97152C4.97152 9.3245 4.28396 8.65745 3.4463 8.65738L3.44629 8.81738L3.44628 8.97738C4.11406 8.97744 4.65152 9.50799 4.65152 10.1523H4.81152ZM27.3535 8.81738L27.3535 8.65738C26.5159 8.65765 25.8293 9.32472 25.8293 10.1523H25.9893H26.1493C26.1493 9.50799 26.686 8.97759 27.3536 8.97738L27.3535 8.81738ZM25.9893 10.1523L25.8293 10.1524C25.8293 10.9799 26.5159 11.647 27.3535 11.6473L27.3535 11.4873L27.3536 11.3273C26.6861 11.3271 26.1493 10.7967 26.1493 10.1523L25.9893 10.1523ZM27.3535 11.4873V11.6473C28.1912 11.6473 28.8787 10.9802 28.8787 10.1524L28.7188 10.1523L28.5588 10.1523C28.5587 10.7967 28.0213 11.3273 27.3535 11.3273V11.4873ZM28.7188 10.1523H28.8787C28.8787 9.32447 28.1913 8.65738 27.3535 8.65738V8.81738V8.97738C28.0213 8.97738 28.5588 9.50794 28.5588 10.1523H28.7188ZM15.3721 2.05762V1.89762C14.5343 1.89762 13.8468 2.56471 13.8468 3.39258H14.0068H14.1668C14.1668 2.74817 14.7043 2.21762 15.3721 2.21762V2.05762ZM14.0068 3.39258V3.23258H14.0049V3.39258V3.55258H14.0068V3.39258ZM14.0049 3.39258L13.8449 3.39258C13.8449 4.2192 14.5328 4.88607 15.3689 4.88754L15.3691 4.72754L15.3694 4.56754C14.7026 4.56637 14.1649 4.03554 14.1649 3.39257L14.0049 3.39258ZM15.3691 4.72754V4.88754H15.374V4.72754V4.56754H15.3691V4.72754ZM15.374 4.72754L15.3743 4.88754C16.2106 4.88607 16.8963 4.22033 16.8963 3.39258L16.7363 3.39258L16.5763 3.39257C16.5763 4.03705 16.0403 4.56637 15.3737 4.56754L15.374 4.72754ZM16.7363 3.39258H16.8963C16.8963 2.56495 16.2097 1.89788 15.3721 1.89762L15.3721 2.05762L15.372 2.21762C16.0396 2.21783 16.5763 2.74822 16.5763 3.39258H16.7363Z" fill="url(#paint1_linear_1930_12062)"/>
</g>
</g>
<defs>
<linearGradient id="paint0_linear_1930_12062" x1="1" y1="1" x2="40.0258" y2="5.89459" gradientUnits="userSpaceOnUse">
<stop stop-color="#9342CE"/>
<stop offset="0.514675" stop-color="#6284B6"/>
<stop offset="1" stop-color="#35C29F"/>
</linearGradient>
<linearGradient id="paint1_linear_1930_12062" x1="1" y1="1" x2="40.0258" y2="5.89459" gradientUnits="userSpaceOnUse">
<stop stop-color="#9342CE"/>
<stop offset="0.514675" stop-color="#6284B6"/>
<stop offset="1" stop-color="#35C29F"/>
</linearGradient>
</defs>
</svg>
