<svg width="30" height="33" viewBox="0 0 30 33" fill="none" xmlns="http://www.w3.org/2000/svg">
<g id="Component 964375">
<g id="Union">
<path d="M15.3997 8.97266C18.7578 8.97273 21.2903 10.3552 21.2903 12.1875V21.5254C21.29 23.3575 18.7576 24.7382 15.3997 24.7383C12.0417 24.7383 9.50843 23.3575 9.50812 21.5254V12.1875C9.50812 10.3552 12.0417 8.97266 15.3997 8.97266ZM20.1819 18.7734C19.1307 19.5688 17.4171 20.0693 15.3997 20.0693C13.3821 20.0693 11.668 19.569 10.6165 18.7734V21.5234C10.6165 22.3542 12.4371 23.5166 15.3997 23.5166C18.3621 23.5165 20.1819 22.3555 20.1819 21.5234V18.7734ZM18.3206 20.4668C18.7421 20.4668 19.0853 20.844 19.0853 21.3096C19.0851 21.775 18.7432 22.1533 18.3206 22.1533C17.8981 22.1532 17.5552 21.7749 17.555 21.3096C17.555 20.8454 17.898 20.4669 18.3206 20.4668ZM20.1819 14.1045C19.1307 14.8999 17.4172 15.4003 15.3997 15.4004C13.3821 15.4004 11.668 14.9 10.6165 14.1045V16.8545C10.6165 17.6865 12.4372 18.8486 15.3997 18.8486C18.3621 18.8486 20.1819 17.6865 20.1819 16.8545V14.1045ZM18.3206 15.7988C18.7421 15.7988 19.0852 16.1771 19.0853 16.6426C19.0853 17.1068 18.7433 17.4854 18.3206 17.4854C17.898 17.4852 17.555 17.1081 17.555 16.6426C17.555 16.1771 17.898 15.7989 18.3206 15.7988ZM15.3997 10.1934C12.4372 10.1934 10.6165 11.3555 10.6165 12.1875C10.6168 13.0182 12.4375 14.1797 15.3997 14.1797C18.3618 14.1796 20.1816 13.0195 20.1819 12.1875C20.1819 11.3555 18.3622 10.1934 15.3997 10.1934Z" fill="#EAEAEA"/>
<path d="M15.3997 8.97266C18.7578 8.97273 21.2903 10.3552 21.2903 12.1875V21.5254C21.29 23.3575 18.7576 24.7382 15.3997 24.7383C12.0417 24.7383 9.50843 23.3575 9.50812 21.5254V12.1875C9.50812 10.3552 12.0417 8.97266 15.3997 8.97266ZM20.1819 18.7734C19.1307 19.5688 17.4171 20.0693 15.3997 20.0693C13.3821 20.0693 11.668 19.569 10.6165 18.7734V21.5234C10.6165 22.3542 12.4371 23.5166 15.3997 23.5166C18.3621 23.5165 20.1819 22.3555 20.1819 21.5234V18.7734ZM18.3206 20.4668C18.7421 20.4668 19.0853 20.844 19.0853 21.3096C19.0851 21.775 18.7432 22.1533 18.3206 22.1533C17.8981 22.1532 17.5552 21.7749 17.555 21.3096C17.555 20.8454 17.898 20.4669 18.3206 20.4668ZM20.1819 14.1045C19.1307 14.8999 17.4172 15.4003 15.3997 15.4004C13.3821 15.4004 11.668 14.9 10.6165 14.1045V16.8545C10.6165 17.6865 12.4372 18.8486 15.3997 18.8486C18.3621 18.8486 20.1819 17.6865 20.1819 16.8545V14.1045ZM18.3206 15.7988C18.7421 15.7988 19.0852 16.1771 19.0853 16.6426C19.0853 17.1068 18.7433 17.4854 18.3206 17.4854C17.898 17.4852 17.555 17.1081 17.555 16.6426C17.555 16.1771 17.898 15.7989 18.3206 15.7988ZM15.3997 10.1934C12.4372 10.1934 10.6165 11.3555 10.6165 12.1875C10.6168 13.0182 12.4375 14.1797 15.3997 14.1797C18.3618 14.1796 20.1816 13.0195 20.1819 12.1875C20.1819 11.3555 18.3622 10.1934 15.3997 10.1934Z" fill="url(#paint0_linear_1930_11980)"/>
<path d="M15.3997 8.97266L15.3997 8.81266H15.3997V8.97266ZM21.2903 21.5254L21.4503 21.5254V21.5254H21.2903ZM15.3997 24.7383V24.8983H15.3997L15.3997 24.7383ZM9.50812 21.5254H9.34812V21.5254L9.50812 21.5254ZM20.1819 18.7734H20.3419V18.4517L20.0854 18.6458L20.1819 18.7734ZM15.3997 20.0693V20.2293H15.3997L15.3997 20.0693ZM10.6165 18.7734L10.7131 18.6458L10.4565 18.4518V18.7734H10.6165ZM15.3997 23.5166V23.6766H15.3997L15.3997 23.5166ZM18.3206 20.4668V20.3068H18.3206L18.3206 20.4668ZM19.0853 21.3096L19.2453 21.3096V21.3096H19.0853ZM18.3206 22.1533L18.3206 22.3133H18.3206V22.1533ZM17.555 21.3096H17.395V21.3096L17.555 21.3096ZM20.1819 14.1045H20.3419V13.7828L20.0854 13.9769L20.1819 14.1045ZM15.3997 15.4004V15.5604H15.3997L15.3997 15.4004ZM10.6165 14.1045L10.7131 13.9769L10.4565 13.7828V14.1045H10.6165ZM15.3997 18.8486V19.0086H15.3997L15.3997 18.8486ZM18.3206 15.7988V15.6388H18.3206L18.3206 15.7988ZM19.0853 16.6426H19.2453V16.6426L19.0853 16.6426ZM18.3206 17.4854L18.3206 17.6454H18.3206V17.4854ZM17.555 16.6426L17.395 16.6426V16.6426H17.555ZM15.3997 10.1934L15.3997 10.0334H15.3997V10.1934ZM10.6165 12.1875H10.4565V12.1876L10.6165 12.1875ZM15.3997 14.1797V14.3397H15.3997L15.3997 14.1797ZM20.1819 12.1875L20.3419 12.1876V12.1875H20.1819ZM15.3997 8.97266L15.3997 9.13266C17.0591 9.13269 18.5038 9.47463 19.5277 10.0334C20.5545 10.5939 21.1303 11.354 21.1303 12.1875H21.2903H21.4503C21.4503 11.1887 20.7599 10.3414 19.681 9.75256C18.599 9.16205 17.0985 8.81269 15.3997 8.81266L15.3997 8.97266ZM21.2903 12.1875H21.1303V21.5254H21.2903H21.4503V12.1875H21.2903ZM21.2903 21.5254L21.1303 21.5254C21.1302 22.3588 20.5544 23.1184 19.5275 23.6784C18.5037 24.2367 17.059 24.5782 15.3997 24.5783L15.3997 24.7383L15.3997 24.8983C17.0983 24.8982 18.5988 24.5493 19.6807 23.9593C20.7596 23.3709 21.4502 22.5241 21.4503 21.5254L21.2903 21.5254ZM15.3997 24.7383V24.5783C13.7404 24.5783 12.2955 24.2368 11.2714 23.6784C10.2443 23.1184 9.66826 22.3588 9.66812 21.5254L9.50812 21.5254L9.34812 21.5254C9.34829 22.5242 10.0391 23.371 11.1182 23.9594C12.2003 24.5494 13.7011 24.8983 15.3997 24.8983V24.7383ZM9.50812 21.5254H9.66812V12.1875H9.50812H9.34812V21.5254H9.50812ZM9.50812 12.1875H9.66812C9.66812 11.354 10.2442 10.5939 11.2713 10.0334C12.2954 9.47458 13.7404 9.13266 15.3997 9.13266V8.97266V8.81266C13.701 8.81266 12.2002 9.162 11.118 9.75251C10.0388 10.3414 9.34812 11.1887 9.34812 12.1875H9.50812ZM20.1819 18.7734L20.0854 18.6458C19.0709 19.4135 17.3954 19.9093 15.3997 19.9093L15.3997 20.0693L15.3997 20.2293C17.4388 20.2293 19.1906 19.7242 20.2785 18.901L20.1819 18.7734ZM15.3997 20.0693V19.9093C13.4038 19.9093 11.7278 19.4136 10.7131 18.6458L10.6165 18.7734L10.52 18.901C11.6082 19.7243 13.3604 20.2293 15.3997 20.2293V20.0693ZM10.6165 18.7734H10.4565V21.5234H10.6165H10.7765V18.7734H10.6165ZM10.6165 21.5234H10.4565C10.4565 21.7891 10.6004 22.0552 10.8319 22.2962C11.0657 22.5395 11.4034 22.7729 11.8282 22.9759C12.6786 23.3823 13.8987 23.6766 15.3997 23.6766V23.5166V23.3566C13.9382 23.3566 12.7666 23.0697 11.9661 22.6872C11.5655 22.4957 11.2628 22.2827 11.0626 22.0745C10.8602 21.8638 10.7765 21.6732 10.7765 21.5234H10.6165ZM15.3997 23.5166L15.3997 23.6766C16.9006 23.6766 18.1204 23.3826 18.9707 22.9764C19.3954 22.7735 19.7329 22.5401 19.9667 22.2967C20.1982 22.0556 20.3419 21.7893 20.3419 21.5234H20.1819H20.0219C20.0219 21.6736 19.9382 21.8644 19.7359 22.075C19.5359 22.2833 19.2333 22.4963 18.8327 22.6876C18.0325 23.07 16.8612 23.3566 15.3997 23.3566L15.3997 23.5166ZM20.1819 21.5234H20.3419V18.7734H20.1819H20.0219V21.5234H20.1819ZM18.3206 20.4668V20.6268C18.6396 20.6268 18.9253 20.9175 18.9253 21.3096H19.0853H19.2453C19.2453 20.7705 18.8447 20.3068 18.3206 20.3068V20.4668ZM19.0853 21.3096L18.9253 21.3095C18.9251 21.702 18.6403 21.9933 18.3206 21.9933V22.1533V22.3133C18.8462 22.3133 19.2451 21.848 19.2453 21.3096L19.0853 21.3096ZM18.3206 22.1533L18.3207 21.9933C18.0008 21.9932 17.7151 21.7016 17.715 21.3095L17.555 21.3096L17.395 21.3096C17.3952 21.8483 17.7954 22.3132 18.3206 22.3133L18.3206 22.1533ZM17.555 21.3096H17.715C17.715 20.9188 18.0006 20.6269 18.3207 20.6268L18.3206 20.4668L18.3206 20.3068C17.7954 20.3069 17.395 20.7719 17.395 21.3096H17.555ZM20.1819 14.1045L20.0854 13.9769C19.0709 14.7446 17.3954 15.2403 15.3997 15.2404L15.3997 15.4004L15.3997 15.5604C17.4389 15.5603 19.1906 15.0553 20.2785 14.2321L20.1819 14.1045ZM15.3997 15.4004V15.2404C13.4038 15.2404 11.7278 14.7446 10.7131 13.9769L10.6165 14.1045L10.52 14.2321C11.6082 15.0554 13.3604 15.5604 15.3997 15.5604V15.4004ZM10.6165 14.1045H10.4565V16.8545H10.6165H10.7765V14.1045H10.6165ZM10.6165 16.8545H10.4565C10.4565 17.1204 10.6003 17.3868 10.8319 17.6279C11.0657 17.8714 11.4034 18.1049 11.8282 18.3079C12.6787 18.7144 13.8987 19.0086 15.3997 19.0086V18.8486V18.6886C13.9382 18.6886 12.7667 18.4018 11.9662 18.0192C11.5655 17.8277 11.2628 17.6147 11.0627 17.4063C10.8603 17.1955 10.7765 17.0046 10.7765 16.8545H10.6165ZM15.3997 18.8486L15.3997 19.0086C16.9006 19.0086 18.1205 18.7144 18.9707 18.3079C19.3954 18.1049 19.733 17.8714 19.9667 17.6279C20.1982 17.3867 20.3419 17.1204 20.3419 16.8545H20.1819H20.0219C20.0219 17.0046 19.9382 17.1955 19.7359 17.4063C19.5358 17.6147 19.2333 17.8277 18.8327 18.0192C18.0324 18.4018 16.8612 18.6886 15.3997 18.6886L15.3997 18.8486ZM20.1819 16.8545H20.3419V14.1045H20.1819H20.0219V16.8545H20.1819ZM18.3206 15.7988V15.9588C18.6393 15.9588 18.9252 16.2503 18.9253 16.6426L19.0853 16.6426L19.2453 16.6426C19.2452 16.1038 18.8449 15.6388 18.3206 15.6388V15.7988ZM19.0853 16.6426H18.9253C18.9253 17.0337 18.6405 17.3254 18.3206 17.3254V17.4854V17.6454C18.8462 17.6454 19.2453 17.18 19.2453 16.6426H19.0853ZM18.3206 17.4854L18.3207 17.3254C18.0004 17.3253 17.715 17.0344 17.715 16.6426H17.555H17.395C17.395 17.1817 17.7956 17.6452 18.3206 17.6454L18.3206 17.4854ZM17.555 16.6426L17.715 16.6426C17.715 16.2505 18.0007 15.9589 18.3207 15.9588L18.3206 15.7988L18.3206 15.6388C17.7954 15.639 17.395 16.1037 17.395 16.6426L17.555 16.6426ZM15.3997 10.1934V10.0334C13.8987 10.0334 12.6787 10.3276 11.8282 10.7341C11.4034 10.9371 11.0657 11.1706 10.8319 11.4141C10.6003 11.6552 10.4565 11.9216 10.4565 12.1875H10.6165H10.7765C10.7765 12.0374 10.8603 11.8465 11.0627 11.6357C11.2628 11.4273 11.5655 11.2143 11.9662 11.0228C12.7667 10.6402 13.9382 10.3534 15.3997 10.3534V10.1934ZM10.6165 12.1875L10.4565 12.1876C10.4566 12.4532 10.6005 12.7193 10.8321 12.9601C11.066 13.2034 11.4036 13.4366 11.8284 13.6395C12.6789 14.0456 13.8989 14.3397 15.3997 14.3397V14.1797V14.0197C13.9383 14.0197 12.7669 13.733 11.9663 13.3507C11.5657 13.1594 11.263 12.9465 11.0628 12.7383C10.8604 12.5278 10.7766 12.3372 10.7765 12.1874L10.6165 12.1875ZM15.3997 14.1797L15.3997 14.3397C16.9005 14.3397 18.1202 14.0459 18.9704 13.64C19.3951 13.4372 19.7327 13.204 19.9665 12.9606C20.1981 12.7197 20.3418 12.4534 20.3419 12.1876L20.1819 12.1875L20.0219 12.1874C20.0219 12.3376 19.9381 12.5284 19.7358 12.7389C19.5357 12.9471 19.2331 13.1599 18.8326 13.3512C18.0323 13.7333 16.8611 14.0197 15.3997 14.0197L15.3997 14.1797ZM20.1819 12.1875H20.3419C20.3419 11.9216 20.1982 11.6553 19.9667 11.4141C19.733 11.1706 19.3955 10.9371 18.9708 10.7341C18.1205 10.3276 16.9007 10.0334 15.3997 10.0334L15.3997 10.1934L15.3997 10.3534C16.8612 10.3534 18.0325 10.6402 18.8327 11.0228C19.2333 11.2143 19.5359 11.4273 19.7359 11.6357C19.9382 11.8465 20.0219 12.0374 20.0219 12.1875H20.1819Z" fill="#EAEAEA"/>
<path d="M15.3997 8.97266L15.3997 8.81266H15.3997V8.97266ZM21.2903 21.5254L21.4503 21.5254V21.5254H21.2903ZM15.3997 24.7383V24.8983H15.3997L15.3997 24.7383ZM9.50812 21.5254H9.34812V21.5254L9.50812 21.5254ZM20.1819 18.7734H20.3419V18.4517L20.0854 18.6458L20.1819 18.7734ZM15.3997 20.0693V20.2293H15.3997L15.3997 20.0693ZM10.6165 18.7734L10.7131 18.6458L10.4565 18.4518V18.7734H10.6165ZM15.3997 23.5166V23.6766H15.3997L15.3997 23.5166ZM18.3206 20.4668V20.3068H18.3206L18.3206 20.4668ZM19.0853 21.3096L19.2453 21.3096V21.3096H19.0853ZM18.3206 22.1533L18.3206 22.3133H18.3206V22.1533ZM17.555 21.3096H17.395V21.3096L17.555 21.3096ZM20.1819 14.1045H20.3419V13.7828L20.0854 13.9769L20.1819 14.1045ZM15.3997 15.4004V15.5604H15.3997L15.3997 15.4004ZM10.6165 14.1045L10.7131 13.9769L10.4565 13.7828V14.1045H10.6165ZM15.3997 18.8486V19.0086H15.3997L15.3997 18.8486ZM18.3206 15.7988V15.6388H18.3206L18.3206 15.7988ZM19.0853 16.6426H19.2453V16.6426L19.0853 16.6426ZM18.3206 17.4854L18.3206 17.6454H18.3206V17.4854ZM17.555 16.6426L17.395 16.6426V16.6426H17.555ZM15.3997 10.1934L15.3997 10.0334H15.3997V10.1934ZM10.6165 12.1875H10.4565V12.1876L10.6165 12.1875ZM15.3997 14.1797V14.3397H15.3997L15.3997 14.1797ZM20.1819 12.1875L20.3419 12.1876V12.1875H20.1819ZM15.3997 8.97266L15.3997 9.13266C17.0591 9.13269 18.5038 9.47463 19.5277 10.0334C20.5545 10.5939 21.1303 11.354 21.1303 12.1875H21.2903H21.4503C21.4503 11.1887 20.7599 10.3414 19.681 9.75256C18.599 9.16205 17.0985 8.81269 15.3997 8.81266L15.3997 8.97266ZM21.2903 12.1875H21.1303V21.5254H21.2903H21.4503V12.1875H21.2903ZM21.2903 21.5254L21.1303 21.5254C21.1302 22.3588 20.5544 23.1184 19.5275 23.6784C18.5037 24.2367 17.059 24.5782 15.3997 24.5783L15.3997 24.7383L15.3997 24.8983C17.0983 24.8982 18.5988 24.5493 19.6807 23.9593C20.7596 23.3709 21.4502 22.5241 21.4503 21.5254L21.2903 21.5254ZM15.3997 24.7383V24.5783C13.7404 24.5783 12.2955 24.2368 11.2714 23.6784C10.2443 23.1184 9.66826 22.3588 9.66812 21.5254L9.50812 21.5254L9.34812 21.5254C9.34829 22.5242 10.0391 23.371 11.1182 23.9594C12.2003 24.5494 13.7011 24.8983 15.3997 24.8983V24.7383ZM9.50812 21.5254H9.66812V12.1875H9.50812H9.34812V21.5254H9.50812ZM9.50812 12.1875H9.66812C9.66812 11.354 10.2442 10.5939 11.2713 10.0334C12.2954 9.47458 13.7404 9.13266 15.3997 9.13266V8.97266V8.81266C13.701 8.81266 12.2002 9.162 11.118 9.75251C10.0388 10.3414 9.34812 11.1887 9.34812 12.1875H9.50812ZM20.1819 18.7734L20.0854 18.6458C19.0709 19.4135 17.3954 19.9093 15.3997 19.9093L15.3997 20.0693L15.3997 20.2293C17.4388 20.2293 19.1906 19.7242 20.2785 18.901L20.1819 18.7734ZM15.3997 20.0693V19.9093C13.4038 19.9093 11.7278 19.4136 10.7131 18.6458L10.6165 18.7734L10.52 18.901C11.6082 19.7243 13.3604 20.2293 15.3997 20.2293V20.0693ZM10.6165 18.7734H10.4565V21.5234H10.6165H10.7765V18.7734H10.6165ZM10.6165 21.5234H10.4565C10.4565 21.7891 10.6004 22.0552 10.8319 22.2962C11.0657 22.5395 11.4034 22.7729 11.8282 22.9759C12.6786 23.3823 13.8987 23.6766 15.3997 23.6766V23.5166V23.3566C13.9382 23.3566 12.7666 23.0697 11.9661 22.6872C11.5655 22.4957 11.2628 22.2827 11.0626 22.0745C10.8602 21.8638 10.7765 21.6732 10.7765 21.5234H10.6165ZM15.3997 23.5166L15.3997 23.6766C16.9006 23.6766 18.1204 23.3826 18.9707 22.9764C19.3954 22.7735 19.7329 22.5401 19.9667 22.2967C20.1982 22.0556 20.3419 21.7893 20.3419 21.5234H20.1819H20.0219C20.0219 21.6736 19.9382 21.8644 19.7359 22.075C19.5359 22.2833 19.2333 22.4963 18.8327 22.6876C18.0325 23.07 16.8612 23.3566 15.3997 23.3566L15.3997 23.5166ZM20.1819 21.5234H20.3419V18.7734H20.1819H20.0219V21.5234H20.1819ZM18.3206 20.4668V20.6268C18.6396 20.6268 18.9253 20.9175 18.9253 21.3096H19.0853H19.2453C19.2453 20.7705 18.8447 20.3068 18.3206 20.3068V20.4668ZM19.0853 21.3096L18.9253 21.3095C18.9251 21.702 18.6403 21.9933 18.3206 21.9933V22.1533V22.3133C18.8462 22.3133 19.2451 21.848 19.2453 21.3096L19.0853 21.3096ZM18.3206 22.1533L18.3207 21.9933C18.0008 21.9932 17.7151 21.7016 17.715 21.3095L17.555 21.3096L17.395 21.3096C17.3952 21.8483 17.7954 22.3132 18.3206 22.3133L18.3206 22.1533ZM17.555 21.3096H17.715C17.715 20.9188 18.0006 20.6269 18.3207 20.6268L18.3206 20.4668L18.3206 20.3068C17.7954 20.3069 17.395 20.7719 17.395 21.3096H17.555ZM20.1819 14.1045L20.0854 13.9769C19.0709 14.7446 17.3954 15.2403 15.3997 15.2404L15.3997 15.4004L15.3997 15.5604C17.4389 15.5603 19.1906 15.0553 20.2785 14.2321L20.1819 14.1045ZM15.3997 15.4004V15.2404C13.4038 15.2404 11.7278 14.7446 10.7131 13.9769L10.6165 14.1045L10.52 14.2321C11.6082 15.0554 13.3604 15.5604 15.3997 15.5604V15.4004ZM10.6165 14.1045H10.4565V16.8545H10.6165H10.7765V14.1045H10.6165ZM10.6165 16.8545H10.4565C10.4565 17.1204 10.6003 17.3868 10.8319 17.6279C11.0657 17.8714 11.4034 18.1049 11.8282 18.3079C12.6787 18.7144 13.8987 19.0086 15.3997 19.0086V18.8486V18.6886C13.9382 18.6886 12.7667 18.4018 11.9662 18.0192C11.5655 17.8277 11.2628 17.6147 11.0627 17.4063C10.8603 17.1955 10.7765 17.0046 10.7765 16.8545H10.6165ZM15.3997 18.8486L15.3997 19.0086C16.9006 19.0086 18.1205 18.7144 18.9707 18.3079C19.3954 18.1049 19.733 17.8714 19.9667 17.6279C20.1982 17.3867 20.3419 17.1204 20.3419 16.8545H20.1819H20.0219C20.0219 17.0046 19.9382 17.1955 19.7359 17.4063C19.5358 17.6147 19.2333 17.8277 18.8327 18.0192C18.0324 18.4018 16.8612 18.6886 15.3997 18.6886L15.3997 18.8486ZM20.1819 16.8545H20.3419V14.1045H20.1819H20.0219V16.8545H20.1819ZM18.3206 15.7988V15.9588C18.6393 15.9588 18.9252 16.2503 18.9253 16.6426L19.0853 16.6426L19.2453 16.6426C19.2452 16.1038 18.8449 15.6388 18.3206 15.6388V15.7988ZM19.0853 16.6426H18.9253C18.9253 17.0337 18.6405 17.3254 18.3206 17.3254V17.4854V17.6454C18.8462 17.6454 19.2453 17.18 19.2453 16.6426H19.0853ZM18.3206 17.4854L18.3207 17.3254C18.0004 17.3253 17.715 17.0344 17.715 16.6426H17.555H17.395C17.395 17.1817 17.7956 17.6452 18.3206 17.6454L18.3206 17.4854ZM17.555 16.6426L17.715 16.6426C17.715 16.2505 18.0007 15.9589 18.3207 15.9588L18.3206 15.7988L18.3206 15.6388C17.7954 15.639 17.395 16.1037 17.395 16.6426L17.555 16.6426ZM15.3997 10.1934V10.0334C13.8987 10.0334 12.6787 10.3276 11.8282 10.7341C11.4034 10.9371 11.0657 11.1706 10.8319 11.4141C10.6003 11.6552 10.4565 11.9216 10.4565 12.1875H10.6165H10.7765C10.7765 12.0374 10.8603 11.8465 11.0627 11.6357C11.2628 11.4273 11.5655 11.2143 11.9662 11.0228C12.7667 10.6402 13.9382 10.3534 15.3997 10.3534V10.1934ZM10.6165 12.1875L10.4565 12.1876C10.4566 12.4532 10.6005 12.7193 10.8321 12.9601C11.066 13.2034 11.4036 13.4366 11.8284 13.6395C12.6789 14.0456 13.8989 14.3397 15.3997 14.3397V14.1797V14.0197C13.9383 14.0197 12.7669 13.733 11.9663 13.3507C11.5657 13.1594 11.263 12.9465 11.0628 12.7383C10.8604 12.5278 10.7766 12.3372 10.7765 12.1874L10.6165 12.1875ZM15.3997 14.1797L15.3997 14.3397C16.9005 14.3397 18.1202 14.0459 18.9704 13.64C19.3951 13.4372 19.7327 13.204 19.9665 12.9606C20.1981 12.7197 20.3418 12.4534 20.3419 12.1876L20.1819 12.1875L20.0219 12.1874C20.0219 12.3376 19.9381 12.5284 19.7358 12.7389C19.5357 12.9471 19.2331 13.1599 18.8326 13.3512C18.0323 13.7333 16.8611 14.0197 15.3997 14.0197L15.3997 14.1797ZM20.1819 12.1875H20.3419C20.3419 11.9216 20.1982 11.6553 19.9667 11.4141C19.733 11.1706 19.3955 10.9371 18.9708 10.7341C18.1205 10.3276 16.9007 10.0334 15.3997 10.0334L15.3997 10.1934L15.3997 10.3534C16.8612 10.3534 18.0325 10.6402 18.8327 11.0228C19.2333 11.2143 19.5359 11.4273 19.7359 11.6357C19.9382 11.8465 20.0219 12.0374 20.0219 12.1875H20.1819Z" fill="url(#paint1_linear_1930_11980)"/>
</g>
<g id="Vector">
<path d="M29.2435 17.4688C29.549 17.4688 29.7976 17.1963 29.7976 16.8585C29.7976 16.522 29.5502 16.2482 29.2435 16.2482H26.3294V12.1674H29.2435C29.549 12.1674 29.7976 11.8948 29.7976 11.5571C29.7976 11.2206 29.5502 10.9468 29.2435 10.9468H26.3294V8.25893C26.3294 6.36141 24.9286 4.81851 23.2057 4.81851H20.7652V1.61033C20.7652 1.27386 20.5178 1 20.2111 1C19.9056 1 19.6569 1.27257 19.6569 1.61033V4.81981H15.9518L15.953 1.61033C15.953 1.27386 15.7055 1 15.3988 1C15.0933 1 14.8447 1.27257 14.8447 1.61033V4.81981H11.1395V1.61033C11.1395 1.27386 10.892 1 10.5854 1C10.2799 1 10.0312 1.27257 10.0312 1.61033V4.81981H7.59079C5.86792 4.81981 4.46704 6.36261 4.46704 8.26023V10.9481H1.55415C1.24866 10.9481 1 11.2206 1 11.5584C1 11.8948 1.24748 12.1687 1.55415 12.1687H4.46822V16.2495L1.55415 16.2482C1.24866 16.2482 1 16.5207 1 16.8585C1 17.195 1.24748 17.4688 1.55415 17.4688H4.46822V21.5496H1.55415C1.24866 21.5496 1 21.8221 1 22.1599C1 22.4964 1.24748 22.7702 1.55415 22.7702H4.46822V25.4581C4.46822 27.3556 5.86901 28.8985 7.59197 28.8985H10.0324V32.108C10.0324 32.4444 10.2799 32.7183 10.5866 32.7183C10.892 32.7183 11.1407 32.4457 11.1407 32.108V28.8985H14.8458V32.108C14.8458 32.4444 15.0933 32.7183 15.4 32.7183C15.7055 32.7183 15.9542 32.4457 15.9542 32.108V28.8985H19.6593V32.108C19.6593 32.4444 19.9068 32.7183 20.2135 32.7183C20.5189 32.7183 20.7676 32.4457 20.7676 32.108V28.8985H23.208C24.9309 28.8985 26.3318 27.3557 26.3318 25.4581V22.7702H29.2459C29.5513 22.7702 29.8 22.4977 29.8 22.1599C29.8 21.8234 29.5525 21.5496 29.2459 21.5496H26.3318V17.4688H29.2459H29.2435ZM25.2222 25.4581C25.2222 26.6827 24.3187 27.6777 23.2068 27.6777H7.59085C6.47897 27.6777 5.57552 26.6826 5.57552 25.4581V8.25899C5.57552 7.0344 6.479 6.03937 7.59085 6.03937H23.2056C24.3175 6.03937 25.221 7.03443 25.221 8.25899V25.4567L25.2222 25.4581Z" fill="#EAEAEA"/>
<path d="M29.2435 17.4688C29.549 17.4688 29.7976 17.1963 29.7976 16.8585C29.7976 16.522 29.5502 16.2482 29.2435 16.2482H26.3294V12.1674H29.2435C29.549 12.1674 29.7976 11.8948 29.7976 11.5571C29.7976 11.2206 29.5502 10.9468 29.2435 10.9468H26.3294V8.25893C26.3294 6.36141 24.9286 4.81851 23.2057 4.81851H20.7652V1.61033C20.7652 1.27386 20.5178 1 20.2111 1C19.9056 1 19.6569 1.27257 19.6569 1.61033V4.81981H15.9518L15.953 1.61033C15.953 1.27386 15.7055 1 15.3988 1C15.0933 1 14.8447 1.27257 14.8447 1.61033V4.81981H11.1395V1.61033C11.1395 1.27386 10.892 1 10.5854 1C10.2799 1 10.0312 1.27257 10.0312 1.61033V4.81981H7.59079C5.86792 4.81981 4.46704 6.36261 4.46704 8.26023V10.9481H1.55415C1.24866 10.9481 1 11.2206 1 11.5584C1 11.8948 1.24748 12.1687 1.55415 12.1687H4.46822V16.2495L1.55415 16.2482C1.24866 16.2482 1 16.5207 1 16.8585C1 17.195 1.24748 17.4688 1.55415 17.4688H4.46822V21.5496H1.55415C1.24866 21.5496 1 21.8221 1 22.1599C1 22.4964 1.24748 22.7702 1.55415 22.7702H4.46822V25.4581C4.46822 27.3556 5.86901 28.8985 7.59197 28.8985H10.0324V32.108C10.0324 32.4444 10.2799 32.7183 10.5866 32.7183C10.892 32.7183 11.1407 32.4457 11.1407 32.108V28.8985H14.8458V32.108C14.8458 32.4444 15.0933 32.7183 15.4 32.7183C15.7055 32.7183 15.9542 32.4457 15.9542 32.108V28.8985H19.6593V32.108C19.6593 32.4444 19.9068 32.7183 20.2135 32.7183C20.5189 32.7183 20.7676 32.4457 20.7676 32.108V28.8985H23.208C24.9309 28.8985 26.3318 27.3557 26.3318 25.4581V22.7702H29.2459C29.5513 22.7702 29.8 22.4977 29.8 22.1599C29.8 21.8234 29.5525 21.5496 29.2459 21.5496H26.3318V17.4688H29.2459H29.2435ZM25.2222 25.4581C25.2222 26.6827 24.3187 27.6777 23.2068 27.6777H7.59085C6.47897 27.6777 5.57552 26.6826 5.57552 25.4581V8.25899C5.57552 7.0344 6.479 6.03937 7.59085 6.03937H23.2056C24.3175 6.03937 25.221 7.03443 25.221 8.25899V25.4567L25.2222 25.4581Z" fill="url(#paint2_linear_1930_11980)"/>
<path d="M29.2435 17.4688C29.549 17.4688 29.7976 17.1963 29.7976 16.8585C29.7976 16.522 29.5502 16.2482 29.2435 16.2482H26.3294V12.1674H29.2435C29.549 12.1674 29.7976 11.8948 29.7976 11.5571C29.7976 11.2206 29.5502 10.9468 29.2435 10.9468H26.3294V8.25893C26.3294 6.36141 24.9286 4.81851 23.2057 4.81851H20.7652V1.61033C20.7652 1.27386 20.5178 1 20.2111 1C19.9056 1 19.6569 1.27257 19.6569 1.61033V4.81981H15.9518L15.953 1.61033C15.953 1.27386 15.7055 1 15.3988 1C15.0933 1 14.8447 1.27257 14.8447 1.61033V4.81981H11.1395V1.61033C11.1395 1.27386 10.892 1 10.5854 1C10.2799 1 10.0312 1.27257 10.0312 1.61033V4.81981H7.59079C5.86792 4.81981 4.46704 6.36261 4.46704 8.26023V10.9481H1.55415C1.24866 10.9481 1 11.2206 1 11.5584C1 11.8948 1.24748 12.1687 1.55415 12.1687H4.46822V16.2495L1.55415 16.2482C1.24866 16.2482 1 16.5207 1 16.8585C1 17.195 1.24748 17.4688 1.55415 17.4688H4.46822V21.5496H1.55415C1.24866 21.5496 1 21.8221 1 22.1599C1 22.4964 1.24748 22.7702 1.55415 22.7702H4.46822V25.4581C4.46822 27.3556 5.86901 28.8985 7.59197 28.8985H10.0324V32.108C10.0324 32.4444 10.2799 32.7183 10.5866 32.7183C10.892 32.7183 11.1407 32.4457 11.1407 32.108V28.8985H14.8458V32.108C14.8458 32.4444 15.0933 32.7183 15.4 32.7183C15.7055 32.7183 15.9542 32.4457 15.9542 32.108V28.8985H19.6593V32.108C19.6593 32.4444 19.9068 32.7183 20.2135 32.7183C20.5189 32.7183 20.7676 32.4457 20.7676 32.108V28.8985H23.208C24.9309 28.8985 26.3318 27.3557 26.3318 25.4581V22.7702H29.2459C29.5513 22.7702 29.8 22.4977 29.8 22.1599C29.8 21.8234 29.5525 21.5496 29.2459 21.5496H26.3318V17.4688H29.2459H29.2435ZM25.2222 25.4581C25.2222 26.6827 24.3187 27.6777 23.2068 27.6777H7.59085C6.47897 27.6777 5.57552 26.6826 5.57552 25.4581V8.25899C5.57552 7.0344 6.479 6.03937 7.59085 6.03937H23.2056C24.3175 6.03937 25.221 7.03443 25.221 8.25899V25.4567L25.2222 25.4581Z" stroke="#EAEAEA" stroke-width="0.32"/>
<path d="M29.2435 17.4688C29.549 17.4688 29.7976 17.1963 29.7976 16.8585C29.7976 16.522 29.5502 16.2482 29.2435 16.2482H26.3294V12.1674H29.2435C29.549 12.1674 29.7976 11.8948 29.7976 11.5571C29.7976 11.2206 29.5502 10.9468 29.2435 10.9468H26.3294V8.25893C26.3294 6.36141 24.9286 4.81851 23.2057 4.81851H20.7652V1.61033C20.7652 1.27386 20.5178 1 20.2111 1C19.9056 1 19.6569 1.27257 19.6569 1.61033V4.81981H15.9518L15.953 1.61033C15.953 1.27386 15.7055 1 15.3988 1C15.0933 1 14.8447 1.27257 14.8447 1.61033V4.81981H11.1395V1.61033C11.1395 1.27386 10.892 1 10.5854 1C10.2799 1 10.0312 1.27257 10.0312 1.61033V4.81981H7.59079C5.86792 4.81981 4.46704 6.36261 4.46704 8.26023V10.9481H1.55415C1.24866 10.9481 1 11.2206 1 11.5584C1 11.8948 1.24748 12.1687 1.55415 12.1687H4.46822V16.2495L1.55415 16.2482C1.24866 16.2482 1 16.5207 1 16.8585C1 17.195 1.24748 17.4688 1.55415 17.4688H4.46822V21.5496H1.55415C1.24866 21.5496 1 21.8221 1 22.1599C1 22.4964 1.24748 22.7702 1.55415 22.7702H4.46822V25.4581C4.46822 27.3556 5.86901 28.8985 7.59197 28.8985H10.0324V32.108C10.0324 32.4444 10.2799 32.7183 10.5866 32.7183C10.892 32.7183 11.1407 32.4457 11.1407 32.108V28.8985H14.8458V32.108C14.8458 32.4444 15.0933 32.7183 15.4 32.7183C15.7055 32.7183 15.9542 32.4457 15.9542 32.108V28.8985H19.6593V32.108C19.6593 32.4444 19.9068 32.7183 20.2135 32.7183C20.5189 32.7183 20.7676 32.4457 20.7676 32.108V28.8985H23.208C24.9309 28.8985 26.3318 27.3557 26.3318 25.4581V22.7702H29.2459C29.5513 22.7702 29.8 22.4977 29.8 22.1599C29.8 21.8234 29.5525 21.5496 29.2459 21.5496H26.3318V17.4688H29.2459H29.2435ZM25.2222 25.4581C25.2222 26.6827 24.3187 27.6777 23.2068 27.6777H7.59085C6.47897 27.6777 5.57552 26.6826 5.57552 25.4581V8.25899C5.57552 7.0344 6.479 6.03937 7.59085 6.03937H23.2056C24.3175 6.03937 25.221 7.03443 25.221 8.25899V25.4567L25.2222 25.4581Z" stroke="url(#paint3_linear_1930_11980)" stroke-width="0.32"/>
</g>
</g>
<defs>
<linearGradient id="paint0_linear_1930_11980" x1="9.50812" y1="8.97266" x2="25.554" y2="10.6291" gradientUnits="userSpaceOnUse">
<stop stop-color="#9342CE"/>
<stop offset="0.514675" stop-color="#6284B6"/>
<stop offset="1" stop-color="#35C29F"/>
</linearGradient>
<linearGradient id="paint1_linear_1930_11980" x1="9.50812" y1="8.97266" x2="25.554" y2="10.6291" gradientUnits="userSpaceOnUse">
<stop stop-color="#9342CE"/>
<stop offset="0.514675" stop-color="#6284B6"/>
<stop offset="1" stop-color="#35C29F"/>
</linearGradient>
<linearGradient id="paint2_linear_1930_11980" x1="1" y1="1" x2="40.026" y2="5.89473" gradientUnits="userSpaceOnUse">
<stop stop-color="#9342CE"/>
<stop offset="0.514675" stop-color="#6284B6"/>
<stop offset="1" stop-color="#35C29F"/>
</linearGradient>
<linearGradient id="paint3_linear_1930_11980" x1="1" y1="1" x2="40.026" y2="5.89473" gradientUnits="userSpaceOnUse">
<stop stop-color="#9342CE"/>
<stop offset="0.514675" stop-color="#6284B6"/>
<stop offset="1" stop-color="#35C29F"/>
</linearGradient>
</defs>
</svg>
