<svg width="20" height="12" viewBox="0 0 20 12" fill="none" xmlns="http://www.w3.org/2000/svg">
<path id="Path 4486" fill-rule="evenodd" clip-rule="evenodd" d="M0.937009 6.00003C1.90948 7.07167 5.65929 11.143 10.0345 11.143C14.4097 11.143 18.0901 7.07167 19.0626 6.00003C18.0901 4.92838 14.4106 0.856954 10.0345 0.856954C5.6584 0.856954 1.90948 4.927 0.937009 6.00003ZM10.0345 12C4.54771 12 0.311969 6.50021 0.103966 6.28551C0.0369964 6.20623 0 6.10474 0 5.99975C0 5.89476 0.0369964 5.79332 0.103966 5.71404C0.312417 5.4998 4.5486 0 10.0345 0C15.4511 0 19.7565 5.4998 19.896 5.71404C19.963 5.79332 20 5.89476 20 5.99975C20 6.10474 19.963 6.20623 19.896 6.28551C19.7569 6.50021 15.4515 12 10.0345 12ZM10.0467 3.01999C9.27774 3.01999 8.54001 3.33397 7.99624 3.89283C7.45248 4.45169 7.14704 5.20968 7.14704 6.00003C7.14704 6.79038 7.45248 7.54831 7.99624 8.10717C8.54001 8.66603 9.27774 8.98001 10.0467 8.98001C10.8157 8.98001 11.553 8.66603 12.0968 8.10717C12.6406 7.54831 12.946 6.79038 12.946 6.00003C12.946 5.20968 12.6406 4.45169 12.0968 3.89283C11.553 3.33397 10.8157 3.01999 10.0467 3.01999ZM10.0467 9.83146C9.05803 9.83146 8.10957 9.42776 7.41045 8.70923C6.71132 7.99069 6.31836 7.01619 6.31836 6.00003C6.31836 4.98387 6.71132 4.00931 7.41045 3.29077C8.10957 2.57224 9.05803 2.16854 10.0467 2.16854C11.0355 2.16854 11.9835 2.57224 12.6826 3.29077C13.3817 4.00931 13.7747 4.98387 13.7747 6.00003C13.7747 7.01619 13.3817 7.99069 12.6826 8.70923C11.9835 9.42776 11.0355 9.83146 10.0467 9.83146Z" fill="url(#paint0_linear_1206_39646)" fill-opacity="0.8"/>
<defs>
<linearGradient id="paint0_linear_1206_39646" x1="-4.67487e-08" y1="3" x2="25.8756" y2="7.13997" gradientUnits="userSpaceOnUse">
<stop stop-color="#A72DD4"/>
<stop offset="1" stop-color="#68DBBA"/>
</linearGradient>
</defs>
</svg>
