<svg width="11" height="10" viewBox="0 0 11 10" fill="none" xmlns="http://www.w3.org/2000/svg">
<path fill-rule="evenodd" clip-rule="evenodd" d="M1.31042 0.599263L5.04387 5.09872C5.07689 5.16539 5.11028 5.19875 5.11028 5.23209V9.13144L5.91015 8.33163V5.23209C5.9087 5.18541 5.92026 5.13922 5.94348 5.09872L9.67666 0.599263H1.31042ZM4.91024 9.79789H4.81077C4.77616 9.77823 4.74799 9.74876 4.73015 9.71315C4.71232 9.67754 4.70551 9.63743 4.71048 9.5979V5.29871L0.744197 0.532578C0.723042 0.504348 0.709002 0.47143 0.703206 0.436619C0.697411 0.401808 0.699991 0.366162 0.710858 0.33259C0.728071 0.293659 0.75609 0.260452 0.791474 0.236836C0.826857 0.21322 0.868105 0.200152 0.91062 0.199219H10.1101C10.1471 0.205319 10.1821 0.220752 10.2115 0.244086C10.2408 0.26742 10.2638 0.297903 10.2781 0.33259C10.2971 0.364468 10.3041 0.401994 10.2981 0.438602C10.292 0.475211 10.2733 0.508504 10.2451 0.532578L6.31158 5.29871V8.39832C6.31109 8.42409 6.30485 8.44943 6.29327 8.47246C6.2817 8.49549 6.26529 8.51559 6.2449 8.53134L5.04524 9.7312C5.03208 9.75463 5.01219 9.77354 4.98812 9.78544C4.96405 9.79734 4.93682 9.80168 4.91024 9.79789Z" fill="black"/>
</svg>
