<svg width="30" height="33" viewBox="0 0 30 33" fill="none" xmlns="http://www.w3.org/2000/svg">
<g id="Component 964375">
<g id="Vector">
<path d="M6.16947 3.51745C6.16947 3.78841 5.99369 4.00695 5.7757 4.00695H5.75742C5.53945 4.00695 5.36365 3.78843 5.36365 3.51745C5.36365 3.24647 5.53943 3.02795 5.75742 3.02795H5.7757C5.99367 3.02795 6.16947 3.24822 6.16947 3.51745ZM22.4397 3.02795H11.658C11.4401 3.02795 11.2643 3.24647 11.2643 3.51745C11.2643 3.78843 11.4401 4.00695 11.658 4.00695H22.4397C22.6577 4.00695 22.8335 3.78843 22.8335 3.51745C22.8335 3.24824 22.6577 3.02795 22.4397 3.02795ZM7.00323 3.02795H6.98495C6.76698 3.02795 6.59118 3.24647 6.59118 3.51745C6.59118 3.78843 6.76696 4.00695 6.98495 4.00695H7.00323C7.2212 4.00695 7.397 3.78843 7.397 3.51745C7.397 3.24824 7.22122 3.02795 7.00323 3.02795ZM8.23091 3.02795H8.21262C7.99465 3.02795 7.81886 3.24647 7.81886 3.51745C7.81886 3.78843 7.99464 4.00695 8.21262 4.00695H8.23091C8.44888 4.00695 8.62467 3.78843 8.62467 3.51745C8.62467 3.24824 8.44889 3.02795 8.23091 3.02795ZM29.8 22.8362C29.8 27.0178 27.0634 30.4177 23.6998 30.4177C22.0207 30.4177 20.4978 29.5699 19.3938 28.1993H17.6107V31.7375H19.7327C19.9507 31.7375 20.1265 31.9561 20.1265 32.227C20.1265 32.498 19.9507 32.7165 19.7327 32.7165L8.46721 32.7183C8.24924 32.7183 8.07344 32.4998 8.07344 32.2288C8.07344 31.9578 8.24922 31.7393 8.46721 31.7393H10.5878V28.2011H1.39377C1.1758 28.2011 1 27.9826 1 27.7116V7.1291C1 6.85814 1.17578 6.6396 1.39377 6.6396H3.07425V1.4895C3.07425 1.21854 3.25003 1 3.46802 1H24.7304C24.9484 1 25.1242 1.21852 25.1242 1.4895V6.6396H26.8046C27.0226 6.6396 27.1984 6.85811 27.1984 7.1291V16.6287C28.7706 18.0027 29.8 20.2735 29.8 22.8362ZM25.1257 7.61864V15.4606C25.5757 15.5952 26.0075 15.791 26.4125 16.0427V7.61855L25.1257 7.61864ZM23.6998 15.2529C23.915 15.2529 24.1273 15.2669 24.3382 15.2949L24.3368 6.03519H3.86179V21.6708H17.6725C18.1239 18.0416 20.6554 15.2529 23.6998 15.2529ZM3.86197 5.05612H24.337V1.9794L3.86197 1.98115V5.05612ZM1.78775 7.61891V24.6669H17.7812C17.663 24.0795 17.6012 23.4659 17.6012 22.8348C17.6012 22.7719 17.6026 22.7107 17.6026 22.6495H3.4682C3.25023 22.6495 3.07444 22.431 3.07444 22.16V7.61906L1.78775 7.61891ZM1.78775 27.2209H18.7262C18.4477 26.7349 18.2157 26.207 18.0343 25.6476H1.78779L1.78775 27.2209ZM16.8221 28.2016H11.3757V31.7398H16.8221V28.2016ZM29.0128 22.8367C29.0128 19.1953 26.6292 16.2321 23.6999 16.2321C20.7707 16.2321 18.3885 19.1952 18.3885 22.8367C18.3885 26.4781 20.7707 29.4394 23.6999 29.4394C26.6291 29.4394 29.0128 26.4781 29.0128 22.8367ZM21.9395 20.4644C21.7862 20.2739 21.5359 20.2739 21.3826 20.4644L19.7528 22.4905C19.6797 22.5814 19.6375 22.7073 19.6375 22.8366C19.6375 22.966 19.6797 23.0919 19.7528 23.1828L21.3826 25.2071C21.46 25.3032 21.5598 25.3504 21.6611 25.3504C21.7623 25.3504 21.8622 25.3032 21.9395 25.2071C22.0928 25.0166 22.0928 24.7054 21.9395 24.5148L20.5881 22.8366L21.9395 21.1567C22.0928 20.9661 22.0928 20.6567 21.9395 20.4644ZM27.6488 22.4905L26.0189 20.4644C25.8657 20.2739 25.6153 20.2739 25.4621 20.4644C25.3088 20.655 25.3088 20.9662 25.4621 21.1567L26.8135 22.8367L25.4621 24.5149C25.3088 24.7054 25.3074 25.0166 25.4621 25.2072C25.5394 25.3033 25.6392 25.3505 25.7405 25.3505C25.8418 25.3505 25.9416 25.3033 26.0189 25.2072L27.6488 23.1828C27.7219 23.0919 27.7641 22.9661 27.7641 22.8367C27.7641 22.7073 27.7233 22.5832 27.6488 22.4905ZM24.6507 20.1812C24.4524 20.0711 24.2189 20.1829 24.1303 20.4294L22.5497 24.8435C22.4611 25.09 22.5511 25.3802 22.7494 25.4903C22.8014 25.5183 22.8563 25.5323 22.9097 25.5323C23.0602 25.5323 23.205 25.4239 23.2697 25.2421L24.8503 20.828C24.9389 20.5815 24.8489 20.2913 24.6507 20.1812ZM19.0174 11.6519L17.6224 12.5347L19.0174 13.4175C19.1495 13.5014 19.2325 13.6692 19.2325 13.8545C19.2325 14.0381 19.1495 14.2077 19.0174 14.2916L17.621 15.1744L19.0174 16.0572C19.1495 16.1411 19.2325 16.309 19.2325 16.4943C19.2325 16.6778 19.1495 16.8474 19.0174 16.9313L14.2783 19.9259C14.2221 19.9608 14.1616 19.9783 14.0997 19.9783C14.0378 19.9783 13.9774 19.9608 13.9211 19.9259L9.18207 16.9296C9.04988 16.8456 8.96691 16.6778 8.96691 16.4925C8.96691 16.309 9.04988 16.1394 9.18207 16.0555L10.5785 15.1727L9.18207 14.2898C9.04988 14.2059 8.96691 14.0381 8.96691 13.8528C8.96691 13.6692 9.04988 13.4997 9.18207 13.4158L10.5785 12.5329L9.18207 11.6501C9.04988 11.5662 8.96691 11.3984 8.96691 11.2131C8.96691 11.0295 9.04988 10.86 9.18207 10.776L13.9211 7.77974C14.0336 7.70807 14.1658 7.70807 14.2783 7.77974L19.0174 10.776C19.1496 10.86 19.2325 11.0278 19.2325 11.2131C19.2325 11.4001 19.1481 11.5679 19.0174 11.6519ZM16.7519 15.7233L14.2783 17.2879C14.222 17.3228 14.1616 17.3403 14.0997 17.3403C14.0378 17.3403 13.9773 17.3228 13.9211 17.2879L11.4475 15.7233L10.2297 16.4925L14.0997 18.9399L17.9697 16.4925L16.7519 15.7233ZM16.7533 13.0836L14.2783 14.6482C14.222 14.6832 14.1616 14.7006 14.0997 14.7006C14.0378 14.7006 13.9773 14.6832 13.9211 14.6482L11.4461 13.0836L10.2283 13.8528L14.0983 16.3002L17.9697 13.8528L16.7533 13.0836ZM17.9697 11.2148L14.0997 8.76743L10.2297 11.2148L11.5994 12.0819C11.6176 12.0907 11.6345 12.1029 11.65 12.1134L14.0997 13.6622L16.5578 12.1081C16.5691 12.0994 16.5803 12.0924 16.593 12.0854L17.9697 11.2148Z" fill="#EAEAEA"/>
<path d="M6.16947 3.51745C6.16947 3.78841 5.99369 4.00695 5.7757 4.00695H5.75742C5.53945 4.00695 5.36365 3.78843 5.36365 3.51745C5.36365 3.24647 5.53943 3.02795 5.75742 3.02795H5.7757C5.99367 3.02795 6.16947 3.24822 6.16947 3.51745ZM22.4397 3.02795H11.658C11.4401 3.02795 11.2643 3.24647 11.2643 3.51745C11.2643 3.78843 11.4401 4.00695 11.658 4.00695H22.4397C22.6577 4.00695 22.8335 3.78843 22.8335 3.51745C22.8335 3.24824 22.6577 3.02795 22.4397 3.02795ZM7.00323 3.02795H6.98495C6.76698 3.02795 6.59118 3.24647 6.59118 3.51745C6.59118 3.78843 6.76696 4.00695 6.98495 4.00695H7.00323C7.2212 4.00695 7.397 3.78843 7.397 3.51745C7.397 3.24824 7.22122 3.02795 7.00323 3.02795ZM8.23091 3.02795H8.21262C7.99465 3.02795 7.81886 3.24647 7.81886 3.51745C7.81886 3.78843 7.99464 4.00695 8.21262 4.00695H8.23091C8.44888 4.00695 8.62467 3.78843 8.62467 3.51745C8.62467 3.24824 8.44889 3.02795 8.23091 3.02795ZM29.8 22.8362C29.8 27.0178 27.0634 30.4177 23.6998 30.4177C22.0207 30.4177 20.4978 29.5699 19.3938 28.1993H17.6107V31.7375H19.7327C19.9507 31.7375 20.1265 31.9561 20.1265 32.227C20.1265 32.498 19.9507 32.7165 19.7327 32.7165L8.46721 32.7183C8.24924 32.7183 8.07344 32.4998 8.07344 32.2288C8.07344 31.9578 8.24922 31.7393 8.46721 31.7393H10.5878V28.2011H1.39377C1.1758 28.2011 1 27.9826 1 27.7116V7.1291C1 6.85814 1.17578 6.6396 1.39377 6.6396H3.07425V1.4895C3.07425 1.21854 3.25003 1 3.46802 1H24.7304C24.9484 1 25.1242 1.21852 25.1242 1.4895V6.6396H26.8046C27.0226 6.6396 27.1984 6.85811 27.1984 7.1291V16.6287C28.7706 18.0027 29.8 20.2735 29.8 22.8362ZM25.1257 7.61864V15.4606C25.5757 15.5952 26.0075 15.791 26.4125 16.0427V7.61855L25.1257 7.61864ZM23.6998 15.2529C23.915 15.2529 24.1273 15.2669 24.3382 15.2949L24.3368 6.03519H3.86179V21.6708H17.6725C18.1239 18.0416 20.6554 15.2529 23.6998 15.2529ZM3.86197 5.05612H24.337V1.9794L3.86197 1.98115V5.05612ZM1.78775 7.61891V24.6669H17.7812C17.663 24.0795 17.6012 23.4659 17.6012 22.8348C17.6012 22.7719 17.6026 22.7107 17.6026 22.6495H3.4682C3.25023 22.6495 3.07444 22.431 3.07444 22.16V7.61906L1.78775 7.61891ZM1.78775 27.2209H18.7262C18.4477 26.7349 18.2157 26.207 18.0343 25.6476H1.78779L1.78775 27.2209ZM16.8221 28.2016H11.3757V31.7398H16.8221V28.2016ZM29.0128 22.8367C29.0128 19.1953 26.6292 16.2321 23.6999 16.2321C20.7707 16.2321 18.3885 19.1952 18.3885 22.8367C18.3885 26.4781 20.7707 29.4394 23.6999 29.4394C26.6291 29.4394 29.0128 26.4781 29.0128 22.8367ZM21.9395 20.4644C21.7862 20.2739 21.5359 20.2739 21.3826 20.4644L19.7528 22.4905C19.6797 22.5814 19.6375 22.7073 19.6375 22.8366C19.6375 22.966 19.6797 23.0919 19.7528 23.1828L21.3826 25.2071C21.46 25.3032 21.5598 25.3504 21.6611 25.3504C21.7623 25.3504 21.8622 25.3032 21.9395 25.2071C22.0928 25.0166 22.0928 24.7054 21.9395 24.5148L20.5881 22.8366L21.9395 21.1567C22.0928 20.9661 22.0928 20.6567 21.9395 20.4644ZM27.6488 22.4905L26.0189 20.4644C25.8657 20.2739 25.6153 20.2739 25.4621 20.4644C25.3088 20.655 25.3088 20.9662 25.4621 21.1567L26.8135 22.8367L25.4621 24.5149C25.3088 24.7054 25.3074 25.0166 25.4621 25.2072C25.5394 25.3033 25.6392 25.3505 25.7405 25.3505C25.8418 25.3505 25.9416 25.3033 26.0189 25.2072L27.6488 23.1828C27.7219 23.0919 27.7641 22.9661 27.7641 22.8367C27.7641 22.7073 27.7233 22.5832 27.6488 22.4905ZM24.6507 20.1812C24.4524 20.0711 24.2189 20.1829 24.1303 20.4294L22.5497 24.8435C22.4611 25.09 22.5511 25.3802 22.7494 25.4903C22.8014 25.5183 22.8563 25.5323 22.9097 25.5323C23.0602 25.5323 23.205 25.4239 23.2697 25.2421L24.8503 20.828C24.9389 20.5815 24.8489 20.2913 24.6507 20.1812ZM19.0174 11.6519L17.6224 12.5347L19.0174 13.4175C19.1495 13.5014 19.2325 13.6692 19.2325 13.8545C19.2325 14.0381 19.1495 14.2077 19.0174 14.2916L17.621 15.1744L19.0174 16.0572C19.1495 16.1411 19.2325 16.309 19.2325 16.4943C19.2325 16.6778 19.1495 16.8474 19.0174 16.9313L14.2783 19.9259C14.2221 19.9608 14.1616 19.9783 14.0997 19.9783C14.0378 19.9783 13.9774 19.9608 13.9211 19.9259L9.18207 16.9296C9.04988 16.8456 8.96691 16.6778 8.96691 16.4925C8.96691 16.309 9.04988 16.1394 9.18207 16.0555L10.5785 15.1727L9.18207 14.2898C9.04988 14.2059 8.96691 14.0381 8.96691 13.8528C8.96691 13.6692 9.04988 13.4997 9.18207 13.4158L10.5785 12.5329L9.18207 11.6501C9.04988 11.5662 8.96691 11.3984 8.96691 11.2131C8.96691 11.0295 9.04988 10.86 9.18207 10.776L13.9211 7.77974C14.0336 7.70807 14.1658 7.70807 14.2783 7.77974L19.0174 10.776C19.1496 10.86 19.2325 11.0278 19.2325 11.2131C19.2325 11.4001 19.1481 11.5679 19.0174 11.6519ZM16.7519 15.7233L14.2783 17.2879C14.222 17.3228 14.1616 17.3403 14.0997 17.3403C14.0378 17.3403 13.9773 17.3228 13.9211 17.2879L11.4475 15.7233L10.2297 16.4925L14.0997 18.9399L17.9697 16.4925L16.7519 15.7233ZM16.7533 13.0836L14.2783 14.6482C14.222 14.6832 14.1616 14.7006 14.0997 14.7006C14.0378 14.7006 13.9773 14.6832 13.9211 14.6482L11.4461 13.0836L10.2283 13.8528L14.0983 16.3002L17.9697 13.8528L16.7533 13.0836ZM17.9697 11.2148L14.0997 8.76743L10.2297 11.2148L11.5994 12.0819C11.6176 12.0907 11.6345 12.1029 11.65 12.1134L14.0997 13.6622L16.5578 12.1081C16.5691 12.0994 16.5803 12.0924 16.593 12.0854L17.9697 11.2148Z" fill="url(#paint0_linear_1930_11954)"/>
<path d="M6.16947 3.51745C6.16947 3.78841 5.99369 4.00695 5.7757 4.00695H5.75742C5.53945 4.00695 5.36365 3.78843 5.36365 3.51745C5.36365 3.24647 5.53943 3.02795 5.75742 3.02795H5.7757C5.99367 3.02795 6.16947 3.24822 6.16947 3.51745ZM22.4397 3.02795H11.658C11.4401 3.02795 11.2643 3.24647 11.2643 3.51745C11.2643 3.78843 11.4401 4.00695 11.658 4.00695H22.4397C22.6577 4.00695 22.8335 3.78843 22.8335 3.51745C22.8335 3.24824 22.6577 3.02795 22.4397 3.02795ZM7.00323 3.02795H6.98495C6.76698 3.02795 6.59118 3.24647 6.59118 3.51745C6.59118 3.78843 6.76696 4.00695 6.98495 4.00695H7.00323C7.2212 4.00695 7.397 3.78843 7.397 3.51745C7.397 3.24824 7.22122 3.02795 7.00323 3.02795ZM8.23091 3.02795H8.21262C7.99465 3.02795 7.81886 3.24647 7.81886 3.51745C7.81886 3.78843 7.99464 4.00695 8.21262 4.00695H8.23091C8.44888 4.00695 8.62467 3.78843 8.62467 3.51745C8.62467 3.24824 8.44889 3.02795 8.23091 3.02795ZM29.8 22.8362C29.8 27.0178 27.0634 30.4177 23.6998 30.4177C22.0207 30.4177 20.4978 29.5699 19.3938 28.1993H17.6107V31.7375H19.7327C19.9507 31.7375 20.1265 31.9561 20.1265 32.227C20.1265 32.498 19.9507 32.7165 19.7327 32.7165L8.46721 32.7183C8.24924 32.7183 8.07344 32.4998 8.07344 32.2288C8.07344 31.9578 8.24922 31.7393 8.46721 31.7393H10.5878V28.2011H1.39377C1.1758 28.2011 1 27.9826 1 27.7116V7.1291C1 6.85814 1.17578 6.6396 1.39377 6.6396H3.07425V1.4895C3.07425 1.21854 3.25003 1 3.46802 1H24.7304C24.9484 1 25.1242 1.21852 25.1242 1.4895V6.6396H26.8046C27.0226 6.6396 27.1984 6.85811 27.1984 7.1291V16.6287C28.7706 18.0027 29.8 20.2735 29.8 22.8362ZM25.1257 7.61864V15.4606C25.5757 15.5952 26.0075 15.791 26.4125 16.0427V7.61855L25.1257 7.61864ZM23.6998 15.2529C23.915 15.2529 24.1273 15.2669 24.3382 15.2949L24.3368 6.03519H3.86179V21.6708H17.6725C18.1239 18.0416 20.6554 15.2529 23.6998 15.2529ZM3.86197 5.05612H24.337V1.9794L3.86197 1.98115V5.05612ZM1.78775 7.61891V24.6669H17.7812C17.663 24.0795 17.6012 23.4659 17.6012 22.8348C17.6012 22.7719 17.6026 22.7107 17.6026 22.6495H3.4682C3.25023 22.6495 3.07444 22.431 3.07444 22.16V7.61906L1.78775 7.61891ZM1.78775 27.2209H18.7262C18.4477 26.7349 18.2157 26.207 18.0343 25.6476H1.78779L1.78775 27.2209ZM16.8221 28.2016H11.3757V31.7398H16.8221V28.2016ZM29.0128 22.8367C29.0128 19.1953 26.6292 16.2321 23.6999 16.2321C20.7707 16.2321 18.3885 19.1952 18.3885 22.8367C18.3885 26.4781 20.7707 29.4394 23.6999 29.4394C26.6291 29.4394 29.0128 26.4781 29.0128 22.8367ZM21.9395 20.4644C21.7862 20.2739 21.5359 20.2739 21.3826 20.4644L19.7528 22.4905C19.6797 22.5814 19.6375 22.7073 19.6375 22.8366C19.6375 22.966 19.6797 23.0919 19.7528 23.1828L21.3826 25.2071C21.46 25.3032 21.5598 25.3504 21.6611 25.3504C21.7623 25.3504 21.8622 25.3032 21.9395 25.2071C22.0928 25.0166 22.0928 24.7054 21.9395 24.5148L20.5881 22.8366L21.9395 21.1567C22.0928 20.9661 22.0928 20.6567 21.9395 20.4644ZM27.6488 22.4905L26.0189 20.4644C25.8657 20.2739 25.6153 20.2739 25.4621 20.4644C25.3088 20.655 25.3088 20.9662 25.4621 21.1567L26.8135 22.8367L25.4621 24.5149C25.3088 24.7054 25.3074 25.0166 25.4621 25.2072C25.5394 25.3033 25.6392 25.3505 25.7405 25.3505C25.8418 25.3505 25.9416 25.3033 26.0189 25.2072L27.6488 23.1828C27.7219 23.0919 27.7641 22.9661 27.7641 22.8367C27.7641 22.7073 27.7233 22.5832 27.6488 22.4905ZM24.6507 20.1812C24.4524 20.0711 24.2189 20.1829 24.1303 20.4294L22.5497 24.8435C22.4611 25.09 22.5511 25.3802 22.7494 25.4903C22.8014 25.5183 22.8563 25.5323 22.9097 25.5323C23.0602 25.5323 23.205 25.4239 23.2697 25.2421L24.8503 20.828C24.9389 20.5815 24.8489 20.2913 24.6507 20.1812ZM19.0174 11.6519L17.6224 12.5347L19.0174 13.4175C19.1495 13.5014 19.2325 13.6692 19.2325 13.8545C19.2325 14.0381 19.1495 14.2077 19.0174 14.2916L17.621 15.1744L19.0174 16.0572C19.1495 16.1411 19.2325 16.309 19.2325 16.4943C19.2325 16.6778 19.1495 16.8474 19.0174 16.9313L14.2783 19.9259C14.2221 19.9608 14.1616 19.9783 14.0997 19.9783C14.0378 19.9783 13.9774 19.9608 13.9211 19.9259L9.18207 16.9296C9.04988 16.8456 8.96691 16.6778 8.96691 16.4925C8.96691 16.309 9.04988 16.1394 9.18207 16.0555L10.5785 15.1727L9.18207 14.2898C9.04988 14.2059 8.96691 14.0381 8.96691 13.8528C8.96691 13.6692 9.04988 13.4997 9.18207 13.4158L10.5785 12.5329L9.18207 11.6501C9.04988 11.5662 8.96691 11.3984 8.96691 11.2131C8.96691 11.0295 9.04988 10.86 9.18207 10.776L13.9211 7.77974C14.0336 7.70807 14.1658 7.70807 14.2783 7.77974L19.0174 10.776C19.1496 10.86 19.2325 11.0278 19.2325 11.2131C19.2325 11.4001 19.1481 11.5679 19.0174 11.6519ZM16.7519 15.7233L14.2783 17.2879C14.222 17.3228 14.1616 17.3403 14.0997 17.3403C14.0378 17.3403 13.9773 17.3228 13.9211 17.2879L11.4475 15.7233L10.2297 16.4925L14.0997 18.9399L17.9697 16.4925L16.7519 15.7233ZM16.7533 13.0836L14.2783 14.6482C14.222 14.6832 14.1616 14.7006 14.0997 14.7006C14.0378 14.7006 13.9773 14.6832 13.9211 14.6482L11.4461 13.0836L10.2283 13.8528L14.0983 16.3002L17.9697 13.8528L16.7533 13.0836ZM17.9697 11.2148L14.0997 8.76743L10.2297 11.2148L11.5994 12.0819C11.6176 12.0907 11.6345 12.1029 11.65 12.1134L14.0997 13.6622L16.5578 12.1081C16.5691 12.0994 16.5803 12.0924 16.593 12.0854L17.9697 11.2148Z" stroke="#EAEAEA" stroke-width="0.32"/>
<path d="M6.16947 3.51745C6.16947 3.78841 5.99369 4.00695 5.7757 4.00695H5.75742C5.53945 4.00695 5.36365 3.78843 5.36365 3.51745C5.36365 3.24647 5.53943 3.02795 5.75742 3.02795H5.7757C5.99367 3.02795 6.16947 3.24822 6.16947 3.51745ZM22.4397 3.02795H11.658C11.4401 3.02795 11.2643 3.24647 11.2643 3.51745C11.2643 3.78843 11.4401 4.00695 11.658 4.00695H22.4397C22.6577 4.00695 22.8335 3.78843 22.8335 3.51745C22.8335 3.24824 22.6577 3.02795 22.4397 3.02795ZM7.00323 3.02795H6.98495C6.76698 3.02795 6.59118 3.24647 6.59118 3.51745C6.59118 3.78843 6.76696 4.00695 6.98495 4.00695H7.00323C7.2212 4.00695 7.397 3.78843 7.397 3.51745C7.397 3.24824 7.22122 3.02795 7.00323 3.02795ZM8.23091 3.02795H8.21262C7.99465 3.02795 7.81886 3.24647 7.81886 3.51745C7.81886 3.78843 7.99464 4.00695 8.21262 4.00695H8.23091C8.44888 4.00695 8.62467 3.78843 8.62467 3.51745C8.62467 3.24824 8.44889 3.02795 8.23091 3.02795ZM29.8 22.8362C29.8 27.0178 27.0634 30.4177 23.6998 30.4177C22.0207 30.4177 20.4978 29.5699 19.3938 28.1993H17.6107V31.7375H19.7327C19.9507 31.7375 20.1265 31.9561 20.1265 32.227C20.1265 32.498 19.9507 32.7165 19.7327 32.7165L8.46721 32.7183C8.24924 32.7183 8.07344 32.4998 8.07344 32.2288C8.07344 31.9578 8.24922 31.7393 8.46721 31.7393H10.5878V28.2011H1.39377C1.1758 28.2011 1 27.9826 1 27.7116V7.1291C1 6.85814 1.17578 6.6396 1.39377 6.6396H3.07425V1.4895C3.07425 1.21854 3.25003 1 3.46802 1H24.7304C24.9484 1 25.1242 1.21852 25.1242 1.4895V6.6396H26.8046C27.0226 6.6396 27.1984 6.85811 27.1984 7.1291V16.6287C28.7706 18.0027 29.8 20.2735 29.8 22.8362ZM25.1257 7.61864V15.4606C25.5757 15.5952 26.0075 15.791 26.4125 16.0427V7.61855L25.1257 7.61864ZM23.6998 15.2529C23.915 15.2529 24.1273 15.2669 24.3382 15.2949L24.3368 6.03519H3.86179V21.6708H17.6725C18.1239 18.0416 20.6554 15.2529 23.6998 15.2529ZM3.86197 5.05612H24.337V1.9794L3.86197 1.98115V5.05612ZM1.78775 7.61891V24.6669H17.7812C17.663 24.0795 17.6012 23.4659 17.6012 22.8348C17.6012 22.7719 17.6026 22.7107 17.6026 22.6495H3.4682C3.25023 22.6495 3.07444 22.431 3.07444 22.16V7.61906L1.78775 7.61891ZM1.78775 27.2209H18.7262C18.4477 26.7349 18.2157 26.207 18.0343 25.6476H1.78779L1.78775 27.2209ZM16.8221 28.2016H11.3757V31.7398H16.8221V28.2016ZM29.0128 22.8367C29.0128 19.1953 26.6292 16.2321 23.6999 16.2321C20.7707 16.2321 18.3885 19.1952 18.3885 22.8367C18.3885 26.4781 20.7707 29.4394 23.6999 29.4394C26.6291 29.4394 29.0128 26.4781 29.0128 22.8367ZM21.9395 20.4644C21.7862 20.2739 21.5359 20.2739 21.3826 20.4644L19.7528 22.4905C19.6797 22.5814 19.6375 22.7073 19.6375 22.8366C19.6375 22.966 19.6797 23.0919 19.7528 23.1828L21.3826 25.2071C21.46 25.3032 21.5598 25.3504 21.6611 25.3504C21.7623 25.3504 21.8622 25.3032 21.9395 25.2071C22.0928 25.0166 22.0928 24.7054 21.9395 24.5148L20.5881 22.8366L21.9395 21.1567C22.0928 20.9661 22.0928 20.6567 21.9395 20.4644ZM27.6488 22.4905L26.0189 20.4644C25.8657 20.2739 25.6153 20.2739 25.4621 20.4644C25.3088 20.655 25.3088 20.9662 25.4621 21.1567L26.8135 22.8367L25.4621 24.5149C25.3088 24.7054 25.3074 25.0166 25.4621 25.2072C25.5394 25.3033 25.6392 25.3505 25.7405 25.3505C25.8418 25.3505 25.9416 25.3033 26.0189 25.2072L27.6488 23.1828C27.7219 23.0919 27.7641 22.9661 27.7641 22.8367C27.7641 22.7073 27.7233 22.5832 27.6488 22.4905ZM24.6507 20.1812C24.4524 20.0711 24.2189 20.1829 24.1303 20.4294L22.5497 24.8435C22.4611 25.09 22.5511 25.3802 22.7494 25.4903C22.8014 25.5183 22.8563 25.5323 22.9097 25.5323C23.0602 25.5323 23.205 25.4239 23.2697 25.2421L24.8503 20.828C24.9389 20.5815 24.8489 20.2913 24.6507 20.1812ZM19.0174 11.6519L17.6224 12.5347L19.0174 13.4175C19.1495 13.5014 19.2325 13.6692 19.2325 13.8545C19.2325 14.0381 19.1495 14.2077 19.0174 14.2916L17.621 15.1744L19.0174 16.0572C19.1495 16.1411 19.2325 16.309 19.2325 16.4943C19.2325 16.6778 19.1495 16.8474 19.0174 16.9313L14.2783 19.9259C14.2221 19.9608 14.1616 19.9783 14.0997 19.9783C14.0378 19.9783 13.9774 19.9608 13.9211 19.9259L9.18207 16.9296C9.04988 16.8456 8.96691 16.6778 8.96691 16.4925C8.96691 16.309 9.04988 16.1394 9.18207 16.0555L10.5785 15.1727L9.18207 14.2898C9.04988 14.2059 8.96691 14.0381 8.96691 13.8528C8.96691 13.6692 9.04988 13.4997 9.18207 13.4158L10.5785 12.5329L9.18207 11.6501C9.04988 11.5662 8.96691 11.3984 8.96691 11.2131C8.96691 11.0295 9.04988 10.86 9.18207 10.776L13.9211 7.77974C14.0336 7.70807 14.1658 7.70807 14.2783 7.77974L19.0174 10.776C19.1496 10.86 19.2325 11.0278 19.2325 11.2131C19.2325 11.4001 19.1481 11.5679 19.0174 11.6519ZM16.7519 15.7233L14.2783 17.2879C14.222 17.3228 14.1616 17.3403 14.0997 17.3403C14.0378 17.3403 13.9773 17.3228 13.9211 17.2879L11.4475 15.7233L10.2297 16.4925L14.0997 18.9399L17.9697 16.4925L16.7519 15.7233ZM16.7533 13.0836L14.2783 14.6482C14.222 14.6832 14.1616 14.7006 14.0997 14.7006C14.0378 14.7006 13.9773 14.6832 13.9211 14.6482L11.4461 13.0836L10.2283 13.8528L14.0983 16.3002L17.9697 13.8528L16.7533 13.0836ZM17.9697 11.2148L14.0997 8.76743L10.2297 11.2148L11.5994 12.0819C11.6176 12.0907 11.6345 12.1029 11.65 12.1134L14.0997 13.6622L16.5578 12.1081C16.5691 12.0994 16.5803 12.0924 16.593 12.0854L17.9697 11.2148Z" stroke="url(#paint1_linear_1930_11954)" stroke-width="0.32"/>
</g>
</g>
<defs>
<linearGradient id="paint0_linear_1930_11954" x1="1" y1="1" x2="40.026" y2="5.89473" gradientUnits="userSpaceOnUse">
<stop stop-color="#9342CE"/>
<stop offset="0.514675" stop-color="#6284B6"/>
<stop offset="1" stop-color="#35C29F"/>
</linearGradient>
<linearGradient id="paint1_linear_1930_11954" x1="1" y1="1" x2="40.026" y2="5.89473" gradientUnits="userSpaceOnUse">
<stop stop-color="#9342CE"/>
<stop offset="0.514675" stop-color="#6284B6"/>
<stop offset="1" stop-color="#35C29F"/>
</linearGradient>
</defs>
</svg>
