<svg width="37" height="33" viewBox="0 0 37 33" fill="none" xmlns="http://www.w3.org/2000/svg">
<g id="Component 964375">
<g id="Vector">
<path d="M33.0328 5.57128C33.0027 5.52617 32.9689 5.49233 32.9313 5.4585C30.608 2.73303 27.1533 1 23.3 1C19.4468 1 15.992 2.73303 13.6688 5.4585C13.6312 5.49233 13.5936 5.52992 13.5635 5.57128C13.5635 5.57504 13.5597 5.57879 13.556 5.58631C11.7365 7.77797 10.6388 10.5937 10.6388 13.6612C10.6388 14.5747 10.7365 15.4657 10.9245 16.3228C8.29675 15.8642 4.68409 15.7439 1.31578 17.3829C1.1203 17.4769 1 17.6724 1 17.8904V32.1531C1 32.3486 1.1015 32.529 1.26315 32.6305C1.35337 32.6869 1.45863 32.717 1.56389 32.717C1.6466 32.717 1.73306 32.6982 1.812 32.6606C7.49602 29.8975 14.2251 32.6456 14.2928 32.6719C14.3041 32.6756 14.3153 32.6756 14.3266 32.6794C14.3454 32.6869 14.3642 32.6907 14.383 32.6944C14.4131 32.702 14.4469 32.7057 14.477 32.7095C14.4883 32.7095 14.4996 32.7132 14.5108 32.7132C14.5221 32.7132 14.5334 32.7132 14.5447 32.7132C14.5597 32.7132 14.5747 32.7132 14.5898 32.7095C14.6198 32.7057 14.6462 32.6982 14.6762 32.6907C14.6875 32.6869 14.7026 32.6832 14.7138 32.6794C14.7213 32.6794 14.7251 32.6794 14.7326 32.6719C14.8003 32.6418 21.5181 29.89 27.2134 32.6606C27.3863 32.7471 27.5931 32.7358 27.7585 32.6305C27.9239 32.529 28.0217 32.3486 28.0217 32.1531V25.4014C29.9351 24.6308 31.6155 23.4053 32.9313 21.864C32.9726 21.8301 33.0065 21.7925 33.0365 21.7474C33.0365 21.7437 33.0403 21.7399 33.044 21.7324C34.8635 19.5407 35.9612 16.725 35.9612 13.6575C35.9612 10.5899 34.8635 7.77797 33.044 5.58255C33.044 5.57879 33.0403 5.57504 33.0365 5.56752L33.0328 5.57128ZM31.6832 5.75548C31.2697 5.99231 30.8298 6.21035 30.3599 6.40584C29.7622 5.154 29.0141 4.06757 28.1532 3.20293C29.4878 3.82697 30.6832 4.69537 31.6832 5.75548ZM23.8601 2.16162C26.0931 2.41725 28.0592 4.1841 29.3186 6.7968C27.6833 7.34189 25.8112 7.65767 23.8601 7.70654V2.16162ZM23.8601 8.83809C25.9653 8.78546 27.9916 8.4396 29.766 7.83812C30.3599 9.39446 30.7246 11.1839 30.7847 13.0936H23.8601V8.83809ZM22.7324 2.16162V7.7103C20.7775 7.65767 18.9092 7.34189 17.2739 6.80056C18.537 4.18786 20.4993 2.42101 22.7324 2.16537V2.16162ZM15.8078 13.0936C15.8679 11.1839 16.2326 9.39446 16.8265 7.83812C18.6009 8.4396 20.6272 8.78546 22.7324 8.83809V13.0936H15.8078ZM22.7324 14.2214V16.0747C20.0708 15.8642 17.6423 16.3378 16.0784 16.7739C15.9281 15.9544 15.8341 15.101 15.8078 14.2214H22.7324ZM18.4393 3.20293C17.5784 4.06757 16.8303 5.154 16.2326 6.40584C15.7664 6.21035 15.3228 5.99231 14.9093 5.75548C15.9093 4.69537 17.1047 3.82697 18.4393 3.20293ZM14.165 6.62763C14.665 6.92461 15.2101 7.19528 15.7852 7.43964C15.1349 9.12379 14.7401 11.0448 14.68 13.0936H11.7816C11.8981 10.6689 12.7703 8.43584 14.165 6.63139V6.62763ZM13.9432 31.3411C12.7628 30.9426 10.3756 30.281 7.59752 30.281C5.86074 30.281 3.96983 30.5404 2.12402 31.2809V18.2475C6.99604 16.0672 12.5222 17.7701 13.9432 18.2776V31.3449V31.3411ZM14.5071 17.2814C14.1274 17.1348 13.2853 16.8378 12.1425 16.5709C11.9432 15.8153 11.8229 15.0296 11.7816 14.2214H14.68C14.7101 15.2176 14.8191 16.1799 14.9995 17.1047C14.7928 17.1762 14.6274 17.2363 14.5071 17.2814ZM26.8901 31.2847C22.0858 29.3524 16.9919 30.6983 15.071 31.3449V18.2776C16.492 17.7701 22.0181 16.0634 26.8901 18.2475V31.2847ZM27.7021 17.3792C26.4352 16.7626 25.1345 16.398 23.8639 16.2025V14.2176H30.7885C30.7283 16.1273 30.3637 17.9167 29.7697 19.4731C29.2096 19.2851 28.6231 19.1197 28.0179 18.9806V17.8829C28.0179 17.6686 27.8938 17.4694 27.7021 17.3754V17.3792ZM28.0179 20.1422C28.4652 20.2512 28.9051 20.3753 29.3261 20.5144C28.9502 21.2963 28.5104 21.9993 28.0179 22.6121V20.146V20.1422ZM28.1607 24.1083C29.0216 23.2436 29.7697 22.1572 30.3674 20.9054C30.8336 21.1008 31.2772 21.3189 31.6907 21.5557C30.6907 22.6158 29.4953 23.4842 28.1607 24.1083ZM32.435 20.6836C31.9351 20.3866 31.39 20.1159 30.8148 19.8716C31.4651 18.1874 31.8599 16.2664 31.92 14.2214H34.8184C34.7019 16.6461 33.8297 18.8791 32.435 20.6836ZM31.92 13.0936C31.8599 11.0448 31.4651 9.12379 30.8148 7.43964C31.39 7.19904 31.9351 6.92837 32.435 6.62763C33.8297 8.43584 34.7019 10.6651 34.8184 13.0898H31.92V13.0936Z" fill="#EAEAEA"/>
<path d="M33.0328 5.57128C33.0027 5.52617 32.9689 5.49233 32.9313 5.4585C30.608 2.73303 27.1533 1 23.3 1C19.4468 1 15.992 2.73303 13.6688 5.4585C13.6312 5.49233 13.5936 5.52992 13.5635 5.57128C13.5635 5.57504 13.5597 5.57879 13.556 5.58631C11.7365 7.77797 10.6388 10.5937 10.6388 13.6612C10.6388 14.5747 10.7365 15.4657 10.9245 16.3228C8.29675 15.8642 4.68409 15.7439 1.31578 17.3829C1.1203 17.4769 1 17.6724 1 17.8904V32.1531C1 32.3486 1.1015 32.529 1.26315 32.6305C1.35337 32.6869 1.45863 32.717 1.56389 32.717C1.6466 32.717 1.73306 32.6982 1.812 32.6606C7.49602 29.8975 14.2251 32.6456 14.2928 32.6719C14.3041 32.6756 14.3153 32.6756 14.3266 32.6794C14.3454 32.6869 14.3642 32.6907 14.383 32.6944C14.4131 32.702 14.4469 32.7057 14.477 32.7095C14.4883 32.7095 14.4996 32.7132 14.5108 32.7132C14.5221 32.7132 14.5334 32.7132 14.5447 32.7132C14.5597 32.7132 14.5747 32.7132 14.5898 32.7095C14.6198 32.7057 14.6462 32.6982 14.6762 32.6907C14.6875 32.6869 14.7026 32.6832 14.7138 32.6794C14.7213 32.6794 14.7251 32.6794 14.7326 32.6719C14.8003 32.6418 21.5181 29.89 27.2134 32.6606C27.3863 32.7471 27.5931 32.7358 27.7585 32.6305C27.9239 32.529 28.0217 32.3486 28.0217 32.1531V25.4014C29.9351 24.6308 31.6155 23.4053 32.9313 21.864C32.9726 21.8301 33.0065 21.7925 33.0365 21.7474C33.0365 21.7437 33.0403 21.7399 33.044 21.7324C34.8635 19.5407 35.9612 16.725 35.9612 13.6575C35.9612 10.5899 34.8635 7.77797 33.044 5.58255C33.044 5.57879 33.0403 5.57504 33.0365 5.56752L33.0328 5.57128ZM31.6832 5.75548C31.2697 5.99231 30.8298 6.21035 30.3599 6.40584C29.7622 5.154 29.0141 4.06757 28.1532 3.20293C29.4878 3.82697 30.6832 4.69537 31.6832 5.75548ZM23.8601 2.16162C26.0931 2.41725 28.0592 4.1841 29.3186 6.7968C27.6833 7.34189 25.8112 7.65767 23.8601 7.70654V2.16162ZM23.8601 8.83809C25.9653 8.78546 27.9916 8.4396 29.766 7.83812C30.3599 9.39446 30.7246 11.1839 30.7847 13.0936H23.8601V8.83809ZM22.7324 2.16162V7.7103C20.7775 7.65767 18.9092 7.34189 17.2739 6.80056C18.537 4.18786 20.4993 2.42101 22.7324 2.16537V2.16162ZM15.8078 13.0936C15.8679 11.1839 16.2326 9.39446 16.8265 7.83812C18.6009 8.4396 20.6272 8.78546 22.7324 8.83809V13.0936H15.8078ZM22.7324 14.2214V16.0747C20.0708 15.8642 17.6423 16.3378 16.0784 16.7739C15.9281 15.9544 15.8341 15.101 15.8078 14.2214H22.7324ZM18.4393 3.20293C17.5784 4.06757 16.8303 5.154 16.2326 6.40584C15.7664 6.21035 15.3228 5.99231 14.9093 5.75548C15.9093 4.69537 17.1047 3.82697 18.4393 3.20293ZM14.165 6.62763C14.665 6.92461 15.2101 7.19528 15.7852 7.43964C15.1349 9.12379 14.7401 11.0448 14.68 13.0936H11.7816C11.8981 10.6689 12.7703 8.43584 14.165 6.63139V6.62763ZM13.9432 31.3411C12.7628 30.9426 10.3756 30.281 7.59752 30.281C5.86074 30.281 3.96983 30.5404 2.12402 31.2809V18.2475C6.99604 16.0672 12.5222 17.7701 13.9432 18.2776V31.3449V31.3411ZM14.5071 17.2814C14.1274 17.1348 13.2853 16.8378 12.1425 16.5709C11.9432 15.8153 11.8229 15.0296 11.7816 14.2214H14.68C14.7101 15.2176 14.8191 16.1799 14.9995 17.1047C14.7928 17.1762 14.6274 17.2363 14.5071 17.2814ZM26.8901 31.2847C22.0858 29.3524 16.9919 30.6983 15.071 31.3449V18.2776C16.492 17.7701 22.0181 16.0634 26.8901 18.2475V31.2847ZM27.7021 17.3792C26.4352 16.7626 25.1345 16.398 23.8639 16.2025V14.2176H30.7885C30.7283 16.1273 30.3637 17.9167 29.7697 19.4731C29.2096 19.2851 28.6231 19.1197 28.0179 18.9806V17.8829C28.0179 17.6686 27.8938 17.4694 27.7021 17.3754V17.3792ZM28.0179 20.1422C28.4652 20.2512 28.9051 20.3753 29.3261 20.5144C28.9502 21.2963 28.5104 21.9993 28.0179 22.6121V20.146V20.1422ZM28.1607 24.1083C29.0216 23.2436 29.7697 22.1572 30.3674 20.9054C30.8336 21.1008 31.2772 21.3189 31.6907 21.5557C30.6907 22.6158 29.4953 23.4842 28.1607 24.1083ZM32.435 20.6836C31.9351 20.3866 31.39 20.1159 30.8148 19.8716C31.4651 18.1874 31.8599 16.2664 31.92 14.2214H34.8184C34.7019 16.6461 33.8297 18.8791 32.435 20.6836ZM31.92 13.0936C31.8599 11.0448 31.4651 9.12379 30.8148 7.43964C31.39 7.19904 31.9351 6.92837 32.435 6.62763C33.8297 8.43584 34.7019 10.6651 34.8184 13.0898H31.92V13.0936Z" fill="url(#paint0_linear_1930_11928)"/>
<path d="M33.0328 5.57128C33.0027 5.52617 32.9689 5.49233 32.9313 5.4585C30.608 2.73303 27.1533 1 23.3 1C19.4468 1 15.992 2.73303 13.6688 5.4585C13.6312 5.49233 13.5936 5.52992 13.5635 5.57128C13.5635 5.57504 13.5597 5.57879 13.556 5.58631C11.7365 7.77797 10.6388 10.5937 10.6388 13.6612C10.6388 14.5747 10.7365 15.4657 10.9245 16.3228C8.29675 15.8642 4.68409 15.7439 1.31578 17.3829C1.1203 17.4769 1 17.6724 1 17.8904V32.1531C1 32.3486 1.1015 32.529 1.26315 32.6305C1.35337 32.6869 1.45863 32.717 1.56389 32.717C1.6466 32.717 1.73306 32.6982 1.812 32.6606C7.49602 29.8975 14.2251 32.6456 14.2928 32.6719C14.3041 32.6756 14.3153 32.6756 14.3266 32.6794C14.3454 32.6869 14.3642 32.6907 14.383 32.6944C14.4131 32.702 14.4469 32.7057 14.477 32.7095C14.4883 32.7095 14.4996 32.7132 14.5108 32.7132C14.5221 32.7132 14.5334 32.7132 14.5447 32.7132C14.5597 32.7132 14.5747 32.7132 14.5898 32.7095C14.6198 32.7057 14.6462 32.6982 14.6762 32.6907C14.6875 32.6869 14.7026 32.6832 14.7138 32.6794C14.7213 32.6794 14.7251 32.6794 14.7326 32.6719C14.8003 32.6418 21.5181 29.89 27.2134 32.6606C27.3863 32.7471 27.5931 32.7358 27.7585 32.6305C27.9239 32.529 28.0217 32.3486 28.0217 32.1531V25.4014C29.9351 24.6308 31.6155 23.4053 32.9313 21.864C32.9726 21.8301 33.0065 21.7925 33.0365 21.7474C33.0365 21.7437 33.0403 21.7399 33.044 21.7324C34.8635 19.5407 35.9612 16.725 35.9612 13.6575C35.9612 10.5899 34.8635 7.77797 33.044 5.58255C33.044 5.57879 33.0403 5.57504 33.0365 5.56752L33.0328 5.57128ZM31.6832 5.75548C31.2697 5.99231 30.8298 6.21035 30.3599 6.40584C29.7622 5.154 29.0141 4.06757 28.1532 3.20293C29.4878 3.82697 30.6832 4.69537 31.6832 5.75548ZM23.8601 2.16162C26.0931 2.41725 28.0592 4.1841 29.3186 6.7968C27.6833 7.34189 25.8112 7.65767 23.8601 7.70654V2.16162ZM23.8601 8.83809C25.9653 8.78546 27.9916 8.4396 29.766 7.83812C30.3599 9.39446 30.7246 11.1839 30.7847 13.0936H23.8601V8.83809ZM22.7324 2.16162V7.7103C20.7775 7.65767 18.9092 7.34189 17.2739 6.80056C18.537 4.18786 20.4993 2.42101 22.7324 2.16537V2.16162ZM15.8078 13.0936C15.8679 11.1839 16.2326 9.39446 16.8265 7.83812C18.6009 8.4396 20.6272 8.78546 22.7324 8.83809V13.0936H15.8078ZM22.7324 14.2214V16.0747C20.0708 15.8642 17.6423 16.3378 16.0784 16.7739C15.9281 15.9544 15.8341 15.101 15.8078 14.2214H22.7324ZM18.4393 3.20293C17.5784 4.06757 16.8303 5.154 16.2326 6.40584C15.7664 6.21035 15.3228 5.99231 14.9093 5.75548C15.9093 4.69537 17.1047 3.82697 18.4393 3.20293ZM14.165 6.62763C14.665 6.92461 15.2101 7.19528 15.7852 7.43964C15.1349 9.12379 14.7401 11.0448 14.68 13.0936H11.7816C11.8981 10.6689 12.7703 8.43584 14.165 6.63139V6.62763ZM13.9432 31.3411C12.7628 30.9426 10.3756 30.281 7.59752 30.281C5.86074 30.281 3.96983 30.5404 2.12402 31.2809V18.2475C6.99604 16.0672 12.5222 17.7701 13.9432 18.2776V31.3449V31.3411ZM14.5071 17.2814C14.1274 17.1348 13.2853 16.8378 12.1425 16.5709C11.9432 15.8153 11.8229 15.0296 11.7816 14.2214H14.68C14.7101 15.2176 14.8191 16.1799 14.9995 17.1047C14.7928 17.1762 14.6274 17.2363 14.5071 17.2814ZM26.8901 31.2847C22.0858 29.3524 16.9919 30.6983 15.071 31.3449V18.2776C16.492 17.7701 22.0181 16.0634 26.8901 18.2475V31.2847ZM27.7021 17.3792C26.4352 16.7626 25.1345 16.398 23.8639 16.2025V14.2176H30.7885C30.7283 16.1273 30.3637 17.9167 29.7697 19.4731C29.2096 19.2851 28.6231 19.1197 28.0179 18.9806V17.8829C28.0179 17.6686 27.8938 17.4694 27.7021 17.3754V17.3792ZM28.0179 20.1422C28.4652 20.2512 28.9051 20.3753 29.3261 20.5144C28.9502 21.2963 28.5104 21.9993 28.0179 22.6121V20.146V20.1422ZM28.1607 24.1083C29.0216 23.2436 29.7697 22.1572 30.3674 20.9054C30.8336 21.1008 31.2772 21.3189 31.6907 21.5557C30.6907 22.6158 29.4953 23.4842 28.1607 24.1083ZM32.435 20.6836C31.9351 20.3866 31.39 20.1159 30.8148 19.8716C31.4651 18.1874 31.8599 16.2664 31.92 14.2214H34.8184C34.7019 16.6461 33.8297 18.8791 32.435 20.6836ZM31.92 13.0936C31.8599 11.0448 31.4651 9.12379 30.8148 7.43964C31.39 7.19904 31.9351 6.92837 32.435 6.62763C33.8297 8.43584 34.7019 10.6651 34.8184 13.0898H31.92V13.0936Z" stroke="#EAEAEA" stroke-width="0.25"/>
<path d="M33.0328 5.57128C33.0027 5.52617 32.9689 5.49233 32.9313 5.4585C30.608 2.73303 27.1533 1 23.3 1C19.4468 1 15.992 2.73303 13.6688 5.4585C13.6312 5.49233 13.5936 5.52992 13.5635 5.57128C13.5635 5.57504 13.5597 5.57879 13.556 5.58631C11.7365 7.77797 10.6388 10.5937 10.6388 13.6612C10.6388 14.5747 10.7365 15.4657 10.9245 16.3228C8.29675 15.8642 4.68409 15.7439 1.31578 17.3829C1.1203 17.4769 1 17.6724 1 17.8904V32.1531C1 32.3486 1.1015 32.529 1.26315 32.6305C1.35337 32.6869 1.45863 32.717 1.56389 32.717C1.6466 32.717 1.73306 32.6982 1.812 32.6606C7.49602 29.8975 14.2251 32.6456 14.2928 32.6719C14.3041 32.6756 14.3153 32.6756 14.3266 32.6794C14.3454 32.6869 14.3642 32.6907 14.383 32.6944C14.4131 32.702 14.4469 32.7057 14.477 32.7095C14.4883 32.7095 14.4996 32.7132 14.5108 32.7132C14.5221 32.7132 14.5334 32.7132 14.5447 32.7132C14.5597 32.7132 14.5747 32.7132 14.5898 32.7095C14.6198 32.7057 14.6462 32.6982 14.6762 32.6907C14.6875 32.6869 14.7026 32.6832 14.7138 32.6794C14.7213 32.6794 14.7251 32.6794 14.7326 32.6719C14.8003 32.6418 21.5181 29.89 27.2134 32.6606C27.3863 32.7471 27.5931 32.7358 27.7585 32.6305C27.9239 32.529 28.0217 32.3486 28.0217 32.1531V25.4014C29.9351 24.6308 31.6155 23.4053 32.9313 21.864C32.9726 21.8301 33.0065 21.7925 33.0365 21.7474C33.0365 21.7437 33.0403 21.7399 33.044 21.7324C34.8635 19.5407 35.9612 16.725 35.9612 13.6575C35.9612 10.5899 34.8635 7.77797 33.044 5.58255C33.044 5.57879 33.0403 5.57504 33.0365 5.56752L33.0328 5.57128ZM31.6832 5.75548C31.2697 5.99231 30.8298 6.21035 30.3599 6.40584C29.7622 5.154 29.0141 4.06757 28.1532 3.20293C29.4878 3.82697 30.6832 4.69537 31.6832 5.75548ZM23.8601 2.16162C26.0931 2.41725 28.0592 4.1841 29.3186 6.7968C27.6833 7.34189 25.8112 7.65767 23.8601 7.70654V2.16162ZM23.8601 8.83809C25.9653 8.78546 27.9916 8.4396 29.766 7.83812C30.3599 9.39446 30.7246 11.1839 30.7847 13.0936H23.8601V8.83809ZM22.7324 2.16162V7.7103C20.7775 7.65767 18.9092 7.34189 17.2739 6.80056C18.537 4.18786 20.4993 2.42101 22.7324 2.16537V2.16162ZM15.8078 13.0936C15.8679 11.1839 16.2326 9.39446 16.8265 7.83812C18.6009 8.4396 20.6272 8.78546 22.7324 8.83809V13.0936H15.8078ZM22.7324 14.2214V16.0747C20.0708 15.8642 17.6423 16.3378 16.0784 16.7739C15.9281 15.9544 15.8341 15.101 15.8078 14.2214H22.7324ZM18.4393 3.20293C17.5784 4.06757 16.8303 5.154 16.2326 6.40584C15.7664 6.21035 15.3228 5.99231 14.9093 5.75548C15.9093 4.69537 17.1047 3.82697 18.4393 3.20293ZM14.165 6.62763C14.665 6.92461 15.2101 7.19528 15.7852 7.43964C15.1349 9.12379 14.7401 11.0448 14.68 13.0936H11.7816C11.8981 10.6689 12.7703 8.43584 14.165 6.63139V6.62763ZM13.9432 31.3411C12.7628 30.9426 10.3756 30.281 7.59752 30.281C5.86074 30.281 3.96983 30.5404 2.12402 31.2809V18.2475C6.99604 16.0672 12.5222 17.7701 13.9432 18.2776V31.3449V31.3411ZM14.5071 17.2814C14.1274 17.1348 13.2853 16.8378 12.1425 16.5709C11.9432 15.8153 11.8229 15.0296 11.7816 14.2214H14.68C14.7101 15.2176 14.8191 16.1799 14.9995 17.1047C14.7928 17.1762 14.6274 17.2363 14.5071 17.2814ZM26.8901 31.2847C22.0858 29.3524 16.9919 30.6983 15.071 31.3449V18.2776C16.492 17.7701 22.0181 16.0634 26.8901 18.2475V31.2847ZM27.7021 17.3792C26.4352 16.7626 25.1345 16.398 23.8639 16.2025V14.2176H30.7885C30.7283 16.1273 30.3637 17.9167 29.7697 19.4731C29.2096 19.2851 28.6231 19.1197 28.0179 18.9806V17.8829C28.0179 17.6686 27.8938 17.4694 27.7021 17.3754V17.3792ZM28.0179 20.1422C28.4652 20.2512 28.9051 20.3753 29.3261 20.5144C28.9502 21.2963 28.5104 21.9993 28.0179 22.6121V20.146V20.1422ZM28.1607 24.1083C29.0216 23.2436 29.7697 22.1572 30.3674 20.9054C30.8336 21.1008 31.2772 21.3189 31.6907 21.5557C30.6907 22.6158 29.4953 23.4842 28.1607 24.1083ZM32.435 20.6836C31.9351 20.3866 31.39 20.1159 30.8148 19.8716C31.4651 18.1874 31.8599 16.2664 31.92 14.2214H34.8184C34.7019 16.6461 33.8297 18.8791 32.435 20.6836ZM31.92 13.0936C31.8599 11.0448 31.4651 9.12379 30.8148 7.43964C31.39 7.19904 31.9351 6.92837 32.435 6.62763C33.8297 8.43584 34.7019 10.6651 34.8184 13.0898H31.92V13.0936Z" stroke="url(#paint1_linear_1930_11928)" stroke-width="0.25"/>
</g>
</g>
<defs>
<linearGradient id="paint0_linear_1930_11928" x1="1" y1="1" x2="48.03" y2="8.1605" gradientUnits="userSpaceOnUse">
<stop stop-color="#9342CE"/>
<stop offset="0.514675" stop-color="#6284B6"/>
<stop offset="1" stop-color="#35C29F"/>
</linearGradient>
<linearGradient id="paint1_linear_1930_11928" x1="1" y1="1" x2="48.03" y2="8.1605" gradientUnits="userSpaceOnUse">
<stop stop-color="#9342CE"/>
<stop offset="0.514675" stop-color="#6284B6"/>
<stop offset="1" stop-color="#35C29F"/>
</linearGradient>
</defs>
</svg>
