<svg width="25" height="24" viewBox="0 0 25 24" fill="none" xmlns="http://www.w3.org/2000/svg">
<path d="M19.0103 7.13885H9.18466C8.91499 7.13885 8.69531 6.86918 8.69531 6.6495C8.69531 6.37983 8.91384 6.16016 9.18466 6.16016H19.0103C19.28 6.16016 19.4997 6.42982 19.4997 6.6495C19.4997 6.91917 19.2812 7.13885 19.0103 7.13885Z" fill="#404040"/>
<path d="M19.0103 17.842H9.18466C8.91499 17.842 8.69531 17.5723 8.69531 17.3526C8.69531 17.083 8.91384 16.8633 9.18466 16.8633H19.0103C19.28 16.8633 19.4997 17.1329 19.4997 17.3526C19.4997 17.6223 19.2812 17.842 19.0103 17.842Z" fill="#404040"/>
<path d="M19.0103 12.4904H9.18466C8.91499 12.4904 8.69531 12.2207 8.69531 12.0011C8.69531 11.7314 8.91384 11.5117 9.18466 11.5117H19.0103C19.28 11.5117 19.4997 11.7814 19.4997 12.0011C19.4997 12.2707 19.2812 12.4904 19.0103 12.4904Z" fill="#404040"/>
<path d="M6.94483 6.64849C6.94483 7.61209 5.5 7.61209 5.5 6.64849C5.5 5.68488 6.94483 5.68488 6.94483 6.64849Z" fill="#404040"/>
<path d="M6.94483 17.3516C6.94483 18.3152 5.5 18.3152 5.5 17.3516C5.5 16.388 6.94483 16.388 6.94483 17.3516Z" fill="#404040"/>
<path d="M6.94483 11.9922C6.94483 12.9558 5.5 12.9558 5.5 11.9922C5.5 11.0286 6.94483 11.0286 6.94483 11.9922Z" fill="#404040"/>
</svg>
