<svg width="24" height="24" viewBox="0 0 24 24" fill="none" xmlns="http://www.w3.org/2000/svg">
<g id="Kebab Menu">
<g id="Vector">
<path d="M13.8602 5.85C13.8602 6.59558 13.2557 7.2 12.5102 7.2C11.7646 7.2 11.1602 6.59558 11.1602 5.85C11.1602 5.10442 11.7646 4.5 12.5102 4.5C13.2557 4.5 13.8602 5.10442 13.8602 5.85Z" fill="black" fill-opacity="0.5"/>
<path d="M13.8602 11.25C13.8602 11.9956 13.2557 12.6 12.5102 12.6C11.7646 12.6 11.1602 11.9956 11.1602 11.25C11.1602 10.5044 11.7646 9.9 12.5102 9.9C13.2557 9.9 13.8602 10.5044 13.8602 11.25Z" fill="black" fill-opacity="0.5"/>
<path d="M13.8602 16.65C13.8602 17.3956 13.2557 18 12.5102 18C11.7646 18 11.1602 17.3956 11.1602 16.65C11.1602 15.9044 11.7646 15.3 12.5102 15.3C13.2557 15.3 13.8602 15.9044 13.8602 16.65Z" fill="black" fill-opacity="0.5"/>
</g>
</g>
</svg>
