<svg width="30" height="33" viewBox="0 0 30 33" fill="none" xmlns="http://www.w3.org/2000/svg">
<g id="Component 964375">
<g id="Union">
<path d="M22.9873 6.63477C24.1911 6.6624 25.3688 7.10427 26.4043 7.91602C27.4398 8.7278 28.2981 9.88173 28.8936 11.2646C29.489 12.6475 29.8016 14.2117 29.8008 15.8027C29.7999 17.3401 29.5065 18.8531 28.9473 20.2012C28.388 21.5492 27.5809 22.6898 26.6006 23.5176V32.0137C26.6005 32.1373 26.5751 32.2592 26.5283 32.3662C26.4815 32.4731 26.4149 32.5623 26.334 32.624C26.253 32.6858 26.1609 32.7177 26.0674 32.7178C25.9739 32.7178 25.8817 32.6856 25.8008 32.624L22.8672 30.3643L19.9336 32.624C19.8526 32.6858 19.7605 32.7177 19.667 32.7178C19.5735 32.7178 19.4814 32.6857 19.4004 32.624C19.3194 32.5623 19.2519 32.4731 19.2051 32.3662C19.1583 32.2592 19.1339 32.1373 19.1338 32.0137V23.5176C18.1193 22.6609 17.2909 21.4696 16.7305 20.0615C16.1701 18.6532 15.8966 17.0756 15.9375 15.4854C15.9784 13.8951 16.3315 12.346 16.9629 10.9912C17.5943 9.63655 18.482 8.52262 19.5381 7.75879C20.5943 6.99491 21.7834 6.60719 22.9873 6.63477ZM25.5332 24.2607C24.6884 24.7259 23.7824 24.9658 22.8672 24.9658C21.9518 24.9658 21.0452 24.726 20.2002 24.2607V30.7881L22.6006 28.9375C22.6816 28.8757 22.7737 28.8428 22.8672 28.8428C22.9607 28.8428 23.0528 28.8757 23.1338 28.9375L25.5332 30.7881V24.2607ZM26.0674 1C26.2087 1 26.3443 1.0741 26.4443 1.20605C26.5444 1.33823 26.6006 1.51815 26.6006 1.70508V5.22852C26.6006 5.41545 26.5444 5.59536 26.4443 5.72754C26.3443 5.85956 26.2087 5.93359 26.0674 5.93359C25.926 5.93358 25.7904 5.85957 25.6904 5.72754C25.5904 5.59536 25.5342 5.41545 25.5342 5.22852V2.40918H2.06641V24.9639H17.2676C17.4088 24.964 17.5446 25.038 17.6445 25.1699C17.7446 25.3021 17.8008 25.482 17.8008 25.6689C17.8007 25.8557 17.7444 26.0349 17.6445 26.167C17.5446 26.299 17.4089 26.3739 17.2676 26.374H1.5332C1.3918 26.374 1.25624 26.2991 1.15625 26.167C1.0563 26.0349 1.00004 25.8558 1 25.6689V1.70508C1 1.51815 1.05623 1.33823 1.15625 1.20605C1.25622 1.07408 1.3919 1.00005 1.5332 1H26.0674ZM25.1123 8.64062C24.0404 8.05386 22.8606 7.90017 21.7227 8.19922C20.5846 8.49837 19.5392 9.23701 18.7188 10.3213C17.8983 11.4056 17.3387 12.7871 17.1123 14.291C16.886 15.7948 17.0023 17.354 17.4463 18.7705C17.8903 20.1871 18.6427 21.3981 19.6074 22.25C20.5722 23.1018 21.7069 23.5557 22.8672 23.5557C24.4231 23.5556 25.9155 22.739 27.0156 21.2852C28.1158 19.8312 28.7334 17.8589 28.7334 15.8027C28.7333 14.2696 28.3896 12.7709 27.7451 11.4961C27.1005 10.2213 26.1842 9.22746 25.1123 8.64062ZM8.4668 6.63379C8.60825 6.63379 8.7447 6.70767 8.84473 6.83984C8.94475 6.97202 9 7.15194 9 7.33887C8.99995 7.52557 8.94457 7.70482 8.84473 7.83691C8.7447 7.96909 8.60825 8.04297 8.4668 8.04297C8.30765 8.04992 8.15163 8.10365 8.00977 8.19922C7.86784 8.29484 7.74328 8.43046 7.64551 8.59668C7.5194 8.8238 7.43559 9.08739 7.40039 9.36523C7.36527 9.64288 7.38016 9.92746 7.44336 10.1963C7.62737 11.2183 7.78406 12.5124 7.38672 13.4287C7.34765 13.5167 7.30445 13.6013 7.25684 13.6816C7.3046 13.7622 7.34755 13.8473 7.38672 13.9355C7.78402 14.8517 7.62734 16.1451 7.44336 17.167C7.38009 17.436 7.36521 17.7212 7.40039 17.999C7.43559 18.2769 7.51937 18.5404 7.64551 18.7676C7.74328 18.9338 7.86785 19.0694 8.00977 19.165C8.1516 19.2606 8.30769 19.3134 8.4668 19.3203C8.60825 19.3203 8.7447 19.3952 8.84473 19.5273C8.94453 19.6595 9 19.8387 9 20.0254C9 20.2121 8.94454 20.3913 8.84473 20.5234C8.7447 20.6556 8.60825 20.7305 8.4668 20.7305C8.14607 20.7235 7.83057 20.621 7.54395 20.4307C7.25731 20.2404 7.00719 19.9668 6.81152 19.6309C6.58556 19.2371 6.43066 18.7793 6.36035 18.2939C6.29013 17.8089 6.30545 17.3089 6.40527 16.833C6.47728 16.4242 6.70192 15.1793 6.46191 14.626C6.41128 14.5098 6.35184 14.376 5.80566 14.376C5.66427 14.376 5.52872 14.302 5.42871 14.1699C5.32877 14.0378 5.27255 13.8586 5.27246 13.6719C5.27246 13.4849 5.32869 13.305 5.42871 13.1729C5.52871 13.0408 5.66429 12.9668 5.80566 12.9668C6.35192 12.9668 6.41127 12.833 6.46191 12.7168C6.70185 12.1637 6.47734 10.9199 6.40527 10.5107C6.30662 10.0361 6.29202 9.53706 6.3623 9.05371C6.43261 8.57049 6.58684 8.11506 6.81152 7.72266C7.00797 7.38871 7.25837 7.11717 7.54492 6.92871C7.83151 6.74026 8.14672 6.63948 8.4668 6.63379ZM14.0938 6.70898C14.2202 6.62509 14.3666 6.61112 14.501 6.66992C14.6353 6.72878 14.747 6.85535 14.8105 7.02246C14.8741 7.18967 14.8844 7.38394 14.8398 7.56152L11.6396 20.248C11.6043 20.3887 11.5363 20.511 11.4453 20.5977C11.3544 20.6842 11.2449 20.7306 11.1328 20.7305C11.0759 20.7306 11.0189 20.7188 10.9648 20.6953C10.8984 20.6662 10.8371 20.62 10.7842 20.5596C10.7312 20.4991 10.6877 20.4255 10.6562 20.3428C10.6248 20.26 10.6056 20.1696 10.6006 20.0771C10.5955 19.9847 10.6048 19.8916 10.627 19.8037L13.8262 7.11719C13.8707 6.93968 13.9673 6.79294 14.0938 6.70898Z" fill="#EAEAEA"/>
<path d="M22.9873 6.63477C24.1911 6.6624 25.3688 7.10427 26.4043 7.91602C27.4398 8.7278 28.2981 9.88173 28.8936 11.2646C29.489 12.6475 29.8016 14.2117 29.8008 15.8027C29.7999 17.3401 29.5065 18.8531 28.9473 20.2012C28.388 21.5492 27.5809 22.6898 26.6006 23.5176V32.0137C26.6005 32.1373 26.5751 32.2592 26.5283 32.3662C26.4815 32.4731 26.4149 32.5623 26.334 32.624C26.253 32.6858 26.1609 32.7177 26.0674 32.7178C25.9739 32.7178 25.8817 32.6856 25.8008 32.624L22.8672 30.3643L19.9336 32.624C19.8526 32.6858 19.7605 32.7177 19.667 32.7178C19.5735 32.7178 19.4814 32.6857 19.4004 32.624C19.3194 32.5623 19.2519 32.4731 19.2051 32.3662C19.1583 32.2592 19.1339 32.1373 19.1338 32.0137V23.5176C18.1193 22.6609 17.2909 21.4696 16.7305 20.0615C16.1701 18.6532 15.8966 17.0756 15.9375 15.4854C15.9784 13.8951 16.3315 12.346 16.9629 10.9912C17.5943 9.63655 18.482 8.52262 19.5381 7.75879C20.5943 6.99491 21.7834 6.60719 22.9873 6.63477ZM25.5332 24.2607C24.6884 24.7259 23.7824 24.9658 22.8672 24.9658C21.9518 24.9658 21.0452 24.726 20.2002 24.2607V30.7881L22.6006 28.9375C22.6816 28.8757 22.7737 28.8428 22.8672 28.8428C22.9607 28.8428 23.0528 28.8757 23.1338 28.9375L25.5332 30.7881V24.2607ZM26.0674 1C26.2087 1 26.3443 1.0741 26.4443 1.20605C26.5444 1.33823 26.6006 1.51815 26.6006 1.70508V5.22852C26.6006 5.41545 26.5444 5.59536 26.4443 5.72754C26.3443 5.85956 26.2087 5.93359 26.0674 5.93359C25.926 5.93358 25.7904 5.85957 25.6904 5.72754C25.5904 5.59536 25.5342 5.41545 25.5342 5.22852V2.40918H2.06641V24.9639H17.2676C17.4088 24.964 17.5446 25.038 17.6445 25.1699C17.7446 25.3021 17.8008 25.482 17.8008 25.6689C17.8007 25.8557 17.7444 26.0349 17.6445 26.167C17.5446 26.299 17.4089 26.3739 17.2676 26.374H1.5332C1.3918 26.374 1.25624 26.2991 1.15625 26.167C1.0563 26.0349 1.00004 25.8558 1 25.6689V1.70508C1 1.51815 1.05623 1.33823 1.15625 1.20605C1.25622 1.07408 1.3919 1.00005 1.5332 1H26.0674ZM25.1123 8.64062C24.0404 8.05386 22.8606 7.90017 21.7227 8.19922C20.5846 8.49837 19.5392 9.23701 18.7188 10.3213C17.8983 11.4056 17.3387 12.7871 17.1123 14.291C16.886 15.7948 17.0023 17.354 17.4463 18.7705C17.8903 20.1871 18.6427 21.3981 19.6074 22.25C20.5722 23.1018 21.7069 23.5557 22.8672 23.5557C24.4231 23.5556 25.9155 22.739 27.0156 21.2852C28.1158 19.8312 28.7334 17.8589 28.7334 15.8027C28.7333 14.2696 28.3896 12.7709 27.7451 11.4961C27.1005 10.2213 26.1842 9.22746 25.1123 8.64062ZM8.4668 6.63379C8.60825 6.63379 8.7447 6.70767 8.84473 6.83984C8.94475 6.97202 9 7.15194 9 7.33887C8.99995 7.52557 8.94457 7.70482 8.84473 7.83691C8.7447 7.96909 8.60825 8.04297 8.4668 8.04297C8.30765 8.04992 8.15163 8.10365 8.00977 8.19922C7.86784 8.29484 7.74328 8.43046 7.64551 8.59668C7.5194 8.8238 7.43559 9.08739 7.40039 9.36523C7.36527 9.64288 7.38016 9.92746 7.44336 10.1963C7.62737 11.2183 7.78406 12.5124 7.38672 13.4287C7.34765 13.5167 7.30445 13.6013 7.25684 13.6816C7.3046 13.7622 7.34755 13.8473 7.38672 13.9355C7.78402 14.8517 7.62734 16.1451 7.44336 17.167C7.38009 17.436 7.36521 17.7212 7.40039 17.999C7.43559 18.2769 7.51937 18.5404 7.64551 18.7676C7.74328 18.9338 7.86785 19.0694 8.00977 19.165C8.1516 19.2606 8.30769 19.3134 8.4668 19.3203C8.60825 19.3203 8.7447 19.3952 8.84473 19.5273C8.94453 19.6595 9 19.8387 9 20.0254C9 20.2121 8.94454 20.3913 8.84473 20.5234C8.7447 20.6556 8.60825 20.7305 8.4668 20.7305C8.14607 20.7235 7.83057 20.621 7.54395 20.4307C7.25731 20.2404 7.00719 19.9668 6.81152 19.6309C6.58556 19.2371 6.43066 18.7793 6.36035 18.2939C6.29013 17.8089 6.30545 17.3089 6.40527 16.833C6.47728 16.4242 6.70192 15.1793 6.46191 14.626C6.41128 14.5098 6.35184 14.376 5.80566 14.376C5.66427 14.376 5.52872 14.302 5.42871 14.1699C5.32877 14.0378 5.27255 13.8586 5.27246 13.6719C5.27246 13.4849 5.32869 13.305 5.42871 13.1729C5.52871 13.0408 5.66429 12.9668 5.80566 12.9668C6.35192 12.9668 6.41127 12.833 6.46191 12.7168C6.70185 12.1637 6.47734 10.9199 6.40527 10.5107C6.30662 10.0361 6.29202 9.53706 6.3623 9.05371C6.43261 8.57049 6.58684 8.11506 6.81152 7.72266C7.00797 7.38871 7.25837 7.11717 7.54492 6.92871C7.83151 6.74026 8.14672 6.63948 8.4668 6.63379ZM14.0938 6.70898C14.2202 6.62509 14.3666 6.61112 14.501 6.66992C14.6353 6.72878 14.747 6.85535 14.8105 7.02246C14.8741 7.18967 14.8844 7.38394 14.8398 7.56152L11.6396 20.248C11.6043 20.3887 11.5363 20.511 11.4453 20.5977C11.3544 20.6842 11.2449 20.7306 11.1328 20.7305C11.0759 20.7306 11.0189 20.7188 10.9648 20.6953C10.8984 20.6662 10.8371 20.62 10.7842 20.5596C10.7312 20.4991 10.6877 20.4255 10.6562 20.3428C10.6248 20.26 10.6056 20.1696 10.6006 20.0771C10.5955 19.9847 10.6048 19.8916 10.627 19.8037L13.8262 7.11719C13.8707 6.93968 13.9673 6.79294 14.0938 6.70898Z" fill="url(#paint0_linear_1930_11898)"/>
<path d="M22.9873 6.63477L22.991 6.47481H22.991L22.9873 6.63477ZM26.4043 7.91602L26.503 7.79009V7.79009L26.4043 7.91602ZM28.8936 11.2646L29.0405 11.2014V11.2014L28.8936 11.2646ZM29.8008 15.8027L29.9608 15.8028V15.8028L29.8008 15.8027ZM28.9473 20.2012L29.0951 20.2625L28.9473 20.2012ZM26.6006 23.5176L26.4974 23.3953L26.4406 23.4433V23.5176H26.6006ZM26.6006 32.0137L26.7606 32.0138V32.0137H26.6006ZM26.5283 32.3662L26.6749 32.4304L26.6749 32.4303L26.5283 32.3662ZM26.334 32.624L26.431 32.7512L26.431 32.7512L26.334 32.624ZM26.0674 32.7178V32.8778H26.0675L26.0674 32.7178ZM25.8008 32.624L25.7031 32.7508L25.7039 32.7513L25.8008 32.624ZM22.8672 30.3643L22.9648 30.2375L22.8672 30.1623L22.7695 30.2375L22.8672 30.3643ZM19.9336 32.624L20.0306 32.7512L20.0312 32.7508L19.9336 32.624ZM19.667 32.7178V32.8778H19.6671L19.667 32.7178ZM19.4004 32.624L19.3033 32.7512L19.3034 32.7513L19.4004 32.624ZM19.2051 32.3662L19.0585 32.4303L19.0585 32.4304L19.2051 32.3662ZM19.1338 32.0137H18.9738V32.0138L19.1338 32.0137ZM19.1338 23.5176H19.2938V23.4433L19.237 23.3953L19.1338 23.5176ZM16.7305 20.0615L16.5818 20.1207L16.5818 20.1207L16.7305 20.0615ZM15.9375 15.4854L15.7776 15.4812V15.4812L15.9375 15.4854ZM16.9629 10.9912L16.8179 10.9236L16.8179 10.9236L16.9629 10.9912ZM19.5381 7.75879L19.4443 7.62914L19.4443 7.62914L19.5381 7.75879ZM25.5332 24.2607H25.6932V23.99L25.456 24.1206L25.5332 24.2607ZM22.8672 24.9658V25.1258H22.8672L22.8672 24.9658ZM20.2002 24.2607L20.2774 24.1206L20.0402 23.99V24.2607H20.2002ZM20.2002 30.7881H20.0402V31.1135L20.2979 30.9148L20.2002 30.7881ZM22.6006 28.9375L22.5036 28.8102L22.5029 28.8108L22.6006 28.9375ZM22.8672 28.8428L22.8673 28.6828H22.8672V28.8428ZM23.1338 28.9375L23.2315 28.8108L23.2308 28.8103L23.1338 28.9375ZM25.5332 30.7881L25.4355 30.9148L25.6932 31.1135V30.7881H25.5332ZM26.4443 1.20605L26.5719 1.10951L26.5719 1.10942L26.4443 1.20605ZM26.4443 5.72754L26.5719 5.82415L26.5719 5.82409L26.4443 5.72754ZM26.0674 5.93359L26.0674 6.09359H26.0674V5.93359ZM25.6904 5.72754L25.5628 5.82409L25.5629 5.82414L25.6904 5.72754ZM25.5342 2.40918H25.6942V2.24918H25.5342V2.40918ZM2.06641 2.40918V2.24918H1.90641V2.40918H2.06641ZM2.06641 24.9639H1.90641V25.1239H2.06641V24.9639ZM17.2676 24.9639L17.2677 24.8039H17.2676V24.9639ZM17.6445 25.1699L17.7721 25.0734L17.7721 25.0733L17.6445 25.1699ZM17.8008 25.6689L17.9608 25.669V25.6689H17.8008ZM17.6445 26.167L17.7721 26.2635L17.7722 26.2635L17.6445 26.167ZM17.2676 26.374V26.534H17.2677L17.2676 26.374ZM1.5332 26.374L1.53315 26.534H1.5332V26.374ZM1.15625 26.167L1.02865 26.2635L1.02866 26.2635L1.15625 26.167ZM1 25.6689H0.84V25.669L1 25.6689ZM1.15625 1.20605L1.02871 1.10944L1.02866 1.10951L1.15625 1.20605ZM1.5332 1V0.84L1.53315 0.84L1.5332 1ZM25.1123 8.64062L25.1891 8.50028L25.1891 8.50028L25.1123 8.64062ZM21.7227 8.19922L21.682 8.04447L21.682 8.04448L21.7227 8.19922ZM18.7188 10.3213L18.5912 10.2247V10.2247L18.7188 10.3213ZM17.1123 14.291L16.9541 14.2672L16.9541 14.2672L17.1123 14.291ZM17.4463 18.7705L17.2936 18.8184L17.2936 18.8184L17.4463 18.7705ZM19.6074 22.25L19.5015 22.3699L19.5015 22.3699L19.6074 22.25ZM22.8672 23.5557V23.7157H22.8672L22.8672 23.5557ZM27.0156 21.2852L27.1432 21.3817L27.1432 21.3817L27.0156 21.2852ZM28.7334 15.8027H28.8934V15.8027L28.7334 15.8027ZM27.7451 11.4961L27.8879 11.4239L27.8879 11.4239L27.7451 11.4961ZM8.4668 6.63379V6.47376L8.46395 6.47381L8.4668 6.63379ZM8.84473 6.83984L8.97231 6.7433L8.97231 6.74329L8.84473 6.83984ZM9 7.33887L9.16 7.33891V7.33887H9ZM8.84473 7.83691L8.97231 7.93346L8.97237 7.93339L8.84473 7.83691ZM8.4668 8.04297V7.88282L8.45981 7.88312L8.4668 8.04297ZM8.00977 8.19922L7.92038 8.06652L7.92037 8.06652L8.00977 8.19922ZM7.64551 8.59668L7.50755 8.51553L7.50562 8.51901L7.64551 8.59668ZM7.40039 9.36523L7.24166 9.34513L7.24166 9.34515L7.40039 9.36523ZM7.44336 10.1963L7.60105 10.1679L7.59911 10.1597L7.44336 10.1963ZM7.38672 13.4287L7.53296 13.4936L7.53351 13.4924L7.38672 13.4287ZM7.25684 13.6816L7.1192 13.6L7.07082 13.6817L7.11922 13.7633L7.25684 13.6816ZM7.38672 13.9355L7.53352 13.8719L7.53296 13.8706L7.38672 13.9355ZM7.44336 17.167L7.59933 17.2037L7.60083 17.1953L7.44336 17.167ZM7.40039 17.999L7.24166 18.0191L7.24166 18.0191L7.40039 17.999ZM7.64551 18.7676L7.50559 18.8453L7.5076 18.8487L7.64551 18.7676ZM8.00977 19.165L7.92038 19.2977L7.92039 19.2977L8.00977 19.165ZM8.4668 19.3203L8.4598 19.4803H8.4668V19.3203ZM8.84473 19.5273L8.9724 19.4309L8.97231 19.4308L8.84473 19.5273ZM9 20.0254L9.16 20.0254V20.0254H9ZM8.84473 20.5234L8.97231 20.62L8.9724 20.6199L8.84473 20.5234ZM8.4668 20.7305L8.46333 20.8905H8.4668V20.7305ZM7.54395 20.4307L7.45544 20.564L7.45545 20.564L7.54395 20.4307ZM6.81152 19.6309L6.67275 19.7105L6.67327 19.7114L6.81152 19.6309ZM6.36035 18.2939L6.202 18.3169L6.202 18.3169L6.36035 18.2939ZM6.40527 16.833L6.56195 16.8659L6.56285 16.8608L6.40527 16.833ZM6.46191 14.626L6.6087 14.5623L6.6086 14.5621L6.46191 14.626ZM5.80566 14.376L5.80565 14.536H5.80566V14.376ZM5.42871 14.1699L5.30112 14.2665L5.30115 14.2665L5.42871 14.1699ZM5.27246 13.6719H5.11246V13.672L5.27246 13.6719ZM5.42871 13.1729L5.30116 13.0763L5.30112 13.0763L5.42871 13.1729ZM5.80566 12.9668V12.8068H5.80565L5.80566 12.9668ZM6.46191 12.7168L6.6086 12.7807L6.6087 12.7805L6.46191 12.7168ZM6.40527 10.5107L6.56292 10.483L6.56193 10.4782L6.40527 10.5107ZM6.3623 9.05371L6.20397 9.03067L6.20397 9.03069L6.3623 9.05371ZM6.81152 7.72266L6.67361 7.64152L6.67267 7.64315L6.81152 7.72266ZM7.54492 6.92871L7.45701 6.79502L7.457 6.79503L7.54492 6.92871ZM14.0938 6.70898L14.0053 6.57565L14.0053 6.57569L14.0938 6.70898ZM14.501 6.66992L14.5652 6.52337L14.5651 6.52335L14.501 6.66992ZM14.8105 7.02246L14.9601 6.96565L14.9601 6.96561L14.8105 7.02246ZM14.8398 7.56152L14.995 7.60066L14.995 7.60046L14.8398 7.56152ZM11.6396 20.248L11.4845 20.2089L11.4845 20.2091L11.6396 20.248ZM11.4453 20.5977L11.5556 20.7135L11.5557 20.7135L11.4453 20.5977ZM11.1328 20.7305L11.133 20.5705L11.1324 20.5705L11.1328 20.7305ZM10.9648 20.6953L10.9006 20.8419L10.9011 20.8421L10.9648 20.6953ZM10.7842 20.5596L10.6638 20.665L10.6638 20.665L10.7842 20.5596ZM10.6562 20.3428L10.5067 20.3996L10.5067 20.3996L10.6562 20.3428ZM10.6006 20.0771L10.4408 20.0859V20.0859L10.6006 20.0771ZM10.627 19.8037L10.4718 19.7646L10.4718 19.7647L10.627 19.8037ZM13.8262 7.11719L13.9813 7.15631L13.9814 7.15613L13.8262 7.11719ZM22.9873 6.63477L22.9836 6.79472C24.1497 6.82149 25.2946 7.24939 26.3056 8.04194L26.4043 7.91602L26.503 7.79009C25.443 6.95916 24.2326 6.50331 22.991 6.47481L22.9873 6.63477ZM26.4043 7.91602L26.3056 8.04194C27.3172 8.83498 28.1602 9.96605 28.7466 11.3279L28.8936 11.2646L29.0405 11.2014C28.436 9.79741 27.5625 8.62062 26.503 7.79009L26.4043 7.91602ZM28.8936 11.2646L28.7466 11.3279C29.3329 12.6896 29.6416 14.2321 29.6408 15.8027L29.8008 15.8027L29.9608 15.8028C29.9616 14.1912 29.6451 12.6054 29.0405 11.2014L28.8936 11.2646ZM29.8008 15.8027L29.6408 15.8026C29.6399 17.3202 29.3502 18.8122 28.7995 20.1399L28.9473 20.2012L29.0951 20.2625C29.6628 18.8939 29.9599 17.3601 29.9608 15.8028L29.8008 15.8027ZM28.9473 20.2012L28.7995 20.1399C28.2487 21.4676 27.4556 22.5861 26.4974 23.3953L26.6006 23.5176L26.7038 23.6398C27.7061 22.7934 28.5274 21.6309 29.0951 20.2625L28.9473 20.2012ZM26.6006 23.5176H26.4406V32.0137H26.6006H26.7606V23.5176H26.6006ZM26.6006 32.0137L26.4406 32.0135C26.4405 32.1159 26.4194 32.216 26.3817 32.3021L26.5283 32.3662L26.6749 32.4303C26.7309 32.3024 26.7605 32.1586 26.7606 32.0138L26.6006 32.0137ZM26.5283 32.3662L26.3818 32.302C26.3439 32.3884 26.2927 32.4543 26.2369 32.4968L26.334 32.624L26.431 32.7512C26.5371 32.6703 26.6191 32.5577 26.6749 32.4304L26.5283 32.3662ZM26.334 32.624L26.2369 32.4968C26.1819 32.5388 26.1234 32.5577 26.0672 32.5578L26.0674 32.7178L26.0675 32.8778C26.1984 32.8776 26.3241 32.8328 26.431 32.7512L26.334 32.624ZM26.0674 32.7178V32.5578C26.0116 32.5578 25.953 32.5388 25.8977 32.4967L25.8008 32.624L25.7039 32.7513C25.8105 32.8325 25.9363 32.8778 26.0674 32.8778V32.7178ZM25.8008 32.624L25.8984 32.4973L22.9648 30.2375L22.8672 30.3643L22.7695 30.491L25.7031 32.7508L25.8008 32.624ZM22.8672 30.3643L22.7695 30.2375L19.836 32.4973L19.9336 32.624L20.0312 32.7508L22.9648 30.491L22.8672 30.3643ZM19.9336 32.624L19.8366 32.4968C19.7814 32.5389 19.723 32.5577 19.6669 32.5578L19.667 32.7178L19.6671 32.8778C19.7981 32.8777 19.9238 32.8327 20.0306 32.7512L19.9336 32.624ZM19.667 32.7178V32.5578C19.6112 32.5578 19.5526 32.5389 19.4973 32.4967L19.4004 32.624L19.3034 32.7513C19.4101 32.8326 19.5359 32.8778 19.667 32.8778V32.7178ZM19.4004 32.624L19.4974 32.4968C19.441 32.4538 19.3892 32.3877 19.3517 32.3021L19.2051 32.3662L19.0585 32.4304C19.1146 32.5585 19.1978 32.6707 19.3033 32.7512L19.4004 32.624ZM19.2051 32.3662L19.3517 32.3021C19.3143 32.2167 19.2939 32.1168 19.2938 32.0135L19.1338 32.0137L18.9738 32.0138C18.9739 32.1577 19.0022 32.3017 19.0585 32.4303L19.2051 32.3662ZM19.1338 32.0137H19.2938V23.5176H19.1338H18.9738V32.0137H19.1338ZM19.1338 23.5176L19.237 23.3953C18.2453 22.5579 17.4312 21.3895 16.8791 20.0024L16.7305 20.0615L16.5818 20.1207C17.1506 21.5497 17.9933 22.7639 19.0306 23.6398L19.1338 23.5176ZM16.7305 20.0615L16.8791 20.0024C16.3271 18.6151 16.0571 17.0592 16.0974 15.4895L15.9375 15.4854L15.7776 15.4812C15.7362 17.0921 16.013 18.6913 16.5818 20.1207L16.7305 20.0615ZM15.9375 15.4854L16.0974 15.4895C16.1378 13.9197 16.4864 12.3924 17.1079 11.0588L16.9629 10.9912L16.8179 10.9236C16.1766 12.2996 15.819 13.8705 15.7776 15.4812L15.9375 15.4854ZM16.9629 10.9912L17.1079 11.0588C17.7295 9.72521 18.6009 8.63408 19.6319 7.88843L19.5381 7.75879L19.4443 7.62914C18.3631 8.41115 17.4591 9.54789 16.8179 10.9236L16.9629 10.9912ZM19.5381 7.75879L19.6318 7.88844C20.6623 7.14322 21.8176 6.76801 22.9836 6.79472L22.9873 6.63477L22.991 6.47481C21.7492 6.44636 20.5264 6.84661 19.4443 7.62914L19.5381 7.75879ZM25.5332 24.2607L25.456 24.1206C24.6335 24.5735 23.7539 24.8058 22.8672 24.8058L22.8672 24.9658L22.8672 25.1258C23.8109 25.1258 24.7433 24.8783 25.6104 24.4009L25.5332 24.2607ZM22.8672 24.9658V24.8058C21.9803 24.8058 21.1001 24.5736 20.2774 24.1206L20.2002 24.2607L20.123 24.4009C20.9903 24.8785 21.9233 25.1258 22.8672 25.1258V24.9658ZM20.2002 24.2607H20.0402V30.7881H20.2002H20.3602V24.2607H20.2002ZM20.2002 30.7881L20.2979 30.9148L22.6983 29.0642L22.6006 28.9375L22.5029 28.8108L20.1025 30.6614L20.2002 30.7881ZM22.6006 28.9375L22.6976 29.0648C22.7537 29.0219 22.8123 29.0028 22.8672 29.0028V28.8428V28.6828C22.735 28.6828 22.6095 28.7296 22.5036 28.8102L22.6006 28.9375ZM22.8672 28.8428L22.8671 29.0028C22.9221 29.0028 22.9808 29.022 23.0367 29.0647L23.1338 28.9375L23.2308 28.8103C23.1248 28.7294 22.9993 28.6829 22.8673 28.6828L22.8672 28.8428ZM23.1338 28.9375L23.0361 29.0642L25.4355 30.9148L25.5332 30.7881L25.6309 30.6614L23.2315 28.8108L23.1338 28.9375ZM25.5332 30.7881H25.6932V24.2607H25.5332H25.3732V30.7881H25.5332ZM26.0674 1V1.16C26.1497 1.16 26.2412 1.20295 26.3168 1.30269L26.4443 1.20605L26.5719 1.10942C26.4474 0.945244 26.2677 0.84 26.0674 0.84V1ZM26.4443 1.20605L26.3167 1.3026C26.393 1.40341 26.4406 1.54823 26.4406 1.70508H26.6006H26.7606C26.7606 1.48807 26.6957 1.27306 26.5719 1.10951L26.4443 1.20605ZM26.6006 1.70508H26.4406V5.22852H26.6006H26.7606V1.70508H26.6006ZM26.6006 5.22852H26.4406C26.4406 5.38537 26.393 5.53019 26.3167 5.63099L26.4443 5.72754L26.5719 5.82409C26.6957 5.66053 26.7606 5.44552 26.7606 5.22852H26.6006ZM26.4443 5.72754L26.3168 5.63093C26.2412 5.73069 26.1498 5.77359 26.0674 5.77359V5.93359V6.09359C26.2677 6.09359 26.4474 5.98843 26.5719 5.82415L26.4443 5.72754ZM26.0674 5.93359L26.0674 5.77359C25.985 5.77358 25.8935 5.73068 25.818 5.63094L25.6904 5.72754L25.5629 5.82414C25.6873 5.98847 25.867 6.09357 26.0674 6.09359L26.0674 5.93359ZM25.6904 5.72754L25.818 5.63099C25.7417 5.53019 25.6942 5.38537 25.6942 5.22852H25.5342H25.3742C25.3742 5.44552 25.4391 5.66053 25.5628 5.82409L25.6904 5.72754ZM25.5342 5.22852H25.6942V2.40918H25.5342H25.3742V5.22852H25.5342ZM25.5342 2.40918V2.24918H2.06641V2.40918V2.56918H25.5342V2.40918ZM2.06641 2.40918H1.90641V24.9639H2.06641H2.22641V2.40918H2.06641ZM2.06641 24.9639V25.1239H17.2676V24.9639V24.8039H2.06641V24.9639ZM17.2676 24.9639L17.2674 25.1239C17.3499 25.124 17.4416 25.167 17.517 25.2665L17.6445 25.1699L17.7721 25.0733C17.6476 24.909 17.4677 24.8041 17.2677 24.8039L17.2676 24.9639ZM17.6445 25.1699L17.5169 25.2665C17.5932 25.3673 17.6408 25.5121 17.6408 25.6689H17.8008H17.9608C17.9608 25.4519 17.8959 25.2369 17.7721 25.0734L17.6445 25.1699ZM17.8008 25.6689L17.6408 25.6689C17.6407 25.8254 17.5932 25.9696 17.5169 26.0705L17.6445 26.167L17.7722 26.2635C17.8956 26.1002 17.9607 25.886 17.9608 25.669L17.8008 25.6689ZM17.6445 26.167L17.5169 26.0704C17.4411 26.1706 17.3494 26.2139 17.2674 26.214L17.2676 26.374L17.2677 26.534C17.4684 26.5338 17.6481 26.4275 17.7721 26.2635L17.6445 26.167ZM17.2676 26.374V26.214H1.5332V26.374V26.534H17.2676V26.374ZM1.5332 26.374L1.53326 26.214C1.45135 26.214 1.35975 26.1708 1.28384 26.0704L1.15625 26.167L1.02866 26.2635C1.15272 26.4275 1.33225 26.534 1.53315 26.534L1.5332 26.374ZM1.15625 26.167L1.28385 26.0705C1.20753 25.9696 1.16003 25.8255 1.16 25.6689L1 25.6689L0.84 25.669C0.840048 25.886 0.905065 26.1002 1.02865 26.2635L1.15625 26.167ZM1 25.6689H1.16V1.70508H1H0.84V25.6689H1ZM1 1.70508H1.16C1.16 1.54823 1.20756 1.40341 1.28384 1.3026L1.15625 1.20605L1.02866 1.10951C0.904898 1.27306 0.84 1.48807 0.84 1.70508H1ZM1.15625 1.20605L1.28379 1.30267C1.35929 1.20299 1.45086 1.16003 1.53326 1.16L1.5332 1L1.53315 0.84C1.33293 0.840073 1.15314 0.945175 1.02871 1.10944L1.15625 1.20605ZM1.5332 1V1.16H26.0674V1V0.84H1.5332V1ZM25.1123 8.64062L25.1891 8.50028C24.0829 7.89472 22.8612 7.73458 21.682 8.04447L21.7227 8.19922L21.7633 8.35396C22.8601 8.06575 23.9979 8.21301 25.0355 8.78097L25.1123 8.64062ZM21.7227 8.19922L21.682 8.04448C20.504 8.35413 19.4298 9.11654 18.5912 10.2247L18.7188 10.3213L18.8463 10.4178C19.6487 9.35748 20.6652 8.64262 21.7633 8.35396L21.7227 8.19922ZM18.7188 10.3213L18.5912 10.2247C17.7528 11.3327 17.184 12.74 16.9541 14.2672L17.1123 14.291L17.2705 14.3148C17.4934 12.8342 18.0438 11.4784 18.8463 10.4178L18.7188 10.3213ZM17.1123 14.291L16.9541 14.2672C16.7243 15.7944 16.8422 17.3781 17.2936 18.8184L17.4463 18.7705L17.599 18.7227C17.1624 17.3299 17.0478 15.7952 17.2705 14.3148L17.1123 14.291ZM17.4463 18.7705L17.2936 18.8184C17.745 20.2584 18.5117 21.496 19.5015 22.3699L19.6074 22.25L19.7133 22.1301C18.7736 21.3003 18.0357 20.1157 17.599 18.7226L17.4463 18.7705ZM19.6074 22.25L19.5015 22.3699C20.4921 23.2446 21.6637 23.7157 22.8672 23.7157V23.5557V23.3957C21.7502 23.3957 20.6522 22.959 19.7133 22.1301L19.6074 22.25ZM22.8672 23.5557L22.8672 23.7157C24.4822 23.7156 26.0187 22.8678 27.1432 21.3817L27.0156 21.2852L26.888 21.1886C25.8122 22.6103 24.364 23.3956 22.8672 23.3957L22.8672 23.5557ZM27.0156 21.2852L27.1432 21.3817C28.267 19.8964 28.8934 17.889 28.8934 15.8027H28.7334H28.5734C28.5734 17.8287 27.9645 19.766 26.888 21.1886L27.0156 21.2852ZM28.7334 15.8027L28.8934 15.8027C28.8933 14.2464 28.5445 12.7227 27.8879 11.4239L27.7451 11.4961L27.6023 11.5683C28.2347 12.8191 28.5733 14.2928 28.5734 15.8027L28.7334 15.8027ZM27.7451 11.4961L27.8879 11.4239C27.2313 10.1252 26.2939 9.10514 25.1891 8.50028L25.1123 8.64062L25.0355 8.78097C26.0744 9.34978 26.9698 10.3173 27.6023 11.5683L27.7451 11.4961ZM8.4668 6.63379V6.79379C8.54967 6.79379 8.64186 6.83692 8.71714 6.93639L8.84473 6.83984L8.97231 6.74329C8.84755 6.57842 8.66683 6.47379 8.4668 6.47379V6.63379ZM8.84473 6.83984L8.71714 6.93639C8.79309 7.03676 8.84 7.18139 8.84 7.33887H9H9.16C9.16 7.12249 9.09641 6.90729 8.97231 6.7433L8.84473 6.83984ZM9 7.33887L8.84 7.33882C8.83996 7.49588 8.79302 7.63997 8.71709 7.74044L8.84473 7.83691L8.97237 7.93339C9.09612 7.76968 9.15994 7.55526 9.16 7.33891L9 7.33887ZM8.84473 7.83691L8.71714 7.74037C8.64186 7.83984 8.54967 7.88297 8.4668 7.88297V8.04297V8.20297C8.66683 8.20297 8.84755 8.09834 8.97231 7.93346L8.84473 7.83691ZM8.4668 8.04297L8.45981 7.88312C8.26867 7.89147 8.08448 7.95598 7.92038 8.06652L8.00977 8.19922L8.09916 8.33192C8.21879 8.25133 8.34663 8.20837 8.47378 8.20282L8.4668 8.04297ZM8.00977 8.19922L7.92037 8.06652C7.75638 8.17701 7.61603 8.33121 7.5076 8.51556L7.64551 8.59668L7.78342 8.6778C7.87052 8.52972 7.9793 8.41267 8.09916 8.33191L8.00977 8.19922ZM7.64551 8.59668L7.50562 8.51901C7.3688 8.76542 7.27919 9.04881 7.24166 9.34513L7.40039 9.36523L7.55912 9.38534C7.59198 9.12597 7.66999 8.88219 7.78539 8.67435L7.64551 8.59668ZM7.40039 9.36523L7.24166 9.34515C7.20416 9.64158 7.22001 9.94535 7.2876 10.2329L7.44336 10.1963L7.59911 10.1597C7.54032 9.90956 7.52638 9.64419 7.55913 9.38531L7.40039 9.36523ZM7.44336 10.1963L7.28589 10.2246C7.37738 10.7328 7.46085 11.3023 7.47308 11.8557C7.48535 12.4107 7.42553 12.9371 7.23993 13.3651L7.38672 13.4287L7.53351 13.4924C7.74526 13.0041 7.80575 12.4252 7.79301 11.8486C7.78023 11.2704 7.69334 10.6818 7.60083 10.1679L7.44336 10.1963ZM7.38672 13.4287L7.24048 13.3638C7.20372 13.4466 7.16335 13.5256 7.1192 13.6L7.25684 13.6816L7.39447 13.7632C7.44556 13.6771 7.49158 13.5868 7.53296 13.4936L7.38672 13.4287ZM7.25684 13.6816L7.11922 13.7633C7.16325 13.8375 7.20339 13.9169 7.24048 14.0005L7.38672 13.9355L7.53296 13.8706C7.49171 13.7777 7.44594 13.6868 7.39445 13.6L7.25684 13.6816ZM7.38672 13.9355L7.23993 13.9992C7.42551 14.4271 7.48532 14.9532 7.47306 15.5081C7.46082 16.0613 7.37737 16.6305 7.28589 17.1386L7.44336 17.167L7.60083 17.1953C7.69333 16.6815 7.7802 16.0932 7.79298 15.5151C7.80572 14.9388 7.74523 14.3601 7.53351 13.8719L7.38672 13.9355ZM7.44336 17.167L7.28761 17.1304C7.21993 17.4181 7.2041 17.7225 7.24166 18.0191L7.40039 17.999L7.55912 17.9789C7.52632 17.7199 7.54025 17.4539 7.59911 17.2036L7.44336 17.167ZM7.40039 17.999L7.24166 18.0191C7.2792 18.3155 7.36878 18.5988 7.50563 18.8453L7.64551 18.7676L7.78539 18.6899C7.66997 18.4821 7.59198 18.2383 7.55912 17.9789L7.40039 17.999ZM7.64551 18.7676L7.5076 18.8487C7.61603 19.033 7.75638 19.1873 7.92038 19.2977L8.00977 19.165L8.09916 19.0323C7.97932 18.9516 7.87053 18.8345 7.78341 18.6864L7.64551 18.7676ZM8.00977 19.165L7.92039 19.2977C8.08499 19.4086 8.26931 19.4718 8.45981 19.4802L8.4668 19.3203L8.47379 19.1605C8.34607 19.1549 8.21821 19.1125 8.09914 19.0323L8.00977 19.165ZM8.4668 19.3203V19.4803C8.54903 19.4803 8.64141 19.5238 8.71714 19.6239L8.84473 19.5273L8.97231 19.4308C8.848 19.2665 8.66747 19.1603 8.4668 19.1603V19.3203ZM8.84473 19.5273L8.71705 19.6238C8.79303 19.7244 8.84 19.8684 8.84 20.0254H9H9.16C9.16 19.8089 9.09604 19.5946 8.9724 19.4309L8.84473 19.5273ZM9 20.0254L8.84 20.0254C8.84 20.1824 8.79303 20.3264 8.71706 20.427L8.84473 20.5234L8.9724 20.6199C9.09605 20.4562 9.16 20.2419 9.16 20.0254L9 20.0254ZM8.84473 20.5234L8.71714 20.4269C8.64141 20.527 8.54903 20.5705 8.4668 20.5705V20.7305V20.8905C8.66747 20.8905 8.848 20.7843 8.97231 20.62L8.84473 20.5234ZM8.4668 20.7305L8.47026 20.5705C8.18208 20.5643 7.89576 20.4722 7.63244 20.2974L7.54395 20.4307L7.45545 20.564C7.76539 20.7697 8.11007 20.8828 8.46333 20.8904L8.4668 20.7305ZM7.54395 20.4307L7.63245 20.2974C7.36884 20.1223 7.1348 19.868 6.94978 19.5503L6.81152 19.6309L6.67327 19.7114C6.87958 20.0656 7.14579 20.3584 7.45544 20.564L7.54395 20.4307ZM6.81152 19.6309L6.95029 19.5512C6.73509 19.1762 6.58633 18.7379 6.5187 18.271L6.36035 18.2939L6.202 18.3169C6.27499 18.8207 6.43603 19.298 6.67275 19.7105L6.81152 19.6309ZM6.36035 18.2939L6.5187 18.271C6.45114 17.8044 6.46593 17.3232 6.56187 16.8659L6.40527 16.833L6.24868 16.8002C6.14498 17.2946 6.12912 17.8134 6.202 18.3169L6.36035 18.2939ZM6.40527 16.833L6.56285 16.8608C6.59875 16.6569 6.67422 16.2366 6.71007 15.7967C6.728 15.5767 6.73632 15.3484 6.72418 15.1376C6.71217 14.929 6.67961 14.7258 6.6087 14.5623L6.46191 14.626L6.31513 14.6896C6.36422 14.8028 6.39358 14.9627 6.40471 15.156C6.4157 15.3469 6.40836 15.5592 6.39113 15.7707C6.35665 16.1938 6.2838 16.6003 6.2477 16.8053L6.40527 16.833ZM6.46191 14.626L6.6086 14.5621C6.58051 14.4976 6.53488 14.3913 6.39523 14.3164C6.27014 14.2493 6.08615 14.216 5.80566 14.216V14.376V14.536C6.07135 14.536 6.19017 14.5695 6.244 14.5984C6.28328 14.6195 6.29268 14.6381 6.31523 14.6899L6.46191 14.626ZM5.80566 14.376L5.80568 14.216C5.72323 14.216 5.63181 14.1731 5.55627 14.0733L5.42871 14.1699L5.30115 14.2665C5.42562 14.4309 5.60531 14.536 5.80565 14.536L5.80566 14.376ZM5.42871 14.1699L5.5563 14.0734C5.48003 13.9726 5.43254 13.8284 5.43246 13.6718L5.27246 13.6719L5.11246 13.672C5.11257 13.8889 5.17751 14.1031 5.30112 14.2665L5.42871 14.1699ZM5.27246 13.6719H5.43246C5.43246 13.515 5.48002 13.3702 5.5563 13.2694L5.42871 13.1729L5.30112 13.0763C5.17736 13.2399 5.11246 13.4549 5.11246 13.6719H5.27246ZM5.42871 13.1729L5.55626 13.2694C5.63181 13.1697 5.72326 13.1268 5.80568 13.1268L5.80566 12.9668L5.80565 12.8068C5.60532 12.8068 5.42562 12.9119 5.30116 13.0763L5.42871 13.1729ZM5.80566 12.9668V13.1268C6.08618 13.1268 6.27018 13.0935 6.39526 13.0264C6.53492 12.9515 6.58052 12.8451 6.6086 12.7807L6.46191 12.7168L6.31523 12.6529C6.29266 12.7047 6.28328 12.7233 6.24403 12.7444C6.19021 12.7732 6.07141 12.8068 5.80566 12.8068V12.9668ZM6.46191 12.7168L6.6087 12.7805C6.67959 12.617 6.71215 12.4139 6.72416 12.2055C6.7363 11.9947 6.72799 11.7667 6.71007 11.5468C6.67424 11.1071 6.59878 10.687 6.56285 10.483L6.40527 10.5107L6.2477 10.5385C6.28383 10.7436 6.35667 11.15 6.39113 11.5728C6.40835 11.7841 6.41568 11.9963 6.40469 12.1871C6.39356 12.3802 6.36421 12.54 6.31513 12.6531L6.46191 12.7168ZM6.40527 10.5107L6.56193 10.4782C6.46711 10.022 6.45302 9.54178 6.52064 9.07673L6.3623 9.05371L6.20397 9.03069C6.13102 9.53234 6.14613 10.0502 6.24862 10.5433L6.40527 10.5107ZM6.3623 9.05371L6.52064 9.07675C6.58826 8.61198 6.73636 8.17592 6.95037 7.80216L6.81152 7.72266L6.67267 7.64315C6.43732 8.05419 6.27696 8.52899 6.20397 9.03067L6.3623 9.05371ZM6.81152 7.72266L6.94943 7.80378C7.13516 7.48806 7.36938 7.23566 7.63284 7.06239L7.54492 6.92871L7.457 6.79503C7.14736 6.99868 6.88078 7.28937 6.67362 7.64153L6.81152 7.72266ZM7.54492 6.92871L7.63283 7.0624C7.89598 6.88936 8.18199 6.79888 8.46964 6.79376L8.4668 6.63379L8.46395 6.47381C8.11146 6.48009 7.76704 6.59116 7.45701 6.79502L7.54492 6.92871ZM14.0938 6.70898L14.1822 6.84232C14.2652 6.78727 14.3543 6.78036 14.4368 6.8165L14.501 6.66992L14.5651 6.52335C14.379 6.44189 14.1753 6.4629 14.0053 6.57565L14.0938 6.70898ZM14.501 6.66992L14.4368 6.81647C14.5238 6.85462 14.6093 6.94345 14.661 7.07931L14.8105 7.02246L14.9601 6.96561C14.8847 6.76724 14.7468 6.60294 14.5652 6.52337L14.501 6.66992ZM14.8105 7.02246L14.661 7.07928C14.7125 7.21494 14.7215 7.37574 14.6847 7.52258L14.8398 7.56152L14.995 7.60046C15.0473 7.39214 15.0356 7.1644 14.9601 6.96565L14.8105 7.02246ZM14.8398 7.56152L14.6847 7.52239L11.4845 20.2089L11.6396 20.248L11.7948 20.2872L14.995 7.60066L14.8398 7.56152ZM11.6396 20.248L11.4845 20.2091C11.4554 20.3249 11.4008 20.4191 11.3349 20.4818L11.4453 20.5977L11.5557 20.7135C11.6717 20.603 11.7533 20.4524 11.7948 20.287L11.6396 20.248ZM11.4453 20.5977L11.335 20.4818C11.2701 20.5435 11.1991 20.5705 11.133 20.5705L11.1328 20.7305L11.1326 20.8905C11.2907 20.8907 11.4386 20.825 11.5556 20.7135L11.4453 20.5977ZM11.1328 20.7305L11.1324 20.5705C11.098 20.5706 11.0629 20.5635 11.0286 20.5486L10.9648 20.6953L10.9011 20.8421C10.975 20.8742 11.0537 20.8907 11.1332 20.8905L11.1328 20.7305ZM10.9648 20.6953L11.029 20.5488C10.9866 20.5302 10.9439 20.4991 10.9045 20.4541L10.7842 20.5596L10.6638 20.665C10.7304 20.741 10.8103 20.8023 10.9006 20.8419L10.9648 20.6953ZM10.7842 20.5596L10.9045 20.4541C10.8652 20.4093 10.8311 20.3525 10.8058 20.2859L10.6562 20.3428L10.5067 20.3996C10.5443 20.4984 10.5971 20.5889 10.6638 20.665L10.7842 20.5596ZM10.6562 20.3428L10.8058 20.286C10.7803 20.2189 10.7645 20.1447 10.7603 20.0684L10.6006 20.0771L10.4408 20.0859C10.4468 20.1944 10.4692 20.301 10.5067 20.3996L10.6562 20.3428ZM10.6006 20.0771L10.7603 20.0684C10.7562 19.9923 10.7639 19.9153 10.7821 19.8428L10.627 19.8037L10.4718 19.7647C10.4458 19.868 10.4349 19.9772 10.4408 20.0859L10.6006 20.0771ZM10.627 19.8037L10.7821 19.8428L13.9813 7.15631L13.8262 7.11719L13.671 7.07806L10.4718 19.7646L10.627 19.8037ZM13.8262 7.11719L13.9814 7.15613C14.0182 7.00927 14.0953 6.90001 14.1822 6.84228L14.0938 6.70898L14.0053 6.57569C13.8393 6.68586 13.7232 6.87008 13.671 7.07825L13.8262 7.11719Z" fill="#EAEAEA"/>
<path d="M22.9873 6.63477L22.991 6.47481H22.991L22.9873 6.63477ZM26.4043 7.91602L26.503 7.79009V7.79009L26.4043 7.91602ZM28.8936 11.2646L29.0405 11.2014V11.2014L28.8936 11.2646ZM29.8008 15.8027L29.9608 15.8028V15.8028L29.8008 15.8027ZM28.9473 20.2012L29.0951 20.2625L28.9473 20.2012ZM26.6006 23.5176L26.4974 23.3953L26.4406 23.4433V23.5176H26.6006ZM26.6006 32.0137L26.7606 32.0138V32.0137H26.6006ZM26.5283 32.3662L26.6749 32.4304L26.6749 32.4303L26.5283 32.3662ZM26.334 32.624L26.431 32.7512L26.431 32.7512L26.334 32.624ZM26.0674 32.7178V32.8778H26.0675L26.0674 32.7178ZM25.8008 32.624L25.7031 32.7508L25.7039 32.7513L25.8008 32.624ZM22.8672 30.3643L22.9648 30.2375L22.8672 30.1623L22.7695 30.2375L22.8672 30.3643ZM19.9336 32.624L20.0306 32.7512L20.0312 32.7508L19.9336 32.624ZM19.667 32.7178V32.8778H19.6671L19.667 32.7178ZM19.4004 32.624L19.3033 32.7512L19.3034 32.7513L19.4004 32.624ZM19.2051 32.3662L19.0585 32.4303L19.0585 32.4304L19.2051 32.3662ZM19.1338 32.0137H18.9738V32.0138L19.1338 32.0137ZM19.1338 23.5176H19.2938V23.4433L19.237 23.3953L19.1338 23.5176ZM16.7305 20.0615L16.5818 20.1207L16.5818 20.1207L16.7305 20.0615ZM15.9375 15.4854L15.7776 15.4812V15.4812L15.9375 15.4854ZM16.9629 10.9912L16.8179 10.9236L16.8179 10.9236L16.9629 10.9912ZM19.5381 7.75879L19.4443 7.62914L19.4443 7.62914L19.5381 7.75879ZM25.5332 24.2607H25.6932V23.99L25.456 24.1206L25.5332 24.2607ZM22.8672 24.9658V25.1258H22.8672L22.8672 24.9658ZM20.2002 24.2607L20.2774 24.1206L20.0402 23.99V24.2607H20.2002ZM20.2002 30.7881H20.0402V31.1135L20.2979 30.9148L20.2002 30.7881ZM22.6006 28.9375L22.5036 28.8102L22.5029 28.8108L22.6006 28.9375ZM22.8672 28.8428L22.8673 28.6828H22.8672V28.8428ZM23.1338 28.9375L23.2315 28.8108L23.2308 28.8103L23.1338 28.9375ZM25.5332 30.7881L25.4355 30.9148L25.6932 31.1135V30.7881H25.5332ZM26.4443 1.20605L26.5719 1.10951L26.5719 1.10942L26.4443 1.20605ZM26.4443 5.72754L26.5719 5.82415L26.5719 5.82409L26.4443 5.72754ZM26.0674 5.93359L26.0674 6.09359H26.0674V5.93359ZM25.6904 5.72754L25.5628 5.82409L25.5629 5.82414L25.6904 5.72754ZM25.5342 2.40918H25.6942V2.24918H25.5342V2.40918ZM2.06641 2.40918V2.24918H1.90641V2.40918H2.06641ZM2.06641 24.9639H1.90641V25.1239H2.06641V24.9639ZM17.2676 24.9639L17.2677 24.8039H17.2676V24.9639ZM17.6445 25.1699L17.7721 25.0734L17.7721 25.0733L17.6445 25.1699ZM17.8008 25.6689L17.9608 25.669V25.6689H17.8008ZM17.6445 26.167L17.7721 26.2635L17.7722 26.2635L17.6445 26.167ZM17.2676 26.374V26.534H17.2677L17.2676 26.374ZM1.5332 26.374L1.53315 26.534H1.5332V26.374ZM1.15625 26.167L1.02865 26.2635L1.02866 26.2635L1.15625 26.167ZM1 25.6689H0.84V25.669L1 25.6689ZM1.15625 1.20605L1.02871 1.10944L1.02866 1.10951L1.15625 1.20605ZM1.5332 1V0.84L1.53315 0.84L1.5332 1ZM25.1123 8.64062L25.1891 8.50028L25.1891 8.50028L25.1123 8.64062ZM21.7227 8.19922L21.682 8.04447L21.682 8.04448L21.7227 8.19922ZM18.7188 10.3213L18.5912 10.2247V10.2247L18.7188 10.3213ZM17.1123 14.291L16.9541 14.2672L16.9541 14.2672L17.1123 14.291ZM17.4463 18.7705L17.2936 18.8184L17.2936 18.8184L17.4463 18.7705ZM19.6074 22.25L19.5015 22.3699L19.5015 22.3699L19.6074 22.25ZM22.8672 23.5557V23.7157H22.8672L22.8672 23.5557ZM27.0156 21.2852L27.1432 21.3817L27.1432 21.3817L27.0156 21.2852ZM28.7334 15.8027H28.8934V15.8027L28.7334 15.8027ZM27.7451 11.4961L27.8879 11.4239L27.8879 11.4239L27.7451 11.4961ZM8.4668 6.63379V6.47376L8.46395 6.47381L8.4668 6.63379ZM8.84473 6.83984L8.97231 6.7433L8.97231 6.74329L8.84473 6.83984ZM9 7.33887L9.16 7.33891V7.33887H9ZM8.84473 7.83691L8.97231 7.93346L8.97237 7.93339L8.84473 7.83691ZM8.4668 8.04297V7.88282L8.45981 7.88312L8.4668 8.04297ZM8.00977 8.19922L7.92038 8.06652L7.92037 8.06652L8.00977 8.19922ZM7.64551 8.59668L7.50755 8.51553L7.50562 8.51901L7.64551 8.59668ZM7.40039 9.36523L7.24166 9.34513L7.24166 9.34515L7.40039 9.36523ZM7.44336 10.1963L7.60105 10.1679L7.59911 10.1597L7.44336 10.1963ZM7.38672 13.4287L7.53296 13.4936L7.53351 13.4924L7.38672 13.4287ZM7.25684 13.6816L7.1192 13.6L7.07082 13.6817L7.11922 13.7633L7.25684 13.6816ZM7.38672 13.9355L7.53352 13.8719L7.53296 13.8706L7.38672 13.9355ZM7.44336 17.167L7.59933 17.2037L7.60083 17.1953L7.44336 17.167ZM7.40039 17.999L7.24166 18.0191L7.24166 18.0191L7.40039 17.999ZM7.64551 18.7676L7.50559 18.8453L7.5076 18.8487L7.64551 18.7676ZM8.00977 19.165L7.92038 19.2977L7.92039 19.2977L8.00977 19.165ZM8.4668 19.3203L8.4598 19.4803H8.4668V19.3203ZM8.84473 19.5273L8.9724 19.4309L8.97231 19.4308L8.84473 19.5273ZM9 20.0254L9.16 20.0254V20.0254H9ZM8.84473 20.5234L8.97231 20.62L8.9724 20.6199L8.84473 20.5234ZM8.4668 20.7305L8.46333 20.8905H8.4668V20.7305ZM7.54395 20.4307L7.45544 20.564L7.45545 20.564L7.54395 20.4307ZM6.81152 19.6309L6.67275 19.7105L6.67327 19.7114L6.81152 19.6309ZM6.36035 18.2939L6.202 18.3169L6.202 18.3169L6.36035 18.2939ZM6.40527 16.833L6.56195 16.8659L6.56285 16.8608L6.40527 16.833ZM6.46191 14.626L6.6087 14.5623L6.6086 14.5621L6.46191 14.626ZM5.80566 14.376L5.80565 14.536H5.80566V14.376ZM5.42871 14.1699L5.30112 14.2665L5.30115 14.2665L5.42871 14.1699ZM5.27246 13.6719H5.11246V13.672L5.27246 13.6719ZM5.42871 13.1729L5.30116 13.0763L5.30112 13.0763L5.42871 13.1729ZM5.80566 12.9668V12.8068H5.80565L5.80566 12.9668ZM6.46191 12.7168L6.6086 12.7807L6.6087 12.7805L6.46191 12.7168ZM6.40527 10.5107L6.56292 10.483L6.56193 10.4782L6.40527 10.5107ZM6.3623 9.05371L6.20397 9.03067L6.20397 9.03069L6.3623 9.05371ZM6.81152 7.72266L6.67361 7.64152L6.67267 7.64315L6.81152 7.72266ZM7.54492 6.92871L7.45701 6.79502L7.457 6.79503L7.54492 6.92871ZM14.0938 6.70898L14.0053 6.57565L14.0053 6.57569L14.0938 6.70898ZM14.501 6.66992L14.5652 6.52337L14.5651 6.52335L14.501 6.66992ZM14.8105 7.02246L14.9601 6.96565L14.9601 6.96561L14.8105 7.02246ZM14.8398 7.56152L14.995 7.60066L14.995 7.60046L14.8398 7.56152ZM11.6396 20.248L11.4845 20.2089L11.4845 20.2091L11.6396 20.248ZM11.4453 20.5977L11.5556 20.7135L11.5557 20.7135L11.4453 20.5977ZM11.1328 20.7305L11.133 20.5705L11.1324 20.5705L11.1328 20.7305ZM10.9648 20.6953L10.9006 20.8419L10.9011 20.8421L10.9648 20.6953ZM10.7842 20.5596L10.6638 20.665L10.6638 20.665L10.7842 20.5596ZM10.6562 20.3428L10.5067 20.3996L10.5067 20.3996L10.6562 20.3428ZM10.6006 20.0771L10.4408 20.0859V20.0859L10.6006 20.0771ZM10.627 19.8037L10.4718 19.7646L10.4718 19.7647L10.627 19.8037ZM13.8262 7.11719L13.9813 7.15631L13.9814 7.15613L13.8262 7.11719ZM22.9873 6.63477L22.9836 6.79472C24.1497 6.82149 25.2946 7.24939 26.3056 8.04194L26.4043 7.91602L26.503 7.79009C25.443 6.95916 24.2326 6.50331 22.991 6.47481L22.9873 6.63477ZM26.4043 7.91602L26.3056 8.04194C27.3172 8.83498 28.1602 9.96605 28.7466 11.3279L28.8936 11.2646L29.0405 11.2014C28.436 9.79741 27.5625 8.62062 26.503 7.79009L26.4043 7.91602ZM28.8936 11.2646L28.7466 11.3279C29.3329 12.6896 29.6416 14.2321 29.6408 15.8027L29.8008 15.8027L29.9608 15.8028C29.9616 14.1912 29.6451 12.6054 29.0405 11.2014L28.8936 11.2646ZM29.8008 15.8027L29.6408 15.8026C29.6399 17.3202 29.3502 18.8122 28.7995 20.1399L28.9473 20.2012L29.0951 20.2625C29.6628 18.8939 29.9599 17.3601 29.9608 15.8028L29.8008 15.8027ZM28.9473 20.2012L28.7995 20.1399C28.2487 21.4676 27.4556 22.5861 26.4974 23.3953L26.6006 23.5176L26.7038 23.6398C27.7061 22.7934 28.5274 21.6309 29.0951 20.2625L28.9473 20.2012ZM26.6006 23.5176H26.4406V32.0137H26.6006H26.7606V23.5176H26.6006ZM26.6006 32.0137L26.4406 32.0135C26.4405 32.1159 26.4194 32.216 26.3817 32.3021L26.5283 32.3662L26.6749 32.4303C26.7309 32.3024 26.7605 32.1586 26.7606 32.0138L26.6006 32.0137ZM26.5283 32.3662L26.3818 32.302C26.3439 32.3884 26.2927 32.4543 26.2369 32.4968L26.334 32.624L26.431 32.7512C26.5371 32.6703 26.6191 32.5577 26.6749 32.4304L26.5283 32.3662ZM26.334 32.624L26.2369 32.4968C26.1819 32.5388 26.1234 32.5577 26.0672 32.5578L26.0674 32.7178L26.0675 32.8778C26.1984 32.8776 26.3241 32.8328 26.431 32.7512L26.334 32.624ZM26.0674 32.7178V32.5578C26.0116 32.5578 25.953 32.5388 25.8977 32.4967L25.8008 32.624L25.7039 32.7513C25.8105 32.8325 25.9363 32.8778 26.0674 32.8778V32.7178ZM25.8008 32.624L25.8984 32.4973L22.9648 30.2375L22.8672 30.3643L22.7695 30.491L25.7031 32.7508L25.8008 32.624ZM22.8672 30.3643L22.7695 30.2375L19.836 32.4973L19.9336 32.624L20.0312 32.7508L22.9648 30.491L22.8672 30.3643ZM19.9336 32.624L19.8366 32.4968C19.7814 32.5389 19.723 32.5577 19.6669 32.5578L19.667 32.7178L19.6671 32.8778C19.7981 32.8777 19.9238 32.8327 20.0306 32.7512L19.9336 32.624ZM19.667 32.7178V32.5578C19.6112 32.5578 19.5526 32.5389 19.4973 32.4967L19.4004 32.624L19.3034 32.7513C19.4101 32.8326 19.5359 32.8778 19.667 32.8778V32.7178ZM19.4004 32.624L19.4974 32.4968C19.441 32.4538 19.3892 32.3877 19.3517 32.3021L19.2051 32.3662L19.0585 32.4304C19.1146 32.5585 19.1978 32.6707 19.3033 32.7512L19.4004 32.624ZM19.2051 32.3662L19.3517 32.3021C19.3143 32.2167 19.2939 32.1168 19.2938 32.0135L19.1338 32.0137L18.9738 32.0138C18.9739 32.1577 19.0022 32.3017 19.0585 32.4303L19.2051 32.3662ZM19.1338 32.0137H19.2938V23.5176H19.1338H18.9738V32.0137H19.1338ZM19.1338 23.5176L19.237 23.3953C18.2453 22.5579 17.4312 21.3895 16.8791 20.0024L16.7305 20.0615L16.5818 20.1207C17.1506 21.5497 17.9933 22.7639 19.0306 23.6398L19.1338 23.5176ZM16.7305 20.0615L16.8791 20.0024C16.3271 18.6151 16.0571 17.0592 16.0974 15.4895L15.9375 15.4854L15.7776 15.4812C15.7362 17.0921 16.013 18.6913 16.5818 20.1207L16.7305 20.0615ZM15.9375 15.4854L16.0974 15.4895C16.1378 13.9197 16.4864 12.3924 17.1079 11.0588L16.9629 10.9912L16.8179 10.9236C16.1766 12.2996 15.819 13.8705 15.7776 15.4812L15.9375 15.4854ZM16.9629 10.9912L17.1079 11.0588C17.7295 9.72521 18.6009 8.63408 19.6319 7.88843L19.5381 7.75879L19.4443 7.62914C18.3631 8.41115 17.4591 9.54789 16.8179 10.9236L16.9629 10.9912ZM19.5381 7.75879L19.6318 7.88844C20.6623 7.14322 21.8176 6.76801 22.9836 6.79472L22.9873 6.63477L22.991 6.47481C21.7492 6.44636 20.5264 6.84661 19.4443 7.62914L19.5381 7.75879ZM25.5332 24.2607L25.456 24.1206C24.6335 24.5735 23.7539 24.8058 22.8672 24.8058L22.8672 24.9658L22.8672 25.1258C23.8109 25.1258 24.7433 24.8783 25.6104 24.4009L25.5332 24.2607ZM22.8672 24.9658V24.8058C21.9803 24.8058 21.1001 24.5736 20.2774 24.1206L20.2002 24.2607L20.123 24.4009C20.9903 24.8785 21.9233 25.1258 22.8672 25.1258V24.9658ZM20.2002 24.2607H20.0402V30.7881H20.2002H20.3602V24.2607H20.2002ZM20.2002 30.7881L20.2979 30.9148L22.6983 29.0642L22.6006 28.9375L22.5029 28.8108L20.1025 30.6614L20.2002 30.7881ZM22.6006 28.9375L22.6976 29.0648C22.7537 29.0219 22.8123 29.0028 22.8672 29.0028V28.8428V28.6828C22.735 28.6828 22.6095 28.7296 22.5036 28.8102L22.6006 28.9375ZM22.8672 28.8428L22.8671 29.0028C22.9221 29.0028 22.9808 29.022 23.0367 29.0647L23.1338 28.9375L23.2308 28.8103C23.1248 28.7294 22.9993 28.6829 22.8673 28.6828L22.8672 28.8428ZM23.1338 28.9375L23.0361 29.0642L25.4355 30.9148L25.5332 30.7881L25.6309 30.6614L23.2315 28.8108L23.1338 28.9375ZM25.5332 30.7881H25.6932V24.2607H25.5332H25.3732V30.7881H25.5332ZM26.0674 1V1.16C26.1497 1.16 26.2412 1.20295 26.3168 1.30269L26.4443 1.20605L26.5719 1.10942C26.4474 0.945244 26.2677 0.84 26.0674 0.84V1ZM26.4443 1.20605L26.3167 1.3026C26.393 1.40341 26.4406 1.54823 26.4406 1.70508H26.6006H26.7606C26.7606 1.48807 26.6957 1.27306 26.5719 1.10951L26.4443 1.20605ZM26.6006 1.70508H26.4406V5.22852H26.6006H26.7606V1.70508H26.6006ZM26.6006 5.22852H26.4406C26.4406 5.38537 26.393 5.53019 26.3167 5.63099L26.4443 5.72754L26.5719 5.82409C26.6957 5.66053 26.7606 5.44552 26.7606 5.22852H26.6006ZM26.4443 5.72754L26.3168 5.63093C26.2412 5.73069 26.1498 5.77359 26.0674 5.77359V5.93359V6.09359C26.2677 6.09359 26.4474 5.98843 26.5719 5.82415L26.4443 5.72754ZM26.0674 5.93359L26.0674 5.77359C25.985 5.77358 25.8935 5.73068 25.818 5.63094L25.6904 5.72754L25.5629 5.82414C25.6873 5.98847 25.867 6.09357 26.0674 6.09359L26.0674 5.93359ZM25.6904 5.72754L25.818 5.63099C25.7417 5.53019 25.6942 5.38537 25.6942 5.22852H25.5342H25.3742C25.3742 5.44552 25.4391 5.66053 25.5628 5.82409L25.6904 5.72754ZM25.5342 5.22852H25.6942V2.40918H25.5342H25.3742V5.22852H25.5342ZM25.5342 2.40918V2.24918H2.06641V2.40918V2.56918H25.5342V2.40918ZM2.06641 2.40918H1.90641V24.9639H2.06641H2.22641V2.40918H2.06641ZM2.06641 24.9639V25.1239H17.2676V24.9639V24.8039H2.06641V24.9639ZM17.2676 24.9639L17.2674 25.1239C17.3499 25.124 17.4416 25.167 17.517 25.2665L17.6445 25.1699L17.7721 25.0733C17.6476 24.909 17.4677 24.8041 17.2677 24.8039L17.2676 24.9639ZM17.6445 25.1699L17.5169 25.2665C17.5932 25.3673 17.6408 25.5121 17.6408 25.6689H17.8008H17.9608C17.9608 25.4519 17.8959 25.2369 17.7721 25.0734L17.6445 25.1699ZM17.8008 25.6689L17.6408 25.6689C17.6407 25.8254 17.5932 25.9696 17.5169 26.0705L17.6445 26.167L17.7722 26.2635C17.8956 26.1002 17.9607 25.886 17.9608 25.669L17.8008 25.6689ZM17.6445 26.167L17.5169 26.0704C17.4411 26.1706 17.3494 26.2139 17.2674 26.214L17.2676 26.374L17.2677 26.534C17.4684 26.5338 17.6481 26.4275 17.7721 26.2635L17.6445 26.167ZM17.2676 26.374V26.214H1.5332V26.374V26.534H17.2676V26.374ZM1.5332 26.374L1.53326 26.214C1.45135 26.214 1.35975 26.1708 1.28384 26.0704L1.15625 26.167L1.02866 26.2635C1.15272 26.4275 1.33225 26.534 1.53315 26.534L1.5332 26.374ZM1.15625 26.167L1.28385 26.0705C1.20753 25.9696 1.16003 25.8255 1.16 25.6689L1 25.6689L0.84 25.669C0.840048 25.886 0.905065 26.1002 1.02865 26.2635L1.15625 26.167ZM1 25.6689H1.16V1.70508H1H0.84V25.6689H1ZM1 1.70508H1.16C1.16 1.54823 1.20756 1.40341 1.28384 1.3026L1.15625 1.20605L1.02866 1.10951C0.904898 1.27306 0.84 1.48807 0.84 1.70508H1ZM1.15625 1.20605L1.28379 1.30267C1.35929 1.20299 1.45086 1.16003 1.53326 1.16L1.5332 1L1.53315 0.84C1.33293 0.840073 1.15314 0.945175 1.02871 1.10944L1.15625 1.20605ZM1.5332 1V1.16H26.0674V1V0.84H1.5332V1ZM25.1123 8.64062L25.1891 8.50028C24.0829 7.89472 22.8612 7.73458 21.682 8.04447L21.7227 8.19922L21.7633 8.35396C22.8601 8.06575 23.9979 8.21301 25.0355 8.78097L25.1123 8.64062ZM21.7227 8.19922L21.682 8.04448C20.504 8.35413 19.4298 9.11654 18.5912 10.2247L18.7188 10.3213L18.8463 10.4178C19.6487 9.35748 20.6652 8.64262 21.7633 8.35396L21.7227 8.19922ZM18.7188 10.3213L18.5912 10.2247C17.7528 11.3327 17.184 12.74 16.9541 14.2672L17.1123 14.291L17.2705 14.3148C17.4934 12.8342 18.0438 11.4784 18.8463 10.4178L18.7188 10.3213ZM17.1123 14.291L16.9541 14.2672C16.7243 15.7944 16.8422 17.3781 17.2936 18.8184L17.4463 18.7705L17.599 18.7227C17.1624 17.3299 17.0478 15.7952 17.2705 14.3148L17.1123 14.291ZM17.4463 18.7705L17.2936 18.8184C17.745 20.2584 18.5117 21.496 19.5015 22.3699L19.6074 22.25L19.7133 22.1301C18.7736 21.3003 18.0357 20.1157 17.599 18.7226L17.4463 18.7705ZM19.6074 22.25L19.5015 22.3699C20.4921 23.2446 21.6637 23.7157 22.8672 23.7157V23.5557V23.3957C21.7502 23.3957 20.6522 22.959 19.7133 22.1301L19.6074 22.25ZM22.8672 23.5557L22.8672 23.7157C24.4822 23.7156 26.0187 22.8678 27.1432 21.3817L27.0156 21.2852L26.888 21.1886C25.8122 22.6103 24.364 23.3956 22.8672 23.3957L22.8672 23.5557ZM27.0156 21.2852L27.1432 21.3817C28.267 19.8964 28.8934 17.889 28.8934 15.8027H28.7334H28.5734C28.5734 17.8287 27.9645 19.766 26.888 21.1886L27.0156 21.2852ZM28.7334 15.8027L28.8934 15.8027C28.8933 14.2464 28.5445 12.7227 27.8879 11.4239L27.7451 11.4961L27.6023 11.5683C28.2347 12.8191 28.5733 14.2928 28.5734 15.8027L28.7334 15.8027ZM27.7451 11.4961L27.8879 11.4239C27.2313 10.1252 26.2939 9.10514 25.1891 8.50028L25.1123 8.64062L25.0355 8.78097C26.0744 9.34978 26.9698 10.3173 27.6023 11.5683L27.7451 11.4961ZM8.4668 6.63379V6.79379C8.54967 6.79379 8.64186 6.83692 8.71714 6.93639L8.84473 6.83984L8.97231 6.74329C8.84755 6.57842 8.66683 6.47379 8.4668 6.47379V6.63379ZM8.84473 6.83984L8.71714 6.93639C8.79309 7.03676 8.84 7.18139 8.84 7.33887H9H9.16C9.16 7.12249 9.09641 6.90729 8.97231 6.7433L8.84473 6.83984ZM9 7.33887L8.84 7.33882C8.83996 7.49588 8.79302 7.63997 8.71709 7.74044L8.84473 7.83691L8.97237 7.93339C9.09612 7.76968 9.15994 7.55526 9.16 7.33891L9 7.33887ZM8.84473 7.83691L8.71714 7.74037C8.64186 7.83984 8.54967 7.88297 8.4668 7.88297V8.04297V8.20297C8.66683 8.20297 8.84755 8.09834 8.97231 7.93346L8.84473 7.83691ZM8.4668 8.04297L8.45981 7.88312C8.26867 7.89147 8.08448 7.95598 7.92038 8.06652L8.00977 8.19922L8.09916 8.33192C8.21879 8.25133 8.34663 8.20837 8.47378 8.20282L8.4668 8.04297ZM8.00977 8.19922L7.92037 8.06652C7.75638 8.17701 7.61603 8.33121 7.5076 8.51556L7.64551 8.59668L7.78342 8.6778C7.87052 8.52972 7.9793 8.41267 8.09916 8.33191L8.00977 8.19922ZM7.64551 8.59668L7.50562 8.51901C7.3688 8.76542 7.27919 9.04881 7.24166 9.34513L7.40039 9.36523L7.55912 9.38534C7.59198 9.12597 7.66999 8.88219 7.78539 8.67435L7.64551 8.59668ZM7.40039 9.36523L7.24166 9.34515C7.20416 9.64158 7.22001 9.94535 7.2876 10.2329L7.44336 10.1963L7.59911 10.1597C7.54032 9.90956 7.52638 9.64419 7.55913 9.38531L7.40039 9.36523ZM7.44336 10.1963L7.28589 10.2246C7.37738 10.7328 7.46085 11.3023 7.47308 11.8557C7.48535 12.4107 7.42553 12.9371 7.23993 13.3651L7.38672 13.4287L7.53351 13.4924C7.74526 13.0041 7.80575 12.4252 7.79301 11.8486C7.78023 11.2704 7.69334 10.6818 7.60083 10.1679L7.44336 10.1963ZM7.38672 13.4287L7.24048 13.3638C7.20372 13.4466 7.16335 13.5256 7.1192 13.6L7.25684 13.6816L7.39447 13.7632C7.44556 13.6771 7.49158 13.5868 7.53296 13.4936L7.38672 13.4287ZM7.25684 13.6816L7.11922 13.7633C7.16325 13.8375 7.20339 13.9169 7.24048 14.0005L7.38672 13.9355L7.53296 13.8706C7.49171 13.7777 7.44594 13.6868 7.39445 13.6L7.25684 13.6816ZM7.38672 13.9355L7.23993 13.9992C7.42551 14.4271 7.48532 14.9532 7.47306 15.5081C7.46082 16.0613 7.37737 16.6305 7.28589 17.1386L7.44336 17.167L7.60083 17.1953C7.69333 16.6815 7.7802 16.0932 7.79298 15.5151C7.80572 14.9388 7.74523 14.3601 7.53351 13.8719L7.38672 13.9355ZM7.44336 17.167L7.28761 17.1304C7.21993 17.4181 7.2041 17.7225 7.24166 18.0191L7.40039 17.999L7.55912 17.9789C7.52632 17.7199 7.54025 17.4539 7.59911 17.2036L7.44336 17.167ZM7.40039 17.999L7.24166 18.0191C7.2792 18.3155 7.36878 18.5988 7.50563 18.8453L7.64551 18.7676L7.78539 18.6899C7.66997 18.4821 7.59198 18.2383 7.55912 17.9789L7.40039 17.999ZM7.64551 18.7676L7.5076 18.8487C7.61603 19.033 7.75638 19.1873 7.92038 19.2977L8.00977 19.165L8.09916 19.0323C7.97932 18.9516 7.87053 18.8345 7.78341 18.6864L7.64551 18.7676ZM8.00977 19.165L7.92039 19.2977C8.08499 19.4086 8.26931 19.4718 8.45981 19.4802L8.4668 19.3203L8.47379 19.1605C8.34607 19.1549 8.21821 19.1125 8.09914 19.0323L8.00977 19.165ZM8.4668 19.3203V19.4803C8.54903 19.4803 8.64141 19.5238 8.71714 19.6239L8.84473 19.5273L8.97231 19.4308C8.848 19.2665 8.66747 19.1603 8.4668 19.1603V19.3203ZM8.84473 19.5273L8.71705 19.6238C8.79303 19.7244 8.84 19.8684 8.84 20.0254H9H9.16C9.16 19.8089 9.09604 19.5946 8.9724 19.4309L8.84473 19.5273ZM9 20.0254L8.84 20.0254C8.84 20.1824 8.79303 20.3264 8.71706 20.427L8.84473 20.5234L8.9724 20.6199C9.09605 20.4562 9.16 20.2419 9.16 20.0254L9 20.0254ZM8.84473 20.5234L8.71714 20.4269C8.64141 20.527 8.54903 20.5705 8.4668 20.5705V20.7305V20.8905C8.66747 20.8905 8.848 20.7843 8.97231 20.62L8.84473 20.5234ZM8.4668 20.7305L8.47026 20.5705C8.18208 20.5643 7.89576 20.4722 7.63244 20.2974L7.54395 20.4307L7.45545 20.564C7.76539 20.7697 8.11007 20.8828 8.46333 20.8904L8.4668 20.7305ZM7.54395 20.4307L7.63245 20.2974C7.36884 20.1223 7.1348 19.868 6.94978 19.5503L6.81152 19.6309L6.67327 19.7114C6.87958 20.0656 7.14579 20.3584 7.45544 20.564L7.54395 20.4307ZM6.81152 19.6309L6.95029 19.5512C6.73509 19.1762 6.58633 18.7379 6.5187 18.271L6.36035 18.2939L6.202 18.3169C6.27499 18.8207 6.43603 19.298 6.67275 19.7105L6.81152 19.6309ZM6.36035 18.2939L6.5187 18.271C6.45114 17.8044 6.46593 17.3232 6.56187 16.8659L6.40527 16.833L6.24868 16.8002C6.14498 17.2946 6.12912 17.8134 6.202 18.3169L6.36035 18.2939ZM6.40527 16.833L6.56285 16.8608C6.59875 16.6569 6.67422 16.2366 6.71007 15.7967C6.728 15.5767 6.73632 15.3484 6.72418 15.1376C6.71217 14.929 6.67961 14.7258 6.6087 14.5623L6.46191 14.626L6.31513 14.6896C6.36422 14.8028 6.39358 14.9627 6.40471 15.156C6.4157 15.3469 6.40836 15.5592 6.39113 15.7707C6.35665 16.1938 6.2838 16.6003 6.2477 16.8053L6.40527 16.833ZM6.46191 14.626L6.6086 14.5621C6.58051 14.4976 6.53488 14.3913 6.39523 14.3164C6.27014 14.2493 6.08615 14.216 5.80566 14.216V14.376V14.536C6.07135 14.536 6.19017 14.5695 6.244 14.5984C6.28328 14.6195 6.29268 14.6381 6.31523 14.6899L6.46191 14.626ZM5.80566 14.376L5.80568 14.216C5.72323 14.216 5.63181 14.1731 5.55627 14.0733L5.42871 14.1699L5.30115 14.2665C5.42562 14.4309 5.60531 14.536 5.80565 14.536L5.80566 14.376ZM5.42871 14.1699L5.5563 14.0734C5.48003 13.9726 5.43254 13.8284 5.43246 13.6718L5.27246 13.6719L5.11246 13.672C5.11257 13.8889 5.17751 14.1031 5.30112 14.2665L5.42871 14.1699ZM5.27246 13.6719H5.43246C5.43246 13.515 5.48002 13.3702 5.5563 13.2694L5.42871 13.1729L5.30112 13.0763C5.17736 13.2399 5.11246 13.4549 5.11246 13.6719H5.27246ZM5.42871 13.1729L5.55626 13.2694C5.63181 13.1697 5.72326 13.1268 5.80568 13.1268L5.80566 12.9668L5.80565 12.8068C5.60532 12.8068 5.42562 12.9119 5.30116 13.0763L5.42871 13.1729ZM5.80566 12.9668V13.1268C6.08618 13.1268 6.27018 13.0935 6.39526 13.0264C6.53492 12.9515 6.58052 12.8451 6.6086 12.7807L6.46191 12.7168L6.31523 12.6529C6.29266 12.7047 6.28328 12.7233 6.24403 12.7444C6.19021 12.7732 6.07141 12.8068 5.80566 12.8068V12.9668ZM6.46191 12.7168L6.6087 12.7805C6.67959 12.617 6.71215 12.4139 6.72416 12.2055C6.7363 11.9947 6.72799 11.7667 6.71007 11.5468C6.67424 11.1071 6.59878 10.687 6.56285 10.483L6.40527 10.5107L6.2477 10.5385C6.28383 10.7436 6.35667 11.15 6.39113 11.5728C6.40835 11.7841 6.41568 11.9963 6.40469 12.1871C6.39356 12.3802 6.36421 12.54 6.31513 12.6531L6.46191 12.7168ZM6.40527 10.5107L6.56193 10.4782C6.46711 10.022 6.45302 9.54178 6.52064 9.07673L6.3623 9.05371L6.20397 9.03069C6.13102 9.53234 6.14613 10.0502 6.24862 10.5433L6.40527 10.5107ZM6.3623 9.05371L6.52064 9.07675C6.58826 8.61198 6.73636 8.17592 6.95037 7.80216L6.81152 7.72266L6.67267 7.64315C6.43732 8.05419 6.27696 8.52899 6.20397 9.03067L6.3623 9.05371ZM6.81152 7.72266L6.94943 7.80378C7.13516 7.48806 7.36938 7.23566 7.63284 7.06239L7.54492 6.92871L7.457 6.79503C7.14736 6.99868 6.88078 7.28937 6.67362 7.64153L6.81152 7.72266ZM7.54492 6.92871L7.63283 7.0624C7.89598 6.88936 8.18199 6.79888 8.46964 6.79376L8.4668 6.63379L8.46395 6.47381C8.11146 6.48009 7.76704 6.59116 7.45701 6.79502L7.54492 6.92871ZM14.0938 6.70898L14.1822 6.84232C14.2652 6.78727 14.3543 6.78036 14.4368 6.8165L14.501 6.66992L14.5651 6.52335C14.379 6.44189 14.1753 6.4629 14.0053 6.57565L14.0938 6.70898ZM14.501 6.66992L14.4368 6.81647C14.5238 6.85462 14.6093 6.94345 14.661 7.07931L14.8105 7.02246L14.9601 6.96561C14.8847 6.76724 14.7468 6.60294 14.5652 6.52337L14.501 6.66992ZM14.8105 7.02246L14.661 7.07928C14.7125 7.21494 14.7215 7.37574 14.6847 7.52258L14.8398 7.56152L14.995 7.60046C15.0473 7.39214 15.0356 7.1644 14.9601 6.96565L14.8105 7.02246ZM14.8398 7.56152L14.6847 7.52239L11.4845 20.2089L11.6396 20.248L11.7948 20.2872L14.995 7.60066L14.8398 7.56152ZM11.6396 20.248L11.4845 20.2091C11.4554 20.3249 11.4008 20.4191 11.3349 20.4818L11.4453 20.5977L11.5557 20.7135C11.6717 20.603 11.7533 20.4524 11.7948 20.287L11.6396 20.248ZM11.4453 20.5977L11.335 20.4818C11.2701 20.5435 11.1991 20.5705 11.133 20.5705L11.1328 20.7305L11.1326 20.8905C11.2907 20.8907 11.4386 20.825 11.5556 20.7135L11.4453 20.5977ZM11.1328 20.7305L11.1324 20.5705C11.098 20.5706 11.0629 20.5635 11.0286 20.5486L10.9648 20.6953L10.9011 20.8421C10.975 20.8742 11.0537 20.8907 11.1332 20.8905L11.1328 20.7305ZM10.9648 20.6953L11.029 20.5488C10.9866 20.5302 10.9439 20.4991 10.9045 20.4541L10.7842 20.5596L10.6638 20.665C10.7304 20.741 10.8103 20.8023 10.9006 20.8419L10.9648 20.6953ZM10.7842 20.5596L10.9045 20.4541C10.8652 20.4093 10.8311 20.3525 10.8058 20.2859L10.6562 20.3428L10.5067 20.3996C10.5443 20.4984 10.5971 20.5889 10.6638 20.665L10.7842 20.5596ZM10.6562 20.3428L10.8058 20.286C10.7803 20.2189 10.7645 20.1447 10.7603 20.0684L10.6006 20.0771L10.4408 20.0859C10.4468 20.1944 10.4692 20.301 10.5067 20.3996L10.6562 20.3428ZM10.6006 20.0771L10.7603 20.0684C10.7562 19.9923 10.7639 19.9153 10.7821 19.8428L10.627 19.8037L10.4718 19.7647C10.4458 19.868 10.4349 19.9772 10.4408 20.0859L10.6006 20.0771ZM10.627 19.8037L10.7821 19.8428L13.9813 7.15631L13.8262 7.11719L13.671 7.07806L10.4718 19.7646L10.627 19.8037ZM13.8262 7.11719L13.9814 7.15613C14.0182 7.00927 14.0953 6.90001 14.1822 6.84228L14.0938 6.70898L14.0053 6.57569C13.8393 6.68586 13.7232 6.87008 13.671 7.07825L13.8262 7.11719Z" fill="url(#paint1_linear_1930_11898)"/>
</g>
</g>
<defs>
<linearGradient id="paint0_linear_1930_11898" x1="1" y1="1" x2="40.027" y2="5.89507" gradientUnits="userSpaceOnUse">
<stop stop-color="#9342CE"/>
<stop offset="0.514675" stop-color="#6284B6"/>
<stop offset="1" stop-color="#35C29F"/>
</linearGradient>
<linearGradient id="paint1_linear_1930_11898" x1="1" y1="1" x2="40.027" y2="5.89507" gradientUnits="userSpaceOnUse">
<stop stop-color="#9342CE"/>
<stop offset="0.514675" stop-color="#6284B6"/>
<stop offset="1" stop-color="#35C29F"/>
</linearGradient>
</defs>
</svg>
