<svg width="30" height="33" viewBox="0 0 30 33" fill="none" xmlns="http://www.w3.org/2000/svg">
<g id="Component 964375">
<g id="Vector">
<path fill-rule="evenodd" clip-rule="evenodd" d="M15.3577 12.7288C14.3329 12.6673 13.3194 12.9781 12.4899 13.6081C11.6604 14.2381 11.0662 15.1484 10.8086 16.1838C10.5509 17.2193 10.6458 18.3158 11.077 19.2865C11.5082 20.2572 12.2491 21.042 13.1734 21.5072C14.0977 21.9725 15.1482 22.0893 16.1459 21.8378C17.1436 21.5863 18.0267 20.9821 18.6448 20.1281C19.2628 19.2741 19.5776 18.2231 19.5355 17.1544C19.4933 16.0856 19.0968 15.0651 18.4135 14.2669C18.0264 13.8134 17.5572 13.4441 17.0328 13.1802C16.5084 12.9162 15.9392 12.7628 15.3577 12.7288ZM11.613 13.2639C12.5187 12.4216 13.6768 11.9327 14.8897 11.8804C16.1026 11.8281 17.2954 12.2158 18.2648 12.9773C19.2342 13.7387 19.9203 14.827 20.2061 16.0565C20.4919 17.286 20.3597 18.5808 19.8322 19.7201C19.3046 20.8595 18.4142 21.773 17.3128 22.3049C16.2113 22.8369 14.967 22.9544 13.7918 22.6374C12.6165 22.3204 11.5831 21.5886 10.8676 20.5666C10.1521 19.5446 9.79881 18.2957 9.86789 17.0326C9.90603 16.3156 10.0798 15.6135 10.3793 14.9667C10.6788 14.3199 11.0981 13.7412 11.613 13.2639ZM20.6552 25.1267L24.4281 29.5364C24.5746 29.7041 24.7788 29.8048 24.9961 29.8165C25.2135 29.8282 25.4265 29.75 25.5889 29.5989C25.7512 29.4479 25.8498 29.2361 25.8632 29.0097C25.8766 28.7833 25.8036 28.5606 25.6603 28.3899L21.8878 23.9805C21.827 24.0592 21.76 24.1324 21.6877 24.1996L20.8841 24.9464C20.8127 25.013 20.7362 25.0733 20.6552 25.1267ZM21.4186 23.1434C21.3656 23.3077 21.2722 23.4546 21.1478 23.5696L20.3458 24.316C20.2211 24.432 20.0694 24.5118 19.9057 24.5475L19.8844 24.552C19.8075 24.5668 19.7292 24.5719 19.6512 24.5672C19.5252 24.5603 19.4018 24.5275 19.288 24.4706C19.1742 24.4138 19.0724 24.334 18.9883 24.236L18.8039 24.0204C19.2404 23.7567 19.6501 23.4474 20.0266 23.0972C20.4018 22.7493 20.742 22.3625 21.0422 21.9429L21.2253 22.157C21.3092 22.2553 21.3737 22.3699 21.415 22.4942C21.4564 22.6184 21.4738 22.75 21.4663 22.8813C21.4619 22.9591 21.449 23.0362 21.4277 23.111C21.424 23.1219 21.4213 23.1325 21.4186 23.1434ZM15.5094 19.1525C15.5094 19.2647 15.4666 19.3724 15.3904 19.4518C15.3142 19.5312 15.2109 19.5758 15.1031 19.5758C14.9954 19.5758 14.8921 19.5312 14.8159 19.4518C14.7397 19.3724 14.6969 19.2647 14.6969 19.1525V18.6099C14.6844 18.33 14.7652 18.0542 14.9254 17.8292C15.098 17.613 15.3271 17.4537 15.5848 17.3706C15.8255 17.2788 16.0373 17.1201 16.1974 16.9117C16.3575 16.7032 16.4597 16.453 16.4928 16.1882C16.526 15.9234 16.4888 15.6543 16.3854 15.41C16.282 15.1657 16.1163 14.9556 15.9063 14.8026C15.6963 14.6497 15.4501 14.5596 15.1944 14.5423C14.9388 14.5249 14.6834 14.581 14.4562 14.7043C14.229 14.8277 14.0385 15.0136 13.9056 15.2418C13.7727 15.4701 13.7024 15.732 13.7023 15.999C13.7059 16.0568 13.6981 16.1147 13.6793 16.1692C13.6606 16.2237 13.6313 16.2736 13.5933 16.3158C13.5553 16.3581 13.5094 16.3917 13.4584 16.4147C13.4075 16.4378 13.3525 16.4496 13.2969 16.4496C13.2414 16.4496 13.1864 16.4378 13.1355 16.4147C13.0845 16.3917 13.0386 16.3581 13.0006 16.3158C12.9626 16.2736 12.9333 16.2237 12.9146 16.1692C12.8958 16.1147 12.888 16.0568 12.8916 15.999C12.8916 15.5778 13.0025 15.1646 13.2122 14.8045C13.4218 14.4444 13.7222 14.151 14.0807 13.9564C14.4392 13.7619 14.842 13.6734 15.2454 13.7008C15.6487 13.7282 16.0372 13.8703 16.3684 14.1117C16.6997 14.3531 16.961 14.6845 17.1241 15.0699C17.2872 15.4554 17.3457 15.88 17.2934 16.2977C17.241 16.7154 17.0797 17.1101 16.827 17.4389C16.5744 17.7677 16.2401 18.018 15.8604 18.1626C15.7484 18.1947 15.6466 18.2571 15.5652 18.3435C15.5196 18.4235 15.4996 18.5166 15.508 18.6092V19.1525H15.5094ZM14.6969 20.4778C14.6969 20.3656 14.7397 20.2579 14.8159 20.1785C14.8921 20.0991 14.9954 20.0545 15.1031 20.0545C15.2109 20.0545 15.3142 20.0991 15.3904 20.1785C15.4666 20.2579 15.5094 20.3656 15.5094 20.4778V20.5692C15.5094 20.6815 15.4666 20.7892 15.3904 20.8685C15.3142 20.9479 15.2109 20.9925 15.1031 20.9925C14.9954 20.9925 14.8921 20.9479 14.8159 20.8685C14.7397 20.7892 14.6969 20.6815 14.6969 20.5692V20.4778ZM5.06629 4.22014C4.8939 4.04058 4.66711 3.92887 4.42454 3.90403C4.18198 3.8792 3.93865 3.94278 3.73603 4.08395C3.53341 4.22512 3.38403 4.43513 3.31334 4.67821C3.24265 4.92129 3.25503 5.18239 3.34837 5.41703C3.4417 5.65166 3.61022 5.84531 3.82521 5.96497C4.0402 6.08464 4.28835 6.12292 4.52738 6.07329C4.76642 6.02366 4.98154 5.8892 5.13611 5.6928C5.29067 5.49641 5.3751 5.25024 5.37502 4.99625C5.3752 4.85206 5.34801 4.70926 5.29503 4.57607C5.24204 4.44287 5.16431 4.32191 5.06629 4.22014ZM3.60692 19.3726C3.43449 19.1929 3.20762 19.0812 2.96497 19.0563C2.72232 19.0314 2.4789 19.095 2.2762 19.2362C2.07349 19.3774 1.92404 19.5875 1.85332 19.8307C1.7826 20.0738 1.79498 20.335 1.88835 20.5697C1.98172 20.8045 2.1503 20.9982 2.36537 21.1179C2.58044 21.2376 2.82869 21.2759 3.06781 21.2262C3.30693 21.1765 3.52213 21.042 3.67673 20.8455C3.83133 20.6491 3.91577 20.4028 3.91565 20.1487C3.91583 20.0045 3.88864 19.8617 3.83566 19.7285C3.78267 19.5953 3.70494 19.4744 3.60692 19.3726ZM8.34928 29.0789C8.09081 28.8095 7.75073 28.6419 7.38698 28.6046C7.02322 28.5673 6.6583 28.6625 6.35439 28.8742C6.05048 29.0858 5.82639 29.4007 5.72029 29.7652C5.61419 30.1297 5.63266 30.5213 5.77255 30.8732C5.91243 31.2251 6.16508 31.5155 6.48744 31.6951C6.8098 31.8746 7.18193 31.9322 7.54042 31.8578C7.8989 31.7835 8.22158 31.582 8.45345 31.2875C8.68532 30.9931 8.81205 30.6239 8.81204 30.243C8.81229 30.0268 8.77154 29.8126 8.69212 29.6128C8.61271 29.413 8.49619 29.2316 8.34928 29.0789ZM28.6836 16.0374C28.5111 15.8574 28.2841 15.7453 28.0412 15.7202C27.7983 15.6952 27.5545 15.7587 27.3515 15.8999C27.1485 16.0411 26.9988 16.2514 26.9278 16.4948C26.8569 16.7382 26.8692 16.9997 26.9626 17.2347C27.056 17.4697 27.2247 17.6637 27.44 17.7836C27.6553 17.9035 27.9038 17.9419 28.1432 17.8922C28.3826 17.8425 28.598 17.7079 28.7528 17.5112C28.9076 17.3145 28.9921 17.0679 28.992 16.8135C28.9921 16.6694 28.9649 16.5267 28.912 16.3935C28.8591 16.2603 28.7815 16.1393 28.6836 16.0374ZM22.9254 2.31162C22.6669 2.04229 22.3268 1.87468 21.9631 1.83735C21.5993 1.80002 21.2344 1.89529 20.9305 2.10691C20.6266 2.31854 20.4025 2.63344 20.2964 2.99794C20.1903 3.36245 20.2087 3.75401 20.3486 4.10592C20.4885 4.45783 20.7412 4.7483 21.0635 4.92785C21.3859 5.1074 21.758 5.16491 22.1165 5.09059C22.475 5.01627 22.7977 4.81472 23.0295 4.52027C23.2614 4.22581 23.3881 3.85669 23.3881 3.47578C23.3884 3.25953 23.3476 3.04536 23.2682 2.84557C23.1888 2.64579 23.0723 2.46433 22.9254 2.31162ZM11.5581 23.1321C10.089 22.1518 9.05134 20.606 8.67121 18.8318L8.66884 18.8198L8.66613 18.8081C8.43695 17.7119 8.46904 16.5738 8.75961 15.4935C9.05018 14.4131 9.59037 13.4235 10.3329 12.611C11.0755 11.7986 11.9977 11.1882 13.0191 10.8332C14.0404 10.4782 15.1296 10.3894 16.1915 10.5747C17.2534 10.7599 18.2555 11.2135 19.1102 11.8957C19.9649 12.578 20.6462 13.4681 21.0944 14.4882C21.5426 15.5083 21.7441 16.6274 21.6812 17.7474C21.6183 18.8675 21.293 19.9544 20.7338 20.9132C20.728 20.9177 20.7226 20.9227 20.7172 20.9276C20.6555 20.9846 20.6121 21.06 20.5929 21.1435C19.9622 22.128 19.0997 22.9275 18.0879 23.4655C18.0087 23.4769 17.9345 23.5126 17.875 23.5682L17.8641 23.5787C16.8648 24.0581 15.7664 24.2696 14.6687 24.194C13.571 24.1184 12.5089 23.7581 11.5788 23.1459L11.5673 23.1378L11.5581 23.1321ZM8.15564 27.944L10.7961 23.6137C9.42386 22.5876 8.42824 21.1047 7.97352 19.4096L4.72371 20.154C4.72066 20.6318 4.54852 21.0916 4.24029 21.4454C3.93205 21.7992 3.50939 22.0219 3.0533 22.0711C2.59721 22.1202 2.13976 21.9922 1.76861 21.7116C1.39746 21.4311 1.13871 21.0176 1.04194 20.5506C0.945172 20.0835 1.01719 19.5956 1.2442 19.1805C1.47121 18.7653 1.83724 18.4521 2.27216 18.3007C2.70707 18.1494 3.18028 18.1706 3.60112 18.3603C4.02195 18.55 4.3608 18.8949 4.55275 19.3288L7.80256 18.5841C7.61614 17.3872 7.70288 16.1613 8.05576 15.0058C8.40864 13.8504 9.01773 12.7977 9.8337 11.9332L5.24706 6.68358C4.84819 6.92158 4.37906 6.99779 3.9296 6.8976C3.48014 6.79741 3.08198 6.52788 2.81144 6.14066C2.5409 5.75344 2.41702 5.27579 2.46355 4.79927C2.51008 4.32276 2.72374 3.8809 3.06357 3.5584C3.40341 3.23591 3.8455 3.05547 4.30511 3.05167C4.76473 3.04788 5.20951 3.22099 5.55421 3.53784C5.8989 3.85468 6.11925 4.29296 6.17302 4.76865C6.22679 5.24434 6.11018 5.72397 5.84557 6.11561L10.4312 11.3663C11.4856 10.4723 12.7557 9.89788 14.1025 9.70587C15.4493 9.51385 16.8208 9.71167 18.0669 10.2777L20.3868 5.47991C20.2917 5.40627 20.2018 5.32551 20.118 5.23825C19.7071 4.80912 19.4611 4.23823 19.4261 3.63313C19.3912 3.02804 19.5698 2.43051 19.9283 1.95312C20.2868 1.47573 20.8004 1.15143 21.3724 1.04133C21.9444 0.931217 22.5353 1.0429 23.0338 1.35533C23.5323 1.66776 23.904 2.15937 24.0787 2.73754C24.2535 3.31572 24.2194 3.94055 23.9828 4.49432C23.7461 5.04809 23.3234 5.49257 22.7941 5.74402C22.2648 5.99547 21.6655 6.03654 21.1092 5.85949L18.7896 10.6572C19.4776 11.0697 20.0973 11.5949 20.6251 12.2126C21.6766 13.4377 22.3229 14.9822 22.4687 16.6188L26.1027 16.4689C26.1846 15.9982 26.4302 15.5755 26.7927 15.2819C27.1551 14.9883 27.6087 14.8444 28.0667 14.8778C28.5246 14.9113 28.9546 15.1196 29.2742 15.463C29.5938 15.8064 29.7805 16.2607 29.7986 16.7387C29.8166 17.2167 29.6648 17.6848 29.3721 18.0533C29.0794 18.4219 28.6665 18.6649 28.2125 18.7357C27.7585 18.8066 27.2954 18.7003 26.9119 18.4374C26.5285 18.1744 26.2517 17.7732 26.1345 17.3106L22.5005 17.4591C22.4992 17.5666 22.4954 17.6741 22.4893 17.7816C22.4239 18.9901 22.0864 20.1656 21.5042 21.213L21.8319 21.5951C22.0085 21.8032 22.1378 22.0499 22.2105 22.3171C22.2832 22.5844 22.2972 22.8652 22.2517 23.1388L26.2666 27.8276C26.5483 28.1662 26.6907 28.6067 26.6631 29.0539C26.6355 29.5011 26.4401 29.919 26.119 30.2172C25.798 30.5154 25.3773 30.6699 24.9478 30.6473C24.5183 30.6246 24.1146 30.4267 23.8241 30.0963L19.8116 25.4089C19.7432 25.4132 19.6746 25.4132 19.6061 25.4089C19.3739 25.3957 19.1465 25.3348 18.9369 25.2298C18.7273 25.1247 18.5397 24.9776 18.3848 24.7969L18.0571 24.4138C17.0093 24.8874 15.8707 25.1024 14.73 25.0422C13.5894 24.982 12.4775 24.6481 11.4809 24.0666L8.83844 28.3977C8.86733 28.4249 8.89543 28.4528 8.92273 28.4813C9.34062 28.9181 9.58758 29.5013 9.61555 30.1174C9.64352 30.7335 9.4505 31.3384 9.07406 31.8143C8.69761 32.2903 8.16469 32.6032 7.57902 32.6923C6.99335 32.7813 6.39684 32.64 5.90562 32.296C5.41439 31.9519 5.06359 31.4297 4.92151 30.8309C4.77943 30.2322 4.85623 29.5998 5.13696 29.0568C5.4177 28.5138 5.88227 28.0991 6.44026 27.8934C6.99825 27.6877 7.60972 27.7057 8.15564 27.944Z" fill="#EAEAEA"/>
<path fill-rule="evenodd" clip-rule="evenodd" d="M15.3577 12.7288C14.3329 12.6673 13.3194 12.9781 12.4899 13.6081C11.6604 14.2381 11.0662 15.1484 10.8086 16.1838C10.5509 17.2193 10.6458 18.3158 11.077 19.2865C11.5082 20.2572 12.2491 21.042 13.1734 21.5072C14.0977 21.9725 15.1482 22.0893 16.1459 21.8378C17.1436 21.5863 18.0267 20.9821 18.6448 20.1281C19.2628 19.2741 19.5776 18.2231 19.5355 17.1544C19.4933 16.0856 19.0968 15.0651 18.4135 14.2669C18.0264 13.8134 17.5572 13.4441 17.0328 13.1802C16.5084 12.9162 15.9392 12.7628 15.3577 12.7288ZM11.613 13.2639C12.5187 12.4216 13.6768 11.9327 14.8897 11.8804C16.1026 11.8281 17.2954 12.2158 18.2648 12.9773C19.2342 13.7387 19.9203 14.827 20.2061 16.0565C20.4919 17.286 20.3597 18.5808 19.8322 19.7201C19.3046 20.8595 18.4142 21.773 17.3128 22.3049C16.2113 22.8369 14.967 22.9544 13.7918 22.6374C12.6165 22.3204 11.5831 21.5886 10.8676 20.5666C10.1521 19.5446 9.79881 18.2957 9.86789 17.0326C9.90603 16.3156 10.0798 15.6135 10.3793 14.9667C10.6788 14.3199 11.0981 13.7412 11.613 13.2639ZM20.6552 25.1267L24.4281 29.5364C24.5746 29.7041 24.7788 29.8048 24.9961 29.8165C25.2135 29.8282 25.4265 29.75 25.5889 29.5989C25.7512 29.4479 25.8498 29.2361 25.8632 29.0097C25.8766 28.7833 25.8036 28.5606 25.6603 28.3899L21.8878 23.9805C21.827 24.0592 21.76 24.1324 21.6877 24.1996L20.8841 24.9464C20.8127 25.013 20.7362 25.0733 20.6552 25.1267ZM21.4186 23.1434C21.3656 23.3077 21.2722 23.4546 21.1478 23.5696L20.3458 24.316C20.2211 24.432 20.0694 24.5118 19.9057 24.5475L19.8844 24.552C19.8075 24.5668 19.7292 24.5719 19.6512 24.5672C19.5252 24.5603 19.4018 24.5275 19.288 24.4706C19.1742 24.4138 19.0724 24.334 18.9883 24.236L18.8039 24.0204C19.2404 23.7567 19.6501 23.4474 20.0266 23.0972C20.4018 22.7493 20.742 22.3625 21.0422 21.9429L21.2253 22.157C21.3092 22.2553 21.3737 22.3699 21.415 22.4942C21.4564 22.6184 21.4738 22.75 21.4663 22.8813C21.4619 22.9591 21.449 23.0362 21.4277 23.111C21.424 23.1219 21.4213 23.1325 21.4186 23.1434ZM15.5094 19.1525C15.5094 19.2647 15.4666 19.3724 15.3904 19.4518C15.3142 19.5312 15.2109 19.5758 15.1031 19.5758C14.9954 19.5758 14.8921 19.5312 14.8159 19.4518C14.7397 19.3724 14.6969 19.2647 14.6969 19.1525V18.6099C14.6844 18.33 14.7652 18.0542 14.9254 17.8292C15.098 17.613 15.3271 17.4537 15.5848 17.3706C15.8255 17.2788 16.0373 17.1201 16.1974 16.9117C16.3575 16.7032 16.4597 16.453 16.4928 16.1882C16.526 15.9234 16.4888 15.6543 16.3854 15.41C16.282 15.1657 16.1163 14.9556 15.9063 14.8026C15.6963 14.6497 15.4501 14.5596 15.1944 14.5423C14.9388 14.5249 14.6834 14.581 14.4562 14.7043C14.229 14.8277 14.0385 15.0136 13.9056 15.2418C13.7727 15.4701 13.7024 15.732 13.7023 15.999C13.7059 16.0568 13.6981 16.1147 13.6793 16.1692C13.6606 16.2237 13.6313 16.2736 13.5933 16.3158C13.5553 16.3581 13.5094 16.3917 13.4584 16.4147C13.4075 16.4378 13.3525 16.4496 13.2969 16.4496C13.2414 16.4496 13.1864 16.4378 13.1355 16.4147C13.0845 16.3917 13.0386 16.3581 13.0006 16.3158C12.9626 16.2736 12.9333 16.2237 12.9146 16.1692C12.8958 16.1147 12.888 16.0568 12.8916 15.999C12.8916 15.5778 13.0025 15.1646 13.2122 14.8045C13.4218 14.4444 13.7222 14.151 14.0807 13.9564C14.4392 13.7619 14.842 13.6734 15.2454 13.7008C15.6487 13.7282 16.0372 13.8703 16.3684 14.1117C16.6997 14.3531 16.961 14.6845 17.1241 15.0699C17.2872 15.4554 17.3457 15.88 17.2934 16.2977C17.241 16.7154 17.0797 17.1101 16.827 17.4389C16.5744 17.7677 16.2401 18.018 15.8604 18.1626C15.7484 18.1947 15.6466 18.2571 15.5652 18.3435C15.5196 18.4235 15.4996 18.5166 15.508 18.6092V19.1525H15.5094ZM14.6969 20.4778C14.6969 20.3656 14.7397 20.2579 14.8159 20.1785C14.8921 20.0991 14.9954 20.0545 15.1031 20.0545C15.2109 20.0545 15.3142 20.0991 15.3904 20.1785C15.4666 20.2579 15.5094 20.3656 15.5094 20.4778V20.5692C15.5094 20.6815 15.4666 20.7892 15.3904 20.8685C15.3142 20.9479 15.2109 20.9925 15.1031 20.9925C14.9954 20.9925 14.8921 20.9479 14.8159 20.8685C14.7397 20.7892 14.6969 20.6815 14.6969 20.5692V20.4778ZM5.06629 4.22014C4.8939 4.04058 4.66711 3.92887 4.42454 3.90403C4.18198 3.8792 3.93865 3.94278 3.73603 4.08395C3.53341 4.22512 3.38403 4.43513 3.31334 4.67821C3.24265 4.92129 3.25503 5.18239 3.34837 5.41703C3.4417 5.65166 3.61022 5.84531 3.82521 5.96497C4.0402 6.08464 4.28835 6.12292 4.52738 6.07329C4.76642 6.02366 4.98154 5.8892 5.13611 5.6928C5.29067 5.49641 5.3751 5.25024 5.37502 4.99625C5.3752 4.85206 5.34801 4.70926 5.29503 4.57607C5.24204 4.44287 5.16431 4.32191 5.06629 4.22014ZM3.60692 19.3726C3.43449 19.1929 3.20762 19.0812 2.96497 19.0563C2.72232 19.0314 2.4789 19.095 2.2762 19.2362C2.07349 19.3774 1.92404 19.5875 1.85332 19.8307C1.7826 20.0738 1.79498 20.335 1.88835 20.5697C1.98172 20.8045 2.1503 20.9982 2.36537 21.1179C2.58044 21.2376 2.82869 21.2759 3.06781 21.2262C3.30693 21.1765 3.52213 21.042 3.67673 20.8455C3.83133 20.6491 3.91577 20.4028 3.91565 20.1487C3.91583 20.0045 3.88864 19.8617 3.83566 19.7285C3.78267 19.5953 3.70494 19.4744 3.60692 19.3726ZM8.34928 29.0789C8.09081 28.8095 7.75073 28.6419 7.38698 28.6046C7.02322 28.5673 6.6583 28.6625 6.35439 28.8742C6.05048 29.0858 5.82639 29.4007 5.72029 29.7652C5.61419 30.1297 5.63266 30.5213 5.77255 30.8732C5.91243 31.2251 6.16508 31.5155 6.48744 31.6951C6.8098 31.8746 7.18193 31.9322 7.54042 31.8578C7.8989 31.7835 8.22158 31.582 8.45345 31.2875C8.68532 30.9931 8.81205 30.6239 8.81204 30.243C8.81229 30.0268 8.77154 29.8126 8.69212 29.6128C8.61271 29.413 8.49619 29.2316 8.34928 29.0789ZM28.6836 16.0374C28.5111 15.8574 28.2841 15.7453 28.0412 15.7202C27.7983 15.6952 27.5545 15.7587 27.3515 15.8999C27.1485 16.0411 26.9988 16.2514 26.9278 16.4948C26.8569 16.7382 26.8692 16.9997 26.9626 17.2347C27.056 17.4697 27.2247 17.6637 27.44 17.7836C27.6553 17.9035 27.9038 17.9419 28.1432 17.8922C28.3826 17.8425 28.598 17.7079 28.7528 17.5112C28.9076 17.3145 28.9921 17.0679 28.992 16.8135C28.9921 16.6694 28.9649 16.5267 28.912 16.3935C28.8591 16.2603 28.7815 16.1393 28.6836 16.0374ZM22.9254 2.31162C22.6669 2.04229 22.3268 1.87468 21.9631 1.83735C21.5993 1.80002 21.2344 1.89529 20.9305 2.10691C20.6266 2.31854 20.4025 2.63344 20.2964 2.99794C20.1903 3.36245 20.2087 3.75401 20.3486 4.10592C20.4885 4.45783 20.7412 4.7483 21.0635 4.92785C21.3859 5.1074 21.758 5.16491 22.1165 5.09059C22.475 5.01627 22.7977 4.81472 23.0295 4.52027C23.2614 4.22581 23.3881 3.85669 23.3881 3.47578C23.3884 3.25953 23.3476 3.04536 23.2682 2.84557C23.1888 2.64579 23.0723 2.46433 22.9254 2.31162ZM11.5581 23.1321C10.089 22.1518 9.05134 20.606 8.67121 18.8318L8.66884 18.8198L8.66613 18.8081C8.43695 17.7119 8.46904 16.5738 8.75961 15.4935C9.05018 14.4131 9.59037 13.4235 10.3329 12.611C11.0755 11.7986 11.9977 11.1882 13.0191 10.8332C14.0404 10.4782 15.1296 10.3894 16.1915 10.5747C17.2534 10.7599 18.2555 11.2135 19.1102 11.8957C19.9649 12.578 20.6462 13.4681 21.0944 14.4882C21.5426 15.5083 21.7441 16.6274 21.6812 17.7474C21.6183 18.8675 21.293 19.9544 20.7338 20.9132C20.728 20.9177 20.7226 20.9227 20.7172 20.9276C20.6555 20.9846 20.6121 21.06 20.5929 21.1435C19.9622 22.128 19.0997 22.9275 18.0879 23.4655C18.0087 23.4769 17.9345 23.5126 17.875 23.5682L17.8641 23.5787C16.8648 24.0581 15.7664 24.2696 14.6687 24.194C13.571 24.1184 12.5089 23.7581 11.5788 23.1459L11.5673 23.1378L11.5581 23.1321ZM8.15564 27.944L10.7961 23.6137C9.42386 22.5876 8.42824 21.1047 7.97352 19.4096L4.72371 20.154C4.72066 20.6318 4.54852 21.0916 4.24029 21.4454C3.93205 21.7992 3.50939 22.0219 3.0533 22.0711C2.59721 22.1202 2.13976 21.9922 1.76861 21.7116C1.39746 21.4311 1.13871 21.0176 1.04194 20.5506C0.945172 20.0835 1.01719 19.5956 1.2442 19.1805C1.47121 18.7653 1.83724 18.4521 2.27216 18.3007C2.70707 18.1494 3.18028 18.1706 3.60112 18.3603C4.02195 18.55 4.3608 18.8949 4.55275 19.3288L7.80256 18.5841C7.61614 17.3872 7.70288 16.1613 8.05576 15.0058C8.40864 13.8504 9.01773 12.7977 9.8337 11.9332L5.24706 6.68358C4.84819 6.92158 4.37906 6.99779 3.9296 6.8976C3.48014 6.79741 3.08198 6.52788 2.81144 6.14066C2.5409 5.75344 2.41702 5.27579 2.46355 4.79927C2.51008 4.32276 2.72374 3.8809 3.06357 3.5584C3.40341 3.23591 3.8455 3.05547 4.30511 3.05167C4.76473 3.04788 5.20951 3.22099 5.55421 3.53784C5.8989 3.85468 6.11925 4.29296 6.17302 4.76865C6.22679 5.24434 6.11018 5.72397 5.84557 6.11561L10.4312 11.3663C11.4856 10.4723 12.7557 9.89788 14.1025 9.70587C15.4493 9.51385 16.8208 9.71167 18.0669 10.2777L20.3868 5.47991C20.2917 5.40627 20.2018 5.32551 20.118 5.23825C19.7071 4.80912 19.4611 4.23823 19.4261 3.63313C19.3912 3.02804 19.5698 2.43051 19.9283 1.95312C20.2868 1.47573 20.8004 1.15143 21.3724 1.04133C21.9444 0.931217 22.5353 1.0429 23.0338 1.35533C23.5323 1.66776 23.904 2.15937 24.0787 2.73754C24.2535 3.31572 24.2194 3.94055 23.9828 4.49432C23.7461 5.04809 23.3234 5.49257 22.7941 5.74402C22.2648 5.99547 21.6655 6.03654 21.1092 5.85949L18.7896 10.6572C19.4776 11.0697 20.0973 11.5949 20.6251 12.2126C21.6766 13.4377 22.3229 14.9822 22.4687 16.6188L26.1027 16.4689C26.1846 15.9982 26.4302 15.5755 26.7927 15.2819C27.1551 14.9883 27.6087 14.8444 28.0667 14.8778C28.5246 14.9113 28.9546 15.1196 29.2742 15.463C29.5938 15.8064 29.7805 16.2607 29.7986 16.7387C29.8166 17.2167 29.6648 17.6848 29.3721 18.0533C29.0794 18.4219 28.6665 18.6649 28.2125 18.7357C27.7585 18.8066 27.2954 18.7003 26.9119 18.4374C26.5285 18.1744 26.2517 17.7732 26.1345 17.3106L22.5005 17.4591C22.4992 17.5666 22.4954 17.6741 22.4893 17.7816C22.4239 18.9901 22.0864 20.1656 21.5042 21.213L21.8319 21.5951C22.0085 21.8032 22.1378 22.0499 22.2105 22.3171C22.2832 22.5844 22.2972 22.8652 22.2517 23.1388L26.2666 27.8276C26.5483 28.1662 26.6907 28.6067 26.6631 29.0539C26.6355 29.5011 26.4401 29.919 26.119 30.2172C25.798 30.5154 25.3773 30.6699 24.9478 30.6473C24.5183 30.6246 24.1146 30.4267 23.8241 30.0963L19.8116 25.4089C19.7432 25.4132 19.6746 25.4132 19.6061 25.4089C19.3739 25.3957 19.1465 25.3348 18.9369 25.2298C18.7273 25.1247 18.5397 24.9776 18.3848 24.7969L18.0571 24.4138C17.0093 24.8874 15.8707 25.1024 14.73 25.0422C13.5894 24.982 12.4775 24.6481 11.4809 24.0666L8.83844 28.3977C8.86733 28.4249 8.89543 28.4528 8.92273 28.4813C9.34062 28.9181 9.58758 29.5013 9.61555 30.1174C9.64352 30.7335 9.4505 31.3384 9.07406 31.8143C8.69761 32.2903 8.16469 32.6032 7.57902 32.6923C6.99335 32.7813 6.39684 32.64 5.90562 32.296C5.41439 31.9519 5.06359 31.4297 4.92151 30.8309C4.77943 30.2322 4.85623 29.5998 5.13696 29.0568C5.4177 28.5138 5.88227 28.0991 6.44026 27.8934C6.99825 27.6877 7.60972 27.7057 8.15564 27.944Z" fill="url(#paint0_linear_1930_11872)"/>
<path fill-rule="evenodd" clip-rule="evenodd" d="M15.3577 12.7288C14.3329 12.6673 13.3194 12.9781 12.4899 13.6081C11.6604 14.2381 11.0662 15.1484 10.8086 16.1838C10.5509 17.2193 10.6458 18.3158 11.077 19.2865C11.5082 20.2572 12.2491 21.042 13.1734 21.5072C14.0977 21.9725 15.1482 22.0893 16.1459 21.8378C17.1436 21.5863 18.0267 20.9821 18.6448 20.1281C19.2628 19.2741 19.5776 18.2231 19.5355 17.1544C19.4933 16.0856 19.0968 15.0651 18.4135 14.2669C18.0264 13.8134 17.5572 13.4441 17.0328 13.1802C16.5084 12.9162 15.9392 12.7628 15.3577 12.7288ZM11.613 13.2639C12.5187 12.4216 13.6768 11.9327 14.8897 11.8804C16.1026 11.8281 17.2954 12.2158 18.2648 12.9773C19.2342 13.7387 19.9203 14.827 20.2061 16.0565C20.4919 17.286 20.3597 18.5808 19.8322 19.7201C19.3046 20.8595 18.4142 21.773 17.3128 22.3049C16.2113 22.8369 14.967 22.9544 13.7918 22.6374C12.6165 22.3204 11.5831 21.5886 10.8676 20.5666C10.1521 19.5446 9.79881 18.2957 9.86789 17.0326C9.90603 16.3156 10.0798 15.6135 10.3793 14.9667C10.6788 14.3199 11.0981 13.7412 11.613 13.2639ZM20.6552 25.1267L24.4281 29.5364C24.5746 29.7041 24.7788 29.8048 24.9961 29.8165C25.2135 29.8282 25.4265 29.75 25.5889 29.5989C25.7512 29.4479 25.8498 29.2361 25.8632 29.0097C25.8766 28.7833 25.8036 28.5606 25.6603 28.3899L21.8878 23.9805C21.827 24.0592 21.76 24.1324 21.6877 24.1996L20.8841 24.9464C20.8127 25.013 20.7362 25.0733 20.6552 25.1267ZM21.4186 23.1434C21.3656 23.3077 21.2722 23.4546 21.1478 23.5696L20.3458 24.316C20.2211 24.432 20.0694 24.5118 19.9057 24.5475L19.8844 24.552C19.8075 24.5668 19.7292 24.5719 19.6512 24.5672C19.5252 24.5603 19.4018 24.5275 19.288 24.4706C19.1742 24.4138 19.0724 24.334 18.9883 24.236L18.8039 24.0204C19.2404 23.7567 19.6501 23.4474 20.0266 23.0972C20.4018 22.7493 20.742 22.3625 21.0422 21.9429L21.2253 22.157C21.3092 22.2553 21.3737 22.3699 21.415 22.4942C21.4564 22.6184 21.4738 22.75 21.4663 22.8813C21.4619 22.9591 21.449 23.0362 21.4277 23.111C21.424 23.1219 21.4213 23.1325 21.4186 23.1434ZM15.5094 19.1525C15.5094 19.2647 15.4666 19.3724 15.3904 19.4518C15.3142 19.5312 15.2109 19.5758 15.1031 19.5758C14.9954 19.5758 14.8921 19.5312 14.8159 19.4518C14.7397 19.3724 14.6969 19.2647 14.6969 19.1525V18.6099C14.6844 18.33 14.7652 18.0542 14.9254 17.8292C15.098 17.613 15.3271 17.4537 15.5848 17.3706C15.8255 17.2788 16.0373 17.1201 16.1974 16.9117C16.3575 16.7032 16.4597 16.453 16.4928 16.1882C16.526 15.9234 16.4888 15.6543 16.3854 15.41C16.282 15.1657 16.1163 14.9556 15.9063 14.8026C15.6963 14.6497 15.4501 14.5596 15.1944 14.5423C14.9388 14.5249 14.6834 14.581 14.4562 14.7043C14.229 14.8277 14.0385 15.0136 13.9056 15.2418C13.7727 15.4701 13.7024 15.732 13.7023 15.999C13.7059 16.0568 13.6981 16.1147 13.6793 16.1692C13.6606 16.2237 13.6313 16.2736 13.5933 16.3158C13.5553 16.3581 13.5094 16.3917 13.4584 16.4147C13.4075 16.4378 13.3525 16.4496 13.2969 16.4496C13.2414 16.4496 13.1864 16.4378 13.1355 16.4147C13.0845 16.3917 13.0386 16.3581 13.0006 16.3158C12.9626 16.2736 12.9333 16.2237 12.9146 16.1692C12.8958 16.1147 12.888 16.0568 12.8916 15.999C12.8916 15.5778 13.0025 15.1646 13.2122 14.8045C13.4218 14.4444 13.7222 14.151 14.0807 13.9564C14.4392 13.7619 14.842 13.6734 15.2454 13.7008C15.6487 13.7282 16.0372 13.8703 16.3684 14.1117C16.6997 14.3531 16.961 14.6845 17.1241 15.0699C17.2872 15.4554 17.3457 15.88 17.2934 16.2977C17.241 16.7154 17.0797 17.1101 16.827 17.4389C16.5744 17.7677 16.2401 18.018 15.8604 18.1626C15.7484 18.1947 15.6466 18.2571 15.5652 18.3435C15.5196 18.4235 15.4996 18.5166 15.508 18.6092V19.1525H15.5094ZM14.6969 20.4778C14.6969 20.3656 14.7397 20.2579 14.8159 20.1785C14.8921 20.0991 14.9954 20.0545 15.1031 20.0545C15.2109 20.0545 15.3142 20.0991 15.3904 20.1785C15.4666 20.2579 15.5094 20.3656 15.5094 20.4778V20.5692C15.5094 20.6815 15.4666 20.7892 15.3904 20.8685C15.3142 20.9479 15.2109 20.9925 15.1031 20.9925C14.9954 20.9925 14.8921 20.9479 14.8159 20.8685C14.7397 20.7892 14.6969 20.6815 14.6969 20.5692V20.4778ZM5.06629 4.22014C4.8939 4.04058 4.66711 3.92887 4.42454 3.90403C4.18198 3.8792 3.93865 3.94278 3.73603 4.08395C3.53341 4.22512 3.38403 4.43513 3.31334 4.67821C3.24265 4.92129 3.25503 5.18239 3.34837 5.41703C3.4417 5.65166 3.61022 5.84531 3.82521 5.96497C4.0402 6.08464 4.28835 6.12292 4.52738 6.07329C4.76642 6.02366 4.98154 5.8892 5.13611 5.6928C5.29067 5.49641 5.3751 5.25024 5.37502 4.99625C5.3752 4.85206 5.34801 4.70926 5.29503 4.57607C5.24204 4.44287 5.16431 4.32191 5.06629 4.22014ZM3.60692 19.3726C3.43449 19.1929 3.20762 19.0812 2.96497 19.0563C2.72232 19.0314 2.4789 19.095 2.2762 19.2362C2.07349 19.3774 1.92404 19.5875 1.85332 19.8307C1.7826 20.0738 1.79498 20.335 1.88835 20.5697C1.98172 20.8045 2.1503 20.9982 2.36537 21.1179C2.58044 21.2376 2.82869 21.2759 3.06781 21.2262C3.30693 21.1765 3.52213 21.042 3.67673 20.8455C3.83133 20.6491 3.91577 20.4028 3.91565 20.1487C3.91583 20.0045 3.88864 19.8617 3.83566 19.7285C3.78267 19.5953 3.70494 19.4744 3.60692 19.3726ZM8.34928 29.0789C8.09081 28.8095 7.75073 28.6419 7.38698 28.6046C7.02322 28.5673 6.6583 28.6625 6.35439 28.8742C6.05048 29.0858 5.82639 29.4007 5.72029 29.7652C5.61419 30.1297 5.63266 30.5213 5.77255 30.8732C5.91243 31.2251 6.16508 31.5155 6.48744 31.6951C6.8098 31.8746 7.18193 31.9322 7.54042 31.8578C7.8989 31.7835 8.22158 31.582 8.45345 31.2875C8.68532 30.9931 8.81205 30.6239 8.81204 30.243C8.81229 30.0268 8.77154 29.8126 8.69212 29.6128C8.61271 29.413 8.49619 29.2316 8.34928 29.0789ZM28.6836 16.0374C28.5111 15.8574 28.2841 15.7453 28.0412 15.7202C27.7983 15.6952 27.5545 15.7587 27.3515 15.8999C27.1485 16.0411 26.9988 16.2514 26.9278 16.4948C26.8569 16.7382 26.8692 16.9997 26.9626 17.2347C27.056 17.4697 27.2247 17.6637 27.44 17.7836C27.6553 17.9035 27.9038 17.9419 28.1432 17.8922C28.3826 17.8425 28.598 17.7079 28.7528 17.5112C28.9076 17.3145 28.9921 17.0679 28.992 16.8135C28.9921 16.6694 28.9649 16.5267 28.912 16.3935C28.8591 16.2603 28.7815 16.1393 28.6836 16.0374ZM22.9254 2.31162C22.6669 2.04229 22.3268 1.87468 21.9631 1.83735C21.5993 1.80002 21.2344 1.89529 20.9305 2.10691C20.6266 2.31854 20.4025 2.63344 20.2964 2.99794C20.1903 3.36245 20.2087 3.75401 20.3486 4.10592C20.4885 4.45783 20.7412 4.7483 21.0635 4.92785C21.3859 5.1074 21.758 5.16491 22.1165 5.09059C22.475 5.01627 22.7977 4.81472 23.0295 4.52027C23.2614 4.22581 23.3881 3.85669 23.3881 3.47578C23.3884 3.25953 23.3476 3.04536 23.2682 2.84557C23.1888 2.64579 23.0723 2.46433 22.9254 2.31162ZM11.5581 23.1321C10.089 22.1518 9.05134 20.606 8.67121 18.8318L8.66884 18.8198L8.66613 18.8081C8.43695 17.7119 8.46904 16.5738 8.75961 15.4935C9.05018 14.4131 9.59037 13.4235 10.3329 12.611C11.0755 11.7986 11.9977 11.1882 13.0191 10.8332C14.0404 10.4782 15.1296 10.3894 16.1915 10.5747C17.2534 10.7599 18.2555 11.2135 19.1102 11.8957C19.9649 12.578 20.6462 13.4681 21.0944 14.4882C21.5426 15.5083 21.7441 16.6274 21.6812 17.7474C21.6183 18.8675 21.293 19.9544 20.7338 20.9132C20.728 20.9177 20.7226 20.9227 20.7172 20.9276C20.6555 20.9846 20.6121 21.06 20.5929 21.1435C19.9622 22.128 19.0997 22.9275 18.0879 23.4655C18.0087 23.4769 17.9345 23.5126 17.875 23.5682L17.8641 23.5787C16.8648 24.0581 15.7664 24.2696 14.6687 24.194C13.571 24.1184 12.5089 23.7581 11.5788 23.1459L11.5673 23.1378L11.5581 23.1321ZM8.15564 27.944L10.7961 23.6137C9.42386 22.5876 8.42824 21.1047 7.97352 19.4096L4.72371 20.154C4.72066 20.6318 4.54852 21.0916 4.24029 21.4454C3.93205 21.7992 3.50939 22.0219 3.0533 22.0711C2.59721 22.1202 2.13976 21.9922 1.76861 21.7116C1.39746 21.4311 1.13871 21.0176 1.04194 20.5506C0.945172 20.0835 1.01719 19.5956 1.2442 19.1805C1.47121 18.7653 1.83724 18.4521 2.27216 18.3007C2.70707 18.1494 3.18028 18.1706 3.60112 18.3603C4.02195 18.55 4.3608 18.8949 4.55275 19.3288L7.80256 18.5841C7.61614 17.3872 7.70288 16.1613 8.05576 15.0058C8.40864 13.8504 9.01773 12.7977 9.8337 11.9332L5.24706 6.68358C4.84819 6.92158 4.37906 6.99779 3.9296 6.8976C3.48014 6.79741 3.08198 6.52788 2.81144 6.14066C2.5409 5.75344 2.41702 5.27579 2.46355 4.79927C2.51008 4.32276 2.72374 3.8809 3.06357 3.5584C3.40341 3.23591 3.8455 3.05547 4.30511 3.05167C4.76473 3.04788 5.20951 3.22099 5.55421 3.53784C5.8989 3.85468 6.11925 4.29296 6.17302 4.76865C6.22679 5.24434 6.11018 5.72397 5.84557 6.11561L10.4312 11.3663C11.4856 10.4723 12.7557 9.89788 14.1025 9.70587C15.4493 9.51385 16.8208 9.71167 18.0669 10.2777L20.3868 5.47991C20.2917 5.40627 20.2018 5.32551 20.118 5.23825C19.7071 4.80912 19.4611 4.23823 19.4261 3.63313C19.3912 3.02804 19.5698 2.43051 19.9283 1.95312C20.2868 1.47573 20.8004 1.15143 21.3724 1.04133C21.9444 0.931217 22.5353 1.0429 23.0338 1.35533C23.5323 1.66776 23.904 2.15937 24.0787 2.73754C24.2535 3.31572 24.2194 3.94055 23.9828 4.49432C23.7461 5.04809 23.3234 5.49257 22.7941 5.74402C22.2648 5.99547 21.6655 6.03654 21.1092 5.85949L18.7896 10.6572C19.4776 11.0697 20.0973 11.5949 20.6251 12.2126C21.6766 13.4377 22.3229 14.9822 22.4687 16.6188L26.1027 16.4689C26.1846 15.9982 26.4302 15.5755 26.7927 15.2819C27.1551 14.9883 27.6087 14.8444 28.0667 14.8778C28.5246 14.9113 28.9546 15.1196 29.2742 15.463C29.5938 15.8064 29.7805 16.2607 29.7986 16.7387C29.8166 17.2167 29.6648 17.6848 29.3721 18.0533C29.0794 18.4219 28.6665 18.6649 28.2125 18.7357C27.7585 18.8066 27.2954 18.7003 26.9119 18.4374C26.5285 18.1744 26.2517 17.7732 26.1345 17.3106L22.5005 17.4591C22.4992 17.5666 22.4954 17.6741 22.4893 17.7816C22.4239 18.9901 22.0864 20.1656 21.5042 21.213L21.8319 21.5951C22.0085 21.8032 22.1378 22.0499 22.2105 22.3171C22.2832 22.5844 22.2972 22.8652 22.2517 23.1388L26.2666 27.8276C26.5483 28.1662 26.6907 28.6067 26.6631 29.0539C26.6355 29.5011 26.4401 29.919 26.119 30.2172C25.798 30.5154 25.3773 30.6699 24.9478 30.6473C24.5183 30.6246 24.1146 30.4267 23.8241 30.0963L19.8116 25.4089C19.7432 25.4132 19.6746 25.4132 19.6061 25.4089C19.3739 25.3957 19.1465 25.3348 18.9369 25.2298C18.7273 25.1247 18.5397 24.9776 18.3848 24.7969L18.0571 24.4138C17.0093 24.8874 15.8707 25.1024 14.73 25.0422C13.5894 24.982 12.4775 24.6481 11.4809 24.0666L8.83844 28.3977C8.86733 28.4249 8.89543 28.4528 8.92273 28.4813C9.34062 28.9181 9.58758 29.5013 9.61555 30.1174C9.64352 30.7335 9.4505 31.3384 9.07406 31.8143C8.69761 32.2903 8.16469 32.6032 7.57902 32.6923C6.99335 32.7813 6.39684 32.64 5.90562 32.296C5.41439 31.9519 5.06359 31.4297 4.92151 30.8309C4.77943 30.2322 4.85623 29.5998 5.13696 29.0568C5.4177 28.5138 5.88227 28.0991 6.44026 27.8934C6.99825 27.6877 7.60972 27.7057 8.15564 27.944Z" stroke="#EAEAEA" stroke-width="0.32"/>
<path fill-rule="evenodd" clip-rule="evenodd" d="M15.3577 12.7288C14.3329 12.6673 13.3194 12.9781 12.4899 13.6081C11.6604 14.2381 11.0662 15.1484 10.8086 16.1838C10.5509 17.2193 10.6458 18.3158 11.077 19.2865C11.5082 20.2572 12.2491 21.042 13.1734 21.5072C14.0977 21.9725 15.1482 22.0893 16.1459 21.8378C17.1436 21.5863 18.0267 20.9821 18.6448 20.1281C19.2628 19.2741 19.5776 18.2231 19.5355 17.1544C19.4933 16.0856 19.0968 15.0651 18.4135 14.2669C18.0264 13.8134 17.5572 13.4441 17.0328 13.1802C16.5084 12.9162 15.9392 12.7628 15.3577 12.7288ZM11.613 13.2639C12.5187 12.4216 13.6768 11.9327 14.8897 11.8804C16.1026 11.8281 17.2954 12.2158 18.2648 12.9773C19.2342 13.7387 19.9203 14.827 20.2061 16.0565C20.4919 17.286 20.3597 18.5808 19.8322 19.7201C19.3046 20.8595 18.4142 21.773 17.3128 22.3049C16.2113 22.8369 14.967 22.9544 13.7918 22.6374C12.6165 22.3204 11.5831 21.5886 10.8676 20.5666C10.1521 19.5446 9.79881 18.2957 9.86789 17.0326C9.90603 16.3156 10.0798 15.6135 10.3793 14.9667C10.6788 14.3199 11.0981 13.7412 11.613 13.2639ZM20.6552 25.1267L24.4281 29.5364C24.5746 29.7041 24.7788 29.8048 24.9961 29.8165C25.2135 29.8282 25.4265 29.75 25.5889 29.5989C25.7512 29.4479 25.8498 29.2361 25.8632 29.0097C25.8766 28.7833 25.8036 28.5606 25.6603 28.3899L21.8878 23.9805C21.827 24.0592 21.76 24.1324 21.6877 24.1996L20.8841 24.9464C20.8127 25.013 20.7362 25.0733 20.6552 25.1267ZM21.4186 23.1434C21.3656 23.3077 21.2722 23.4546 21.1478 23.5696L20.3458 24.316C20.2211 24.432 20.0694 24.5118 19.9057 24.5475L19.8844 24.552C19.8075 24.5668 19.7292 24.5719 19.6512 24.5672C19.5252 24.5603 19.4018 24.5275 19.288 24.4706C19.1742 24.4138 19.0724 24.334 18.9883 24.236L18.8039 24.0204C19.2404 23.7567 19.6501 23.4474 20.0266 23.0972C20.4018 22.7493 20.742 22.3625 21.0422 21.9429L21.2253 22.157C21.3092 22.2553 21.3737 22.3699 21.415 22.4942C21.4564 22.6184 21.4738 22.75 21.4663 22.8813C21.4619 22.9591 21.449 23.0362 21.4277 23.111C21.424 23.1219 21.4213 23.1325 21.4186 23.1434ZM15.5094 19.1525C15.5094 19.2647 15.4666 19.3724 15.3904 19.4518C15.3142 19.5312 15.2109 19.5758 15.1031 19.5758C14.9954 19.5758 14.8921 19.5312 14.8159 19.4518C14.7397 19.3724 14.6969 19.2647 14.6969 19.1525V18.6099C14.6844 18.33 14.7652 18.0542 14.9254 17.8292C15.098 17.613 15.3271 17.4537 15.5848 17.3706C15.8255 17.2788 16.0373 17.1201 16.1974 16.9117C16.3575 16.7032 16.4597 16.453 16.4928 16.1882C16.526 15.9234 16.4888 15.6543 16.3854 15.41C16.282 15.1657 16.1163 14.9556 15.9063 14.8026C15.6963 14.6497 15.4501 14.5596 15.1944 14.5423C14.9388 14.5249 14.6834 14.581 14.4562 14.7043C14.229 14.8277 14.0385 15.0136 13.9056 15.2418C13.7727 15.4701 13.7024 15.732 13.7023 15.999C13.7059 16.0568 13.6981 16.1147 13.6793 16.1692C13.6606 16.2237 13.6313 16.2736 13.5933 16.3158C13.5553 16.3581 13.5094 16.3917 13.4584 16.4147C13.4075 16.4378 13.3525 16.4496 13.2969 16.4496C13.2414 16.4496 13.1864 16.4378 13.1355 16.4147C13.0845 16.3917 13.0386 16.3581 13.0006 16.3158C12.9626 16.2736 12.9333 16.2237 12.9146 16.1692C12.8958 16.1147 12.888 16.0568 12.8916 15.999C12.8916 15.5778 13.0025 15.1646 13.2122 14.8045C13.4218 14.4444 13.7222 14.151 14.0807 13.9564C14.4392 13.7619 14.842 13.6734 15.2454 13.7008C15.6487 13.7282 16.0372 13.8703 16.3684 14.1117C16.6997 14.3531 16.961 14.6845 17.1241 15.0699C17.2872 15.4554 17.3457 15.88 17.2934 16.2977C17.241 16.7154 17.0797 17.1101 16.827 17.4389C16.5744 17.7677 16.2401 18.018 15.8604 18.1626C15.7484 18.1947 15.6466 18.2571 15.5652 18.3435C15.5196 18.4235 15.4996 18.5166 15.508 18.6092V19.1525H15.5094ZM14.6969 20.4778C14.6969 20.3656 14.7397 20.2579 14.8159 20.1785C14.8921 20.0991 14.9954 20.0545 15.1031 20.0545C15.2109 20.0545 15.3142 20.0991 15.3904 20.1785C15.4666 20.2579 15.5094 20.3656 15.5094 20.4778V20.5692C15.5094 20.6815 15.4666 20.7892 15.3904 20.8685C15.3142 20.9479 15.2109 20.9925 15.1031 20.9925C14.9954 20.9925 14.8921 20.9479 14.8159 20.8685C14.7397 20.7892 14.6969 20.6815 14.6969 20.5692V20.4778ZM5.06629 4.22014C4.8939 4.04058 4.66711 3.92887 4.42454 3.90403C4.18198 3.8792 3.93865 3.94278 3.73603 4.08395C3.53341 4.22512 3.38403 4.43513 3.31334 4.67821C3.24265 4.92129 3.25503 5.18239 3.34837 5.41703C3.4417 5.65166 3.61022 5.84531 3.82521 5.96497C4.0402 6.08464 4.28835 6.12292 4.52738 6.07329C4.76642 6.02366 4.98154 5.8892 5.13611 5.6928C5.29067 5.49641 5.3751 5.25024 5.37502 4.99625C5.3752 4.85206 5.34801 4.70926 5.29503 4.57607C5.24204 4.44287 5.16431 4.32191 5.06629 4.22014ZM3.60692 19.3726C3.43449 19.1929 3.20762 19.0812 2.96497 19.0563C2.72232 19.0314 2.4789 19.095 2.2762 19.2362C2.07349 19.3774 1.92404 19.5875 1.85332 19.8307C1.7826 20.0738 1.79498 20.335 1.88835 20.5697C1.98172 20.8045 2.1503 20.9982 2.36537 21.1179C2.58044 21.2376 2.82869 21.2759 3.06781 21.2262C3.30693 21.1765 3.52213 21.042 3.67673 20.8455C3.83133 20.6491 3.91577 20.4028 3.91565 20.1487C3.91583 20.0045 3.88864 19.8617 3.83566 19.7285C3.78267 19.5953 3.70494 19.4744 3.60692 19.3726ZM8.34928 29.0789C8.09081 28.8095 7.75073 28.6419 7.38698 28.6046C7.02322 28.5673 6.6583 28.6625 6.35439 28.8742C6.05048 29.0858 5.82639 29.4007 5.72029 29.7652C5.61419 30.1297 5.63266 30.5213 5.77255 30.8732C5.91243 31.2251 6.16508 31.5155 6.48744 31.6951C6.8098 31.8746 7.18193 31.9322 7.54042 31.8578C7.8989 31.7835 8.22158 31.582 8.45345 31.2875C8.68532 30.9931 8.81205 30.6239 8.81204 30.243C8.81229 30.0268 8.77154 29.8126 8.69212 29.6128C8.61271 29.413 8.49619 29.2316 8.34928 29.0789ZM28.6836 16.0374C28.5111 15.8574 28.2841 15.7453 28.0412 15.7202C27.7983 15.6952 27.5545 15.7587 27.3515 15.8999C27.1485 16.0411 26.9988 16.2514 26.9278 16.4948C26.8569 16.7382 26.8692 16.9997 26.9626 17.2347C27.056 17.4697 27.2247 17.6637 27.44 17.7836C27.6553 17.9035 27.9038 17.9419 28.1432 17.8922C28.3826 17.8425 28.598 17.7079 28.7528 17.5112C28.9076 17.3145 28.9921 17.0679 28.992 16.8135C28.9921 16.6694 28.9649 16.5267 28.912 16.3935C28.8591 16.2603 28.7815 16.1393 28.6836 16.0374ZM22.9254 2.31162C22.6669 2.04229 22.3268 1.87468 21.9631 1.83735C21.5993 1.80002 21.2344 1.89529 20.9305 2.10691C20.6266 2.31854 20.4025 2.63344 20.2964 2.99794C20.1903 3.36245 20.2087 3.75401 20.3486 4.10592C20.4885 4.45783 20.7412 4.7483 21.0635 4.92785C21.3859 5.1074 21.758 5.16491 22.1165 5.09059C22.475 5.01627 22.7977 4.81472 23.0295 4.52027C23.2614 4.22581 23.3881 3.85669 23.3881 3.47578C23.3884 3.25953 23.3476 3.04536 23.2682 2.84557C23.1888 2.64579 23.0723 2.46433 22.9254 2.31162ZM11.5581 23.1321C10.089 22.1518 9.05134 20.606 8.67121 18.8318L8.66884 18.8198L8.66613 18.8081C8.43695 17.7119 8.46904 16.5738 8.75961 15.4935C9.05018 14.4131 9.59037 13.4235 10.3329 12.611C11.0755 11.7986 11.9977 11.1882 13.0191 10.8332C14.0404 10.4782 15.1296 10.3894 16.1915 10.5747C17.2534 10.7599 18.2555 11.2135 19.1102 11.8957C19.9649 12.578 20.6462 13.4681 21.0944 14.4882C21.5426 15.5083 21.7441 16.6274 21.6812 17.7474C21.6183 18.8675 21.293 19.9544 20.7338 20.9132C20.728 20.9177 20.7226 20.9227 20.7172 20.9276C20.6555 20.9846 20.6121 21.06 20.5929 21.1435C19.9622 22.128 19.0997 22.9275 18.0879 23.4655C18.0087 23.4769 17.9345 23.5126 17.875 23.5682L17.8641 23.5787C16.8648 24.0581 15.7664 24.2696 14.6687 24.194C13.571 24.1184 12.5089 23.7581 11.5788 23.1459L11.5673 23.1378L11.5581 23.1321ZM8.15564 27.944L10.7961 23.6137C9.42386 22.5876 8.42824 21.1047 7.97352 19.4096L4.72371 20.154C4.72066 20.6318 4.54852 21.0916 4.24029 21.4454C3.93205 21.7992 3.50939 22.0219 3.0533 22.0711C2.59721 22.1202 2.13976 21.9922 1.76861 21.7116C1.39746 21.4311 1.13871 21.0176 1.04194 20.5506C0.945172 20.0835 1.01719 19.5956 1.2442 19.1805C1.47121 18.7653 1.83724 18.4521 2.27216 18.3007C2.70707 18.1494 3.18028 18.1706 3.60112 18.3603C4.02195 18.55 4.3608 18.8949 4.55275 19.3288L7.80256 18.5841C7.61614 17.3872 7.70288 16.1613 8.05576 15.0058C8.40864 13.8504 9.01773 12.7977 9.8337 11.9332L5.24706 6.68358C4.84819 6.92158 4.37906 6.99779 3.9296 6.8976C3.48014 6.79741 3.08198 6.52788 2.81144 6.14066C2.5409 5.75344 2.41702 5.27579 2.46355 4.79927C2.51008 4.32276 2.72374 3.8809 3.06357 3.5584C3.40341 3.23591 3.8455 3.05547 4.30511 3.05167C4.76473 3.04788 5.20951 3.22099 5.55421 3.53784C5.8989 3.85468 6.11925 4.29296 6.17302 4.76865C6.22679 5.24434 6.11018 5.72397 5.84557 6.11561L10.4312 11.3663C11.4856 10.4723 12.7557 9.89788 14.1025 9.70587C15.4493 9.51385 16.8208 9.71167 18.0669 10.2777L20.3868 5.47991C20.2917 5.40627 20.2018 5.32551 20.118 5.23825C19.7071 4.80912 19.4611 4.23823 19.4261 3.63313C19.3912 3.02804 19.5698 2.43051 19.9283 1.95312C20.2868 1.47573 20.8004 1.15143 21.3724 1.04133C21.9444 0.931217 22.5353 1.0429 23.0338 1.35533C23.5323 1.66776 23.904 2.15937 24.0787 2.73754C24.2535 3.31572 24.2194 3.94055 23.9828 4.49432C23.7461 5.04809 23.3234 5.49257 22.7941 5.74402C22.2648 5.99547 21.6655 6.03654 21.1092 5.85949L18.7896 10.6572C19.4776 11.0697 20.0973 11.5949 20.6251 12.2126C21.6766 13.4377 22.3229 14.9822 22.4687 16.6188L26.1027 16.4689C26.1846 15.9982 26.4302 15.5755 26.7927 15.2819C27.1551 14.9883 27.6087 14.8444 28.0667 14.8778C28.5246 14.9113 28.9546 15.1196 29.2742 15.463C29.5938 15.8064 29.7805 16.2607 29.7986 16.7387C29.8166 17.2167 29.6648 17.6848 29.3721 18.0533C29.0794 18.4219 28.6665 18.6649 28.2125 18.7357C27.7585 18.8066 27.2954 18.7003 26.9119 18.4374C26.5285 18.1744 26.2517 17.7732 26.1345 17.3106L22.5005 17.4591C22.4992 17.5666 22.4954 17.6741 22.4893 17.7816C22.4239 18.9901 22.0864 20.1656 21.5042 21.213L21.8319 21.5951C22.0085 21.8032 22.1378 22.0499 22.2105 22.3171C22.2832 22.5844 22.2972 22.8652 22.2517 23.1388L26.2666 27.8276C26.5483 28.1662 26.6907 28.6067 26.6631 29.0539C26.6355 29.5011 26.4401 29.919 26.119 30.2172C25.798 30.5154 25.3773 30.6699 24.9478 30.6473C24.5183 30.6246 24.1146 30.4267 23.8241 30.0963L19.8116 25.4089C19.7432 25.4132 19.6746 25.4132 19.6061 25.4089C19.3739 25.3957 19.1465 25.3348 18.9369 25.2298C18.7273 25.1247 18.5397 24.9776 18.3848 24.7969L18.0571 24.4138C17.0093 24.8874 15.8707 25.1024 14.73 25.0422C13.5894 24.982 12.4775 24.6481 11.4809 24.0666L8.83844 28.3977C8.86733 28.4249 8.89543 28.4528 8.92273 28.4813C9.34062 28.9181 9.58758 29.5013 9.61555 30.1174C9.64352 30.7335 9.4505 31.3384 9.07406 31.8143C8.69761 32.2903 8.16469 32.6032 7.57902 32.6923C6.99335 32.7813 6.39684 32.64 5.90562 32.296C5.41439 31.9519 5.06359 31.4297 4.92151 30.8309C4.77943 30.2322 4.85623 29.5998 5.13696 29.0568C5.4177 28.5138 5.88227 28.0991 6.44026 27.8934C6.99825 27.6877 7.60972 27.7057 8.15564 27.944Z" stroke="url(#paint1_linear_1930_11872)" stroke-width="0.32"/>
</g>
</g>
<defs>
<linearGradient id="paint0_linear_1930_11872" x1="1" y1="1" x2="40.026" y2="5.89473" gradientUnits="userSpaceOnUse">
<stop stop-color="#9342CE"/>
<stop offset="0.514675" stop-color="#6284B6"/>
<stop offset="1" stop-color="#35C29F"/>
</linearGradient>
<linearGradient id="paint1_linear_1930_11872" x1="1" y1="1" x2="40.026" y2="5.89473" gradientUnits="userSpaceOnUse">
<stop stop-color="#9342CE"/>
<stop offset="0.514675" stop-color="#6284B6"/>
<stop offset="1" stop-color="#35C29F"/>
</linearGradient>
</defs>
</svg>
