<svg width="15" height="14" viewBox="0 0 15 14" fill="none" xmlns="http://www.w3.org/2000/svg">
<path id="Vector" d="M7.5 0.349609C7.57072 0.349658 7.64377 0.363656 7.7207 0.395508L7.7998 0.43457C7.86082 0.468638 7.91118 0.514401 7.95117 0.579102L7.98828 0.651367V0.652344L9.63086 4.46191L9.71387 4.6543L9.92285 4.67188L14.1562 5.03418C14.2748 5.05107 14.3549 5.08111 14.4092 5.11328L14.4561 5.14551C14.5067 5.1888 14.5497 5.2434 14.585 5.3125L14.6182 5.38672C14.6443 5.45687 14.6542 5.52656 14.6484 5.59863L14.6377 5.67188C14.62 5.75203 14.5738 5.83537 14.4746 5.92188L11.2598 8.63574L11.0947 8.77539L11.1455 8.98438L12.1084 13.0293C12.1363 13.1478 12.1236 13.2315 12.0908 13.2988C12.054 13.3746 12.0068 13.4389 11.9492 13.4941L11.8877 13.5469C11.8126 13.6036 11.7233 13.6388 11.6094 13.6484H11.5391C11.4685 13.643 11.3966 13.62 11.3203 13.5723H11.3213L11.3125 13.5674L7.67676 11.4268L7.5 11.3223L7.32227 11.4268L3.68652 13.5674L3.67969 13.5713C3.57766 13.6347 3.4833 13.6561 3.38867 13.6484L3.30859 13.6367C3.25769 13.6258 3.21215 13.6088 3.1709 13.5859L3.1123 13.5469C3.04664 13.4969 2.992 13.4388 2.94824 13.3701L2.9082 13.2979C2.876 13.2317 2.86269 13.1485 2.89062 13.0293L3.85449 8.98438L3.9043 8.77539L3.73926 8.63574L0.520508 5.91797C0.449324 5.8543 0.406325 5.7926 0.381836 5.73242L0.362305 5.6709C0.345863 5.59626 0.346057 5.52577 0.361328 5.45605L0.381836 5.38672C0.410944 5.30799 0.448988 5.2447 0.495117 5.19336L0.543945 5.14551C0.595526 5.10146 0.68506 5.05619 0.84082 5.03418L5.07617 4.67188L5.28516 4.6543L5.36816 4.46191L7.01074 0.652344L7.01172 0.651367C7.04501 0.573282 7.0877 0.515563 7.1416 0.472656L7.19922 0.43457C7.30599 0.375057 7.40538 0.349609 7.5 0.349609Z" stroke="white" stroke-opacity="0.8" stroke-width="0.7"/>
</svg>
