<svg width="13" height="12" viewBox="0 0 13 12" fill="none" xmlns="http://www.w3.org/2000/svg">
<path id="Vector" d="M6.5 0.349609C6.55534 0.349651 6.6131 0.36046 6.6748 0.385742L6.73828 0.416992C6.78422 0.44233 6.82219 0.475724 6.85254 0.524414L6.88086 0.579102V0.580078L8.30469 3.8457L8.3877 4.03711L8.5957 4.05469L12.2627 4.36426C12.3617 4.3782 12.4252 4.4029 12.4658 4.42676L12.499 4.4502C12.5508 4.49402 12.5946 4.55234 12.626 4.63574C12.6525 4.70622 12.6572 4.77494 12.6406 4.84961C12.6284 4.9046 12.5964 4.96585 12.5195 5.0332L9.72949 7.36328L9.56348 7.50195L9.61426 7.71387L10.4492 11.1807C10.4708 11.2717 10.4598 11.3307 10.4375 11.376C10.3985 11.4553 10.3454 11.5187 10.2764 11.5703C10.2188 11.6133 10.149 11.6408 10.0576 11.6484C10.0042 11.6529 9.95074 11.646 9.89355 11.6211L9.83496 11.5898L9.82617 11.585L6.67578 9.75098L6.5 9.64844L6.32324 9.75098L3.17285 11.585L3.16504 11.5889C3.08433 11.6385 3.01264 11.6543 2.94043 11.6484L2.87598 11.6396C2.81598 11.6268 2.76644 11.6035 2.72363 11.5713C2.67119 11.5318 2.62847 11.4856 2.59375 11.4316L2.56152 11.375C2.53975 11.3307 2.5291 11.2724 2.55078 11.1807L3.38574 7.71387L3.43652 7.50195L3.26953 7.36328L0.484375 5.03711C0.424868 4.98525 0.391247 4.93726 0.373047 4.89258L0.359375 4.84961C0.346773 4.79303 0.346718 4.73986 0.358398 4.6875L0.374023 4.63574C0.389394 4.59463 0.407612 4.55889 0.428711 4.52832L0.5 4.4502C0.535904 4.41981 0.60438 4.38246 0.733398 4.36426L4.40332 4.05469L4.61133 4.03711L4.69434 3.8457L6.11816 0.580078L6.11914 0.579102C6.14479 0.519612 6.17719 0.477108 6.21777 0.445312L6.26074 0.416992C6.3472 0.369332 6.42595 0.349609 6.5 0.349609Z" stroke="url(#paint0_linear_1206_39649)" stroke-opacity="0.8" stroke-width="0.7"/>
<defs>
<linearGradient id="paint0_linear_1206_39649" x1="-3.03867e-08" y1="3" x2="17.0651" y2="4.77472" gradientUnits="userSpaceOnUse">
<stop stop-color="#A72DD4"/>
<stop offset="1" stop-color="#68DBBA"/>
</linearGradient>
</defs>
</svg>
