<svg width="64" height="65" viewBox="0 0 64 65" fill="none" xmlns="http://www.w3.org/2000/svg">
<g id="Application Arch Reviewer">
<path id="Rectangle 1321325330" opacity="0.2" d="M17.359 42.3275C17.7461 41.9549 18.3586 41.9549 18.7458 42.3275L28.0471 51.2789C28.4559 51.6723 28.4559 52.3266 28.0471 52.72L19.2054 61.2291C18.5894 61.8219 17.5906 61.8219 16.9746 61.2291L8.46201 53.0367C7.846 52.4438 7.846 51.4826 8.46201 50.8898L17.359 42.3275Z" fill="url(#paint0_linear_3088_152974)"/>
<path id="Vector" opacity="0.2" d="M47.0909 19.4621C45.6001 18.8281 44.1034 18.8152 42.6008 19.4234C41.0982 20.0316 40.0305 21.0825 39.3977 22.576C38.7649 24.0695 38.752 25.569 39.3591 27.0743C39.9662 28.5796 41.0151 29.6493 42.506 30.2832C43.9968 30.9172 45.4935 30.9301 46.9961 30.3219C48.4987 29.7137 49.5664 28.6629 50.1992 27.1693C50.832 25.6758 50.8449 24.1763 50.2378 22.671C49.6307 21.1657 48.5818 20.096 47.0909 19.4621ZM48.6098 10.5298L52.5127 12.1895C52.6534 12.2493 52.7696 12.3569 52.8614 12.5124C52.9533 12.6678 52.9793 12.812 52.9397 12.9448L52.058 16.436C52.4846 16.8003 52.9235 17.253 53.3748 17.7941C54.2528 17.6022 55.3302 17.312 56.6068 16.9237C56.8033 16.8908 56.9649 16.9013 57.0914 16.9552C57.2602 17.0269 57.3729 17.1331 57.4296 17.2736C57.7142 17.7771 58.0973 18.6259 58.579 19.8201C59.0606 21.0144 59.2447 21.7453 59.1312 22.013C59.0656 22.168 58.9537 22.295 58.7955 22.3941L55.867 24.0172C55.9133 24.6522 55.9015 25.2873 55.8314 25.9227C57.2847 26.7236 58.3061 27.3492 58.8955 27.7994C59.1912 28.0415 59.2704 28.3247 59.1331 28.6487L57.4675 32.5799C57.4018 32.7348 57.2894 32.8533 57.1302 32.9353C56.971 33.0172 56.8181 33.0353 56.6714 32.9896L53.2377 32.1031C52.8941 32.5224 52.4522 32.958 51.9121 33.4101L52.733 36.7025C52.7896 36.843 52.7792 37.0049 52.7015 37.188C52.6359 37.343 52.5169 37.467 52.3447 37.5601C49.6145 38.7936 48.0595 39.3296 47.6797 39.1681C47.5531 39.1143 47.4404 39.0082 47.3416 38.8497C47.2044 38.6251 46.954 38.1778 46.5906 37.5077C46.2272 36.8377 45.9385 36.3241 45.7246 35.9671C44.9684 36.028 44.2873 36.0294 43.6812 35.9712L41.8138 38.9684C41.74 39.1033 41.6224 39.1947 41.4611 39.2425C41.2998 39.2903 41.1417 39.2813 40.987 39.2155L37.0841 37.5558C36.9435 37.496 36.8273 37.3884 36.7354 37.2329C36.6436 37.0775 36.6175 36.9334 36.6572 36.8006L37.5389 33.3093C37.1123 32.945 36.6734 32.4923 36.2221 31.9512C35.344 32.1432 34.2667 32.4333 32.9901 32.8216C32.7936 32.8545 32.632 32.844 32.5054 32.7901C32.3367 32.7184 32.2169 32.6093 32.1462 32.4628C31.8556 31.9734 31.4745 31.1295 31.0029 29.9312C30.5313 28.733 30.3522 28 30.4656 27.7323C30.5313 27.5773 30.6432 27.4503 30.8014 27.3512L33.7299 25.7281C33.6797 25.1414 33.6845 24.5032 33.7443 23.8136C32.291 23.0127 31.2767 22.3901 30.7014 21.9459C30.4057 21.7038 30.3264 21.4207 30.4637 21.0966L32.1294 17.1655C32.195 17.0105 32.3075 16.892 32.4667 16.81C32.6259 16.7281 32.7788 16.71 32.9254 16.7557L36.3592 17.6422C36.7028 17.2229 37.1447 16.7873 37.6848 16.3352L36.8639 13.0428C36.8132 12.8882 36.8237 12.7264 36.8953 12.5573C36.961 12.4023 37.0799 12.2783 37.2522 12.1852C39.9824 10.9517 41.5374 10.4157 41.9172 10.5772C42.0297 10.625 42.1424 10.7312 42.2553 10.8956C42.4087 11.1603 42.6631 11.6177 43.0184 12.2677C43.3738 12.9177 43.6614 13.4141 43.8812 13.7571C44.6936 13.7201 45.3718 13.7258 45.9156 13.7741L47.762 10.7679C47.8499 10.639 47.9744 10.5506 48.1358 10.5028C48.2971 10.455 48.4551 10.464 48.6098 10.5298Z" fill="url(#paint1_linear_3088_152974)"/>
<path id="Vector_2" d="M16.4508 38.4599L27.1942 48.7992M16.4508 38.4599L6.86045 47.6895C6.24443 48.2824 6.24443 49.2436 6.86045 49.8364L15.3731 58.0288C15.9891 58.6216 16.9878 58.6216 17.6038 58.0288L27.1942 48.7992M16.4508 38.4599L16.4264 25.0799M27.1942 48.7992L39.2199 48.8195M16.4264 25.0799L22.4269 25.09C23.3002 25.0915 24.0086 24.4098 24.0071 23.5693L23.986 12.0091C23.9845 11.1728 23.2804 10.4952 22.4114 10.4937L10.3993 10.4734C9.526 10.472 8.81763 11.1537 8.81916 11.9942L8.84024 23.5544C8.84176 24.3907 9.54586 25.0683 10.4149 25.0698L16.4264 25.0799ZM39.2199 48.8195L39.2316 55.231C39.2331 56.0673 39.9372 56.7449 40.8062 56.7464L52.8183 56.7667C53.6916 56.7681 54.4 56.0864 54.3984 55.2459L54.3751 42.4694C54.3736 41.6331 53.6695 40.9555 52.8005 40.954L40.7885 40.9337C39.9151 40.9322 39.2068 41.614 39.2083 42.4544L39.2199 48.8195ZM45.4909 16.2629C44.0001 15.6289 42.5034 15.616 41.0008 16.2242C39.4982 16.8324 38.4305 17.8832 37.7977 19.3768C37.1649 20.8703 37.152 22.3698 37.7591 23.8751C38.3662 25.3804 39.4151 26.45 40.906 27.084C42.3968 27.718 43.8935 27.7309 45.3961 27.1227C46.8987 26.5145 47.9664 25.4636 48.5992 23.9701C49.232 22.4765 49.2449 20.9771 48.6378 19.4718C48.0307 17.9665 46.9818 16.8968 45.4909 16.2629ZM47.0098 7.3306L50.9127 8.99029C51.0534 9.0501 51.1696 9.15773 51.2614 9.31318C51.3533 9.46862 51.3793 9.61274 51.3397 9.74553L50.458 13.2368C50.8845 13.6011 51.3235 14.0538 51.7747 14.5949C52.6528 14.4029 53.7302 14.1128 55.0068 13.7245C55.2033 13.6916 55.3649 13.7021 55.4914 13.756C55.6602 13.8277 55.7729 13.9339 55.8296 14.0744C56.1142 14.5778 56.4973 15.4267 56.979 16.6209C57.4606 17.8151 57.6447 18.5461 57.5312 18.8138C57.4656 18.9688 57.3537 19.0958 57.1955 19.1949L54.267 20.818C54.3133 21.4529 54.3015 22.0881 54.2314 22.7235C55.6847 23.5244 56.7061 24.15 57.2955 24.6002C57.5912 24.8423 57.6704 25.1254 57.5331 25.4495L55.8675 29.3806C55.8018 29.5356 55.6894 29.6541 55.5302 29.7361C55.371 29.818 55.218 29.8361 55.0714 29.7904L51.6377 28.9039C51.294 29.3232 50.8522 29.7588 50.3121 30.2109L51.133 33.5033C51.1896 33.6438 51.1791 33.8056 51.1015 33.9888C51.0359 34.1438 50.9169 34.2678 50.7447 34.3609C48.0145 35.5944 46.4595 36.1304 46.0797 35.9689C45.9531 35.9151 45.8404 35.809 45.7416 35.6505C45.6044 35.4259 45.354 34.9785 44.9906 34.3085C44.6272 33.6385 44.3385 33.1249 44.1246 32.7679C43.3684 32.8288 42.6873 32.8302 42.0812 32.772L40.2138 35.7692C40.14 35.9041 40.0224 35.9955 39.8611 36.0433C39.6998 36.0911 39.5417 36.0821 39.387 36.0163L35.4841 34.3566C35.3435 34.2968 35.2273 34.1891 35.1354 34.0337C35.0436 33.8783 35.0175 33.7341 35.0572 33.6013L35.9389 30.1101C35.5123 29.7458 35.0734 29.2931 34.6221 28.7519C33.744 28.9439 32.6667 29.2341 31.3901 29.6224C31.1936 29.6552 31.032 29.6448 30.9054 29.5909C30.7367 29.5192 30.6169 29.41 30.5462 29.2636C30.2556 28.7741 29.8745 27.9303 29.4029 26.732C28.9313 25.5338 28.7522 24.8008 28.8656 24.5331C28.9313 24.3781 29.0432 24.251 29.2014 24.152L32.1299 22.5289C32.0797 21.9422 32.0845 21.304 32.1443 20.6144C30.691 19.8135 29.6767 19.1909 29.1014 18.7467C28.8057 18.5046 28.7264 18.2214 28.8637 17.8974L30.5294 13.9662C30.595 13.8112 30.7075 13.6928 30.8667 13.6108C31.0259 13.5289 31.1788 13.5107 31.3254 13.5565L34.7592 14.443C35.1028 14.0237 35.5447 13.588 36.0848 13.136L35.2639 9.84356C35.2132 9.68898 35.2237 9.52714 35.2953 9.35806C35.361 9.20307 35.4799 9.07905 35.6522 8.986C38.3824 7.75249 39.9374 7.21647 40.3172 7.37796C40.4297 7.4258 40.5424 7.53194 40.6553 7.69636C40.8087 7.96113 41.0631 8.41851 41.4184 9.06848C41.7738 9.71845 42.0614 10.2149 42.2812 10.5578C43.0936 10.5208 43.7718 10.5265 44.3156 10.5749L46.162 7.5687C46.2499 7.43976 46.3744 7.3514 46.5358 7.3036C46.6971 7.25581 46.8551 7.26481 47.0098 7.3306Z" stroke="url(#paint2_linear_3088_152974)"/>
</g>
<defs>
<linearGradient id="paint0_linear_3088_152974" x1="18.3979" y1="41.6602" x2="18.3979" y2="61.6737" gradientUnits="userSpaceOnUse">
<stop stop-color="#8C4ACB"/>
<stop offset="1" stop-color="#4BA4AA"/>
</linearGradient>
<linearGradient id="paint1_linear_3088_152974" x1="44.7984" y1="10.4727" x2="44.7984" y2="39.2727" gradientUnits="userSpaceOnUse">
<stop stop-color="#8C4ACB"/>
<stop offset="1" stop-color="#4BA4AA"/>
</linearGradient>
<linearGradient id="paint2_linear_3088_152974" x1="31.9984" y1="7.27344" x2="31.9984" y2="58.4734" gradientUnits="userSpaceOnUse">
<stop stop-color="#8C4ACB"/>
<stop offset="1" stop-color="#4BA4AA"/>
</linearGradient>
</defs>
</svg>
