<svg width="64" height="65" viewBox="0 0 64 65" fill="none" xmlns="http://www.w3.org/2000/svg">
<g id="Architect">
<path id="Subtract" opacity="0.2" d="M9.60156 10.6269C9.60173 9.73613 10.6787 9.28998 11.3086 9.91983L61.3584 59.9638C61.9882 60.5937 61.5421 61.6707 60.6514 61.6708H10.6016C10.0493 61.6708 9.60156 61.2231 9.60156 60.6708V10.6269ZM20.6641 32.6396C20.0341 32.0097 18.957 32.4557 18.957 33.3466V51.3153C18.957 51.8676 19.4047 52.3153 19.957 52.3153H37.9287C38.8193 52.315 39.2655 51.2382 38.6357 50.6083L20.6641 32.6396Z" fill="url(#paint0_linear_3088_152898)"/>
<path id="Vector" d="M55.2898 38.1765L27.7691 10.6559C27.7522 10.639 27.7318 10.6261 27.7092 10.6181L22.8112 8.88789C22.6844 8.84309 22.5622 8.96524 22.607 9.09205L24.3373 13.9901C24.3452 14.0126 24.3581 14.0331 24.375 14.05L51.8956 41.5706M55.2898 38.1765L51.8956 41.5706M55.2898 38.1765L58.0205 40.9073C58.083 40.9698 58.083 41.0711 58.0205 41.1336L54.8527 44.3014C54.7902 44.3639 54.6889 44.3639 54.6264 44.3014L51.8956 41.5706M6.39844 8.87633C6.39853 7.4511 8.12172 6.73753 9.12969 7.74508L57.1313 55.742C58.1389 56.7499 57.4254 58.4732 56 58.4732H7.99844C7.1151 58.473 6.39866 57.7565 6.39844 56.8732V8.87633ZM18.4875 30.4654C17.4795 29.4575 15.7563 30.1712 15.7563 31.5966V47.517C15.7563 48.4004 16.4714 49.1165 17.3547 49.117H33.2781C34.7036 49.117 35.4174 47.3936 34.4094 46.3857L18.4875 30.4654Z" stroke="url(#paint1_linear_3088_152898)"/>
</g>
<defs>
<linearGradient id="paint0_linear_3088_152898" x1="35.6274" y1="9.625" x2="35.6274" y2="61.6707" gradientUnits="userSpaceOnUse">
<stop stop-color="#9342CE"/>
<stop offset="1" stop-color="#4BA4AA"/>
</linearGradient>
<linearGradient id="paint1_linear_3088_152898" x1="22.4955" y1="8.77638" x2="56.4366" y2="42.7175" gradientUnits="userSpaceOnUse">
<stop stop-color="#9342CE"/>
<stop offset="1" stop-color="#4BA4AA"/>
</linearGradient>
</defs>
</svg>
