<svg width="41" height="45" viewBox="0 0 41 45" fill="none" xmlns="http://www.w3.org/2000/svg">
<path d="M32.7932 44.1465C32.612 44.1465 32.4644 44.0054 32.4644 43.824C32.3838 40.2427 33.0818 36.2581 34.545 31.9716C34.6054 31.7969 34.7933 31.7028 34.9678 31.7633C35.1423 31.8238 35.2363 32.0119 35.1759 32.1866C33.7396 36.3995 33.0483 40.3102 33.1289 43.8106C33.1356 43.9921 32.9879 44.1466 32.8067 44.1466L32.7932 44.1465Z" fill="#EAEAEA"/>
<path d="M32.7932 44.1465C32.612 44.1465 32.4644 44.0054 32.4644 43.824C32.3838 40.2427 33.0818 36.2581 34.545 31.9716C34.6054 31.7969 34.7933 31.7028 34.9678 31.7633C35.1423 31.8238 35.2363 32.0119 35.1759 32.1866C33.7396 36.3995 33.0483 40.3102 33.1289 43.8106C33.1356 43.9921 32.9879 44.1466 32.8067 44.1466L32.7932 44.1465Z" fill="url(#paint0_linear_1303_363)"/>
<path d="M14.9603 44.1465C14.7791 44.1465 14.6314 43.9987 14.6314 43.8173V39.6514C14.6314 39.0332 14.128 38.5226 13.5038 38.5226H8.00696C6.9264 38.5226 6.05387 37.6423 6.05387 36.5673V28.3766L3.38262 28.3833C2.49668 28.3833 1.69129 27.8995 1.28189 27.1201C1.09396 26.7573 1 26.381 1 26.0047C1 25.5007 1.16108 25.0103 1.46309 24.5869L5.01353 19.8029C5.06723 10.2955 9.96017 3.50235 18.1078 1.60765C20.8931 0.955907 23.8933 0.9962 26.7725 1.72188C32.4773 3.1598 36.7526 6.66717 38.82 11.5991C40.6052 15.8725 40.3569 20.8378 38.1287 25.212C37.5783 26.2871 37.028 27.4563 36.5447 28.6119C36.4709 28.7799 36.2762 28.8605 36.1085 28.7866C35.9407 28.7127 35.8601 28.5246 35.934 28.3499C36.4239 27.1875 36.981 25.9981 37.5381 24.9097C39.6724 20.7102 39.9207 15.9462 38.2092 11.8545C36.2293 7.12423 32.1084 3.7511 26.6115 2.3604C23.8329 1.66161 20.9467 1.62127 18.262 2.25289C10.3962 4.0738 5.69099 10.6788 5.67123 19.9175C5.67123 19.9914 5.6511 20.0586 5.60411 20.1124L1.99328 24.9768C1.7718 25.2792 1.6577 25.6353 1.6577 26.0048C1.6577 26.2736 1.72481 26.5491 1.86576 26.8178C2.16107 27.3755 2.73825 27.7249 3.38257 27.7249H6.06722C6.42293 27.7249 6.71154 28.0206 6.71154 28.3834V36.5741C6.71154 37.2863 7.28876 37.8709 8.00687 37.8709H13.5037C14.4904 37.8709 15.289 38.6705 15.289 39.6581V43.824C15.289 43.9987 15.1415 44.1465 14.9603 44.1465Z" fill="#EAEAEA"/>
<path d="M14.9603 44.1465C14.7791 44.1465 14.6314 43.9987 14.6314 43.8173V39.6514C14.6314 39.0332 14.128 38.5226 13.5038 38.5226H8.00696C6.9264 38.5226 6.05387 37.6423 6.05387 36.5673V28.3766L3.38262 28.3833C2.49668 28.3833 1.69129 27.8995 1.28189 27.1201C1.09396 26.7573 1 26.381 1 26.0047C1 25.5007 1.16108 25.0103 1.46309 24.5869L5.01353 19.8029C5.06723 10.2955 9.96017 3.50235 18.1078 1.60765C20.8931 0.955907 23.8933 0.9962 26.7725 1.72188C32.4773 3.1598 36.7526 6.66717 38.82 11.5991C40.6052 15.8725 40.3569 20.8378 38.1287 25.212C37.5783 26.2871 37.028 27.4563 36.5447 28.6119C36.4709 28.7799 36.2762 28.8605 36.1085 28.7866C35.9407 28.7127 35.8601 28.5246 35.934 28.3499C36.4239 27.1875 36.981 25.9981 37.5381 24.9097C39.6724 20.7102 39.9207 15.9462 38.2092 11.8545C36.2293 7.12423 32.1084 3.7511 26.6115 2.3604C23.8329 1.66161 20.9467 1.62127 18.262 2.25289C10.3962 4.0738 5.69099 10.6788 5.67123 19.9175C5.67123 19.9914 5.6511 20.0586 5.60411 20.1124L1.99328 24.9768C1.7718 25.2792 1.6577 25.6353 1.6577 26.0048C1.6577 26.2736 1.72481 26.5491 1.86576 26.8178C2.16107 27.3755 2.73825 27.7249 3.38257 27.7249H6.06722C6.42293 27.7249 6.71154 28.0206 6.71154 28.3834V36.5741C6.71154 37.2863 7.28876 37.8709 8.00687 37.8709H13.5037C14.4904 37.8709 15.289 38.6705 15.289 39.6581V43.824C15.289 43.9987 15.1415 44.1465 14.9603 44.1465Z" fill="url(#paint1_linear_1303_363)"/>
<path d="M22.5645 27.1536C17.0809 27.1536 12.618 22.6852 12.618 17.1959C12.618 11.7066 17.0814 7.23824 22.5645 7.23824C28.0476 7.23824 32.511 11.7066 32.511 17.1959C32.511 22.6852 28.0476 27.1536 22.5645 27.1536ZM22.5645 7.90306C17.4435 7.90306 13.2756 12.0756 13.2756 17.2024C13.2756 22.3291 17.4435 26.5017 22.5645 26.5017C27.6855 26.5017 31.8534 22.3291 31.8534 17.2024C31.8534 12.0756 27.6855 7.90306 22.5645 7.90306Z" fill="#EAEAEA"/>
<path d="M22.5645 27.1536C17.0809 27.1536 12.618 22.6852 12.618 17.1959C12.618 11.7066 17.0814 7.23824 22.5645 7.23824C28.0476 7.23824 32.511 11.7066 32.511 17.1959C32.511 22.6852 28.0476 27.1536 22.5645 27.1536ZM22.5645 7.90306C17.4435 7.90306 13.2756 12.0756 13.2756 17.2024C13.2756 22.3291 17.4435 26.5017 22.5645 26.5017C27.6855 26.5017 31.8534 22.3291 31.8534 17.2024C31.8534 12.0756 27.6855 7.90306 22.5645 7.90306Z" fill="url(#paint2_linear_1303_363)"/>
<path d="M22.5645 29.64C15.712 29.64 10.1343 24.0565 10.1343 17.1959C10.1343 10.3353 15.7115 4.75871 22.5645 4.75871C29.4174 4.75871 34.9946 10.3357 34.9946 17.1959C34.9946 24.0561 29.4174 29.64 22.5645 29.64ZM22.5645 5.41751C16.0745 5.41751 10.7988 10.7055 10.7988 17.1963C10.7988 23.6872 16.0741 28.9752 22.5645 28.9752C29.0549 28.9752 34.3301 23.6872 34.3301 17.1963C34.3301 10.7055 29.0549 5.41751 22.5645 5.41751Z" fill="#EAEAEA"/>
<path d="M22.5645 29.64C15.712 29.64 10.1343 24.0565 10.1343 17.1959C10.1343 10.3353 15.7115 4.75871 22.5645 4.75871C29.4174 4.75871 34.9946 10.3357 34.9946 17.1959C34.9946 24.0561 29.4174 29.64 22.5645 29.64ZM22.5645 5.41751C16.0745 5.41751 10.7988 10.7055 10.7988 17.1963C10.7988 23.6872 16.0741 28.9752 22.5645 28.9752C29.0549 28.9752 34.3301 23.6872 34.3301 17.1963C34.3301 10.7055 29.0549 5.41751 22.5645 5.41751Z" fill="url(#paint3_linear_1303_363)"/>
<path d="M35.9946 33.3219C35.7597 33.3219 35.5382 33.2278 35.3705 33.0666L29.5046 27.1941C29.3771 27.0665 29.3771 26.8582 29.5046 26.7238C29.6321 26.5961 29.8402 26.5961 29.9744 26.7238L35.8403 32.5962C35.9208 32.6768 36.0685 32.6768 36.149 32.5962L37.8605 30.8828C37.9008 30.8425 37.9276 30.7887 37.9276 30.7283C37.9276 30.6678 37.9075 30.614 37.8605 30.5737L32.035 24.7417C31.9075 24.614 31.9075 24.4057 32.035 24.2713C32.1625 24.1437 32.3706 24.1437 32.5049 24.2713L38.3303 30.1034C38.4981 30.2713 38.5854 30.4931 38.5854 30.7282C38.5854 30.9634 38.4914 31.1851 38.3303 31.3531L36.6189 33.0665C36.4511 33.2277 36.2295 33.3219 35.9946 33.3219Z" fill="#EAEAEA"/>
<path d="M35.9946 33.3219C35.7597 33.3219 35.5382 33.2278 35.3705 33.0666L29.5046 27.1941C29.3771 27.0665 29.3771 26.8582 29.5046 26.7238C29.6321 26.5961 29.8402 26.5961 29.9744 26.7238L35.8403 32.5962C35.9208 32.6768 36.0685 32.6768 36.149 32.5962L37.8605 30.8828C37.9008 30.8425 37.9276 30.7887 37.9276 30.7283C37.9276 30.6678 37.9075 30.614 37.8605 30.5737L32.035 24.7417C31.9075 24.614 31.9075 24.4057 32.035 24.2713C32.1625 24.1437 32.3706 24.1437 32.5049 24.2713L38.3303 30.1034C38.4981 30.2713 38.5854 30.4931 38.5854 30.7282C38.5854 30.9634 38.4914 31.1851 38.3303 31.3531L36.6189 33.0665C36.4511 33.2277 36.2295 33.3219 35.9946 33.3219Z" fill="url(#paint4_linear_1303_363)"/>
<path d="M27.7594 22.3898H17.135C16.9538 22.3898 16.8062 22.2419 16.8062 22.0605V12.5127C16.8062 12.3312 16.9538 12.1834 17.135 12.1834C17.3163 12.1834 17.4639 12.3313 17.4639 12.5127V21.7316H27.7597C27.9409 21.7316 28.0885 21.8794 28.0885 22.0608C28.0885 22.2422 27.9406 22.3898 27.7594 22.3898Z" fill="#EAEAEA"/>
<path d="M27.7594 22.3898H17.135C16.9538 22.3898 16.8062 22.2419 16.8062 22.0605V12.5127C16.8062 12.3312 16.9538 12.1834 17.135 12.1834C17.3163 12.1834 17.4639 12.3313 17.4639 12.5127V21.7316H27.7597C27.9409 21.7316 28.0885 21.8794 28.0885 22.0608C28.0885 22.2422 27.9406 22.3898 27.7594 22.3898Z" fill="url(#paint5_linear_1303_363)"/>
<path d="M28.1825 15.3954C28.0953 15.3954 28.0147 15.3618 27.9476 15.2946L26.7462 14.0785L25.6589 15.1939C25.5314 15.3282 25.3234 15.3282 25.1891 15.2006C25.0548 15.0729 25.0549 14.8646 25.1824 14.7302L26.5046 13.373C26.565 13.3125 26.6522 13.2722 26.7395 13.2722C26.8267 13.2722 26.914 13.3058 26.9744 13.373L28.4174 14.8243C28.5449 14.952 28.5449 15.1603 28.4174 15.2947C28.357 15.3619 28.2698 15.3954 28.1825 15.3954Z" fill="#EAEAEA"/>
<path d="M28.1825 15.3954C28.0953 15.3954 28.0147 15.3618 27.9476 15.2946L26.7462 14.0785L25.6589 15.1939C25.5314 15.3282 25.3234 15.3282 25.1891 15.2006C25.0548 15.0729 25.0549 14.8646 25.1824 14.7302L26.5046 13.373C26.565 13.3125 26.6522 13.2722 26.7395 13.2722C26.8267 13.2722 26.914 13.3058 26.9744 13.373L28.4174 14.8243C28.5449 14.952 28.5449 15.1603 28.4174 15.2947C28.357 15.3619 28.2698 15.3954 28.1825 15.3954Z" fill="url(#paint6_linear_1303_363)"/>
<path d="M26.7461 22.3898C26.5649 22.3898 26.4172 22.2419 26.4172 22.0605V13.6079C26.4172 13.4265 26.5649 13.2787 26.7461 13.2787C26.9273 13.2787 27.075 13.4265 27.075 13.6079V22.0605C27.075 22.242 26.9273 22.3898 26.7461 22.3898Z" fill="#EAEAEA"/>
<path d="M26.7461 22.3898C26.5649 22.3898 26.4172 22.2419 26.4172 22.0605V13.6079C26.4172 13.4265 26.5649 13.2787 26.7461 13.2787C26.9273 13.2787 27.075 13.4265 27.075 13.6079V22.0605C27.075 22.242 26.9273 22.3898 26.7461 22.3898Z" fill="url(#paint7_linear_1303_363)"/>
<path d="M19.5444 22.3898C19.3631 22.3898 19.2155 22.2419 19.2155 22.0605V18.916C19.2155 18.7345 19.3632 18.5867 19.5444 18.5867C19.7256 18.5867 19.8732 18.7346 19.8732 18.916V22.0605C19.8732 22.242 19.7256 22.3898 19.5444 22.3898Z" fill="#EAEAEA"/>
<path d="M19.5444 22.3898C19.3631 22.3898 19.2155 22.2419 19.2155 22.0605V18.916C19.2155 18.7345 19.3632 18.5867 19.5444 18.5867C19.7256 18.5867 19.8732 18.7346 19.8732 18.916V22.0605C19.8732 22.242 19.7256 22.3898 19.5444 22.3898Z" fill="url(#paint8_linear_1303_363)"/>
<path d="M21.927 22.3898C21.7458 22.3898 21.5982 22.2419 21.5982 22.0605V17.6394C21.5982 17.458 21.7458 17.3102 21.927 17.3102C22.1083 17.3102 22.2559 17.458 22.2559 17.6394V22.0605C22.2559 22.242 22.1083 22.3898 21.927 22.3898Z" fill="#EAEAEA"/>
<path d="M21.927 22.3898C21.7458 22.3898 21.5982 22.2419 21.5982 22.0605V17.6394C21.5982 17.458 21.7458 17.3102 21.927 17.3102C22.1083 17.3102 22.2559 17.458 22.2559 17.6394V22.0605C22.2559 22.242 22.1083 22.3898 21.927 22.3898Z" fill="url(#paint9_linear_1303_363)"/>
<path d="M24.3368 22.3898C24.1556 22.3898 24.0079 22.2419 24.0079 22.0605V17.095C24.0079 16.9136 24.1556 16.7658 24.3368 16.7658C24.518 16.7658 24.6657 16.9136 24.6657 17.095V22.0605C24.6657 22.242 24.518 22.3898 24.3368 22.3898Z" fill="#EAEAEA"/>
<path d="M24.3368 22.3898C24.1556 22.3898 24.0079 22.2419 24.0079 22.0605V17.095C24.0079 16.9136 24.1556 16.7658 24.3368 16.7658C24.518 16.7658 24.6657 16.9136 24.6657 17.095V22.0605C24.6657 22.242 24.518 22.3898 24.3368 22.3898Z" fill="url(#paint10_linear_1303_363)"/>
<path d="M32.7932 44.1465C32.612 44.1465 32.4644 44.0054 32.4644 43.824C32.3838 40.2427 33.0818 36.2581 34.545 31.9716C34.6054 31.7969 34.7933 31.7028 34.9678 31.7633C35.1423 31.8238 35.2363 32.0119 35.1759 32.1866C33.7396 36.3995 33.0483 40.3102 33.1289 43.8106C33.1356 43.9921 32.9879 44.1466 32.8067 44.1466L32.7932 44.1465Z" stroke="#EAEAEA" stroke-width="0.4"/>
<path d="M32.7932 44.1465C32.612 44.1465 32.4644 44.0054 32.4644 43.824C32.3838 40.2427 33.0818 36.2581 34.545 31.9716C34.6054 31.7969 34.7933 31.7028 34.9678 31.7633C35.1423 31.8238 35.2363 32.0119 35.1759 32.1866C33.7396 36.3995 33.0483 40.3102 33.1289 43.8106C33.1356 43.9921 32.9879 44.1466 32.8067 44.1466L32.7932 44.1465Z" stroke="url(#paint11_linear_1303_363)" stroke-width="0.4"/>
<path d="M14.9603 44.1465C14.7791 44.1465 14.6314 43.9987 14.6314 43.8173V39.6514C14.6314 39.0332 14.128 38.5226 13.5038 38.5226H8.00696C6.9264 38.5226 6.05387 37.6423 6.05387 36.5673V28.3766L3.38262 28.3833C2.49668 28.3833 1.69129 27.8995 1.28189 27.1201C1.09396 26.7573 1 26.381 1 26.0047C1 25.5007 1.16108 25.0103 1.46309 24.5869L5.01353 19.8029C5.06723 10.2955 9.96017 3.50235 18.1078 1.60765C20.8931 0.955907 23.8933 0.9962 26.7725 1.72188C32.4773 3.1598 36.7526 6.66717 38.82 11.5991C40.6052 15.8725 40.3569 20.8378 38.1287 25.212C37.5783 26.2871 37.028 27.4563 36.5447 28.6119C36.4709 28.7799 36.2762 28.8605 36.1085 28.7866C35.9407 28.7127 35.8601 28.5246 35.934 28.3499C36.4239 27.1875 36.981 25.9981 37.5381 24.9097C39.6724 20.7102 39.9207 15.9462 38.2092 11.8545C36.2293 7.12423 32.1084 3.7511 26.6115 2.3604C23.8329 1.66161 20.9467 1.62127 18.262 2.25289C10.3962 4.0738 5.69099 10.6788 5.67123 19.9175C5.67123 19.9914 5.6511 20.0586 5.60411 20.1124L1.99328 24.9768C1.7718 25.2792 1.6577 25.6353 1.6577 26.0048C1.6577 26.2736 1.72481 26.5491 1.86576 26.8178C2.16107 27.3755 2.73825 27.7249 3.38257 27.7249H6.06722C6.42293 27.7249 6.71154 28.0206 6.71154 28.3834V36.5741C6.71154 37.2863 7.28876 37.8709 8.00687 37.8709H13.5037C14.4904 37.8709 15.289 38.6705 15.289 39.6581V43.824C15.289 43.9987 15.1415 44.1465 14.9603 44.1465Z" stroke="#EAEAEA" stroke-width="0.4"/>
<path d="M14.9603 44.1465C14.7791 44.1465 14.6314 43.9987 14.6314 43.8173V39.6514C14.6314 39.0332 14.128 38.5226 13.5038 38.5226H8.00696C6.9264 38.5226 6.05387 37.6423 6.05387 36.5673V28.3766L3.38262 28.3833C2.49668 28.3833 1.69129 27.8995 1.28189 27.1201C1.09396 26.7573 1 26.381 1 26.0047C1 25.5007 1.16108 25.0103 1.46309 24.5869L5.01353 19.8029C5.06723 10.2955 9.96017 3.50235 18.1078 1.60765C20.8931 0.955907 23.8933 0.9962 26.7725 1.72188C32.4773 3.1598 36.7526 6.66717 38.82 11.5991C40.6052 15.8725 40.3569 20.8378 38.1287 25.212C37.5783 26.2871 37.028 27.4563 36.5447 28.6119C36.4709 28.7799 36.2762 28.8605 36.1085 28.7866C35.9407 28.7127 35.8601 28.5246 35.934 28.3499C36.4239 27.1875 36.981 25.9981 37.5381 24.9097C39.6724 20.7102 39.9207 15.9462 38.2092 11.8545C36.2293 7.12423 32.1084 3.7511 26.6115 2.3604C23.8329 1.66161 20.9467 1.62127 18.262 2.25289C10.3962 4.0738 5.69099 10.6788 5.67123 19.9175C5.67123 19.9914 5.6511 20.0586 5.60411 20.1124L1.99328 24.9768C1.7718 25.2792 1.6577 25.6353 1.6577 26.0048C1.6577 26.2736 1.72481 26.5491 1.86576 26.8178C2.16107 27.3755 2.73825 27.7249 3.38257 27.7249H6.06722C6.42293 27.7249 6.71154 28.0206 6.71154 28.3834V36.5741C6.71154 37.2863 7.28876 37.8709 8.00687 37.8709H13.5037C14.4904 37.8709 15.289 38.6705 15.289 39.6581V43.824C15.289 43.9987 15.1415 44.1465 14.9603 44.1465Z" stroke="url(#paint12_linear_1303_363)" stroke-width="0.4"/>
<path d="M22.5645 27.1536C17.0809 27.1536 12.618 22.6852 12.618 17.1959C12.618 11.7066 17.0814 7.23824 22.5645 7.23824C28.0476 7.23824 32.511 11.7066 32.511 17.1959C32.511 22.6852 28.0476 27.1536 22.5645 27.1536ZM22.5645 7.90306C17.4435 7.90306 13.2756 12.0756 13.2756 17.2024C13.2756 22.3291 17.4435 26.5017 22.5645 26.5017C27.6855 26.5017 31.8534 22.3291 31.8534 17.2024C31.8534 12.0756 27.6855 7.90306 22.5645 7.90306Z" stroke="#EAEAEA" stroke-width="0.4"/>
<path d="M22.5645 27.1536C17.0809 27.1536 12.618 22.6852 12.618 17.1959C12.618 11.7066 17.0814 7.23824 22.5645 7.23824C28.0476 7.23824 32.511 11.7066 32.511 17.1959C32.511 22.6852 28.0476 27.1536 22.5645 27.1536ZM22.5645 7.90306C17.4435 7.90306 13.2756 12.0756 13.2756 17.2024C13.2756 22.3291 17.4435 26.5017 22.5645 26.5017C27.6855 26.5017 31.8534 22.3291 31.8534 17.2024C31.8534 12.0756 27.6855 7.90306 22.5645 7.90306Z" stroke="url(#paint13_linear_1303_363)" stroke-width="0.4"/>
<path d="M22.5645 29.64C15.712 29.64 10.1343 24.0565 10.1343 17.1959C10.1343 10.3353 15.7115 4.75871 22.5645 4.75871C29.4174 4.75871 34.9946 10.3357 34.9946 17.1959C34.9946 24.0561 29.4174 29.64 22.5645 29.64ZM22.5645 5.41751C16.0745 5.41751 10.7988 10.7055 10.7988 17.1963C10.7988 23.6872 16.0741 28.9752 22.5645 28.9752C29.0549 28.9752 34.3301 23.6872 34.3301 17.1963C34.3301 10.7055 29.0549 5.41751 22.5645 5.41751Z" stroke="#EAEAEA" stroke-width="0.4"/>
<path d="M22.5645 29.64C15.712 29.64 10.1343 24.0565 10.1343 17.1959C10.1343 10.3353 15.7115 4.75871 22.5645 4.75871C29.4174 4.75871 34.9946 10.3357 34.9946 17.1959C34.9946 24.0561 29.4174 29.64 22.5645 29.64ZM22.5645 5.41751C16.0745 5.41751 10.7988 10.7055 10.7988 17.1963C10.7988 23.6872 16.0741 28.9752 22.5645 28.9752C29.0549 28.9752 34.3301 23.6872 34.3301 17.1963C34.3301 10.7055 29.0549 5.41751 22.5645 5.41751Z" stroke="url(#paint14_linear_1303_363)" stroke-width="0.4"/>
<path d="M35.9946 33.3219C35.7597 33.3219 35.5382 33.2278 35.3705 33.0666L29.5046 27.1941C29.3771 27.0665 29.3771 26.8582 29.5046 26.7238C29.6321 26.5961 29.8402 26.5961 29.9744 26.7238L35.8403 32.5962C35.9208 32.6768 36.0685 32.6768 36.149 32.5962L37.8605 30.8828C37.9008 30.8425 37.9276 30.7887 37.9276 30.7283C37.9276 30.6678 37.9075 30.614 37.8605 30.5737L32.035 24.7417C31.9075 24.614 31.9075 24.4057 32.035 24.2713C32.1625 24.1437 32.3706 24.1437 32.5049 24.2713L38.3303 30.1034C38.4981 30.2713 38.5854 30.4931 38.5854 30.7282C38.5854 30.9634 38.4914 31.1851 38.3303 31.3531L36.6189 33.0665C36.4511 33.2277 36.2295 33.3219 35.9946 33.3219Z" stroke="#EAEAEA" stroke-width="0.4"/>
<path d="M35.9946 33.3219C35.7597 33.3219 35.5382 33.2278 35.3705 33.0666L29.5046 27.1941C29.3771 27.0665 29.3771 26.8582 29.5046 26.7238C29.6321 26.5961 29.8402 26.5961 29.9744 26.7238L35.8403 32.5962C35.9208 32.6768 36.0685 32.6768 36.149 32.5962L37.8605 30.8828C37.9008 30.8425 37.9276 30.7887 37.9276 30.7283C37.9276 30.6678 37.9075 30.614 37.8605 30.5737L32.035 24.7417C31.9075 24.614 31.9075 24.4057 32.035 24.2713C32.1625 24.1437 32.3706 24.1437 32.5049 24.2713L38.3303 30.1034C38.4981 30.2713 38.5854 30.4931 38.5854 30.7282C38.5854 30.9634 38.4914 31.1851 38.3303 31.3531L36.6189 33.0665C36.4511 33.2277 36.2295 33.3219 35.9946 33.3219Z" stroke="url(#paint15_linear_1303_363)" stroke-width="0.4"/>
<path d="M27.7594 22.3898H17.135C16.9538 22.3898 16.8062 22.2419 16.8062 22.0605V12.5127C16.8062 12.3312 16.9538 12.1834 17.135 12.1834C17.3163 12.1834 17.4639 12.3313 17.4639 12.5127V21.7316H27.7597C27.9409 21.7316 28.0885 21.8794 28.0885 22.0608C28.0885 22.2422 27.9406 22.3898 27.7594 22.3898Z" stroke="#EAEAEA" stroke-width="0.4"/>
<path d="M27.7594 22.3898H17.135C16.9538 22.3898 16.8062 22.2419 16.8062 22.0605V12.5127C16.8062 12.3312 16.9538 12.1834 17.135 12.1834C17.3163 12.1834 17.4639 12.3313 17.4639 12.5127V21.7316H27.7597C27.9409 21.7316 28.0885 21.8794 28.0885 22.0608C28.0885 22.2422 27.9406 22.3898 27.7594 22.3898Z" stroke="url(#paint16_linear_1303_363)" stroke-width="0.4"/>
<path d="M28.1825 15.3954C28.0953 15.3954 28.0147 15.3618 27.9476 15.2946L26.7462 14.0785L25.6589 15.1939C25.5314 15.3282 25.3234 15.3282 25.1891 15.2006C25.0548 15.0729 25.0549 14.8646 25.1824 14.7302L26.5046 13.373C26.565 13.3125 26.6522 13.2722 26.7395 13.2722C26.8267 13.2722 26.914 13.3058 26.9744 13.373L28.4174 14.8243C28.5449 14.952 28.5449 15.1603 28.4174 15.2947C28.357 15.3619 28.2698 15.3954 28.1825 15.3954Z" stroke="#EAEAEA" stroke-width="0.4"/>
<path d="M28.1825 15.3954C28.0953 15.3954 28.0147 15.3618 27.9476 15.2946L26.7462 14.0785L25.6589 15.1939C25.5314 15.3282 25.3234 15.3282 25.1891 15.2006C25.0548 15.0729 25.0549 14.8646 25.1824 14.7302L26.5046 13.373C26.565 13.3125 26.6522 13.2722 26.7395 13.2722C26.8267 13.2722 26.914 13.3058 26.9744 13.373L28.4174 14.8243C28.5449 14.952 28.5449 15.1603 28.4174 15.2947C28.357 15.3619 28.2698 15.3954 28.1825 15.3954Z" stroke="url(#paint17_linear_1303_363)" stroke-width="0.4"/>
<path d="M26.7461 22.3898C26.5649 22.3898 26.4172 22.2419 26.4172 22.0605V13.6079C26.4172 13.4265 26.5649 13.2787 26.7461 13.2787C26.9273 13.2787 27.075 13.4265 27.075 13.6079V22.0605C27.075 22.242 26.9273 22.3898 26.7461 22.3898Z" stroke="#EAEAEA" stroke-width="0.4"/>
<path d="M26.7461 22.3898C26.5649 22.3898 26.4172 22.2419 26.4172 22.0605V13.6079C26.4172 13.4265 26.5649 13.2787 26.7461 13.2787C26.9273 13.2787 27.075 13.4265 27.075 13.6079V22.0605C27.075 22.242 26.9273 22.3898 26.7461 22.3898Z" stroke="url(#paint18_linear_1303_363)" stroke-width="0.4"/>
<path d="M19.5444 22.3898C19.3631 22.3898 19.2155 22.2419 19.2155 22.0605V18.916C19.2155 18.7345 19.3632 18.5867 19.5444 18.5867C19.7256 18.5867 19.8732 18.7346 19.8732 18.916V22.0605C19.8732 22.242 19.7256 22.3898 19.5444 22.3898Z" stroke="#EAEAEA" stroke-width="0.4"/>
<path d="M19.5444 22.3898C19.3631 22.3898 19.2155 22.2419 19.2155 22.0605V18.916C19.2155 18.7345 19.3632 18.5867 19.5444 18.5867C19.7256 18.5867 19.8732 18.7346 19.8732 18.916V22.0605C19.8732 22.242 19.7256 22.3898 19.5444 22.3898Z" stroke="url(#paint19_linear_1303_363)" stroke-width="0.4"/>
<path d="M21.927 22.3898C21.7458 22.3898 21.5982 22.2419 21.5982 22.0605V17.6394C21.5982 17.458 21.7458 17.3102 21.927 17.3102C22.1083 17.3102 22.2559 17.458 22.2559 17.6394V22.0605C22.2559 22.242 22.1083 22.3898 21.927 22.3898Z" stroke="#EAEAEA" stroke-width="0.4"/>
<path d="M21.927 22.3898C21.7458 22.3898 21.5982 22.2419 21.5982 22.0605V17.6394C21.5982 17.458 21.7458 17.3102 21.927 17.3102C22.1083 17.3102 22.2559 17.458 22.2559 17.6394V22.0605C22.2559 22.242 22.1083 22.3898 21.927 22.3898Z" stroke="url(#paint20_linear_1303_363)" stroke-width="0.4"/>
<path d="M24.3368 22.3898C24.1556 22.3898 24.0079 22.2419 24.0079 22.0605V17.095C24.0079 16.9136 24.1556 16.7658 24.3368 16.7658C24.518 16.7658 24.6657 16.9136 24.6657 17.095V22.0605C24.6657 22.242 24.518 22.3898 24.3368 22.3898Z" stroke="#EAEAEA" stroke-width="0.4"/>
<path d="M24.3368 22.3898C24.1556 22.3898 24.0079 22.2419 24.0079 22.0605V17.095C24.0079 16.9136 24.1556 16.7658 24.3368 16.7658C24.518 16.7658 24.6657 16.9136 24.6657 17.095V22.0605C24.6657 22.242 24.518 22.3898 24.3368 22.3898Z" stroke="url(#paint21_linear_1303_363)" stroke-width="0.4"/>
<defs>
<linearGradient id="paint0_linear_1303_363" x1="1" y1="1.14661" x2="53.8496" y2="7.76769" gradientUnits="userSpaceOnUse">
<stop stop-color="#9342CE"/>
<stop offset="0.514675" stop-color="#6284B6"/>
<stop offset="1" stop-color="#35C29F"/>
</linearGradient>
<linearGradient id="paint1_linear_1303_363" x1="1" y1="1.14661" x2="53.8496" y2="7.76769" gradientUnits="userSpaceOnUse">
<stop stop-color="#9342CE"/>
<stop offset="0.514675" stop-color="#6284B6"/>
<stop offset="1" stop-color="#35C29F"/>
</linearGradient>
<linearGradient id="paint2_linear_1303_363" x1="1" y1="1.14661" x2="53.8496" y2="7.76769" gradientUnits="userSpaceOnUse">
<stop stop-color="#9342CE"/>
<stop offset="0.514675" stop-color="#6284B6"/>
<stop offset="1" stop-color="#35C29F"/>
</linearGradient>
<linearGradient id="paint3_linear_1303_363" x1="1" y1="1.14661" x2="53.8496" y2="7.76769" gradientUnits="userSpaceOnUse">
<stop stop-color="#9342CE"/>
<stop offset="0.514675" stop-color="#6284B6"/>
<stop offset="1" stop-color="#35C29F"/>
</linearGradient>
<linearGradient id="paint4_linear_1303_363" x1="1" y1="1.14661" x2="53.8496" y2="7.76769" gradientUnits="userSpaceOnUse">
<stop stop-color="#9342CE"/>
<stop offset="0.514675" stop-color="#6284B6"/>
<stop offset="1" stop-color="#35C29F"/>
</linearGradient>
<linearGradient id="paint5_linear_1303_363" x1="1" y1="1.14661" x2="53.8496" y2="7.76769" gradientUnits="userSpaceOnUse">
<stop stop-color="#9342CE"/>
<stop offset="0.514675" stop-color="#6284B6"/>
<stop offset="1" stop-color="#35C29F"/>
</linearGradient>
<linearGradient id="paint6_linear_1303_363" x1="1" y1="1.14661" x2="53.8496" y2="7.76769" gradientUnits="userSpaceOnUse">
<stop stop-color="#9342CE"/>
<stop offset="0.514675" stop-color="#6284B6"/>
<stop offset="1" stop-color="#35C29F"/>
</linearGradient>
<linearGradient id="paint7_linear_1303_363" x1="1" y1="1.14661" x2="53.8496" y2="7.76769" gradientUnits="userSpaceOnUse">
<stop stop-color="#9342CE"/>
<stop offset="0.514675" stop-color="#6284B6"/>
<stop offset="1" stop-color="#35C29F"/>
</linearGradient>
<linearGradient id="paint8_linear_1303_363" x1="1" y1="1.14661" x2="53.8496" y2="7.76769" gradientUnits="userSpaceOnUse">
<stop stop-color="#9342CE"/>
<stop offset="0.514675" stop-color="#6284B6"/>
<stop offset="1" stop-color="#35C29F"/>
</linearGradient>
<linearGradient id="paint9_linear_1303_363" x1="1" y1="1.14661" x2="53.8496" y2="7.76769" gradientUnits="userSpaceOnUse">
<stop stop-color="#9342CE"/>
<stop offset="0.514675" stop-color="#6284B6"/>
<stop offset="1" stop-color="#35C29F"/>
</linearGradient>
<linearGradient id="paint10_linear_1303_363" x1="1" y1="1.14661" x2="53.8496" y2="7.76769" gradientUnits="userSpaceOnUse">
<stop stop-color="#9342CE"/>
<stop offset="0.514675" stop-color="#6284B6"/>
<stop offset="1" stop-color="#35C29F"/>
</linearGradient>
<linearGradient id="paint11_linear_1303_363" x1="1" y1="1.14661" x2="53.8496" y2="7.76769" gradientUnits="userSpaceOnUse">
<stop stop-color="#9342CE"/>
<stop offset="0.514675" stop-color="#6284B6"/>
<stop offset="1" stop-color="#35C29F"/>
</linearGradient>
<linearGradient id="paint12_linear_1303_363" x1="1" y1="1.14661" x2="53.8496" y2="7.76769" gradientUnits="userSpaceOnUse">
<stop stop-color="#9342CE"/>
<stop offset="0.514675" stop-color="#6284B6"/>
<stop offset="1" stop-color="#35C29F"/>
</linearGradient>
<linearGradient id="paint13_linear_1303_363" x1="1" y1="1.14661" x2="53.8496" y2="7.76769" gradientUnits="userSpaceOnUse">
<stop stop-color="#9342CE"/>
<stop offset="0.514675" stop-color="#6284B6"/>
<stop offset="1" stop-color="#35C29F"/>
</linearGradient>
<linearGradient id="paint14_linear_1303_363" x1="1" y1="1.14661" x2="53.8496" y2="7.76769" gradientUnits="userSpaceOnUse">
<stop stop-color="#9342CE"/>
<stop offset="0.514675" stop-color="#6284B6"/>
<stop offset="1" stop-color="#35C29F"/>
</linearGradient>
<linearGradient id="paint15_linear_1303_363" x1="1" y1="1.14661" x2="53.8496" y2="7.76769" gradientUnits="userSpaceOnUse">
<stop stop-color="#9342CE"/>
<stop offset="0.514675" stop-color="#6284B6"/>
<stop offset="1" stop-color="#35C29F"/>
</linearGradient>
<linearGradient id="paint16_linear_1303_363" x1="1" y1="1.14661" x2="53.8496" y2="7.76769" gradientUnits="userSpaceOnUse">
<stop stop-color="#9342CE"/>
<stop offset="0.514675" stop-color="#6284B6"/>
<stop offset="1" stop-color="#35C29F"/>
</linearGradient>
<linearGradient id="paint17_linear_1303_363" x1="1" y1="1.14661" x2="53.8496" y2="7.76769" gradientUnits="userSpaceOnUse">
<stop stop-color="#9342CE"/>
<stop offset="0.514675" stop-color="#6284B6"/>
<stop offset="1" stop-color="#35C29F"/>
</linearGradient>
<linearGradient id="paint18_linear_1303_363" x1="1" y1="1.14661" x2="53.8496" y2="7.76769" gradientUnits="userSpaceOnUse">
<stop stop-color="#9342CE"/>
<stop offset="0.514675" stop-color="#6284B6"/>
<stop offset="1" stop-color="#35C29F"/>
</linearGradient>
<linearGradient id="paint19_linear_1303_363" x1="1" y1="1.14661" x2="53.8496" y2="7.76769" gradientUnits="userSpaceOnUse">
<stop stop-color="#9342CE"/>
<stop offset="0.514675" stop-color="#6284B6"/>
<stop offset="1" stop-color="#35C29F"/>
</linearGradient>
<linearGradient id="paint20_linear_1303_363" x1="1" y1="1.14661" x2="53.8496" y2="7.76769" gradientUnits="userSpaceOnUse">
<stop stop-color="#9342CE"/>
<stop offset="0.514675" stop-color="#6284B6"/>
<stop offset="1" stop-color="#35C29F"/>
</linearGradient>
<linearGradient id="paint21_linear_1303_363" x1="1" y1="1.14661" x2="53.8496" y2="7.76769" gradientUnits="userSpaceOnUse">
<stop stop-color="#9342CE"/>
<stop offset="0.514675" stop-color="#6284B6"/>
<stop offset="1" stop-color="#35C29F"/>
</linearGradient>
</defs>
</svg>
