<svg width="41" height="40" viewBox="0 0 41 40" fill="none" xmlns="http://www.w3.org/2000/svg">
<g id="Business Analyzer">
<g id="Vector">
<path fill-rule="evenodd" clip-rule="evenodd" d="M14.5025 4.61665C15.2467 3.79412 16.256 3.33203 17.3085 3.33203H23.6577C24.7101 3.33203 25.7194 3.79412 26.4636 4.61665C27.2078 5.43918 27.6259 6.55477 27.6259 7.718V11.2268C27.6259 11.7112 27.2706 12.104 26.8322 12.104C26.3939 12.104 26.0386 11.7112 26.0386 11.2268V7.718C26.0386 7.02006 25.7878 6.35071 25.3412 5.85719C24.8947 5.36367 24.2891 5.08642 23.6577 5.08642H17.3085C16.677 5.08642 16.0714 5.36367 15.6249 5.85719C15.1784 6.35071 14.9275 7.02006 14.9275 7.718V11.2268C14.9275 11.7112 14.5722 12.104 14.1339 12.104C13.6956 12.104 13.3403 11.7112 13.3403 11.2268V7.718C13.3403 6.55477 13.7583 5.43918 14.5025 4.61665ZM3.94782 23.0242C4.18932 22.6199 4.68162 22.5085 5.04741 22.7754C9.62749 26.1176 14.9948 27.8992 20.4831 27.8992C25.9713 27.8992 31.3386 26.1176 35.9187 22.7754C36.2845 22.5085 36.7768 22.6199 37.0183 23.0242C37.2598 23.4285 37.1591 23.9726 36.7933 24.2395C31.9537 27.771 26.2822 29.6536 20.4831 29.6536C14.6839 29.6536 9.01245 27.771 4.17287 24.2395C3.80708 23.9726 3.70632 23.4285 3.94782 23.0242Z" fill="url(#paint0_linear_2898_42364)"/>
<path fill-rule="evenodd" clip-rule="evenodd" d="M7.78473 12.104C6.46977 12.104 5.40379 13.2822 5.40379 14.7355V32.2794C5.40379 33.7328 6.46977 34.911 7.78473 34.911H33.1814C34.4964 34.911 35.5624 33.7328 35.5624 32.2794V14.7355C35.5624 13.2822 34.4964 12.104 33.1814 12.104H7.78473ZM3.81649 14.7355C3.81649 12.3132 5.59313 10.3496 7.78473 10.3496H33.1814C35.373 10.3496 37.1497 12.3132 37.1497 14.7355V32.2794C37.1497 34.7017 35.373 36.6654 33.1814 36.6654H7.78473C5.59313 36.6654 3.81649 34.7017 3.81649 32.2794V14.7355Z" fill="url(#paint1_linear_2898_42364)"/>
<path d="M22.0704 21.7531C22.0704 22.722 21.3597 23.5075 20.4831 23.5075C19.6064 23.5075 18.8958 22.722 18.8958 21.7531C18.8958 20.7842 19.6064 19.9987 20.4831 19.9987C21.3597 19.9987 22.0704 20.7842 22.0704 21.7531Z" fill="url(#paint2_linear_2898_42364)"/>
</g>
</g>
<defs>
<linearGradient id="paint0_linear_2898_42364" x1="20.4831" y1="3.33203" x2="20.4831" y2="36.6654" gradientUnits="userSpaceOnUse">
<stop stop-color="#8C4ACB"/>
<stop offset="1" stop-color="#4BA4AA"/>
</linearGradient>
<linearGradient id="paint1_linear_2898_42364" x1="20.4831" y1="3.33203" x2="20.4831" y2="36.6654" gradientUnits="userSpaceOnUse">
<stop stop-color="#8C4ACB"/>
<stop offset="1" stop-color="#4BA4AA"/>
</linearGradient>
<linearGradient id="paint2_linear_2898_42364" x1="20.4831" y1="3.33203" x2="20.4831" y2="36.6654" gradientUnits="userSpaceOnUse">
<stop stop-color="#8C4ACB"/>
<stop offset="1" stop-color="#4BA4AA"/>
</linearGradient>
</defs>
</svg>
