<svg width="40" height="40" viewBox="0 0 40 40" fill="none" xmlns="http://www.w3.org/2000/svg">
<g id="Button">
<path d="M0 20C0 8.95431 8.95431 0 20 0C31.0457 0 40 8.95431 40 20C40 31.0457 31.0457 40 20 40C8.95431 40 0 31.0457 0 20Z" fill="url(#paint0_linear_1108_12911)"/>
<path d="M0 20C0 8.95431 8.95431 0 20 0C31.0457 0 40 8.95431 40 20C40 31.0457 31.0457 40 20 40C8.95431 40 0 31.0457 0 20Z" fill="url(#paint1_linear_1108_12911)"/>
<path id="Path 2189" fill-rule="evenodd" clip-rule="evenodd" d="M23.3867 20.4782H11.4374C11.378 20.4862 11.3179 20.4803 11.2611 20.4609C11.2044 20.4415 11.1526 20.4091 11.1105 20.3664C11.0685 20.3236 11.0372 20.2717 11.0187 20.2146C11.0002 20.1576 10.9954 20.0971 11.0044 20.0378C11.0016 19.9798 11.0105 19.9218 11.0312 19.8676C11.0519 19.8134 11.0841 19.7641 11.1248 19.7227C11.1655 19.6813 11.2141 19.6487 11.268 19.6271C11.3219 19.6056 11.3794 19.5953 11.4374 19.5972H23.377L20.6477 16.9187C20.5771 16.8244 20.5387 16.7099 20.5387 16.5922C20.5387 16.4745 20.5771 16.3598 20.6477 16.2656C20.7412 16.1946 20.8555 16.1562 20.9728 16.1562C21.0902 16.1562 21.2045 16.1946 21.298 16.2656L24.6977 19.6808C24.7584 19.7195 24.8093 19.7721 24.846 19.8341C24.8827 19.8961 24.9045 19.9659 24.9093 20.0378C24.9116 20.1476 24.8712 20.2541 24.7969 20.3351C24.7874 20.3576 24.7767 20.3794 24.7644 20.4005L21.2975 23.8824C21.2119 23.9406 21.1083 23.9663 21.0054 23.9549C20.8806 23.966 20.7551 23.9409 20.6442 23.8824C20.5737 23.7881 20.5353 23.6735 20.5353 23.5558C20.5353 23.4381 20.5737 23.3234 20.6442 23.2292L23.3867 20.4782ZM20.9974 10C19.075 10.0041 17.1943 10.5603 15.5787 11.6023C13.9631 12.6442 12.6809 14.1281 11.8841 15.8776C11.841 15.984 11.8393 16.1026 11.8796 16.2101C11.9198 16.3176 11.9991 16.406 12.1015 16.4578C12.1526 16.4874 12.2098 16.5052 12.2686 16.51C12.3275 16.5149 12.3868 16.5067 12.4421 16.4859C12.4974 16.4651 12.547 16.4324 12.5881 16.3899C12.6292 16.3475 12.661 16.2964 12.68 16.2405C13.3973 14.6357 14.5651 13.2739 16.042 12.3207C17.5189 11.3674 19.2407 10.8637 20.9985 10.871C23.4233 10.871 25.7489 11.8344 27.4635 13.549C29.1781 15.2636 30.1414 17.589 30.1414 20.0138C30.1414 22.4386 29.1781 24.764 27.4635 26.4786C25.7489 28.1932 23.4233 29.1564 20.9985 29.1564C19.2408 29.1636 17.5188 28.66 16.042 27.7068C14.5651 26.7536 13.3974 25.3918 12.68 23.7871C12.6241 23.689 12.5357 23.6136 12.4301 23.5738C12.3245 23.534 12.2082 23.5323 12.1015 23.5692C12.0455 23.5885 11.9945 23.62 11.952 23.6613C11.9096 23.7027 11.8764 23.7529 11.8556 23.8084C11.8348 23.8639 11.8268 23.9232 11.8316 23.9822C11.8365 24.0413 11.8545 24.0986 11.8841 24.15C12.6291 25.7833 13.8001 27.186 15.2741 28.2108C16.7481 29.2356 18.4709 29.8446 20.2614 29.974C22.052 30.1034 23.8441 29.7485 25.4502 28.9464C27.0562 28.1442 28.4168 26.9243 29.3889 25.4151C30.3611 23.9058 30.9088 22.1627 30.975 20.3687C31.0411 18.5746 30.6233 16.7959 29.7649 15.2191C28.9066 13.6424 27.6392 12.3258 26.0966 11.4076C24.5539 10.4893 22.7926 10.0033 20.9974 10.0006V10Z" fill="white"/>
</g>
<defs>
<linearGradient id="paint0_linear_1108_12911" x1="-16.5043" y1="20.0146" x2="48.062" y2="50.1456" gradientUnits="userSpaceOnUse">
<stop stop-color="#7001B4"/>
<stop offset="1" stop-color="#4152B8"/>
</linearGradient>
<linearGradient id="paint1_linear_1108_12911" x1="-1.3444e-06" y1="-0.499999" x2="52.0901" y2="53.3635" gradientUnits="userSpaceOnUse">
<stop stop-color="#A72DD4"/>
<stop offset="1" stop-color="#68DBBA"/>
</linearGradient>
</defs>
</svg>
