<svg width="64" height="64" viewBox="0 0 64 64" fill="none" xmlns="http://www.w3.org/2000/svg">
<g id="Change Impact">
<g id="Group 2147209209">
<rect id="Rectangle 1321325339" opacity="0.2" x="38.3984" y="43.2012" width="19.2" height="14.4" rx="2" fill="url(#paint0_linear_2981_132271)"/>
<path id="Vector" opacity="0.2" d="M11.5977 33.6C10.4931 33.6 9.57725 32.6956 9.79889 31.6135C10.177 29.7676 11.0772 28.0574 12.4094 26.704C14.2098 24.8751 16.6516 23.8476 19.1977 23.8476C21.7437 23.8476 24.1855 24.8751 25.9859 26.704C27.3181 28.0574 28.2183 29.7676 28.5964 31.6135C28.8181 32.6956 27.9022 33.6 26.7977 33.6H11.5977ZM19.1977 22.6286C15.2197 22.6286 11.9977 19.3554 11.9977 15.3143C11.9977 11.2731 15.2197 8 19.1977 8C23.1757 8 26.3977 11.2731 26.3977 15.3143C26.3977 19.3554 23.1757 22.6286 19.1977 22.6286Z" fill="url(#paint1_linear_2981_132271)"/>
<path id="Vector_2" d="M28.7972 15.5004C28.5211 15.5004 28.2972 15.7242 28.2972 16.0004C28.2972 16.2765 28.5211 16.5004 28.7972 16.5004V15.5004ZM44.4437 32.3539C44.6389 32.5492 44.9555 32.5492 45.1508 32.3539L48.3327 29.172C48.528 28.9767 48.528 28.6601 48.3327 28.4649C48.1375 28.2696 47.8209 28.2696 47.6256 28.4649L44.7972 31.2933L41.9688 28.4649C41.7735 28.2696 41.4569 28.2696 41.2617 28.4649C41.0664 28.6601 41.0664 28.9767 41.2617 29.172L44.4437 32.3539ZM31.9972 51.7004C32.2734 51.7004 32.4972 51.4765 32.4972 51.2004C32.4972 50.9243 32.2734 50.7004 31.9972 50.7004V51.7004ZM16.3508 34.8468C16.1555 34.6516 15.8389 34.6516 15.6437 34.8468L12.4617 38.0288C12.2664 38.2241 12.2664 38.5407 12.4617 38.7359C12.6569 38.9312 12.9735 38.9312 13.1688 38.7359L15.9972 35.9075L18.8256 38.7359C19.0209 38.9312 19.3375 38.9312 19.5327 38.7359C19.728 38.5407 19.728 38.2241 19.5327 38.0288L16.3508 34.8468ZM9.20898 25.1044L9.56531 25.4552L9.20898 25.1044ZM15.9972 22.248V21.748V22.248ZM22.7854 25.1044L22.4291 25.4552L22.7854 25.1044ZM25.0845 28.8558L25.5585 28.6968L25.0845 28.8558ZM6.90996 28.8558L7.38401 29.0147L6.90996 28.8558ZM44.7972 36.8004H45.2972C45.2972 36.5243 45.0733 36.3004 44.7972 36.3004V36.8004ZM41.0639 36.3004C40.7877 36.3004 40.5639 36.5243 40.5639 36.8004C40.5639 37.0765 40.7877 37.3004 41.0639 37.3004V36.3004ZM50.0972 48.0004C50.0972 47.7243 49.8734 47.5004 49.5972 47.5004C49.3211 47.5004 49.0972 47.7243 49.0972 48.0004H50.0972ZM49.0972 49.6004C49.0972 49.8765 49.3211 50.1004 49.5972 50.1004C49.8734 50.1004 50.0972 49.8765 50.0972 49.6004H49.0972ZM42.0972 48.0004C42.0972 47.7243 41.8733 47.5004 41.5972 47.5004C41.3211 47.5004 41.0972 47.7243 41.0972 48.0004H42.0972ZM41.0972 49.6004C41.0972 49.8765 41.3211 50.1004 41.5972 50.1004C41.8733 50.1004 42.0972 49.8765 42.0972 49.6004H41.0972ZM28.7972 16.0004V16.5004H36.7972V16.0004V15.5004H28.7972V16.0004ZM44.7972 24.0004H44.2972V32.0004H44.7972H45.2972V24.0004H44.7972ZM36.7972 16.0004V16.5004C40.9393 16.5004 44.2972 19.8583 44.2972 24.0004H44.7972H45.2972C45.2972 19.306 41.4916 15.5004 36.7972 15.5004V16.0004ZM31.9972 51.2004V50.7004H23.9972V51.2004V51.7004H31.9972V51.2004ZM15.9972 43.2004H16.4972V35.2004H15.9972H15.4972V43.2004H15.9972ZM23.9972 51.2004V50.7004C19.8551 50.7004 16.4972 47.3425 16.4972 43.2004H15.9972H15.4972C15.4972 47.8948 19.3028 51.7004 23.9972 51.7004V51.2004ZM6.90996 28.8558L7.38401 29.0147C7.8296 27.686 8.5708 26.4655 9.56531 25.4552L9.20898 25.1044L8.85265 24.7537C7.74983 25.874 6.92903 27.2263 6.4359 28.6968L6.90996 28.8558ZM9.20898 25.1044L9.56531 25.4552C11.2725 23.7209 13.5863 22.748 15.9972 22.748V22.248V21.748C13.316 21.748 10.7461 22.8301 8.85265 24.7537L9.20898 25.1044ZM15.9972 22.248V22.748C18.4081 22.748 20.7219 23.7209 22.4291 25.4552L22.7854 25.1044L23.1418 24.7537C21.2483 22.8301 18.6785 21.748 15.9972 21.748V22.248ZM22.7854 25.1044L22.4291 25.4552C23.4236 26.4655 24.1648 27.686 24.6104 29.0147L25.0845 28.8558L25.5585 28.6968C25.0654 27.2263 24.2446 25.874 23.1418 24.7537L22.7854 25.1044ZM22.3972 32.0004V31.5004H9.59721V32.0004V32.5004H22.3972V32.0004ZM15.9972 21.029V20.529C12.3027 20.529 9.29721 17.4871 9.29721 13.7147H8.79721H8.29721C8.29721 18.0245 11.7357 21.529 15.9972 21.529V21.029ZM8.79721 13.7147H9.29721C9.29721 9.94222 12.3027 6.90039 15.9972 6.90039V6.40039V5.90039C11.7357 5.90039 8.29721 9.40484 8.29721 13.7147H8.79721ZM15.9972 6.40039V6.90039C19.6917 6.90039 22.6972 9.94222 22.6972 13.7147H23.1972H23.6972C23.6972 9.40484 20.2587 5.90039 15.9972 5.90039V6.40039ZM23.1972 13.7147H22.6972C22.6972 17.4871 19.6917 20.529 15.9972 20.529V21.029V21.529C20.2587 21.529 23.6972 18.0245 23.6972 13.7147H23.1972ZM25.0845 28.8558L24.6104 29.0147C24.828 29.6636 24.6564 30.2641 24.2433 30.7212C23.8216 31.1879 23.1465 31.5004 22.3972 31.5004V32.0004V32.5004C23.4153 32.5004 24.3647 32.0784 24.9853 31.3917C25.6145 30.6953 25.9028 29.7235 25.5585 28.6968L25.0845 28.8558ZM6.90996 28.8558L6.4359 28.6968C6.0916 29.7235 6.37993 30.6953 7.00915 31.3917C7.62968 32.0784 8.57916 32.5004 9.59721 32.5004V32.0004V31.5004C8.84794 31.5004 8.17284 31.1879 7.7511 30.7212C7.33805 30.2641 7.16641 29.6636 7.38401 29.0147L6.90996 28.8558ZM52.0639 41.6004V42.1004C53.0958 42.1004 53.8972 42.8985 53.8972 43.8404H54.3972H54.8972C54.8972 42.3081 53.6093 41.1004 52.0639 41.1004V41.6004ZM54.3972 53.7604H53.8972C53.8972 54.7023 53.0958 55.5004 52.0639 55.5004V56.0004V56.5004C53.6093 56.5004 54.8972 55.2927 54.8972 53.7604H54.3972ZM52.0639 56.0004V55.5004H37.5305V56.0004V56.5004H52.0639V56.0004ZM37.5305 56.0004V55.5004C36.4986 55.5004 35.6972 54.7023 35.6972 53.7604H35.1972H34.6972C34.6972 55.2927 35.9852 56.5004 37.5305 56.5004V56.0004ZM35.1972 43.8404H35.6972C35.6972 42.8985 36.4986 42.1004 37.5305 42.1004V41.6004V41.1004C35.9852 41.1004 34.6972 42.3081 34.6972 43.8404H35.1972ZM37.5305 41.6004V42.1004H44.7972V41.6004V41.1004H37.5305V41.6004ZM44.7972 41.6004V42.1004H52.0639V41.6004V41.1004H44.7972V41.6004ZM44.7972 41.6004H45.2972V36.8004H44.7972H44.2972V41.6004H44.7972ZM44.7972 36.8004V36.3004H41.0639V36.8004V37.3004H44.7972V36.8004ZM49.5972 48.0004H49.0972V49.6004H49.5972H50.0972V48.0004H49.5972ZM41.5972 48.0004H41.0972V49.6004H41.5972H42.0972V48.0004H41.5972ZM35.1972 53.7604H35.6972V43.8404H35.1972H34.6972V53.7604H35.1972ZM54.3972 43.8404H53.8972V53.7604H54.3972H54.8972V43.8404H54.3972Z" fill="url(#paint2_linear_2981_132271)"/>
</g>
</g>
<defs>
<linearGradient id="paint0_linear_2981_132271" x1="47.9984" y1="43.2012" x2="47.9984" y2="57.6012" gradientUnits="userSpaceOnUse">
<stop stop-color="#9342CE"/>
<stop offset="1" stop-color="#4BA4AA"/>
</linearGradient>
<linearGradient id="paint1_linear_2981_132271" x1="19.1977" y1="8" x2="19.1977" y2="33.6" gradientUnits="userSpaceOnUse">
<stop stop-color="#9342CE"/>
<stop offset="1" stop-color="#4BA4AA"/>
</linearGradient>
<linearGradient id="paint2_linear_2981_132271" x1="45.5973" y1="48.0004" x2="45.5973" y2="49.6004" gradientUnits="userSpaceOnUse">
<stop stop-color="#9342CE"/>
<stop offset="1" stop-color="#4BA4AA"/>
</linearGradient>
</defs>
</svg>
