<svg width="64" height="65" viewBox="0 0 64 65" fill="none" xmlns="http://www.w3.org/2000/svg">
<g id="CI CD">
<path id="Subtract" opacity="0.2" fill-rule="evenodd" clip-rule="evenodd" d="M39.5331 10.528C39.8197 10.4431 40.1004 10.4596 40.3753 10.5764L47.3143 13.5264C47.5644 13.6328 47.7714 13.8251 47.9346 14.1014C48.0974 14.3772 48.1438 14.633 48.0737 14.8686L46.5065 21.0764C47.2647 21.724 48.0451 22.5288 48.8471 23.4905C50.408 23.1492 52.3232 22.6339 54.5924 21.9436C54.9418 21.8852 55.2299 21.9026 55.4549 21.9983C55.7548 22.1259 55.9543 22.3158 56.0549 22.5655C56.5609 23.4606 57.2426 24.9692 58.0987 27.0921C58.9549 29.2151 59.2816 30.5145 59.0799 30.9905C58.9632 31.266 58.7642 31.4926 58.4831 31.6686L53.2768 34.553C53.3592 35.6818 53.3388 36.8125 53.2143 37.9421C55.7977 39.3658 57.6134 40.4777 58.6612 41.278C59.1868 41.7084 59.3285 42.2115 59.0846 42.7874L56.1221 49.7764C56.0054 50.0516 55.8063 50.2621 55.5237 50.4077C55.2408 50.5533 54.9686 50.5857 54.7081 50.5046L48.6034 48.928C47.9925 49.6733 47.2073 50.4493 46.2471 51.253L47.7065 57.1061C47.8069 57.3557 47.7881 57.6434 47.6503 57.9686C47.5336 58.244 47.3218 58.4642 47.0159 58.6296C42.1621 60.8225 39.3972 61.776 38.7221 61.4889C38.4972 61.3933 38.2963 61.2048 38.1206 60.9233C37.8767 60.524 37.4322 59.7283 36.7862 58.5374C36.1402 57.3465 35.6274 56.433 35.2471 55.7983C33.903 55.9066 32.6917 55.908 31.6143 55.8046L28.294 61.1342C28.163 61.3737 27.9538 61.5352 27.6674 61.6202C27.3806 61.7051 27.0987 61.6903 26.8237 61.5733L19.8862 58.6217C19.6362 58.5154 19.4291 58.3246 19.2659 58.0483C19.1026 57.772 19.0563 57.5156 19.1268 57.2796L20.694 51.0733C19.9358 50.4257 19.1555 49.621 18.3534 48.6592C16.7925 49.0005 14.8774 49.5159 12.6081 50.2061C12.2587 50.2645 11.9706 50.2456 11.7456 50.1499C11.4457 50.0223 11.2322 49.8288 11.1065 49.5686C10.5899 48.6986 9.91366 47.1973 9.07525 45.0671C8.23692 42.9369 7.91736 41.6336 8.119 41.1577C8.23571 40.8824 8.43506 40.6571 8.71588 40.4811L13.9221 37.5952C13.8329 36.5522 13.8424 35.4179 13.9487 34.1921C11.3655 32.7684 9.56222 31.6614 8.53932 30.8717C8.01353 30.4412 7.87177 29.9369 8.11588 29.3608L11.0768 22.3733C11.1936 22.0978 11.3938 21.8862 11.6768 21.7405C11.9597 21.5949 12.2319 21.5624 12.4924 21.6436L18.5971 23.2202C19.208 22.4749 19.9933 21.7004 20.9534 20.8967L19.494 15.0436C19.404 14.7689 19.4231 14.4815 19.5503 14.1811C19.667 13.9056 19.8785 13.684 20.1846 13.5186C25.0382 11.3258 27.8033 10.3737 28.4784 10.6608C28.6781 10.746 28.8779 10.9346 29.0784 11.2264C29.3511 11.6971 29.8045 12.51 30.4362 13.6655C31.0679 14.8209 31.5781 15.7043 31.969 16.3139C33.4133 16.2482 34.6193 16.2576 35.5862 16.3436L38.869 10.9999C39.0251 10.7706 39.2462 10.613 39.5331 10.528ZM33.6003 20.0749C24.7637 20.0749 17.6003 27.2383 17.6003 36.0749C17.6006 44.9111 24.7639 52.0749 33.6003 52.0749C42.4366 52.0748 49.5999 44.9111 49.6003 36.0749C49.6003 27.2383 42.4368 20.0749 33.6003 20.0749Z" fill="url(#paint0_linear_3088_152908)"/>
<path id="Vector" d="M27.1986 26.4735L20.7986 32.8735L27.1986 39.2735M36.7986 26.4735L43.1986 32.8735L36.7986 39.2735M33.5986 26.4735L30.3986 39.2735M37.9313 7.32689C38.2182 7.24193 38.5001 7.25837 38.7751 7.37533L45.7126 10.3253C45.9626 10.4317 46.1697 10.624 46.3329 10.9003C46.496 11.1766 46.5425 11.4331 46.472 11.6691L44.9048 17.8753C45.663 18.5229 46.4433 19.3276 47.2454 20.2894C48.8063 19.9481 50.7215 19.4328 52.9907 18.7425C53.3401 18.6841 53.6282 18.7031 53.8532 18.7988C54.1529 18.9263 54.3525 19.1149 54.4532 19.3644C54.9592 20.2594 55.6409 21.7683 56.497 23.891C57.3527 26.0127 57.6807 27.3127 57.4798 27.7894C57.3631 28.0648 57.1638 28.2915 56.8829 28.4675L51.6767 31.3535C51.759 32.4822 51.7371 33.6115 51.6126 34.741C54.196 36.1647 56.0116 37.2766 57.0595 38.0769C57.585 38.5072 57.7266 39.0104 57.4829 39.5863L54.522 46.5753C54.4052 46.8509 54.205 47.0624 53.922 47.2081C53.639 47.3538 53.367 47.3847 53.1064 47.3035L47.0017 45.7285C46.3908 46.4737 45.6055 47.2483 44.6454 48.0519L46.1048 53.905C46.2053 54.1546 46.1863 54.4422 46.0485 54.7675C45.9318 55.0431 45.7203 55.2646 45.4142 55.43C40.5605 57.6229 37.7955 58.5749 37.1204 58.2878C36.8957 58.1921 36.696 58.0034 36.5204 57.7222C36.2765 57.3229 35.8306 56.5275 35.1845 55.3363C34.5384 54.1451 34.0257 53.2319 33.6454 52.5972C32.3012 52.7055 31.09 52.7085 30.0126 52.605L26.6923 57.9331C26.5612 58.1729 26.3524 58.3357 26.0657 58.4206C25.7789 58.5056 25.497 58.4892 25.222 58.3722L18.2845 55.4222C18.0344 55.3159 17.8274 55.1236 17.6642 54.8472C17.5011 54.571 17.4546 54.3144 17.5251 54.0785L19.0923 47.8722C18.334 47.2246 17.5538 46.4199 16.7517 45.4581C15.1908 45.7994 13.2756 46.3148 11.0063 47.005C10.657 47.0634 10.3689 47.0445 10.1438 46.9488C9.84427 46.8212 9.63201 46.6276 9.50634 46.3675C8.98978 45.4975 8.31182 43.9975 7.47353 41.8675C6.63552 39.7382 6.31621 38.4346 6.51728 37.9581C6.63397 37.6827 6.83321 37.456 7.11416 37.28L12.3204 34.3941C12.2313 33.3512 12.2407 32.2166 12.347 30.991C9.76348 29.5672 7.96042 28.4603 6.93759 27.6706C6.41196 27.2402 6.27034 26.7372 6.51416 26.1613L9.47509 19.1722C9.59177 18.8968 9.79232 18.6866 10.0751 18.541C10.3581 18.3953 10.6301 18.3629 10.8907 18.4441L16.9954 20.0191C17.6062 19.2739 18.3916 18.4992 19.3517 17.6956L17.8923 11.8425C17.8024 11.5679 17.8213 11.2804 17.9485 10.98C18.0652 10.7046 18.2769 10.4845 18.5829 10.3191C23.4367 8.12617 26.2016 7.17263 26.8767 7.45971C27.0764 7.54477 27.2762 7.73356 27.4767 8.02533C27.7493 8.49599 28.2028 9.30908 28.8345 10.4644C29.4661 11.6197 29.9764 12.5032 30.3673 13.1128C31.8114 13.0471 33.0177 13.0566 33.9845 13.1425L37.2673 7.79877C37.4234 7.56961 37.6446 7.41185 37.9313 7.32689Z" stroke="url(#paint1_linear_3088_152908)" stroke-linecap="round" stroke-linejoin="round"/>
</g>
<defs>
<linearGradient id="paint0_linear_3088_152908" x1="33.6002" y1="10.4746" x2="33.6002" y2="61.6742" gradientUnits="userSpaceOnUse">
<stop stop-color="#9342CE"/>
<stop offset="1" stop-color="#4BA4AA"/>
</linearGradient>
<linearGradient id="paint1_linear_3088_152908" x1="31.9984" y1="26.4735" x2="31.9984" y2="39.2735" gradientUnits="userSpaceOnUse">
<stop stop-color="#9342CE"/>
<stop offset="1" stop-color="#4BA4AA"/>
</linearGradient>
</defs>
</svg>
