<svg width="64" height="65" viewBox="0 0 64 65" fill="none" xmlns="http://www.w3.org/2000/svg">
<g id="Developer">
<path id="Vector" opacity="0.2" d="M9.60156 44.5152V14.8301C9.60156 13.6744 9.98687 12.5661 10.6727 11.7489C11.3586 10.9317 12.2888 10.4727 13.2587 10.4727H57.1444C58.1144 10.4727 59.0446 10.9317 59.7304 11.7489C60.4163 12.5661 60.8016 13.6744 60.8016 14.8301V44.5152C60.8016 45.6709 60.4163 46.7792 59.7304 47.5964C59.0446 48.4136 58.1144 48.8727 57.1444 48.8727H35.2016H13.2587C12.2888 48.8727 11.3586 48.4136 10.6727 47.5964C9.98687 46.7792 9.60156 45.6709 9.60156 44.5152Z" fill="url(#paint0_linear_3088_152924)"/>
<path id="Vector_2" d="M19.1984 57.9734C18.9223 57.9734 18.6984 58.1973 18.6984 58.4734C18.6984 58.7496 18.9223 58.9734 19.1984 58.9734V57.9734ZM44.7984 58.9734C45.0746 58.9734 45.2984 58.7496 45.2984 58.4734C45.2984 58.1973 45.0746 57.9734 44.7984 57.9734V58.9734ZM6.39844 11.6309H5.89844H6.39844ZM6.39844 41.316H5.89844H6.39844ZM53.9413 7.27344V6.77344V7.27344ZM10.0556 7.27344V6.77344V7.27344ZM23.583 26.3645L23.3311 26.7963L23.583 26.3645ZM31.5953 31.0383L31.8473 30.6064H31.8473L31.5953 31.0383ZM32.4015 31.0383L32.1496 30.6064L32.4015 31.0383ZM40.4138 26.3645L40.1619 25.9326L40.1619 25.9326L40.4138 26.3645ZM40.4138 24.9824L40.6658 24.5505L40.4138 24.9824ZM32.4015 20.3086L32.1496 20.7405L32.4015 20.3086ZM31.5953 20.3086L31.3434 19.8767V19.8767L31.5953 20.3086ZM23.583 24.9824L23.835 25.4143L23.583 24.9824ZM22.622 30.8262C22.3751 30.7027 22.0747 30.8028 21.9512 31.0498C21.8277 31.2968 21.9278 31.5972 22.1748 31.7206L22.622 30.8262ZM31.9984 36.0734L31.7748 36.5206C31.9156 36.591 32.0813 36.591 32.222 36.5206L31.9984 36.0734ZM41.822 31.7206C42.069 31.5972 42.1691 31.2968 42.0457 31.0498C41.9222 30.8028 41.6218 30.7027 41.3748 30.8262L41.822 31.7206ZM6.39844 11.6309H5.89844V41.316H6.39844H6.89844V11.6309H6.39844ZM6.39844 41.316H5.89844C5.89844 42.5787 6.31867 43.8036 7.0866 44.7186L7.46959 44.3972L7.85258 44.0757C7.24881 43.3564 6.89844 42.3646 6.89844 41.316H6.39844ZM7.46959 44.3972L7.0866 44.7186C7.85671 45.6362 8.92194 46.1734 10.0556 46.1734V45.6734V45.1734C9.24935 45.1734 8.45416 44.7925 7.85258 44.0757L7.46959 44.3972ZM53.9413 45.6734V46.1734C55.0749 46.1734 56.1402 45.6362 56.9103 44.7186L56.5273 44.3972L56.1443 44.0757C55.5427 44.7925 54.7475 45.1734 53.9413 45.1734V45.6734ZM56.5273 44.3972L56.9103 44.7186C57.6782 43.8036 58.0984 42.5787 58.0984 41.316H57.5984H57.0984C57.0984 42.3646 56.7481 43.3564 56.1443 44.0757L56.5273 44.3972ZM57.5984 41.316H58.0984V11.6309H57.5984H57.0984V41.316H57.5984ZM57.5984 11.6309H58.0984C58.0984 10.3682 57.6782 9.14325 56.9103 8.22827L56.5273 8.5497L56.1443 8.87114C56.7481 9.59052 57.0984 10.5823 57.0984 11.6309H57.5984ZM56.5273 8.5497L56.9103 8.22827C56.1402 7.31069 55.0749 6.77344 53.9413 6.77344V7.27344V7.77344C54.7475 7.77344 55.5427 8.15436 56.1443 8.87114L56.5273 8.5497ZM53.9413 7.27344V6.77344H10.0556V7.27344V7.77344H53.9413V7.27344ZM10.0556 7.27344V6.77344C8.92194 6.77344 7.85671 7.31069 7.0866 8.22827L7.46959 8.5497L7.85258 8.87114C8.45416 8.15436 9.24935 7.77344 10.0556 7.77344V7.27344ZM7.46959 8.5497L7.0866 8.22827C6.31867 9.14325 5.89844 10.3682 5.89844 11.6309H6.39844H6.89844C6.89844 10.5823 7.24881 9.59052 7.85258 8.87114L7.46959 8.5497ZM10.0556 45.6734V46.1734H31.9984V45.6734V45.1734H10.0556V45.6734ZM31.9984 45.6734V46.1734H53.9413V45.6734V45.1734H31.9984V45.6734ZM19.1984 58.4734V58.9734H31.9984V58.4734V57.9734H19.1984V58.4734ZM31.9984 58.4734V58.9734H44.7984V58.4734V57.9734H31.9984V58.4734ZM31.9984 58.4734H32.4984V45.6734H31.9984H31.4984V58.4734H31.9984ZM23.583 26.3645L23.3311 26.7963L31.3434 31.4702L31.5953 31.0383L31.8473 30.6064L23.835 25.9326L23.583 26.3645ZM32.4015 31.0383L32.6535 31.4702L40.6658 26.7963L40.4138 26.3645L40.1619 25.9326L32.1496 30.6064L32.4015 31.0383ZM40.4138 24.9824L40.6658 24.5505L32.6535 19.8767L32.4015 20.3086L32.1496 20.7405L40.1619 25.4143L40.4138 24.9824ZM31.5953 20.3086L31.3434 19.8767L23.3311 24.5505L23.583 24.9824L23.835 25.4143L31.8473 20.7405L31.5953 20.3086ZM32.4015 20.3086L32.6535 19.8767C32.2487 19.6406 31.7482 19.6406 31.3434 19.8767L31.5953 20.3086L31.8473 20.7405C31.9407 20.686 32.0562 20.686 32.1496 20.7405L32.4015 20.3086ZM40.4138 26.3645L40.6658 26.7963C41.5257 26.2947 41.5257 25.0522 40.6658 24.5505L40.4138 24.9824L40.1619 25.4143C40.3603 25.5301 40.3603 25.8168 40.1619 25.9326L40.4138 26.3645ZM31.5953 31.0383L31.3434 31.4702C31.7482 31.7063 32.2487 31.7063 32.6535 31.4702L32.4015 31.0383L32.1496 30.6064C32.0562 30.6609 31.9407 30.6609 31.8473 30.6064L31.5953 31.0383ZM23.583 26.3645L23.835 25.9326C23.6365 25.8168 23.6365 25.5301 23.835 25.4143L23.583 24.9824L23.3311 24.5505C22.4712 25.0522 22.4712 26.2947 23.3311 26.7963L23.583 26.3645ZM22.3984 31.2734L22.1748 31.7206L31.7748 36.5206L31.9984 36.0734L32.222 35.6262L22.622 30.8262L22.3984 31.2734ZM31.9984 36.0734L32.222 36.5206L41.822 31.7206L41.5984 31.2734L41.3748 30.8262L31.7748 35.6262L31.9984 36.0734Z" fill="url(#paint1_linear_3088_152924)"/>
</g>
<defs>
<linearGradient id="paint0_linear_3088_152924" x1="35.2016" y1="10.4727" x2="35.2016" y2="48.8727" gradientUnits="userSpaceOnUse">
<stop stop-color="#8C4ACB"/>
<stop offset="1" stop-color="#4BA4AA"/>
</linearGradient>
<linearGradient id="paint1_linear_3088_152924" x1="31.9984" y1="7.27344" x2="31.9984" y2="58.4734" gradientUnits="userSpaceOnUse">
<stop stop-color="#8C4ACB"/>
<stop offset="1" stop-color="#4BA4AA"/>
</linearGradient>
</defs>
</svg>
