<svg width="64" height="65" viewBox="0 0 64 65" fill="none" xmlns="http://www.w3.org/2000/svg">
<g id="Estimation">
<rect id="Rectangle 1321325340" opacity="0.2" x="9.60156" y="10.4727" width="38.4" height="44.8" rx="4" fill="url(#paint0_linear_3088_152991)"/>
<path id="Vector" d="M44.7984 31.0734V20.7134C44.7984 14.377 44.7984 11.2102 42.8144 9.24184C40.8279 7.27344 37.6356 7.27344 31.2432 7.27344H19.9536C13.5613 7.27344 10.369 7.27344 8.38244 9.24184C6.39588 11.2102 6.39844 14.377 6.39844 20.7134V38.6334C6.39844 44.9698 6.39844 48.1366 8.38244 50.105C10.369 52.0734 13.5613 52.0734 19.9536 52.0734H28.1584M14.0784 18.4734H37.1184M14.0784 29.6734H16.6384M24.3184 29.6734H26.8784M34.5584 29.6734H37.1184M14.0784 40.8734H16.6384M24.3184 40.8734H26.8784M51.1984 52.0734L44.7984 45.6734V37.6734M57.5984 45.6734C57.5984 52.7427 51.8677 58.4734 44.7984 58.4734C37.7292 58.4734 31.9984 52.7427 31.9984 45.6734C31.9984 38.6042 37.7292 32.8734 44.7984 32.8734C51.8677 32.8734 57.5984 38.6042 57.5984 45.6734Z" stroke="url(#paint1_linear_3088_152991)"/>
</g>
<defs>
<linearGradient id="paint0_linear_3088_152991" x1="28.8016" y1="10.4727" x2="28.8016" y2="55.2727" gradientUnits="userSpaceOnUse">
<stop stop-color="#8C4ACB"/>
<stop offset="1" stop-color="#4BA4AA"/>
</linearGradient>
<linearGradient id="paint1_linear_3088_152991" x1="31.9984" y1="7.27344" x2="31.9984" y2="58.4734" gradientUnits="userSpaceOnUse">
<stop stop-color="#8C4ACB"/>
<stop offset="1" stop-color="#4BA4AA"/>
</linearGradient>
</defs>
</svg>
