<svg width="64" height="64" viewBox="0 0 64 64" fill="none" xmlns="http://www.w3.org/2000/svg">
<g id="Functional Analysis">
<g id="Vector" opacity="0.2">
<path d="M25.1965 30.9478C26.3684 28.1819 28.3456 26.2359 31.1282 25.1096C32.4874 24.5595 33.8439 24.2837 35.1979 24.2824V14.5721C34.6722 14.574 34.106 14.5888 33.4994 14.6164C33.0922 13.9813 32.5596 13.062 31.9016 11.8583C31.2435 10.6547 30.7725 9.80766 30.4884 9.31734C30.2793 9.01286 30.0706 8.81631 29.8622 8.72771C29.159 8.42866 26.2794 9.42128 21.2233 11.7056C20.9044 11.8779 20.6841 12.1076 20.5625 12.3946C20.4299 12.7077 20.4105 13.0074 20.5043 13.2936L22.0246 19.3907C21.0243 20.2279 20.206 21.0347 19.5697 21.8111L13.2109 20.1694C12.9394 20.0847 12.6562 20.1183 12.3614 20.27C12.0665 20.4218 11.8583 20.6412 11.7367 20.9282L8.65218 28.2081C8.39791 28.8082 8.54462 29.3325 9.09231 29.781C10.1577 30.6036 12.0361 31.7565 14.7274 33.2397C14.6166 34.5167 14.6077 35.6985 14.7006 36.785L9.27741 39.7908C8.98454 39.9742 8.7773 40.2094 8.65569 40.4964C8.44563 40.9922 8.77727 42.3496 9.65061 44.5686C10.5239 46.7876 11.2297 48.3503 11.7678 49.2566C11.8988 49.5278 12.1206 49.7299 12.4331 49.8628C12.6675 49.9625 12.9667 49.9819 13.3305 49.9211C15.6947 49.202 17.6898 48.6647 19.3159 48.3092C20.1515 49.3112 20.9644 50.1496 21.7543 50.8242L20.1216 57.2895C20.0481 57.5354 20.0964 57.8023 20.2664 58.0902C20.4365 58.3781 20.6517 58.5774 20.9122 58.6881L28.1397 61.7616C28.4262 61.8835 28.7189 61.9001 29.0177 61.8116C29.3164 61.7231 29.5341 61.554 29.6707 61.3041L33.129 55.7537C33.7729 55.8155 34.4626 55.841 35.1979 55.8303V46.1192C33.78 46.1206 32.3648 45.821 30.9526 45.2204C28.1918 44.0464 26.2493 42.0656 25.125 39.2779C24.0008 36.4903 24.0246 33.7136 25.1965 30.9478Z" fill="url(#paint0_linear_2981_132348)"/>
</g>
<path id="Vector_2" d="M27.9329 21.9084L27.7453 21.445L27.9329 21.9084ZM27.7573 42.0192L27.5616 42.4794L27.7573 42.0192ZM29.9337 52.5525L29.9815 52.0548L29.6731 52.0252L29.5093 52.2881L29.9337 52.5525ZM26.4754 58.1029L26.051 57.8385L26.0435 57.8506L26.0367 57.8631L26.4754 58.1029ZM24.9444 58.5605L24.7488 59.0206H24.7488L24.9444 58.5605ZM17.7169 55.487L17.5212 55.9471H17.5212L17.7169 55.487ZM16.9262 54.0884L17.4053 54.2315L17.4084 54.2212L17.411 54.2108L16.9262 54.0884ZM18.559 47.6231L19.0438 47.7455L19.1198 47.4445L18.8838 47.2429L18.559 47.6231ZM16.1205 45.108L16.5045 44.7878L16.3102 44.5547L16.0137 44.6195L16.1205 45.108ZM10.1352 46.72L10.2176 47.2131L10.2497 47.2078L10.2807 47.1983L10.1352 46.72ZM9.23779 46.6617L9.04212 47.1218H9.04212L9.23779 46.6617ZM8.57251 46.0554L9.02277 45.838L9.01342 45.8186L9.00243 45.8001L8.57251 46.0554ZM6.4553 41.3674L5.99004 41.5505L6.4553 41.3674ZM5.46038 37.2952L5.92076 37.4903H5.92076L5.46038 37.2952ZM6.0821 36.5896L5.83972 36.1523L5.82805 36.1588L5.81674 36.1658L6.0821 36.5896ZM11.5053 33.5838L11.7477 34.0212L12.0311 33.8641L12.0035 33.5412L11.5053 33.5838ZM11.532 30.0385L12.0302 30.0817L12.0583 29.7576L11.7734 29.6006L11.532 30.0385ZM5.897 26.5798L5.58023 26.9667L5.58577 26.9712L5.59144 26.9756L5.897 26.5798ZM5.45687 25.0069L5.91725 25.202L5.45687 25.0069ZM8.54137 17.7271L8.081 17.532L8.08099 17.532L8.54137 17.7271ZM10.0156 16.9682L9.86673 17.4456L9.87857 17.4492L9.89058 17.4523L10.0156 16.9682ZM16.3744 18.6099L16.2494 19.094L16.5586 19.1739L16.7611 18.9268L16.3744 18.6099ZM18.8292 16.1895L19.1502 16.5729L19.3901 16.3721L19.3144 16.0685L18.8292 16.1895ZM17.309 10.0925L17.7942 9.97151L17.7898 9.95392L17.7841 9.93668L17.309 10.0925ZM17.3672 9.1934L16.9068 8.99834V8.99834L17.3672 9.1934ZM18.028 8.50439L17.8222 8.04874L17.806 8.05605L17.7903 8.0645L18.028 8.50439ZM26.6669 5.52653L26.8626 5.06641L26.8626 5.06641L26.6669 5.52653ZM27.2931 6.11617L27.7257 5.86552L27.7161 5.84892L27.7053 5.8331L27.2931 6.11617ZM28.7063 8.65714L29.145 8.41728L28.7063 8.65714ZM30.3041 11.4152L29.8832 11.6851L30.0388 11.9278L30.3268 11.9147L30.3041 11.4152ZM32.0026 21.0813L32.0031 21.5813C32.279 21.581 32.5026 21.3572 32.5026 21.0813H32.0026ZM32.0026 42.918H32.5026C32.5026 42.7853 32.4499 42.6581 32.356 42.5643C32.2621 42.4705 32.1348 42.4179 32.0021 42.418L32.0026 42.918ZM32.0026 11.3709H32.5026C32.5026 11.238 32.4497 11.1105 32.3555 11.0167C32.2613 10.9229 32.1337 10.8704 32.0008 10.8709L32.0026 11.3709ZM32.0026 52.6291L32.0099 53.129C32.2832 53.125 32.5026 52.9024 32.5026 52.6291H32.0026ZM27.9329 21.9084L27.7453 21.445C24.8397 22.621 22.7644 24.6637 21.5408 27.5515L22.0012 27.7466L22.4616 27.9416C23.5818 25.2978 25.4609 23.4484 28.1205 22.3719L27.9329 21.9084ZM22.0012 27.7466L21.5408 27.5515C20.3173 30.4393 20.2923 33.3535 21.466 36.2638L21.9297 36.0768L22.3934 35.8898C21.3187 33.2248 21.3414 30.5855 22.4616 27.9416L22.0012 27.7466ZM21.9297 36.0768L21.466 36.2638C22.6397 39.1741 24.6785 41.2533 27.5616 42.4794L27.7573 42.0192L27.9529 41.5591C25.3144 40.4371 23.4682 38.5547 22.3934 35.8898L21.9297 36.0768ZM29.9337 52.5525L29.5093 52.2881L26.051 57.8385L26.4754 58.1029L26.8998 58.3673L30.3581 52.8169L29.9337 52.5525ZM26.4754 58.1029L26.0367 57.8631C25.9697 57.9855 25.8656 58.0762 25.6803 58.1311L25.8223 58.6105L25.9644 59.0899C26.3767 58.9677 26.7079 58.72 26.9141 58.3428L26.4754 58.1029ZM25.8223 58.6105L25.6803 58.1311C25.4928 58.1866 25.3196 58.1767 25.1401 58.1003L24.9444 58.5605L24.7488 59.0206C25.1423 59.1879 25.5543 59.2113 25.9644 59.0899L25.8223 58.6105ZM24.9444 58.5605L25.1401 58.1003L17.9125 55.0268L17.7169 55.487L17.5212 55.9471L24.7488 59.0206L24.9444 58.5605ZM17.7169 55.487L17.9125 55.0268C17.7672 54.965 17.6275 54.8479 17.5016 54.6347L17.0711 54.889L16.6406 55.1433C16.8548 55.5059 17.1456 55.7874 17.5212 55.9471L17.7169 55.487ZM17.0711 54.889L17.5016 54.6347C17.3798 54.4285 17.3829 54.3066 17.4053 54.2315L16.9262 54.0884L16.4472 53.9453C16.3227 54.362 16.4224 54.7738 16.6406 55.1433L17.0711 54.889ZM16.9262 54.0884L17.411 54.2108L19.0438 47.7455L18.559 47.6231L18.0743 47.5006L16.4415 53.9659L16.9262 54.0884ZM18.559 47.6231L18.8838 47.2429C18.1198 46.5904 17.3265 45.7734 16.5045 44.7878L16.1205 45.108L15.7366 45.4282C16.5859 46.4467 17.4183 47.3064 18.2343 48.0033L18.559 47.6231ZM16.1205 45.108L16.0137 44.6195C14.3701 44.9789 12.3612 45.5203 9.98972 46.2416L10.1352 46.72L10.2807 47.1983C12.6376 46.4814 14.6189 45.9481 16.2273 45.5965L16.1205 45.108ZM10.1352 46.72L10.0528 46.2268C9.74298 46.2786 9.54923 46.2508 9.43345 46.2015L9.23779 46.6617L9.04212 47.1218C9.39516 47.2719 9.7997 47.283 10.2176 47.2131L10.1352 46.72ZM9.23779 46.6617L9.43345 46.2015C9.21717 46.1096 9.09432 45.9862 9.02277 45.838L8.57251 46.0554L8.12225 46.2728C8.31265 46.6672 8.63331 46.9479 9.04212 47.1218L9.23779 46.6617ZM8.57251 46.0554L9.00243 45.8001C8.48658 44.9314 7.79319 43.4015 6.92056 41.1843L6.4553 41.3674L5.99004 41.5505C6.86408 43.7714 7.58217 45.3669 8.14259 46.3107L8.57251 46.0554ZM6.4553 41.3674L6.92056 41.1843C6.48726 40.0833 6.1953 39.2132 6.03728 38.5664C5.95818 38.2427 5.91593 37.988 5.90333 37.7959C5.89004 37.5933 5.91331 37.5079 5.92076 37.4903L5.46038 37.2952L5 37.1002C4.90242 37.3305 4.88837 37.6006 4.90547 37.8613C4.92327 38.1325 4.97912 38.4488 5.06585 38.8038C5.23947 39.5144 5.55 40.4324 5.99004 41.5505L6.4553 41.3674ZM5.46038 37.2952L5.92076 37.4903C5.99805 37.3079 6.13166 37.1485 6.34747 37.0134L6.0821 36.5896L5.81674 36.1658C5.4468 36.3975 5.16593 36.7085 5 37.1002L5.46038 37.2952ZM6.0821 36.5896L6.32448 37.0269L11.7477 34.0212L11.5053 33.5838L11.2629 33.1465L5.83972 36.1523L6.0821 36.5896ZM11.5053 33.5838L12.0035 33.5412C11.9134 32.4877 11.9215 31.335 12.0302 30.0817L11.532 30.0385L11.0339 29.9953C10.9211 31.2961 10.9114 32.5069 11.0071 33.6264L11.5053 33.5838ZM11.532 30.0385L11.7734 29.6006C9.08349 28.1182 7.23487 26.9811 6.20257 26.184L5.897 26.5798L5.59144 26.9756C6.68997 27.8237 8.59804 28.9924 11.2907 30.4764L11.532 30.0385ZM5.897 26.5798L6.21377 26.193C5.99571 26.0144 5.89611 25.8528 5.8577 25.7155C5.8206 25.5829 5.82529 25.419 5.91725 25.202L5.45687 25.0069L4.99649 24.8119C4.83418 25.1949 4.78508 25.5933 4.89469 25.985C5.00299 26.372 5.2506 26.6968 5.58023 26.9667L5.897 26.5798ZM5.45687 25.0069L5.91725 25.202L9.00175 17.9221L8.54137 17.7271L8.08099 17.532L4.99649 24.8119L5.45687 25.0069ZM8.54137 17.7271L9.00175 17.9221C9.07469 17.75 9.19687 17.6154 9.39489 17.5134L9.16605 17.0689L8.93722 16.6243C8.54555 16.8259 8.25128 17.1301 8.081 17.532L8.54137 17.7271ZM9.16605 17.0689L9.39489 17.5134C9.59388 17.411 9.74129 17.4064 9.86673 17.4456L10.0156 16.9682L10.1644 16.4909C9.74684 16.3607 9.3279 16.4232 8.93722 16.6243L9.16605 17.0689ZM10.0156 16.9682L9.89058 17.4523L16.2494 19.094L16.3744 18.6099L16.4994 18.1258L10.1406 16.4841L10.0156 16.9682ZM16.3744 18.6099L16.7611 18.9268C17.3728 18.1805 18.1672 17.3957 19.1502 16.5729L18.8292 16.1895L18.5083 15.8061C17.4908 16.6577 16.6487 17.4865 15.9877 18.2929L16.3744 18.6099ZM18.8292 16.1895L19.3144 16.0685L17.7942 9.97151L17.309 10.0925L16.8239 10.2134L18.3441 16.3105L18.8292 16.1895ZM17.309 10.0925L17.7841 9.93668C17.7328 9.78018 17.7356 9.60557 17.8276 9.38847L17.3672 9.1934L16.9068 8.99834C16.7335 9.40746 16.6975 9.83223 16.8339 10.2483L17.309 10.0925ZM17.3672 9.1934L17.8276 9.38847C17.8979 9.2225 18.0296 9.07184 18.2657 8.94428L18.028 8.50439L17.7903 8.0645C17.3886 8.28158 17.0797 8.59027 16.9068 8.99834L17.3672 9.1934ZM18.028 8.50439L18.2339 8.96005C20.7572 7.82001 22.7247 7.00821 24.1427 6.51942C24.853 6.27458 25.4117 6.1156 25.8264 6.03533C26.0338 5.99518 26.1933 5.9771 26.3107 5.97485C26.4354 5.97246 26.4765 5.9889 26.4712 5.98666L26.6669 5.52653L26.8626 5.06641C26.6815 4.98941 26.4788 4.97145 26.2916 4.97503C26.0972 4.97875 25.8768 5.007 25.6364 5.05355C25.1553 5.14667 24.5463 5.32254 23.8168 5.57401C22.3552 6.07784 20.3548 6.90449 17.8222 8.04874L18.028 8.50439ZM26.6669 5.52653L26.4712 5.98666C26.5528 6.02136 26.695 6.12847 26.8809 6.39923L27.2931 6.11617L27.7053 5.8331C27.473 5.4949 27.1977 5.20892 26.8626 5.06641L26.6669 5.52653ZM27.2931 6.11617L26.8605 6.36681C27.1411 6.85121 27.6095 7.69332 28.2675 8.89699L28.7063 8.65714L29.145 8.41728C28.4869 7.21364 28.0132 6.36177 27.7257 5.86552L27.2931 6.11617ZM28.7063 8.65714L28.2675 8.89699C28.9275 10.1041 29.4666 11.0354 29.8832 11.6851L30.3041 11.4152L30.725 11.1453C30.3272 10.5249 29.8012 9.61753 29.145 8.41728L28.7063 8.65714ZM32.0026 21.0813L32.0021 20.5813C30.5789 20.5826 29.1589 20.8728 27.7453 21.445L27.9329 21.9084L28.1205 22.3719C29.4252 21.8438 30.7184 21.5825 32.0031 21.5813L32.0026 21.0813ZM27.7573 42.0192L27.5616 42.4794C29.0307 43.1041 30.5123 43.4195 32.0031 43.418L32.0026 42.918L32.0021 42.418C30.6569 42.4193 29.3083 42.1355 27.9529 41.5591L27.7573 42.0192ZM30.3041 11.4152L30.3268 11.9147C30.9275 11.8873 31.4866 11.8728 32.0044 11.8709L32.0026 11.3709L32.0008 10.8709C31.4671 10.8728 30.8939 10.8878 30.2813 10.9157L30.3041 11.4152ZM32.0026 52.6291L31.9953 52.1292C31.2759 52.1397 30.6048 52.1147 29.9815 52.0548L29.9337 52.5525L29.8859 53.0502C30.5504 53.114 31.2586 53.14 32.0099 53.129L32.0026 52.6291ZM32.0026 11.3709H31.5026V21.0813H32.0026H32.5026V11.3709H32.0026ZM32.0026 42.918H31.5026V52.6291H32.0026H32.5026V42.918H32.0026ZM26.6693 31.9996V32.4996H38.0978V31.9996V31.4996H26.6693V31.9996ZM38.0978 31.9996V32.4996H50.6693V31.9996V31.4996H38.0978V31.9996ZM38.0978 31.9996H38.5978V26.6663H38.0978H37.5978V31.9996H38.0978ZM48.7649 15.9997V16.4997H50.6693V15.9997V15.4997H48.7649V15.9997ZM38.0978 31.9996H37.5978V37.333H38.0978H38.5978V31.9996H38.0978ZM48.7645 47.9996V48.4996H50.6693V47.9996V47.4996H48.7645V47.9996ZM38.0978 37.333H37.5978C37.5978 43.5002 42.5973 48.4996 48.7645 48.4996V47.9996V47.4996C43.1496 47.4996 38.5978 42.9479 38.5978 37.333H38.0978ZM38.0978 26.6663H38.5978C38.5978 21.0514 43.15 16.4997 48.7649 16.4997V15.9997V15.4997C42.5977 15.4997 37.5978 20.4991 37.5978 26.6663H38.0978ZM58.6693 31.9996H58.1693C58.1693 33.1963 57.1992 34.1663 56.0026 34.1663V34.6663V35.1663C57.7515 35.1663 59.1693 33.7485 59.1693 31.9996H58.6693ZM56.0026 34.6663V34.1663C54.806 34.1663 53.8359 33.1963 53.8359 31.9996H53.3359H52.8359C52.8359 33.7485 54.2537 35.1663 56.0026 35.1663V34.6663ZM53.3359 31.9996H53.8359C53.8359 30.803 54.806 29.833 56.0026 29.833V29.333V28.833C54.2537 28.833 52.8359 30.2507 52.8359 31.9996H53.3359ZM56.0026 29.333V29.833C57.1992 29.833 58.1693 30.803 58.1693 31.9996H58.6693H59.1693C59.1693 30.2507 57.7515 28.833 56.0026 28.833V29.333ZM58.6693 15.9997H58.1693C58.1693 17.1963 57.1992 18.1663 56.0026 18.1663V18.6663V19.1663C57.7515 19.1663 59.1693 17.7486 59.1693 15.9997H58.6693ZM56.0026 18.6663V18.1663C54.806 18.1663 53.8359 17.1963 53.8359 15.9997H53.3359H52.8359C52.8359 17.7486 54.2537 19.1663 56.0026 19.1663V18.6663ZM53.3359 15.9997H53.8359C53.8359 14.803 54.806 13.833 56.0026 13.833V13.333V12.833C54.2537 12.833 52.8359 14.2507 52.8359 15.9997H53.3359ZM56.0026 13.333V13.833C57.1992 13.833 58.1693 14.803 58.1693 15.9997H58.6693H59.1693C59.1693 14.2507 57.7515 12.833 56.0026 12.833V13.333ZM58.6693 47.9996H58.1693C58.1693 49.1963 57.1992 50.1663 56.0026 50.1663V50.6663V51.1663C57.7515 51.1663 59.1693 49.7486 59.1693 47.9996H58.6693ZM56.0026 50.6663V50.1663C54.806 50.1663 53.8359 49.1963 53.8359 47.9996H53.3359H52.8359C52.8359 49.7486 54.2537 51.1663 56.0026 51.1663V50.6663ZM53.3359 47.9996H53.8359C53.8359 46.803 54.806 45.833 56.0026 45.833V45.333V44.833C54.2537 44.833 52.8359 46.2507 52.8359 47.9996H53.3359ZM56.0026 45.333V45.833C57.1992 45.833 58.1693 46.803 58.1693 47.9996H58.6693H59.1693C59.1693 46.2507 57.7515 44.833 56.0026 44.833V45.333Z" fill="url(#paint1_linear_2981_132348)"/>
</g>
<defs>
<linearGradient id="paint0_linear_2981_132348" x1="21.8646" y1="8.67578" x2="21.8646" y2="61.8675" gradientUnits="userSpaceOnUse">
<stop stop-color="#8C4ACB"/>
<stop offset="1" stop-color="#4BA4AA"/>
</linearGradient>
<linearGradient id="paint1_linear_2981_132348" x1="32.0026" y1="5.47461" x2="32.0026" y2="58.6663" gradientUnits="userSpaceOnUse">
<stop stop-color="#8C4ACB"/>
<stop offset="1" stop-color="#4BA4AA"/>
</linearGradient>
</defs>
</svg>
