<svg width="64" height="65" viewBox="0 0 64 65" fill="none" xmlns="http://www.w3.org/2000/svg">
<g id="Integrate Install">
<g id="Vector" opacity="0.2">
<path d="M28.8907 37.1808C27.1679 36.4482 25.4384 36.4333 23.7021 37.1361C21.9657 37.8389 20.732 39.0533 20.0007 40.7791C19.2694 42.505 19.2546 44.2377 19.9561 45.9772C20.6576 47.7166 21.8697 48.9527 23.5925 49.6853C25.3152 50.4179 27.0447 50.4328 28.7811 49.73C30.5174 49.0272 31.7512 47.8128 32.4824 46.087C33.2137 44.3611 33.2286 42.6284 32.527 40.8889C31.8255 39.1494 30.6134 37.9134 28.8907 37.1808ZM30.6459 26.8591L35.1559 28.777C35.3184 28.8461 35.4527 28.9704 35.5588 29.1501C35.6649 29.3297 35.695 29.4962 35.6492 29.6497L34.6303 33.684C35.1233 34.105 35.6305 34.6282 36.152 35.2534C37.1666 35.0316 38.4116 34.6963 39.8868 34.2476C40.1139 34.2096 40.3005 34.2217 40.4468 34.2839C40.6418 34.3669 40.7721 34.4895 40.8376 34.6519C41.1665 35.2337 41.6092 36.2146 42.1657 37.5946C42.7223 38.9746 42.935 39.8192 42.8039 40.1286C42.728 40.3077 42.5987 40.4545 42.416 40.5689L39.0319 42.4445C39.0854 43.1783 39.0717 43.9122 38.9908 44.6464C40.6702 45.572 41.8504 46.2948 42.5315 46.815C42.8732 47.0949 42.9648 47.422 42.8061 47.7965L40.8814 52.3391C40.8055 52.5182 40.6756 52.6551 40.4916 52.7498C40.3076 52.8446 40.1309 52.8655 39.9615 52.8127L35.9936 51.7882C35.5965 52.2727 35.0859 52.7762 34.4617 53.2986L35.4103 57.1031C35.4758 57.2655 35.4637 57.4525 35.374 57.6641C35.2982 57.8432 35.1607 57.9866 34.9617 58.0941C31.8067 59.5195 30.0099 60.1389 29.571 59.9523C29.4248 59.8901 29.2945 59.7674 29.1803 59.5843C29.0217 59.3248 28.7325 58.8078 28.3125 58.0336C27.8925 57.2593 27.559 56.6659 27.3118 56.2533C26.438 56.3237 25.6509 56.3253 24.9506 56.258L22.7926 59.7215C22.7074 59.8774 22.5715 59.983 22.3851 60.0382C22.1986 60.0934 22.016 60.083 21.8373 60.007L17.3273 58.0891C17.1647 58.02 17.0304 57.8956 16.9243 57.716C16.8182 57.5364 16.7881 57.3698 16.8339 57.2164L17.8528 53.1821C17.3598 52.7611 16.8526 52.2379 16.3312 51.6127C15.3165 51.8345 14.0715 52.1698 12.5963 52.6185C12.3693 52.6565 12.1826 52.6443 12.0363 52.5821C11.8413 52.4992 11.7029 52.3731 11.6212 52.2038C11.2854 51.6383 10.845 50.6632 10.3 49.2785C9.75508 47.8939 9.54814 47.0468 9.67921 46.7375C9.7551 46.5584 9.88442 46.4116 10.0672 46.2972L13.4512 44.4216C13.3933 43.7436 13.3988 43.0062 13.4679 42.2093C11.7886 41.2838 10.6165 40.5644 9.95167 40.0511C9.6099 39.7712 9.51836 39.4441 9.67703 39.0696L11.6018 34.5269C11.6776 34.3478 11.8076 34.2109 11.9916 34.1162C12.1755 34.0215 12.3522 34.0006 12.5217 34.0534L16.4896 35.0778C16.8866 34.5934 17.3972 34.0899 18.0214 33.5675L17.0728 29.763C17.0142 29.5843 17.0263 29.3973 17.1091 29.2019C17.185 29.0228 17.3224 28.8795 17.5214 28.772C20.6764 27.3466 22.4733 26.7272 22.9121 26.9138C23.0421 26.9691 23.1723 27.0918 23.3028 27.2818C23.4801 27.5877 23.774 28.1162 24.1846 28.8673C24.5953 29.6184 24.9276 30.1921 25.1817 30.5884C26.1205 30.5456 26.9041 30.5522 27.5326 30.6081L29.6662 27.1342C29.7676 26.9852 29.9116 26.8831 30.098 26.8279C30.2845 26.7727 30.4671 26.7831 30.6459 26.8591Z" fill="url(#paint0_linear_3088_152932)"/>
<path d="M53.8896 20.393C53.8896 19.121 53.4396 18.035 52.5396 17.135C51.6396 16.235 50.5536 15.785 49.2816 15.785C48.0096 15.785 46.9236 16.235 46.0236 17.135C45.1236 18.035 44.6736 19.121 44.6736 20.393C44.6736 21.665 45.1236 22.751 46.0236 23.651C46.9236 24.551 48.0096 25.001 49.2816 25.001C50.5536 25.001 51.6396 24.551 52.5396 23.651C53.4396 22.751 53.8896 21.665 53.8896 20.393ZM60.8016 18.755V22.085C60.8016 22.205 60.7596 22.322 60.6756 22.436C60.5916 22.55 60.4956 22.613 60.3876 22.625L57.5976 23.057C57.4656 23.477 57.2736 23.933 57.0216 24.425C57.4296 25.001 57.9696 25.691 58.6416 26.495C58.7256 26.627 58.7676 26.747 58.7676 26.855C58.7676 26.999 58.7256 27.113 58.6416 27.1971C58.3656 27.557 57.8706 28.094 57.1566 28.808C56.4426 29.522 55.9716 29.879 55.7436 29.879C55.6116 29.879 55.4856 29.837 55.3656 29.753L53.2956 28.133C52.8516 28.361 52.3896 28.5471 51.9096 28.691C51.7776 29.987 51.6396 30.9171 51.4956 31.4811C51.4116 31.7691 51.2316 31.913 50.9556 31.913H47.6076C47.4756 31.913 47.3556 31.868 47.2476 31.778C47.1396 31.6881 47.0796 31.5831 47.0676 31.4631L46.6536 28.709C46.2456 28.589 45.7956 28.403 45.3036 28.1511L43.1796 29.753C43.0956 29.837 42.9756 29.879 42.8196 29.879C42.6876 29.879 42.5616 29.831 42.4416 29.735C40.7136 28.139 39.8496 27.179 39.8496 26.855C39.8496 26.747 39.8916 26.633 39.9756 26.5131C40.0956 26.345 40.3416 26.027 40.7136 25.559C41.0856 25.091 41.3676 24.725 41.5596 24.461C41.2836 23.933 41.0736 23.441 40.9296 22.985L38.1936 22.553C38.0736 22.541 37.9716 22.484 37.8876 22.382C37.8036 22.28 37.7616 22.163 37.7616 22.031V18.701C37.7616 18.581 37.8036 18.464 37.8876 18.35C37.9716 18.236 38.0676 18.173 38.1756 18.161L40.9656 17.729C41.0976 17.309 41.2896 16.853 41.5416 16.361C41.1336 15.785 40.5936 15.095 39.9216 14.291C39.8376 14.159 39.7956 14.039 39.7956 13.931C39.7956 13.787 39.8376 13.667 39.9216 13.571C40.1856 13.211 40.6776 12.677 41.3976 11.969C42.1176 11.261 42.5916 10.907 42.8196 10.907C42.9516 10.907 43.0776 10.949 43.1976 11.033L45.2676 12.653C45.6756 12.437 46.1376 12.245 46.6536 12.077C46.7856 10.781 46.9236 9.85705 47.0676 9.30505C47.1516 9.01705 47.3316 8.87305 47.6076 8.87305H50.9556C51.0876 8.87305 51.2076 8.91805 51.3156 9.00805C51.4236 9.09805 51.4836 9.20305 51.4956 9.32305L51.9096 12.077C52.3176 12.197 52.7676 12.383 53.2596 12.635L55.3836 11.033C55.4796 10.949 55.5996 10.907 55.7436 10.907C55.8756 10.907 56.0016 10.955 56.1216 11.051C57.8496 12.647 58.7136 13.607 58.7136 13.931C58.7136 14.027 58.6716 14.141 58.5876 14.273C58.4436 14.465 58.1916 14.789 57.8316 15.245C57.4716 15.701 57.2016 16.061 57.0216 16.325C57.2976 16.901 57.5016 17.393 57.6336 17.801L60.3696 18.215C60.4896 18.239 60.5916 18.302 60.6756 18.404C60.7596 18.506 60.8016 18.623 60.8016 18.755Z" fill="url(#paint1_linear_3088_152932)"/>
</g>
<g id="Vector_2">
<path d="M25.6875 35.5812C23.9648 34.8486 22.2353 34.8337 20.4989 35.5365C18.7626 36.2393 17.5288 37.4536 16.7976 39.1795C16.0663 40.9054 16.0514 42.6381 16.753 44.3776C17.4545 46.117 18.6666 47.3531 20.3893 48.0857C22.1121 48.8183 23.8416 48.8331 25.5779 48.1304C27.3143 47.4276 28.548 46.2132 29.2793 44.4873C30.0106 42.7615 30.0254 41.0288 29.3239 39.2893C28.6224 37.5498 27.4103 36.3138 25.6875 35.5812ZM27.4427 25.2595L31.9527 27.1774C32.1153 27.2465 32.2496 27.3708 32.3557 27.5505C32.4618 27.7301 32.4919 27.8966 32.4461 28.0501L31.4272 32.0844C31.9202 32.5054 32.4274 33.0285 32.9488 33.6538C33.9635 33.432 35.2085 33.0967 36.6837 32.648C36.9107 32.61 37.0974 32.6221 37.2437 32.6843C37.4387 32.7673 37.569 32.8899 37.6344 33.0523C37.9633 33.6341 38.4061 34.615 38.9626 35.995C39.5191 37.375 39.7319 38.2196 39.6008 38.529C39.5249 38.7081 39.3956 38.8549 39.2128 38.9693L35.8288 40.8449C35.8823 41.5786 35.8686 42.3126 35.7877 43.0468C37.467 43.9723 38.6473 44.6952 39.3283 45.2154C39.6701 45.4953 39.7616 45.8224 39.603 46.1969L37.6782 50.7395C37.6024 50.9186 37.4724 51.0555 37.2884 51.1502C37.1045 51.2449 36.9278 51.2659 36.7583 51.213L32.7904 50.1886C32.3934 50.6731 31.8828 51.1766 31.2586 51.699L32.2072 55.5035C32.2727 55.6659 32.2606 55.8529 32.1709 56.0645C32.095 56.2436 31.9576 56.387 31.7586 56.4945C28.6036 57.9199 26.8067 58.5393 26.3679 58.3527C26.2216 58.2905 26.0914 58.1678 25.9772 57.9847C25.8186 57.7252 25.5294 57.2082 25.1094 56.434C24.6894 55.6597 24.3558 55.0663 24.1087 54.6537C23.2349 54.7241 22.4478 54.7257 21.7474 54.6584L19.5895 58.1219C19.5042 58.2778 19.3684 58.3834 19.182 58.4386C18.9955 58.4938 18.8129 58.4834 18.6341 58.4074L14.1241 56.4895C13.9616 56.4204 13.8273 56.296 13.7212 56.1164C13.6151 55.9368 13.585 55.7702 13.6308 55.6168L14.6497 51.5825C14.1567 51.1615 13.6495 50.6383 13.128 50.013C12.1134 50.2349 10.8684 50.5702 9.39319 51.0189C9.16613 51.0569 8.97946 51.0447 8.83319 50.9825C8.63816 50.8996 8.49979 50.7735 8.41806 50.6042C8.08226 50.0387 7.64188 49.0636 7.09692 47.6789C6.55196 46.2942 6.34501 45.4472 6.47609 45.1379C6.55197 44.9588 6.68129 44.812 6.86404 44.6976L10.2481 42.822C10.1901 42.144 10.1957 41.4066 10.2648 40.6097C8.58545 39.6842 7.41336 38.9648 6.74854 38.4515C6.40678 38.1716 6.31523 37.8445 6.4739 37.47L8.39863 32.9273C8.47452 32.7482 8.60445 32.6113 8.78843 32.5166C8.97241 32.4219 9.14911 32.401 9.31853 32.4538L13.2864 33.4782C13.6835 32.9938 14.1941 32.4903 14.8183 31.9679L13.8696 28.1634C13.8111 27.9847 13.8232 27.7977 13.906 27.6023C13.9818 27.4232 14.1193 27.2799 14.3183 27.1724C17.4733 25.747 19.2701 25.1276 19.709 25.3142C19.839 25.3695 19.9692 25.4921 20.0997 25.6821C20.277 25.9881 20.5709 26.5166 20.9815 27.2677C21.3921 28.0188 21.7245 28.5925 21.9786 28.9887C22.9173 28.946 23.701 28.9526 24.3294 29.0085L26.463 25.5346C26.5645 25.3856 26.7085 25.2835 26.8949 25.2283C27.0814 25.1731 27.264 25.1835 27.4427 25.2595Z" stroke="url(#paint2_linear_3088_152932)" stroke-miterlimit="16" stroke-linejoin="round"/>
<path d="M50.6864 18.7934C50.6864 17.5214 50.2364 16.4354 49.3364 15.5354C48.4364 14.6354 47.3504 14.1854 46.0784 14.1854C44.8064 14.1854 43.7204 14.6354 42.8204 15.5354C41.9204 16.4354 41.4704 17.5214 41.4704 18.7934C41.4704 20.0654 41.9204 21.1514 42.8204 22.0514C43.7204 22.9514 44.8064 23.4014 46.0784 23.4014C47.3504 23.4014 48.4364 22.9514 49.3364 22.0514C50.2364 21.1514 50.6864 20.0654 50.6864 18.7934ZM57.5984 17.1554V20.4854C57.5984 20.6054 57.5564 20.7224 57.4724 20.8364C57.3884 20.9504 57.2924 21.0134 57.1844 21.0254L54.3944 21.4574C54.2624 21.8774 54.0704 22.3334 53.8184 22.8254C54.2264 23.4014 54.7664 24.0914 55.4384 24.8954C55.5224 25.0274 55.5644 25.1474 55.5644 25.2554C55.5644 25.3994 55.5224 25.5134 55.4384 25.5974C55.1624 25.9574 54.6674 26.4944 53.9534 27.2084C53.2394 27.9224 52.7684 28.2794 52.5404 28.2794C52.4084 28.2794 52.2824 28.2374 52.1624 28.1534L50.0924 26.5334C49.6484 26.7614 49.1864 26.9474 48.7064 27.0914C48.5744 28.3874 48.4364 29.3174 48.2924 29.8814C48.2084 30.1694 48.0284 30.3134 47.7524 30.3134H44.4044C44.2724 30.3134 44.1524 30.2684 44.0444 30.1784C43.9364 30.0884 43.8764 29.9834 43.8644 29.8634L43.4504 27.1094C43.0424 26.9894 42.5924 26.8034 42.1004 26.5514L39.9764 28.1534C39.8924 28.2374 39.7724 28.2794 39.6164 28.2794C39.4844 28.2794 39.3584 28.2314 39.2384 28.1354C37.5104 26.5394 36.6464 25.5794 36.6464 25.2554C36.6464 25.1474 36.6884 25.0334 36.7724 24.9134C36.8924 24.7454 37.1384 24.4274 37.5104 23.9594C37.8824 23.4914 38.1644 23.1254 38.3564 22.8614C38.0804 22.3334 37.8704 21.8414 37.7264 21.3854L34.9904 20.9534C34.8704 20.9414 34.7684 20.8844 34.6844 20.7824C34.6004 20.6804 34.5584 20.5634 34.5584 20.4314V17.1014C34.5584 16.9814 34.6004 16.8644 34.6844 16.7504C34.7684 16.6364 34.8644 16.5734 34.9724 16.5614L37.7624 16.1294C37.8944 15.7094 38.0864 15.2534 38.3384 14.7614C37.9304 14.1854 37.3904 13.4954 36.7184 12.6914C36.6344 12.5594 36.5924 12.4394 36.5924 12.3314C36.5924 12.1874 36.6344 12.0674 36.7184 11.9714C36.9824 11.6114 37.4744 11.0774 38.1944 10.3694C38.9144 9.66144 39.3884 9.30744 39.6164 9.30744C39.7484 9.30744 39.8744 9.34944 39.9944 9.43344L42.0644 11.0534C42.4724 10.8374 42.9344 10.6454 43.4504 10.4774C43.5824 9.18144 43.7204 8.25744 43.8644 7.70544C43.9484 7.41744 44.1284 7.27344 44.4044 7.27344H47.7524C47.8844 7.27344 48.0044 7.31844 48.1124 7.40844C48.2204 7.49844 48.2804 7.60344 48.2924 7.72344L48.7064 10.4774C49.1144 10.5974 49.5644 10.7834 50.0564 11.0354L52.1804 9.43344C52.2764 9.34944 52.3964 9.30744 52.5404 9.30744C52.6724 9.30744 52.7984 9.35544 52.9184 9.45144C54.6464 11.0474 55.5104 12.0074 55.5104 12.3314C55.5104 12.4274 55.4684 12.5414 55.3844 12.6734C55.2404 12.8654 54.9884 13.1894 54.6284 13.6454C54.2684 14.1014 53.9984 14.4614 53.8184 14.7254C54.0944 15.3014 54.2984 15.7934 54.4304 16.2014L57.1664 16.6154C57.2864 16.6394 57.3884 16.7024 57.4724 16.8044C57.5564 16.9064 57.5984 17.0234 57.5984 17.1554Z" stroke="url(#paint3_linear_3088_152932)" stroke-miterlimit="16" stroke-linejoin="round"/>
</g>
</g>
<defs>
<linearGradient id="paint0_linear_3088_152932" x1="35.2016" y1="8.87305" x2="35.2016" y2="60.073" gradientUnits="userSpaceOnUse">
<stop stop-color="#8C4ACB"/>
<stop offset="1" stop-color="#4BA4AA"/>
</linearGradient>
<linearGradient id="paint1_linear_3088_152932" x1="35.2016" y1="8.87305" x2="35.2016" y2="60.073" gradientUnits="userSpaceOnUse">
<stop stop-color="#8C4ACB"/>
<stop offset="1" stop-color="#4BA4AA"/>
</linearGradient>
<linearGradient id="paint2_linear_3088_152932" x1="31.9984" y1="7.27344" x2="31.9984" y2="58.4734" gradientUnits="userSpaceOnUse">
<stop stop-color="#8C4ACB"/>
<stop offset="1" stop-color="#4BA4AA"/>
</linearGradient>
<linearGradient id="paint3_linear_3088_152932" x1="31.9984" y1="7.27344" x2="31.9984" y2="58.4734" gradientUnits="userSpaceOnUse">
<stop stop-color="#8C4ACB"/>
<stop offset="1" stop-color="#4BA4AA"/>
</linearGradient>
</defs>
</svg>
