<svg width="64" height="65" viewBox="0 0 64 65" fill="none" xmlns="http://www.w3.org/2000/svg">
<g id="Knowledge Transition">
<path id="Vector" opacity="0.2" d="M9.56245 49.726L9.59996 16.1615C9.59996 14.6528 10.2167 13.2058 11.3146 12.1389C12.4124 11.072 13.9014 10.4727 15.454 10.4727L55.8463 10.4727C56.312 10.4727 56.7587 10.6525 57.0881 10.9726C57.4174 11.2927 57.6025 11.7268 57.6025 12.1794V48.9126M15.454 49.726L57.6025 49.7261L15.454 49.726Z" fill="url(#paint0_linear_3088_152983)"/>
<path id="Vector_2" d="M6.39844 52.7846C6.39844 37.233 6.39844 12.9623 6.39844 12.9623C6.39844 11.4535 7.01516 10.0065 8.11295 8.93967C9.21073 7.8728 10.6996 7.27344 12.2521 7.27344L52.6423 7.27351C53.1081 7.27351 53.5548 7.45332 53.8841 7.77338C54.2134 8.09344 54.3984 8.52754 54.3984 8.98017V45.7133M6.39844 52.7846C6.39844 46.5268 12.2521 46.5268 12.2521 46.5268L54.3984 46.5268M6.39844 52.7846C6.39844 58.4734 12.2521 58.4734 12.2521 58.4734L54.3984 58.4735M23.257 18.6514H41.9889" stroke="url(#paint1_linear_3088_152983)" stroke-linecap="round"/>
</g>
<defs>
<linearGradient id="paint0_linear_3088_152983" x1="33.5825" y1="10.4727" x2="33.5825" y2="49.7261" gradientUnits="userSpaceOnUse">
<stop stop-color="#8C4ACB"/>
<stop offset="1" stop-color="#4BA4AA"/>
</linearGradient>
<linearGradient id="paint1_linear_3088_152983" x1="30.3984" y1="7.27344" x2="30.3984" y2="58.4735" gradientUnits="userSpaceOnUse">
<stop stop-color="#8C4ACB"/>
<stop offset="1" stop-color="#4BA4AA"/>
</linearGradient>
</defs>
</svg>
