<svg width="50" height="45" viewBox="0 0 50 45" fill="none" xmlns="http://www.w3.org/2000/svg">
<path d="M44.9794 7.14893C44.9381 7.087 44.8916 7.04054 44.84 6.99409C41.6503 3.25216 36.9071 0.872803 31.6168 0.872803C26.3265 0.872803 21.5832 3.25216 18.3935 6.99409C18.3419 7.04054 18.2903 7.09216 18.249 7.14893C18.249 7.15409 18.2439 7.15925 18.2387 7.16958C15.7406 10.1786 14.2335 14.0444 14.2335 18.256C14.2335 19.5102 14.3677 20.7334 14.6258 21.9102C11.0181 21.2805 6.05806 21.1154 1.43355 23.3657C1.16516 23.4947 1 23.7631 1 24.0625V43.6444C1 43.9128 1.13935 44.1605 1.36129 44.2999C1.48516 44.3773 1.62968 44.4186 1.77419 44.4186C1.88774 44.4186 2.00645 44.3928 2.11484 44.3412C9.91871 40.5476 19.1574 44.3205 19.2503 44.3567C19.2658 44.3618 19.2813 44.3618 19.2968 44.367C19.3226 44.3773 19.3484 44.3825 19.3742 44.3876C19.4155 44.398 19.4619 44.4031 19.5032 44.4083C19.5187 44.4083 19.5342 44.4134 19.5497 44.4134C19.5652 44.4134 19.5806 44.4134 19.5961 44.4134C19.6168 44.4134 19.6374 44.4134 19.6581 44.4083C19.6994 44.4031 19.7355 44.3928 19.7768 44.3825C19.7923 44.3773 19.8129 44.3722 19.8284 44.367C19.8387 44.367 19.8439 44.367 19.8542 44.3567C19.9471 44.3154 29.1703 40.5373 36.9897 44.3412C37.2271 44.4599 37.511 44.4444 37.7381 44.2999C37.9652 44.1605 38.0994 43.9128 38.0994 43.6444V34.3747C40.7264 33.3167 43.0335 31.6341 44.84 29.518C44.8968 29.4715 44.9432 29.4199 44.9845 29.358C44.9845 29.3528 44.9897 29.3476 44.9948 29.3373C47.4929 26.3283 49 22.4625 49 18.2509C49 14.0393 47.4929 10.1786 44.9948 7.16442C44.9948 7.15925 44.9897 7.15409 44.9845 7.14377L44.9794 7.14893ZM43.1264 7.40183C42.5587 7.727 41.9548 8.02635 41.3097 8.29474C40.489 6.57603 39.4619 5.08442 38.28 3.89732C40.1123 4.75409 41.7535 5.94635 43.1264 7.40183ZM32.3858 2.46764C35.4516 2.81861 38.151 5.24442 39.88 8.83151C37.6348 9.5799 35.0645 10.0134 32.3858 10.0805V2.46764ZM32.3858 11.6341C35.2761 11.5618 38.0581 11.087 40.4942 10.2612C41.3097 12.398 41.8103 14.8547 41.8929 17.4767H32.3858V11.6341ZM30.8374 2.46764V10.0857C28.1535 10.0134 25.5884 9.5799 23.3432 8.83667C25.0774 5.24958 27.7716 2.82377 30.8374 2.4728V2.46764ZM21.3303 17.4767C21.4129 14.8547 21.9135 12.398 22.729 10.2612C25.1652 11.087 27.9471 11.5618 30.8374 11.6341V17.4767H21.3303ZM30.8374 19.0251V21.5696C27.1832 21.2805 23.849 21.9309 21.7019 22.5296C21.4955 21.4044 21.3665 20.2328 21.3303 19.0251H30.8374ZM24.9432 3.89732C23.7613 5.08442 22.7342 6.57603 21.9135 8.29474C21.2735 8.02635 20.6645 7.727 20.0968 7.40183C21.4697 5.94635 23.111 4.75409 24.9432 3.89732ZM19.0748 8.59925C19.7613 9.007 20.5097 9.37861 21.2994 9.71409C20.4065 12.0264 19.8645 14.6638 19.7819 17.4767H15.8026C15.9626 14.1476 17.16 11.0818 19.0748 8.60441V8.59925ZM18.7703 42.5296C17.1497 41.9825 13.8723 41.0741 10.0581 41.0741C7.67355 41.0741 5.07742 41.4302 2.54323 42.447V24.5528C9.23226 21.5593 16.8194 23.8973 18.7703 24.5941V42.5347V42.5296ZM19.5445 23.2264C19.0232 23.0251 17.8671 22.6173 16.2981 22.2509C16.0245 21.2134 15.8594 20.1347 15.8026 19.0251H19.7819C19.8232 20.3928 19.9729 21.7141 20.2206 22.9838C19.9368 23.0818 19.7097 23.1644 19.5445 23.2264ZM36.5458 42.4522C29.9497 39.7993 22.9561 41.647 20.3187 42.5347V24.5941C22.2697 23.8973 29.8568 21.5541 36.5458 24.5528V42.4522ZM37.6606 23.3605C35.9213 22.5141 34.1355 22.0134 32.391 21.7451V19.0199H41.8981C41.8155 21.6418 41.3148 24.0986 40.4994 26.2354C39.7303 25.9773 38.9252 25.7502 38.0942 25.5593V24.0522C38.0942 23.758 37.9239 23.4844 37.6606 23.3554V23.3605ZM38.0942 27.1541C38.7084 27.3038 39.3123 27.4741 39.8903 27.6651C39.3742 28.7386 38.7703 29.7038 38.0942 30.5451V27.1593V27.1541ZM38.2903 32.5993C39.4723 31.4122 40.4994 29.9205 41.32 28.2018C41.96 28.4702 42.569 28.7696 43.1368 29.0947C41.7639 30.5502 40.1226 31.7425 38.2903 32.5993ZM44.1587 27.8973C43.4723 27.4896 42.7239 27.118 41.9342 26.7825C42.8271 24.4702 43.369 21.8328 43.4516 19.0251H47.431C47.271 22.3541 46.0735 25.4199 44.1587 27.8973ZM43.4516 17.4767C43.369 14.6638 42.8271 12.0264 41.9342 9.71409C42.7239 9.38377 43.4723 9.01216 44.1587 8.59925C46.0735 11.0818 47.271 14.1425 47.431 17.4715H43.4516V17.4767Z" fill="#EAEAEA"/>
<path d="M44.9794 7.14893C44.9381 7.087 44.8916 7.04054 44.84 6.99409C41.6503 3.25216 36.9071 0.872803 31.6168 0.872803C26.3265 0.872803 21.5832 3.25216 18.3935 6.99409C18.3419 7.04054 18.2903 7.09216 18.249 7.14893C18.249 7.15409 18.2439 7.15925 18.2387 7.16958C15.7406 10.1786 14.2335 14.0444 14.2335 18.256C14.2335 19.5102 14.3677 20.7334 14.6258 21.9102C11.0181 21.2805 6.05806 21.1154 1.43355 23.3657C1.16516 23.4947 1 23.7631 1 24.0625V43.6444C1 43.9128 1.13935 44.1605 1.36129 44.2999C1.48516 44.3773 1.62968 44.4186 1.77419 44.4186C1.88774 44.4186 2.00645 44.3928 2.11484 44.3412C9.91871 40.5476 19.1574 44.3205 19.2503 44.3567C19.2658 44.3618 19.2813 44.3618 19.2968 44.367C19.3226 44.3773 19.3484 44.3825 19.3742 44.3876C19.4155 44.398 19.4619 44.4031 19.5032 44.4083C19.5187 44.4083 19.5342 44.4134 19.5497 44.4134C19.5652 44.4134 19.5806 44.4134 19.5961 44.4134C19.6168 44.4134 19.6374 44.4134 19.6581 44.4083C19.6994 44.4031 19.7355 44.3928 19.7768 44.3825C19.7923 44.3773 19.8129 44.3722 19.8284 44.367C19.8387 44.367 19.8439 44.367 19.8542 44.3567C19.9471 44.3154 29.1703 40.5373 36.9897 44.3412C37.2271 44.4599 37.511 44.4444 37.7381 44.2999C37.9652 44.1605 38.0994 43.9128 38.0994 43.6444V34.3747C40.7264 33.3167 43.0335 31.6341 44.84 29.518C44.8968 29.4715 44.9432 29.4199 44.9845 29.358C44.9845 29.3528 44.9897 29.3476 44.9948 29.3373C47.4929 26.3283 49 22.4625 49 18.2509C49 14.0393 47.4929 10.1786 44.9948 7.16442C44.9948 7.15925 44.9897 7.15409 44.9845 7.14377L44.9794 7.14893ZM43.1264 7.40183C42.5587 7.727 41.9548 8.02635 41.3097 8.29474C40.489 6.57603 39.4619 5.08442 38.28 3.89732C40.1123 4.75409 41.7535 5.94635 43.1264 7.40183ZM32.3858 2.46764C35.4516 2.81861 38.151 5.24442 39.88 8.83151C37.6348 9.5799 35.0645 10.0134 32.3858 10.0805V2.46764ZM32.3858 11.6341C35.2761 11.5618 38.0581 11.087 40.4942 10.2612C41.3097 12.398 41.8103 14.8547 41.8929 17.4767H32.3858V11.6341ZM30.8374 2.46764V10.0857C28.1535 10.0134 25.5884 9.5799 23.3432 8.83667C25.0774 5.24958 27.7716 2.82377 30.8374 2.4728V2.46764ZM21.3303 17.4767C21.4129 14.8547 21.9135 12.398 22.729 10.2612C25.1652 11.087 27.9471 11.5618 30.8374 11.6341V17.4767H21.3303ZM30.8374 19.0251V21.5696C27.1832 21.2805 23.849 21.9309 21.7019 22.5296C21.4955 21.4044 21.3665 20.2328 21.3303 19.0251H30.8374ZM24.9432 3.89732C23.7613 5.08442 22.7342 6.57603 21.9135 8.29474C21.2735 8.02635 20.6645 7.727 20.0968 7.40183C21.4697 5.94635 23.111 4.75409 24.9432 3.89732ZM19.0748 8.59925C19.7613 9.007 20.5097 9.37861 21.2994 9.71409C20.4065 12.0264 19.8645 14.6638 19.7819 17.4767H15.8026C15.9626 14.1476 17.16 11.0818 19.0748 8.60441V8.59925ZM18.7703 42.5296C17.1497 41.9825 13.8723 41.0741 10.0581 41.0741C7.67355 41.0741 5.07742 41.4302 2.54323 42.447V24.5528C9.23226 21.5593 16.8194 23.8973 18.7703 24.5941V42.5347V42.5296ZM19.5445 23.2264C19.0232 23.0251 17.8671 22.6173 16.2981 22.2509C16.0245 21.2134 15.8594 20.1347 15.8026 19.0251H19.7819C19.8232 20.3928 19.9729 21.7141 20.2206 22.9838C19.9368 23.0818 19.7097 23.1644 19.5445 23.2264ZM36.5458 42.4522C29.9497 39.7993 22.9561 41.647 20.3187 42.5347V24.5941C22.2697 23.8973 29.8568 21.5541 36.5458 24.5528V42.4522ZM37.6606 23.3605C35.9213 22.5141 34.1355 22.0134 32.391 21.7451V19.0199H41.8981C41.8155 21.6418 41.3148 24.0986 40.4994 26.2354C39.7303 25.9773 38.9252 25.7502 38.0942 25.5593V24.0522C38.0942 23.758 37.9239 23.4844 37.6606 23.3554V23.3605ZM38.0942 27.1541C38.7084 27.3038 39.3123 27.4741 39.8903 27.6651C39.3742 28.7386 38.7703 29.7038 38.0942 30.5451V27.1593V27.1541ZM38.2903 32.5993C39.4723 31.4122 40.4994 29.9205 41.32 28.2018C41.96 28.4702 42.569 28.7696 43.1368 29.0947C41.7639 30.5502 40.1226 31.7425 38.2903 32.5993ZM44.1587 27.8973C43.4723 27.4896 42.7239 27.118 41.9342 26.7825C42.8271 24.4702 43.369 21.8328 43.4516 19.0251H47.431C47.271 22.3541 46.0735 25.4199 44.1587 27.8973ZM43.4516 17.4767C43.369 14.6638 42.8271 12.0264 41.9342 9.71409C42.7239 9.38377 43.4723 9.01216 44.1587 8.59925C46.0735 11.0818 47.271 14.1425 47.431 17.4715H43.4516V17.4767Z" fill="url(#paint0_linear_1303_392)"/>
<path d="M44.9794 7.14893C44.9381 7.087 44.8916 7.04054 44.84 6.99409C41.6503 3.25216 36.9071 0.872803 31.6168 0.872803C26.3265 0.872803 21.5832 3.25216 18.3935 6.99409C18.3419 7.04054 18.2903 7.09216 18.249 7.14893C18.249 7.15409 18.2439 7.15925 18.2387 7.16958C15.7406 10.1786 14.2335 14.0444 14.2335 18.256C14.2335 19.5102 14.3677 20.7334 14.6258 21.9102C11.0181 21.2805 6.05806 21.1154 1.43355 23.3657C1.16516 23.4947 1 23.7631 1 24.0625V43.6444C1 43.9128 1.13935 44.1605 1.36129 44.2999C1.48516 44.3773 1.62968 44.4186 1.77419 44.4186C1.88774 44.4186 2.00645 44.3928 2.11484 44.3412C9.91871 40.5476 19.1574 44.3205 19.2503 44.3567C19.2658 44.3618 19.2813 44.3618 19.2968 44.367C19.3226 44.3773 19.3484 44.3825 19.3742 44.3876C19.4155 44.398 19.4619 44.4031 19.5032 44.4083C19.5187 44.4083 19.5342 44.4134 19.5497 44.4134C19.5652 44.4134 19.5806 44.4134 19.5961 44.4134C19.6168 44.4134 19.6374 44.4134 19.6581 44.4083C19.6994 44.4031 19.7355 44.3928 19.7768 44.3825C19.7923 44.3773 19.8129 44.3722 19.8284 44.367C19.8387 44.367 19.8439 44.367 19.8542 44.3567C19.9471 44.3154 29.1703 40.5373 36.9897 44.3412C37.2271 44.4599 37.511 44.4444 37.7381 44.2999C37.9652 44.1605 38.0994 43.9128 38.0994 43.6444V34.3747C40.7264 33.3167 43.0335 31.6341 44.84 29.518C44.8968 29.4715 44.9432 29.4199 44.9845 29.358C44.9845 29.3528 44.9897 29.3476 44.9948 29.3373C47.4929 26.3283 49 22.4625 49 18.2509C49 14.0393 47.4929 10.1786 44.9948 7.16442C44.9948 7.15925 44.9897 7.15409 44.9845 7.14377L44.9794 7.14893ZM43.1264 7.40183C42.5587 7.727 41.9548 8.02635 41.3097 8.29474C40.489 6.57603 39.4619 5.08442 38.28 3.89732C40.1123 4.75409 41.7535 5.94635 43.1264 7.40183ZM32.3858 2.46764C35.4516 2.81861 38.151 5.24442 39.88 8.83151C37.6348 9.5799 35.0645 10.0134 32.3858 10.0805V2.46764ZM32.3858 11.6341C35.2761 11.5618 38.0581 11.087 40.4942 10.2612C41.3097 12.398 41.8103 14.8547 41.8929 17.4767H32.3858V11.6341ZM30.8374 2.46764V10.0857C28.1535 10.0134 25.5884 9.5799 23.3432 8.83667C25.0774 5.24958 27.7716 2.82377 30.8374 2.4728V2.46764ZM21.3303 17.4767C21.4129 14.8547 21.9135 12.398 22.729 10.2612C25.1652 11.087 27.9471 11.5618 30.8374 11.6341V17.4767H21.3303ZM30.8374 19.0251V21.5696C27.1832 21.2805 23.849 21.9309 21.7019 22.5296C21.4955 21.4044 21.3665 20.2328 21.3303 19.0251H30.8374ZM24.9432 3.89732C23.7613 5.08442 22.7342 6.57603 21.9135 8.29474C21.2735 8.02635 20.6645 7.727 20.0968 7.40183C21.4697 5.94635 23.111 4.75409 24.9432 3.89732ZM19.0748 8.59925C19.7613 9.007 20.5097 9.37861 21.2994 9.71409C20.4065 12.0264 19.8645 14.6638 19.7819 17.4767H15.8026C15.9626 14.1476 17.16 11.0818 19.0748 8.60441V8.59925ZM18.7703 42.5296C17.1497 41.9825 13.8723 41.0741 10.0581 41.0741C7.67355 41.0741 5.07742 41.4302 2.54323 42.447V24.5528C9.23226 21.5593 16.8194 23.8973 18.7703 24.5941V42.5347V42.5296ZM19.5445 23.2264C19.0232 23.0251 17.8671 22.6173 16.2981 22.2509C16.0245 21.2134 15.8594 20.1347 15.8026 19.0251H19.7819C19.8232 20.3928 19.9729 21.7141 20.2206 22.9838C19.9368 23.0818 19.7097 23.1644 19.5445 23.2264ZM36.5458 42.4522C29.9497 39.7993 22.9561 41.647 20.3187 42.5347V24.5941C22.2697 23.8973 29.8568 21.5541 36.5458 24.5528V42.4522ZM37.6606 23.3605C35.9213 22.5141 34.1355 22.0134 32.391 21.7451V19.0199H41.8981C41.8155 21.6418 41.3148 24.0986 40.4994 26.2354C39.7303 25.9773 38.9252 25.7502 38.0942 25.5593V24.0522C38.0942 23.758 37.9239 23.4844 37.6606 23.3554V23.3605ZM38.0942 27.1541C38.7084 27.3038 39.3123 27.4741 39.8903 27.6651C39.3742 28.7386 38.7703 29.7038 38.0942 30.5451V27.1593V27.1541ZM38.2903 32.5993C39.4723 31.4122 40.4994 29.9205 41.32 28.2018C41.96 28.4702 42.569 28.7696 43.1368 29.0947C41.7639 30.5502 40.1226 31.7425 38.2903 32.5993ZM44.1587 27.8973C43.4723 27.4896 42.7239 27.118 41.9342 26.7825C42.8271 24.4702 43.369 21.8328 43.4516 19.0251H47.431C47.271 22.3541 46.0735 25.4199 44.1587 27.8973ZM43.4516 17.4767C43.369 14.6638 42.8271 12.0264 41.9342 9.71409C42.7239 9.38377 43.4723 9.01216 44.1587 8.59925C46.0735 11.0818 47.271 14.1425 47.431 17.4715H43.4516V17.4767Z" stroke="#EAEAEA" stroke-width="0.4"/>
<path d="M44.9794 7.14893C44.9381 7.087 44.8916 7.04054 44.84 6.99409C41.6503 3.25216 36.9071 0.872803 31.6168 0.872803C26.3265 0.872803 21.5832 3.25216 18.3935 6.99409C18.3419 7.04054 18.2903 7.09216 18.249 7.14893C18.249 7.15409 18.2439 7.15925 18.2387 7.16958C15.7406 10.1786 14.2335 14.0444 14.2335 18.256C14.2335 19.5102 14.3677 20.7334 14.6258 21.9102C11.0181 21.2805 6.05806 21.1154 1.43355 23.3657C1.16516 23.4947 1 23.7631 1 24.0625V43.6444C1 43.9128 1.13935 44.1605 1.36129 44.2999C1.48516 44.3773 1.62968 44.4186 1.77419 44.4186C1.88774 44.4186 2.00645 44.3928 2.11484 44.3412C9.91871 40.5476 19.1574 44.3205 19.2503 44.3567C19.2658 44.3618 19.2813 44.3618 19.2968 44.367C19.3226 44.3773 19.3484 44.3825 19.3742 44.3876C19.4155 44.398 19.4619 44.4031 19.5032 44.4083C19.5187 44.4083 19.5342 44.4134 19.5497 44.4134C19.5652 44.4134 19.5806 44.4134 19.5961 44.4134C19.6168 44.4134 19.6374 44.4134 19.6581 44.4083C19.6994 44.4031 19.7355 44.3928 19.7768 44.3825C19.7923 44.3773 19.8129 44.3722 19.8284 44.367C19.8387 44.367 19.8439 44.367 19.8542 44.3567C19.9471 44.3154 29.1703 40.5373 36.9897 44.3412C37.2271 44.4599 37.511 44.4444 37.7381 44.2999C37.9652 44.1605 38.0994 43.9128 38.0994 43.6444V34.3747C40.7264 33.3167 43.0335 31.6341 44.84 29.518C44.8968 29.4715 44.9432 29.4199 44.9845 29.358C44.9845 29.3528 44.9897 29.3476 44.9948 29.3373C47.4929 26.3283 49 22.4625 49 18.2509C49 14.0393 47.4929 10.1786 44.9948 7.16442C44.9948 7.15925 44.9897 7.15409 44.9845 7.14377L44.9794 7.14893ZM43.1264 7.40183C42.5587 7.727 41.9548 8.02635 41.3097 8.29474C40.489 6.57603 39.4619 5.08442 38.28 3.89732C40.1123 4.75409 41.7535 5.94635 43.1264 7.40183ZM32.3858 2.46764C35.4516 2.81861 38.151 5.24442 39.88 8.83151C37.6348 9.5799 35.0645 10.0134 32.3858 10.0805V2.46764ZM32.3858 11.6341C35.2761 11.5618 38.0581 11.087 40.4942 10.2612C41.3097 12.398 41.8103 14.8547 41.8929 17.4767H32.3858V11.6341ZM30.8374 2.46764V10.0857C28.1535 10.0134 25.5884 9.5799 23.3432 8.83667C25.0774 5.24958 27.7716 2.82377 30.8374 2.4728V2.46764ZM21.3303 17.4767C21.4129 14.8547 21.9135 12.398 22.729 10.2612C25.1652 11.087 27.9471 11.5618 30.8374 11.6341V17.4767H21.3303ZM30.8374 19.0251V21.5696C27.1832 21.2805 23.849 21.9309 21.7019 22.5296C21.4955 21.4044 21.3665 20.2328 21.3303 19.0251H30.8374ZM24.9432 3.89732C23.7613 5.08442 22.7342 6.57603 21.9135 8.29474C21.2735 8.02635 20.6645 7.727 20.0968 7.40183C21.4697 5.94635 23.111 4.75409 24.9432 3.89732ZM19.0748 8.59925C19.7613 9.007 20.5097 9.37861 21.2994 9.71409C20.4065 12.0264 19.8645 14.6638 19.7819 17.4767H15.8026C15.9626 14.1476 17.16 11.0818 19.0748 8.60441V8.59925ZM18.7703 42.5296C17.1497 41.9825 13.8723 41.0741 10.0581 41.0741C7.67355 41.0741 5.07742 41.4302 2.54323 42.447V24.5528C9.23226 21.5593 16.8194 23.8973 18.7703 24.5941V42.5347V42.5296ZM19.5445 23.2264C19.0232 23.0251 17.8671 22.6173 16.2981 22.2509C16.0245 21.2134 15.8594 20.1347 15.8026 19.0251H19.7819C19.8232 20.3928 19.9729 21.7141 20.2206 22.9838C19.9368 23.0818 19.7097 23.1644 19.5445 23.2264ZM36.5458 42.4522C29.9497 39.7993 22.9561 41.647 20.3187 42.5347V24.5941C22.2697 23.8973 29.8568 21.5541 36.5458 24.5528V42.4522ZM37.6606 23.3605C35.9213 22.5141 34.1355 22.0134 32.391 21.7451V19.0199H41.8981C41.8155 21.6418 41.3148 24.0986 40.4994 26.2354C39.7303 25.9773 38.9252 25.7502 38.0942 25.5593V24.0522C38.0942 23.758 37.9239 23.4844 37.6606 23.3554V23.3605ZM38.0942 27.1541C38.7084 27.3038 39.3123 27.4741 39.8903 27.6651C39.3742 28.7386 38.7703 29.7038 38.0942 30.5451V27.1593V27.1541ZM38.2903 32.5993C39.4723 31.4122 40.4994 29.9205 41.32 28.2018C41.96 28.4702 42.569 28.7696 43.1368 29.0947C41.7639 30.5502 40.1226 31.7425 38.2903 32.5993ZM44.1587 27.8973C43.4723 27.4896 42.7239 27.118 41.9342 26.7825C42.8271 24.4702 43.369 21.8328 43.4516 19.0251H47.431C47.271 22.3541 46.0735 25.4199 44.1587 27.8973ZM43.4516 17.4767C43.369 14.6638 42.8271 12.0264 41.9342 9.71409C42.7239 9.38377 43.4723 9.01216 44.1587 8.59925C46.0735 11.0818 47.271 14.1425 47.431 17.4715H43.4516V17.4767Z" stroke="url(#paint1_linear_1303_392)" stroke-width="0.4"/>
<defs>
<linearGradient id="paint0_linear_1303_392" x1="1" y1="0.872803" x2="65.5698" y2="10.7038" gradientUnits="userSpaceOnUse">
<stop stop-color="#9342CE"/>
<stop offset="0.514675" stop-color="#6284B6"/>
<stop offset="1" stop-color="#35C29F"/>
</linearGradient>
<linearGradient id="paint1_linear_1303_392" x1="1" y1="0.872803" x2="65.5698" y2="10.7038" gradientUnits="userSpaceOnUse">
<stop stop-color="#9342CE"/>
<stop offset="0.514675" stop-color="#6284B6"/>
<stop offset="1" stop-color="#35C29F"/>
</linearGradient>
</defs>
</svg>
