<svg width="49" height="46" viewBox="0 0 49 46" fill="none" xmlns="http://www.w3.org/2000/svg">
<path fill-rule="evenodd" clip-rule="evenodd" d="M21.4398 17.4169C19.9809 17.3316 18.5381 17.7627 17.3572 18.6367C16.1763 19.5107 15.3303 20.7735 14.9636 22.2098C14.5968 23.6462 14.7319 25.1673 15.3458 26.5138C15.9596 27.8604 17.0144 28.9491 18.3302 29.5945C19.646 30.2399 21.1415 30.4019 22.5618 30.053C23.9821 29.7042 25.2394 28.866 26.1193 27.6813C26.9992 26.4966 27.4473 25.0387 27.3873 23.5561C27.3273 22.0735 26.7628 20.6579 25.7901 19.5505C25.239 18.9216 24.5711 18.4093 23.8245 18.0431C23.078 17.677 22.2675 17.4641 21.4398 17.4169ZM16.1087 18.1593C17.3982 16.9908 19.0468 16.3126 20.7735 16.2401C22.5002 16.1675 24.1983 16.7053 25.5784 17.7616C26.9585 18.818 27.9351 20.3275 28.342 22.0332C28.7489 23.7388 28.5607 25.5349 27.8097 27.1154C27.0586 28.696 25.7911 29.9631 24.2231 30.7011C22.655 31.439 20.8836 31.602 19.2105 31.1622C17.5374 30.7225 16.0662 29.7073 15.0476 28.2896C14.0291 26.8719 13.5261 25.1393 13.6244 23.3873C13.6787 22.3926 13.9262 21.4186 14.3525 20.5214C14.7789 19.6241 15.3757 18.8214 16.1087 18.1593ZM28.9814 34.6155L34.3524 40.7327C34.5611 40.9653 34.8517 41.1049 35.1612 41.1212C35.4706 41.1374 35.7739 41.029 36.005 40.8194C36.2362 40.6098 36.3765 40.3161 36.3955 40.002C36.4146 39.688 36.3107 39.379 36.1066 39.1422L30.7361 33.0255C30.6495 33.1345 30.5542 33.2362 30.4513 33.3294L29.3072 34.3654C29.2056 34.4578 29.0966 34.5414 28.9814 34.6155ZM30.0681 31.8642C29.9927 32.0921 29.8598 32.2959 29.6826 32.4554L28.5409 33.4909C28.3634 33.6518 28.1474 33.7625 27.9144 33.8119L27.8841 33.8183C27.7746 33.8387 27.6631 33.8458 27.552 33.8393C27.3727 33.8297 27.1969 33.7842 27.035 33.7053C26.8731 33.6264 26.7281 33.5158 26.6084 33.3798L26.3458 33.0808C26.9673 32.715 27.5506 32.2859 28.0865 31.8001C28.6206 31.3175 29.105 30.781 29.5322 30.1989L29.793 30.4959C29.9124 30.6323 30.0042 30.7912 30.063 30.9636C30.1219 31.136 30.1467 31.3185 30.1361 31.5006C30.1299 31.6086 30.1114 31.7155 30.0812 31.8192C30.0759 31.8344 30.071 31.8495 30.0672 31.8647L30.0681 31.8642ZM21.6557 26.3279C21.6557 26.4837 21.5948 26.633 21.4863 26.7432C21.3778 26.8533 21.2308 26.9152 21.0774 26.9152C20.924 26.9152 20.7769 26.8533 20.6684 26.7432C20.56 26.633 20.4991 26.4837 20.4991 26.3279V25.5752C20.4813 25.187 20.5962 24.8044 20.8244 24.4923C21.07 24.1923 21.3961 23.9713 21.7632 23.8561C22.1057 23.7288 22.4073 23.5086 22.6352 23.2194C22.8631 22.9303 23.0086 22.5831 23.0558 22.2159C23.103 21.8486 23.0501 21.4752 22.9029 21.1363C22.7556 20.7974 22.5197 20.506 22.2208 20.2938C21.9219 20.0816 21.5714 19.9566 21.2074 19.9326C20.8434 19.9085 20.4799 19.9863 20.1564 20.1574C19.8329 20.3285 19.5618 20.5864 19.3726 20.9031C19.1834 21.2197 19.0833 21.583 19.0832 21.9534C19.0883 22.0335 19.0771 22.1139 19.0504 22.1895C19.0237 22.2651 18.9821 22.3343 18.928 22.3929C18.8739 22.4515 18.8085 22.4982 18.736 22.5301C18.6634 22.562 18.5852 22.5785 18.5061 22.5785C18.427 22.5785 18.3487 22.562 18.2762 22.5301C18.2036 22.4982 18.1382 22.4515 18.0842 22.3929C18.0301 22.3343 17.9884 22.2651 17.9617 22.1895C17.935 22.1139 17.9239 22.0335 17.929 21.9534C17.929 21.3691 18.0869 20.7959 18.3854 20.2964C18.6838 19.7968 19.1115 19.3899 19.6219 19.1199C20.1322 18.85 20.7057 18.7273 21.2799 18.7653C21.8541 18.8033 22.4071 19.0004 22.8787 19.3353C23.3502 19.6702 23.7223 20.1299 23.9545 20.6646C24.1866 21.1993 24.27 21.7883 24.1954 22.3677C24.1208 22.9471 23.8912 23.4947 23.5315 23.9508C23.1719 24.4069 22.6959 24.7542 22.1554 24.9547C21.996 24.9993 21.851 25.0859 21.7352 25.2058C21.6703 25.3168 21.6418 25.4458 21.6538 25.5743V26.3279H21.6557ZM20.4991 28.1665C20.4991 28.0107 20.56 27.8614 20.6684 27.7512C20.7769 27.6411 20.924 27.5792 21.0774 27.5792C21.2308 27.5792 21.3778 27.6411 21.4863 27.7512C21.5948 27.8614 21.6557 28.0107 21.6557 28.1665V28.2932C21.6557 28.449 21.5948 28.5984 21.4863 28.7085C21.3778 28.8186 21.2308 28.8805 21.0774 28.8805C20.924 28.8805 20.7769 28.8186 20.6684 28.7085C20.56 28.5984 20.4991 28.449 20.4991 28.2932V28.1665ZM6.78882 5.61363C6.54341 5.36454 6.22053 5.20957 5.87522 5.17512C5.5299 5.14067 5.1835 5.22887 4.89505 5.4247C4.60659 5.62053 4.39393 5.91187 4.2933 6.24907C4.19266 6.58627 4.21029 6.94847 4.34316 7.27396C4.47603 7.59944 4.71594 7.86808 5.022 8.03408C5.32806 8.20008 5.68133 8.25318 6.02162 8.18434C6.36191 8.11549 6.66817 7.92896 6.88821 7.65652C7.10824 7.38408 7.22845 7.0426 7.22833 6.69025C7.22858 6.49023 7.18988 6.29214 7.11445 6.10737C7.03902 5.9226 6.92835 5.7548 6.78882 5.61363ZM4.71124 26.6333C4.46577 26.3841 4.1428 26.229 3.79736 26.1945C3.45191 26.16 3.10538 26.2482 2.81681 26.4441C2.52823 26.64 2.31548 26.9314 2.2148 27.2687C2.11411 27.6061 2.13174 27.9684 2.26466 28.294C2.39758 28.6196 2.63758 28.8883 2.94376 29.0544C3.24994 29.2204 3.60334 29.2735 3.94376 29.2047C4.28417 29.1358 4.59053 28.9491 4.81062 28.6766C5.03071 28.404 5.15092 28.0624 5.15076 27.7099C5.15101 27.5099 5.1123 27.3118 5.03687 27.127C4.96144 26.9423 4.85078 26.7745 4.71124 26.6333ZM11.4625 40.0979C11.0946 39.7243 10.6104 39.4918 10.0926 39.44C9.57472 39.3883 9.05522 39.5204 8.62257 39.814C8.18992 40.1076 7.8709 40.5444 7.71986 41.05C7.56882 41.5557 7.59511 42.0989 7.79425 42.587C7.99339 43.0752 8.35306 43.4781 8.81198 43.7272C9.27089 43.9763 9.80066 44.0561 10.311 43.953C10.8214 43.8499 11.2807 43.5703 11.6108 43.1618C11.9409 42.7533 12.1213 42.2413 12.1213 41.7129C12.1217 41.4129 12.0636 41.1158 11.9506 40.8387C11.8375 40.5615 11.6717 40.3098 11.4625 40.0979ZM40.4107 22.0067C40.1652 21.757 39.8419 21.6015 39.4961 21.5667C39.1503 21.5319 38.8033 21.62 38.5143 21.8159C38.2253 22.0118 38.0121 22.3035 37.9112 22.6411C37.8102 22.9788 37.8277 23.3415 37.9606 23.6676C38.0936 23.9936 38.3338 24.2627 38.6403 24.4291C38.9467 24.5954 39.3005 24.6486 39.6413 24.5797C39.9822 24.5108 40.2889 24.324 40.5092 24.0511C40.7296 23.7782 40.8499 23.4362 40.8497 23.0833C40.8499 22.8834 40.8112 22.6854 40.7358 22.5006C40.6605 22.3159 40.55 22.148 40.4107 22.0067ZM32.2132 2.9661C31.8452 2.59248 31.3611 2.35997 30.8432 2.30819C30.3254 2.25641 29.8059 2.38856 29.3732 2.68213C28.9406 2.9757 28.6216 3.41253 28.4705 3.91818C28.3195 4.42382 28.3458 4.96701 28.5449 5.45518C28.7441 5.94335 29.1037 6.3463 29.5627 6.59537C30.0216 6.84444 30.5513 6.92423 31.0617 6.82113C31.572 6.71803 32.0314 6.43843 32.3615 6.02996C32.6916 5.6215 32.872 5.10944 32.872 4.58104C32.8724 4.28106 32.8144 3.98396 32.7013 3.70681C32.5882 3.42966 32.4224 3.17794 32.2132 2.9661ZM16.0307 31.8485C13.9393 30.4886 12.462 28.3443 11.9208 25.8831L11.9174 25.8664L11.9136 25.8503C11.5873 24.3295 11.633 22.7508 12.0467 21.2521C12.4603 19.7535 13.2294 18.3806 14.2865 17.2536C15.3436 16.1266 16.6565 15.2798 18.1105 14.7874C19.5644 14.2949 21.1151 14.1718 22.6268 14.4287C24.1385 14.6856 25.5651 15.3149 26.7819 16.2613C27.9987 17.2077 28.9685 18.4425 29.6066 19.8576C30.2446 21.2728 30.5315 22.8251 30.442 24.3789C30.3525 25.9326 29.8894 27.4404 29.0932 28.7704C29.085 28.7767 29.0773 28.7836 29.0696 28.7904C28.9818 28.8695 28.92 28.9741 28.8927 29.0899C27.9948 30.4557 26.7669 31.5647 25.3265 32.311C25.2138 32.3268 25.1082 32.3764 25.0234 32.4534L25.0079 32.4681C23.5853 33.133 22.0216 33.4264 20.4589 33.3216C18.8962 33.2167 17.3841 32.7169 16.0601 31.8676L16.0437 31.8564L16.0307 31.8485ZM11.1869 38.5236L14.9459 32.5166C12.9923 31.0932 11.5749 29.0361 10.9276 26.6847L6.30111 27.7172C6.29677 28.3801 6.05172 29.018 5.61291 29.5087C5.1741 29.9994 4.5724 30.3085 3.9231 30.3766C3.2738 30.4448 2.62257 30.2673 2.0942 29.878C1.56582 29.4888 1.19746 28.9153 1.0597 28.2674C0.921946 27.6195 1.02448 26.9427 1.34765 26.3668C1.67082 25.7909 2.19191 25.3563 2.81106 25.1464C3.43021 24.9364 4.10387 24.9658 4.70298 25.229C5.30208 25.4922 5.78448 25.9706 6.05774 26.5726L10.6842 25.5395C10.4188 23.8791 10.5423 22.1786 11.0447 20.5757C11.547 18.9728 12.4141 17.5126 13.5757 16.3133L7.04616 9.03093C6.47833 9.36109 5.81047 9.46681 5.17061 9.32783C4.53076 9.18885 3.96393 8.81494 3.57879 8.27779C3.19365 7.74064 3.01729 7.07804 3.08352 6.41701C3.14976 5.75597 3.45393 5.14302 3.93772 4.69565C4.42151 4.24828 5.05089 3.99797 5.7052 3.99271C6.35951 3.98744 6.99271 4.22759 7.48342 4.66712C7.97413 5.10665 8.28783 5.71463 8.36437 6.37452C8.44091 7.0344 8.27492 7.69976 7.8982 8.24304L14.4263 15.5269C15.9274 14.2867 17.7356 13.4899 19.6529 13.2235C21.5702 12.9571 23.5227 13.2315 25.2966 14.0167L28.5992 7.36119C28.4638 7.25904 28.3359 7.147 28.2166 7.02596C27.6317 6.43066 27.2814 5.63871 27.2316 4.79932C27.1819 3.95992 27.4361 3.13103 27.9465 2.46879C28.4568 1.80655 29.1881 1.35668 30.0024 1.20393C30.8167 1.05119 31.658 1.20611 32.3676 1.63952C33.0772 2.07293 33.6063 2.7549 33.8552 3.55695C34.104 4.359 34.0554 5.22577 33.7185 5.99397C33.3817 6.76216 32.7798 7.37875 32.0263 7.72757C31.2728 8.07639 30.4197 8.13336 29.6277 7.88775L26.3255 14.5433C27.3049 15.1154 28.1872 15.844 28.9385 16.7009C30.4355 18.4003 31.3555 20.5429 31.5631 22.8132L36.7365 22.6052C36.853 21.9523 37.2028 21.3659 37.7187 20.9586C38.2347 20.5513 38.8805 20.3517 39.5324 20.3981C40.1843 20.4445 40.7964 20.7335 41.2514 21.2099C41.7064 21.6863 41.9722 22.3164 41.9979 22.9795C42.0237 23.6426 41.8075 24.292 41.3908 24.8032C40.9741 25.3144 40.3863 25.6515 39.74 25.7498C39.0937 25.8481 38.4344 25.7007 37.8885 25.3359C37.3426 24.9711 36.9486 24.4145 36.7818 23.7729L31.6084 23.9789C31.6064 24.128 31.6011 24.2771 31.5925 24.4262C31.4993 26.1027 31.0189 27.7334 30.1901 29.1863L30.6566 29.7163C30.9079 30.005 31.0921 30.3473 31.1955 30.718C31.2989 31.0887 31.319 31.4782 31.2542 31.8579L36.9698 38.3621C37.3708 38.8318 37.5736 39.443 37.5343 40.0634C37.495 40.6837 37.2168 41.2635 36.7598 41.6771C36.3027 42.0907 35.7037 42.305 35.0923 42.2736C34.4809 42.2422 33.9063 41.9677 33.4927 41.5093L27.7805 35.007C27.683 35.0129 27.5853 35.0129 27.4879 35.007C27.1573 34.9886 26.8336 34.9041 26.5352 34.7584C26.2368 34.6127 25.9697 34.4087 25.7491 34.1579L25.2826 33.6265C23.791 34.2834 22.1701 34.5818 20.5462 34.4983C18.9224 34.4148 17.3394 33.9516 15.9208 33.1449L12.1589 39.153C12.2 39.1908 12.24 39.2295 12.2789 39.2689C12.8738 39.8749 13.2254 40.6839 13.2652 41.5386C13.305 42.3932 13.0302 43.2324 12.4943 43.8926C11.9584 44.5529 11.1997 44.987 10.366 45.1105C9.5322 45.234 8.68301 45.0381 7.98369 44.5608C7.28437 44.0835 6.78497 43.359 6.5827 42.5284C6.38044 41.6978 6.48977 40.8205 6.88943 40.0673C7.28908 39.314 7.95046 38.7387 8.74482 38.4534C9.53917 38.1681 10.4097 38.1931 11.1869 38.5236Z" fill="#EAEAEA"/>
<path fill-rule="evenodd" clip-rule="evenodd" d="M21.4398 17.4169C19.9809 17.3316 18.5381 17.7627 17.3572 18.6367C16.1763 19.5107 15.3303 20.7735 14.9636 22.2098C14.5968 23.6462 14.7319 25.1673 15.3458 26.5138C15.9596 27.8604 17.0144 28.9491 18.3302 29.5945C19.646 30.2399 21.1415 30.4019 22.5618 30.053C23.9821 29.7042 25.2394 28.866 26.1193 27.6813C26.9992 26.4966 27.4473 25.0387 27.3873 23.5561C27.3273 22.0735 26.7628 20.6579 25.7901 19.5505C25.239 18.9216 24.5711 18.4093 23.8245 18.0431C23.078 17.677 22.2675 17.4641 21.4398 17.4169ZM16.1087 18.1593C17.3982 16.9908 19.0468 16.3126 20.7735 16.2401C22.5002 16.1675 24.1983 16.7053 25.5784 17.7616C26.9585 18.818 27.9351 20.3275 28.342 22.0332C28.7489 23.7388 28.5607 25.5349 27.8097 27.1154C27.0586 28.696 25.7911 29.9631 24.2231 30.7011C22.655 31.439 20.8836 31.602 19.2105 31.1622C17.5374 30.7225 16.0662 29.7073 15.0476 28.2896C14.0291 26.8719 13.5261 25.1393 13.6244 23.3873C13.6787 22.3926 13.9262 21.4186 14.3525 20.5214C14.7789 19.6241 15.3757 18.8214 16.1087 18.1593ZM28.9814 34.6155L34.3524 40.7327C34.5611 40.9653 34.8517 41.1049 35.1612 41.1212C35.4706 41.1374 35.7739 41.029 36.005 40.8194C36.2362 40.6098 36.3765 40.3161 36.3955 40.002C36.4146 39.688 36.3107 39.379 36.1066 39.1422L30.7361 33.0255C30.6495 33.1345 30.5542 33.2362 30.4513 33.3294L29.3072 34.3654C29.2056 34.4578 29.0966 34.5414 28.9814 34.6155ZM30.0681 31.8642C29.9927 32.0921 29.8598 32.2959 29.6826 32.4554L28.5409 33.4909C28.3634 33.6518 28.1474 33.7625 27.9144 33.8119L27.8841 33.8183C27.7746 33.8387 27.6631 33.8458 27.552 33.8393C27.3727 33.8297 27.1969 33.7842 27.035 33.7053C26.8731 33.6264 26.7281 33.5158 26.6084 33.3798L26.3458 33.0808C26.9673 32.715 27.5506 32.2859 28.0865 31.8001C28.6206 31.3175 29.105 30.781 29.5322 30.1989L29.793 30.4959C29.9124 30.6323 30.0042 30.7912 30.063 30.9636C30.1219 31.136 30.1467 31.3185 30.1361 31.5006C30.1299 31.6086 30.1114 31.7155 30.0812 31.8192C30.0759 31.8344 30.071 31.8495 30.0672 31.8647L30.0681 31.8642ZM21.6557 26.3279C21.6557 26.4837 21.5948 26.633 21.4863 26.7432C21.3778 26.8533 21.2308 26.9152 21.0774 26.9152C20.924 26.9152 20.7769 26.8533 20.6684 26.7432C20.56 26.633 20.4991 26.4837 20.4991 26.3279V25.5752C20.4813 25.187 20.5962 24.8044 20.8244 24.4923C21.07 24.1923 21.3961 23.9713 21.7632 23.8561C22.1057 23.7288 22.4073 23.5086 22.6352 23.2194C22.8631 22.9303 23.0086 22.5831 23.0558 22.2159C23.103 21.8486 23.0501 21.4752 22.9029 21.1363C22.7556 20.7974 22.5197 20.506 22.2208 20.2938C21.9219 20.0816 21.5714 19.9566 21.2074 19.9326C20.8434 19.9085 20.4799 19.9863 20.1564 20.1574C19.8329 20.3285 19.5618 20.5864 19.3726 20.9031C19.1834 21.2197 19.0833 21.583 19.0832 21.9534C19.0883 22.0335 19.0771 22.1139 19.0504 22.1895C19.0237 22.2651 18.9821 22.3343 18.928 22.3929C18.8739 22.4515 18.8085 22.4982 18.736 22.5301C18.6634 22.562 18.5852 22.5785 18.5061 22.5785C18.427 22.5785 18.3487 22.562 18.2762 22.5301C18.2036 22.4982 18.1382 22.4515 18.0842 22.3929C18.0301 22.3343 17.9884 22.2651 17.9617 22.1895C17.935 22.1139 17.9239 22.0335 17.929 21.9534C17.929 21.3691 18.0869 20.7959 18.3854 20.2964C18.6838 19.7968 19.1115 19.3899 19.6219 19.1199C20.1322 18.85 20.7057 18.7273 21.2799 18.7653C21.8541 18.8033 22.4071 19.0004 22.8787 19.3353C23.3502 19.6702 23.7223 20.1299 23.9545 20.6646C24.1866 21.1993 24.27 21.7883 24.1954 22.3677C24.1208 22.9471 23.8912 23.4947 23.5315 23.9508C23.1719 24.4069 22.6959 24.7542 22.1554 24.9547C21.996 24.9993 21.851 25.0859 21.7352 25.2058C21.6703 25.3168 21.6418 25.4458 21.6538 25.5743V26.3279H21.6557ZM20.4991 28.1665C20.4991 28.0107 20.56 27.8614 20.6684 27.7512C20.7769 27.6411 20.924 27.5792 21.0774 27.5792C21.2308 27.5792 21.3778 27.6411 21.4863 27.7512C21.5948 27.8614 21.6557 28.0107 21.6557 28.1665V28.2932C21.6557 28.449 21.5948 28.5984 21.4863 28.7085C21.3778 28.8186 21.2308 28.8805 21.0774 28.8805C20.924 28.8805 20.7769 28.8186 20.6684 28.7085C20.56 28.5984 20.4991 28.449 20.4991 28.2932V28.1665ZM6.78882 5.61363C6.54341 5.36454 6.22053 5.20957 5.87522 5.17512C5.5299 5.14067 5.1835 5.22887 4.89505 5.4247C4.60659 5.62053 4.39393 5.91187 4.2933 6.24907C4.19266 6.58627 4.21029 6.94847 4.34316 7.27396C4.47603 7.59944 4.71594 7.86808 5.022 8.03408C5.32806 8.20008 5.68133 8.25318 6.02162 8.18434C6.36191 8.11549 6.66817 7.92896 6.88821 7.65652C7.10824 7.38408 7.22845 7.0426 7.22833 6.69025C7.22858 6.49023 7.18988 6.29214 7.11445 6.10737C7.03902 5.9226 6.92835 5.7548 6.78882 5.61363ZM4.71124 26.6333C4.46577 26.3841 4.1428 26.229 3.79736 26.1945C3.45191 26.16 3.10538 26.2482 2.81681 26.4441C2.52823 26.64 2.31548 26.9314 2.2148 27.2687C2.11411 27.6061 2.13174 27.9684 2.26466 28.294C2.39758 28.6196 2.63758 28.8883 2.94376 29.0544C3.24994 29.2204 3.60334 29.2735 3.94376 29.2047C4.28417 29.1358 4.59053 28.9491 4.81062 28.6766C5.03071 28.404 5.15092 28.0624 5.15076 27.7099C5.15101 27.5099 5.1123 27.3118 5.03687 27.127C4.96144 26.9423 4.85078 26.7745 4.71124 26.6333ZM11.4625 40.0979C11.0946 39.7243 10.6104 39.4918 10.0926 39.44C9.57472 39.3883 9.05522 39.5204 8.62257 39.814C8.18992 40.1076 7.8709 40.5444 7.71986 41.05C7.56882 41.5557 7.59511 42.0989 7.79425 42.587C7.99339 43.0752 8.35306 43.4781 8.81198 43.7272C9.27089 43.9763 9.80066 44.0561 10.311 43.953C10.8214 43.8499 11.2807 43.5703 11.6108 43.1618C11.9409 42.7533 12.1213 42.2413 12.1213 41.7129C12.1217 41.4129 12.0636 41.1158 11.9506 40.8387C11.8375 40.5615 11.6717 40.3098 11.4625 40.0979ZM40.4107 22.0067C40.1652 21.757 39.8419 21.6015 39.4961 21.5667C39.1503 21.5319 38.8033 21.62 38.5143 21.8159C38.2253 22.0118 38.0121 22.3035 37.9112 22.6411C37.8102 22.9788 37.8277 23.3415 37.9606 23.6676C38.0936 23.9936 38.3338 24.2627 38.6403 24.4291C38.9467 24.5954 39.3005 24.6486 39.6413 24.5797C39.9822 24.5108 40.2889 24.324 40.5092 24.0511C40.7296 23.7782 40.8499 23.4362 40.8497 23.0833C40.8499 22.8834 40.8112 22.6854 40.7358 22.5006C40.6605 22.3159 40.55 22.148 40.4107 22.0067ZM32.2132 2.9661C31.8452 2.59248 31.3611 2.35997 30.8432 2.30819C30.3254 2.25641 29.8059 2.38856 29.3732 2.68213C28.9406 2.9757 28.6216 3.41253 28.4705 3.91818C28.3195 4.42382 28.3458 4.96701 28.5449 5.45518C28.7441 5.94335 29.1037 6.3463 29.5627 6.59537C30.0216 6.84444 30.5513 6.92423 31.0617 6.82113C31.572 6.71803 32.0314 6.43843 32.3615 6.02996C32.6916 5.6215 32.872 5.10944 32.872 4.58104C32.8724 4.28106 32.8144 3.98396 32.7013 3.70681C32.5882 3.42966 32.4224 3.17794 32.2132 2.9661ZM16.0307 31.8485C13.9393 30.4886 12.462 28.3443 11.9208 25.8831L11.9174 25.8664L11.9136 25.8503C11.5873 24.3295 11.633 22.7508 12.0467 21.2521C12.4603 19.7535 13.2294 18.3806 14.2865 17.2536C15.3436 16.1266 16.6565 15.2798 18.1105 14.7874C19.5644 14.2949 21.1151 14.1718 22.6268 14.4287C24.1385 14.6856 25.5651 15.3149 26.7819 16.2613C27.9987 17.2077 28.9685 18.4425 29.6066 19.8576C30.2446 21.2728 30.5315 22.8251 30.442 24.3789C30.3525 25.9326 29.8894 27.4404 29.0932 28.7704C29.085 28.7767 29.0773 28.7836 29.0696 28.7904C28.9818 28.8695 28.92 28.9741 28.8927 29.0899C27.9948 30.4557 26.7669 31.5647 25.3265 32.311C25.2138 32.3268 25.1082 32.3764 25.0234 32.4534L25.0079 32.4681C23.5853 33.133 22.0216 33.4264 20.4589 33.3216C18.8962 33.2167 17.3841 32.7169 16.0601 31.8676L16.0437 31.8564L16.0307 31.8485ZM11.1869 38.5236L14.9459 32.5166C12.9923 31.0932 11.5749 29.0361 10.9276 26.6847L6.30111 27.7172C6.29677 28.3801 6.05172 29.018 5.61291 29.5087C5.1741 29.9994 4.5724 30.3085 3.9231 30.3766C3.2738 30.4448 2.62257 30.2673 2.0942 29.878C1.56582 29.4888 1.19746 28.9153 1.0597 28.2674C0.921946 27.6195 1.02448 26.9427 1.34765 26.3668C1.67082 25.7909 2.19191 25.3563 2.81106 25.1464C3.43021 24.9364 4.10387 24.9658 4.70298 25.229C5.30208 25.4922 5.78448 25.9706 6.05774 26.5726L10.6842 25.5395C10.4188 23.8791 10.5423 22.1786 11.0447 20.5757C11.547 18.9728 12.4141 17.5126 13.5757 16.3133L7.04616 9.03093C6.47833 9.36109 5.81047 9.46681 5.17061 9.32783C4.53076 9.18885 3.96393 8.81494 3.57879 8.27779C3.19365 7.74064 3.01729 7.07804 3.08352 6.41701C3.14976 5.75597 3.45393 5.14302 3.93772 4.69565C4.42151 4.24828 5.05089 3.99797 5.7052 3.99271C6.35951 3.98744 6.99271 4.22759 7.48342 4.66712C7.97413 5.10665 8.28783 5.71463 8.36437 6.37452C8.44091 7.0344 8.27492 7.69976 7.8982 8.24304L14.4263 15.5269C15.9274 14.2867 17.7356 13.4899 19.6529 13.2235C21.5702 12.9571 23.5227 13.2315 25.2966 14.0167L28.5992 7.36119C28.4638 7.25904 28.3359 7.147 28.2166 7.02596C27.6317 6.43066 27.2814 5.63871 27.2316 4.79932C27.1819 3.95992 27.4361 3.13103 27.9465 2.46879C28.4568 1.80655 29.1881 1.35668 30.0024 1.20393C30.8167 1.05119 31.658 1.20611 32.3676 1.63952C33.0772 2.07293 33.6063 2.7549 33.8552 3.55695C34.104 4.359 34.0554 5.22577 33.7185 5.99397C33.3817 6.76216 32.7798 7.37875 32.0263 7.72757C31.2728 8.07639 30.4197 8.13336 29.6277 7.88775L26.3255 14.5433C27.3049 15.1154 28.1872 15.844 28.9385 16.7009C30.4355 18.4003 31.3555 20.5429 31.5631 22.8132L36.7365 22.6052C36.853 21.9523 37.2028 21.3659 37.7187 20.9586C38.2347 20.5513 38.8805 20.3517 39.5324 20.3981C40.1843 20.4445 40.7964 20.7335 41.2514 21.2099C41.7064 21.6863 41.9722 22.3164 41.9979 22.9795C42.0237 23.6426 41.8075 24.292 41.3908 24.8032C40.9741 25.3144 40.3863 25.6515 39.74 25.7498C39.0937 25.8481 38.4344 25.7007 37.8885 25.3359C37.3426 24.9711 36.9486 24.4145 36.7818 23.7729L31.6084 23.9789C31.6064 24.128 31.6011 24.2771 31.5925 24.4262C31.4993 26.1027 31.0189 27.7334 30.1901 29.1863L30.6566 29.7163C30.9079 30.005 31.0921 30.3473 31.1955 30.718C31.2989 31.0887 31.319 31.4782 31.2542 31.8579L36.9698 38.3621C37.3708 38.8318 37.5736 39.443 37.5343 40.0634C37.495 40.6837 37.2168 41.2635 36.7598 41.6771C36.3027 42.0907 35.7037 42.305 35.0923 42.2736C34.4809 42.2422 33.9063 41.9677 33.4927 41.5093L27.7805 35.007C27.683 35.0129 27.5853 35.0129 27.4879 35.007C27.1573 34.9886 26.8336 34.9041 26.5352 34.7584C26.2368 34.6127 25.9697 34.4087 25.7491 34.1579L25.2826 33.6265C23.791 34.2834 22.1701 34.5818 20.5462 34.4983C18.9224 34.4148 17.3394 33.9516 15.9208 33.1449L12.1589 39.153C12.2 39.1908 12.24 39.2295 12.2789 39.2689C12.8738 39.8749 13.2254 40.6839 13.2652 41.5386C13.305 42.3932 13.0302 43.2324 12.4943 43.8926C11.9584 44.5529 11.1997 44.987 10.366 45.1105C9.5322 45.234 8.68301 45.0381 7.98369 44.5608C7.28437 44.0835 6.78497 43.359 6.5827 42.5284C6.38044 41.6978 6.48977 40.8205 6.88943 40.0673C7.28908 39.314 7.95046 38.7387 8.74482 38.4534C9.53917 38.1681 10.4097 38.1931 11.1869 38.5236Z" fill="url(#paint0_linear_1303_489)"/>
<path fill-rule="evenodd" clip-rule="evenodd" d="M21.4398 17.4169C19.9809 17.3316 18.5381 17.7627 17.3572 18.6367C16.1763 19.5107 15.3303 20.7735 14.9636 22.2098C14.5968 23.6462 14.7319 25.1673 15.3458 26.5138C15.9596 27.8604 17.0144 28.9491 18.3302 29.5945C19.646 30.2399 21.1415 30.4019 22.5618 30.053C23.9821 29.7042 25.2394 28.866 26.1193 27.6813C26.9992 26.4966 27.4473 25.0387 27.3873 23.5561C27.3273 22.0735 26.7628 20.6579 25.7901 19.5505C25.239 18.9216 24.5711 18.4093 23.8245 18.0431C23.078 17.677 22.2675 17.4641 21.4398 17.4169ZM16.1087 18.1593C17.3982 16.9908 19.0468 16.3126 20.7735 16.2401C22.5002 16.1675 24.1983 16.7053 25.5784 17.7616C26.9585 18.818 27.9351 20.3275 28.342 22.0332C28.7489 23.7388 28.5607 25.5349 27.8097 27.1154C27.0586 28.696 25.7911 29.9631 24.2231 30.7011C22.655 31.439 20.8836 31.602 19.2105 31.1622C17.5374 30.7225 16.0662 29.7073 15.0476 28.2896C14.0291 26.8719 13.5261 25.1393 13.6244 23.3873C13.6787 22.3926 13.9262 21.4186 14.3525 20.5214C14.7789 19.6241 15.3757 18.8214 16.1087 18.1593ZM28.9814 34.6155L34.3524 40.7327C34.5611 40.9653 34.8517 41.1049 35.1612 41.1212C35.4706 41.1374 35.7739 41.029 36.005 40.8194C36.2362 40.6098 36.3765 40.3161 36.3955 40.002C36.4146 39.688 36.3107 39.379 36.1066 39.1422L30.7361 33.0255C30.6495 33.1345 30.5542 33.2362 30.4513 33.3294L29.3072 34.3654C29.2056 34.4578 29.0966 34.5414 28.9814 34.6155ZM30.0681 31.8642C29.9927 32.0921 29.8598 32.2959 29.6826 32.4554L28.5409 33.4909C28.3634 33.6518 28.1474 33.7625 27.9144 33.8119L27.8841 33.8183C27.7746 33.8387 27.6631 33.8458 27.552 33.8393C27.3727 33.8297 27.1969 33.7842 27.035 33.7053C26.8731 33.6264 26.7281 33.5158 26.6084 33.3798L26.3458 33.0808C26.9673 32.715 27.5506 32.2859 28.0865 31.8001C28.6206 31.3175 29.105 30.781 29.5322 30.1989L29.793 30.4959C29.9124 30.6323 30.0042 30.7912 30.063 30.9636C30.1219 31.136 30.1467 31.3185 30.1361 31.5006C30.1299 31.6086 30.1114 31.7155 30.0812 31.8192C30.0759 31.8344 30.071 31.8495 30.0672 31.8647L30.0681 31.8642ZM21.6557 26.3279C21.6557 26.4837 21.5948 26.633 21.4863 26.7432C21.3778 26.8533 21.2308 26.9152 21.0774 26.9152C20.924 26.9152 20.7769 26.8533 20.6684 26.7432C20.56 26.633 20.4991 26.4837 20.4991 26.3279V25.5752C20.4813 25.187 20.5962 24.8044 20.8244 24.4923C21.07 24.1923 21.3961 23.9713 21.7632 23.8561C22.1057 23.7288 22.4073 23.5086 22.6352 23.2194C22.8631 22.9303 23.0086 22.5831 23.0558 22.2159C23.103 21.8486 23.0501 21.4752 22.9029 21.1363C22.7556 20.7974 22.5197 20.506 22.2208 20.2938C21.9219 20.0816 21.5714 19.9566 21.2074 19.9326C20.8434 19.9085 20.4799 19.9863 20.1564 20.1574C19.8329 20.3285 19.5618 20.5864 19.3726 20.9031C19.1834 21.2197 19.0833 21.583 19.0832 21.9534C19.0883 22.0335 19.0771 22.1139 19.0504 22.1895C19.0237 22.2651 18.9821 22.3343 18.928 22.3929C18.8739 22.4515 18.8085 22.4982 18.736 22.5301C18.6634 22.562 18.5852 22.5785 18.5061 22.5785C18.427 22.5785 18.3487 22.562 18.2762 22.5301C18.2036 22.4982 18.1382 22.4515 18.0842 22.3929C18.0301 22.3343 17.9884 22.2651 17.9617 22.1895C17.935 22.1139 17.9239 22.0335 17.929 21.9534C17.929 21.3691 18.0869 20.7959 18.3854 20.2964C18.6838 19.7968 19.1115 19.3899 19.6219 19.1199C20.1322 18.85 20.7057 18.7273 21.2799 18.7653C21.8541 18.8033 22.4071 19.0004 22.8787 19.3353C23.3502 19.6702 23.7223 20.1299 23.9545 20.6646C24.1866 21.1993 24.27 21.7883 24.1954 22.3677C24.1208 22.9471 23.8912 23.4947 23.5315 23.9508C23.1719 24.4069 22.6959 24.7542 22.1554 24.9547C21.996 24.9993 21.851 25.0859 21.7352 25.2058C21.6703 25.3168 21.6418 25.4458 21.6538 25.5743V26.3279H21.6557ZM20.4991 28.1665C20.4991 28.0107 20.56 27.8614 20.6684 27.7512C20.7769 27.6411 20.924 27.5792 21.0774 27.5792C21.2308 27.5792 21.3778 27.6411 21.4863 27.7512C21.5948 27.8614 21.6557 28.0107 21.6557 28.1665V28.2932C21.6557 28.449 21.5948 28.5984 21.4863 28.7085C21.3778 28.8186 21.2308 28.8805 21.0774 28.8805C20.924 28.8805 20.7769 28.8186 20.6684 28.7085C20.56 28.5984 20.4991 28.449 20.4991 28.2932V28.1665ZM6.78882 5.61363C6.54341 5.36454 6.22053 5.20957 5.87522 5.17512C5.5299 5.14067 5.1835 5.22887 4.89505 5.4247C4.60659 5.62053 4.39393 5.91187 4.2933 6.24907C4.19266 6.58627 4.21029 6.94847 4.34316 7.27396C4.47603 7.59944 4.71594 7.86808 5.022 8.03408C5.32806 8.20008 5.68133 8.25318 6.02162 8.18434C6.36191 8.11549 6.66817 7.92896 6.88821 7.65652C7.10824 7.38408 7.22845 7.0426 7.22833 6.69025C7.22858 6.49023 7.18988 6.29214 7.11445 6.10737C7.03902 5.9226 6.92835 5.7548 6.78882 5.61363ZM4.71124 26.6333C4.46577 26.3841 4.1428 26.229 3.79736 26.1945C3.45191 26.16 3.10538 26.2482 2.81681 26.4441C2.52823 26.64 2.31548 26.9314 2.2148 27.2687C2.11411 27.6061 2.13174 27.9684 2.26466 28.294C2.39758 28.6196 2.63758 28.8883 2.94376 29.0544C3.24994 29.2204 3.60334 29.2735 3.94376 29.2047C4.28417 29.1358 4.59053 28.9491 4.81062 28.6766C5.03071 28.404 5.15092 28.0624 5.15076 27.7099C5.15101 27.5099 5.1123 27.3118 5.03687 27.127C4.96144 26.9423 4.85078 26.7745 4.71124 26.6333ZM11.4625 40.0979C11.0946 39.7243 10.6104 39.4918 10.0926 39.44C9.57472 39.3883 9.05522 39.5204 8.62257 39.814C8.18992 40.1076 7.8709 40.5444 7.71986 41.05C7.56882 41.5557 7.59511 42.0989 7.79425 42.587C7.99339 43.0752 8.35306 43.4781 8.81198 43.7272C9.27089 43.9763 9.80066 44.0561 10.311 43.953C10.8214 43.8499 11.2807 43.5703 11.6108 43.1618C11.9409 42.7533 12.1213 42.2413 12.1213 41.7129C12.1217 41.4129 12.0636 41.1158 11.9506 40.8387C11.8375 40.5615 11.6717 40.3098 11.4625 40.0979ZM40.4107 22.0067C40.1652 21.757 39.8419 21.6015 39.4961 21.5667C39.1503 21.5319 38.8033 21.62 38.5143 21.8159C38.2253 22.0118 38.0121 22.3035 37.9112 22.6411C37.8102 22.9788 37.8277 23.3415 37.9606 23.6676C38.0936 23.9936 38.3338 24.2627 38.6403 24.4291C38.9467 24.5954 39.3005 24.6486 39.6413 24.5797C39.9822 24.5108 40.2889 24.324 40.5092 24.0511C40.7296 23.7782 40.8499 23.4362 40.8497 23.0833C40.8499 22.8834 40.8112 22.6854 40.7358 22.5006C40.6605 22.3159 40.55 22.148 40.4107 22.0067ZM32.2132 2.9661C31.8452 2.59248 31.3611 2.35997 30.8432 2.30819C30.3254 2.25641 29.8059 2.38856 29.3732 2.68213C28.9406 2.9757 28.6216 3.41253 28.4705 3.91818C28.3195 4.42382 28.3458 4.96701 28.5449 5.45518C28.7441 5.94335 29.1037 6.3463 29.5627 6.59537C30.0216 6.84444 30.5513 6.92423 31.0617 6.82113C31.572 6.71803 32.0314 6.43843 32.3615 6.02996C32.6916 5.6215 32.872 5.10944 32.872 4.58104C32.8724 4.28106 32.8144 3.98396 32.7013 3.70681C32.5882 3.42966 32.4224 3.17794 32.2132 2.9661ZM16.0307 31.8485C13.9393 30.4886 12.462 28.3443 11.9208 25.8831L11.9174 25.8664L11.9136 25.8503C11.5873 24.3295 11.633 22.7508 12.0467 21.2521C12.4603 19.7535 13.2294 18.3806 14.2865 17.2536C15.3436 16.1266 16.6565 15.2798 18.1105 14.7874C19.5644 14.2949 21.1151 14.1718 22.6268 14.4287C24.1385 14.6856 25.5651 15.3149 26.7819 16.2613C27.9987 17.2077 28.9685 18.4425 29.6066 19.8576C30.2446 21.2728 30.5315 22.8251 30.442 24.3789C30.3525 25.9326 29.8894 27.4404 29.0932 28.7704C29.085 28.7767 29.0773 28.7836 29.0696 28.7904C28.9818 28.8695 28.92 28.9741 28.8927 29.0899C27.9948 30.4557 26.7669 31.5647 25.3265 32.311C25.2138 32.3268 25.1082 32.3764 25.0234 32.4534L25.0079 32.4681C23.5853 33.133 22.0216 33.4264 20.4589 33.3216C18.8962 33.2167 17.3841 32.7169 16.0601 31.8676L16.0437 31.8564L16.0307 31.8485ZM11.1869 38.5236L14.9459 32.5166C12.9923 31.0932 11.5749 29.0361 10.9276 26.6847L6.30111 27.7172C6.29677 28.3801 6.05172 29.018 5.61291 29.5087C5.1741 29.9994 4.5724 30.3085 3.9231 30.3766C3.2738 30.4448 2.62257 30.2673 2.0942 29.878C1.56582 29.4888 1.19746 28.9153 1.0597 28.2674C0.921946 27.6195 1.02448 26.9427 1.34765 26.3668C1.67082 25.7909 2.19191 25.3563 2.81106 25.1464C3.43021 24.9364 4.10387 24.9658 4.70298 25.229C5.30208 25.4922 5.78448 25.9706 6.05774 26.5726L10.6842 25.5395C10.4188 23.8791 10.5423 22.1786 11.0447 20.5757C11.547 18.9728 12.4141 17.5126 13.5757 16.3133L7.04616 9.03093C6.47833 9.36109 5.81047 9.46681 5.17061 9.32783C4.53076 9.18885 3.96393 8.81494 3.57879 8.27779C3.19365 7.74064 3.01729 7.07804 3.08352 6.41701C3.14976 5.75597 3.45393 5.14302 3.93772 4.69565C4.42151 4.24828 5.05089 3.99797 5.7052 3.99271C6.35951 3.98744 6.99271 4.22759 7.48342 4.66712C7.97413 5.10665 8.28783 5.71463 8.36437 6.37452C8.44091 7.0344 8.27492 7.69976 7.8982 8.24304L14.4263 15.5269C15.9274 14.2867 17.7356 13.4899 19.6529 13.2235C21.5702 12.9571 23.5227 13.2315 25.2966 14.0167L28.5992 7.36119C28.4638 7.25904 28.3359 7.147 28.2166 7.02596C27.6317 6.43066 27.2814 5.63871 27.2316 4.79932C27.1819 3.95992 27.4361 3.13103 27.9465 2.46879C28.4568 1.80655 29.1881 1.35668 30.0024 1.20393C30.8167 1.05119 31.658 1.20611 32.3676 1.63952C33.0772 2.07293 33.6063 2.7549 33.8552 3.55695C34.104 4.359 34.0554 5.22577 33.7185 5.99397C33.3817 6.76216 32.7798 7.37875 32.0263 7.72757C31.2728 8.07639 30.4197 8.13336 29.6277 7.88775L26.3255 14.5433C27.3049 15.1154 28.1872 15.844 28.9385 16.7009C30.4355 18.4003 31.3555 20.5429 31.5631 22.8132L36.7365 22.6052C36.853 21.9523 37.2028 21.3659 37.7187 20.9586C38.2347 20.5513 38.8805 20.3517 39.5324 20.3981C40.1843 20.4445 40.7964 20.7335 41.2514 21.2099C41.7064 21.6863 41.9722 22.3164 41.9979 22.9795C42.0237 23.6426 41.8075 24.292 41.3908 24.8032C40.9741 25.3144 40.3863 25.6515 39.74 25.7498C39.0937 25.8481 38.4344 25.7007 37.8885 25.3359C37.3426 24.9711 36.9486 24.4145 36.7818 23.7729L31.6084 23.9789C31.6064 24.128 31.6011 24.2771 31.5925 24.4262C31.4993 26.1027 31.0189 27.7334 30.1901 29.1863L30.6566 29.7163C30.9079 30.005 31.0921 30.3473 31.1955 30.718C31.2989 31.0887 31.319 31.4782 31.2542 31.8579L36.9698 38.3621C37.3708 38.8318 37.5736 39.443 37.5343 40.0634C37.495 40.6837 37.2168 41.2635 36.7598 41.6771C36.3027 42.0907 35.7037 42.305 35.0923 42.2736C34.4809 42.2422 33.9063 41.9677 33.4927 41.5093L27.7805 35.007C27.683 35.0129 27.5853 35.0129 27.4879 35.007C27.1573 34.9886 26.8336 34.9041 26.5352 34.7584C26.2368 34.6127 25.9697 34.4087 25.7491 34.1579L25.2826 33.6265C23.791 34.2834 22.1701 34.5818 20.5462 34.4983C18.9224 34.4148 17.3394 33.9516 15.9208 33.1449L12.1589 39.153C12.2 39.1908 12.24 39.2295 12.2789 39.2689C12.8738 39.8749 13.2254 40.6839 13.2652 41.5386C13.305 42.3932 13.0302 43.2324 12.4943 43.8926C11.9584 44.5529 11.1997 44.987 10.366 45.1105C9.5322 45.234 8.68301 45.0381 7.98369 44.5608C7.28437 44.0835 6.78497 43.359 6.5827 42.5284C6.38044 41.6978 6.48977 40.8205 6.88943 40.0673C7.28908 39.314 7.95046 38.7387 8.74482 38.4534C9.53917 38.1681 10.4097 38.1931 11.1869 38.5236Z" stroke="#EAEAEA" stroke-width="0.4"/>
<path fill-rule="evenodd" clip-rule="evenodd" d="M21.4398 17.4169C19.9809 17.3316 18.5381 17.7627 17.3572 18.6367C16.1763 19.5107 15.3303 20.7735 14.9636 22.2098C14.5968 23.6462 14.7319 25.1673 15.3458 26.5138C15.9596 27.8604 17.0144 28.9491 18.3302 29.5945C19.646 30.2399 21.1415 30.4019 22.5618 30.053C23.9821 29.7042 25.2394 28.866 26.1193 27.6813C26.9992 26.4966 27.4473 25.0387 27.3873 23.5561C27.3273 22.0735 26.7628 20.6579 25.7901 19.5505C25.239 18.9216 24.5711 18.4093 23.8245 18.0431C23.078 17.677 22.2675 17.4641 21.4398 17.4169ZM16.1087 18.1593C17.3982 16.9908 19.0468 16.3126 20.7735 16.2401C22.5002 16.1675 24.1983 16.7053 25.5784 17.7616C26.9585 18.818 27.9351 20.3275 28.342 22.0332C28.7489 23.7388 28.5607 25.5349 27.8097 27.1154C27.0586 28.696 25.7911 29.9631 24.2231 30.7011C22.655 31.439 20.8836 31.602 19.2105 31.1622C17.5374 30.7225 16.0662 29.7073 15.0476 28.2896C14.0291 26.8719 13.5261 25.1393 13.6244 23.3873C13.6787 22.3926 13.9262 21.4186 14.3525 20.5214C14.7789 19.6241 15.3757 18.8214 16.1087 18.1593ZM28.9814 34.6155L34.3524 40.7327C34.5611 40.9653 34.8517 41.1049 35.1612 41.1212C35.4706 41.1374 35.7739 41.029 36.005 40.8194C36.2362 40.6098 36.3765 40.3161 36.3955 40.002C36.4146 39.688 36.3107 39.379 36.1066 39.1422L30.7361 33.0255C30.6495 33.1345 30.5542 33.2362 30.4513 33.3294L29.3072 34.3654C29.2056 34.4578 29.0966 34.5414 28.9814 34.6155ZM30.0681 31.8642C29.9927 32.0921 29.8598 32.2959 29.6826 32.4554L28.5409 33.4909C28.3634 33.6518 28.1474 33.7625 27.9144 33.8119L27.8841 33.8183C27.7746 33.8387 27.6631 33.8458 27.552 33.8393C27.3727 33.8297 27.1969 33.7842 27.035 33.7053C26.8731 33.6264 26.7281 33.5158 26.6084 33.3798L26.3458 33.0808C26.9673 32.715 27.5506 32.2859 28.0865 31.8001C28.6206 31.3175 29.105 30.781 29.5322 30.1989L29.793 30.4959C29.9124 30.6323 30.0042 30.7912 30.063 30.9636C30.1219 31.136 30.1467 31.3185 30.1361 31.5006C30.1299 31.6086 30.1114 31.7155 30.0812 31.8192C30.0759 31.8344 30.071 31.8495 30.0672 31.8647L30.0681 31.8642ZM21.6557 26.3279C21.6557 26.4837 21.5948 26.633 21.4863 26.7432C21.3778 26.8533 21.2308 26.9152 21.0774 26.9152C20.924 26.9152 20.7769 26.8533 20.6684 26.7432C20.56 26.633 20.4991 26.4837 20.4991 26.3279V25.5752C20.4813 25.187 20.5962 24.8044 20.8244 24.4923C21.07 24.1923 21.3961 23.9713 21.7632 23.8561C22.1057 23.7288 22.4073 23.5086 22.6352 23.2194C22.8631 22.9303 23.0086 22.5831 23.0558 22.2159C23.103 21.8486 23.0501 21.4752 22.9029 21.1363C22.7556 20.7974 22.5197 20.506 22.2208 20.2938C21.9219 20.0816 21.5714 19.9566 21.2074 19.9326C20.8434 19.9085 20.4799 19.9863 20.1564 20.1574C19.8329 20.3285 19.5618 20.5864 19.3726 20.9031C19.1834 21.2197 19.0833 21.583 19.0832 21.9534C19.0883 22.0335 19.0771 22.1139 19.0504 22.1895C19.0237 22.2651 18.9821 22.3343 18.928 22.3929C18.8739 22.4515 18.8085 22.4982 18.736 22.5301C18.6634 22.562 18.5852 22.5785 18.5061 22.5785C18.427 22.5785 18.3487 22.562 18.2762 22.5301C18.2036 22.4982 18.1382 22.4515 18.0842 22.3929C18.0301 22.3343 17.9884 22.2651 17.9617 22.1895C17.935 22.1139 17.9239 22.0335 17.929 21.9534C17.929 21.3691 18.0869 20.7959 18.3854 20.2964C18.6838 19.7968 19.1115 19.3899 19.6219 19.1199C20.1322 18.85 20.7057 18.7273 21.2799 18.7653C21.8541 18.8033 22.4071 19.0004 22.8787 19.3353C23.3502 19.6702 23.7223 20.1299 23.9545 20.6646C24.1866 21.1993 24.27 21.7883 24.1954 22.3677C24.1208 22.9471 23.8912 23.4947 23.5315 23.9508C23.1719 24.4069 22.6959 24.7542 22.1554 24.9547C21.996 24.9993 21.851 25.0859 21.7352 25.2058C21.6703 25.3168 21.6418 25.4458 21.6538 25.5743V26.3279H21.6557ZM20.4991 28.1665C20.4991 28.0107 20.56 27.8614 20.6684 27.7512C20.7769 27.6411 20.924 27.5792 21.0774 27.5792C21.2308 27.5792 21.3778 27.6411 21.4863 27.7512C21.5948 27.8614 21.6557 28.0107 21.6557 28.1665V28.2932C21.6557 28.449 21.5948 28.5984 21.4863 28.7085C21.3778 28.8186 21.2308 28.8805 21.0774 28.8805C20.924 28.8805 20.7769 28.8186 20.6684 28.7085C20.56 28.5984 20.4991 28.449 20.4991 28.2932V28.1665ZM6.78882 5.61363C6.54341 5.36454 6.22053 5.20957 5.87522 5.17512C5.5299 5.14067 5.1835 5.22887 4.89505 5.4247C4.60659 5.62053 4.39393 5.91187 4.2933 6.24907C4.19266 6.58627 4.21029 6.94847 4.34316 7.27396C4.47603 7.59944 4.71594 7.86808 5.022 8.03408C5.32806 8.20008 5.68133 8.25318 6.02162 8.18434C6.36191 8.11549 6.66817 7.92896 6.88821 7.65652C7.10824 7.38408 7.22845 7.0426 7.22833 6.69025C7.22858 6.49023 7.18988 6.29214 7.11445 6.10737C7.03902 5.9226 6.92835 5.7548 6.78882 5.61363ZM4.71124 26.6333C4.46577 26.3841 4.1428 26.229 3.79736 26.1945C3.45191 26.16 3.10538 26.2482 2.81681 26.4441C2.52823 26.64 2.31548 26.9314 2.2148 27.2687C2.11411 27.6061 2.13174 27.9684 2.26466 28.294C2.39758 28.6196 2.63758 28.8883 2.94376 29.0544C3.24994 29.2204 3.60334 29.2735 3.94376 29.2047C4.28417 29.1358 4.59053 28.9491 4.81062 28.6766C5.03071 28.404 5.15092 28.0624 5.15076 27.7099C5.15101 27.5099 5.1123 27.3118 5.03687 27.127C4.96144 26.9423 4.85078 26.7745 4.71124 26.6333ZM11.4625 40.0979C11.0946 39.7243 10.6104 39.4918 10.0926 39.44C9.57472 39.3883 9.05522 39.5204 8.62257 39.814C8.18992 40.1076 7.8709 40.5444 7.71986 41.05C7.56882 41.5557 7.59511 42.0989 7.79425 42.587C7.99339 43.0752 8.35306 43.4781 8.81198 43.7272C9.27089 43.9763 9.80066 44.0561 10.311 43.953C10.8214 43.8499 11.2807 43.5703 11.6108 43.1618C11.9409 42.7533 12.1213 42.2413 12.1213 41.7129C12.1217 41.4129 12.0636 41.1158 11.9506 40.8387C11.8375 40.5615 11.6717 40.3098 11.4625 40.0979ZM40.4107 22.0067C40.1652 21.757 39.8419 21.6015 39.4961 21.5667C39.1503 21.5319 38.8033 21.62 38.5143 21.8159C38.2253 22.0118 38.0121 22.3035 37.9112 22.6411C37.8102 22.9788 37.8277 23.3415 37.9606 23.6676C38.0936 23.9936 38.3338 24.2627 38.6403 24.4291C38.9467 24.5954 39.3005 24.6486 39.6413 24.5797C39.9822 24.5108 40.2889 24.324 40.5092 24.0511C40.7296 23.7782 40.8499 23.4362 40.8497 23.0833C40.8499 22.8834 40.8112 22.6854 40.7358 22.5006C40.6605 22.3159 40.55 22.148 40.4107 22.0067ZM32.2132 2.9661C31.8452 2.59248 31.3611 2.35997 30.8432 2.30819C30.3254 2.25641 29.8059 2.38856 29.3732 2.68213C28.9406 2.9757 28.6216 3.41253 28.4705 3.91818C28.3195 4.42382 28.3458 4.96701 28.5449 5.45518C28.7441 5.94335 29.1037 6.3463 29.5627 6.59537C30.0216 6.84444 30.5513 6.92423 31.0617 6.82113C31.572 6.71803 32.0314 6.43843 32.3615 6.02996C32.6916 5.6215 32.872 5.10944 32.872 4.58104C32.8724 4.28106 32.8144 3.98396 32.7013 3.70681C32.5882 3.42966 32.4224 3.17794 32.2132 2.9661ZM16.0307 31.8485C13.9393 30.4886 12.462 28.3443 11.9208 25.8831L11.9174 25.8664L11.9136 25.8503C11.5873 24.3295 11.633 22.7508 12.0467 21.2521C12.4603 19.7535 13.2294 18.3806 14.2865 17.2536C15.3436 16.1266 16.6565 15.2798 18.1105 14.7874C19.5644 14.2949 21.1151 14.1718 22.6268 14.4287C24.1385 14.6856 25.5651 15.3149 26.7819 16.2613C27.9987 17.2077 28.9685 18.4425 29.6066 19.8576C30.2446 21.2728 30.5315 22.8251 30.442 24.3789C30.3525 25.9326 29.8894 27.4404 29.0932 28.7704C29.085 28.7767 29.0773 28.7836 29.0696 28.7904C28.9818 28.8695 28.92 28.9741 28.8927 29.0899C27.9948 30.4557 26.7669 31.5647 25.3265 32.311C25.2138 32.3268 25.1082 32.3764 25.0234 32.4534L25.0079 32.4681C23.5853 33.133 22.0216 33.4264 20.4589 33.3216C18.8962 33.2167 17.3841 32.7169 16.0601 31.8676L16.0437 31.8564L16.0307 31.8485ZM11.1869 38.5236L14.9459 32.5166C12.9923 31.0932 11.5749 29.0361 10.9276 26.6847L6.30111 27.7172C6.29677 28.3801 6.05172 29.018 5.61291 29.5087C5.1741 29.9994 4.5724 30.3085 3.9231 30.3766C3.2738 30.4448 2.62257 30.2673 2.0942 29.878C1.56582 29.4888 1.19746 28.9153 1.0597 28.2674C0.921946 27.6195 1.02448 26.9427 1.34765 26.3668C1.67082 25.7909 2.19191 25.3563 2.81106 25.1464C3.43021 24.9364 4.10387 24.9658 4.70298 25.229C5.30208 25.4922 5.78448 25.9706 6.05774 26.5726L10.6842 25.5395C10.4188 23.8791 10.5423 22.1786 11.0447 20.5757C11.547 18.9728 12.4141 17.5126 13.5757 16.3133L7.04616 9.03093C6.47833 9.36109 5.81047 9.46681 5.17061 9.32783C4.53076 9.18885 3.96393 8.81494 3.57879 8.27779C3.19365 7.74064 3.01729 7.07804 3.08352 6.41701C3.14976 5.75597 3.45393 5.14302 3.93772 4.69565C4.42151 4.24828 5.05089 3.99797 5.7052 3.99271C6.35951 3.98744 6.99271 4.22759 7.48342 4.66712C7.97413 5.10665 8.28783 5.71463 8.36437 6.37452C8.44091 7.0344 8.27492 7.69976 7.8982 8.24304L14.4263 15.5269C15.9274 14.2867 17.7356 13.4899 19.6529 13.2235C21.5702 12.9571 23.5227 13.2315 25.2966 14.0167L28.5992 7.36119C28.4638 7.25904 28.3359 7.147 28.2166 7.02596C27.6317 6.43066 27.2814 5.63871 27.2316 4.79932C27.1819 3.95992 27.4361 3.13103 27.9465 2.46879C28.4568 1.80655 29.1881 1.35668 30.0024 1.20393C30.8167 1.05119 31.658 1.20611 32.3676 1.63952C33.0772 2.07293 33.6063 2.7549 33.8552 3.55695C34.104 4.359 34.0554 5.22577 33.7185 5.99397C33.3817 6.76216 32.7798 7.37875 32.0263 7.72757C31.2728 8.07639 30.4197 8.13336 29.6277 7.88775L26.3255 14.5433C27.3049 15.1154 28.1872 15.844 28.9385 16.7009C30.4355 18.4003 31.3555 20.5429 31.5631 22.8132L36.7365 22.6052C36.853 21.9523 37.2028 21.3659 37.7187 20.9586C38.2347 20.5513 38.8805 20.3517 39.5324 20.3981C40.1843 20.4445 40.7964 20.7335 41.2514 21.2099C41.7064 21.6863 41.9722 22.3164 41.9979 22.9795C42.0237 23.6426 41.8075 24.292 41.3908 24.8032C40.9741 25.3144 40.3863 25.6515 39.74 25.7498C39.0937 25.8481 38.4344 25.7007 37.8885 25.3359C37.3426 24.9711 36.9486 24.4145 36.7818 23.7729L31.6084 23.9789C31.6064 24.128 31.6011 24.2771 31.5925 24.4262C31.4993 26.1027 31.0189 27.7334 30.1901 29.1863L30.6566 29.7163C30.9079 30.005 31.0921 30.3473 31.1955 30.718C31.2989 31.0887 31.319 31.4782 31.2542 31.8579L36.9698 38.3621C37.3708 38.8318 37.5736 39.443 37.5343 40.0634C37.495 40.6837 37.2168 41.2635 36.7598 41.6771C36.3027 42.0907 35.7037 42.305 35.0923 42.2736C34.4809 42.2422 33.9063 41.9677 33.4927 41.5093L27.7805 35.007C27.683 35.0129 27.5853 35.0129 27.4879 35.007C27.1573 34.9886 26.8336 34.9041 26.5352 34.7584C26.2368 34.6127 25.9697 34.4087 25.7491 34.1579L25.2826 33.6265C23.791 34.2834 22.1701 34.5818 20.5462 34.4983C18.9224 34.4148 17.3394 33.9516 15.9208 33.1449L12.1589 39.153C12.2 39.1908 12.24 39.2295 12.2789 39.2689C12.8738 39.8749 13.2254 40.6839 13.2652 41.5386C13.305 42.3932 13.0302 43.2324 12.4943 43.8926C11.9584 44.5529 11.1997 44.987 10.366 45.1105C9.5322 45.234 8.68301 45.0381 7.98369 44.5608C7.28437 44.0835 6.78497 43.359 6.5827 42.5284C6.38044 41.6978 6.48977 40.8205 6.88943 40.0673C7.28908 39.314 7.95046 38.7387 8.74482 38.4534C9.53917 38.1681 10.4097 38.1931 11.1869 38.5236Z" stroke="url(#paint1_linear_1303_489)" stroke-width="0.4"/>
<defs>
<linearGradient id="paint0_linear_1303_489" x1="1" y1="1.14661" x2="56.5122" y2="8.29175" gradientUnits="userSpaceOnUse">
<stop stop-color="#9342CE"/>
<stop offset="0.514675" stop-color="#6284B6"/>
<stop offset="1" stop-color="#35C29F"/>
</linearGradient>
<linearGradient id="paint1_linear_1303_489" x1="1" y1="1.14661" x2="56.5122" y2="8.29175" gradientUnits="userSpaceOnUse">
<stop stop-color="#9342CE"/>
<stop offset="0.514675" stop-color="#6284B6"/>
<stop offset="1" stop-color="#35C29F"/>
</linearGradient>
</defs>
</svg>
