<svg width="64" height="65" viewBox="0 0 64 65" fill="none" xmlns="http://www.w3.org/2000/svg">
<g id="Root Cause Analyzer">
<circle id="Ellipse" opacity="0.2" cx="33.6008" cy="36.0734" r="12.8" fill="url(#paint0_linear_3088_152916)"/>
<path id="Vector" d="M28.3019 30.4007C28.3019 30.6769 28.5258 30.9007 28.8019 30.9007C29.0781 30.9007 29.3019 30.6769 29.3019 30.4007H28.3019ZM34.9455 32.7224L35.1849 33.1613H35.185L34.9455 32.7224ZM34.4019 33.0189L34.1625 32.5799H34.1625L34.4019 33.0189ZM31.5019 36.9462C31.5019 37.2223 31.7258 37.4462 32.0019 37.4462C32.2781 37.4462 32.5019 37.2223 32.5019 36.9462H31.5019ZM32.5019 39.5643C32.5019 39.2882 32.2781 39.0643 32.0019 39.0643C31.7258 39.0643 31.5019 39.2882 31.5019 39.5643H32.5019ZM31.5019 40.8734C31.5019 41.1496 31.7258 41.3734 32.0019 41.3734C32.2781 41.3734 32.5019 41.1496 32.5019 40.8734H31.5019ZM35.2019 10.4734H34.7019C34.7019 11.9646 33.4931 13.1734 32.0019 13.1734V13.6734V14.1734C34.0454 14.1734 35.7019 12.5169 35.7019 10.4734H35.2019ZM32.0019 13.6734V13.1734C30.5108 13.1734 29.3019 11.9646 29.3019 10.4734H28.8019H28.3019C28.3019 12.5169 29.9585 14.1734 32.0019 14.1734V13.6734ZM28.8019 10.4734H29.3019C29.3019 8.98227 30.5108 7.77344 32.0019 7.77344V7.27344V6.77344C29.9585 6.77344 28.3019 8.42998 28.3019 10.4734H28.8019ZM32.0019 7.27344V7.77344C33.4931 7.77344 34.7019 8.98227 34.7019 10.4734H35.2019H35.7019C35.7019 8.42998 34.0454 6.77344 32.0019 6.77344V7.27344ZM32.0019 13.6734H31.5019V20.0734H32.0019H32.5019V13.6734H32.0019ZM14.203 18.9022L13.953 19.3352C15.2444 20.0808 15.6868 21.732 14.9412 23.0234L15.3742 23.2734L15.8073 23.5234C16.829 21.7538 16.2226 19.4909 14.453 18.4691L14.203 18.9022ZM15.3742 23.2734L14.9412 23.0234C14.1956 24.3148 12.5444 24.7573 11.253 24.0117L11.003 24.4447L10.753 24.8777C12.5226 25.8995 14.7855 25.2931 15.8073 23.5234L15.3742 23.2734ZM11.003 24.4447L11.253 24.0117C9.96157 23.2661 9.51911 21.6148 10.2647 20.3234L9.83168 20.0734L9.39867 19.8234C8.37694 21.5931 8.98328 23.856 10.753 24.8777L11.003 24.4447ZM9.83168 20.0734L10.2647 20.3234C11.0103 19.032 12.6616 18.5896 13.953 19.3352L14.203 18.9022L14.453 18.4691C12.6833 17.4474 10.4204 18.0538 9.39867 19.8234L9.83168 20.0734ZM15.3742 23.2734L15.1242 23.7064L20.6668 26.9064L20.9168 26.4734L21.1668 26.0404L15.6242 22.8404L15.3742 23.2734ZM11.0029 41.3022L11.2529 41.7352C12.5443 40.9896 14.1956 41.4321 14.9411 42.7235L15.3742 42.4735L15.8072 42.2235C14.7854 40.4538 12.5226 39.8475 10.7529 40.8692L11.0029 41.3022ZM15.3742 42.4735L14.9411 42.7235C15.6867 44.0149 15.2443 45.6662 13.9529 46.4118L14.2029 46.8448L14.4529 47.2778C16.2226 46.2561 16.8289 43.9932 15.8072 42.2235L15.3742 42.4735ZM14.2029 46.8448L13.9529 46.4118C12.6615 47.1574 11.0102 46.7149 10.2646 45.4235L9.8316 45.6735L9.39858 45.9235C10.4203 47.6932 12.6832 48.2995 14.4529 47.2778L14.2029 46.8448ZM9.8316 45.6735L10.2646 45.4235C9.51903 44.1321 9.96149 42.4808 11.2529 41.7352L11.0029 41.3022L10.7529 40.8692C8.98319 41.8909 8.37686 44.1538 9.39858 45.9235L9.8316 45.6735ZM15.3742 42.4735L15.6242 42.9065L21.1667 39.7065L20.9167 39.2735L20.6667 38.8405L15.1242 42.0405L15.3742 42.4735ZM35.2019 55.2734H34.7019C34.7019 56.7646 33.4931 57.9734 32.0019 57.9734V58.4734V58.9734C34.0454 58.9734 35.7019 57.3169 35.7019 55.2734H35.2019ZM32.0019 58.4734V57.9734C30.5108 57.9734 29.3019 56.7646 29.3019 55.2734H28.8019H28.3019C28.3019 57.3169 29.9585 58.9734 32.0019 58.9734V58.4734ZM28.8019 55.2734H29.3019C29.3019 53.7823 30.5108 52.5734 32.0019 52.5734V52.0734V51.5734C29.9585 51.5734 28.3019 53.23 28.3019 55.2734H28.8019ZM32.0019 52.0734V52.5734C33.4931 52.5734 34.7019 53.7823 34.7019 55.2734H35.2019H35.7019C35.7019 53.23 34.0454 51.5734 32.0019 51.5734V52.0734ZM32.0019 52.0734H32.5019V45.6734H32.0019H31.5019V52.0734H32.0019ZM53.0009 41.3022L52.7509 41.7352C54.0423 42.4808 54.4847 44.132 53.7392 45.4234L54.1722 45.6734L54.6052 45.9234C55.6269 44.1538 55.0206 41.8909 53.2509 40.8691L53.0009 41.3022ZM54.1722 45.6734L53.7392 45.4234C52.9936 46.7148 51.3423 47.1573 50.0509 46.4117L49.8009 46.8447L49.5509 47.2777C51.3206 48.2995 53.5835 47.6931 54.6052 45.9234L54.1722 45.6734ZM49.8009 46.8447L50.0509 46.4117C48.7595 45.6661 48.317 44.0148 49.0626 42.7234L48.6296 42.4734L48.1966 42.2234C47.1749 43.9931 47.7812 46.256 49.5509 47.2777L49.8009 46.8447ZM48.6296 42.4734L49.0626 42.7234C49.8082 41.432 51.4595 40.9896 52.7509 41.7352L53.0009 41.3022L53.2509 40.8691C51.4812 39.8474 49.2183 40.4538 48.1966 42.2234L48.6296 42.4734ZM48.6296 42.4734L48.8796 42.0404L43.3371 38.8404L43.0871 39.2734L42.8371 39.7064L48.3796 42.9064L48.6296 42.4734ZM49.8009 18.9021L50.0509 19.3352C51.3422 18.5896 52.9935 19.032 53.7391 20.3234L54.1721 20.0734L54.6051 19.8234C53.5834 18.0537 51.3205 17.4474 49.5509 18.4691L49.8009 18.9021ZM54.1721 20.0734L53.7391 20.3234C54.4847 21.6148 54.0422 23.2661 52.7509 24.0117L53.0009 24.4447L53.2509 24.8777C55.0205 23.856 55.6269 21.5931 54.6051 19.8234L54.1721 20.0734ZM53.0009 24.4447L52.7509 24.0117C51.4595 24.7573 49.8082 24.3148 49.0626 23.0234L48.6296 23.2734L48.1966 23.5234C49.2183 25.2931 51.4812 25.8994 53.2509 24.8777L53.0009 24.4447ZM48.6296 23.2734L49.0626 23.0234C48.317 21.732 48.7595 20.0807 50.0509 19.3352L49.8009 18.9021L49.5509 18.4691C47.7812 19.4909 47.1748 21.7537 48.1966 23.5234L48.6296 23.2734ZM48.6296 23.2734L48.3796 22.8404L42.837 26.0404L43.087 26.4734L43.337 26.9064L48.8796 23.7064L48.6296 23.2734ZM44.8019 32.8734H44.3019C44.3019 39.6665 38.795 45.1734 32.0019 45.1734V45.6734V46.1734C39.3473 46.1734 45.3019 40.2188 45.3019 32.8734H44.8019ZM32.0019 45.6734V45.1734C25.2088 45.1734 19.7019 39.6665 19.7019 32.8734H19.2019H18.7019C18.7019 40.2188 24.6565 46.1734 32.0019 46.1734V45.6734ZM19.2019 32.8734H19.7019C19.7019 26.0803 25.2088 20.5734 32.0019 20.5734V20.0734V19.5734C24.6565 19.5734 18.7019 25.528 18.7019 32.8734H19.2019ZM32.0019 20.0734V20.5734C38.795 20.5734 44.3019 26.0803 44.3019 32.8734H44.8019H45.3019C45.3019 25.528 39.3473 19.5734 32.0019 19.5734V20.0734ZM28.8019 30.4007H29.3019V29.7462H28.8019H28.3019V30.4007H28.8019ZM36.8019 29.7462H36.3019V29.8843H36.8019H37.3019V29.7462H36.8019ZM34.9455 32.7224L34.7061 32.2834L34.1625 32.5799L34.4019 33.0189L34.6414 33.4578L35.1849 33.1613L34.9455 32.7224ZM32.0019 36.688H31.5019V36.9462H32.0019H32.5019V36.688H32.0019ZM34.4019 33.0189L34.1625 32.5799C32.5332 33.4687 31.5019 34.9981 31.5019 36.688H32.0019H32.5019C32.5019 35.4291 33.2719 34.2048 34.6414 33.4578L34.4019 33.0189ZM36.8019 29.8843H36.3019C36.3019 30.8093 35.736 31.7217 34.7061 32.2834L34.9455 32.7224L35.185 33.1613C36.4747 32.4579 37.3019 31.2403 37.3019 29.8843H36.8019ZM32.8019 26.4734V26.9734C34.8334 26.9734 36.3019 28.304 36.3019 29.7462H36.8019H37.3019C37.3019 27.5734 35.1887 25.9734 32.8019 25.9734V26.4734ZM28.8019 29.7462H29.3019C29.3019 28.304 30.7704 26.9734 32.8019 26.9734V26.4734V25.9734C30.4151 25.9734 28.3019 27.5734 28.3019 29.7462H28.8019ZM32.0019 39.5643H31.5019V40.8734H32.0019H32.5019V39.5643H32.0019Z" fill="url(#paint1_linear_3088_152916)"/>
</g>
<defs>
<linearGradient id="paint0_linear_3088_152916" x1="33.6008" y1="23.2734" x2="33.6008" y2="48.8734" gradientUnits="userSpaceOnUse">
<stop stop-color="#8C4ACB"/>
<stop offset="1" stop-color="#4BA4AA"/>
</linearGradient>
<linearGradient id="paint1_linear_3088_152916" x1="32.0019" y1="7.27344" x2="32.0019" y2="58.4734" gradientUnits="userSpaceOnUse">
<stop stop-color="#8C4ACB"/>
<stop offset="1" stop-color="#4BA4AA"/>
</linearGradient>
</defs>
</svg>
