<svg width="64" height="64" viewBox="0 0 64 64" fill="none" xmlns="http://www.w3.org/2000/svg">
<g id="SAP Knowledge Transition">
<g id="Group 2147209210">
<path id="Vector" opacity="0.2" d="M39.4651 41.9806C40.0309 41.9806 40.5735 42.1812 40.9736 42.5385C41.3737 42.8957 41.5984 43.3801 41.5984 43.8853C41.5984 45.4008 40.9242 46.8543 39.7239 47.9259C38.5237 48.9976 36.8958 49.5996 35.1984 49.5996C33.5011 49.5996 31.8732 48.9976 30.673 47.9259C29.4727 46.8543 28.7984 45.4008 28.7984 43.8853C28.7985 43.4188 28.9903 42.9685 29.3376 42.6199C29.6848 42.2712 30.1632 42.0485 30.6822 41.9939L30.9318 41.9806H39.4651ZM35.1984 17.5996C37.8849 17.5996 40.5033 18.3543 42.6827 19.7568C44.8621 21.1594 46.492 23.1386 47.3416 25.4141C48.1911 27.6897 48.2172 30.1463 47.4162 32.4358C46.6152 34.7254 45.0276 36.7318 42.8784 38.171C42.5844 38.3682 42.2383 38.4942 41.8736 38.5368L41.5984 38.552H28.7984C28.3368 38.552 27.8877 38.4183 27.5184 38.171C25.3692 36.7318 23.7817 34.7254 22.9807 32.4358C22.1796 30.1463 22.2057 27.6897 23.0553 25.4141C23.9048 23.1386 25.5347 21.1594 27.7141 19.7568C29.8935 18.3543 32.5119 17.5996 35.1984 17.5996Z" fill="url(#paint0_linear_2981_132364)"/>
<path id="Vector_2" d="M4.79922 35.2004C6.10537 47.7775 17.2048 57.6004 30.704 57.6004C44.2032 57.6004 55.3026 47.7775 56.6087 35.2004M56.6087 35.2004L59.1992 45.1559M56.6087 35.2004L48.8373 42.6671M55.9992 28.8004C54.7315 16.2232 43.9585 6.40039 30.8564 6.40039C17.7542 6.40039 6.98124 16.2232 5.71351 28.8004M5.71351 28.8004L3.19922 18.8448M5.71351 28.8004L13.2564 21.3337M36.2659 40.3813C36.8317 40.3813 37.3743 40.582 37.7744 40.9392C38.1745 41.2964 38.3992 41.7809 38.3992 42.2861C38.3992 43.8016 37.7249 45.2551 36.5247 46.3267C35.3245 47.3984 33.6966 48.0004 31.9992 48.0004C30.3018 48.0004 28.674 47.3984 27.4737 46.3267C26.2735 45.2551 25.5992 43.8016 25.5992 42.2861C25.5993 41.8196 25.7911 41.3693 26.1383 41.0206C26.4856 40.672 26.964 40.4493 27.483 40.3947L27.7326 40.3813H36.2659ZM31.9992 16.0004C34.6857 16.0004 37.3041 16.7551 39.4835 18.1576C41.6629 19.5601 43.2928 21.5394 44.1424 23.8149C44.9919 26.0905 45.018 28.547 44.217 30.8366C43.416 33.1261 41.8284 35.1326 39.6792 36.5718C39.3852 36.769 39.0391 36.895 38.6744 36.9375L38.3992 36.9528H25.5992C25.1376 36.9528 24.6885 36.8191 24.3192 36.5718C22.17 35.1326 20.5825 33.1261 19.7814 30.8366C18.9804 28.547 19.0065 26.0905 19.8561 23.8149C20.7056 21.5394 22.3355 19.5601 24.5149 18.1576C26.6943 16.7551 29.3127 16.0004 31.9992 16.0004Z" stroke="url(#paint1_linear_2981_132364)" stroke-linecap="round" stroke-linejoin="round"/>
</g>
</g>
<defs>
<linearGradient id="paint0_linear_2981_132364" x1="35.1984" y1="17.5996" x2="35.1984" y2="49.5996" gradientUnits="userSpaceOnUse">
<stop stop-color="#8C4ACB"/>
<stop offset="1" stop-color="#4BA4AA"/>
</linearGradient>
<linearGradient id="paint1_linear_2981_132364" x1="31.1992" y1="6.40039" x2="31.1992" y2="57.6004" gradientUnits="userSpaceOnUse">
<stop stop-color="#8C4ACB"/>
<stop offset="1" stop-color="#4BA4AA"/>
</linearGradient>
</defs>
</svg>
