<svg width="64" height="64" viewBox="0 0 64 64" fill="none" xmlns="http://www.w3.org/2000/svg">
<g id="SAP Process Design">
<rect id="Rectangle" opacity="0.2" x="48" y="48" width="25.6" height="25.6" rx="2" transform="rotate(180 48 48)" fill="url(#paint0_linear_2981_132289)"/>
<path id="Vector" d="M34.1604 6.81621L34.1121 7.31387L34.1604 6.81621ZM41.9741 8.80857L42.2128 9.24791L42.6517 9.00945L42.4137 8.57031L41.9741 8.80857ZM5.63817 34.6905L5.89488 34.2614L5.47687 34.0113L5.21595 34.4227L5.63817 34.6905ZM47.1832 52.5105H46.6832V53.0105H47.1832V52.5105ZM31.5558 6.69052V7.19052C32.4187 7.19052 33.2714 7.2323 34.1121 7.31387L34.1604 6.81621L34.2087 6.31854C33.336 6.23386 32.451 6.19052 31.5558 6.19052V6.69052ZM6.03087 27.0542L6.52042 27.1559C8.88488 15.7721 19.1889 7.19052 31.5558 7.19052V6.69052V6.19052C18.7211 6.19052 8.00338 15.0988 5.54132 26.9525L6.03087 27.0542ZM34.1604 6.81621L34.1121 7.31387C36.8137 7.57601 39.391 8.24924 41.7778 9.2684L41.9741 8.80857L42.1705 8.34873C39.6907 7.28985 37.0136 6.59071 34.2087 6.31854L34.1604 6.81621ZM41.9741 8.80857L41.7354 8.36923L33.9213 12.6148L34.16 13.0542L34.3987 13.4935L42.2128 9.24791L41.9741 8.80857ZM41.9741 8.80857L42.4137 8.57031L38.5064 1.36135L38.0668 1.59961L37.6273 1.83787L41.5346 9.04682L41.9741 8.80857ZM39.3693 56.4343L39.2225 55.9563C36.803 56.699 34.2276 57.0996 31.5555 57.0996V57.5996V58.0996C34.328 58.0996 37.0022 57.6839 39.516 56.9123L39.3693 56.4343ZM31.5555 57.5996V57.0996C18.2996 57.0996 7.41579 47.2411 6.13561 34.6399L5.63817 34.6905L5.14073 34.741C6.47412 47.8659 17.7999 58.0996 31.5555 58.0996V57.5996ZM5.63817 34.6905L5.21595 34.4227L1.17934 40.7863L1.60156 41.0541L2.02378 41.322L6.06039 34.9583L5.63817 34.6905ZM5.63817 34.6905L5.38146 35.1196L11.7632 38.9377L12.0199 38.5087L12.2766 38.0796L5.89488 34.2614L5.63817 34.6905ZM47.1858 11.7814L46.8898 12.1844C53.0942 16.74 57.1016 23.987 57.1016 32.145H57.6016H58.1016C58.1016 23.6497 53.927 16.1108 47.4817 11.3783L47.1858 11.7814ZM57.6016 32.145H57.1016C57.1016 40.3041 53.0931 47.5519 46.8873 52.1075L47.1832 52.5105L47.4791 52.9136C53.9258 48.1812 58.1016 40.6415 58.1016 32.145H57.6016ZM47.1832 52.5105V53.0105H54.997V52.5105V52.0105H47.1832V52.5105ZM47.1832 52.5105H47.6832V44.8723H47.1832H46.6832V52.5105H47.1832ZM41.6016 44.7996V44.2996H22.4016V44.7996V45.2996H41.6016V44.7996ZM19.2016 41.5996H19.7016V22.3996H19.2016H18.7016V41.5996H19.2016ZM22.4016 19.1996V19.6996H41.6016V19.1996V18.6996H22.4016V19.1996ZM44.8016 22.3996H44.3016V41.5996H44.8016H45.3016V22.3996H44.8016ZM41.6016 19.1996V19.6996C43.0927 19.6996 44.3016 20.9084 44.3016 22.3996H44.8016H45.3016C45.3016 20.3562 43.645 18.6996 41.6016 18.6996V19.1996ZM19.2016 22.3996H19.7016C19.7016 20.9084 20.9104 19.6996 22.4016 19.6996V19.1996V18.6996C20.3581 18.6996 18.7016 20.3562 18.7016 22.3996H19.2016ZM22.4016 44.7996V44.2996C20.9104 44.2996 19.7016 43.0908 19.7016 41.5996H19.2016H18.7016C18.7016 43.6431 20.3581 45.2996 22.4016 45.2996V44.7996ZM41.6016 44.7996V45.2996C43.645 45.2996 45.3016 43.6431 45.3016 41.5996H44.8016H44.3016C44.3016 43.0908 43.0927 44.2996 41.6016 44.2996V44.7996Z" fill="url(#paint1_linear_2981_132289)"/>
</g>
<defs>
<linearGradient id="paint0_linear_2981_132289" x1="60.8" y1="48" x2="60.8" y2="73.6" gradientUnits="userSpaceOnUse">
<stop stop-color="#8C4ACB"/>
<stop offset="1" stop-color="#4BA4AA"/>
</linearGradient>
<linearGradient id="paint1_linear_2981_132289" x1="29.6016" y1="1.59961" x2="29.6016" y2="57.5996" gradientUnits="userSpaceOnUse">
<stop stop-color="#8C4ACB"/>
<stop offset="1" stop-color="#4BA4AA"/>
</linearGradient>
</defs>
</svg>
