<svg width="64" height="65" viewBox="0 0 64 65" fill="none" xmlns="http://www.w3.org/2000/svg">
<g id="SAP Reverse Engineering">
<path id="Vector" opacity="0.2" d="M37.7464 28.4609C36.0899 27.7565 34.4269 27.7422 32.7574 28.4179C31.0879 29.0937 29.9015 30.2613 29.1984 31.9208C28.4952 33.5803 28.481 35.2463 29.1555 36.9189C29.83 38.5915 30.9955 39.78 32.652 40.4844C34.3085 41.1888 35.9715 41.2032 37.641 40.5274C39.3106 39.8516 40.4969 38.684 41.2001 37.0245C41.9032 35.365 41.9175 33.699 41.2429 32.0264C40.5684 30.3538 39.4029 29.1653 37.7464 28.4609ZM39.4341 18.5362L43.7707 20.3803C43.9269 20.4467 44.0561 20.5663 44.1581 20.739C44.2601 20.9118 44.2891 21.0719 44.245 21.2194L43.2654 25.0986C43.7393 25.5034 44.227 26.0064 44.7285 26.6076C45.7041 26.3943 46.9012 26.0719 48.3196 25.6405C48.538 25.604 48.7175 25.6156 48.8581 25.6754C49.0456 25.7552 49.1709 25.8731 49.2338 26.0292C49.5501 26.5887 49.9758 27.5318 50.5109 28.8588C51.046 30.1857 51.2506 30.9979 51.1246 31.2953C51.0516 31.4675 50.9272 31.6086 50.7515 31.7187L47.4976 33.5221C47.5491 34.2277 47.5359 34.9334 47.4581 35.6394C49.0729 36.5293 50.2077 37.2244 50.8626 37.7246C51.1912 37.9936 51.2792 38.3082 51.1267 38.6683L49.276 43.0362C49.203 43.2084 49.0781 43.3401 48.9012 43.4311C48.7242 43.5222 48.5543 43.5423 48.3914 43.4915L44.5762 42.5065C44.1943 42.9723 43.7034 43.4564 43.1032 43.9588L44.0154 47.617C44.0783 47.7731 44.0667 47.9529 43.9804 48.1564C43.9075 48.3286 43.7753 48.4664 43.584 48.5698C40.5504 49.9404 38.8226 50.5359 38.4006 50.3565C38.26 50.2967 38.1348 50.1788 38.0249 50.0027C37.8725 49.7532 37.5943 49.2561 37.1905 48.5116C36.7867 47.7671 36.4659 47.1965 36.2283 46.7998C35.3881 46.8675 34.6313 46.869 33.9579 46.8044L31.8829 50.1346C31.8009 50.2845 31.6703 50.386 31.4911 50.4391C31.3118 50.4922 31.1362 50.4822 30.9643 50.4091L26.6278 48.565C26.4715 48.4986 26.3424 48.379 26.2403 48.2063C26.1383 48.0336 26.1093 47.8734 26.1534 47.7259L27.1331 43.8467C26.6591 43.4419 26.1714 42.9389 25.67 42.3377C24.6943 42.551 23.4973 42.8734 22.0788 43.3048C21.8605 43.3413 21.681 43.3297 21.5403 43.2699C21.3528 43.1901 21.2197 43.0689 21.1412 42.9061C20.8183 42.3623 20.3948 41.4247 19.8708 40.0933C19.3468 38.7619 19.1478 37.9475 19.2739 37.65C19.3468 37.4778 19.4712 37.3367 19.6469 37.2266L22.9008 35.4232C22.8451 34.7713 22.8504 34.0622 22.9169 33.296C21.3021 32.406 20.1751 31.7143 19.5359 31.2208C19.2072 30.9517 19.1192 30.6371 19.2718 30.277L21.1225 25.9091C21.1954 25.7369 21.3204 25.6053 21.4973 25.5142C21.6742 25.4231 21.8441 25.403 22.007 25.4538L25.8223 26.4388C26.2041 25.973 26.6951 25.4889 27.2952 24.9866L26.3831 21.3284C26.3268 21.1566 26.3384 20.9768 26.418 20.7889C26.491 20.6167 26.6231 20.4789 26.8145 20.3755C29.8481 19.0049 31.5759 18.4094 31.9978 18.5888C32.1228 18.642 32.2481 18.7599 32.3735 18.9426C32.544 19.2368 32.8266 19.745 33.2214 20.4671C33.6163 21.1893 33.9358 21.741 34.1801 22.122C35.0828 22.0809 35.8363 22.0872 36.4406 22.1409L38.4921 18.8007C38.5897 18.6575 38.7281 18.5593 38.9074 18.5062C39.0866 18.4531 39.2622 18.4631 39.4341 18.5362Z" fill="url(#paint0_linear_3088_152890)"/>
<path id="Vector_2" d="M8.60654 30.3134C9.83868 17.3769 20.3092 7.27344 33.0434 7.27344C46.6065 7.27344 57.6016 18.7349 57.6016 32.8734C57.6016 47.0119 46.6065 58.4734 33.0434 58.4734C21.6003 58.4734 11.9852 50.3149 9.25897 39.2734M8.60654 30.3134L14.2527 26.7934M8.60654 30.3134L5.60156 24.8734M34.5488 26.8617C32.8923 26.1573 31.2293 26.1429 29.5597 26.8187C27.8902 27.4945 26.7039 28.6621 26.0007 30.3216C25.2976 31.9811 25.2833 33.6471 25.9578 35.3197C26.6324 36.9923 27.7979 38.1808 29.4544 38.8852C31.1108 39.5896 32.7738 39.6039 34.4434 38.9282C36.1129 38.2524 37.2993 37.0848 38.0024 35.4253C38.7055 33.7658 38.7198 32.0997 38.0453 30.4272C37.3708 28.7546 36.2052 27.5661 34.5488 26.8617ZM36.2365 16.9369L40.573 18.7811C40.7293 18.8475 40.8584 18.9671 40.9604 19.1398C41.0625 19.3125 41.0914 19.4727 41.0474 19.6202L40.0677 23.4994C40.5417 23.9042 41.0294 24.4072 41.5308 25.0084C42.5064 24.7951 43.7035 24.4727 45.122 24.0413C45.3403 24.0048 45.5198 24.0164 45.6605 24.0762C45.848 24.156 45.9732 24.2739 46.0362 24.43C46.3524 24.9894 46.7781 25.9326 47.3133 27.2595C47.8484 28.5864 48.0529 29.3986 47.9269 29.6961C47.8539 29.8683 47.7296 30.0094 47.5539 30.1195L44.2999 31.9229C44.3514 32.6284 44.3383 33.3342 44.2605 34.0402C45.8752 34.9301 47.0101 35.6251 47.6649 36.1253C47.9935 36.3944 48.0816 36.709 47.929 37.0691L46.0783 41.437C46.0053 41.6092 45.8804 41.7408 45.7035 41.8319C45.5266 41.923 45.3567 41.9431 45.1938 41.8923L41.3785 40.9073C40.9967 41.3731 40.5057 41.8572 39.9056 42.3595L40.8177 46.0177C40.8807 46.1738 40.869 46.3537 40.7828 46.5572C40.7098 46.7294 40.5777 46.8672 40.3863 46.9706C37.3527 48.3412 35.6249 48.9367 35.203 48.7573C35.0623 48.6975 34.9371 48.5796 34.8273 48.4035C34.6748 48.1539 34.3967 47.6569 33.9929 46.9124C33.589 46.1679 33.2683 45.5973 33.0306 45.2006C32.1905 45.2683 31.4337 45.2698 30.7602 45.2052L28.6852 48.5354C28.6033 48.6853 28.4727 48.7868 28.2934 48.8399C28.1141 48.893 27.9386 48.883 27.7667 48.8099L23.4301 46.9658C23.2739 46.8994 23.1447 46.7798 23.0427 46.6071C22.9407 46.4343 22.9117 46.2742 22.9557 46.1267L23.9354 42.2475C23.4614 41.8427 22.9737 41.3397 22.4723 40.7385C21.4967 40.9518 20.2996 41.2742 18.8811 41.7056C18.6628 41.7421 18.4833 41.7305 18.3427 41.6706C18.1551 41.5909 18.0221 41.4697 17.9435 41.3069C17.6206 40.7631 17.1972 39.8255 16.6732 38.4941C16.1492 37.1627 15.9502 36.3482 16.0762 36.0508C16.1492 35.8786 16.2735 35.7374 16.4493 35.6274L19.7032 33.8239C19.6474 33.172 19.6528 32.463 19.7192 31.6967C18.1045 30.8068 16.9775 30.1151 16.3382 29.6215C16.0096 29.3525 15.9216 29.0379 16.0741 28.6778L17.9248 24.3099C17.9978 24.1377 18.1227 24.006 18.2996 23.915C18.4765 23.8239 18.6464 23.8038 18.8093 23.8546L22.6246 24.8396C23.0064 24.3737 23.4974 23.8897 24.0975 23.3873L23.1854 19.7291C23.1291 19.5574 23.1407 19.3776 23.2203 19.1897C23.2933 19.0175 23.4255 18.8797 23.6168 18.7763C26.6504 17.4057 28.3782 16.8101 28.8001 16.9896C28.9252 17.0427 29.0504 17.1607 29.1759 17.3433C29.3463 17.6375 29.6289 18.1457 30.0238 18.8679C30.4186 19.5901 30.7382 20.1417 30.9825 20.5228C31.8851 20.4817 32.6386 20.488 33.2429 20.5417L35.2944 17.2015C35.392 17.0582 35.5305 16.9601 35.7097 16.907C35.889 16.8539 36.0646 16.8638 36.2365 16.9369Z" stroke="url(#paint1_linear_3088_152890)" stroke-linecap="round" stroke-linejoin="round"/>
</g>
<defs>
<linearGradient id="paint0_linear_3088_152890" x1="35.1992" y1="18.4727" x2="35.1992" y2="50.4727" gradientUnits="userSpaceOnUse">
<stop stop-color="#8C4ACB"/>
<stop offset="1" stop-color="#4BA4AA"/>
</linearGradient>
<linearGradient id="paint1_linear_3088_152890" x1="31.2016" y1="58.4734" x2="31.2016" y2="7.27344" gradientUnits="userSpaceOnUse">
<stop stop-color="#9342CE"/>
<stop offset="1" stop-color="#4BA4AA"/>
</linearGradient>
</defs>
</svg>
