<svg width="39" height="41" viewBox="0 0 39 41" fill="none" xmlns="http://www.w3.org/2000/svg">
<path d="M34.8202 0.146606H4.93258C3.8896 0.146606 2.88933 0.585593 2.15183 1.36699C1.41432 2.1484 1 3.2082 1 4.31327L1 35.9799C1 36.5271 1.10172 37.0689 1.29935 37.5745C1.49698 38.08 1.78665 38.5393 2.15183 38.9262C2.517 39.3131 2.95053 39.62 3.42765 39.8294C3.90477 40.0388 4.41615 40.1466 4.93258 40.1466H34.8202C35.3367 40.1466 35.848 40.0388 36.3252 39.8294C36.8023 39.62 37.2358 39.3131 37.601 38.9262C37.9662 38.5393 38.2558 38.08 38.4535 37.5745C38.6511 37.0689 38.7528 36.5271 38.7528 35.9799V4.31327C38.7528 3.7661 38.6511 3.22428 38.4535 2.71876C38.2558 2.21324 37.9662 1.75391 37.601 1.36699C37.2358 0.980084 36.8023 0.67317 36.3252 0.463775C35.848 0.25438 35.3367 0.146606 34.8202 0.146606ZM4.93258 1.81327H34.8202C35.446 1.81327 36.0462 2.07667 36.4887 2.54551C36.9312 3.01435 37.1798 3.65023 37.1798 4.31327V6.81327H2.57303V4.31327C2.57303 3.65023 2.82163 3.01435 3.26413 2.54551C3.70663 2.07667 4.30679 1.81327 4.93258 1.81327ZM34.8202 38.4799H4.93258C4.30679 38.4799 3.70663 38.2165 3.26413 37.7477C2.82163 37.2789 2.57303 36.643 2.57303 35.9799V8.47994H37.1798V35.9799C37.1798 36.643 36.9312 37.2789 36.4887 37.7477C36.0462 38.2165 35.446 38.4799 34.8202 38.4799Z" fill="#EAEAEA"/>
<path d="M34.8202 0.146606H4.93258C3.8896 0.146606 2.88933 0.585593 2.15183 1.36699C1.41432 2.1484 1 3.2082 1 4.31327L1 35.9799C1 36.5271 1.10172 37.0689 1.29935 37.5745C1.49698 38.08 1.78665 38.5393 2.15183 38.9262C2.517 39.3131 2.95053 39.62 3.42765 39.8294C3.90477 40.0388 4.41615 40.1466 4.93258 40.1466H34.8202C35.3367 40.1466 35.848 40.0388 36.3252 39.8294C36.8023 39.62 37.2358 39.3131 37.601 38.9262C37.9662 38.5393 38.2558 38.08 38.4535 37.5745C38.6511 37.0689 38.7528 36.5271 38.7528 35.9799V4.31327C38.7528 3.7661 38.6511 3.22428 38.4535 2.71876C38.2558 2.21324 37.9662 1.75391 37.601 1.36699C37.2358 0.980084 36.8023 0.67317 36.3252 0.463775C35.848 0.25438 35.3367 0.146606 34.8202 0.146606ZM4.93258 1.81327H34.8202C35.446 1.81327 36.0462 2.07667 36.4887 2.54551C36.9312 3.01435 37.1798 3.65023 37.1798 4.31327V6.81327H2.57303V4.31327C2.57303 3.65023 2.82163 3.01435 3.26413 2.54551C3.70663 2.07667 4.30679 1.81327 4.93258 1.81327ZM34.8202 38.4799H4.93258C4.30679 38.4799 3.70663 38.2165 3.26413 37.7477C2.82163 37.2789 2.57303 36.643 2.57303 35.9799V8.47994H37.1798V35.9799C37.1798 36.643 36.9312 37.2789 36.4887 37.7477C36.0462 38.2165 35.446 38.4799 34.8202 38.4799Z" fill="url(#paint0_linear_1303_369)"/>
<path d="M34.8202 0.146606H4.93258C3.8896 0.146606 2.88933 0.585593 2.15183 1.36699C1.41432 2.1484 1 3.2082 1 4.31327L1 35.9799C1 36.5271 1.10172 37.0689 1.29935 37.5745C1.49698 38.08 1.78665 38.5393 2.15183 38.9262C2.517 39.3131 2.95053 39.62 3.42765 39.8294C3.90477 40.0388 4.41615 40.1466 4.93258 40.1466H34.8202C35.3367 40.1466 35.848 40.0388 36.3252 39.8294C36.8023 39.62 37.2358 39.3131 37.601 38.9262C37.9662 38.5393 38.2558 38.08 38.4535 37.5745C38.6511 37.0689 38.7528 36.5271 38.7528 35.9799V4.31327C38.7528 3.7661 38.6511 3.22428 38.4535 2.71876C38.2558 2.21324 37.9662 1.75391 37.601 1.36699C37.2358 0.980084 36.8023 0.67317 36.3252 0.463775C35.848 0.25438 35.3367 0.146606 34.8202 0.146606ZM4.93258 1.81327H34.8202C35.446 1.81327 36.0462 2.07667 36.4887 2.54551C36.9312 3.01435 37.1798 3.65023 37.1798 4.31327V6.81327H2.57303V4.31327C2.57303 3.65023 2.82163 3.01435 3.26413 2.54551C3.70663 2.07667 4.30679 1.81327 4.93258 1.81327ZM34.8202 38.4799H4.93258C4.30679 38.4799 3.70663 38.2165 3.26413 37.7477C2.82163 37.2789 2.57303 36.643 2.57303 35.9799V8.47994H37.1798V35.9799C37.1798 36.643 36.9312 37.2789 36.4887 37.7477C36.0462 38.2165 35.446 38.4799 34.8202 38.4799Z" stroke="#EAEAEA" stroke-width="0.3"/>
<path d="M34.8202 0.146606H4.93258C3.8896 0.146606 2.88933 0.585593 2.15183 1.36699C1.41432 2.1484 1 3.2082 1 4.31327L1 35.9799C1 36.5271 1.10172 37.0689 1.29935 37.5745C1.49698 38.08 1.78665 38.5393 2.15183 38.9262C2.517 39.3131 2.95053 39.62 3.42765 39.8294C3.90477 40.0388 4.41615 40.1466 4.93258 40.1466H34.8202C35.3367 40.1466 35.848 40.0388 36.3252 39.8294C36.8023 39.62 37.2358 39.3131 37.601 38.9262C37.9662 38.5393 38.2558 38.08 38.4535 37.5745C38.6511 37.0689 38.7528 36.5271 38.7528 35.9799V4.31327C38.7528 3.7661 38.6511 3.22428 38.4535 2.71876C38.2558 2.21324 37.9662 1.75391 37.601 1.36699C37.2358 0.980084 36.8023 0.67317 36.3252 0.463775C35.848 0.25438 35.3367 0.146606 34.8202 0.146606ZM4.93258 1.81327H34.8202C35.446 1.81327 36.0462 2.07667 36.4887 2.54551C36.9312 3.01435 37.1798 3.65023 37.1798 4.31327V6.81327H2.57303V4.31327C2.57303 3.65023 2.82163 3.01435 3.26413 2.54551C3.70663 2.07667 4.30679 1.81327 4.93258 1.81327ZM34.8202 38.4799H4.93258C4.30679 38.4799 3.70663 38.2165 3.26413 37.7477C2.82163 37.2789 2.57303 36.643 2.57303 35.9799V8.47994H37.1798V35.9799C37.1798 36.643 36.9312 37.2789 36.4887 37.7477C36.0462 38.2165 35.446 38.4799 34.8202 38.4799Z" stroke="url(#paint1_linear_1303_369)" stroke-width="0.3"/>
<path d="M34.821 5.14519C35.0296 5.16729 35.2379 5.10069 35.4002 4.96004C35.5624 4.81939 35.6653 4.6162 35.6862 4.39519C35.707 4.17418 35.6442 3.95344 35.5114 3.78153C35.3787 3.60962 35.1869 3.50063 34.9783 3.47852C34.7697 3.45642 34.5613 3.52302 34.3991 3.66368C34.2368 3.80433 34.134 4.00751 34.1131 4.22852C34.0923 4.44954 34.1551 4.67028 34.2879 4.84219C34.4206 5.0141 34.6124 5.12309 34.821 5.14519Z" fill="#EAEAEA"/>
<path d="M34.821 5.14519C35.0296 5.16729 35.2379 5.10069 35.4002 4.96004C35.5624 4.81939 35.6653 4.6162 35.6862 4.39519C35.707 4.17418 35.6442 3.95344 35.5114 3.78153C35.3787 3.60962 35.1869 3.50063 34.9783 3.47852C34.7697 3.45642 34.5613 3.52302 34.3991 3.66368C34.2368 3.80433 34.134 4.00751 34.1131 4.22852C34.0923 4.44954 34.1551 4.67028 34.2879 4.84219C34.4206 5.0141 34.6124 5.12309 34.821 5.14519Z" fill="url(#paint2_linear_1303_369)"/>
<path d="M34.821 5.14519C35.0296 5.16729 35.2379 5.10069 35.4002 4.96004C35.5624 4.81939 35.6653 4.6162 35.6862 4.39519C35.707 4.17418 35.6442 3.95344 35.5114 3.78153C35.3787 3.60962 35.1869 3.50063 34.9783 3.47852C34.7697 3.45642 34.5613 3.52302 34.3991 3.66368C34.2368 3.80433 34.134 4.00751 34.1131 4.22852C34.0923 4.44954 34.1551 4.67028 34.2879 4.84219C34.4206 5.0141 34.6124 5.12309 34.821 5.14519Z" stroke="#EAEAEA" stroke-width="0.3"/>
<path d="M34.821 5.14519C35.0296 5.16729 35.2379 5.10069 35.4002 4.96004C35.5624 4.81939 35.6653 4.6162 35.6862 4.39519C35.707 4.17418 35.6442 3.95344 35.5114 3.78153C35.3787 3.60962 35.1869 3.50063 34.9783 3.47852C34.7697 3.45642 34.5613 3.52302 34.3991 3.66368C34.2368 3.80433 34.134 4.00751 34.1131 4.22852C34.0923 4.44954 34.1551 4.67028 34.2879 4.84219C34.4206 5.0141 34.6124 5.12309 34.821 5.14519Z" stroke="url(#paint3_linear_1303_369)" stroke-width="0.3"/>
<path d="M31.675 5.14519C31.8836 5.16729 32.092 5.10069 32.2542 4.96004C32.4165 4.81939 32.5194 4.6162 32.5402 4.39519C32.5611 4.17418 32.4982 3.95344 32.3655 3.78153C32.2327 3.60962 32.0409 3.50063 31.8324 3.47852C31.6238 3.45642 31.4154 3.52302 31.2532 3.66368C31.0909 3.80433 30.988 4.00751 30.9672 4.22852C30.9463 4.44954 31.0092 4.67028 31.1419 4.84219C31.2747 5.0141 31.4665 5.12309 31.675 5.14519Z" fill="#EAEAEA"/>
<path d="M31.675 5.14519C31.8836 5.16729 32.092 5.10069 32.2542 4.96004C32.4165 4.81939 32.5194 4.6162 32.5402 4.39519C32.5611 4.17418 32.4982 3.95344 32.3655 3.78153C32.2327 3.60962 32.0409 3.50063 31.8324 3.47852C31.6238 3.45642 31.4154 3.52302 31.2532 3.66368C31.0909 3.80433 30.988 4.00751 30.9672 4.22852C30.9463 4.44954 31.0092 4.67028 31.1419 4.84219C31.2747 5.0141 31.4665 5.12309 31.675 5.14519Z" fill="url(#paint4_linear_1303_369)"/>
<path d="M31.675 5.14519C31.8836 5.16729 32.092 5.10069 32.2542 4.96004C32.4165 4.81939 32.5194 4.6162 32.5402 4.39519C32.5611 4.17418 32.4982 3.95344 32.3655 3.78153C32.2327 3.60962 32.0409 3.50063 31.8324 3.47852C31.6238 3.45642 31.4154 3.52302 31.2532 3.66368C31.0909 3.80433 30.988 4.00751 30.9672 4.22852C30.9463 4.44954 31.0092 4.67028 31.1419 4.84219C31.2747 5.0141 31.4665 5.12309 31.675 5.14519Z" stroke="#EAEAEA" stroke-width="0.3"/>
<path d="M31.675 5.14519C31.8836 5.16729 32.092 5.10069 32.2542 4.96004C32.4165 4.81939 32.5194 4.6162 32.5402 4.39519C32.5611 4.17418 32.4982 3.95344 32.3655 3.78153C32.2327 3.60962 32.0409 3.50063 31.8324 3.47852C31.6238 3.45642 31.4154 3.52302 31.2532 3.66368C31.0909 3.80433 30.988 4.00751 30.9672 4.22852C30.9463 4.44954 31.0092 4.67028 31.1419 4.84219C31.2747 5.0141 31.4665 5.12309 31.675 5.14519Z" stroke="url(#paint5_linear_1303_369)" stroke-width="0.3"/>
<path d="M28.5287 5.14519C28.7373 5.16729 28.9456 5.10069 29.1079 4.96004C29.2701 4.81939 29.373 4.6162 29.3939 4.39519C29.4147 4.17418 29.3519 3.95344 29.2191 3.78153C29.0864 3.60962 28.8946 3.50063 28.686 3.47852C28.4774 3.45642 28.2691 3.52302 28.1068 3.66368C27.9446 3.80433 27.8417 4.00751 27.8208 4.22852C27.8 4.44954 27.8628 4.67028 27.9956 4.84219C28.1283 5.0141 28.3201 5.12309 28.5287 5.14519Z" fill="#EAEAEA"/>
<path d="M28.5287 5.14519C28.7373 5.16729 28.9456 5.10069 29.1079 4.96004C29.2701 4.81939 29.373 4.6162 29.3939 4.39519C29.4147 4.17418 29.3519 3.95344 29.2191 3.78153C29.0864 3.60962 28.8946 3.50063 28.686 3.47852C28.4774 3.45642 28.2691 3.52302 28.1068 3.66368C27.9446 3.80433 27.8417 4.00751 27.8208 4.22852C27.8 4.44954 27.8628 4.67028 27.9956 4.84219C28.1283 5.0141 28.3201 5.12309 28.5287 5.14519Z" fill="url(#paint6_linear_1303_369)"/>
<path d="M28.5287 5.14519C28.7373 5.16729 28.9456 5.10069 29.1079 4.96004C29.2701 4.81939 29.373 4.6162 29.3939 4.39519C29.4147 4.17418 29.3519 3.95344 29.2191 3.78153C29.0864 3.60962 28.8946 3.50063 28.686 3.47852C28.4774 3.45642 28.2691 3.52302 28.1068 3.66368C27.9446 3.80433 27.8417 4.00751 27.8208 4.22852C27.8 4.44954 27.8628 4.67028 27.9956 4.84219C28.1283 5.0141 28.3201 5.12309 28.5287 5.14519Z" stroke="#EAEAEA" stroke-width="0.3"/>
<path d="M28.5287 5.14519C28.7373 5.16729 28.9456 5.10069 29.1079 4.96004C29.2701 4.81939 29.373 4.6162 29.3939 4.39519C29.4147 4.17418 29.3519 3.95344 29.2191 3.78153C29.0864 3.60962 28.8946 3.50063 28.686 3.47852C28.4774 3.45642 28.2691 3.52302 28.1068 3.66368C27.9446 3.80433 27.8417 4.00751 27.8208 4.22852C27.8 4.44954 27.8628 4.67028 27.9956 4.84219C28.1283 5.0141 28.3201 5.12309 28.5287 5.14519Z" stroke="url(#paint7_linear_1303_369)" stroke-width="0.3"/>
<path d="M4.93245 5.14665H19.0898C19.2984 5.14665 19.4984 5.05885 19.6459 4.90257C19.7934 4.74629 19.8763 4.53433 19.8763 4.31331C19.8763 4.0923 19.7934 3.88034 19.6459 3.72406C19.4984 3.56778 19.2984 3.47998 19.0898 3.47998H4.93245C4.72385 3.47998 4.5238 3.56778 4.3763 3.72406C4.2288 3.88034 4.14594 4.0923 4.14594 4.31331C4.14594 4.53433 4.2288 4.74629 4.3763 4.90257C4.5238 5.05885 4.72385 5.14665 4.93245 5.14665Z" fill="#EAEAEA"/>
<path d="M4.93245 5.14665H19.0898C19.2984 5.14665 19.4984 5.05885 19.6459 4.90257C19.7934 4.74629 19.8763 4.53433 19.8763 4.31331C19.8763 4.0923 19.7934 3.88034 19.6459 3.72406C19.4984 3.56778 19.2984 3.47998 19.0898 3.47998H4.93245C4.72385 3.47998 4.5238 3.56778 4.3763 3.72406C4.2288 3.88034 4.14594 4.0923 4.14594 4.31331C4.14594 4.53433 4.2288 4.74629 4.3763 4.90257C4.5238 5.05885 4.72385 5.14665 4.93245 5.14665Z" fill="url(#paint8_linear_1303_369)"/>
<path d="M4.93245 5.14665H19.0898C19.2984 5.14665 19.4984 5.05885 19.6459 4.90257C19.7934 4.74629 19.8763 4.53433 19.8763 4.31331C19.8763 4.0923 19.7934 3.88034 19.6459 3.72406C19.4984 3.56778 19.2984 3.47998 19.0898 3.47998H4.93245C4.72385 3.47998 4.5238 3.56778 4.3763 3.72406C4.2288 3.88034 4.14594 4.0923 4.14594 4.31331C4.14594 4.53433 4.2288 4.74629 4.3763 4.90257C4.5238 5.05885 4.72385 5.14665 4.93245 5.14665Z" stroke="#EAEAEA" stroke-width="0.3"/>
<path d="M4.93245 5.14665H19.0898C19.2984 5.14665 19.4984 5.05885 19.6459 4.90257C19.7934 4.74629 19.8763 4.53433 19.8763 4.31331C19.8763 4.0923 19.7934 3.88034 19.6459 3.72406C19.4984 3.56778 19.2984 3.47998 19.0898 3.47998H4.93245C4.72385 3.47998 4.5238 3.56778 4.3763 3.72406C4.2288 3.88034 4.14594 4.0923 4.14594 4.31331C4.14594 4.53433 4.2288 4.74629 4.3763 4.90257C4.5238 5.05885 4.72385 5.14665 4.93245 5.14665Z" stroke="url(#paint9_linear_1303_369)" stroke-width="0.3"/>
<path d="M29.5423 16.2213L26.9547 18.9713L25.9401 17.8879C25.792 17.731 25.5911 17.6429 25.3817 17.6429C25.1722 17.6429 24.9713 17.731 24.8232 17.8879C24.6751 18.0449 24.5919 18.2577 24.5919 18.4796C24.5919 18.7015 24.6751 18.9144 24.8232 19.0713C27.4109 21.8046 26.3963 21.9046 30.6592 17.4046C30.8073 17.2477 30.8905 17.0349 30.8905 16.8129C30.8905 16.591 30.8073 16.3782 30.6592 16.2213C30.5111 16.0644 30.3102 15.9762 30.1008 15.9762C29.8913 15.9762 29.6904 16.0644 29.5423 16.2213Z" fill="#EAEAEA"/>
<path d="M29.5423 16.2213L26.9547 18.9713L25.9401 17.8879C25.792 17.731 25.5911 17.6429 25.3817 17.6429C25.1722 17.6429 24.9713 17.731 24.8232 17.8879C24.6751 18.0449 24.5919 18.2577 24.5919 18.4796C24.5919 18.7015 24.6751 18.9144 24.8232 19.0713C27.4109 21.8046 26.3963 21.9046 30.6592 17.4046C30.8073 17.2477 30.8905 17.0349 30.8905 16.8129C30.8905 16.591 30.8073 16.3782 30.6592 16.2213C30.5111 16.0644 30.3102 15.9762 30.1008 15.9762C29.8913 15.9762 29.6904 16.0644 29.5423 16.2213Z" fill="url(#paint10_linear_1303_369)"/>
<path d="M29.5423 16.2213L26.9547 18.9713L25.9401 17.8879C25.792 17.731 25.5911 17.6429 25.3817 17.6429C25.1722 17.6429 24.9713 17.731 24.8232 17.8879C24.6751 18.0449 24.5919 18.2577 24.5919 18.4796C24.5919 18.7015 24.6751 18.9144 24.8232 19.0713C27.4109 21.8046 26.3963 21.9046 30.6592 17.4046C30.8073 17.2477 30.8905 17.0349 30.8905 16.8129C30.8905 16.591 30.8073 16.3782 30.6592 16.2213C30.5111 16.0644 30.3102 15.9762 30.1008 15.9762C29.8913 15.9762 29.6904 16.0644 29.5423 16.2213Z" stroke="#EAEAEA" stroke-width="0.3"/>
<path d="M29.5423 16.2213L26.9547 18.9713L25.9401 17.8879C25.792 17.731 25.5911 17.6429 25.3817 17.6429C25.1722 17.6429 24.9713 17.731 24.8232 17.8879C24.6751 18.0449 24.5919 18.2577 24.5919 18.4796C24.5919 18.7015 24.6751 18.9144 24.8232 19.0713C27.4109 21.8046 26.3963 21.9046 30.6592 17.4046C30.8073 17.2477 30.8905 17.0349 30.8905 16.8129C30.8905 16.591 30.8073 16.3782 30.6592 16.2213C30.5111 16.0644 30.3102 15.9762 30.1008 15.9762C29.8913 15.9762 29.6904 16.0644 29.5423 16.2213Z" stroke="url(#paint11_linear_1303_369)" stroke-width="0.3"/>
<path d="M27.7415 10.98C26.3415 10.98 24.9729 11.4198 23.8088 12.244C22.6447 13.0681 21.7374 14.2394 21.2017 15.6099C20.6659 16.9803 20.5257 18.4883 20.7989 19.9432C21.072 21.398 21.7462 22.7344 22.7361 23.7833C23.7261 24.8322 24.9874 25.5465 26.3605 25.8359C27.7336 26.1253 29.1569 25.9767 30.4504 25.4091C31.7438 24.8414 32.8494 23.8801 33.6272 22.6468C34.405 21.4134 34.8202 19.9633 34.8202 18.48C34.8202 16.4909 34.0744 14.5832 32.7469 13.1767C31.4194 11.7702 29.6189 10.98 27.7415 10.98ZM27.7415 24.3133C26.6526 24.3133 25.5881 23.9712 24.6827 23.3302C23.7773 22.6892 23.0717 21.7782 22.655 20.7123C22.2383 19.6464 22.1292 18.4735 22.3417 17.342C22.5541 16.2104 23.0785 15.171 23.8484 14.3552C24.6184 13.5394 25.5994 12.9838 26.6674 12.7587C27.7354 12.5337 28.8424 12.6492 29.8484 13.0907C30.8544 13.5322 31.7143 14.2799 32.3193 15.2392C32.9242 16.1984 33.2471 17.3263 33.2471 18.48C33.2471 20.0271 32.6671 21.5108 31.6346 22.6048C30.6021 23.6987 29.2017 24.3133 27.7415 24.3133Z" fill="#EAEAEA"/>
<path d="M27.7415 10.98C26.3415 10.98 24.9729 11.4198 23.8088 12.244C22.6447 13.0681 21.7374 14.2394 21.2017 15.6099C20.6659 16.9803 20.5257 18.4883 20.7989 19.9432C21.072 21.398 21.7462 22.7344 22.7361 23.7833C23.7261 24.8322 24.9874 25.5465 26.3605 25.8359C27.7336 26.1253 29.1569 25.9767 30.4504 25.4091C31.7438 24.8414 32.8494 23.8801 33.6272 22.6468C34.405 21.4134 34.8202 19.9633 34.8202 18.48C34.8202 16.4909 34.0744 14.5832 32.7469 13.1767C31.4194 11.7702 29.6189 10.98 27.7415 10.98ZM27.7415 24.3133C26.6526 24.3133 25.5881 23.9712 24.6827 23.3302C23.7773 22.6892 23.0717 21.7782 22.655 20.7123C22.2383 19.6464 22.1292 18.4735 22.3417 17.342C22.5541 16.2104 23.0785 15.171 23.8484 14.3552C24.6184 13.5394 25.5994 12.9838 26.6674 12.7587C27.7354 12.5337 28.8424 12.6492 29.8484 13.0907C30.8544 13.5322 31.7143 14.2799 32.3193 15.2392C32.9242 16.1984 33.2471 17.3263 33.2471 18.48C33.2471 20.0271 32.6671 21.5108 31.6346 22.6048C30.6021 23.6987 29.2017 24.3133 27.7415 24.3133Z" fill="url(#paint12_linear_1303_369)"/>
<path d="M27.7415 10.98C26.3415 10.98 24.9729 11.4198 23.8088 12.244C22.6447 13.0681 21.7374 14.2394 21.2017 15.6099C20.6659 16.9803 20.5257 18.4883 20.7989 19.9432C21.072 21.398 21.7462 22.7344 22.7361 23.7833C23.7261 24.8322 24.9874 25.5465 26.3605 25.8359C27.7336 26.1253 29.1569 25.9767 30.4504 25.4091C31.7438 24.8414 32.8494 23.8801 33.6272 22.6468C34.405 21.4134 34.8202 19.9633 34.8202 18.48C34.8202 16.4909 34.0744 14.5832 32.7469 13.1767C31.4194 11.7702 29.6189 10.98 27.7415 10.98ZM27.7415 24.3133C26.6526 24.3133 25.5881 23.9712 24.6827 23.3302C23.7773 22.6892 23.0717 21.7782 22.655 20.7123C22.2383 19.6464 22.1292 18.4735 22.3417 17.342C22.5541 16.2104 23.0785 15.171 23.8484 14.3552C24.6184 13.5394 25.5994 12.9838 26.6674 12.7587C27.7354 12.5337 28.8424 12.6492 29.8484 13.0907C30.8544 13.5322 31.7143 14.2799 32.3193 15.2392C32.9242 16.1984 33.2471 17.3263 33.2471 18.48C33.2471 20.0271 32.6671 21.5108 31.6346 22.6048C30.6021 23.6987 29.2017 24.3133 27.7415 24.3133Z" stroke="#EAEAEA" stroke-width="0.3"/>
<path d="M27.7415 10.98C26.3415 10.98 24.9729 11.4198 23.8088 12.244C22.6447 13.0681 21.7374 14.2394 21.2017 15.6099C20.6659 16.9803 20.5257 18.4883 20.7989 19.9432C21.072 21.398 21.7462 22.7344 22.7361 23.7833C23.7261 24.8322 24.9874 25.5465 26.3605 25.8359C27.7336 26.1253 29.1569 25.9767 30.4504 25.4091C31.7438 24.8414 32.8494 23.8801 33.6272 22.6468C34.405 21.4134 34.8202 19.9633 34.8202 18.48C34.8202 16.4909 34.0744 14.5832 32.7469 13.1767C31.4194 11.7702 29.6189 10.98 27.7415 10.98ZM27.7415 24.3133C26.6526 24.3133 25.5881 23.9712 24.6827 23.3302C23.7773 22.6892 23.0717 21.7782 22.655 20.7123C22.2383 19.6464 22.1292 18.4735 22.3417 17.342C22.5541 16.2104 23.0785 15.171 23.8484 14.3552C24.6184 13.5394 25.5994 12.9838 26.6674 12.7587C27.7354 12.5337 28.8424 12.6492 29.8484 13.0907C30.8544 13.5322 31.7143 14.2799 32.3193 15.2392C32.9242 16.1984 33.2471 17.3263 33.2471 18.48C33.2471 20.0271 32.6671 21.5108 31.6346 22.6048C30.6021 23.6987 29.2017 24.3133 27.7415 24.3133Z" stroke="url(#paint13_linear_1303_369)" stroke-width="0.3"/>
<path d="M21.4495 34.3132H8.86519C8.65659 34.3132 8.45654 34.401 8.30904 34.5573C8.16154 34.7136 8.07867 34.9256 8.07867 35.1466C8.07867 35.3676 8.16154 35.5795 8.30904 35.7358C8.45654 35.8921 8.65659 35.9799 8.86519 35.9799H21.4495C21.6581 35.9799 21.8581 35.8921 22.0056 35.7358C22.1531 35.5795 22.236 35.3676 22.236 35.1466C22.236 34.9256 22.1531 34.7136 22.0056 34.5573C21.8581 34.401 21.6581 34.3132 21.4495 34.3132Z" fill="#EAEAEA"/>
<path d="M21.4495 34.3132H8.86519C8.65659 34.3132 8.45654 34.401 8.30904 34.5573C8.16154 34.7136 8.07867 34.9256 8.07867 35.1466C8.07867 35.3676 8.16154 35.5795 8.30904 35.7358C8.45654 35.8921 8.65659 35.9799 8.86519 35.9799H21.4495C21.6581 35.9799 21.8581 35.8921 22.0056 35.7358C22.1531 35.5795 22.236 35.3676 22.236 35.1466C22.236 34.9256 22.1531 34.7136 22.0056 34.5573C21.8581 34.401 21.6581 34.3132 21.4495 34.3132Z" fill="url(#paint14_linear_1303_369)"/>
<path d="M21.4495 34.3132H8.86519C8.65659 34.3132 8.45654 34.401 8.30904 34.5573C8.16154 34.7136 8.07867 34.9256 8.07867 35.1466C8.07867 35.3676 8.16154 35.5795 8.30904 35.7358C8.45654 35.8921 8.65659 35.9799 8.86519 35.9799H21.4495C21.6581 35.9799 21.8581 35.8921 22.0056 35.7358C22.1531 35.5795 22.236 35.3676 22.236 35.1466C22.236 34.9256 22.1531 34.7136 22.0056 34.5573C21.8581 34.401 21.6581 34.3132 21.4495 34.3132Z" stroke="#EAEAEA" stroke-width="0.3"/>
<path d="M21.4495 34.3132H8.86519C8.65659 34.3132 8.45654 34.401 8.30904 34.5573C8.16154 34.7136 8.07867 34.9256 8.07867 35.1466C8.07867 35.3676 8.16154 35.5795 8.30904 35.7358C8.45654 35.8921 8.65659 35.9799 8.86519 35.9799H21.4495C21.6581 35.9799 21.8581 35.8921 22.0056 35.7358C22.1531 35.5795 22.236 35.3676 22.236 35.1466C22.236 34.9256 22.1531 34.7136 22.0056 34.5573C21.8581 34.401 21.6581 34.3132 21.4495 34.3132Z" stroke="url(#paint15_linear_1303_369)" stroke-width="0.3"/>
<path d="M8.86519 25.9799H12.7978C13.0064 25.9799 13.2064 25.8921 13.3539 25.7358C13.5014 25.5795 13.5843 25.3676 13.5843 25.1466C13.5843 24.9256 13.5014 24.7136 13.3539 24.5573C13.2064 24.401 13.0064 24.3132 12.7978 24.3132H8.86519C8.65659 24.3132 8.45654 24.401 8.30904 24.5573C8.16154 24.7136 8.07867 24.9256 8.07867 25.1466C8.07867 25.3676 8.16154 25.5795 8.30904 25.7358C8.45654 25.8921 8.65659 25.9799 8.86519 25.9799Z" fill="#EAEAEA"/>
<path d="M8.86519 25.9799H12.7978C13.0064 25.9799 13.2064 25.8921 13.3539 25.7358C13.5014 25.5795 13.5843 25.3676 13.5843 25.1466C13.5843 24.9256 13.5014 24.7136 13.3539 24.5573C13.2064 24.401 13.0064 24.3132 12.7978 24.3132H8.86519C8.65659 24.3132 8.45654 24.401 8.30904 24.5573C8.16154 24.7136 8.07867 24.9256 8.07867 25.1466C8.07867 25.3676 8.16154 25.5795 8.30904 25.7358C8.45654 25.8921 8.65659 25.9799 8.86519 25.9799Z" fill="url(#paint16_linear_1303_369)"/>
<path d="M8.86519 25.9799H12.7978C13.0064 25.9799 13.2064 25.8921 13.3539 25.7358C13.5014 25.5795 13.5843 25.3676 13.5843 25.1466C13.5843 24.9256 13.5014 24.7136 13.3539 24.5573C13.2064 24.401 13.0064 24.3132 12.7978 24.3132H8.86519C8.65659 24.3132 8.45654 24.401 8.30904 24.5573C8.16154 24.7136 8.07867 24.9256 8.07867 25.1466C8.07867 25.3676 8.16154 25.5795 8.30904 25.7358C8.45654 25.8921 8.65659 25.9799 8.86519 25.9799Z" stroke="#EAEAEA" stroke-width="0.3"/>
<path d="M8.86519 25.9799H12.7978C13.0064 25.9799 13.2064 25.8921 13.3539 25.7358C13.5014 25.5795 13.5843 25.3676 13.5843 25.1466C13.5843 24.9256 13.5014 24.7136 13.3539 24.5573C13.2064 24.401 13.0064 24.3132 12.7978 24.3132H8.86519C8.65659 24.3132 8.45654 24.401 8.30904 24.5573C8.16154 24.7136 8.07867 24.9256 8.07867 25.1466C8.07867 25.3676 8.16154 25.5795 8.30904 25.7358C8.45654 25.8921 8.65659 25.9799 8.86519 25.9799Z" stroke="url(#paint17_linear_1303_369)" stroke-width="0.3"/>
<path d="M6.27824 34.5549C6.18664 34.4586 6.07409 34.3877 5.95053 34.3484C5.82696 34.3091 5.69617 34.3026 5.56968 34.3295C5.44319 34.3564 5.32488 34.4158 5.22518 34.5026C5.12549 34.5894 5.04746 34.7008 4.99799 34.827C4.94852 34.9533 4.92912 35.0905 4.94149 35.2265C4.95387 35.3626 4.99765 35.4933 5.06897 35.6072C5.14028 35.7211 5.23695 35.8147 5.35045 35.8797C5.46395 35.9447 5.5908 35.9791 5.71981 35.9799C5.87603 35.9808 6.02898 35.9325 6.15917 35.841C6.28935 35.7495 6.39087 35.619 6.45078 35.4661C6.51068 35.3132 6.52626 35.1449 6.49554 34.9826C6.46481 34.8204 6.38916 34.6714 6.27824 34.5549Z" fill="#EAEAEA"/>
<path d="M6.27824 34.5549C6.18664 34.4586 6.07409 34.3877 5.95053 34.3484C5.82696 34.3091 5.69617 34.3026 5.56968 34.3295C5.44319 34.3564 5.32488 34.4158 5.22518 34.5026C5.12549 34.5894 5.04746 34.7008 4.99799 34.827C4.94852 34.9533 4.92912 35.0905 4.94149 35.2265C4.95387 35.3626 4.99765 35.4933 5.06897 35.6072C5.14028 35.7211 5.23695 35.8147 5.35045 35.8797C5.46395 35.9447 5.5908 35.9791 5.71981 35.9799C5.87603 35.9808 6.02898 35.9325 6.15917 35.841C6.28935 35.7495 6.39087 35.619 6.45078 35.4661C6.51068 35.3132 6.52626 35.1449 6.49554 34.9826C6.46481 34.8204 6.38916 34.6714 6.27824 34.5549Z" fill="url(#paint18_linear_1303_369)"/>
<path d="M6.27824 34.5549C6.18664 34.4586 6.07409 34.3877 5.95053 34.3484C5.82696 34.3091 5.69617 34.3026 5.56968 34.3295C5.44319 34.3564 5.32488 34.4158 5.22518 34.5026C5.12549 34.5894 5.04746 34.7008 4.99799 34.827C4.94852 34.9533 4.92912 35.0905 4.94149 35.2265C4.95387 35.3626 4.99765 35.4933 5.06897 35.6072C5.14028 35.7211 5.23695 35.8147 5.35045 35.8797C5.46395 35.9447 5.5908 35.9791 5.71981 35.9799C5.87603 35.9808 6.02898 35.9325 6.15917 35.841C6.28935 35.7495 6.39087 35.619 6.45078 35.4661C6.51068 35.3132 6.52626 35.1449 6.49554 34.9826C6.46481 34.8204 6.38916 34.6714 6.27824 34.5549Z" stroke="#EAEAEA" stroke-width="0.3"/>
<path d="M6.27824 34.5549C6.18664 34.4586 6.07409 34.3877 5.95053 34.3484C5.82696 34.3091 5.69617 34.3026 5.56968 34.3295C5.44319 34.3564 5.32488 34.4158 5.22518 34.5026C5.12549 34.5894 5.04746 34.7008 4.99799 34.827C4.94852 34.9533 4.92912 35.0905 4.94149 35.2265C4.95387 35.3626 4.99765 35.4933 5.06897 35.6072C5.14028 35.7211 5.23695 35.8147 5.35045 35.8797C5.46395 35.9447 5.5908 35.9791 5.71981 35.9799C5.87603 35.9808 6.02898 35.9325 6.15917 35.841C6.28935 35.7495 6.39087 35.619 6.45078 35.4661C6.51068 35.3132 6.52626 35.1449 6.49554 34.9826C6.46481 34.8204 6.38916 34.6714 6.27824 34.5549Z" stroke="url(#paint19_linear_1303_369)" stroke-width="0.3"/>
<path d="M5.42042 24.3784C5.26484 24.4477 5.13443 24.5682 5.04846 24.7221C4.96249 24.876 4.92552 25.0551 4.94302 25.233C4.96052 25.4108 5.03156 25.578 5.14563 25.7098C5.25971 25.8416 5.41077 25.931 5.5765 25.9649C5.74224 25.9987 5.91384 25.9751 6.06597 25.8977C6.2181 25.8202 6.34267 25.693 6.42129 25.5347C6.4999 25.3765 6.52839 25.1956 6.50253 25.0189C6.47668 24.8422 6.39786 24.679 6.27772 24.5534C6.16712 24.4378 6.02667 24.3594 5.87409 24.3283C5.72152 24.2971 5.56365 24.3146 5.42042 24.3784Z" fill="#EAEAEA"/>
<path d="M5.42042 24.3784C5.26484 24.4477 5.13443 24.5682 5.04846 24.7221C4.96249 24.876 4.92552 25.0551 4.94302 25.233C4.96052 25.4108 5.03156 25.578 5.14563 25.7098C5.25971 25.8416 5.41077 25.931 5.5765 25.9649C5.74224 25.9987 5.91384 25.9751 6.06597 25.8977C6.2181 25.8202 6.34267 25.693 6.42129 25.5347C6.4999 25.3765 6.52839 25.1956 6.50253 25.0189C6.47668 24.8422 6.39786 24.679 6.27772 24.5534C6.16712 24.4378 6.02667 24.3594 5.87409 24.3283C5.72152 24.2971 5.56365 24.3146 5.42042 24.3784Z" fill="url(#paint20_linear_1303_369)"/>
<path d="M5.42042 24.3784C5.26484 24.4477 5.13443 24.5682 5.04846 24.7221C4.96249 24.876 4.92552 25.0551 4.94302 25.233C4.96052 25.4108 5.03156 25.578 5.14563 25.7098C5.25971 25.8416 5.41077 25.931 5.5765 25.9649C5.74224 25.9987 5.91384 25.9751 6.06597 25.8977C6.2181 25.8202 6.34267 25.693 6.42129 25.5347C6.4999 25.3765 6.52839 25.1956 6.50253 25.0189C6.47668 24.8422 6.39786 24.679 6.27772 24.5534C6.16712 24.4378 6.02667 24.3594 5.87409 24.3283C5.72152 24.2971 5.56365 24.3146 5.42042 24.3784Z" stroke="#EAEAEA" stroke-width="0.3"/>
<path d="M5.42042 24.3784C5.26484 24.4477 5.13443 24.5682 5.04846 24.7221C4.96249 24.876 4.92552 25.0551 4.94302 25.233C4.96052 25.4108 5.03156 25.578 5.14563 25.7098C5.25971 25.8416 5.41077 25.931 5.5765 25.9649C5.74224 25.9987 5.91384 25.9751 6.06597 25.8977C6.2181 25.8202 6.34267 25.693 6.42129 25.5347C6.4999 25.3765 6.52839 25.1956 6.50253 25.0189C6.47668 24.8422 6.39786 24.679 6.27772 24.5534C6.16712 24.4378 6.02667 24.3594 5.87409 24.3283C5.72152 24.2971 5.56365 24.3146 5.42042 24.3784Z" stroke="url(#paint21_linear_1303_369)" stroke-width="0.3"/>
<path d="M8.86519 19.3133H14.3708C14.5794 19.3133 14.7795 19.2255 14.927 19.0692C15.0745 18.9129 15.1573 18.701 15.1573 18.4799C15.1573 18.2589 15.0745 18.047 14.927 17.8907C14.7795 17.7344 14.5794 17.6466 14.3708 17.6466H8.86519C8.65659 17.6466 8.45654 17.7344 8.30904 17.8907C8.16154 18.047 8.07867 18.2589 8.07867 18.4799C8.07867 18.701 8.16154 18.9129 8.30904 19.0692C8.45654 19.2255 8.65659 19.3133 8.86519 19.3133Z" fill="#EAEAEA"/>
<path d="M8.86519 19.3133H14.3708C14.5794 19.3133 14.7795 19.2255 14.927 19.0692C15.0745 18.9129 15.1573 18.701 15.1573 18.4799C15.1573 18.2589 15.0745 18.047 14.927 17.8907C14.7795 17.7344 14.5794 17.6466 14.3708 17.6466H8.86519C8.65659 17.6466 8.45654 17.7344 8.30904 17.8907C8.16154 18.047 8.07867 18.2589 8.07867 18.4799C8.07867 18.701 8.16154 18.9129 8.30904 19.0692C8.45654 19.2255 8.65659 19.3133 8.86519 19.3133Z" fill="url(#paint22_linear_1303_369)"/>
<path d="M8.86519 19.3133H14.3708C14.5794 19.3133 14.7795 19.2255 14.927 19.0692C15.0745 18.9129 15.1573 18.701 15.1573 18.4799C15.1573 18.2589 15.0745 18.047 14.927 17.8907C14.7795 17.7344 14.5794 17.6466 14.3708 17.6466H8.86519C8.65659 17.6466 8.45654 17.7344 8.30904 17.8907C8.16154 18.047 8.07867 18.2589 8.07867 18.4799C8.07867 18.701 8.16154 18.9129 8.30904 19.0692C8.45654 19.2255 8.65659 19.3133 8.86519 19.3133Z" stroke="#EAEAEA" stroke-width="0.3"/>
<path d="M8.86519 19.3133H14.3708C14.5794 19.3133 14.7795 19.2255 14.927 19.0692C15.0745 18.9129 15.1573 18.701 15.1573 18.4799C15.1573 18.2589 15.0745 18.047 14.927 17.8907C14.7795 17.7344 14.5794 17.6466 14.3708 17.6466H8.86519C8.65659 17.6466 8.45654 17.7344 8.30904 17.8907C8.16154 18.047 8.07867 18.2589 8.07867 18.4799C8.07867 18.701 8.16154 18.9129 8.30904 19.0692C8.45654 19.2255 8.65659 19.3133 8.86519 19.3133Z" stroke="url(#paint23_linear_1303_369)" stroke-width="0.3"/>
<path d="M6.27718 17.888C6.12907 17.7311 5.9282 17.6429 5.71875 17.6429C5.5093 17.6429 5.30843 17.7311 5.16032 17.888C5.01222 18.0449 4.92902 18.2578 4.92902 18.4797C4.92902 18.7016 5.01222 18.9144 5.16032 19.0714C5.30843 19.2283 5.5093 19.3164 5.71875 19.3164C5.9282 19.3164 6.12907 19.2283 6.27718 19.0714C6.42528 18.9144 6.50849 18.7016 6.50849 18.4797C6.50849 18.2578 6.42528 18.0449 6.27718 17.888Z" fill="#EAEAEA"/>
<path d="M6.27718 17.888C6.12907 17.7311 5.9282 17.6429 5.71875 17.6429C5.5093 17.6429 5.30843 17.7311 5.16032 17.888C5.01222 18.0449 4.92902 18.2578 4.92902 18.4797C4.92902 18.7016 5.01222 18.9144 5.16032 19.0714C5.30843 19.2283 5.5093 19.3164 5.71875 19.3164C5.9282 19.3164 6.12907 19.2283 6.27718 19.0714C6.42528 18.9144 6.50849 18.7016 6.50849 18.4797C6.50849 18.2578 6.42528 18.0449 6.27718 17.888Z" fill="url(#paint24_linear_1303_369)"/>
<path d="M6.27718 17.888C6.12907 17.7311 5.9282 17.6429 5.71875 17.6429C5.5093 17.6429 5.30843 17.7311 5.16032 17.888C5.01222 18.0449 4.92902 18.2578 4.92902 18.4797C4.92902 18.7016 5.01222 18.9144 5.16032 19.0714C5.30843 19.2283 5.5093 19.3164 5.71875 19.3164C5.9282 19.3164 6.12907 19.2283 6.27718 19.0714C6.42528 18.9144 6.50849 18.7016 6.50849 18.4797C6.50849 18.2578 6.42528 18.0449 6.27718 17.888Z" stroke="#EAEAEA" stroke-width="0.3"/>
<path d="M6.27718 17.888C6.12907 17.7311 5.9282 17.6429 5.71875 17.6429C5.5093 17.6429 5.30843 17.7311 5.16032 17.888C5.01222 18.0449 4.92902 18.2578 4.92902 18.4797C4.92902 18.7016 5.01222 18.9144 5.16032 19.0714C5.30843 19.2283 5.5093 19.3164 5.71875 19.3164C5.9282 19.3164 6.12907 19.2283 6.27718 19.0714C6.42528 18.9144 6.50849 18.7016 6.50849 18.4797C6.50849 18.2578 6.42528 18.0449 6.27718 17.888Z" stroke="url(#paint25_linear_1303_369)" stroke-width="0.3"/>
<path d="M8.86519 12.6466H12.0113C12.2199 12.6466 12.4199 12.5588 12.5674 12.4026C12.7149 12.2463 12.7978 12.0343 12.7978 11.8133C12.7978 11.5923 12.7149 11.3803 12.5674 11.2241C12.4199 11.0678 12.2199 10.98 12.0113 10.98H8.86519C8.65659 10.98 8.45654 11.0678 8.30904 11.2241C8.16154 11.3803 8.07867 11.5923 8.07867 11.8133C8.07867 12.0343 8.16154 12.2463 8.30904 12.4026C8.45654 12.5588 8.65659 12.6466 8.86519 12.6466Z" fill="#EAEAEA"/>
<path d="M8.86519 12.6466H12.0113C12.2199 12.6466 12.4199 12.5588 12.5674 12.4026C12.7149 12.2463 12.7978 12.0343 12.7978 11.8133C12.7978 11.5923 12.7149 11.3803 12.5674 11.2241C12.4199 11.0678 12.2199 10.98 12.0113 10.98H8.86519C8.65659 10.98 8.45654 11.0678 8.30904 11.2241C8.16154 11.3803 8.07867 11.5923 8.07867 11.8133C8.07867 12.0343 8.16154 12.2463 8.30904 12.4026C8.45654 12.5588 8.65659 12.6466 8.86519 12.6466Z" fill="url(#paint26_linear_1303_369)"/>
<path d="M8.86519 12.6466H12.0113C12.2199 12.6466 12.4199 12.5588 12.5674 12.4026C12.7149 12.2463 12.7978 12.0343 12.7978 11.8133C12.7978 11.5923 12.7149 11.3803 12.5674 11.2241C12.4199 11.0678 12.2199 10.98 12.0113 10.98H8.86519C8.65659 10.98 8.45654 11.0678 8.30904 11.2241C8.16154 11.3803 8.07867 11.5923 8.07867 11.8133C8.07867 12.0343 8.16154 12.2463 8.30904 12.4026C8.45654 12.5588 8.65659 12.6466 8.86519 12.6466Z" stroke="#EAEAEA" stroke-width="0.3"/>
<path d="M8.86519 12.6466H12.0113C12.2199 12.6466 12.4199 12.5588 12.5674 12.4026C12.7149 12.2463 12.7978 12.0343 12.7978 11.8133C12.7978 11.5923 12.7149 11.3803 12.5674 11.2241C12.4199 11.0678 12.2199 10.98 12.0113 10.98H8.86519C8.65659 10.98 8.45654 11.0678 8.30904 11.2241C8.16154 11.3803 8.07867 11.5923 8.07867 11.8133C8.07867 12.0343 8.16154 12.2463 8.30904 12.4026C8.45654 12.5588 8.65659 12.6466 8.86519 12.6466Z" stroke="url(#paint27_linear_1303_369)" stroke-width="0.3"/>
<path d="M15.1575 12.6466H19.8766C20.0852 12.6466 20.2852 12.5588 20.4327 12.4026C20.5802 12.2463 20.6631 12.0343 20.6631 11.8133C20.6631 11.5923 20.5802 11.3803 20.4327 11.2241C20.2852 11.0678 20.0852 10.98 19.8766 10.98H15.1575C14.9489 10.98 14.7488 11.0678 14.6013 11.2241C14.4538 11.3803 14.371 11.5923 14.371 11.8133C14.371 12.0343 14.4538 12.2463 14.6013 12.4026C14.7488 12.5588 14.9489 12.6466 15.1575 12.6466Z" fill="#EAEAEA"/>
<path d="M15.1575 12.6466H19.8766C20.0852 12.6466 20.2852 12.5588 20.4327 12.4026C20.5802 12.2463 20.6631 12.0343 20.6631 11.8133C20.6631 11.5923 20.5802 11.3803 20.4327 11.2241C20.2852 11.0678 20.0852 10.98 19.8766 10.98H15.1575C14.9489 10.98 14.7488 11.0678 14.6013 11.2241C14.4538 11.3803 14.371 11.5923 14.371 11.8133C14.371 12.0343 14.4538 12.2463 14.6013 12.4026C14.7488 12.5588 14.9489 12.6466 15.1575 12.6466Z" fill="url(#paint28_linear_1303_369)"/>
<path d="M15.1575 12.6466H19.8766C20.0852 12.6466 20.2852 12.5588 20.4327 12.4026C20.5802 12.2463 20.6631 12.0343 20.6631 11.8133C20.6631 11.5923 20.5802 11.3803 20.4327 11.2241C20.2852 11.0678 20.0852 10.98 19.8766 10.98H15.1575C14.9489 10.98 14.7488 11.0678 14.6013 11.2241C14.4538 11.3803 14.371 11.5923 14.371 11.8133C14.371 12.0343 14.4538 12.2463 14.6013 12.4026C14.7488 12.5588 14.9489 12.6466 15.1575 12.6466Z" stroke="#EAEAEA" stroke-width="0.3"/>
<path d="M15.1575 12.6466H19.8766C20.0852 12.6466 20.2852 12.5588 20.4327 12.4026C20.5802 12.2463 20.6631 12.0343 20.6631 11.8133C20.6631 11.5923 20.5802 11.3803 20.4327 11.2241C20.2852 11.0678 20.0852 10.98 19.8766 10.98H15.1575C14.9489 10.98 14.7488 11.0678 14.6013 11.2241C14.4538 11.3803 14.371 11.5923 14.371 11.8133C14.371 12.0343 14.4538 12.2463 14.6013 12.4026C14.7488 12.5588 14.9489 12.6466 15.1575 12.6466Z" stroke="url(#paint29_linear_1303_369)" stroke-width="0.3"/>
<path d="M6.27825 11.2216C6.168 11.1058 6.02784 11.0271 5.87545 10.9955C5.72306 10.9639 5.56525 10.9808 5.42191 11.0441C5.27857 11.1073 5.15611 11.2142 5.06997 11.351C4.98383 11.4879 4.93787 11.6488 4.93787 11.8133C4.93787 11.9778 4.98383 12.1387 5.06997 12.2756C5.15611 12.4125 5.27857 12.5193 5.42191 12.5826C5.56525 12.6458 5.72306 12.6627 5.87545 12.6311C6.02784 12.5995 6.168 12.5208 6.27825 12.405C6.35197 12.3275 6.41048 12.2353 6.45041 12.1338C6.49034 12.0322 6.5109 11.9233 6.5109 11.8133C6.5109 11.7033 6.49034 11.5944 6.45041 11.4928C6.41048 11.3913 6.35197 11.2991 6.27825 11.2216Z" fill="#EAEAEA"/>
<path d="M6.27825 11.2216C6.168 11.1058 6.02784 11.0271 5.87545 10.9955C5.72306 10.9639 5.56525 10.9808 5.42191 11.0441C5.27857 11.1073 5.15611 11.2142 5.06997 11.351C4.98383 11.4879 4.93787 11.6488 4.93787 11.8133C4.93787 11.9778 4.98383 12.1387 5.06997 12.2756C5.15611 12.4125 5.27857 12.5193 5.42191 12.5826C5.56525 12.6458 5.72306 12.6627 5.87545 12.6311C6.02784 12.5995 6.168 12.5208 6.27825 12.405C6.35197 12.3275 6.41048 12.2353 6.45041 12.1338C6.49034 12.0322 6.5109 11.9233 6.5109 11.8133C6.5109 11.7033 6.49034 11.5944 6.45041 11.4928C6.41048 11.3913 6.35197 11.2991 6.27825 11.2216Z" fill="url(#paint30_linear_1303_369)"/>
<path d="M6.27825 11.2216C6.168 11.1058 6.02784 11.0271 5.87545 10.9955C5.72306 10.9639 5.56525 10.9808 5.42191 11.0441C5.27857 11.1073 5.15611 11.2142 5.06997 11.351C4.98383 11.4879 4.93787 11.6488 4.93787 11.8133C4.93787 11.9778 4.98383 12.1387 5.06997 12.2756C5.15611 12.4125 5.27857 12.5193 5.42191 12.5826C5.56525 12.6458 5.72306 12.6627 5.87545 12.6311C6.02784 12.5995 6.168 12.5208 6.27825 12.405C6.35197 12.3275 6.41048 12.2353 6.45041 12.1338C6.49034 12.0322 6.5109 11.9233 6.5109 11.8133C6.5109 11.7033 6.49034 11.5944 6.45041 11.4928C6.41048 11.3913 6.35197 11.2991 6.27825 11.2216Z" stroke="#EAEAEA" stroke-width="0.3"/>
<path d="M6.27825 11.2216C6.168 11.1058 6.02784 11.0271 5.87545 10.9955C5.72306 10.9639 5.56525 10.9808 5.42191 11.0441C5.27857 11.1073 5.15611 11.2142 5.06997 11.351C4.98383 11.4879 4.93787 11.6488 4.93787 11.8133C4.93787 11.9778 4.98383 12.1387 5.06997 12.2756C5.15611 12.4125 5.27857 12.5193 5.42191 12.5826C5.56525 12.6458 5.72306 12.6627 5.87545 12.6311C6.02784 12.5995 6.168 12.5208 6.27825 12.405C6.35197 12.3275 6.41048 12.2353 6.45041 12.1338C6.49034 12.0322 6.5109 11.9233 6.5109 11.8133C6.5109 11.7033 6.49034 11.5944 6.45041 11.4928C6.41048 11.3913 6.35197 11.2991 6.27825 11.2216Z" stroke="url(#paint31_linear_1303_369)" stroke-width="0.3"/>
<path d="M34.0335 34.3132H24.5953C24.3867 34.3132 24.1866 34.401 24.0391 34.5573C23.8916 34.7136 23.8088 34.9256 23.8088 35.1466C23.8088 35.3676 23.8916 35.5795 24.0391 35.7358C24.1866 35.8921 24.3867 35.9799 24.5953 35.9799H34.0335C34.2421 35.9799 34.4421 35.8921 34.5896 35.7358C34.7371 35.5795 34.82 35.3676 34.82 35.1466C34.82 34.9256 34.7371 34.7136 34.5896 34.5573C34.4421 34.401 34.2421 34.3132 34.0335 34.3132Z" fill="#EAEAEA"/>
<path d="M34.0335 34.3132H24.5953C24.3867 34.3132 24.1866 34.401 24.0391 34.5573C23.8916 34.7136 23.8088 34.9256 23.8088 35.1466C23.8088 35.3676 23.8916 35.5795 24.0391 35.7358C24.1866 35.8921 24.3867 35.9799 24.5953 35.9799H34.0335C34.2421 35.9799 34.4421 35.8921 34.5896 35.7358C34.7371 35.5795 34.82 35.3676 34.82 35.1466C34.82 34.9256 34.7371 34.7136 34.5896 34.5573C34.4421 34.401 34.2421 34.3132 34.0335 34.3132Z" fill="url(#paint32_linear_1303_369)"/>
<path d="M34.0335 34.3132H24.5953C24.3867 34.3132 24.1866 34.401 24.0391 34.5573C23.8916 34.7136 23.8088 34.9256 23.8088 35.1466C23.8088 35.3676 23.8916 35.5795 24.0391 35.7358C24.1866 35.8921 24.3867 35.9799 24.5953 35.9799H34.0335C34.2421 35.9799 34.4421 35.8921 34.5896 35.7358C34.7371 35.5795 34.82 35.3676 34.82 35.1466C34.82 34.9256 34.7371 34.7136 34.5896 34.5573C34.4421 34.401 34.2421 34.3132 34.0335 34.3132Z" stroke="#EAEAEA" stroke-width="0.3"/>
<path d="M34.0335 34.3132H24.5953C24.3867 34.3132 24.1866 34.401 24.0391 34.5573C23.8916 34.7136 23.8088 34.9256 23.8088 35.1466C23.8088 35.3676 23.8916 35.5795 24.0391 35.7358C24.1866 35.8921 24.3867 35.9799 24.5953 35.9799H34.0335C34.2421 35.9799 34.4421 35.8921 34.5896 35.7358C34.7371 35.5795 34.82 35.3676 34.82 35.1466C34.82 34.9256 34.7371 34.7136 34.5896 34.5573C34.4421 34.401 34.2421 34.3132 34.0335 34.3132Z" stroke="url(#paint33_linear_1303_369)" stroke-width="0.3"/>
<defs>
<linearGradient id="paint0_linear_1303_369" x1="1" y1="0.146606" x2="52.094" y2="6.80778" gradientUnits="userSpaceOnUse">
<stop stop-color="#9342CE"/>
<stop offset="0.514675" stop-color="#6284B6"/>
<stop offset="1" stop-color="#35C29F"/>
</linearGradient>
<linearGradient id="paint1_linear_1303_369" x1="1" y1="0.146606" x2="52.094" y2="6.80778" gradientUnits="userSpaceOnUse">
<stop stop-color="#9342CE"/>
<stop offset="0.514675" stop-color="#6284B6"/>
<stop offset="1" stop-color="#35C29F"/>
</linearGradient>
<linearGradient id="paint2_linear_1303_369" x1="34.1092" y1="3.47437" x2="36.2487" y2="3.7533" gradientUnits="userSpaceOnUse">
<stop stop-color="#9342CE"/>
<stop offset="0.514675" stop-color="#6284B6"/>
<stop offset="1" stop-color="#35C29F"/>
</linearGradient>
<linearGradient id="paint3_linear_1303_369" x1="34.1092" y1="3.47437" x2="36.2487" y2="3.7533" gradientUnits="userSpaceOnUse">
<stop stop-color="#9342CE"/>
<stop offset="0.514675" stop-color="#6284B6"/>
<stop offset="1" stop-color="#35C29F"/>
</linearGradient>
<linearGradient id="paint4_linear_1303_369" x1="30.9633" y1="3.47437" x2="33.1028" y2="3.7533" gradientUnits="userSpaceOnUse">
<stop stop-color="#9342CE"/>
<stop offset="0.514675" stop-color="#6284B6"/>
<stop offset="1" stop-color="#35C29F"/>
</linearGradient>
<linearGradient id="paint5_linear_1303_369" x1="30.9633" y1="3.47437" x2="33.1028" y2="3.7533" gradientUnits="userSpaceOnUse">
<stop stop-color="#9342CE"/>
<stop offset="0.514675" stop-color="#6284B6"/>
<stop offset="1" stop-color="#35C29F"/>
</linearGradient>
<linearGradient id="paint6_linear_1303_369" x1="27.8169" y1="3.47437" x2="29.9564" y2="3.7533" gradientUnits="userSpaceOnUse">
<stop stop-color="#9342CE"/>
<stop offset="0.514675" stop-color="#6284B6"/>
<stop offset="1" stop-color="#35C29F"/>
</linearGradient>
<linearGradient id="paint7_linear_1303_369" x1="27.8169" y1="3.47437" x2="29.9564" y2="3.7533" gradientUnits="userSpaceOnUse">
<stop stop-color="#9342CE"/>
<stop offset="0.514675" stop-color="#6284B6"/>
<stop offset="1" stop-color="#35C29F"/>
</linearGradient>
<linearGradient id="paint8_linear_1303_369" x1="4.14594" y1="3.47998" x2="12.1659" y2="13.9356" gradientUnits="userSpaceOnUse">
<stop stop-color="#9342CE"/>
<stop offset="0.514675" stop-color="#6284B6"/>
<stop offset="1" stop-color="#35C29F"/>
</linearGradient>
<linearGradient id="paint9_linear_1303_369" x1="4.14594" y1="3.47998" x2="12.1659" y2="13.9356" gradientUnits="userSpaceOnUse">
<stop stop-color="#9342CE"/>
<stop offset="0.514675" stop-color="#6284B6"/>
<stop offset="1" stop-color="#35C29F"/>
</linearGradient>
<linearGradient id="paint10_linear_1303_369" x1="24.5919" y1="15.9762" x2="33.007" y2="17.4386" gradientUnits="userSpaceOnUse">
<stop stop-color="#9342CE"/>
<stop offset="0.514675" stop-color="#6284B6"/>
<stop offset="1" stop-color="#35C29F"/>
</linearGradient>
<linearGradient id="paint11_linear_1303_369" x1="24.5919" y1="15.9762" x2="33.007" y2="17.4386" gradientUnits="userSpaceOnUse">
<stop stop-color="#9342CE"/>
<stop offset="0.514675" stop-color="#6284B6"/>
<stop offset="1" stop-color="#35C29F"/>
</linearGradient>
<linearGradient id="paint12_linear_1303_369" x1="20.6628" y1="10.98" x2="39.8231" y2="13.4779" gradientUnits="userSpaceOnUse">
<stop stop-color="#9342CE"/>
<stop offset="0.514675" stop-color="#6284B6"/>
<stop offset="1" stop-color="#35C29F"/>
</linearGradient>
<linearGradient id="paint13_linear_1303_369" x1="20.6628" y1="10.98" x2="39.8231" y2="13.4779" gradientUnits="userSpaceOnUse">
<stop stop-color="#9342CE"/>
<stop offset="0.514675" stop-color="#6284B6"/>
<stop offset="1" stop-color="#35C29F"/>
</linearGradient>
<linearGradient id="paint14_linear_1303_369" x1="8.07867" y1="34.3132" x2="16.2773" y2="43.933" gradientUnits="userSpaceOnUse">
<stop stop-color="#9342CE"/>
<stop offset="0.514675" stop-color="#6284B6"/>
<stop offset="1" stop-color="#35C29F"/>
</linearGradient>
<linearGradient id="paint15_linear_1303_369" x1="8.07867" y1="34.3132" x2="16.2773" y2="43.933" gradientUnits="userSpaceOnUse">
<stop stop-color="#9342CE"/>
<stop offset="0.514675" stop-color="#6284B6"/>
<stop offset="1" stop-color="#35C29F"/>
</linearGradient>
<linearGradient id="paint16_linear_1303_369" x1="8.07867" y1="24.3132" x2="14.3507" y2="27.1751" gradientUnits="userSpaceOnUse">
<stop stop-color="#9342CE"/>
<stop offset="0.514675" stop-color="#6284B6"/>
<stop offset="1" stop-color="#35C29F"/>
</linearGradient>
<linearGradient id="paint17_linear_1303_369" x1="8.07867" y1="24.3132" x2="14.3507" y2="27.1751" gradientUnits="userSpaceOnUse">
<stop stop-color="#9342CE"/>
<stop offset="0.514675" stop-color="#6284B6"/>
<stop offset="1" stop-color="#35C29F"/>
</linearGradient>
<linearGradient id="paint18_linear_1303_369" x1="4.93787" y1="34.3132" x2="7.06679" y2="34.5908" gradientUnits="userSpaceOnUse">
<stop stop-color="#9342CE"/>
<stop offset="0.514675" stop-color="#6284B6"/>
<stop offset="1" stop-color="#35C29F"/>
</linearGradient>
<linearGradient id="paint19_linear_1303_369" x1="4.93787" y1="34.3132" x2="7.06679" y2="34.5908" gradientUnits="userSpaceOnUse">
<stop stop-color="#9342CE"/>
<stop offset="0.514675" stop-color="#6284B6"/>
<stop offset="1" stop-color="#35C29F"/>
</linearGradient>
<linearGradient id="paint20_linear_1303_369" x1="4.93878" y1="24.3132" x2="7.0677" y2="24.5908" gradientUnits="userSpaceOnUse">
<stop stop-color="#9342CE"/>
<stop offset="0.514675" stop-color="#6284B6"/>
<stop offset="1" stop-color="#35C29F"/>
</linearGradient>
<linearGradient id="paint21_linear_1303_369" x1="4.93878" y1="24.3132" x2="7.0677" y2="24.5908" gradientUnits="userSpaceOnUse">
<stop stop-color="#9342CE"/>
<stop offset="0.514675" stop-color="#6284B6"/>
<stop offset="1" stop-color="#35C29F"/>
</linearGradient>
<linearGradient id="paint22_linear_1303_369" x1="8.07867" y1="17.6466" x2="15.3269" y2="21.8989" gradientUnits="userSpaceOnUse">
<stop stop-color="#9342CE"/>
<stop offset="0.514675" stop-color="#6284B6"/>
<stop offset="1" stop-color="#35C29F"/>
</linearGradient>
<linearGradient id="paint23_linear_1303_369" x1="8.07867" y1="17.6466" x2="15.3269" y2="21.8989" gradientUnits="userSpaceOnUse">
<stop stop-color="#9342CE"/>
<stop offset="0.514675" stop-color="#6284B6"/>
<stop offset="1" stop-color="#35C29F"/>
</linearGradient>
<linearGradient id="paint24_linear_1303_369" x1="4.92902" y1="17.6429" x2="7.06665" y2="17.9216" gradientUnits="userSpaceOnUse">
<stop stop-color="#9342CE"/>
<stop offset="0.514675" stop-color="#6284B6"/>
<stop offset="1" stop-color="#35C29F"/>
</linearGradient>
<linearGradient id="paint25_linear_1303_369" x1="4.92902" y1="17.6429" x2="7.06665" y2="17.9216" gradientUnits="userSpaceOnUse">
<stop stop-color="#9342CE"/>
<stop offset="0.514675" stop-color="#6284B6"/>
<stop offset="1" stop-color="#35C29F"/>
</linearGradient>
<linearGradient id="paint26_linear_1303_369" x1="8.07867" y1="10.98" x2="13.7122" y2="13.1833" gradientUnits="userSpaceOnUse">
<stop stop-color="#9342CE"/>
<stop offset="0.514675" stop-color="#6284B6"/>
<stop offset="1" stop-color="#35C29F"/>
</linearGradient>
<linearGradient id="paint27_linear_1303_369" x1="8.07867" y1="10.98" x2="13.7122" y2="13.1833" gradientUnits="userSpaceOnUse">
<stop stop-color="#9342CE"/>
<stop offset="0.514675" stop-color="#6284B6"/>
<stop offset="1" stop-color="#35C29F"/>
</linearGradient>
<linearGradient id="paint28_linear_1303_369" x1="14.371" y1="10.98" x2="21.1798" y2="14.5307" gradientUnits="userSpaceOnUse">
<stop stop-color="#9342CE"/>
<stop offset="0.514675" stop-color="#6284B6"/>
<stop offset="1" stop-color="#35C29F"/>
</linearGradient>
<linearGradient id="paint29_linear_1303_369" x1="14.371" y1="10.98" x2="21.1798" y2="14.5307" gradientUnits="userSpaceOnUse">
<stop stop-color="#9342CE"/>
<stop offset="0.514675" stop-color="#6284B6"/>
<stop offset="1" stop-color="#35C29F"/>
</linearGradient>
<linearGradient id="paint30_linear_1303_369" x1="4.93787" y1="10.98" x2="7.06678" y2="11.2575" gradientUnits="userSpaceOnUse">
<stop stop-color="#9342CE"/>
<stop offset="0.514675" stop-color="#6284B6"/>
<stop offset="1" stop-color="#35C29F"/>
</linearGradient>
<linearGradient id="paint31_linear_1303_369" x1="4.93787" y1="10.98" x2="7.06678" y2="11.2575" gradientUnits="userSpaceOnUse">
<stop stop-color="#9342CE"/>
<stop offset="0.514675" stop-color="#6284B6"/>
<stop offset="1" stop-color="#35C29F"/>
</linearGradient>
<linearGradient id="paint32_linear_1303_369" x1="23.8088" y1="34.3132" x2="32.0778" y2="41.8595" gradientUnits="userSpaceOnUse">
<stop stop-color="#9342CE"/>
<stop offset="0.514675" stop-color="#6284B6"/>
<stop offset="1" stop-color="#35C29F"/>
</linearGradient>
<linearGradient id="paint33_linear_1303_369" x1="23.8088" y1="34.3132" x2="32.0778" y2="41.8595" gradientUnits="userSpaceOnUse">
<stop stop-color="#9342CE"/>
<stop offset="0.514675" stop-color="#6284B6"/>
<stop offset="1" stop-color="#35C29F"/>
</linearGradient>
</defs>
</svg>
