<svg width="64" height="64" viewBox="0 0 64 64" fill="none" xmlns="http://www.w3.org/2000/svg">
<g id="Technical Analyst">
<path id="Vector" opacity="0.2" d="M60.0572 53.2209L56.4223 56.856C55.9427 57.3328 55.2939 57.6004 54.6176 57.6004C53.9414 57.6004 53.2926 57.3328 52.813 56.856L22.4026 26.4956C21.5702 26.7371 20.7093 26.8662 19.8428 26.8796C18.213 26.8784 16.607 26.4882 15.1583 25.7414C13.7097 24.9945 12.4602 23.9126 11.5139 22.5857C10.5675 21.2587 9.95157 19.725 9.71726 18.112C9.48296 16.4991 9.63706 14.8535 10.1667 13.3121L16.6686 19.8143L18.0253 18.4575L21.6602 14.8225L23.0169 13.4657L16.515 6.96357C18.0564 6.43386 19.7019 6.27975 21.3148 6.51407C22.9277 6.74838 24.4613 7.36434 25.7882 8.31075C27.1151 9.25715 28.197 10.5066 28.9438 11.9553C29.6906 13.404 30.0808 15.0101 30.082 16.64C30.0686 17.5066 29.9394 18.3675 29.698 19.1999L60.0572 49.6115C60.5339 50.0911 60.8016 50.7399 60.8016 51.4162C60.8016 52.0925 60.5339 52.7413 60.0572 53.2209ZM10.3459 49.6115C9.86917 50.0911 9.60156 50.7399 9.60156 51.4162C9.60156 52.0925 9.86917 52.7413 10.3459 53.2209L13.9808 56.856C14.4605 57.3328 15.1092 57.6004 15.7855 57.6004C16.4618 57.6004 17.1105 57.3328 17.5902 56.856L31.5922 42.8789L24.348 35.6344M55.6799 6.40039L45.4407 11.5202V16.64L39.886 22.195L45.0056 27.3148L50.5603 21.7598H55.6799L60.7995 11.5202L55.6799 6.40039Z" fill="url(#paint0_linear_2981_132281)"/>
<path id="Vector_2" d="M56.8541 53.2209L53.2192 56.856C52.7395 57.3328 52.0908 57.6004 51.4145 57.6004C50.7382 57.6004 50.0894 57.3328 49.6098 56.856L19.1994 26.4956C18.3671 26.7371 17.5062 26.8662 16.6397 26.8796C15.0098 26.8784 13.4038 26.4882 11.9552 25.7414C10.5066 24.9945 9.25711 23.9126 8.31075 22.5857C7.36438 21.2587 6.74844 19.725 6.51414 18.112C6.27983 16.4991 6.43393 14.8535 6.96362 13.3121L13.4655 19.8143L14.8222 18.4575L18.4571 14.8225L19.8138 13.4657L13.3119 6.96357C14.8533 6.43386 16.4988 6.27975 18.1117 6.51407C19.7245 6.74838 21.2582 7.36434 22.5851 8.31075C23.912 9.25715 24.9939 10.5066 25.7407 11.9553C26.4875 13.404 26.8777 15.0101 26.8788 16.64C26.8655 17.5066 26.7363 18.3675 26.4949 19.1999L56.8541 49.6115C57.3308 50.0911 57.5984 50.7399 57.5984 51.4162C57.5984 52.0925 57.3308 52.7413 56.8541 53.2209ZM7.14281 49.6115C6.66604 50.0911 6.39844 50.7399 6.39844 51.4162C6.39844 52.0925 6.66604 52.7413 7.14281 53.2209L10.7777 56.856C11.2573 57.3328 11.9061 57.6004 12.5824 57.6004C13.2586 57.6004 13.9074 57.3328 14.387 56.856L28.3891 42.8789L21.1449 35.6344M52.4768 6.40039L42.2376 11.5202V16.64L36.6829 22.195L41.8025 27.3148L47.3572 21.7598H52.4768L57.5964 11.5202L52.4768 6.40039Z" stroke="url(#paint1_linear_2981_132281)"/>
</g>
<defs>
<linearGradient id="paint0_linear_2981_132281" x1="35.2016" y1="6.40039" x2="35.2016" y2="57.6004" gradientUnits="userSpaceOnUse">
<stop stop-color="#8C4ACB"/>
<stop offset="1" stop-color="#4BA4AA"/>
</linearGradient>
<linearGradient id="paint1_linear_2981_132281" x1="31.9984" y1="6.40039" x2="31.9984" y2="57.6004" gradientUnits="userSpaceOnUse">
<stop stop-color="#8C4ACB"/>
<stop offset="1" stop-color="#4BA4AA"/>
</linearGradient>
</defs>
</svg>
