<svg width="64" height="65" viewBox="0 0 64 65" fill="none" xmlns="http://www.w3.org/2000/svg">
<g id="Tester">
<path id="Vector 3234" opacity="0.2" d="M10.6016 44.0727H39.1127H59.8016C60.3538 44.0727 60.8016 43.6249 60.8016 43.0727V27.9496V11.4727C60.8016 10.9204 60.3538 10.4727 59.8016 10.4727H10.6016C10.0493 10.4727 9.60156 10.9204 9.60156 11.4727V43.0727C9.60156 43.6249 10.0493 44.0727 10.6016 44.0727Z" fill="url(#paint0_linear_3088_152999)"/>
<path id="Vector" d="M12.7984 19.5734C12.5223 19.5734 12.2984 19.7973 12.2984 20.0734C12.2984 20.3496 12.5223 20.5734 12.7984 20.5734V19.5734ZM12.7984 27.5734C12.5223 27.5734 12.2984 27.7973 12.2984 28.0734C12.2984 28.3496 12.5223 28.5734 12.7984 28.5734V27.5734ZM57.0984 24.7504C57.0984 25.0265 57.3223 25.2504 57.5984 25.2504C57.8746 25.2504 58.0984 25.0265 58.0984 24.7504H57.0984ZM54.3984 34.9401L54.0236 34.6092L54.3984 34.9401ZM35.1984 34.9401L35.5733 34.6092L35.1984 34.9401ZM35.1984 56.5421H34.6984H35.1984ZM12.7984 20.0734V20.5734H28.7984V20.0734V19.5734H12.7984V20.0734ZM12.7984 28.0734V28.5734H28.7984V28.0734V27.5734H12.7984V28.0734ZM35.9095 40.8734V40.3734H7.99844V40.8734V41.3734H35.9095V40.8734ZM6.39844 39.2734H6.89844V8.87344H6.39844H5.89844V39.2734H6.39844ZM7.99844 7.27344V7.77344H55.9984V7.27344V6.77344H7.99844V7.27344ZM57.5984 8.87344H57.0984V24.7504H57.5984H58.0984V8.87344H57.5984ZM55.9984 7.27344V7.77344C56.6059 7.77344 57.0984 8.26592 57.0984 8.87344H57.5984H58.0984C58.0984 7.71364 57.1582 6.77344 55.9984 6.77344V7.27344ZM6.39844 8.87344H6.89844C6.89844 8.26592 7.39092 7.77344 7.99844 7.77344V7.27344V6.77344C6.83864 6.77344 5.89844 7.71364 5.89844 8.87344H6.39844ZM7.99844 40.8734V40.3734C7.39092 40.3734 6.89844 39.881 6.89844 39.2734H6.39844H5.89844C5.89844 40.4332 6.83864 41.3734 7.99844 41.3734V40.8734ZM31.9984 26.4734H32.4984C32.4984 19.6803 38.0053 14.1734 44.7984 14.1734V13.6734V13.1734C37.453 13.1734 31.4984 19.1281 31.4984 26.4734H31.9984ZM44.7984 13.6734V14.1734C51.5915 14.1734 57.0984 19.6803 57.0984 26.4734H57.5984H58.0984C58.0984 19.1281 52.1438 13.1734 44.7984 13.1734V13.6734ZM57.5984 26.4734H57.0984C57.0984 29.5932 55.9376 32.4406 54.0236 34.6092L54.3984 34.9401L54.7733 35.2709C56.8424 32.9267 58.0984 29.8461 58.0984 26.4734H57.5984ZM54.3984 34.9401L54.0236 34.6092C51.769 37.1636 48.472 38.7734 44.7984 38.7734V39.2734V39.7734C48.7709 39.7734 52.337 38.0313 54.7733 35.2709L54.3984 34.9401ZM54.3984 34.9401H53.8984V56.5421H54.3984H54.8984V34.9401H54.3984ZM44.7984 39.2734V38.7734C41.1248 38.7734 37.8278 37.1636 35.5733 34.6092L35.1984 34.9401L34.8236 35.2709C37.2599 38.0313 40.826 39.7734 44.7984 39.7734V39.2734ZM35.1984 34.9401L35.5733 34.6092C33.6593 32.4406 32.4984 29.5932 32.4984 26.4734H31.9984H31.4984C31.4984 29.8461 32.7545 32.9267 34.8236 35.2709L35.1984 34.9401ZM35.1984 56.5421H35.6984V34.9401H35.1984H34.6984V56.5421H35.1984ZM53.0327 57.1078L53.3863 56.7542L45.7177 49.0856L45.3641 49.4391L45.0106 49.7927L52.6792 57.4613L53.0327 57.1078ZM44.2327 49.4391L43.8792 49.0856L36.2106 56.7542L36.5641 57.1078L36.9177 57.4613L44.5863 49.7927L44.2327 49.4391ZM45.3641 49.4391L45.7177 49.0856C45.21 48.5779 44.3869 48.5779 43.8792 49.0856L44.2327 49.4391L44.5863 49.7927C44.7035 49.6755 44.8934 49.6755 45.0106 49.7927L45.3641 49.4391ZM35.1984 56.5421H34.6984C34.6984 57.7002 36.0987 58.2803 36.9177 57.4613L36.5641 57.1078L36.2106 56.7542C36.0216 56.9432 35.6984 56.8093 35.6984 56.5421H35.1984ZM54.3984 56.5421H53.8984C53.8984 56.8093 53.5753 56.9432 53.3863 56.7542L53.0327 57.1078L52.6792 57.4613C53.4981 58.2803 54.8984 57.7002 54.8984 56.5421H54.3984Z" fill="url(#paint1_linear_3088_152999)"/>
</g>
<defs>
<linearGradient id="paint0_linear_3088_152999" x1="35.2016" y1="10.4727" x2="35.2016" y2="44.0727" gradientUnits="userSpaceOnUse">
<stop stop-color="#8C4ACB"/>
<stop offset="1" stop-color="#4BA4AA"/>
</linearGradient>
<linearGradient id="paint1_linear_3088_152999" x1="31.9984" y1="7.27344" x2="31.9984" y2="57.3437" gradientUnits="userSpaceOnUse">
<stop stop-color="#8C4ACB"/>
<stop offset="1" stop-color="#4BA4AA"/>
</linearGradient>
</defs>
</svg>
