<svg width="45" height="58" viewBox="0 0 45 58" fill="none" xmlns="http://www.w3.org/2000/svg">
<g id="workspace_premium">
<path d="M28.6598 25.9068L26.3395 33.7476L32.5822 38.2764L24.8116 38.318L22.4744 46.2408L20.0524 38.3435L12.2818 38.3851L18.4931 33.7896L16.089 25.9741L22.3917 30.7998L28.6598 25.9068ZM37.3993 1.03327L37.5063 21.0235C39.4375 22.9034 40.9407 25.1082 42.0159 27.6379C43.0912 30.168 43.6365 32.8777 43.652 35.7669C43.6837 41.6859 41.6514 46.7155 37.5553 50.8558C33.4591 54.996 28.4515 57.082 22.5326 57.1137C16.6136 57.1453 11.584 55.1131 7.44372 51.0169C3.30347 46.9208 1.21751 41.9132 1.18582 35.9942C1.17036 33.105 1.68666 30.3897 2.73475 27.8481C3.78283 25.3071 5.26235 23.0863 7.17332 21.1858L7.06632 1.19563L22.2572 5.6644L37.3993 1.03327ZM22.3215 17.6808C17.266 17.7079 12.9783 19.5003 9.45838 23.0581C5.93848 26.6159 4.19206 30.9225 4.21912 35.978C4.24618 41.0335 6.03861 45.3212 9.59639 48.8411C13.1542 52.361 17.4608 54.1074 22.5163 54.0804C27.5718 54.0533 31.8595 52.2609 35.3794 48.7031C38.8993 45.1453 40.6457 40.8387 40.6187 35.7832C40.5916 30.7277 38.7992 26.44 35.2414 22.9201C31.6836 19.4002 27.377 17.6537 22.3215 17.6808ZM34.389 5.34844L22.274 8.81448L10.1226 5.47833L10.1929 18.6148C11.8779 17.3616 13.7521 16.39 15.8156 15.6999C17.8787 15.0104 20.0419 14.6596 22.3052 14.6475C24.5686 14.6354 26.7354 14.963 28.8057 15.6304C30.8766 16.2983 32.7611 17.2498 34.4593 18.4849L34.389 5.34844Z" fill="white"/>
<path d="M28.6598 25.9068L26.3395 33.7476L32.5822 38.2764L24.8116 38.318L22.4744 46.2408L20.0524 38.3435L12.2818 38.3851L18.4931 33.7896L16.089 25.9741L22.3917 30.7998L28.6598 25.9068ZM37.3993 1.03327L37.5063 21.0235C39.4375 22.9034 40.9407 25.1082 42.0159 27.6379C43.0912 30.168 43.6365 32.8777 43.652 35.7669C43.6837 41.6859 41.6514 46.7155 37.5553 50.8558C33.4591 54.996 28.4515 57.082 22.5326 57.1137C16.6136 57.1453 11.584 55.1131 7.44372 51.0169C3.30347 46.9208 1.21751 41.9132 1.18582 35.9942C1.17036 33.105 1.68666 30.3897 2.73475 27.8481C3.78283 25.3071 5.26235 23.0863 7.17332 21.1858L7.06632 1.19563L22.2572 5.6644L37.3993 1.03327ZM22.3215 17.6808C17.266 17.7079 12.9783 19.5003 9.45838 23.0581C5.93848 26.6159 4.19206 30.9225 4.21912 35.978C4.24618 41.0335 6.03861 45.3212 9.59639 48.8411C13.1542 52.361 17.4608 54.1074 22.5163 54.0804C27.5718 54.0533 31.8595 52.2609 35.3794 48.7031C38.8993 45.1453 40.6457 40.8387 40.6187 35.7832C40.5916 30.7277 38.7992 26.44 35.2414 22.9201C31.6836 19.4002 27.377 17.6537 22.3215 17.6808ZM34.389 5.34844L22.274 8.81448L10.1226 5.47833L10.1929 18.6148C11.8779 17.3616 13.7521 16.39 15.8156 15.6999C17.8787 15.0104 20.0419 14.6596 22.3052 14.6475C24.5686 14.6354 26.7354 14.963 28.8057 15.6304C30.8766 16.2983 32.7611 17.2498 34.4593 18.4849L34.389 5.34844Z" fill="url(#paint0_linear_2838_106789)"/>
<path d="M28.6598 25.9068L26.3395 33.7476L32.5822 38.2764L24.8116 38.318L22.4744 46.2408L20.0524 38.3435L12.2818 38.3851L18.4931 33.7896L16.089 25.9741L22.3917 30.7998L28.6598 25.9068ZM37.3993 1.03327L37.5063 21.0235C39.4375 22.9034 40.9407 25.1082 42.0159 27.6379C43.0912 30.168 43.6365 32.8777 43.652 35.7669C43.6837 41.6859 41.6514 46.7155 37.5553 50.8558C33.4591 54.996 28.4515 57.082 22.5326 57.1137C16.6136 57.1453 11.584 55.1131 7.44372 51.0169C3.30347 46.9208 1.21751 41.9132 1.18582 35.9942C1.17036 33.105 1.68666 30.3897 2.73475 27.8481C3.78283 25.3071 5.26235 23.0863 7.17332 21.1858L7.06632 1.19563L22.2572 5.6644L37.3993 1.03327ZM22.3215 17.6808C17.266 17.7079 12.9783 19.5003 9.45838 23.0581C5.93848 26.6159 4.19206 30.9225 4.21912 35.978C4.24618 41.0335 6.03861 45.3212 9.59639 48.8411C13.1542 52.361 17.4608 54.1074 22.5163 54.0804C27.5718 54.0533 31.8595 52.2609 35.3794 48.7031C38.8993 45.1453 40.6457 40.8387 40.6187 35.7832C40.5916 30.7277 38.7992 26.44 35.2414 22.9201C31.6836 19.4002 27.377 17.6537 22.3215 17.6808ZM34.389 5.34844L22.274 8.81448L10.1226 5.47833L10.1929 18.6148C11.8779 17.3616 13.7521 16.39 15.8156 15.6999C17.8787 15.0104 20.0419 14.6596 22.3052 14.6475C24.5686 14.6354 26.7354 14.963 28.8057 15.6304C30.8766 16.2983 32.7611 17.2498 34.4593 18.4849L34.389 5.34844Z" stroke="white"/>
</g>
<defs>
<linearGradient id="paint0_linear_2838_106789" x1="43.7656" y1="57" x2="-14.0823" y2="51.2533" gradientUnits="userSpaceOnUse">
<stop stop-color="#9342CE"/>
<stop offset="0.514675" stop-color="#6284B6"/>
<stop offset="1" stop-color="#35C29F"/>
</linearGradient>
</defs>
</svg>
