<svg xmlns="http://www.w3.org/2000/svg" width="24" height="24" fill="none" viewBox="0 0 24 24">
  <path fill="#000" d="M6.096 23.33a.528.528 0 0 1-.373-.155L.155 17.607A.523.523 0 0 1 0 17.234V6.096a.522.522 0 0 1 .155-.373L5.723.154A.528.528 0 0 1 6.095 0h11.138a.53.53 0 0 1 .374.154l5.568 5.569a.522.522 0 0 1 .155.372v11.138a.524.524 0 0 1-.155.373l-5.568 5.568a.53.53 0 0 1-.373.155l-11.138.001Zm6.152-2.22a7.51 7.51 0 0 1-1.513 1.166h6.283l5.26-5.26v-.574a6.436 6.436 0 0 0-1.366-3.996l-8.664 8.663ZM1.054 17.016l5.261 5.26h.573a6.438 6.438 0 0 0 3.997-1.366L2.22 12.25a7.527 7.527 0 0 1-1.167-1.514v6.282Zm2.075-5.351 8.536 8.537 8.537-8.537-8.537-8.537-8.536 8.537Zm9.319-9.246 8.664 8.662c.452.453.844.962 1.167 1.514v-6.28l-5.261-5.26h-.573a6.433 6.433 0 0 0-3.997 1.365ZM1.056 6.315v.571a6.439 6.439 0 0 0 1.366 3.997l8.663-8.662a7.507 7.507 0 0 1 1.513-1.167H6.314l-5.258 5.26Z"/>
</svg>
