<svg xmlns="http://www.w3.org/2000/svg" width="24" height="24" fill="none" viewBox="0 0 24 24">
  <path fill="#000" fill-rule="evenodd" d="M6.937 3a4.843 4.843 0 0 0-3.513 1.435l-.005.004A5.06 5.06 0 0 0 2 8.024v.012l.001.011a8.526 8.526 0 0 0 2.311 5.327 69.575 69.575 0 0 0 6.676 6.696l.221.207L12 21l.785-.72.224-.212a69.719 69.719 0 0 0 6.679-6.694 8.568 8.568 0 0 0 2.311-5.32L22 8.04v-.01a5.07 5.07 0 0 0-1.418-3.585l-.005-.005A4.865 4.865 0 0 0 17.058 3a5.383 5.383 0 0 0-2.26.52 5.428 5.428 0 0 0-1.84 1.426l-.96 1.152-.963-1.152a5.45 5.45 0 0 0-1.84-1.424A5.4 5.4 0 0 0 6.937 3Z" clip-rule="evenodd"/>
</svg>
