<svg xmlns="http://www.w3.org/2000/svg" width="24" height="24" fill="none" viewBox="0 0 24 24">
  <path fill="#000" fill-rule="evenodd" d="M6.924 3.961a3.898 3.898 0 0 0-2.826 1.152A4.065 4.065 0 0 0 2.953 8a7.561 7.561 0 0 0 2.054 4.718l.008.008.006.008a68.595 68.595 0 0 0 6.596 6.616l.006.006.23.214.004.004.141.13.142-.13.23-.218.007-.007a68.736 68.736 0 0 0 6.6-6.615l.007-.008.007-.007a7.603 7.603 0 0 0 2.056-4.715 4.104 4.104 0 0 0-1.145-2.885 3.947 3.947 0 0 0-2.833-1.157h-.002a4.438 4.438 0 0 0-1.864.429c-.583.277-1.1.678-1.516 1.175l-1.69 2.025-1.69-2.024A4.494 4.494 0 0 0 8.79 4.39a4.455 4.455 0 0 0-1.864-.43h-.002Zm.013-.96a4.843 4.843 0 0 0-3.513 1.434l-.005.004A5.06 5.06 0 0 0 2 8.024v.012l.001.011a8.526 8.526 0 0 0 2.311 5.327 69.575 69.575 0 0 0 6.676 6.696l.221.207L12 21l.785-.72.224-.212a69.719 69.719 0 0 0 6.679-6.694 8.568 8.568 0 0 0 2.311-5.32L22 8.04v-.01a5.07 5.07 0 0 0-1.418-3.585l-.005-.005A4.865 4.865 0 0 0 17.058 3a5.383 5.383 0 0 0-2.26.52 5.428 5.428 0 0 0-1.84 1.426l-.96 1.152-.963-1.152a5.45 5.45 0 0 0-1.84-1.424A5.4 5.4 0 0 0 6.937 3Z" clip-rule="evenodd"/>
</svg>
