<svg xmlns="http://www.w3.org/2000/svg" width="24" height="24" fill="none" viewBox="0 0 24 24">
  <path fill="#000" fill-rule="evenodd" d="M5.909 2.153a4.678 4.678 0 0 0-3.391 1.383 4.91 4.91 0 0 0-1.375 3.462 9.073 9.073 0 0 0 2.466 5.663l.008.009.009.01a82.324 82.324 0 0 0 7.915 7.94l.007.006.275.257.005.004.17.156.17-.156.275-.261.01-.008a82.521 82.521 0 0 0 7.92-7.939l.008-.009.008-.008a9.124 9.124 0 0 0 2.468-5.658 4.923 4.923 0 0 0-1.375-3.462 4.703 4.703 0 0 0-3.4-1.388h-.001a5.325 5.325 0 0 0-2.237.514 5.37 5.37 0 0 0-1.82 1.41l-2.027 2.43-2.028-2.43a5.393 5.393 0 0 0-1.82-1.408 5.346 5.346 0 0 0-2.238-.517H5.91Zm.015-1.152a5.812 5.812 0 0 0-2.28.43 5.853 5.853 0 0 0-1.935 1.29l-.006.006a6.031 6.031 0 0 0-1.277 1.98A6.072 6.072 0 0 0 0 7.029v.028a10.231 10.231 0 0 0 2.773 6.392 83.487 83.487 0 0 0 8.011 8.035l.266.249.947.867.943-.863.269-.256a83.658 83.658 0 0 0 8.014-8.033 10.282 10.282 0 0 0 2.774-6.384L24 7.05v-.015a6.082 6.082 0 0 0-1.702-4.3l-.006-.007a5.879 5.879 0 0 0-1.939-1.292A5.837 5.837 0 0 0 18.07 1a6.46 6.46 0 0 0-2.713.624 6.513 6.513 0 0 0-2.206 1.71l-1.155 1.383-1.154-1.383a6.54 6.54 0 0 0-2.207-1.708A6.481 6.481 0 0 0 5.925 1Z" clip-rule="evenodd"/>
</svg>
