<svg xmlns="http://www.w3.org/2000/svg" width="21" height="19" fill="none" viewBox="0 0 21 19">
  <path fill="#000" fill-rule="evenodd" d="M12.088 16.392a.322.322 0 0 1-.3.3H8.806a.3.3 0 0 1 0-.595h2.985a.317.317 0 0 1 .297.295Zm-.3.92H8.806a.3.3 0 0 0 0 .594h1.179v.3a.311.311 0 0 0 .62 0v-.3h1.179a.3.3 0 0 0 0-.595h.004Zm4.21-7.814a5.43 5.43 0 0 1-3.9 5.1v.6a.323.323 0 0 1-.3.3h-3a.323.323 0 0 1-.3-.3v-.6a5.431 5.431 0 0 1-3.9-5.1 5.545 5.545 0 0 1 5.7-5.4 5.545 5.545 0 0 1 5.7 5.4Zm-.6 0a4.97 4.97 0 0 0-5.1-4.8 4.972 4.972 0 0 0-5.1 4.8 4.875 4.875 0 0 0 3.7 4.6.338.338 0 0 1 .2.3v.5h2.4v-.5a.339.339 0 0 1 .2-.3 4.875 4.875 0 0 0 3.7-4.6Z" clip-rule="evenodd"/>
  <path stroke="#000" stroke-linecap="round" stroke-width=".8" d="M7.557 11.192a3.4 3.4 0 0 1-.92-2.025A3.783 3.783 0 0 1 7.7 7.122"/>
  <path stroke="#000" stroke-linecap="round" d="M10.36.5v2.16m9.358 6.48h-2.16m-14.398 0H1m2.16-6.48 1.528 1.528M16.925 2.66l-1.527 1.528"/>
</svg>
