<svg xmlns="http://www.w3.org/2000/svg" width="24" height="24" fill="none" viewBox="0 0 24 24">
  <path fill="#000" stroke="#000" stroke-miterlimit="10" stroke-width=".5" d="M11.974 22a10 10 0 1 1 7.11-2.943A10.038 10.038 0 0 1 11.975 22Zm0-19.175a9.116 9.116 0 1 0 6.484 2.67 9.165 9.165 0 0 0-6.484-2.67Zm2.61 15.7H9.362a.441.441 0 0 1 0-.878h2.186v-6.983h-1.304a.465.465 0 0 1-.433-.436.47.47 0 0 1 .433-.435h1.737a.417.417 0 0 1 .435.435v7.408h2.17a.44.44 0 0 1 0 .877l-.002.012Zm-3.028-10.89a.877.877 0 1 1-.035-1.754.877.877 0 0 1 .035 1.754Z"/>
</svg>
