<svg xmlns="http://www.w3.org/2000/svg" width="24" height="24" fill="none" viewBox="0 0 24 24">
  <path fill="#000" d="M11.554 21.585v-2.09c-1.912-.089-3.713-.872-5.028-2.186-1.314-1.313-2.04-3.055-2.026-4.862v-1.663a.383.383 0 0 1 .123-.301.45.45 0 0 1 .316-.119.412.412 0 0 1 .33.106.365.365 0 0 1 .11.313v1.664c.07 1.612.799 3.135 2.032 4.252s2.876 1.74 4.585 1.74c1.71 0 3.352-.623 4.586-1.74 1.233-1.117 1.96-2.64 2.03-4.252v-1.663a.402.402 0 0 1 .125-.3.43.43 0 0 1 .318-.12.416.416 0 0 1 .33.107.35.35 0 0 1 .111.312v1.664c.015 1.807-.71 3.55-2.026 4.864-1.315 1.314-3.118 2.096-5.031 2.185v2.089a.398.398 0 0 1-.27.388.445.445 0 0 1-.171.027.492.492 0 0 1-.304-.13.437.437 0 0 1-.14-.285Zm-5.298-9.187V7.417c0-1.437.605-2.814 1.681-3.83C9.014 2.571 10.473 2 11.995 2c1.522 0 2.982.571 4.058 1.587 1.077 1.016 1.682 2.393 1.682 3.83v4.981c0 1.437-.605 2.814-1.682 3.83-1.076 1.016-2.536 1.587-4.058 1.587-1.522 0-2.981-.571-4.058-1.587-1.076-1.016-1.68-2.393-1.68-3.83Zm.884-4.981v4.981a4.492 4.492 0 0 0 1.437 3.224 5.044 5.044 0 0 0 3.42 1.349 5.095 5.095 0 0 0 1.858-.346 4.874 4.874 0 0 0 1.575-.99c.451-.425.809-.93 1.053-1.485.244-.555.37-1.15.37-1.752V7.417a4.309 4.309 0 0 0-.359-1.759 4.52 4.52 0 0 0-1.05-1.49 4.833 4.833 0 0 0-1.582-.99 5.052 5.052 0 0 0-1.864-.334 5.1 5.1 0 0 0-1.858.346c-.59.23-1.125.566-1.576.99-.451.425-.81.93-1.054 1.486a4.345 4.345 0 0 0-.37 1.75Z"/>
</svg>
