<svg xmlns="http://www.w3.org/2000/svg" width="24" height="24" fill="none" viewBox="0 0 24 24">
  <path fill="#000" fill-rule="evenodd" d="M14.164 8.567a1.731 1.731 0 0 1 1.375 1.375v.02a.058.058 0 0 0 .114 0v-.02a1.731 1.731 0 0 1 1.382-1.375h.021a.058.058 0 0 0 .048-.057.058.058 0 0 0-.047-.057h-.021a1.73 1.73 0 0 1-1.377-1.386v-.021a.058.058 0 0 0-.114 0v.02a1.73 1.73 0 0 1-1.381 1.376h-.021a.058.058 0 0 0-.048.057.058.058 0 0 0 .047.057l.022.01Zm1.436.185a2.316 2.316 0 0 0-.246-.246 2.38 2.38 0 0 0 .246-.246c.075.088.158.17.245.246a2.333 2.333 0 0 0-.242.243l-.003.003Zm-8.052.859a2.743 2.743 0 0 0-.437-.121l-.033-.006a.091.091 0 0 1 0-.18l.033-.006c.148-.028.294-.069.437-.121a4.51 4.51 0 0 0 .246-.1 2.744 2.744 0 0 0 1.269-1.278c.038-.08.072-.162.1-.246.052-.142.092-.288.12-.437l.007-.033a.091.091 0 0 1 .18 0l.006.033c.028.149.068.295.12.437.032.084.065.166.1.246a2.744 2.744 0 0 0 1.28 1.268c.08.038.162.072.246.1.143.052.289.093.438.12l.033.007a.09.09 0 0 1 0 .18l-.034.006a2.746 2.746 0 0 0-.437.12 4.51 4.51 0 0 0-.245.1 2.744 2.744 0 0 0-1.273 1.282c-.04.08-.072.162-.1.246a2.744 2.744 0 0 0-.121.437l-.006.033a.09.09 0 0 1-.18 0l-.008-.031a2.746 2.746 0 0 0-.121-.437 4.519 4.519 0 0 0-.1-.246 2.744 2.744 0 0 0-1.52-1.376v.003Zm.875-.218c.383.251.71.579.962.962a3.34 3.34 0 0 1 .962-.962 3.34 3.34 0 0 1-.962-.962 3.339 3.339 0 0 1-.962.959v.003Zm1.149 4.526a4.257 4.257 0 0 0-.3-.07l-.047-.01h-.01l-.043-.007h-.007a.148.148 0 0 1 0-.291h.008l.043-.008h.01l.048-.01a4.636 4.636 0 0 0 .549-.144 4.44 4.44 0 0 0 2.947-3.361l.01-.047V9.96l.008-.042v-.01a.148.148 0 0 1 .29 0v.009l.008.043v.007l.018.05a4.69 4.69 0 0 0 .145.55 4.441 4.441 0 0 0 3.351 2.945l.047.009h.022l.032.006h.002a.148.148 0 0 1 0 .29h-.053l-.047.01a4.655 4.655 0 0 0-.549.145 4.44 4.44 0 0 0-2.95 3.354l-.01.047v.01l-.008.043v.008a.147.147 0 0 1-.145.12.148.148 0 0 1-.146-.12v-.008l-.008-.043v-.011l-.008-.047a4.624 4.624 0 0 0-.146-.548 4.44 4.44 0 0 0-2.805-2.806 2.543 2.543 0 0 1-.255-.055v.003Zm1.05-.235a5.036 5.036 0 0 1 2.313 2.313 5.037 5.037 0 0 1 2.313-2.313 5.037 5.037 0 0 1-2.313-2.317 5.035 5.035 0 0 1-2.313 2.314v.003Z" clip-rule="evenodd"/>
</svg>
