<svg xmlns="http://www.w3.org/2000/svg" width="24" height="24" fill="none" viewBox="0 0 24 24">
  <path fill="#000" d="M2.008 11.665a9.111 9.111 0 0 0 2.317 6.475 8.278 8.278 0 0 0 2.71 2.067 8.195 8.195 0 0 0 3.303.793h.07a.46.46 0 0 0 .436-.38.563.563 0 0 0-.435-.525 7.473 7.473 0 0 1-2.978-.71 7.547 7.547 0 0 1-2.453-1.848 8.177 8.177 0 0 1-2.103-5.797c.003-1.615.5-3.19 1.42-4.509a7.77 7.77 0 0 1 3.73-2.861 7.68 7.68 0 0 1 4.678-.174 7.753 7.753 0 0 1 3.926 2.577 8.369 8.369 0 0 1 1.952 5.495l-2.36-2.802a.378.378 0 0 0-.272-.177.371.371 0 0 0-.307.102.407.407 0 0 0-.154.455.41.41 0 0 0 .083.149l2.987 3.569c.021.04.05.076.085.106a.303.303 0 0 0 .235.101.328.328 0 0 0 .33-.072.52.52 0 0 0 .115-.078l2.608-4.08a.51.51 0 0 0-.145-.674.44.44 0 0 0-.579.152l-1.777 2.78a9.796 9.796 0 0 0-2.069-5.63 8.67 8.67 0 0 0-4.372-2.853 8.589 8.589 0 0 0-5.2.188A8.688 8.688 0 0 0 3.63 6.666a8.838 8.838 0 0 0-1.622 4.998l.001.002Z"/>
</svg>
