<svg xmlns="http://www.w3.org/2000/svg" width="24" height="24" fill="none" viewBox="0 0 24 24">
  <path fill="#000" stroke="#000" d="m17.83 20.524-.016.012h-.198l-5.436-2.885-.236-.126-.236.128-5.399 2.92a.14.14 0 0 1-.115-.028l-.013-.011-.014-.01a.25.25 0 0 1-.104-.184l1.04-6.053.044-.259-.187-.183-4.388-4.304a.275.275 0 0 1-.07-.146.2.2 0 0 1 .11-.063l6.166-.945.259-.04.115-.234 2.72-5.569a.074.074 0 0 1 .066-.04l.035.001.036-.004a.133.133 0 0 1 .126.058l2.711 5.554.115.235.259.04 6.166.944c.032.006.061.02.086.04l.026-.033-.026.033a.192.192 0 0 1 .024.023.275.275 0 0 1-.01.047l.474.157-.475-.157a.275.275 0 0 1-.058.1l-4.389 4.303-.186.183.044.258 1.039 6.054a.249.249 0 0 1-.104.184Z"/>
</svg>
