<svg xmlns="http://www.w3.org/2000/svg" width="24" height="24" fill="none" viewBox="0 0 24 24">
  <path fill="#000" stroke="#000" stroke-miterlimit="10" stroke-width=".5" d="M11.957 22a10 10 0 1 1 7.113-2.928A10.053 10.053 0 0 1 11.957 22Zm0-19.246A9.19 9.19 0 0 0 5.472 18.47 9.2 9.2 0 0 0 18.468 5.448a9.147 9.147 0 0 0-6.51-2.694ZM9.886 15.306a.279.279 0 0 1-.277-.14l-2.084-2.092a.43.43 0 0 1 0-.558.399.399 0 0 1 .291-.104c.12 0 .238.037.338.105l1.733 1.813 5.975-5.58a.52.52 0 0 1 .628 0 .448.448 0 0 1-.07.628l-6.255 5.858c-.07.07-.14.07-.279.07Z"/>
</svg>
