<svg xmlns="http://www.w3.org/2000/svg" width="24" height="24" fill="none" viewBox="0 0 24 24">
  <path fill="#000" fill-rule="evenodd" d="M13.69 14.91a.371.371 0 0 1-.417.424H7.634l1.788 1.795a.423.423 0 0 1 0 .554c-.07.139-.207.139-.345.139a.274.274 0 0 1-.276-.139c-1.62-1.627-2.18-2.192-2.377-2.387a.394.394 0 0 1-.246-.385.439.439 0 0 1 .204-.342l2.417-2.43a.515.515 0 0 1 .618 0 .424.424 0 0 1 0 .554L7.63 14.49h5.64a.402.402 0 0 1 .42.422Zm1.568-8.593a.53.53 0 0 0-.63 0 .418.418 0 0 0 0 .554l1.812 1.796h-5.668a.45.45 0 0 0-.415.422.402.402 0 0 0 .415.423h5.668l-1.812 1.795a.418.418 0 0 0 0 .555.28.28 0 0 0 .282.138c.14 0 .28 0 .35-.138l2.517-2.496a.418.418 0 0 0 0-.554l-2.519-2.495ZM22 12A10 10 0 1 1 12 2a9.958 9.958 0 0 1 10 10Zm-.833 0a9.164 9.164 0 1 0-5.656 8.469A9.156 9.156 0 0 0 21.168 12Z" clip-rule="evenodd"/>
</svg>
