<svg xmlns="http://www.w3.org/2000/svg" width="24" height="24" fill="none" viewBox="0 0 24 24">
  <path fill="#000" fill-rule="evenodd" d="M12.025 2A10 10 0 1 0 22 12a10.008 10.008 0 0 0-9.975-10Zm0 19.13a9.13 9.13 0 0 1 0-18.26 9.131 9.131 0 0 1 0 18.26Zm5.076-10.272a.547.547 0 0 1 0 .653.432.432 0 0 1-.29.073.65.65 0 0 1-.361-.073l-4.008-4.087v10.22a.41.41 0 0 1-.252.402.408.408 0 0 1-.165.03c-.277 0-.416-.144-.416-.432V7.44C7.565 11.5 7.55 11.511 7.55 11.511a.537.537 0 0 1-.65 0 .548.548 0 0 1 0-.653l4.775-4.79a.508.508 0 0 1 .066-.032.393.393 0 0 1 .283-.114.41.41 0 0 1 .287.136c.004 0 .011.005.014.01l4.775 4.79Z" clip-rule="evenodd"/>
</svg>
