<svg xmlns="http://www.w3.org/2000/svg" width="24" height="24" fill="none" viewBox="0 0 24 24">
  <path fill="#000" fill-rule="evenodd" d="M12.695 3.389v7.709l4.028-3.681-4.027-4.028Zm0 9.514v7.708l4.028-4.027-4.027-3.68ZM12.28 22h-.139a.568.568 0 0 1-.28-.416v-8.611l-5.138 4.721a.394.394 0 0 1-.625 0 .367.367 0 0 1 .07-.555L11.718 12 6.166 6.861a.393.393 0 1 1 .556-.555l5.138 4.722V2.417A.571.571 0 0 1 12.14 2c.14 0 .347 0 .417.14l5.068 5a.524.524 0 0 1 .139.277.358.358 0 0 1-.139.28l-4.652 4.306 4.652 4.305a.347.347 0 0 1 0 .556l-5.068 5a.361.361 0 0 1-.277.136Z" clip-rule="evenodd"/>
</svg>
