<svg xmlns="http://www.w3.org/2000/svg" width="24" height="24" fill="none" viewBox="0 0 24 24">
  <path fill="#000" fill-rule="evenodd" d="m21.334 6.465-1.668-4.186A.468.468 0 0 0 19.252 2H5.084a.46.46 0 0 0-.346.279L3.134 6.305A.42.42 0 0 0 3 6.593v14.989a.4.4 0 0 0 .415.415h17.478a.367.367 0 0 0 .414-.415V6.822a.326.326 0 0 0 .027-.357Zm-.976-.287h-8.2v-3.34h6.817l1.384 3.34h-.001ZM5.43 2.838h5.879v3.34H4.047l1.383-3.34Zm-1.6 18.329V7.023h16.646v14.145H3.83Zm8.613-12.785a.347.347 0 0 0-.555 0L6.47 13.808a.428.428 0 0 0-.069.487.384.384 0 0 0 .347.209h2.085v4.59a.401.401 0 0 0 .414.418h5.834a.37.37 0 0 0 .414-.418v-4.59h2.084a.497.497 0 0 0 .414-.209.43.43 0 0 0-.138-.487l-5.412-5.425Zm2.639 5.286a.45.45 0 0 0-.415.418v4.59h-5v-4.59a.4.4 0 0 0-.414-.418H7.795l4.376-4.38 4.445 4.38h-1.533Z" clip-rule="evenodd"/>
</svg>
