<svg xmlns="http://www.w3.org/2000/svg" width="24" height="24" fill="none" viewBox="0 0 24 24">
  <path fill="#000" fill-rule="evenodd" d="M20.949 21.69a.526.526 0 0 1-.277-.138L2.869 3.66a.325.325 0 0 1 0-.555.421.421 0 0 1 .556 0l17.8 17.824a.39.39 0 0 1 0 .624.36.36 0 0 1-.276.139Zm-.27-4.83a4.267 4.267 0 0 0 1.317-3.274 4.706 4.706 0 0 0-1.388-3.345 4.475 4.475 0 0 0-3.053-1.254 6.339 6.339 0 0 0-5.55-3.345c-.885.01-1.759.2-2.569.558a.384.384 0 0 0-.258.396.386.386 0 0 0 .05.161.439.439 0 0 0 .555.21 4.921 4.921 0 0 1 2.222-.488 5.416 5.416 0 0 1 4.928 3.135.381.381 0 0 0 .346.209 3.755 3.755 0 0 1 2.777 1.045 3.585 3.585 0 0 1 1.109 2.718 3.42 3.42 0 0 1-1.04 2.647.448.448 0 0 0-.07.627.414.414 0 0 0 .624 0Zm-6.185 1.313a.418.418 0 0 0 0-.836H5.751a3.63 3.63 0 0 1-2.22-.836 2.835 2.835 0 0 1-.694-1.88 2.675 2.675 0 0 1 1.04-2.09 2.391 2.391 0 0 1 2.221-.557.518.518 0 0 0 .347-.07.382.382 0 0 0 .208-.348 6.474 6.474 0 0 1 .278-1.602.32.32 0 0 0-.209-.488.436.436 0 0 0-.554.209c-.149.456-.265.921-.348 1.393a3.528 3.528 0 0 0-3.816 3.552 3.15 3.15 0 0 0 .971 2.44 4.403 4.403 0 0 0 2.776 1.114l8.743-.001Z" clip-rule="evenodd"/>
</svg>
