<svg xmlns="http://www.w3.org/2000/svg" width="24" height="24" fill="none" viewBox="0 0 24 24">
  <path fill="#000" fill-rule="evenodd" d="M17.869 15.457a.408.408 0 0 1-.436-.362c-.072-.217.145-.434.363-.506.145 0 3.333-.435 3.333-3.692a3.717 3.717 0 0 0-1.087-2.68 3.645 3.645 0 0 0-2.752-1.012.595.595 0 0 1-.435-.29A5.38 5.38 0 0 0 6.637 8.942a.548.548 0 0 1-.145.29.654.654 0 0 1-.362.072 2.815 2.815 0 0 0-2.247.579A2.537 2.537 0 0 0 2.87 11.91c0 2.171 1.666 2.606 2.68 2.679a.395.395 0 0 1 .363.506.408.408 0 0 1-.435.362C4.68 15.385 2 14.95 2 11.91a3.692 3.692 0 0 1 1.304-2.752A3.927 3.927 0 0 1 5.84 8.36a6.219 6.219 0 0 1 11.668-2.027 4.576 4.576 0 0 1 3.116 1.23A4.774 4.774 0 0 1 22 10.896c0 3.983-4.059 4.562-4.131 4.562Zm-2.38-.122a3.932 3.932 0 1 1-3.931-3.91 3.904 3.904 0 0 1 3.93 3.91Zm.873 0a4.804 4.804 0 1 0-4.804 4.779 4.787 4.787 0 0 0 4.804-4.78Zm-4.937 1.594 2.17-2.191a.342.342 0 0 0 .12-.46.342.342 0 0 0-.12-.124.336.336 0 0 0-.578 0l-1.88 1.897-1.013-1.02a.338.338 0 0 0-.579 0 .446.446 0 0 0 0 .584l1.303 1.314c.079.076.18.127.289.145a.374.374 0 0 0 .289-.147v.002Z" clip-rule="evenodd"/>
</svg>
