<svg xmlns="http://www.w3.org/2000/svg" width="24" height="24" fill="none" viewBox="0 0 24 24">
  <path fill="#000" fill-rule="evenodd" d="M22 10.906c0 3.989-4.128 4.569-4.128 4.569H16.57a.384.384 0 0 1-.436-.435.42.42 0 0 1 .436-.435h1.23c.29 0 3.332-.58 3.332-3.699a3.8 3.8 0 0 0-1.159-2.684 3.447 3.447 0 0 0-2.753-1.015.482.482 0 0 1-.362-.29 5.362 5.362 0 0 0-4.851-3.046 5.292 5.292 0 0 0-5.362 5.077c-.072.072-.072.217-.216.29a.543.543 0 0 1-.363.072 2.81 2.81 0 0 0-2.247.58 2.698 2.698 0 0 0-.942 2.031 2.593 2.593 0 0 0 .652 1.886c.595.534 1.373.82 2.172.798h1.667a.42.42 0 0 1 .435.435.384.384 0 0 1-.435.435H5.7a4.152 4.152 0 0 1-2.752-1.016 3.337 3.337 0 0 1-.942-2.538 3.556 3.556 0 0 1 3.766-3.554A6.26 6.26 0 0 1 12.002 3a6.346 6.346 0 0 1 5.505 3.336 4.265 4.265 0 0 1 3.041 1.234A4.562 4.562 0 0 1 22 10.906Zm-7.726 5.915-1.85 1.894V11a.46.46 0 0 0-.418-.435.41.41 0 0 0-.417.435v7.706L9.688 16.82a.408.408 0 0 0-.655 0 .436.436 0 0 0 0 .578l2.62 2.598c.041.02.07.036.103.054.07.059.16.09.251.09h.012a.378.378 0 0 0 .045-.014.406.406 0 0 0 .183-.087.588.588 0 0 0 .064-.043l2.62-2.598a.437.437 0 0 0 0-.578.41.41 0 0 0-.657 0Z" clip-rule="evenodd"/>
</svg>
