<svg xmlns="http://www.w3.org/2000/svg" width="24" height="24" fill="none" viewBox="0 0 24 24">
  <path fill="#000" fill-rule="evenodd" d="M22.82 10.164c0 4.307-4.296 4.985-4.296 4.985a.487.487 0 0 1-.453-.453c0-.23 0-.454.453-.454 0-.23 3.392-.68 3.392-4.08a4.188 4.188 0 0 0-1.13-2.72 4.757 4.757 0 0 0-2.942-1.133c-.226 0-.225 0-.451-.23a5.562 5.562 0 0 0-4.976-3.173A5.671 5.671 0 0 0 6.762 8.12v.453H6.31a2.044 2.044 0 0 0-2.26.68 2.381 2.381 0 0 0-1.132 2.04 2.773 2.773 0 0 0 .68 2.04c.904.906 2.26.68 2.26.907.229 0 .452 0 .452.453a.487.487 0 0 1-.452.454 5.978 5.978 0 0 1-2.94-1.134 3.616 3.616 0 0 1-.905-2.72 3.232 3.232 0 0 1 1.357-2.72 3.599 3.599 0 0 1 2.714-.907C6.311 4.493 9.25 2 12.417 2a6.386 6.386 0 0 1 5.654 3.4c1.249.07 2.44.547 3.392 1.36a5.003 5.003 0 0 1 1.358 3.404Zm-11.54 8.43-2.025 1.814V13.38a.45.45 0 0 0-.9 0v7.031l-2.026-1.814c0-.23-.45-.23-.45 0-.225 0-.225.453 0 .453l2.7 2.722V22h.45v-.23l2.701-2.72c.226 0 .226-.454 0-.454 0-.229-.45-.229-.45-.003Zm6.804-5.922L15.36 9.946v-.23h-.454v.23l-2.724 2.726c-.23 0-.23.454 0 .454 0 .23.454.23.454 0l2.043-1.817v7.951a.454.454 0 0 0 .908 0v-7.95l2.042 1.817c0 .23 0 .23.23.23.229 0 .229 0 .229-.23.224 0 .223-.454-.004-.454Z" clip-rule="evenodd"/>
</svg>
