<svg xmlns="http://www.w3.org/2000/svg" width="24" height="24" fill="none" viewBox="0 0 24 24">
  <path fill="#000" fill-rule="evenodd" d="M5.544 12.28a2.82 2.82 0 0 0-2.707 2.723 2.84 2.84 0 0 0 .695 1.884 3.398 3.398 0 0 0 2.221.837h12.082c.347-.07 3.333-.628 3.333-3.766a3.865 3.865 0 0 0-1.11-2.722 3.75 3.75 0 0 0-2.778-1.047.381.381 0 0 1-.347-.21 5.43 5.43 0 0 0-10.345 1.955.386.386 0 0 1-.139.349.52.52 0 0 1-.347.07 1.346 1.346 0 0 0-.558-.072Zm.21 6.282a4.284 4.284 0 0 1-2.779-1.117 3.159 3.159 0 0 1-.971-2.442 3.532 3.532 0 0 1 3.819-3.56A6.289 6.289 0 0 1 12.002 6a6.426 6.426 0 0 1 5.554 3.35 4.613 4.613 0 0 1 3.055 1.256A4.713 4.713 0 0 1 22 13.956c0 3.978-4.027 4.606-4.096 4.606H5.754Z" clip-rule="evenodd"/>
</svg>
