<svg xmlns="http://www.w3.org/2000/svg" width="24" height="24" fill="none" viewBox="0 0 24 24">
  <path fill="#000" fill-rule="evenodd" d="M22 10.958c0 3.981-4.128 4.558-4.128 4.558h-2.174a.434.434 0 0 1 0-.868h2.101c.29-.072 3.333-.579 3.333-3.69a3.713 3.713 0 0 0-1.086-2.677 4.02 4.02 0 0 0-2.753-1.085c-.145.072-.362-.072-.435-.217a5.326 5.326 0 0 0-4.782-3.111h-.072a5.44 5.44 0 0 0-5.361 5.065.548.548 0 0 1-.145.289.656.656 0 0 1-.362.072 2.772 2.772 0 0 0-2.246.507 2.673 2.673 0 0 0-1.014 2.098 2.582 2.582 0 0 0 .652 1.881c.642.503 1.43.783 2.246.796l2.463.072a.417.417 0 0 1 .435.434.467.467 0 0 1-.435.434l-2.463-.072a4.339 4.339 0 0 1-2.826-1.085 3.163 3.163 0 0 1-.942-2.46 3.562 3.562 0 0 1 3.84-3.545A6.238 6.238 0 0 1 12.005 3h.072a6.351 6.351 0 0 1 5.504 3.328 4.837 4.837 0 0 1 3.043 1.302A4.767 4.767 0 0 1 22 10.958Zm-9.71-1.116a.43.43 0 0 0-.3-.142.449.449 0 0 0-.357.224l-2.517 2.507a.335.335 0 0 0 0 .574.34.34 0 0 0 .577 0l1.86-1.793-.063 8.47a.414.414 0 0 0 .43.433.38.38 0 0 0 .428-.434l.063-8.497 1.904 1.893a.375.375 0 0 0 .288.144.553.553 0 0 0 .289-.144.402.402 0 0 0 0-.646L12.29 9.84Z" clip-rule="evenodd"/>
</svg>
