<svg xmlns="http://www.w3.org/2000/svg" width="24" height="24" fill="none" viewBox="0 0 24 24">
  <path fill="#000" fill-rule="evenodd" d="M12.05 2a10 10 0 1 0-.1 20.001 10 10 0 0 0 .1-20Zm0 19.13A9.131 9.131 0 1 1 21.134 12a9.115 9.115 0 0 1-9.086 9.13Zm5.04-8.546a.338.338 0 0 1 .118.456.338.338 0 0 1-.119.123l-4.672 4.689a.385.385 0 0 1-.368.234h-.012a.33.33 0 0 1-.04-.013.414.414 0 0 1-.213-.108c-.01-.008-.026-.015-.035-.024l-4.764-4.78a.442.442 0 0 1 0-.579.338.338 0 0 1 .578 0l4.07 4.085V6.345a.457.457 0 0 1 .416-.435.41.41 0 0 1 .415.435v10.298l4.047-4.06a.337.337 0 0 1 .578 0Z" clip-rule="evenodd"/>
</svg>
