<svg xmlns="http://www.w3.org/2000/svg" width="24" height="24" fill="none" viewBox="0 0 24 24">
  <path fill="#000" fill-rule="evenodd" d="M6.886 8.946a.42.42 0 0 1 0-.555.389.389 0 0 1 .625 0l3.874 3.87V2.418A.404.404 0 0 1 11.807 2a.45.45 0 0 1 .42.417v9.86l3.827-3.885a.39.39 0 0 1 .625 0 .421.421 0 0 1 0 .555l-4.56 4.555a.435.435 0 0 1-.269.153c-.01 0-.025.01-.033.01h-.011a.41.41 0 0 1-.303-.12l-.034-.019-4.583-4.58ZM17.2 21.159H6.413a.422.422 0 0 0 0 .841H17.2a.423.423 0 0 0 0-.841Zm0-2.483H6.413a.4.4 0 0 0-.413.398.398.398 0 0 0 .413.398H17.2a.4.4 0 0 0 .382-.554.397.397 0 0 0-.382-.242ZM6.413 16.99H17.2a.422.422 0 0 0 0-.841H6.413a.422.422 0 0 0 0 .841Z" clip-rule="evenodd"/>
</svg>
