<svg xmlns="http://www.w3.org/2000/svg" width="24" height="24" fill="none" viewBox="0 0 24 24">
  <path fill="#000" fill-rule="evenodd" d="M22.001 17.445v1.663A2.92 2.92 0 0 1 19.031 22H4.898A2.905 2.905 0 0 1 2 19.108v-1.663a.435.435 0 0 1 .87 0v1.663a2.07 2.07 0 0 0 2.029 2.024H19.03a2.088 2.088 0 0 0 2.101-2.024v-1.663a.435.435 0 0 1 .87 0Zm-10.28.179c.07.069.143.071.275.071h.016a.433.433 0 0 0 .29-.072l6.082-6.076a.54.54 0 0 0 0-.652.439.439 0 0 0-.578 0l-5.388 5.384V2.43a.416.416 0 1 0-.831 0v13.824l-5.366-5.36a.44.44 0 0 0-.58 0 .405.405 0 0 0 0 .652l6.08 6.077Z" clip-rule="evenodd"/>
</svg>
