<svg xmlns="http://www.w3.org/2000/svg" width="24" height="24" fill="none" viewBox="0 0 24 24">
  <path fill="#000" fill-rule="evenodd" d="M21.997 17.433V19.1a2.905 2.905 0 0 1-2.898 2.9H4.972A2.926 2.926 0 0 1 2 19.1v-1.668A.468.468 0 0 1 2.433 17a.417.417 0 0 1 .432.433V19.1a2.04 2.04 0 0 0 2.101 2.03h14.127a2.025 2.025 0 0 0 2.03-2.03v-1.668a.468.468 0 0 1 .432-.433.417.417 0 0 1 .442.433Zm-15.79-8.52s.014-.017 5.35-5.366v13.848a.472.472 0 0 0 .44.436.425.425 0 0 0 .414-.265.421.421 0 0 0 .03-.17V3.52l5.375 5.392a.439.439 0 0 0 .291.072c.145 0 .218 0 .29-.072a.41.41 0 0 0 0-.655l-6.013-6.03A.407.407 0 0 0 11.998 2a.473.473 0 0 0-.392.261l-5.98 5.995a.547.547 0 0 0 0 .655.44.44 0 0 0 .58.002Z" clip-rule="evenodd"/>
</svg>
