<svg xmlns="http://www.w3.org/2000/svg" width="24" height="24" fill="none" viewBox="0 0 24 24">
  <path fill="#000" fill-rule="evenodd" d="M21.88 6.815a.602.602 0 0 0 0-.723 13.902 13.902 0 0 0-19.701 0 .453.453 0 0 0 0 .723.488.488 0 0 0 .64 0 12.84 12.84 0 0 1 18.34 0 .72.72 0 0 0 .4.08.48.48 0 0 0 .32-.08Zm-2.71 3.684a.596.596 0 0 0 0-.721 10.08 10.08 0 0 0-14.281 0 .449.449 0 0 0 0 .721.487.487 0 0 0 .64 0 9.046 9.046 0 0 1 6.5-2.725 8.861 8.861 0 0 1 6.419 2.725.728.728 0 0 0 .402.08.483.483 0 0 0 .32-.08ZM8.291 14.185a5.357 5.357 0 0 1 7.527 0 .489.489 0 0 0 .64 0 .584.584 0 0 0 0-.714 6.33 6.33 0 0 0-8.81 0 .444.444 0 0 0-.133.557.443.443 0 0 0 .134.157c.08.08.16.08.32.08a.483.483 0 0 0 .323-.08Zm5.2 4.683a1.446 1.446 0 1 1-2.894-.001 1.446 1.446 0 0 1 2.893 0Zm.962 0a2.471 2.471 0 0 0-2.41-2.41 2.418 2.418 0 0 0-2.412 2.41 2.367 2.367 0 0 0 2.412 2.41 2.418 2.418 0 0 0 2.411-2.41Z" clip-rule="evenodd"/>
</svg>
