<svg xmlns="http://www.w3.org/2000/svg" width="24" height="24" fill="none" viewBox="0 0 24 24">
  <path fill="#000" fill-rule="evenodd" d="m8.089 9.514 4.152 1.667h.276l4.152-1.667a.431.431 0 0 0 .278-.417V3.845c.007-.013.017-.025.024-.038a.473.473 0 0 0-.279-.556L12.53 2h-.208L8.159 3.25a.397.397 0 0 0-.244.184.385.385 0 0 0-.103.247v5.416a.572.572 0 0 0 .277.417Zm.553-5.277 3.338 1.01v4.937L8.642 8.82V4.237Zm7.473 4.583-3.291 1.345V5.253l3.29-1.016V8.82ZM12.39 2.834l2.74.837-2.754.843-2.694-.839 2.708-.841Zm8.687 9.394a.502.502 0 0 0-.103-.181.516.516 0 0 0-.11-.032l-.004-.005-3.332-1.251h-.279l-3.285 1.234a.267.267 0 0 0-.138.054.381.381 0 0 0-.208.349v3.766a.465.465 0 0 0 .278.35L17.06 18.1a.46.46 0 0 0 .2.13.19.19 0 0 0 .107.024.35.35 0 0 0 .133-.026.39.39 0 0 0 .153-.083l3.253-1.634a.384.384 0 0 0 .208-.35v-3.546a.33.33 0 0 0-.036-.387v-.001Zm-3.688-.635 2.075.815-2.096.825-2.076-.815 2.097-.825Zm-2.938 1.43 2.493.939v3.173l-2.493-1.253v-2.86Zm5.83 2.86-2.494 1.252v-3.173l2.493-.94v2.86Zm-7.692-3.021a.379.379 0 0 0-.067-.04L7.528 11.18h-.277l-4.995 1.64a.387.387 0 0 0-.253.415v6.677a.47.47 0 0 0 .277.418L7.274 22h.277l4.994-1.67a.382.382 0 0 0 .279-.417v-6.677a.531.531 0 0 0-.139-.35.531.531 0 0 0-.094-.025ZM7.39 12l3.662 1.237-3.639 1.251-3.662-1.26L7.39 12Zm-4.555 1.793 4.135 1.424v5.799l-4.135-1.381v-5.842Zm9.156 5.841-4.18 1.398v-5.798l4.18-1.44v5.84Z" clip-rule="evenodd"/>
</svg>
