<svg xmlns="http://www.w3.org/2000/svg" width="24" height="24" fill="none" viewBox="0 0 24 24">
  <path fill="#000" fill-rule="evenodd" d="M9.829 7.21h4.341V2.87H9.829v4.34Zm4.775.868h-5.21a.416.416 0 0 1-.433-.434v-5.21A.467.467 0 0 1 9.395 2h5.21a.419.419 0 0 1 .405.265c.021.054.03.112.028.17v5.21a.382.382 0 0 1-.434.433ZM2.87 7.211h4.34V2.869H2.87V7.21Zm4.775.867h-5.21A.416.416 0 0 1 2 7.644v-5.21A.467.467 0 0 1 2.435 2h5.21a.42.42 0 0 1 .405.266c.021.053.03.11.028.169v5.21a.383.383 0 0 1-.434.433Zm9.145-.867h4.342V2.869H16.79V7.21Zm4.776.867h-5.21a.415.415 0 0 1-.434-.434v-5.21A.467.467 0 0 1 16.355 2h5.21a.42.42 0 0 1 .406.266c.021.053.03.11.028.169v5.21a.382.382 0 0 1-.434.433ZM9.829 14.171h4.341V9.83H9.829v4.34Zm4.775.868h-5.21a.418.418 0 0 1-.433-.434v-5.21a.467.467 0 0 1 .434-.434h5.21a.419.419 0 0 1 .405.265c.021.054.03.112.028.17v5.21a.383.383 0 0 1-.434.435v-.002ZM2.87 14.171h4.34V9.83H2.87v4.34Zm4.775.868h-5.21A.418.418 0 0 1 2 14.605v-5.21a.467.467 0 0 1 .435-.434h5.21a.42.42 0 0 1 .405.265c.021.054.03.112.028.17v5.21a.384.384 0 0 1-.434.435v-.002Zm9.145-.868h4.342V9.83H16.79v4.34Zm4.776.868h-5.21a.418.418 0 0 1-.434-.434v-5.21a.467.467 0 0 1 .434-.434h5.21a.42.42 0 0 1 .406.265c.021.054.03.112.028.17v5.21a.382.382 0 0 1-.434.435v-.002ZM9.829 21.131h4.341V16.79H9.829v4.341Zm4.775.868h-5.21a.416.416 0 0 1-.433-.434v-5.21a.467.467 0 0 1 .434-.434h5.21a.417.417 0 0 1 .433.434v5.21a.385.385 0 0 1-.259.415.386.386 0 0 1-.175.016V22ZM2.87 21.131h4.34V16.79H2.87v4.341ZM7.644 22h-5.21A.416.416 0 0 1 2 21.565v-5.21a.467.467 0 0 1 .435-.434h5.21a.42.42 0 0 1 .405.266c.021.053.03.11.028.168v5.21a.384.384 0 0 1-.434.431V22Zm9.145-.868h4.342V16.79h-4.342v4.341Zm4.776.868h-5.21a.416.416 0 0 1-.434-.434v-5.21a.467.467 0 0 1 .434-.434h5.21a.42.42 0 0 1 .406.266c.021.053.03.11.028.168v5.21a.383.383 0 0 1-.434.431V22Z" clip-rule="evenodd"/>
</svg>
