<svg xmlns="http://www.w3.org/2000/svg" width="24" height="24" fill="none" viewBox="0 0 24 24">
  <path fill="#000" fill-rule="evenodd" d="M2.834 10.303h7.51V2.83h-7.51v7.473Zm7.93.83H2.417A.398.398 0 0 1 2 10.718V2.414A.448.448 0 0 1 2.418 2h8.346a.446.446 0 0 1 .417.415v8.302a.4.4 0 0 1-.418.416Zm-7.93 9.989h7.51v-7.473h-7.51v7.473Zm7.93.83H2.417A.4.4 0 0 1 2 21.537v-8.303a.447.447 0 0 1 .418-.415h8.346a.446.446 0 0 1 .417.415v8.303a.4.4 0 0 1-.418.415Zm2.056-19.11H22v.844h-9.18v-.843Zm0 1.687H22v.796h-9.18V4.53Zm0 1.64H22v.843h-9.18v-.844Zm0 1.639H22v.843h-9.18v-.843Zm0 1.685H22v.844h-9.18v-.844Zm0 4.17H22v.795h-9.18v-.796Zm0 1.638H22v.844h-9.18V15.3Zm0 1.686H22v.797h-9.18v-.797Zm0 1.64H22v.843h-9.18v-.843Zm0 1.686H22v.796h-9.18v-.796Z" clip-rule="evenodd"/>
</svg>
