<svg xmlns="http://www.w3.org/2000/svg" width="24" height="24" fill="none" viewBox="0 0 24 24">
  <path fill="#000" d="M2.834 2.836h8.3v3.758a.402.402 0 0 0 .418.417h3.758v2.896h.832V6.578a.281.281 0 0 0-.034-.125c0-.005 0-.01-.003-.013a.44.44 0 0 0-.078-.11c-.01-.01-.015-.019-.024-.028l-4.16-4.16a.278.278 0 0 0-.277-.14h-9.15A.402.402 0 0 0 2 2.42v17.476a.4.4 0 0 0 .416.416h8.319v-.832H2.832l.002-16.643Zm9.135.599 2.793 2.746h-2.793V3.435Zm9.912 17.94L16.9 11.392a.381.381 0 0 0-.345-.208.418.418 0 0 0-.415.208l-4.983 9.985a.327.327 0 0 0 .07.416.383.383 0 0 0 .345.208h9.964a.382.382 0 0 0 .347-.208.443.443 0 0 0 0-.418v.002Zm-9.687-.207 4.357-8.668 4.29 8.668h-8.647Zm4.37-5.911a.402.402 0 0 1 .422.413v2.686a.449.449 0 0 1-.421.412.4.4 0 0 1-.42-.412V15.67a.37.37 0 0 1 .42-.415v.002Zm.422 4.472a.468.468 0 1 1-.468-.445.457.457 0 0 1 .469.443v.002Z"/>
</svg>
