<svg xmlns="http://www.w3.org/2000/svg" width="24" height="24" fill="none" viewBox="0 0 24 24">
  <path fill="#000" fill-rule="evenodd" d="M19.022 7.405v-.003a.436.436 0 0 0-.024-.172.353.353 0 0 0-.04-.073.293.293 0 0 0-.075-.087l-4.917-4.906a.308.308 0 0 0-.18-.142.487.487 0 0 0-.153-.022H6.906a.402.402 0 0 0-.417.417V4.49H4.418A.402.402 0 0 0 4 4.906v16.677a.448.448 0 0 0 .418.417h11.7a.4.4 0 0 0 .418-.417v-2.071h2.07a.403.403 0 0 0 .418-.417V7.407l-.002-.002Zm-4.991-3.993 3.583 3.576h-3.583V3.412Zm1.664 17.752H4.83V5.32h1.653v13.773a.449.449 0 0 0 .418.417h8.793v1.654Zm.512-2.488a.573.573 0 0 0-.094-.013.459.459 0 0 0-.08.013H7.322V5.014a.486.486 0 0 0 .017-.11.607.607 0 0 0-.017-.13V2.831h5.877v4.572a.447.447 0 0 0 .416.416h4.57v10.856h-1.977Z" clip-rule="evenodd"/>
</svg>
