<svg xmlns="http://www.w3.org/2000/svg" width="24" height="24" fill="none" viewBox="0 0 24 24">
  <path fill="#000" fill-rule="evenodd" d="M4.941 7.855a.422.422 0 0 1 0-.843H8.66a.422.422 0 0 1 0 .843H4.94Zm7.035 2.06a.45.45 0 0 0-.414-.421h-6.62a.421.421 0 0 0 0 .843h6.62a.45.45 0 0 0 .412-.421h.002Zm-1.64 2.483a.45.45 0 0 0-.414-.421h-4.98a.421.421 0 1 0 0 .843h4.98a.45.45 0 0 0 .415-.422Zm-5.393 2.108a.396.396 0 0 0-.38.242.399.399 0 0 0 .38.554h4.138a.4.4 0 0 0 .413-.398.399.399 0 0 0-.413-.398H4.943Zm16.988 7.286a.382.382 0 0 1-.347.208h-9.987a.382.382 0 0 1-.348-.208.879.879 0 0 1-.07-.416l4.995-9.988a.495.495 0 0 1 .416-.207.381.381 0 0 1 .347.207l4.994 9.988a.443.443 0 0 1-.001.416Zm-1.04-.625-4.3-8.67-4.301 8.67h8.6Zm-4.745-5.499v2.687a.422.422 0 0 0 .842 0v-2.687a.421.421 0 0 0-.842 0Zm.42 3.803a.42.42 0 1 0 .161.031.42.42 0 0 0-.162-.031Zm-13.734.01h8.32v.833H2.417A.448.448 0 0 1 2 19.898V2.417A.448.448 0 0 1 2.416 2h9.183c.049 0 .096.012.14.033l.021.012a.166.166 0 0 1 .03.022.479.479 0 0 1 .183.197l4.031 4.032a.458.458 0 0 1 .034.039c.028.03.052.064.07.102.004.007.004.016.008.024a.28.28 0 0 1 .03.115v3.746h-.832V7.009h-3.72a.447.447 0 0 1-.413-.418V2.832H2.834l-.002 16.65Zm9.176-13.304h2.755l-2.755-2.708v2.708Z" clip-rule="evenodd"/>
</svg>
