<svg xmlns="http://www.w3.org/2000/svg" width="24" height="24" fill="none" viewBox="0 0 24 24">
  <path fill="#000" fill-rule="evenodd" d="M2.938 11.838c.972 1.042 4.653 5.003 9.027 5.003 4.375 0 8.125-3.96 9.097-5.003-.972-1.043-4.722-5.004-9.097-5.004-4.375 0-8.055 3.961-9.027 5.004Zm9.027 5.837c-5.416 0-9.721-5.35-9.861-5.56a.423.423 0 0 1 0-.555C2.243 11.35 6.546 6 11.965 6c5.486 0 9.792 5.351 9.93 5.56a.423.423 0 0 1 0 .556c-.14.208-4.444 5.56-9.93 5.56Zm-.011-8.738a2.9 2.9 0 1 0 0 5.8 2.9 2.9 0 0 0 0-5.8Zm0 6.627A3.73 3.73 0 0 1 8.47 10.4a3.727 3.727 0 0 1 3.483-2.291 3.726 3.726 0 0 1 3.482 5.164 3.727 3.727 0 0 1-3.482 2.29Zm.023-1.64a2.093 2.093 0 0 1-2.087-2.088.449.449 0 0 1 .418-.417.401.401 0 0 1 .417.417 1.293 1.293 0 0 0 1.252 1.252 1.251 1.251 0 0 0 0-2.503.417.417 0 0 1 0-.835 2.087 2.087 0 0 1 0 4.173Z" clip-rule="evenodd"/>
</svg>
