<svg xmlns="http://www.w3.org/2000/svg" width="24" height="24" fill="none" viewBox="0 0 24 24">
  <path fill="#000" fill-rule="evenodd" d="m3.272 2.832 7.777 9.364c.07.139.14.208.14.277v8.115l1.665-1.665v-6.45a.525.525 0 0 1 .07-.277L20.7 2.832H3.272Zm7.5 19.143h-.208a.418.418 0 0 1-.21-.417v-8.946L2.093 2.694a.46.46 0 0 1-.07-.416A.467.467 0 0 1 2.438 2h19.166a.463.463 0 0 1 .35.278.326.326 0 0 1-.07.416l-8.193 9.918v6.45a.36.36 0 0 1-.14.277l-2.501 2.495a.276.276 0 0 1-.278.14Z" clip-rule="evenodd"/>
</svg>
