<svg xmlns="http://www.w3.org/2000/svg" width="24" height="24" fill="none" viewBox="0 0 24 24">
  <path fill="#000" fill-rule="evenodd" d="M9.497 7.147h11.666V3.83H9.497v3.317Zm12.082.83H9.08a.4.4 0 0 1-.416-.415V3.415A.447.447 0 0 1 9.08 3h12.5a.401.401 0 0 1 .39.253.4.4 0 0 1 .026.162v4.147a.367.367 0 0 1-.416.415ZM9.497 13.814h11.666v-3.317H9.497v3.317Zm12.082.83H9.08a.4.4 0 0 1-.416-.415v-4.147a.447.447 0 0 1 .417-.415h12.5a.4.4 0 0 1 .416.415v4.147a.367.367 0 0 1-.416.415ZM9.497 20.48h11.666v-3.317H9.497v3.317Zm12.082.83H9.08a.4.4 0 0 1-.416-.415V16.75a.447.447 0 0 1 .417-.415h12.5a.398.398 0 0 1 .416.415v4.147a.367.367 0 0 1-.416.414ZM2.826 7.147h3.318V3.83H2.826v3.317Zm3.735.83H2.414A.397.397 0 0 1 2 7.562V3.415A.446.446 0 0 1 2.414 3h4.147a.4.4 0 0 1 .415.415v4.147a.366.366 0 0 1-.417.415h.002Zm-3.735 5.837h3.318v-3.317H2.826v3.317Zm3.735.83H2.414A.4.4 0 0 1 2 14.229v-4.147a.445.445 0 0 1 .414-.415h4.147a.4.4 0 0 1 .415.415v4.147a.366.366 0 0 1-.417.415h.002ZM2.826 20.48h3.318v-3.317H2.826v3.317Zm3.735.83H2.414A.398.398 0 0 1 2 20.895V16.75a.445.445 0 0 1 .414-.415h4.147a.4.4 0 0 1 .388.254c.02.05.03.106.027.16v4.148a.366.366 0 0 1-.417.414h.002Z" clip-rule="evenodd"/>
</svg>
