<svg xmlns="http://www.w3.org/2000/svg" width="24" height="24" fill="none" viewBox="0 0 24 24">
  <path fill="#000" fill-rule="evenodd" d="m21.417 4.39-1.834-1.757a2.033 2.033 0 0 0-1.48-.632 1.923 1.923 0 0 0-1.482.632l-.476.472a.663.663 0 0 0-.178.082.374.374 0 0 0-.089.182l-.933.925a.646.646 0 0 0-.165.081.363.363 0 0 0-.087.17L3.362 15.776c0 .07-.07.14-.07.21l-1.27 5.412a.464.464 0 0 0 .071.421.542.542 0 0 0 .353.14.07.07 0 0 1 .07-.07l5.43-1.265a.309.309 0 0 0 .212-.07l.133-.132a.203.203 0 0 0 .1-.054.56.56 0 0 0 .114-.157l11.06-11.018c.005-.005.013-.01.019-.014.005-.005.006-.012.01-.016l1.172-1.168.007-.004v-.005l.645-.642a2.163 2.163 0 0 0-.001-2.953Zm-2.152 3.9-3.56-3.62.591-.589 3.59 3.59-.621.62ZM8.086 19.428l-3.599-3.58 10.618-10.58 3.59 3.59L8.086 19.427Zm-4.074-2.919 3.368 3.41-4.371 1.055s.004-.01 1.003-4.464Zm16.77-9.73-.294.294-3.59-3.591.287-.287a1.373 1.373 0 0 1 1.834 0l1.762 1.757a1.312 1.312 0 0 1 .001 1.828v-.001Z" clip-rule="evenodd"/>
</svg>
