<svg xmlns="http://www.w3.org/2000/svg" width="24" height="24" fill="none" viewBox="0 0 24 24">
  <path fill="#000" fill-rule="evenodd" d="M18.634 11.172v10.411a.398.398 0 0 1-.415.417H2.417A.449.449 0 0 1 2 21.583V4.093a.4.4 0 0 1 .417-.417h13.309a.368.368 0 0 1 .415.417.4.4 0 0 1-.415.417H2.832v16.657h14.972v-9.995a.401.401 0 0 1 .416-.416.367.367 0 0 1 .413.416Zm3.006-7.004-1.171 1.16c-.004.004-.004.01-.007.014-.004.004-.01.003-.012.005l-6.814 6.754a.067.067 0 0 1-.02.05.066.066 0 0 1-.05.02L11.2 13.354a.255.255 0 0 1-.209.069.36.36 0 0 1-.28-.139.428.428 0 0 1-.07-.487l1.183-2.366a.067.067 0 0 1 .043-.065.068.068 0 0 1 .027-.005l7.933-8.003a1.279 1.279 0 0 1 1.81 1.81h.003Zm-2.124.87-.573-.552-6.42 6.362-.626 1.184 1.183-.557 6.436-6.436Zm1.497-2.054c0-.07-.28-.28-.556 0l-.89.882.57.551.876-.876c.279-.278.07-.556 0-.556Z" clip-rule="evenodd"/>
</svg>
