<svg xmlns="http://www.w3.org/2000/svg" width="24" height="24" fill="none" viewBox="0 0 24 24">
  <path fill="#000" fill-rule="evenodd" d="M19.92 8.024H4.083A2.088 2.088 0 0 0 2 10.104v4.997a2.133 2.133 0 0 0 2.083 2.08h2.094v3.761a.45.45 0 0 0 .417.417h10.811a.401.401 0 0 0 .416-.417v-3.761h2.095A2.088 2.088 0 0 0 22 15.101v-4.997a2.046 2.046 0 0 0-2.08-2.08Zm-2.927 12.498H7.008V14.68h9.98l.005 5.842Zm4.176-5.424a1.244 1.244 0 0 1-1.25 1.248h-2.095v-2.083a.401.401 0 0 0-.416-.418H6.596a.449.449 0 0 0-.416.418v2.083H4.086a1.245 1.245 0 0 1-1.25-1.248v-4.996a1.244 1.244 0 0 1 1.25-1.248H19.92a1.243 1.243 0 0 1 1.25 1.248l-.001 4.996ZM6.596 7.178a.4.4 0 0 0 .416-.417V3.836h7.479v2.08a.45.45 0 0 0 .415.417h2.086v.428a.45.45 0 0 0 .415.418.401.401 0 0 0 .416-.418v-.845c0-.102-.004-.169-.066-.221a.366.366 0 0 0-.185-.163l-2.297-2.308a.373.373 0 0 0-.123-.143c-.056-.077-.125-.081-.239-.081H6.596a.449.449 0 0 0-.416.418v3.343a.45.45 0 0 0 .414.418h.002Zm8.727-2.79c.245.244.6.603 1.108 1.112h-1.108V4.388ZM4.913 9.665A1.245 1.245 0 1 0 6.18 10.91a1.251 1.251 0 0 0-1.27-1.242l.003-.002Zm0 1.66a.415.415 0 1 1 0-.83.415.415 0 0 1 0 .83Zm2.911 4.585a.452.452 0 0 1 .418-.423h7.522a.423.423 0 0 1 0 .845H8.242a.452.452 0 0 1-.42-.42l.002-.003Zm0 1.69a.449.449 0 0 1 .418-.423h7.522a.423.423 0 0 1 0 .845H8.242a.45.45 0 0 1-.42-.42l.002-.002Zm0 1.666a.44.44 0 0 1 .418-.399h7.522a.4.4 0 1 1 0 .798H8.242a.44.44 0 0 1-.42-.398h.002Z" clip-rule="evenodd"/>
</svg>
