<svg xmlns="http://www.w3.org/2000/svg" width="24" height="24" fill="none" viewBox="0 0 24 24">
  <path fill="#000" fill-rule="evenodd" d="m2.832 9.278 11.66 11.713 6.522-6.515L9.356 2.832H2.832v6.446Zm11.66 12.683a.525.525 0 0 1-.278-.138L2.139 9.763A.362.362 0 0 1 2 9.485V2.416a.363.363 0 0 1 .139-.277A.525.525 0 0 1 2.416 2h7.078a.36.36 0 0 1 .278.139l12.075 12.06a.326.326 0 0 1 0 .554l-7.011 7.07c-.137.069-.206.138-.345.138ZM6.568 5.318a1.253 1.253 0 1 0 1.25 1.25 1.246 1.246 0 0 0-1.25-1.25Zm0 3.336a2.085 2.085 0 1 1 0-4.17 2.085 2.085 0 0 1 0 4.17Z" clip-rule="evenodd"/>
</svg>
