<svg xmlns="http://www.w3.org/2000/svg" width="24" height="24" fill="none" viewBox="0 0 24 24">
  <path fill="#000" fill-rule="evenodd" d="M2.835 9.794 14.1 21.029l5.214-5.271L8.05 4.523H2.835v5.27ZM14.1 22c-.14 0-.21-.07-.35-.139L2.07 10.21C2 10.14 2 10.071 2 9.933V4.107a.4.4 0 0 1 .417-.417H8.26a.527.527 0 0 1 .278.14l11.683 11.65a.42.42 0 0 1 0 .555l-5.844 5.826A.527.527 0 0 1 14.1 22Zm6.65-7.512c-.14 0-.208-.07-.348-.138a.422.422 0 0 1 0-.555l.556-.556L10.535 2.833H4.906a.418.418 0 1 1 0-.833h5.837a.526.526 0 0 1 .278.14l10.84 10.822a.422.422 0 0 1 0 .555l-.833.833a.529.529 0 0 1-.277.138ZM6.156 7.012a.833.833 0 1 0 0 1.667.833.833 0 0 0 0-1.667Zm0 2.5A1.669 1.669 0 0 1 4.43 7.846a1.666 1.666 0 1 1 1.727 1.666Z" clip-rule="evenodd"/>
</svg>
