<svg xmlns="http://www.w3.org/2000/svg" width="24" height="24" fill="none" viewBox="0 0 24 24">
  <path fill="#000" fill-rule="evenodd" d="m21.846 21.307-7.498-7.498a7.08 7.08 0 1 0-.555.553l7.5 7.498a.52.52 0 0 0 .275.139.36.36 0 0 0 .277-.139.325.325 0 0 0 0-.553ZM2.932 9.105a6.204 6.204 0 1 1 6.203 6.223 6.23 6.23 0 0 1-6.203-6.223Zm9.086-.421H9.532V6.202a.39.39 0 0 0-.4-.414.436.436 0 0 0-.4.414v2.482H6.248a.421.421 0 0 0 0 .841h2.486v2.482a.437.437 0 0 0 .399.415.39.39 0 0 0 .4-.415V9.525h2.486a.42.42 0 0 0 0-.841Z" clip-rule="evenodd"/>
</svg>
