<svg id="Group_38" data-name="Group 38" xmlns="http://www.w3.org/2000/svg" xmlns:xlink="http://www.w3.org/1999/xlink" width="18" height="18" viewBox="0 0 18 18">
  <defs>
    <clipPath id="clip-path">
      <path id="Clip_2" data-name="Clip 2" d="M0,0H18V18H0Z" fill="none" stroke="#959595" stroke-width="0.5"/>
    </clipPath>
  </defs>
  <path id="Clip_2-2" data-name="Clip 2" d="M0,0H18V18H0Z" fill="none"/>
  <g id="Group_38-2" data-name="Group 38" clip-path="url(#clip-path)">
    <path id="Fill_1" data-name="Fill 1" d="M8.268,16.483H.376A.36.36,0,0,1,0,16.108V.374A.333.333,0,0,1,.376,0H8.658a.356.356,0,0,1,.236.061l3.759,3.747c.017.035.033.063.049.091l.027.049a.383.383,0,0,1,.036.122.1.1,0,0,0,.006.02.082.082,0,0,1,.007.03v6.368h-.752V4.511H8.653a.36.36,0,0,1-.375-.376V.749H.751V15.733H8.268v.749ZM9.028,1.31V3.758h2.5l-.335-.328-.014-.014Z" fill="#fff" stroke="#fff" stroke-width="0.5"/>
  </g>
  <line id="Line_2472" data-name="Line 2472" y2="5.26" transform="translate(10.13 10)" fill="none" stroke="#fff" stroke-linecap="round" stroke-width="1"/>
  <line id="Line_2473" data-name="Line 2473" x1="5.26" transform="translate(7.5 12.63)" fill="none" stroke="#fff" stroke-linecap="round" stroke-width="1"/>
</svg>
