<svg xmlns="http://www.w3.org/2000/svg" width="21" height="17" viewBox="0 0 21 17">
  <path id="Path_415703" data-name="Path 415703" d="M7.824-23.084a3.088,3.088,0,0,1-3.036-3.092,3.067,3.067,0,0,1,3.036-3.092,3.073,3.073,0,0,1,3.067,3.092A3.094,3.094,0,0,1,7.824-23.084Zm3.161,1.116A6.673,6.673,0,0,1,13.3-20.693a3.39,3.39,0,0,0-2.473,2.9H1.22c.125-2.932,1.972-3.6,3.474-4.175a4.115,4.115,0,0,0,1.534-.8,3.47,3.47,0,0,0,1.6.382,3.415,3.415,0,0,0,1.628-.382A4.115,4.115,0,0,0,10.985-21.968Zm5.54-.669a4.765,4.765,0,0,1-1.127-.51,3.857,3.857,0,0,0,1.5-3.028A3.776,3.776,0,0,0,13.176-30a3.608,3.608,0,0,0-2.66,1.147A3.75,3.75,0,0,0,7.824-30,3.8,3.8,0,0,0,4.1-26.175a3.81,3.81,0,0,0,1.5,3.028,5.434,5.434,0,0,1-1.127.51C2.879-22.032.5-21.171.5-17.41a.351.351,0,0,0,.344.351h10.3a.358.358,0,0,0,.376-.351,2.623,2.623,0,0,1,2.6-2.677,2.578,2.578,0,0,1,1.941.861h-.689a.359.359,0,0,0-.344.382.351.351,0,0,0,.344.351h1.6a.351.351,0,0,0,.344-.351V-20.5a.351.351,0,0,0-.344-.351.379.379,0,0,0-.376.351v.829a3.3,3.3,0,0,0-2.41-1.147,6.535,6.535,0,0,0-2.942-1.817,5.065,5.065,0,0,1-1.158-.51,3.81,3.81,0,0,0,1.5-3.028,3.8,3.8,0,0,0-.626-2.135,3.047,3.047,0,0,1,2.222-.956,3.067,3.067,0,0,1,3.036,3.092,3.064,3.064,0,0,1-2.786,3.06.387.387,0,0,0-.344.414.4.4,0,0,0,.376.319h.031a3.672,3.672,0,0,0,1.283-.351,4.45,4.45,0,0,0,1.5.765c1.5.574,3.38,1.243,3.505,4.175H17.12a.351.351,0,0,0-.344.351,2.649,2.649,0,0,1-2.629,2.677,2.5,2.5,0,0,1-1.941-.892h.657a.351.351,0,0,0,.344-.351.351.351,0,0,0-.344-.351H11.236a.351.351,0,0,0-.344.351v1.657a.351.351,0,0,0,.344.351.358.358,0,0,0,.376-.351v-.924a3.278,3.278,0,0,0,2.535,1.243,3.375,3.375,0,0,0,3.318-3.028h2.692a.351.351,0,0,0,.344-.351C20.5-21.171,18.09-22.032,16.525-22.637Z" transform="translate(0 30.5)" stroke="rgba(0,0,0,0)" stroke-width="1" fill-rule="evenodd"/>
</svg>
