<svg width="16" height="16" viewBox="0 0 16 16" fill="none" xmlns="http://www.w3.org/2000/svg">
<path d="M7.5 8.5V12C7.5 12.1423 7.54775 12.2612 7.64325 12.3567C7.73875 12.4522 7.85767 12.5 8 12.5C8.14233 12.5 8.26125 12.4522 8.35675 12.3567C8.45225 12.2612 8.5 12.1423 8.5 12V8.5H12C12.1423 8.5 12.2613 8.45225 12.3568 8.35675C12.4523 8.26125 12.5 8.14233 12.5 8C12.5 7.85767 12.4523 7.73875 12.3568 7.64325C12.2613 7.54775 12.1423 7.5 12 7.5H8.5V4C8.5 3.85767 8.45225 3.73875 8.35675 3.64325C8.26125 3.54775 8.14233 3.5 8 3.5C7.85767 3.5 7.73875 3.54775 7.64325 3.64325C7.54775 3.73875 7.5 3.85767 7.5 4V7.5H4C3.85767 7.5 3.73875 7.54775 3.64325 7.64325C3.54775 7.73875 3.5 7.85767 3.5 8C3.5 8.14233 3.54775 8.26125 3.64325 8.35675C3.73875 8.45225 3.85767 8.5 4 8.5H7.5ZM1.6155 16C1.15517 16 0.770833 15.8458 0.4625 15.5375C0.154167 15.2292 0 14.8448 0 14.3845V1.6155C0 1.15517 0.154167 0.770833 0.4625 0.4625C0.770833 0.154167 1.15517 0 1.6155 0H14.3845C14.8448 0 15.2292 0.154167 15.5375 0.4625C15.8458 0.770833 16 1.15517 16 1.6155V14.3845C16 14.8448 15.8458 15.2292 15.5375 15.5375C15.2292 15.8458 14.8448 16 14.3845 16H1.6155ZM1.6155 15H14.3845C14.5385 15 14.6796 14.9359 14.8077 14.8077C14.9359 14.6796 15 14.5385 15 14.3845V1.6155C15 1.4615 14.9359 1.32042 14.8077 1.19225C14.6796 1.06408 14.5385 1 14.3845 1H1.6155C1.4615 1 1.32042 1.06408 1.19225 1.19225C1.06408 1.32042 1 1.4615 1 1.6155V14.3845C1 14.5385 1.06408 14.6796 1.19225 14.8077C1.32042 14.9359 1.4615 15 1.6155 15Z" fill="black"/>
</svg>
