<svg xmlns="http://www.w3.org/2000/svg" width="16" height="16" viewBox="0 0 16 16" fill="none">
<path fill-rule="evenodd" clip-rule="evenodd" d="M7.67208 15.9984C7.58815 16.0045 7.50389 15.9929 7.42467 15.9646C7.34545 15.9362 7.27301 15.8916 7.21199 15.8337C7.15096 15.7758 7.10269 15.7057 7.07024 15.6281C7.0378 15.5505 7.0219 15.4669 7.02356 15.3828V0.617219C7.03907 0.453579 7.11329 0.301086 7.2325 0.187916C7.35171 0.0747464 7.50785 0.00854848 7.67208 0.00155457C7.75601 -0.00447213 7.84027 0.00706646 7.91949 0.035434C7.99871 0.0638016 8.07114 0.108376 8.13217 0.166309C8.19319 0.224243 8.24147 0.294263 8.27391 0.371902C8.30636 0.44954 8.32226 0.53309 8.3206 0.617219V15.3828C8.3206 15.7932 8.10443 15.9984 7.67208 15.9984Z" fill="black"/>
<path fill-rule="evenodd" clip-rule="evenodd" d="M15.3828 8.3206H0.617219C0.53309 8.32226 0.44954 8.30636 0.371901 8.27391C0.294263 8.24147 0.224242 8.19319 0.166308 8.13217C0.108375 8.07114 0.0638016 7.99871 0.035434 7.91949C0.00706646 7.84027 -0.00447213 7.75601 0.00155457 7.67208C0.00854848 7.50785 0.0747464 7.35171 0.187916 7.2325C0.301086 7.11329 0.45358 7.03907 0.617219 7.02356H15.3828C15.4669 7.0219 15.5505 7.0378 15.6281 7.07024C15.7057 7.10269 15.7758 7.15096 15.8337 7.21199C15.8916 7.27301 15.9362 7.34545 15.9646 7.42467C15.9929 7.50389 16.0045 7.58815 15.9984 7.67208C15.9984 8.10443 15.7932 8.3206 15.3828 8.3206Z" fill="black"/>
</svg>