<svg xmlns="http://www.w3.org/2000/svg" width="20" height="20" viewBox="0 0 20 20" fill="none">
  <path d="M0.469573 1H19.531C19.79 1 20 1.20999 20 1.46896V5.22064C20 5.47961 19.79 5.68899 19.531 5.68899H18.456V18.3821C18.456 18.6411 18.246 18.8511 17.9876 18.8511H2.01237C1.7534 18.8511 1.54402 18.6411 1.54402 18.3821V5.68899H0.46896C0.209991 5.68899 0 5.479 0 5.22064V1.46896C0 1.20999 0.209991 1 0.46896 1H0.469573ZM6.46565 7.88319H13.535C13.7939 7.88319 14.0039 8.09318 14.0039 8.35215V10.9565C14.0039 11.2155 13.7939 11.4255 13.535 11.4255H6.46565C6.20669 11.4255 5.99669 11.2155 5.99669 10.9565V8.35215C5.99669 8.09318 6.20669 7.88319 6.46565 7.88319ZM13.066 8.8205H6.934V10.4876H13.066V8.8205ZM17.5187 5.68838H2.48133V17.9132H17.5187V5.68838ZM19.0621 1.9367H0.937921V4.75046H2.01237H17.9876H19.0621V1.9367Z" fill="black"/>
</svg>