<svg xmlns="http://www.w3.org/2000/svg" viewBox="0 0 24 24">
    <path d="M9.54780078,23.8898713 C9.65345271,23.9946279 9.76447678,23.9982093 9.96593173,23.9982093 C9.9686178,23.9991046 9.97040851,24 9.97309457,24 C9.97488528,24 9.97667599,23.9991046 9.97667599,23.9991046 C9.98294348,23.9991046 9.98473419,24 9.99100168,24 C10.1020257,24 10.3231785,24 10.4333072,23.8898713 L19.7333632,14.5996642 C19.9545159,14.2683828 19.9545159,13.8260772 19.7333632,13.6049245 C19.5113151,13.3837717 19.0690095,13.3837717 18.8478567,13.6049245 C18.8478567,13.6049245 18.8424846,13.6094012 10.6087969,21.8350308 L10.6087969,0.664353665 C10.6087969,0.331281477 10.2909457,-3.18094118e-15 9.97309457,-3.18094118e-15 C9.65524342,-3.18094118e-15 9.33828763,0.331281477 9.33828763,0.664353665 L9.33828763,21.7992166 C8.43487409,20.8966984 6.28154449,18.7460548 1.13504197,13.6049245 C0.912993844,13.3837717 0.469792949,13.3837717 0.248640179,13.6049245 C-0.0835366536,13.8260772 -0.0835366536,14.2683828 0.248640179,14.5996642 L9.54780078,23.8898713 Z"/>
</svg>