<svg xmlns="http://www.w3.org/2000/svg" width="36.252" height="34.169" viewBox="0 0 36.252 34.169">
  <g id="Group_160348" data-name="Group 160348" transform="translate(0 41)">
    <path id="Path_253321" data-name="Path 253321" d="M8.184-11.8A1.029,1.029,0,0,1,7.13-10.745a1.072,1.072,0,0,1-1.1-1.054,1.114,1.114,0,0,1,1.1-1.1A1.072,1.072,0,0,1,8.184-11.8ZM4.921-27.7A1.906,1.906,0,0,1,3.013-25.8,1.906,1.906,0,0,1,1.1-27.7,1.906,1.906,0,0,1,3.013-29.61,1.906,1.906,0,0,1,4.921-27.7Zm30.227,8.279a1.918,1.918,0,0,1-1.958,1.907,1.906,1.906,0,0,1-1.908-1.907,1.906,1.906,0,0,1,1.908-1.907A1.918,1.918,0,0,1,35.148-19.425ZM18.026-7.985A14.844,14.844,0,0,1,9.138-10.9a2.639,2.639,0,0,0,.2-.9A2.239,2.239,0,0,0,7.13-14.056a2.124,2.124,0,0,0-1,.251,14.555,14.555,0,0,1-3.163-7.576c1.958,3.863,6.678,7.175,12.6,8.58a23.375,23.375,0,0,0,5.523.652,16.282,16.282,0,0,0,9.691-2.76A15.185,15.185,0,0,1,18.026-7.985Zm-2.109-30.1a2.286,2.286,0,0,0,2.109,1.505,2.265,2.265,0,0,0,2.109-1.505,15.122,15.122,0,0,1,12.9,13.1c-1.958-3.863-6.678-7.175-12.553-8.58-5.774-1.355-11.5-.5-15.013,2.007A15.116,15.116,0,0,1,15.917-38.09ZM18.026-39.9a1.114,1.114,0,0,1,1.1,1.1,1.114,1.114,0,0,1-1.1,1.1,1.149,1.149,0,0,1-1.1-1.1h0a1.114,1.114,0,0,1,1.1-1.1m13.306,22.88c-2.812,3.362-9.088,4.666-15.515,3.161C8.887-15.511,3.565-20.077,3.163-24.693A3.034,3.034,0,0,0,6.076-27.7a3.031,3.031,0,0,0-.9-2.158c3.113-2.96,9.038-4.014,15.063-2.609,6.477,1.555,11.649,5.72,12.553,10.035a3.068,3.068,0,0,0-2.611,3.01A3.021,3.021,0,0,0,31.332-17.017Zm2.912-5.268a4.313,4.313,0,0,0,.05-.8A16.166,16.166,0,0,0,20.185-39.194,2.126,2.126,0,0,0,18.026-41a2.126,2.126,0,0,0-2.159,1.806,16.077,16.077,0,0,0-12.2,8.53,2.546,2.546,0,0,0-.653-.1A3.064,3.064,0,0,0,0-27.7a3.028,3.028,0,0,0,1.858,2.81c-.05.652-.1,1.254-.1,1.806A16.166,16.166,0,0,0,5.272-13.053a2.194,2.194,0,0,0-.4,1.254A2.239,2.239,0,0,0,7.13-9.591a2.2,2.2,0,0,0,1.255-.4,16.191,16.191,0,0,0,9.641,3.161,16.212,16.212,0,0,0,14.812-9.583c.151,0,.251.05.351.05a3.042,3.042,0,0,0,3.063-3.061A3.105,3.105,0,0,0,34.244-22.285ZM11.4-18.321c.2-2.76,2.008-3.412,3.565-3.964a3.758,3.758,0,0,0,1.557-.753,4.107,4.107,0,0,0,1.757.4,4.057,4.057,0,0,0,1.707-.4,3.758,3.758,0,0,0,1.557.753c1.557.552,3.364,1.2,3.565,3.964Zm3.816-8.53a3.074,3.074,0,0,1,3.063-3.061,3.064,3.064,0,0,1,3.013,3.061,3.031,3.031,0,0,1-3.013,3.061A3.042,3.042,0,0,1,15.214-26.851Zm6.678,3.512c-.3-.151-.653-.251-.9-.351a4.187,4.187,0,0,0,1.456-3.161,4.188,4.188,0,0,0-4.168-4.164,4.2,4.2,0,0,0-4.218,4.164,4.187,4.187,0,0,0,1.456,3.161c-.251.1-.6.2-.9.351-1.757.6-4.368,1.555-4.368,5.62a.557.557,0,0,0,.552.552H25.708a.557.557,0,0,0,.552-.552C26.26-21.783,23.649-22.736,21.892-23.339Z" transform="translate(0)" fill="#a125ff" fill-rule="evenodd"/>
  </g>
</svg>
