<svg xmlns="http://www.w3.org/2000/svg" width="20" height="24.001" viewBox="0 0 20 24.001">
  <g id="Path_75782" data-name="Path 75782" transform="translate(-8)">
    <path id="Shape" d="M19.6,24H.417A.451.451,0,0,1,0,23.582V3.747a.4.4,0,0,1,.394-.384H3.329V.388A.4.4,0,0,1,3.723,0H6.245A.355.355,0,0,1,6.3,0a.341.341,0,0,1,.052,0A.361.361,0,0,1,6.6.143a.372.372,0,0,1,.07.275V3.363h6.666V.424a.257.257,0,0,1,0-.037A.4.4,0,0,1,13.728,0h2.525A.291.291,0,0,1,16.3,0a.3.3,0,0,1,.046,0,.362.362,0,0,1,.241.143.373.373,0,0,1,.07.275V3.362h2.919a.351.351,0,0,1,.106,0,.356.356,0,0,1,.241.143A.373.373,0,0,1,20,3.777v19.84A.4.4,0,0,1,19.6,24ZM.831,8.4V23.16H19.16V8.4Zm0-4.208v3.36h18.33V4.2h-2.5v.965a.4.4,0,0,1-.394.386H13.745a.45.45,0,0,1-.417-.418V4.21H6.664v.953a.4.4,0,0,1-.394.383H3.749a.451.451,0,0,1-.417-.418V4.2ZM14.166.841V3.7a.63.63,0,0,1,.012.084.7.7,0,0,1-.012.074v.851H15.83V.842Zm-10,0V4.709H5.833V.842Zm9.653,20.242H13.81a.424.424,0,0,1-.38-.4V19.453H10.425v1.264a.372.372,0,0,1-.372.367h-.006a.426.426,0,0,1-.38-.4v-1.23H6.712v1.263a.374.374,0,0,1-.372.367H6.329a.426.426,0,0,1-.38-.4V19.449H3.324a.412.412,0,0,1-.375-.385v-.04a.362.362,0,0,1,.36-.347H5.947V16.233H3.325a.406.406,0,0,1-.37-.383v-.037a.363.363,0,0,1,.359-.353H5.947v-2.4H3.325a.423.423,0,0,1-.37-.406v-.037a.377.377,0,0,1,.111-.265.361.361,0,0,1,.257-.107H5.95V10.982a.376.376,0,0,1,.37-.367h.01a.277.277,0,0,1,.047,0,.291.291,0,0,1,.047,0,.352.352,0,0,1,.285.4v1.228H9.665V10.982a.376.376,0,0,1,.37-.367h.01a.275.275,0,0,1,.1,0,.352.352,0,0,1,.286.4v1.228h3v-1.26a.376.376,0,0,1,.37-.367h.01a.336.336,0,0,1,.1,0,.354.354,0,0,1,.286.4v1.228h2.769a.275.275,0,0,1,.1,0,.354.354,0,0,1,.281.406v.037a.376.376,0,0,1-.371.374L14.2,13.07v2.4h2.768a.291.291,0,0,1,.1,0,.331.331,0,0,1,.217.132.337.337,0,0,1,.06.25v.04a.362.362,0,0,1-.359.346H14.191v2.444h2.763a.338.338,0,0,1,.046,0,.328.328,0,0,1,.236.1.345.345,0,0,1,.094.288v.039a.361.361,0,0,1-.359.346H14.184v1.264a.374.374,0,0,1-.367.365ZM10.43,16.231v2.445h3V16.231Zm-3.718,0v2.445H9.667V16.231Zm0-3.168v2.4H9.667v-2.4Zm3.718,0v2.4h3v-2.4Z" transform="translate(8 0.001)"/>
  </g>
</svg>
