<svg xmlns="http://www.w3.org/2000/svg" width="17" height="16" viewBox="0 0 17 16" fill="none">
<path d="M2.24628 4.44334L7.73785 10.0462L8.23125 10.5529L8.64289 10.0721L14.1593 4.44334C14.2445 4.38508 14.348 4.35855 14.4512 4.36849C14.5972 4.36849 14.6746 4.36849 14.7432 4.44334C14.7962 4.48369 14.8391 4.53549 14.8687 4.59477C14.8982 4.65404 14.9135 4.7192 14.9135 4.78524C14.9135 4.85129 14.8982 4.91645 14.8687 4.97572C14.8391 5.03499 14.7962 5.0868 14.7432 5.12714L8.58304 11.4239C8.58304 11.4239 8.3597 11.6657 8.18891 11.6614C8.01812 11.6571 7.78602 11.3836 7.78602 11.3836L1.65071 5.12714C1.57811 5.02752 1.53906 4.90793 1.53906 4.78524C1.53906 4.66256 1.57811 4.54297 1.65071 4.44334C1.73168 4.36928 1.83805 4.32813 1.94849 4.32813C2.05894 4.32813 2.1653 4.36928 2.24628 4.44334Z" fill="black"/>
</svg>