<svg xmlns="http://www.w3.org/2000/svg" width="40" height="42" viewBox="0 0 40 42">
  <g id="Group_156878" data-name="Group 156878" transform="translate(0 42.5)">
    <path id="Path_251112" data-name="Path 251112" d="M8.573-20a1.114,1.114,0,0,1-.726-.288C7.12-21.3,0-29.808,0-34.135A8.529,8.529,0,0,1,8.573-42.5,8.4,8.4,0,0,1,17-34.135c0,4.327-6.974,12.837-7.846,13.846A.757.757,0,0,1,8.573-20Zm0-20.769a6.676,6.676,0,0,0-6.829,6.635c0,2.885,4.5,8.942,6.829,11.971,2.325-3.029,6.684-9.087,6.684-11.971A6.552,6.552,0,0,0,8.573-40.769Z" fill="#a100ff" fill-rule="evenodd"/>
    <path id="Path_251113" data-name="Path 251113" d="M8.75-30A3.952,3.952,0,0,1,5-34a3.952,3.952,0,0,1,3.75-4,3.952,3.952,0,0,1,3.75,4A3.952,3.952,0,0,1,8.75-30Zm0-6.154A2.137,2.137,0,0,0,6.731-34,2.041,2.041,0,0,0,8.75-31.846,2.133,2.133,0,0,0,10.769-34,2.248,2.248,0,0,0,8.75-36.154Z" fill="#a100ff" fill-rule="evenodd"/>
    <path id="Path_251114" data-name="Path 251114" d="M31.573-.5a1.114,1.114,0,0,1-.727-.288C30.12-1.8,23-10.308,23-14.635A8.529,8.529,0,0,1,31.573-23,8.4,8.4,0,0,1,40-14.635C40-10.308,33.026-1.8,32.154-.788A.757.757,0,0,1,31.573-.5Zm0-20.769a6.676,6.676,0,0,0-6.829,6.635c0,2.885,4.5,8.942,6.829,11.971,2.325-3.029,6.684-9.087,6.684-11.971A6.552,6.552,0,0,0,31.573-21.269Z" fill="#a100ff" fill-rule="evenodd"/>
    <path id="Path_251115" data-name="Path 251115" d="M31.25-11a3.818,3.818,0,0,1-3.75-3.75,3.818,3.818,0,0,1,3.75-3.75A3.818,3.818,0,0,1,35-14.75,3.818,3.818,0,0,1,31.25-11Zm0-5.769a2.063,2.063,0,0,0-2.019,2.019,1.972,1.972,0,0,0,2.019,2.019,2.063,2.063,0,0,0,2.019-2.019A2.171,2.171,0,0,0,31.25-16.769Z" fill="#a100ff" fill-rule="evenodd"/>
    <path id="Path_251116" data-name="Path 251116" d="M10.625-.5H8.875A.941.941,0,0,1,8-1.375v-1.75A.841.841,0,0,1,8.875-4a.841.841,0,0,1,.875.875v.875h.875a.841.841,0,0,1,.875.875A.941.941,0,0,1,10.625-.5Z" fill="#a100ff" fill-rule="evenodd"/>
    <path id="Path_251117" data-name="Path 251117" d="M26.125-.5h-1.75a1.016,1.016,0,0,1-.875-1,.9.9,0,0,1,.875-1h1.75A.9.9,0,0,1,27-1.5,1.016,1.016,0,0,1,26.125-.5Z" fill="#a100ff" fill-rule="evenodd"/>
    <path id="Path_251118" data-name="Path 251118" d="M21.125-.5h-1.75a1.016,1.016,0,0,1-.875-1,.9.9,0,0,1,.875-1h1.75A.9.9,0,0,1,22-1.5,1.016,1.016,0,0,1,21.125-.5Z" fill="#a100ff" fill-rule="evenodd"/>
    <path id="Path_251119" data-name="Path 251119" d="M15.625-.5h-1.75A1.016,1.016,0,0,1,13-1.5a.9.9,0,0,1,.875-1h1.75a.9.9,0,0,1,.875,1A1.016,1.016,0,0,1,15.625-.5Z" fill="#a100ff" fill-rule="evenodd"/>
    <path id="Path_251120" data-name="Path 251120" d="M8.75-16.5A.882.882,0,0,1,8-17.375v-1.75A.783.783,0,0,1,8.75-20a.783.783,0,0,1,.75.875v1.75A.882.882,0,0,1,8.75-16.5Z" fill="#a100ff" fill-rule="evenodd"/>
    <path id="Path_251121" data-name="Path 251121" d="M8.75-11A.882.882,0,0,1,8-11.875v-1.75a.783.783,0,0,1,.75-.875.783.783,0,0,1,.75.875v1.75A.882.882,0,0,1,8.75-11Z" fill="#a100ff" fill-rule="evenodd"/>
    <path id="Path_251122" data-name="Path 251122" d="M8.75-6A.882.882,0,0,1,8-6.875v-1.75A.783.783,0,0,1,8.75-9.5a.783.783,0,0,1,.75.875v1.75A.882.882,0,0,1,8.75-6Z" fill="#a100ff" fill-rule="evenodd"/>
  </g>
</svg>
