<svg xmlns="http://www.w3.org/2000/svg" width="20.156" height="23.719" viewBox="0 0 20.156 23.719">
  <g id="Group_156814" data-name="Group 156814" transform="translate(-0.5 35)">
    <path id="Path_251089" data-name="Path 251089" d="M9.913-13H1a.535.535,0,0,1-.5-.5v-21A.478.478,0,0,1,1-35h10.9a.614.614,0,0,1,.413.083l4.954,5a.757.757,0,0,1,.083.417v1a.478.478,0,0,1-.5.5.535.535,0,0,1-.5-.5v-.833L11.729-34H1.491v20H9.913a.44.44,0,0,1,.5.5A.478.478,0,0,1,9.913-13Z" fill="#a123ff" fill-rule="evenodd"/>
    <path id="Path_251090" data-name="Path 251090" d="M21.857-29.156h-4.87a.524.524,0,0,1-.487-.487v-4.87A.468.468,0,0,1,16.987-35a.43.43,0,0,1,.487.487v4.383h4.383a.43.43,0,0,1,.487.487A.468.468,0,0,1,21.857-29.156Z" transform="translate(-5)" fill="#a123ff" fill-rule="evenodd"/>
    <path id="Path_251091" data-name="Path 251091" d="M24.384-3.625c-.082,0-.164-.082-.246-.164L21.438-6l-2.619,2.21a.386.386,0,0,1-.491.082A.544.544,0,0,1,18-4.116V-10.5h.982v5.32l2.21-1.8a.4.4,0,0,1,.573,0l2.128,1.8V-10.5h.982v6.384a.45.45,0,0,1-.246.409C24.548-3.707,24.466-3.625,24.384-3.625Z" transform="translate(-5.468 -7.656)" fill="#a123ff" fill-rule="evenodd"/>
    <path id="Path_251092" data-name="Path 251092" d="M22.063-13.719A2.01,2.01,0,0,1,20-15.609,1.958,1.958,0,0,1,22.063-17.5a1.908,1.908,0,0,1,2.063,1.891A1.955,1.955,0,0,1,22.063-13.719Zm0-2.836a1.006,1.006,0,0,0-1.031.945,1.066,1.066,0,0,0,1.031.945,1,1,0,0,0,1.031-.945A.954.954,0,0,0,22.063-16.555Z" transform="translate(-6.093 -5.468)" fill="#a123ff" fill-rule="evenodd"/>
    <path id="Path_251093" data-name="Path 251093" d="M20.823-12.031a2.723,2.723,0,0,1-2.176-1.246h0a2.723,2.723,0,0,1-2.176-1.246,2.418,2.418,0,0,1,.084-2.492,2.429,2.429,0,0,1-.084-2.492,2.526,2.526,0,0,1,2.176-1.246h0A2.526,2.526,0,0,1,20.823-22,2.342,2.342,0,0,1,23-20.754a2.342,2.342,0,0,1,2.176,1.246,2.249,2.249,0,0,1,0,2.492,2.249,2.249,0,0,1,0,2.492,2.469,2.469,0,0,1-2.092,1.246H23A2.5,2.5,0,0,1,20.823-12.031Zm-1.841-2.326a.565.565,0,0,1,.5.332,1.431,1.431,0,0,0,1.339,1,1.539,1.539,0,0,0,1.423-1,.706.706,0,0,1,.586-.332,1.407,1.407,0,0,0,1.507-.665,1.493,1.493,0,0,0-.167-1.745.7.7,0,0,1,0-.582,1.38,1.38,0,0,0,.167-1.662,1.465,1.465,0,0,0-1.507-.748.561.561,0,0,1-.586-.332A1.466,1.466,0,0,0,20.823-21a1.358,1.358,0,0,0-1.339.914.561.561,0,0,1-.586.332,1.465,1.465,0,0,0-1.507.748,1.5,1.5,0,0,0,.084,1.662.4.4,0,0,1,0,.582,1.637,1.637,0,0,0-.084,1.745,1.407,1.407,0,0,0,1.507.665Z" transform="translate(-4.895 -4.062)" fill="#a123ff" fill-rule="evenodd"/>
  </g>
</svg>
