<svg xmlns="http://www.w3.org/2000/svg" width="20" height="20" viewBox="0 0 20 20" fill="none">
  <path fill-rule="evenodd" clip-rule="evenodd" d="M18.7129 3.77809C18.6416 3.77809 12.3558 2.11445 10.285 0.103983C10.2051 0.0368451 10.1035 0 9.99895 0C9.89437 0 9.79331 0.0368451 9.71343 0.103983C7.64266 2.11445 1.35687 3.77809 1.28552 3.77809C1.20307 3.81327 1.13228 3.87111 1.08173 3.94483C1.03117 4.01854 1.00284 4.1051 1 4.19428C1 11.3344 1.64417 17.019 9.85698 19.9306C9.92833 19.9306 9.92811 20 10 20C10.0719 20 10.0711 19.9306 10.1425 19.9306C18.3569 17.019 19 11.3344 19 4.19428C18.9971 4.1049 18.9681 4.01822 18.9172 3.94447C18.8664 3.87072 18.7957 3.81298 18.7129 3.77809ZM9.99948 19.0988C2.57099 16.3952 1.85709 11.3344 1.85709 4.47171C3.14462 4.1249 7.85628 2.73817 9.99948 1.00356C12.1421 2.73657 16.856 4.1233 18.1413 4.47171C18.1413 11.3333 17.4274 16.3942 9.99948 19.0977V19.0988ZM7.01484 6.78257C7.01161 7.25369 7.12516 7.71841 7.3449 8.13579C7.56464 8.55316 7.88417 8.91042 8.27534 9.17614C7.32091 9.51842 6.49565 10.1446 5.91152 10.9697C5.32739 11.7947 5.01273 12.7786 5.01042 13.7877C5.01923 13.8969 5.0677 13.9993 5.14663 14.0757C5.22556 14.1522 5.32948 14.1975 5.43949 14.2034H14.5626C14.6726 14.1975 14.7771 14.1522 14.856 14.0757C14.9349 13.9993 14.9829 13.8969 14.9917 13.7877C14.9894 12.7786 14.6752 11.7947 14.0911 10.9696C13.507 10.1445 12.6812 9.51835 11.7268 9.17614C12.1179 8.91042 12.4375 8.55316 12.6572 8.13579C12.8769 7.71841 12.9905 7.25369 12.9873 6.78257C12.9724 6.0051 12.6516 5.26445 12.0935 4.71983C11.5354 4.17522 10.7845 3.87012 10.0026 3.87012C9.22077 3.87012 8.47034 4.17522 7.91228 4.71983C7.35421 5.26445 7.03333 6.0051 7.01851 6.78257H7.01484ZM14.1341 13.3721H5.86594C5.97569 12.3665 6.45405 11.4364 7.20973 10.7595C7.96542 10.0827 8.94531 9.70644 9.96228 9.70277C9.97462 9.70277 9.98712 9.70277 10 9.70277C10.0129 9.70277 10.0249 9.70277 10.0372 9.70277C11.054 9.70653 12.0336 10.0826 12.7892 10.7593C13.5449 11.4359 14.0234 12.3657 14.1335 13.371L14.1341 13.3721ZM12.1312 6.78257C12.1187 7.33655 11.8888 7.86367 11.4905 8.25107C11.0921 8.63848 10.5571 8.8554 10 8.8554C9.44286 8.8554 8.90787 8.63848 8.50952 8.25107C8.11117 7.86367 7.88129 7.33655 7.86879 6.78257C7.88129 6.22859 8.11117 5.7015 8.50952 5.3141C8.90787 4.9267 9.44286 4.70977 10 4.70977C10.5571 4.70977 11.0921 4.9267 11.4905 5.3141C11.8888 5.7015 12.1187 6.22859 12.1312 6.78257Z" fill="black"/>
</svg>