<svg width="16" height="16" viewBox="0 0 16 16" fill="none" xmlns="http://www.w3.org/2000/svg">
<g id="Close">
<path id="icon" fill-rule="evenodd" clip-rule="evenodd" d="M14.5635 14.2021C14.5956 14.2267 14.6217 14.2583 14.6396 14.2945C14.6576 14.3307 14.6668 14.3705 14.6668 14.4109C14.6668 14.4512 14.6576 14.4911 14.6396 14.5272C14.6217 14.5634 14.5956 14.5951 14.5635 14.6196C14.5172 14.6658 14.4709 14.6658 14.3783 14.6658C14.313 14.6726 14.2473 14.6563 14.1928 14.6196L7.98335 8.40573L1.77387 14.6196C1.72758 14.6658 1.68085 14.6658 1.58827 14.6658C1.52303 14.6726 1.45748 14.6563 1.40314 14.6196C1.35794 14.5594 1.3335 14.4861 1.3335 14.4109C1.3335 14.3356 1.35794 14.2624 1.40314 14.2021L7.58892 8.01134L1.40314 1.82073C1.35794 1.7605 1.3335 1.68723 1.3335 1.61199C1.3335 1.53676 1.35794 1.46349 1.40314 1.40326C1.45445 1.35849 1.52028 1.33398 1.58846 1.33398C1.65663 1.33398 1.72256 1.35849 1.77387 1.40326L7.98335 7.61715C14.1887 1.40707 14.1928 1.40326 14.1928 1.40326C14.2441 1.35849 14.31 1.33398 14.3781 1.33398C14.4463 1.33398 14.5122 1.35849 14.5635 1.40326C14.5956 1.42778 14.6217 1.45943 14.6396 1.49562C14.6576 1.53181 14.6668 1.57163 14.6668 1.61199C14.6668 1.65236 14.6576 1.69218 14.6396 1.72837C14.6217 1.76456 14.5956 1.79621 14.5635 1.82073L8.37769 8.01134L14.5635 14.2021Z" fill="black"/>
</g>
</svg>
