<svg xmlns="http://www.w3.org/2000/svg" width="20" height="19.75" viewBox="0 0 20 19.75">
  <g id="Group_209897" data-name="Group 209897" transform="translate(0 39.5)">
    <path id="Path_415902" data-name="Path 415902" d="M3.733-24H3.595a.459.459,0,0,1-.277-.408v-2.855H.415A.4.4,0,0,1,0-27.671V-39.092A.442.442,0,0,1,.415-39.5h17.42a.442.442,0,0,1,.415.408v7.342a.4.4,0,0,1-.415.408.4.4,0,0,1-.415-.408v-6.934H.83v10.605h2.9a.442.442,0,0,1,.415.408v2.311l2.627-2.583a.361.361,0,0,1,.277-.136h.83a.442.442,0,0,1,.415.408.4.4,0,0,1-.415.408H7.259L4.009-24.136C3.94-24,3.871-24,3.733-24Z" fill-rule="evenodd"/>
    <path id="Path_415903" data-name="Path 415903" d="M23.875-10.75A5.382,5.382,0,0,1,18.5-16.125,5.382,5.382,0,0,1,23.875-21.5a5.382,5.382,0,0,1,5.375,5.375A5.382,5.382,0,0,1,23.875-10.75Zm0-9.923a4.588,4.588,0,0,0-4.548,4.548,4.544,4.544,0,0,0,4.548,4.548,4.544,4.544,0,0,0,4.548-4.548A4.588,4.588,0,0,0,23.875-20.673Z" transform="translate(-9.25 -9)" fill-rule="evenodd"/>
    <path id="Path_415904" data-name="Path 415904" d="M25.768-9.957a.506.506,0,0,1-.34-.143l-2.174-2.357a.343.343,0,0,1,0-.571.31.31,0,0,1,.543,0l1.9,2,2.853-3.214a.349.349,0,0,1,.543-.071.468.468,0,0,1,.068.643L26.04-10.1a.506.506,0,0,1-.272.143Z" transform="translate(-11.551 -12.543)" fill-rule="evenodd"/>
  </g>
</svg>
