<svg width="24" height="24" viewBox="0 0 24 24" fill="none" xmlns="http://www.w3.org/2000/svg">
<path d="M21.3858 21L8.44963 21C8.28881 21 8.13458 20.9361 8.02086 20.8224C7.90714 20.7087 7.84325 20.5544 7.84325 20.3936L7.84325 16.1489H3.59857C3.43775 16.1489 3.28351 16.085 3.16979 15.9713C3.05607 15.8576 2.99219 15.7034 2.99219 15.5426L2.99219 2.60638C2.99219 2.44556 3.05607 2.29132 3.16979 2.1776C3.28351 2.06388 3.43775 2 3.59857 2H16.5347C16.6956 2 16.8498 2.06388 16.9635 2.1776C17.0772 2.29132 17.1411 2.44556 17.1411 2.60638V6.85106H21.3858C21.5466 6.85106 21.7009 6.91495 21.8146 7.02867C21.9283 7.14239 21.9922 7.29662 21.9922 7.45745V20.3936C21.9922 20.5544 21.9283 20.7087 21.8146 20.8224C21.7009 20.9361 21.5466 21 21.3858 21ZM15.9284 3.21277H4.20495L4.20495 14.9362L15.9284 14.9362L15.9284 3.21277ZM20.7794 8.06383H17.1411V15.5426C17.1411 15.7034 17.0772 15.8576 16.9635 15.9713C16.8498 16.085 16.6956 16.1489 16.5347 16.1489H9.05602V19.7872L20.7794 19.7872V8.06383Z" fill="black"/>
</svg>
