<svg width="16" height="18" viewBox="0 0 16 18" fill="none" xmlns="http://www.w3.org/2000/svg">
<path id="Vector" d="M1.81309 3.20187H10.1655C10.6641 3.20187 11.1182 3.40606 11.446 3.73453C11.7744 4.063 11.9786 4.51645 11.9786 5.01496V15.75C11.9786 16.2492 11.7744 16.7027 11.446 17.0305C11.1175 17.3589 10.664 17.5631 10.1655 17.5631H1.81309C1.31389 17.5631 0.860453 17.3589 0.532663 17.0305C0.204191 16.702 0 16.2485 0 15.75V5.01496C0 4.51644 0.204191 4.06232 0.532663 3.73453C0.861135 3.40606 1.31459 3.20187 1.81309 3.20187ZM4.19031 1.71861C4.07354 1.90641 3.82633 1.96376 3.63854 1.847C3.45075 1.73023 3.39339 1.48302 3.51015 1.29523C3.67268 1.03436 3.90078 0.817195 4.17119 0.666953C4.43274 0.520813 4.73252 0.4375 5.04871 0.4375H13.4011C13.9004 0.4375 14.3538 0.641691 14.6816 0.970163C15.01 1.29864 15.2142 1.75209 15.2142 2.25059V12.9857C15.2142 13.4186 15.0592 13.8195 14.8004 14.1336C14.5382 14.4525 14.1701 14.6813 13.7508 14.7639C13.5336 14.8063 13.3226 14.6642 13.281 14.4471C13.2386 14.2292 13.38 14.0189 13.5978 13.9766C13.832 13.9301 14.0376 13.8031 14.1838 13.6249C14.3265 13.4514 14.4125 13.2281 14.4125 12.985V2.24991C14.4125 1.97266 14.2985 1.71999 14.1155 1.53697C13.9324 1.35327 13.6798 1.23991 13.4025 1.23991H5.05009C4.87186 1.23991 4.70522 1.28567 4.56113 1.36557C4.41089 1.44956 4.2832 1.57112 4.19168 1.71794L4.19031 1.71861ZM10.1664 4.00493H1.81396C1.53672 4.00493 1.28405 4.11897 1.10103 4.30198C0.917323 4.48569 0.803969 4.73767 0.803969 5.01492V15.75C0.803969 16.0273 0.918012 16.2799 1.10103 16.4629C1.28405 16.6466 1.53672 16.76 1.81396 16.76H10.1664C10.4437 16.76 10.6963 16.646 10.8793 16.4629C11.0624 16.2799 11.1764 16.0273 11.1764 15.75V5.01492C11.1764 4.73767 11.0624 4.485 10.8793 4.30198C10.6956 4.11896 10.4437 4.00493 10.1664 4.00493Z" fill="black"/>
</svg>
