<svg xmlns="http://www.w3.org/2000/svg" width="34.5" height="33.253" viewBox="0 0 34.5 33.253">
  <g id="Group_160316" data-name="Group 160316" transform="translate(0 40.5)">
    <path id="Path_253322" data-name="Path 253322" d="M7.9-8.386h0a.892.892,0,0,1-.589-.24C7.072-8.986,0-17.752,0-21.955A7.973,7.973,0,0,1,7.9-30a7.973,7.973,0,0,1,7.9,8.045c0,4.2-7.072,12.969-7.426,13.329A.887.887,0,0,1,7.9-8.386Zm0-20.173a6.526,6.526,0,0,0-6.483,6.6c0,2.882,4.243,8.886,6.483,11.648,2.24-2.762,6.483-8.766,6.483-11.648A6.6,6.6,0,0,0,7.9-28.559Z" transform="translate(0 -1.771)" fill="#b5b5b5" fill-rule="evenodd"/>
    <path id="Path_253323" data-name="Path 253323" d="M8.825-17.434A3.436,3.436,0,0,1,5.5-20.967,3.436,3.436,0,0,1,8.825-24.5a3.436,3.436,0,0,1,3.325,3.533A3.436,3.436,0,0,1,8.825-17.434Zm0-5.6a2,2,0,0,0-1.949,2.071A2,2,0,0,0,8.825-18.9a2.075,2.075,0,0,0,1.949-2.071A2.075,2.075,0,0,0,8.825-23.038Z" transform="translate(-0.928 -2.699)" fill="#b5b5b5" fill-rule="evenodd"/>
    <path id="Path_253324" data-name="Path 253324" d="M22.145-3.452H9.225A.7.7,0,0,1,8.5-4.179a.7.7,0,0,1,.725-.727h12.2V-17.273A.7.7,0,0,1,22.145-18H29.39a.781.781,0,0,1,.725.727.781.781,0,0,1-.725.727H22.869V-4.179A.781.781,0,0,1,22.145-3.452Z" transform="translate(-1.434 -3.795)" fill="#b5b5b5" fill-rule="evenodd"/>
    <path id="Path_253325" data-name="Path 253325" d="M32.443-23.042a.9.9,0,0,1-.6-.242C31.25-24.012,26-30.559,26-33.953A6.468,6.468,0,0,1,32.443-40.5a6.545,6.545,0,0,1,6.443,6.547c0,3.395-5.369,9.941-5.966,10.669A.9.9,0,0,1,32.443-23.042Zm0-16a5.006,5.006,0,0,0-5.011,5.092c0,2.182,3.221,6.789,5.011,8.971,1.79-2.182,5.011-6.789,5.011-8.971A5.082,5.082,0,0,0,32.443-39.045Z" transform="translate(-4.386)" fill="#b5b5b5" fill-rule="evenodd"/>
    <path id="Path_253326" data-name="Path 253326" d="M33.41-30.181a2.872,2.872,0,0,1-2.91-2.91A2.872,2.872,0,0,1,33.41-36a2.95,2.95,0,0,1,2.91,2.91A2.95,2.95,0,0,1,33.41-30.181Zm0-4.364a1.4,1.4,0,0,0-1.455,1.455,1.474,1.474,0,0,0,1.455,1.455,1.565,1.565,0,0,0,1.455-1.455A1.474,1.474,0,0,0,33.41-34.545Z" transform="translate(-5.145 -0.759)" fill="#b5b5b5" fill-rule="evenodd"/>
  </g>
</svg>
