<svg id="noun-creative-2496534" xmlns="http://www.w3.org/2000/svg" width="21.523" height="22.583" viewBox="0 0 21.523 22.583">
  <path id="Path_259255" data-name="Path 259255" d="M297.463,210.27l-.3.139a1.5,1.5,0,0,0-.44-.416l.162-.37c.023-.023.023-.069,0-.069-.023-.046-.046-.046-.069-.046l-.486-.208c-.046-.023-.116.023-.139.069l-.162.37a1.6,1.6,0,0,0-.579-.023l-.139-.347a.165.165,0,0,0-.139-.069l-.486.185a.165.165,0,0,0-.069.139l.139.324a1.68,1.68,0,0,0-.416.393l-.393-.162c-.046-.023-.116.023-.139.069l-.208.463c-.023.023-.023.069,0,.069.023.023.046.046.069.046l.393.162a2.826,2.826,0,0,0-.023.625l-.3.139a.165.165,0,0,0-.069.139l.208.486a.165.165,0,0,0,.139.069l.3-.139a1.68,1.68,0,0,0,.393.416l-.139.347c-.023.023-.023.069,0,.069.023.023.046.046.069.046l.486.208c.023.023.069.023.069,0,.046-.023.046-.046.046-.069l.139-.347A1.887,1.887,0,0,0,296,213l.116.278a.165.165,0,0,0,.139.069l.486-.208a.165.165,0,0,0,.069-.139l-.116-.3a1.5,1.5,0,0,0,.416-.44l.3.139a.233.233,0,0,0,.116.046c.023-.023.046-.046.046-.069l.208-.486c.023-.023.023-.069,0-.069-.023-.046-.046-.046-.069-.046l-.3-.139a1.221,1.221,0,0,0,0-.579l.3-.139a.165.165,0,0,0,.069-.139l-.208-.486c.023-.023-.046-.046-.116-.023Zm-1.342,2.106a1.064,1.064,0,1,1,.579-1.389A1.028,1.028,0,0,1,296.121,212.376Z" transform="translate(-285.012 -200.879)"/>
  <path id="Path_259256" data-name="Path 259256" d="M249.959,161.28a4.122,4.122,0,0,0-1.99,7.73v1.18a.149.149,0,0,0,.139.139h.069v.555a.149.149,0,0,0,.139.139h.231v.44a.149.149,0,0,0,.139.139h2.546a.149.149,0,0,0,.139-.139v-.416h.208a.149.149,0,0,0,.139-.139v-.555h.092a.149.149,0,0,0,.139-.139v-1.18a4.136,4.136,0,0,0-1.99-7.753Zm-1.319,7.244-.139-.069a3.373,3.373,0,1,1,4.837-3.032,3.343,3.343,0,0,1-1.921,3.032l-.116.069a.14.14,0,0,0-.069.139v.949H248.71v-.949a.14.14,0,0,0-.069-.139Z" transform="translate(-239.244 -154.851)"/>
  <path id="Path_259257" data-name="Path 259257" d="M107.276,17.043a.489.489,0,0,0-.486.486A9.8,9.8,0,1,1,96.329,7.74l-.44.324a.475.475,0,0,0,.278.856.4.4,0,0,0,.278-.092l1.574-1.2a.494.494,0,0,0,.185-.393A.438.438,0,0,0,98,6.86L96.445,5.8a.467.467,0,0,0-.671.139.49.49,0,0,0,.139.671l.324.208a10.752,10.752,0,1,0,11.525,10.716.474.474,0,0,0-.486-.486Z" transform="translate(-86.239 -5.708)"/>
  <path id="Path_259258" data-name="Path 259258" d="M574.037,217.859a.579.579,0,1,1-.579-.579.579.579,0,0,1,.579.579" transform="translate(-552.769 -208.536)"/>
  <path id="Path_259259" data-name="Path 259259" d="M555.557,165.779a.579.579,0,1,1-.579-.579.578.578,0,0,1,.579.579" transform="translate(-535.053 -158.609)"/>
  <path id="Path_259260" data-name="Path 259260" d="M521.957,116.5a.579.579,0,1,1-.579-.579.579.579,0,0,1,.579.579" transform="translate(-502.841 -111.365)"/>
  <path id="Path_259261" data-name="Path 259261" d="M475.477,74.5a.579.579,0,1,1-.579-.579.579.579,0,0,1,.579.579" transform="translate(-458.282 -71.103)"/>
  <path id="Path_259262" data-name="Path 259262" d="M420.037,45.38a.579.579,0,1,1-.579-.579.579.579,0,0,1,.579.579" transform="translate(-405.133 -43.185)"/>
</svg>
