<svg xmlns="http://www.w3.org/2000/svg" width="12.01" height="12.01" viewBox="0 0 12.01 12.01">
  <path id="Path_250592" data-name="Path 250592" d="M1397.342-253.911l-4.083-4.083,4.083-4.084a1.122,1.122,0,0,0,0-1.591,1.122,1.122,0,0,0-1.591,0l-4.083,4.083-4.083-4.083a1.123,1.123,0,0,0-1.592,0,1.124,1.124,0,0,0,0,1.591l4.084,4.084-4.084,4.083a1.124,1.124,0,0,0,0,1.591,1.123,1.123,0,0,0,1.592,0l4.083-4.083,4.083,4.083a1.122,1.122,0,0,0,1.591,0A1.127,1.127,0,0,0,1397.342-253.911Z" transform="translate(-1385.663 264)"/>
</svg>
