<svg xmlns="http://www.w3.org/2000/svg" width="16" height="19.624" viewBox="0 0 16 19.624">
  <path id="Shape" d="M8.2,19.624v0h0l-.4,0A15.217,15.217,0,0,1,0,6.337V.41A.438.438,0,0,1,.4,0H15.6a.437.437,0,0,1,.4.41V6.337A15.218,15.218,0,0,1,8.2,19.624ZM.8,3.271V6.337A14.414,14.414,0,0,0,8,18.8,14.414,14.414,0,0,0,15.2,6.337V3.271ZM.8.818V2.453H15.2V.818ZM11.624,14.742h-7.2a.435.435,0,0,1-.4-.408V8.61a.437.437,0,0,1,.4-.41h.8V7.792a2.8,2.8,0,1,1,5.6,0V8.2h.8a.437.437,0,0,1,.4.41v5.723A.435.435,0,0,1,11.624,14.742Zm-6.8-5.723v4.905h6.4V9.018Zm3.2-3.271a1.915,1.915,0,0,0-2,2.044V8.2h4V7.792A1.914,1.914,0,0,0,8.025,5.748ZM8,13.08a.408.408,0,0,1-.407-.407V11.242c-.2,0-.407-.4-.407-.613a.815.815,0,1,1,1.628,0,.872.872,0,0,1-.232.522.26.26,0,0,1-.175.091v1.431A.408.408,0,0,1,8,13.08Z"/>
</svg>
