<svg width="21" height="21" viewBox="0 0 21 21" fill="none" xmlns="http://www.w3.org/2000/svg">
<path d="M20.3503 7.69978C20.2572 7.38951 19.9966 7.15981 19.6874 7.11267L13.6404 6.19087L10.9339 0.440652C10.657 -0.146884 9.7367 -0.146884 9.4565 0.440652L6.75325 6.19087L0.706295 7.11267C0.397494 7.15981 0.136891 7.38609 0.0400841 7.69978C-0.0563143 8.01391 0.0241538 8.35846 0.24922 8.58473L4.62595 13.0617L3.59294 19.3789C3.54147 19.7033 3.66728 20.0342 3.92135 20.2266C4.17541 20.419 4.51036 20.446 4.78689 20.2904L10.197 17.3091L15.6035 20.2904C15.7257 20.3582 15.8576 20.3886 15.9895 20.3886C16.1603 20.3886 16.3277 20.3346 16.4723 20.2266C16.7268 20.0307 16.8522 19.7033 16.8007 19.3789L15.7677 13.0617L20.1445 8.58473C20.3695 8.35503 20.4471 8.01391 20.3503 7.69978Z" fill="#D7D7D7"/>
</svg>
