<svg xmlns="http://www.w3.org/2000/svg" width="14.948" height="16" viewBox="0 0 14.948 16">
  <path d="M12.389,16l-.037,0H1.963a.312.312,0,0,1-.226-.1.315.315,0,0,1-.089-.238v-13H.319A.32.32,0,0,1,0,2.328a.357.357,0,0,1,.324-.337H4.213V.333A.356.356,0,0,1,4.539,0H9.759a.312.312,0,0,1,.226.1.317.317,0,0,1,.091.238V1.991h4.554a.318.318,0,0,1,.229.1.323.323,0,0,1,.09.24.294.294,0,0,1-.325.338H12.676v13a.292.292,0,0,1-.287.335ZM2.3,2.667V15.331h9.731V2.667H2.3Zm2.569-2V1.991H9.424V.667ZM9.787,13l-.04,0h-.01a.32.32,0,0,1-.32-.333V4.652a.357.357,0,0,1,.329-.333h.014a.313.313,0,0,1,.225.095.32.32,0,0,1,.092.238V12.66a.3.3,0,0,1-.082.249A.291.291,0,0,1,9.787,13Zm-2.6,0-.04,0h-.01a.32.32,0,0,1-.319-.333V4.652a.357.357,0,0,1,.329-.333h.01a.32.32,0,0,1,.319.333V12.66a.292.292,0,0,1-.29.336Zm-2.6,0-.04,0h-.01a.32.32,0,0,1-.32-.333V4.652a.358.358,0,0,1,.33-.333h.01a.318.318,0,0,1,.318.333V12.66A.292.292,0,0,1,4.584,13Z"/>
</svg>
