<svg id="noun-diagnostic-5621180" xmlns="http://www.w3.org/2000/svg" width="20.502" height="20.314" viewBox="0 0 20.502 20.314">
  <path id="Path_259215" data-name="Path 259215" d="M190.988,101.208H171.107a.311.311,0,0,0-.311.311v16.042a.311.311,0,0,0,.311.311h7.649V119.5H177.6a1.009,1.009,0,1,0,0,2.018h6.886a1.009,1.009,0,1,0,0-2.018h-1.152v-1.631h7.649a.31.31,0,0,0,.31-.311V101.519a.31.31,0,0,0-.31-.311Zm-19.57,8.68h2.333a.31.31,0,0,0,.289-.2l1.424-3.66,1.138,5.833a.31.31,0,0,0,.285.251.3.3,0,0,0,.315-.211l.4-1.188.512,1.945a.31.31,0,0,0,.279.231h.021a.311.311,0,0,0,.287-.191l2.351-5.63,1.114,2.678a.31.31,0,0,0,.572,0l1.985-4.737,2.307,5.767a.311.311,0,0,0,.545.06l.642-.946h2.463v5.05h-19.26Zm19.26-8.059v7.443h-2.627a.311.311,0,0,0-.257.136l-.407.6-2.371-5.929a.312.312,0,0,0-.286-.2h0a.311.311,0,0,0-.286.19l-1.991,4.751-1.115-2.679a.31.31,0,0,0-.286-.191h0a.311.311,0,0,0-.287.191l-2.284,5.47-.543-2.064a.31.31,0,0,0-.29-.231.3.3,0,0,0-.3.211l-.354,1.058-1.117-5.73a.31.31,0,0,0-.594-.053l-1.735,4.461h-2.12v-7.437Zm-5.8,18.683a.388.388,0,0,1-.388.388H177.6a.388.388,0,1,1,0-.776h6.886a.389.389,0,0,1,.389.388Zm-2.161-1.009h-3.339v-1.631h3.339Zm7.96-2.253H171.418v-1.686h19.26v1.686Z" transform="translate(-170.796 -101.208)"/>
</svg>
