<svg xmlns="http://www.w3.org/2000/svg" width="14.2" height="14.206" viewBox="0 0 14.2 14.206">
  <g id="Icon_feather-file-plus" data-name="Icon feather-file-plus" transform="translate(-185.805 -464.382)">
    <path id="Subtraction_8" data-name="Subtraction 8" d="M-9145.739,9789.988h-9.935a2.14,2.14,0,0,1-2.12-2.09v-10a2.149,2.149,0,0,1,.644-1.5,2.118,2.118,0,0,1,1.49-.614h2.224a.526.526,0,0,1,.525.525.526.526,0,0,1-.525.525h-2.218a1.1,1.1,0,0,0-1.092,1.065v9.988a1.086,1.086,0,0,0,1.089,1.046h9.894a1.083,1.083,0,0,0,.781-.3,1.077,1.077,0,0,0,.334-.766v-2.444a.526.526,0,0,1,.525-.525.526.526,0,0,1,.526.525v2.455A2.159,2.159,0,0,1-9145.739,9789.988Z" transform="translate(9343.599 -9311.4)"/>
    <path id="Subtraction_9" data-name="Subtraction 9" d="M-9157.194,9785.615a.619.619,0,0,1-.43-.174.6.6,0,0,1-.172-.425.591.591,0,0,1,.174-.428l7.614-7.6h-4.116a.591.591,0,0,1-.427-.173.6.6,0,0,1-.173-.427.59.59,0,0,1,.174-.426.59.59,0,0,1,.426-.174h5.372a.59.59,0,0,1,.426.174.59.59,0,0,1,.174.426v5.111a.592.592,0,0,1-.174.427.591.591,0,0,1-.426.173.6.6,0,0,1-.6-.6v-3.479l-7.407,7.42A.634.634,0,0,1-9157.194,9785.615Z" transform="translate(9348.157 -9311.396)"/>
  </g>
</svg>
