<svg xmlns="http://www.w3.org/2000/svg" width="32.842" height="32.842" viewBox="0 0 32.842 32.842">
  <path id="Path_253506" data-name="Path 253506" d="M28.254-11.906a8.192,8.192,0,0,0,.257-1.078,3.128,3.128,0,0,0-2.673-3.489,3.153,3.153,0,0,0-2.93,1.232,3.105,3.105,0,0,0-2.93-1.232,3.091,3.091,0,0,0-2.621,3.489,3.991,3.991,0,0,0,.206,1.078H1.682c.206-6.876,4.574-8.467,8.069-9.7a8.718,8.718,0,0,0,3.392-1.745,8.443,8.443,0,0,0,3.752.924,8.492,8.492,0,0,0,3.8-.924A8.718,8.718,0,0,0,24.091-21.6c3.495,1.232,7.864,2.822,8.069,9.7ZM22.908-7.441c-2.056-1.386-4.214-3.541-4.42-5.645a2.026,2.026,0,0,1,1.645-2.258h.257a1.927,1.927,0,0,1,1.85,1.334.663.663,0,0,0,.668.462.663.663,0,0,0,.668-.462,2.014,2.014,0,0,1,2.107-1.334,1.987,1.987,0,0,1,1.645,2.258C27.123-10.982,24.964-8.827,22.908-7.441ZM9.8-30.687A7.112,7.112,0,0,1,16.9-37.82a7.123,7.123,0,0,1,7.144,7.133A7.112,7.112,0,0,1,16.9-23.605,7.1,7.1,0,0,1,9.8-30.687m14.7,8.005a11.865,11.865,0,0,1-2.775-1.283,8.233,8.233,0,0,0,3.495-6.722A8.351,8.351,0,0,0,16.9-39a8.34,8.34,0,0,0-8.275,8.313,8.233,8.233,0,0,0,3.495,6.722A11.865,11.865,0,0,1,9.34-22.682C5.845-21.45.5-19.5.5-11.341a.57.57,0,0,0,.565.564H18.077A14.191,14.191,0,0,0,22.6-6.261a.731.731,0,0,0,.308.1.731.731,0,0,0,.308-.1,14.191,14.191,0,0,0,4.523-4.516h5.037a.57.57,0,0,0,.565-.564C33.342-19.5,28-21.45,24.5-22.682Z" transform="translate(-0.5 39)" fill="#b5b5b5" fill-rule="evenodd"/>
</svg>
