<svg id="Group_209013" data-name="Group 209013" xmlns="http://www.w3.org/2000/svg" width="16" height="15.768" viewBox="0 0 16 15.768">
  <path id="Path_415779" data-name="Path 415779" d="M13.623-5.06H2.319A2.308,2.308,0,0,1,0-7.344V-8.657A.332.332,0,0,1,.348-9,.332.332,0,0,1,.7-8.657v1.313a1.647,1.647,0,0,0,1.623,1.6h11.3a1.66,1.66,0,0,0,1.681-1.6V-8.657A.332.332,0,0,1,15.652-9,.332.332,0,0,1,16-8.657v1.313A2.322,2.322,0,0,1,13.623-5.06Z" transform="translate(0 20.828)" fill-rule="evenodd"/>
  <path id="Path_415780" data-name="Path 415780" d="M16.848-22.218a.33.33,0,0,1-.348-.34v-11.6a.37.37,0,0,1,.348-.34.37.37,0,0,1,.348.34v11.6A.33.33,0,0,1,16.848-22.218Z" transform="translate(-8.848 34.5)" fill-rule="evenodd"/>
  <path id="Path_415781" data-name="Path 415781" d="M11.3-14.138c-.115,0-.173,0-.231-.056L6.223-18.857a.3.3,0,0,1,0-.5.361.361,0,0,1,.461,0L11.3-14.915l4.614-4.442a.361.361,0,0,1,.461,0,.4.4,0,0,1,0,.5l-4.844,4.664A.357.357,0,0,1,11.3-14.138Z" transform="translate(-3.269 26.427)" fill-rule="evenodd"/>
</svg>
