<svg width="7" height="12" viewBox="0 0 7 12" fill="none" xmlns="http://www.w3.org/2000/svg">
<path fill-rule="evenodd" clip-rule="evenodd" d="M1 2C1.55228 2 2 1.55228 2 1C2 0.447715 1.55228 0 1 0C0.447715 0 0 0.447715 0 1C0 1.55228 0.447715 2 1 2ZM1 7C1.55228 7 2 6.55228 2 6C2 5.44772 1.55228 5 1 5C0.447715 5 0 5.44772 0 6C0 6.55228 0.447715 7 1 7ZM2 11C2 11.5523 1.55228 12 1 12C0.447715 12 0 11.5523 0 11C0 10.4477 0.447715 10 1 10C1.55228 10 2 10.4477 2 11ZM6 2C6.55228 2 7 1.55228 7 1C7 0.447715 6.55228 0 6 0C5.44772 0 5 0.447715 5 1C5 1.55228 5.44772 2 6 2ZM7 6C7 6.55228 6.55228 7 6 7C5.44772 7 5 6.55228 5 6C5 5.44772 5.44772 5 6 5C6.55228 5 7 5.44772 7 6ZM6 12C6.55228 12 7 11.5523 7 11C7 10.4477 6.55228 10 6 10C5.44772 10 5 10.4477 5 11C5 11.5523 5.44772 12 6 12Z" fill="black"/>
</svg>
