<svg xmlns="http://www.w3.org/2000/svg" width="17.042" height="17" viewBox="0 0 17.042 17">
  <g transform="translate(-0.573 35.5)">
    <path d="M.958-18.5a.46.46,0,0,1-.3-.12.4.4,0,0,1-.06-.359l1.081-4.609c0-.06.06-.12.06-.18L13.034-34.961A1.639,1.639,0,0,1,14.3-35.5a1.732,1.732,0,0,1,1.262.539l1.562,1.5a1.841,1.841,0,0,1,0,2.514L5.824-19.7a.264.264,0,0,1-.18.06L1.018-18.56A.059.059,0,0,0,.958-18.5ZM2.34-23.349l-.9,4.011L5.4-20.3,16.579-31.43a1.118,1.118,0,0,0,0-1.556l-1.5-1.5a1.268,1.268,0,0,0-.781-.3,1.268,1.268,0,0,0-.781.3ZM5.584-20Z" fill-rule="evenodd"/>
    <path d="M29.039-29.1a.315.315,0,0,1-.243-.121l-3.643-3.643a.369.369,0,0,1,0-.486.455.455,0,0,1,.546,0l3.582,3.582a.453.453,0,0,1,0,.546A.46.46,0,0,1,29.039-29.1Z" transform="translate(-12.595 -1.061)" fill-rule="evenodd"/>
    <path d="M27.039-27.1a.315.315,0,0,1-.243-.121l-3.643-3.643a.369.369,0,0,1,0-.486.455.455,0,0,1,.546,0L27.282-27.7a.369.369,0,0,1,0,.486A.46.46,0,0,1,27.039-27.1Z" transform="translate(-11.566 -2.089)" fill-rule="evenodd"/>
    <path d="M7-7.58a.356.356,0,0,1-.24-.061L3.227-11.284a.286.286,0,0,1,0-.486.278.278,0,0,1,.479,0L7.239-8.187a.343.343,0,0,1,0,.546C7.179-7.58,7.12-7.58,7-7.58Z" transform="translate(-1.296 -12.134)" fill-rule="evenodd"/>
  </g>
</svg>
