<?xml version="1.0" encoding="UTF-8"?><svg id="Layer_1" xmlns="http://www.w3.org/2000/svg" viewBox="0 0 18.66 28.25"><defs><style>.cls-1{fill-rule:evenodd;}</style></defs><g id="Group_165722"><path id="Path_254319" class="cls-1" d="m16.17,28.25H2.43c-.31-.02-.55-.27-.57-.57v-2.29c.02-.31.27-.55.57-.57h13.74c.3-.01.56.22.57.53,0,.02,0,.03,0,.05v2.29c.01.3-.22.56-.53.57-.02,0-.03,0-.05,0Zm-13.17-1.15h12.6v-1.15H3v1.15Z"/><path id="Path_254320" class="cls-1" d="m10.61,25.96h-2.35c-.29-.01-.53-.22-.59-.5l-3.53-15.5c.01-.23.12-.45.29-.6.16-.14.39-.17.59-.1,2.76,1.59,6.16,1.59,8.92,0,.2-.1.39,0,.59.1.2.2.29.4.2.6l-3.53,15.51c-.06.28-.3.49-.59.5Zm-1.86-1.19h1.37l3.24-13.91c-2.49.99-5.26.99-7.75,0l3.14,13.91Z"/><path id="Path_254321" class="cls-1" d="m9.3,8.4c-2.26-.07-4.05-1.94-4.01-4.2-.04-2.26,1.75-4.13,4.01-4.2,2.26.07,4.05,1.94,4.01,4.2.04,2.26-1.75,4.13-4.01,4.2Zm0-7.2c-1.62.04-2.9,1.38-2.86,3-.03,1.62,1.25,2.96,2.86,3,1.59,0,2.87-1.31,2.87-2.9,0-.03,0-.07,0-.1.07-1.59-1.17-2.93-2.76-3-.03,0-.07,0-.1,0Z"/><path id="Path_254322" class="cls-1" d="m12.01,25.58l-.99-.68,6.15-8.92-2.58-1.16.5-1.07,3.17,1.45c.18.07.32.21.4.39.02.17-.02.34-.1.49l-6.55,9.51Z"/><path id="Path_254323" class="cls-1" d="m6.59,25.58L.14,16.07c-.1-.19-.2-.29-.1-.49,0-.19.1-.29.3-.39l3.27-1.45.5,1.07-2.68,1.16,6.15,8.92-.99.68Z"/></g></svg>