<svg xmlns="http://www.w3.org/2000/svg" width="20.057" height="20.398" viewBox="0 0 20.057 20.398">
  <g id="Group_156820" data-name="Group 156820" transform="translate(-0.111 38.5)">
    <path id="Path_251094" data-name="Path 251094" d="M4.863-7.758h-.07a.7.7,0,0,1-.349-.284l-.976-2.843-2.858.5a.332.332,0,0,1-.418-.142c-.07-.142-.139-.355,0-.5L3.259-16.5l.767.426L1.307-11.383l2.37-.355a.4.4,0,0,1,.488.284l.767,2.274,2.3-3.98.767.5L5.211-7.971A.382.382,0,0,1,4.863-7.758Z" transform="translate(0 -10.344)" fill="#a123ff" fill-rule="evenodd"/>
    <path id="Path_251095" data-name="Path 251095" d="M26.165-7.523a.609.609,0,0,1-.422-.21L23-12.357l.7-.42,2.321,3.853.844-2.242a.4.4,0,0,1,.492-.28l2.321.35-2.6-4.484.7-.42,3.095,5.254a.6.6,0,0,1,0,.49c-.141.14-.281.21-.422.14l-2.884-.49L26.517-7.8a.5.5,0,0,1-.352.28Z" transform="translate(-10.762 -10.579)" fill="#a123ff" fill-rule="evenodd"/>
    <path id="Path_251096" data-name="Path 251096" d="M12.08-22.34A8.122,8.122,0,0,1,4-30.42a8.076,8.076,0,0,1,8.08-8.08,8.076,8.076,0,0,1,8.08,8.08A8.122,8.122,0,0,1,12.08-22.34Zm0-15.309A7.214,7.214,0,0,0,4.851-30.42a7.26,7.26,0,0,0,7.229,7.229,7.26,7.26,0,0,0,7.229-7.229A7.214,7.214,0,0,0,12.08-37.649Z" transform="translate(-1.828)" fill="#a123ff" fill-rule="evenodd"/>
    <path id="Path_251097" data-name="Path 251097" d="M15.144-22.851c-.138,0-.206,0-.275-.069l-2.2-2.216a.522.522,0,0,1,0-.623.416.416,0,0,1,.55,0l1.926,1.869,3.783-4.847a.424.424,0,0,1,.55-.069.44.44,0,0,1,.069.623L15.488-22.99a.524.524,0,0,1-.344.138Z" transform="translate(-5.855 -4.523)" fill="#a123ff" fill-rule="evenodd"/>
  </g>
</svg>
