<svg xmlns="http://www.w3.org/2000/svg" width="23.023" height="20.93" viewBox="0 0 23.023 20.93">
  <g id="Group_158903" data-name="Group 158903" transform="translate(0 35)">
    <path id="Path_251409" data-name="Path 251409" d="M15.6-16.439a3.3,3.3,0,0,0-.833-.754,2.8,2.8,0,0,1,1.81-1.328,2.554,2.554,0,0,0,.833-.395,3.127,3.127,0,0,0,.977.18,2.784,2.784,0,0,0,.977-.18,2.431,2.431,0,0,0,.869.395c.833.323,1.81.646,1.955,2.082Zm-7.892,1.58C7.892-16.3,8.833-16.619,9.7-16.942a4.851,4.851,0,0,0,.869-.395,2.739,2.739,0,0,0,.941.18,2.784,2.784,0,0,0,.977-.18,3.269,3.269,0,0,0,.869.395c.833.323,1.81.646,1.955,2.082ZM.869-16.439c.145-1.436,1.086-1.759,1.955-2.082a3.2,3.2,0,0,0,.869-.395,2.739,2.739,0,0,0,.941.18,2.784,2.784,0,0,0,.977-.18,2.765,2.765,0,0,0,.869.395,2.73,2.73,0,0,1,1.774,1.328,3.155,3.155,0,0,0-.8.754Zm3.765-6.355A1.647,1.647,0,0,1,6.3-21.178a1.677,1.677,0,0,1-1.665,1.651A1.646,1.646,0,0,1,3-21.178,1.616,1.616,0,0,1,4.634-22.794Zm6.878,1.58A1.647,1.647,0,0,1,13.177-19.6a1.677,1.677,0,0,1-1.665,1.651A1.646,1.646,0,0,1,9.883-19.6,1.616,1.616,0,0,1,11.512-21.214Zm6.878-1.58a1.647,1.647,0,0,1,1.665,1.616,1.677,1.677,0,0,1-1.665,1.651,1.646,1.646,0,0,1-1.629-1.651A1.616,1.616,0,0,1,18.39-22.794Zm2.1,3.518c-.109-.036-.253-.108-.362-.144a2.517,2.517,0,0,0,.724-1.759,2.454,2.454,0,0,0-2.462-2.441,2.478,2.478,0,0,0-2.462,2.441,2.4,2.4,0,0,0,.76,1.759c-.145.036-.253.108-.4.144a3.4,3.4,0,0,0-2.244,1.723c-.145-.036-.29-.108-.434-.144-.109-.036-.253-.108-.362-.144a2.584,2.584,0,0,0,.724-1.759,2.454,2.454,0,0,0-2.462-2.441A2.478,2.478,0,0,0,9.05-19.6a2.463,2.463,0,0,0,.76,1.759c-.145.036-.253.108-.4.144-.109.036-.29.108-.434.144a3.4,3.4,0,0,0-2.244-1.723c-.109-.036-.253-.108-.362-.144A2.371,2.371,0,0,0,7.1-21.178a2.454,2.454,0,0,0-2.462-2.441,2.478,2.478,0,0,0-2.462,2.441,2.4,2.4,0,0,0,.76,1.759c-.145.036-.253.108-.4.144A3.136,3.136,0,0,0,0-16.044a.409.409,0,0,0,.434.395H7.059a3.884,3.884,0,0,0-.181,1.185.409.409,0,0,0,.434.395h8.435a.4.4,0,0,0,.4-.395A5.586,5.586,0,0,0,16-15.649h6.625a.4.4,0,0,0,.4-.395A3.136,3.136,0,0,0,20.489-19.275ZM5.1-31.589a2.585,2.585,0,0,1,2.606-2.585h7.53a2.5,2.5,0,0,1,2.606,2.19v3.052a2.585,2.585,0,0,1-2.606,2.585H14.154a.375.375,0,0,0-.29.144l-1.919,1.939v-1.651a.438.438,0,0,0-.434-.431h-3.8A2.585,2.585,0,0,1,5.1-28.933Zm2.606,6.067h3.4V-23.3a.432.432,0,0,0,.253.359.219.219,0,0,0,.145.036.413.413,0,0,0,.29-.108l2.534-2.513h.905a3.447,3.447,0,0,0,3.439-3.411v-3.052A3.308,3.308,0,0,0,15.24-35H7.711a3.423,3.423,0,0,0-3.439,3.411v2.657A3.423,3.423,0,0,0,7.711-25.522Zm7.2-5.206a.524.524,0,0,1,.543.5.524.524,0,0,1-.543.5.516.516,0,0,1-.507-.5A.516.516,0,0,1,14.915-30.728Zm0,1.831a1.331,1.331,0,0,0,1.339-1.328,1.331,1.331,0,0,0-1.339-1.328,1.323,1.323,0,0,0-1.3,1.328A1.323,1.323,0,0,0,14.915-28.9Zm-3.33-1.831a.493.493,0,0,1,.507.5.493.493,0,0,1-.507.5.493.493,0,0,1-.507-.5A.493.493,0,0,1,11.584-30.728Zm0,1.831a1.354,1.354,0,0,0,1.339-1.328,1.355,1.355,0,0,0-1.339-1.328,1.355,1.355,0,0,0-1.339,1.328A1.354,1.354,0,0,0,11.584-28.9Zm-3.33-1.831a.493.493,0,0,1,.507.5.493.493,0,0,1-.507.5.493.493,0,0,1-.507-.5A.493.493,0,0,1,8.254-30.728Zm0,1.831a1.354,1.354,0,0,0,1.339-1.328,1.355,1.355,0,0,0-1.339-1.328,1.354,1.354,0,0,0-1.339,1.328A1.354,1.354,0,0,0,8.254-28.9Z" fill="#969696" fill-rule="evenodd"/>
  </g>
</svg>
