<svg width="21" height="15" viewBox="0 0 21 15" fill="none" xmlns="http://www.w3.org/2000/svg">
<g id="Group 184668">
<g id="Group 184549">
<path id="Path 247672" d="M2.64483 5.12604e-07H18.3552C18.9227 -0.000391736 19.4673 0.224344 19.8694 0.624913C20.2715 1.02548 20.4982 1.56918 20.5 2.13674V11.887C20.4982 12.4546 20.2715 12.9983 19.8694 13.3988C19.4673 13.7994 18.9227 14.0241 18.3552 14.0238H2.64483C2.07726 14.0241 1.53272 13.7994 1.13063 13.3988C0.728545 12.9983 0.501753 12.4546 0.5 11.887V2.13674C0.501753 1.56918 0.728545 1.02548 1.13063 0.624913C1.53272 0.224344 2.07726 -0.000391736 2.64483 5.12604e-07ZM18.3552 13.3132C18.7345 13.3136 19.0984 13.1635 19.3672 12.8959C19.636 12.6282 19.7876 12.2649 19.7887 11.8856V2.13674C19.7876 1.75743 19.636 1.39408 19.3672 1.12643C19.0984 0.85877 18.7345 0.708667 18.3552 0.709059H2.64483C2.26565 0.708862 1.90187 0.859051 1.63327 1.12669C1.36467 1.39432 1.21317 1.75756 1.212 2.13674V11.887C1.21356 12.2659 1.36523 12.6288 1.63379 12.8961C1.90235 13.1634 2.2659 13.3134 2.64483 13.3132H18.3552Z" fill="black"/>
<path id="Path 250253" d="M15.298 0.652922C15.298 0.652922 15.579 1.8923 13.8585 1.8923H6.77679C5.05637 1.8923 5.33735 0.652922 5.33735 0.652922V0.171875H15.298V0.652922Z" fill="black"/>
</g>
<path id="Path 250375" fill-rule="evenodd" clip-rule="evenodd" d="M13.7896 7.35828C13.7896 7.52058 13.7053 7.60149 13.5366 7.601H10.7578V10.4078C10.7623 10.4425 10.7588 10.4779 10.7474 10.511C10.736 10.5441 10.7171 10.5742 10.6922 10.5988C10.6672 10.6234 10.6369 10.6418 10.6036 10.6527C10.5703 10.6636 10.535 10.6667 10.5003 10.6616C10.4664 10.6632 10.4325 10.6578 10.4007 10.6457C10.369 10.6336 10.3401 10.615 10.3159 10.5912C10.2918 10.5673 10.2728 10.5387 10.2602 10.5071C10.2476 10.4756 10.2417 10.4418 10.2429 10.4078V7.601H7.46402C7.43113 7.60304 7.39818 7.59824 7.36724 7.5869C7.3363 7.57556 7.30805 7.55793 7.28428 7.53512C7.2605 7.51231 7.24172 7.48482 7.2291 7.45438C7.21649 7.42394 7.21031 7.39122 7.21099 7.35828C7.21677 7.29409 7.24557 7.23417 7.29208 7.18956C7.33858 7.14495 7.39965 7.11866 7.46402 7.11555H10.2429V4.30874C10.2479 4.24248 10.2767 4.18028 10.3241 4.13364C10.3714 4.08699 10.434 4.05905 10.5003 4.05498C10.5342 4.05333 10.5682 4.05874 10.5999 4.07086C10.6316 4.08298 10.6605 4.10155 10.6847 4.1254C10.7089 4.14924 10.7279 4.17785 10.7404 4.20941C10.753 4.24096 10.7589 4.27479 10.7578 4.30874V7.11481H13.5366C13.5695 7.11266 13.6025 7.11738 13.6335 7.12868C13.6645 7.13998 13.6928 7.1576 13.7166 7.18044C13.7404 7.20327 13.7592 7.23081 13.7718 7.2613C13.7843 7.29179 13.7904 7.3253 13.7896 7.35828Z" fill="black" stroke="black" stroke-width="0.5"/>
</g>
</svg>
