<svg id="noun-forecast-4328075" xmlns="http://www.w3.org/2000/svg" width="21.523" height="18.877" viewBox="0 0 21.523 18.877">
  <path id="Path_259263" data-name="Path 259263" d="M317.43,385h-2.083a.347.347,0,0,0-.347.347v5.9a.347.347,0,0,0,.347.347h2.083a.347.347,0,0,0,.347-.347v-5.9a.347.347,0,0,0-.347-.347Zm-.347,5.9h-1.389v-5.207h1.389Z" transform="translate(-305.627 -372.719)"/>
  <path id="Path_259264" data-name="Path 259264" d="M199.3,350h-2.083a.347.347,0,0,0-.347.347v7.29a.347.347,0,0,0,.347.347H199.3a.347.347,0,0,0,.347-.347v-7.29A.347.347,0,0,0,199.3,350Zm-.347,7.29h-1.389v-6.6h1.389Z" transform="translate(-192.184 -339.108)"/>
  <path id="Path_259265" data-name="Path 259265" d="M81.18,446.25H79.1a.347.347,0,0,0-.347.347v3.471a.347.347,0,0,0,.347.347H81.18a.347.347,0,0,0,.347-.347V446.6a.347.347,0,0,0-.347-.347Zm-.347,3.471H79.444v-2.777h1.389Z" transform="translate(-78.75 -431.539)"/>
  <path id="Path_259266" data-name="Path 259266" d="M125.8,78.76a.359.359,0,0,0,.081-.01.347.347,0,0,0,.253-.243l.747-2.61a.347.347,0,0,0-.408-.435l-2.656.569a.347.347,0,0,0-.181.577l.734.783-7.122,6.8-4.466-2.316a.347.347,0,0,0-.4.058l-4.686,4.513.481.5,4.507-4.34,4.465,2.315a.347.347,0,0,0,.4-.057l7.3-6.964.7.752h0a.349.349,0,0,0,.254.11Zm-1.236-2.179,1.493-.319-.419,1.465Z" transform="translate(-106.545 -75.454)"/>
  <path id="Path_259267" data-name="Path 259267" d="M553.68,210H551.6a.347.347,0,0,0-.347.347v1.041h.694v-.694h1.389v.694h.694v-1.041a.347.347,0,0,0-.347-.347Z" transform="translate(-532.504 -204.662)"/>
  <path id="Path_259268" data-name="Path 259268" d="M551.25,393.75h.694v1.389h-.694Z" transform="translate(-532.504 -381.122)"/>
  <path id="Path_259269" data-name="Path 259269" d="M551.25,455h.694v1.389h-.694Z" transform="translate(-532.504 -439.942)"/>
  <path id="Path_259270" data-name="Path 259270" d="M551.25,332.5h.694v1.389h-.694Z" transform="translate(-532.504 -322.302)"/>
  <path id="Path_259271" data-name="Path 259271" d="M603.75,332.5h.694v1.389h-.694Z" transform="translate(-582.921 -322.302)"/>
  <path id="Path_259272" data-name="Path 259272" d="M551.25,271.25h.694v1.389h-.694Z" transform="translate(-532.504 -263.482)"/>
  <path id="Path_259273" data-name="Path 259273" d="M603.75,271.25h.694v1.389h-.694Z" transform="translate(-582.921 -263.482)"/>
  <path id="Path_259274" data-name="Path 259274" d="M603.75,393.75h.694v1.389h-.694Z" transform="translate(-582.921 -381.122)"/>
  <path id="Path_259275" data-name="Path 259275" d="M603.75,455h.694v1.389h-.694Z" transform="translate(-582.921 -439.942)"/>
  <path id="Path_259276" data-name="Path 259276" d="M428.75,393.75h.694v1.389h-.694Z" transform="translate(-414.864 -381.122)"/>
  <path id="Path_259277" data-name="Path 259277" d="M481.25,393.75h.694v1.389h-.694Z" transform="translate(-465.281 -381.122)"/>
  <path id="Path_259278" data-name="Path 259278" d="M428.75,455h.694v1.389h-.694Z" transform="translate(-414.864 -439.942)"/>
  <path id="Path_259279" data-name="Path 259279" d="M481.25,455h.694v1.389h-.694Z" transform="translate(-465.281 -439.942)"/>
  <path id="Path_259280" data-name="Path 259280" d="M553.333,516.944h-1.389v-.694h-.694v1.041a.347.347,0,0,0,.347.347h2.083a.347.347,0,0,0,.347-.347V516.25h-.694Z" transform="translate(-532.504 -498.762)"/>
  <path id="Path_259281" data-name="Path 259281" d="M430.833,516.944h-1.389v-.694h-.694v1.041a.347.347,0,0,0,.347.347h2.083a.347.347,0,0,0,.347-.347V516.25h-.694Z" transform="translate(-414.864 -498.762)"/>
  <path id="Path_259282" data-name="Path 259282" d="M431.18,332.5H429.1a.347.347,0,0,0-.347.347v1.041h.694v-.694h1.389v.694h.694v-1.041a.347.347,0,0,0-.347-.347Z" transform="translate(-414.864 -322.302)"/>
</svg>
