<svg width="33" height="32" viewBox="0 0 33 32" fill="none" xmlns="http://www.w3.org/2000/svg">
<g id="Group 2106258391">
<circle id="Ellipse 34837" cx="16.5" cy="16" r="16" fill="#F5E5FF"/>
<path id="Path 408746" d="M12.681 24C12.6335 24 12.5864 23.9907 12.5425 23.9725C12.4986 23.9543 12.4586 23.9276 12.425 23.894L8.60602 20.0753C8.57228 20.0417 8.54548 20.0018 8.52729 19.9579C8.50909 19.9139 8.49983 19.8668 8.5 19.8192V12.1807C8.49978 12.1331 8.50903 12.086 8.52723 12.0421C8.54543 11.9981 8.57223 11.9582 8.60602 11.9247L12.425 8.10595C12.4926 8.03831 12.5843 8.00025 12.68 8H20.319C20.415 8.0001 20.507 8.03816 20.575 8.10595L24.394 11.9247C24.4276 11.9581 24.4544 11.9979 24.4726 12.0416C24.4908 12.0854 24.5001 12.1323 24.5 12.1797V19.8182C24.5002 19.8658 24.491 19.913 24.4728 19.9569C24.4546 20.0009 24.4278 20.0407 24.394 20.0742L20.575 23.893C20.507 23.9608 20.415 23.9989 20.319 23.999L12.681 24ZM16.9 22.4771C16.5895 22.7868 16.2407 23.0556 15.862 23.277H20.171L23.779 19.6693V19.2763C23.7839 18.2833 23.4538 17.3176 22.842 16.5354L16.9 22.4771ZM9.22303 19.6702L12.831 23.2781H13.224C14.217 23.2829 15.1827 22.9528 15.965 22.3411L10.023 16.4005C9.71333 16.0899 9.44451 15.7411 9.22303 15.3625V19.6702ZM10.646 16.0005L16.5 21.8551L22.355 16.0005L16.5 10.1459L10.646 16.0005ZM17.037 9.65987L22.979 15.6005C23.2888 15.9109 23.5577 16.2598 23.779 16.6384V12.3307L20.171 8.72292H19.778C18.7846 8.7178 17.8195 9.04792 17.037 9.65987ZM9.224 12.3307V12.7227C9.21926 13.7156 9.54938 14.6813 10.161 15.4635L16.102 9.52286C16.4125 9.21309 16.7614 8.94427 17.14 8.72292H12.83L9.224 12.3307Z" fill="#460073"/>
</g>
</svg>
