<svg xmlns="http://www.w3.org/2000/svg" viewBox="0 0 20 20">
  <path id="Path_238626" data-name="Path 238626" d="M-243.2,19.568a10.011,10.011,0,0,0-10,10,10.011,10.011,0,0,0,10,10,10.011,10.011,0,0,0,10-10A10.012,10.012,0,0,0-243.2,19.568Zm0,19.149a9.16,9.16,0,0,1-9.149-9.149,9.12,9.12,0,0,1,.378-2.6,1.567,1.567,0,0,0,.194.265,2.952,2.952,0,0,0,1.223.762,2.154,2.154,0,0,1,1.788,2.538,1.671,1.671,0,0,0,.963,1.855,2.333,2.333,0,0,1,1.169,2.584c-.067.414-.09.835-.152,1.429.041.088.094.423.269.508a.947.947,0,0,0,.736-.1,4.228,4.228,0,0,0,1.651-4.266,2.256,2.256,0,0,1,.084-1.781c.184-.377.389-.743.593-1.109.246-.44.426-.861-.033-1.292a1.091,1.091,0,0,0-1.458-.182,7.747,7.747,0,0,1-1.132.536,1.536,1.536,0,0,1-1.75-.963,1.227,1.227,0,0,1,.475-1.65,7.42,7.42,0,0,1,1.132-.543,1.773,1.773,0,0,0,1.179-2.2,18.4,18.4,0,0,0-1.04-2.467,9.1,9.1,0,0,1,2.879-.467,9.141,9.141,0,0,1,2.284.289,4.333,4.333,0,0,0-1.222,2.429.911.911,0,0,0,.392.691.839.839,0,0,0,.711-.1c.386-.239.686-.625,1.083-.836a8.864,8.864,0,0,1,1.663-.647,1.6,1.6,0,0,1,.522-.035,9.2,9.2,0,0,1,2.959,3.717,1.155,1.155,0,0,0-.451-.094,5.285,5.285,0,0,0-3.061.5,1.565,1.565,0,0,0-.82,1.584,1.225,1.225,0,0,0,1.178,1.075,2.217,2.217,0,0,1,1.524,3.455,5.632,5.632,0,0,0-.532,1.008,2.219,2.219,0,0,0,.39,2.417A9.121,9.121,0,0,1-243.2,38.717Z" transform="translate(253.203 -19.568)" fill="#404040"/>
</svg>
