<svg xmlns="http://www.w3.org/2000/svg" width="16" height="16" viewBox="0 0 16 16">
  <g id="Group_151389" data-name="Group 151389" transform="translate(-33 -142)">
    <path id="Clip_2" data-name="Clip 2" d="M0,0H16V16H0Z" transform="translate(33 142)" fill="none"/>
    <path id="Fill_1" data-name="Fill 1" d="M8,16a8,8,0,1,1,8-8A8.009,8.009,0,0,1,8,16ZM8,.7a7.274,7.274,0,1,0,5.174,2.13A7.313,7.313,0,0,0,8,.7ZM8,12.871a.764.764,0,0,1-.706-.7.715.715,0,0,1,.706-.7.682.682,0,0,1,.706.7A.715.715,0,0,1,8,12.871Zm0-2.112a.376.376,0,0,1-.347-.346V8.335A.371.371,0,0,1,8,7.988,1.735,1.735,0,0,0,9.736,6.258,1.7,1.7,0,0,0,8,4.526,1.736,1.736,0,0,0,6.263,6.258a.332.332,0,0,1-.347.346.375.375,0,0,1-.347-.346,2.432,2.432,0,0,1,4.864,0A2.359,2.359,0,0,1,8.347,8.623v1.789A.332.332,0,0,1,8,10.758Z" transform="translate(33 142)" fill="#5a5a5a"/>
    <path id="Clip_2-2" data-name="Clip 2" d="M0,0H16V16H0Z" transform="translate(33 142)" fill="none"/>
  </g>
</svg>
