<svg xmlns="http://www.w3.org/2000/svg" width="20" height="20" viewBox="0 0 20 20" fill="none">
  <path fill-rule="evenodd" clip-rule="evenodd" d="M17.0844 20H12.0944C11.9861 19.9922 11.8843 19.9437 11.8078 19.8636C11.7313 19.7834 11.6853 19.677 11.6783 19.5642V13.8992H8.35139V19.5642C8.34444 19.677 8.29844 19.7834 8.22192 19.8636C8.1454 19.9437 8.04358 19.9922 7.93534 20H2.9441C2.8359 19.9921 2.73415 19.9436 2.65765 19.8634C2.58116 19.7833 2.53511 19.677 2.52805 19.5642V8.82164C2.64707 8.69795 2.76696 8.57335 2.88924 8.44626C2.96722 8.36499 3.04094 8.28862 3.08764 8.24008C3.18848 8.13528 3.19991 8.1234 3.24641 8.07508C3.2929 8.02676 3.38094 7.93526 3.35963 7.95741V19.1283H7.51865V13.4633C7.52569 13.3506 7.57173 13.2444 7.64812 13.1642C7.72451 13.0841 7.82607 13.0355 7.93417 13.0275H12.0933C12.2014 13.0355 12.303 13.0841 12.3794 13.1642C12.4558 13.2444 12.5018 13.3506 12.5089 13.4633V19.1283H16.6674V7.93128C16.4396 7.69453 16.7005 7.96572 16.8701 8.14203C16.9826 8.25896 17.0485 8.32745 17.1269 8.40889C17.2053 8.49034 17.2666 8.55389 17.3447 8.63522C17.4227 8.71654 17.4425 8.73692 17.543 8.84251L17.4994 19.5642C17.4924 19.6768 17.4466 19.783 17.3704 19.8631C17.2941 19.9432 17.1924 19.9918 17.0844 20ZM19.8954 10.7086C19.9628 10.6288 20 10.5261 20 10.4198C20 10.3135 19.9628 10.2109 19.8954 10.131L10.3041 0.162319C10.2749 0.112717 10.2341 0.0717592 10.1854 0.0433344C10.1367 0.0149096 10.0818 0 10.0259 0C9.97013 0 9.91521 0.0149096 9.86651 0.0433344C9.8178 0.0717592 9.77697 0.112717 9.7478 0.162319L0.156455 10.131C0.108708 10.161 0.0691898 10.2034 0.0417732 10.254C0.0143565 10.3046 0 10.3617 0 10.4198C0 10.4779 0.0143565 10.5351 0.0417732 10.5857C0.0691898 10.6363 0.108708 10.6786 0.156455 10.7086C0.233675 10.7782 0.33229 10.8165 0.434337 10.8165C0.536384 10.8165 0.635129 10.7782 0.712349 10.7086L10.0262 1.02908L19.3397 10.7086C19.3727 10.7528 19.4148 10.7887 19.4629 10.8137C19.511 10.8387 19.5638 10.8522 19.6176 10.8532C19.7219 10.8353 19.8191 10.7849 19.8954 10.7086Z" fill="#A100FF"/>
</svg>