<svg xmlns="http://www.w3.org/2000/svg" width="16.114" height="16.321" viewBox="0 0 16.114 16.321">
  <path id="Path_249556" data-name="Path 249556" d="M8.057-23.727a7.466,7.466,0,0,1-5.822-2.811,5.167,5.167,0,0,1,2.751-1.791,4.321,4.321,0,0,0,1.474-.746,3.365,3.365,0,0,0,1.6.373,3.435,3.435,0,0,0,1.6-.373,4.182,4.182,0,0,0,1.449.746,4.994,4.994,0,0,1,2.751,1.791A7.417,7.417,0,0,1,8.057-23.727ZM5.036-32.31a3.039,3.039,0,0,1,3.021-3.06,3.039,3.039,0,0,1,3.021,3.06,3.039,3.039,0,0,1-3.021,3.06A3.039,3.039,0,0,1,5.036-32.31Zm3.021-6.618a7.555,7.555,0,0,1,7.492,7.588,7.635,7.635,0,0,1-1.326,4.329A5.885,5.885,0,0,0,11.3-28.852a5.807,5.807,0,0,1-1.155-.522,3.632,3.632,0,0,0,1.474-2.936,3.587,3.587,0,0,0-3.562-3.607A3.608,3.608,0,0,0,4.471-32.31a3.654,3.654,0,0,0,1.5,2.936,6.548,6.548,0,0,1-1.155.522,5.783,5.783,0,0,0-2.923,1.841A7.653,7.653,0,0,1,.54-31.34,7.56,7.56,0,0,1,8.057-38.928Zm0-.572A8.114,8.114,0,0,0,0-31.34a8.114,8.114,0,0,0,8.057,8.16,8.114,8.114,0,0,0,8.057-8.16A8.114,8.114,0,0,0,8.057-39.5Z" transform="translate(0 39.5)" fill="#505050" fill-rule="evenodd"/>
</svg>
