<?xml version="1.0" encoding="UTF-8"?><svg id="Layer_1" xmlns="http://www.w3.org/2000/svg" viewBox="0 0 10.92 10.97"><defs><style>.cls-1{fill-rule:evenodd;}</style></defs><g id="Group_165476"><path id="Path_261780" class="cls-1" d="m9.65,10.97H1.42c-.12,0-.22-.09-.23-.21,0,0,0-.01,0-.02-.02-.11.06-.21.17-.23.02,0,.04,0,.06,0h8.23c.12,0,.22.09.23.21,0,0,0,.01,0,.02,0,.12-.11.22-.23.23Z"/><path id="Path_261781" class="cls-1" d="m7.06,10.97h-3.2c-.12,0-.22-.09-.23-.21,0,0,0-.01,0-.02v-4.57c-.02-.11.06-.21.17-.23.02,0,.04,0,.06,0h3.2c.12,0,.22.09.23.21,0,0,0,.01,0,.02v4.57c0,.12-.11.22-.23.23Zm-2.97-.46h2.74v-4.11h-2.74v4.11Z"/><path id="Path_261782" class="cls-1" d="m6.61,6.4h-2.26c-.08,0-.15-.04-.19-.11-.07-.06-.08-.15-.04-.23l1.13-2.29c.04-.08.13-.13.23-.11.08,0,.15.04.19.11l1.13,2.29c.04.07.04.16,0,.23-.04.07-.11.12-.19.11Zm-1.92-.46h1.54l-.75-1.56-.79,1.56Z"/><path id="Path_261783" class="cls-1" d="m6.46,2.9c-.07,0-.11-.04-.15-.04l-.75-.59-.79.59c-.08.04-.18.04-.26,0-.08-.06-.1-.17-.07-.26l.3-.85-.68-.44c-.08-.06-.1-.17-.07-.26.03-.1.12-.16.23-.15h.75l.38-.78c.05-.08.14-.12.23-.11.08,0,.15.04.19.11l.38.78h.79c.09,0,.17.06.19.15.04.08,0,.18-.08.22l-.6.48.23.85c.03.09,0,.2-.07.26-.04,0-.08.04-.11.04Zm-.9-1.11s.08,0,.11.04l.38.26-.11-.37c0-.09.04-.17.11-.22l.19-.15h-.23c-.1,0-.19-.06-.23-.15l-.23-.48-.26.48c-.03.08-.1.13-.19.15h-.19l.23.15c.08.06.12.17.07.26l-.11.3.3-.22s.08-.04.15-.04h0Z"/><path id="Path_261784" class="cls-1" d="m9.81,4.73c-.08,0-.11-.04-.15-.04l-.75-.59-.79.59c-.08.04-.18.04-.26,0-.08-.06-.1-.17-.08-.26l.3-.85-.68-.44c-.08-.06-.1-.17-.08-.26.03-.1.12-.16.23-.15h.75l.38-.78c.05-.08.14-.12.23-.11.08,0,.15.04.19.11l.38.78h.79c.09,0,.17.06.19.15.04.08,0,.18-.08.22l-.6.48.23.85c.03.09,0,.2-.08.26-.04,0-.08.04-.11.04Zm-.9-1.11s.08,0,.11.04l.38.26-.11-.37c0-.09.04-.17.11-.22l.19-.15h-.23c-.1,0-.19-.06-.23-.15l-.23-.48-.26.48c-.03.08-.1.13-.19.15h-.19l.23.15c.08.06.12.17.08.26l-.11.3.3-.22s.08-.04.15-.04h0Z"/><path id="Path_261785" class="cls-1" d="m10.27,8.38c-.08,0-.11-.04-.15-.04l-.75-.59-.79.59c-.08.04-.18.04-.26,0-.08-.06-.1-.17-.08-.26l.3-.85-.68-.44c-.08-.06-.1-.17-.08-.26.03-.1.12-.16.23-.15h.75l.38-.78c.05-.08.14-.12.23-.11.08,0,.15.04.19.11l.38.78h.79c.09,0,.17.06.19.15.04.08,0,.18-.08.22l-.6.48.23.85c.03.09,0,.2-.08.26-.04,0-.08.04-.11.04Zm-.9-1.11s.08,0,.11.04l.38.26-.11-.37c0-.09.04-.17.11-.22l.19-.15h-.23c-.1,0-.19-.06-.23-.15l-.23-.48-.26.48c-.03.08-.1.13-.19.15h-.19l.23.15c.08.06.12.17.08.26l-.11.3.3-.22s.08-.04.15-.04h0Z"/><path id="Path_261786" class="cls-1" d="m2.5,8.38c-.08,0-.11-.04-.15-.04l-.75-.59-.79.59c-.08.04-.18.04-.26,0-.08-.06-.1-.17-.07-.26l.3-.85-.68-.45c-.08-.06-.1-.17-.08-.26.03-.1.12-.16.23-.15h.75l.38-.78c.05-.08.14-.12.23-.11.08,0,.15.04.19.11l.38.78h.79c.09,0,.17.06.19.15.04.08,0,.18-.08.22l-.6.48.23.85c.03.09,0,.2-.08.26-.04,0-.08.04-.12.04Zm-.9-1.11s.08,0,.11.04l.38.26-.11-.37c0-.09.04-.17.11-.22l.19-.15h-.23c-.1,0-.19-.06-.23-.15l-.23-.48-.26.48c-.03.08-.1.13-.19.15h-.19l.23.15c.08.06.12.17.08.26l-.11.3.3-.22s.08-.04.15-.04h0Z"/><path id="Path_261787" class="cls-1" d="m2.95,4.73c-.08,0-.11-.04-.15-.04l-.75-.59-.79.59c-.08.04-.18.04-.26,0-.08-.06-.1-.17-.08-.26l.3-.85-.68-.45c-.08-.06-.1-.17-.08-.26.03-.1.12-.16.23-.15h.75l.38-.78c.05-.08.14-.12.23-.11.08,0,.15.04.19.11l.38.78h.79c.09,0,.17.06.19.15.04.08,0,.18-.07.22l-.6.48.23.85c.03.09,0,.2-.07.26-.04,0-.08.04-.12.04Zm-.9-1.11s.08,0,.11.04l.38.26-.11-.37c0-.09.04-.17.11-.22l.19-.15h-.23c-.1,0-.19-.06-.23-.15l-.23-.48-.26.48c-.03.08-.1.13-.19.15h-.19l.23.15c.08.06.12.17.08.26l-.11.3.3-.22s.08-.04.15-.04h0Z"/><path id="Path_261788" class="cls-1" d="m6.15,10.97c-.12,0-.22-.09-.23-.21,0,0,0-.01,0-.02v-1.14h-.91v1.14c0,.12-.11.22-.23.23-.12,0-.22-.09-.23-.21,0,0,0-.01,0-.02v-1.37c-.02-.11.06-.21.17-.23.02,0,.04,0,.06,0h1.37c.12,0,.22.09.23.21,0,0,0,.01,0,.02v1.37c0,.12-.11.22-.23.23Z"/><path id="Path_261789" class="cls-1" d="m4.77,7.46c-.11.01-.22-.07-.23-.19,0,0,0,0,0-.01v-.2c0-.13.08-.2.23-.2.11-.01.22.07.23.19,0,0,0,0,0,.01v.2c-.02.11-.11.2-.23.2Z"/><path id="Path_261790" class="cls-1" d="m6.15,7.46c-.11.01-.22-.07-.23-.19,0,0,0,0,0-.01v-.2c0-.13.08-.2.23-.2.11-.01.22.07.23.19,0,0,0,0,0,.01v.2c-.02.11-.11.2-.23.2Z"/><path id="Path_261791" class="cls-1" d="m4.77,8.68c-.13,0-.23-.11-.23-.24,0,0,0-.01,0-.02v-.25c0-.17.08-.25.23-.25.13,0,.23.11.23.23,0,0,0,.01,0,.02v.25c0,.13-.1.24-.23.25Z"/><path id="Path_261792" class="cls-1" d="m6.15,8.68c-.13,0-.23-.11-.23-.24,0,0,0-.01,0-.02v-.25c0-.17.08-.25.23-.25.13,0,.23.11.23.23,0,0,0,.01,0,.02v.25c0,.13-.1.24-.23.25Z"/></g></svg>