<svg xmlns="http://www.w3.org/2000/svg" width="16" height="16" viewBox="0 0 16 16">
  <g transform="translate(-2540 12556)">
    <path d="M8,16a7.993,7.993,0,1,1,8-8A8.009,8.009,0,0,1,8,16ZM8,.7A7.3,7.3,0,1,0,15.3,8,7.313,7.313,0,0,0,8,.7Zm2.093,12.527H5.916a.352.352,0,0,1,0-.7H7.66V6.955H6.62a.348.348,0,0,1,0-.7h1.4a.332.332,0,0,1,.237.1.339.339,0,0,1,.1.25v5.911H10.1a.335.335,0,0,1,.335.353.341.341,0,0,1-.1.252A.336.336,0,0,1,10.093,13.223ZM7.666,4.538a.686.686,0,1,1,0-1.373h.012a.686.686,0,0,1-.013,1.372Z" transform="translate(2540 -12556)"/>
  </g>
</svg>
