<svg width="14" height="13" viewBox="0 0 14 13" fill="none" xmlns="http://www.w3.org/2000/svg">
<path d="M13.2144 11.8232L9.48322 8.22886C10.3285 7.21141 10.733 5.92339 10.6136 4.62987C10.4942 3.33634 9.85995 2.1357 8.84132 1.27501C7.82268 0.414319 6.49717 -0.0409459 5.13756 0.00289635C3.77795 0.0467386 2.48765 0.586353 1.53219 1.5107C0.576726 2.43505 0.0287791 3.67381 0.00110173 4.97208C-0.0265756 6.27035 0.468122 7.52937 1.3834 8.49005C2.29868 9.45074 3.5649 10.04 4.92152 10.1366C6.27814 10.2332 7.62195 9.8298 8.67643 9.00938L12.3833 12.5805C12.4881 12.6854 12.6322 12.7464 12.784 12.7501C12.9358 12.7539 13.083 12.7001 13.1934 12.6005C13.3038 12.4999 13.3679 12.3616 13.3718 12.216C13.3757 12.0704 13.3192 11.9292 13.2144 11.8232ZM5.30503 9.0518C4.33377 9.05154 3.39265 8.72983 2.64202 8.1415C1.89139 7.55316 1.37768 6.7346 1.18841 5.82527C0.999152 4.91594 1.14605 3.9721 1.60407 3.15456C2.06209 2.33701 2.80291 1.69635 3.7003 1.34171C4.5977 0.987078 5.59615 0.940412 6.52555 1.20967C7.45494 1.47892 8.25779 2.04744 8.79729 2.81836C9.3368 3.58928 9.57959 4.5149 9.4843 5.43753C9.38902 6.36016 8.96154 7.22271 8.27471 7.87823C7.88568 8.25145 7.42299 8.54734 6.9134 8.74878C6.40381 8.95022 5.85659 9.05321 5.30503 9.0518Z" fill="#5922F6"/>
</svg>
