<svg xmlns="http://www.w3.org/2000/svg" width="24" height="25" viewBox="0 0 24 25" fill="none">
  <path d="M8.67683 17.6552C8.73492 17.6558 8.79238 17.6445 8.84566 17.6218C8.89893 17.5992 8.94688 17.5659 8.98652 17.5238L16.3952 9.54612L16.2817 13.7847C16.2959 13.8776 16.3435 13.9625 16.4154 14.0235C16.4451 14.0626 16.4827 14.0949 16.5259 14.1183C16.569 14.1416 16.6166 14.1554 16.6653 14.1587C16.7768 14.169 16.8874 14.1349 16.9729 14.0637C17.0584 13.9925 17.112 13.8901 17.1218 13.7788C17.1242 13.7595 17.1245 13.7401 17.1229 13.7207L17.2616 8.58975C17.2817 8.51837 17.2813 8.44261 17.2607 8.37099C17.24 8.29937 17.1999 8.23473 17.1447 8.18434C17.0888 8.13866 17.0228 8.10727 16.9523 8.09292C16.8818 8.07857 16.809 8.0817 16.7404 8.10203L11.6142 8.23679C11.5146 8.2547 11.423 8.30247 11.3516 8.37378C11.2696 8.4576 11.2162 8.56523 11.1988 8.6816C11.2017 8.78553 11.2446 8.88476 11.3184 8.95864C11.3923 9.03252 11.4915 9.07536 11.5955 9.07823L15.7933 8.9671L8.38941 16.9399C8.3174 17.0204 8.27738 17.1245 8.27679 17.233C8.2762 17.3415 8.31509 17.4469 8.38622 17.5296C8.42402 17.5686 8.46907 17.5999 8.51879 17.6216C8.5685 17.6433 8.6219 17.655 8.67595 17.6561" fill="black"/>
</svg>