<svg xmlns="http://www.w3.org/2000/svg" width="7.954" height="16" viewBox="0 0 7.954 16">
  <path id="Path_421254" data-name="Path 421254" d="M1.531-19h-.11a.326.326,0,0,1-.166-.389l1.876-6.944H.869a.417.417,0,0,1-.221-.111c-.055-.111-.11-.167-.055-.278l1.986-8A.3.3,0,0,1,2.856-35h5.3a.333.333,0,0,1,.331.167.352.352,0,0,1,0,.333L5.449-29.667h2.7a.333.333,0,0,1,.331.167.344.344,0,0,1-.055.389l-6.621,10A.42.42,0,0,1,1.531-19Zm-.221-8H3.518a.3.3,0,0,1,.276.167.245.245,0,0,1,.055.278L2.414-21.222,7.545-29h-2.7a.3.3,0,0,1-.276-.167.356.356,0,0,1,0-.333L7.6-34.333H3.131Z" transform="translate(-0.571 35)" fill="#737373" fill-rule="evenodd"/>
</svg>
