<svg xmlns="http://www.w3.org/2000/svg" width="16" height="21.225" viewBox="0 0 16 21.225">
  <path id="Shape" d="M12.924,21.225H.445A.48.48,0,0,1,0,20.782V3.084a.43.43,0,0,1,.125-.318.422.422,0,0,1,.3-.125H2.651V.444A.427.427,0,0,1,3.078,0H10.25l.009,0h.01a.533.533,0,0,1,.153.022.332.332,0,0,1,.192.151l5.234,5.2a.478.478,0,0,1,.1.125.405.405,0,0,1,.024.048A.457.457,0,0,1,16,5.735V18.141a.43.43,0,0,1-.125.318.423.423,0,0,1-.3.125H13.35v2.2a.425.425,0,0,1-.426.443ZM.891,3.526V20.34H12.46V18.584H3.095a.48.48,0,0,1-.445-.444V3.526ZM12.9,17.685h0a.643.643,0,0,1,.1.015h2.1V6.181H10.243A.476.476,0,0,1,9.8,5.739V.888H3.54v2.06a.621.621,0,0,1,.02.139.471.471,0,0,1-.02.116V17.7h9.28a.583.583,0,0,1,.084-.015ZM10.685,1.5V5.3H14.5l-3.248-3.23Z"/>
</svg>
