<svg id="Link" xmlns="http://www.w3.org/2000/svg" width="16" height="16.003" viewBox="0 0 16 16.003">
  <path id="Shape" d="M2.108,15.258l-1.364-1.3a2.619,2.619,0,0,1,0-3.658L3.72,7.32a1.8,1.8,0,0,1,2.6,0l.062.063a.395.395,0,0,1,.062.558.464.464,0,0,1-.558,0l-.062-.063a1.086,1.086,0,0,0-1.551,0L1.3,10.795a1.873,1.873,0,0,0,0,2.666l1.3,1.3a2,2,0,0,0,1.3.5,1.884,1.884,0,0,0,1.3-.5l2.976-2.976a1.086,1.086,0,0,0,0-1.551l-.062-.062a.464.464,0,0,1,0-.558.377.377,0,0,1,.5,0l.123.062a1.994,1.994,0,0,1,0,2.666L5.765,15.258A2.625,2.625,0,0,1,3.906,16H3.839A2.385,2.385,0,0,1,2.108,15.258ZM5.166,11.31c-.123,0-.247,0-.309-.123a.379.379,0,0,1,0-.5l5.793-5.77a.287.287,0,0,1,.492,0,.38.38,0,0,1,0,.5L5.412,11.186a.247.247,0,0,1-.215.125Zm5.813-2.052a1.814,1.814,0,0,1-1.3-.5L9.615,8.7a.469.469,0,0,1,0-.559.377.377,0,0,1,.5,0l.123.062a1.084,1.084,0,0,0,1.551,0l2.976-2.92a2,2,0,0,0,0-2.672L13.4,1.3a1.938,1.938,0,0,0-1.3-.559,2.066,2.066,0,0,0-1.3.559L7.816,4.287a1.09,1.09,0,0,0,0,1.553l.063.062a.4.4,0,0,1,.061.56.463.463,0,0,1-.557,0L7.32,6.4a1.88,1.88,0,0,1,0-2.672L10.3.807A2.439,2.439,0,0,1,12.094,0a2.682,2.682,0,0,1,1.861.807l1.3,1.305a2.629,2.629,0,0,1,0,3.665L12.28,8.76a1.638,1.638,0,0,1-1.179.5Q11.04,9.262,10.979,9.257Z" transform="translate(0)"/>
</svg>
