<svg xmlns="http://www.w3.org/2000/svg" width="18" height="16" viewBox="0 0 18 16" fill="none">
    <path fill-rule="evenodd" clip-rule="evenodd" d="M16.4385 1.1272e-05H1.5625C1.42286 -0.000627908 1.28453 0.0259227 1.15539 0.0781081C1.02624 0.130294 0.908846 0.207051 0.810065 0.304031C0.711284 0.401011 0.633033 0.516277 0.579815 0.64313C0.526597 0.769983 0.499475 0.905954 0.500008 1.04316V14.9564C0.499475 15.0936 0.526602 15.2296 0.579815 15.3564C0.633027 15.4833 0.71129 15.5986 0.810065 15.6957C0.90884 15.7927 1.02613 15.8694 1.15528 15.9217C1.28442 15.9739 1.42284 16.0006 1.5625 16H16.4375C16.5772 16.0006 16.7156 15.9739 16.8447 15.9217C16.9739 15.8694 17.0913 15.7927 17.19 15.6957C17.2888 15.5986 17.367 15.4833 17.4202 15.3564C17.4734 15.2296 17.5005 15.0936 17.5 14.9564V1.04316C17.5005 0.906028 17.4735 0.77014 17.4203 0.643345C17.3671 0.516549 17.2889 0.401322 17.1903 0.304353C17.0916 0.207384 16.9743 0.13056 16.8453 0.0783227C16.7162 0.0260851 16.578 -0.00051159 16.4385 1.1272e-05ZM16.7926 14.9564C16.7864 15.0466 16.747 15.1315 16.6818 15.1954C16.6167 15.2593 16.5303 15.2979 16.4385 15.304H1.5625C1.47067 15.2979 1.38416 15.2593 1.31904 15.1954C1.25392 15.1315 1.21462 15.0466 1.20834 14.9564V1.04316C1.21471 0.952973 1.25405 0.868145 1.31915 0.804258C1.38425 0.740372 1.47071 0.701737 1.5625 0.695588H16.4375C16.5293 0.701737 16.6158 0.740372 16.6809 0.804258C16.746 0.868145 16.7853 0.952973 16.7917 1.04316L16.7926 14.9564ZM14.998 3.48143H10.7378C10.6499 3.09322 10.4298 2.746 10.1141 2.49718C9.79832 2.24836 9.40568 2.11281 9.00093 2.11281C8.59617 2.11281 8.20354 2.24836 7.88778 2.49718C7.57202 2.746 7.35198 3.09322 7.26406 3.48143H3.00372C2.90884 3.48143 2.81785 3.51839 2.75076 3.58431C2.68367 3.65024 2.64606 3.73975 2.64606 3.83298C2.64606 3.92621 2.68367 4.01561 2.75076 4.08154C2.81785 4.14746 2.90884 4.18441 3.00372 4.18441H7.26897C7.35576 4.57233 7.57484 4.91947 7.88985 5.16835C8.20487 5.41722 8.59694 5.55293 9.00115 5.55293C9.40536 5.55293 9.79743 5.41722 10.1124 5.16835C10.4275 4.91947 10.6465 4.57233 10.7333 4.18441H14.998C15.0929 4.18441 15.1839 4.14746 15.251 4.08154C15.3181 4.01561 15.3558 3.92621 15.3558 3.83298C15.3558 3.73975 15.3181 3.65024 15.251 3.58431C15.1839 3.51839 15.0929 3.48143 14.998 3.48143ZM9.00093 4.86637C8.72446 4.86874 8.45819 4.76405 8.25974 4.5749C8.06129 4.38574 7.94661 4.12743 7.94062 3.85583C7.94062 3.84792 7.94597 3.84035 7.94597 3.83244C7.94451 3.82443 7.9426 3.81652 7.94018 3.80873C7.9482 3.53755 8.06344 3.28009 8.26149 3.09106C8.45953 2.90202 8.72482 2.79637 9.00093 2.79637C9.27703 2.79637 9.54221 2.90202 9.74026 3.09106C9.93831 3.28009 10.0537 3.53755 10.0617 3.80873C10.0592 3.81651 10.0572 3.82442 10.0558 3.83244C10.0573 3.84031 10.0593 3.84818 10.0617 3.85583C10.0556 4.12747 9.94075 4.38575 9.74223 4.5749C9.54371 4.76404 9.27744 4.86874 9.00093 4.86637ZM14.998 7.66712H7.91245C7.83389 7.27058 7.61748 6.91319 7.3002 6.65626C6.98291 6.39934 6.58455 6.25891 6.1734 6.25891C5.76226 6.25891 5.36389 6.39934 5.04661 6.65626C4.72932 6.91319 4.51291 7.27058 4.43435 7.66712H3.00328C2.95737 7.6648 2.91147 7.67173 2.86834 7.6874C2.82522 7.70307 2.78585 7.72719 2.75251 7.75831C2.71917 7.78942 2.69259 7.82686 2.67445 7.86837C2.65631 7.90989 2.64694 7.95461 2.64694 7.99979C2.64694 8.04497 2.65631 8.08968 2.67445 8.1312C2.69259 8.17271 2.71917 8.21015 2.75251 8.24126C2.78585 8.27238 2.82522 8.2965 2.86834 8.31217C2.91147 8.32784 2.95737 8.33477 3.00328 8.33245H4.43435C4.51241 8.72905 4.72853 9.08654 5.04562 9.34363C5.36271 9.60072 5.76099 9.7413 6.17209 9.7413C6.58319 9.7413 6.98147 9.60072 7.29856 9.34363C7.61565 9.08654 7.83178 8.72905 7.90983 8.33245H14.9958C15.0418 8.33477 15.0877 8.32784 15.1308 8.31217C15.1739 8.2965 15.2134 8.27238 15.2467 8.24126C15.2801 8.21015 15.3065 8.17271 15.3247 8.1312C15.3428 8.08968 15.3522 8.04497 15.3522 7.99979C15.3522 7.95461 15.3428 7.90989 15.3247 7.86837C15.3065 7.82686 15.2801 7.78942 15.2467 7.75831C15.2134 7.72719 15.1739 7.70307 15.1308 7.6874C15.0877 7.67173 15.0418 7.6648 14.9958 7.66712H14.998ZM6.17428 9.04422C5.89628 9.04519 5.6291 8.93849 5.43057 8.74728C5.23205 8.55607 5.11811 8.29576 5.11353 8.02264C5.1171 8.01584 5.11899 8.00829 5.11899 8.00064C5.11899 7.993 5.1171 7.98545 5.11353 7.97865C5.12154 7.70747 5.23689 7.45001 5.43494 7.26098C5.63299 7.07194 5.89817 6.96629 6.17428 6.96629C6.45038 6.96629 6.71567 7.07194 6.91372 7.26098C7.11177 7.45001 7.22701 7.70747 7.23502 7.97865C7.23152 7.98547 7.22967 7.99301 7.22967 8.00064C7.22967 8.00828 7.23152 8.01582 7.23502 8.02264C7.23044 8.29576 7.11651 8.55607 6.91798 8.74728C6.71945 8.93849 6.45227 9.04519 6.17428 9.04422ZM14.999 11.8125H9.30498C9.22189 11.4254 9.00595 11.0782 8.69327 10.829C8.38059 10.5798 7.99015 10.4437 7.58755 10.4437C7.18495 10.4437 6.79461 10.5798 6.48193 10.829C6.16925 11.0782 5.95331 11.4254 5.87022 11.8125H3.00197C2.90709 11.8125 2.81611 11.8495 2.74902 11.9155C2.68193 11.9814 2.64421 12.0708 2.64421 12.164C2.64421 12.2572 2.68193 12.3467 2.74902 12.4126C2.81611 12.4785 2.90709 12.5155 3.00197 12.5155H5.87514C5.95681 12.9024 6.17165 13.2499 6.48357 13.4994C6.79549 13.7488 7.18537 13.885 7.58755 13.885C7.98972 13.885 8.37971 13.7488 8.69164 13.4994C9.00356 13.2499 9.21839 12.9024 9.30007 12.5155H14.999C15.0939 12.5155 15.1849 12.4785 15.252 12.4126C15.3191 12.3467 15.3567 12.2572 15.3567 12.164C15.3567 12.0708 15.3191 11.9814 15.252 11.9155C15.1849 11.8495 15.0939 11.8125 14.999 11.8125ZM7.58787 13.1974C7.3799 13.1975 7.17653 13.137 7.00357 13.0235C6.83061 12.91 6.69584 12.7488 6.61622 12.56C6.53659 12.3712 6.51573 12.1634 6.55628 11.963C6.59683 11.7626 6.6969 11.5785 6.84396 11.434C6.99101 11.2895 7.17843 11.1911 7.38241 11.1512C7.58639 11.1114 7.79774 11.1319 7.98986 11.2101C8.18198 11.2884 8.34623 11.4208 8.46171 11.5907C8.5772 11.7607 8.63877 11.9605 8.63869 12.1649C8.63939 12.3007 8.61273 12.4354 8.56019 12.561C8.50764 12.6867 8.43026 12.8009 8.33256 12.897C8.23485 12.9932 8.11878 13.0693 7.99095 13.1211C7.86312 13.1729 7.72614 13.1993 7.58787 13.1988V13.1974Z" fill="black"/>
</svg>