<?xml version="1.0" encoding="UTF-8"?><svg id="Layer_1" xmlns="http://www.w3.org/2000/svg" viewBox="0 0 26.33 23"><defs><style>.cls-1{fill-rule:evenodd;}</style></defs><path id="Path_261801" class="cls-1" d="m19.68,6.43c2.8,2.77,3.49,7.04,1.7,10.55-.1.24-.38.35-.62.25-.02,0-.03-.02-.05-.02-.24-.12-.35-.41-.23-.65,0,0,0,0,0-.01,1.6-3.13.99-6.93-1.52-9.4-1.54-1.54-3.63-2.4-5.8-2.39-2.17,0-4.26.86-5.8,2.39-2.51,2.46-3.13,6.27-1.53,9.39.12.24.03.53-.21.66,0,0,0,0-.01,0-.09.04-.13.09-.22.09-.19-.01-.37-.13-.45-.31-1.79-3.51-1.11-7.78,1.69-10.55,1.73-1.72,4.08-2.67,6.52-2.66,2.44-.02,4.79.94,6.52,2.66Zm3.66,14.89c-.09.1-.22.16-.36.18-.13,0-.26-.05-.36-.13-.19-.19-.21-.5-.05-.71,3.98-4.77,3.61-11.8-.85-16.13-2.27-2.27-5.36-3.55-8.57-3.55-3.22,0-6.3,1.27-8.57,3.55C.13,8.85-.24,15.88,3.74,20.65c.17.22.14.53-.08.7,0,0,0,0,0,0-.2.16-.49.14-.67-.04C-1.31,16.14-.93,8.53,3.88,3.82,6.34,1.36,9.68,0,13.16,0c3.48-.01,6.82,1.36,9.29,3.81,4.81,4.71,5.19,12.33.89,17.5Zm-17.59.66c.22-3.06,2.23-3.81,3.88-4.39.61-.16,1.19-.43,1.7-.8.57.27,1.2.41,1.83.4.63,0,1.26-.13,1.83-.4.5.36,1.06.63,1.65.8,1.65.58,3.71,1.33,3.89,4.39H5.75Zm4.06-9.08c0-1.84,1.5-3.33,3.34-3.32,0,0,0,0,0,0,1.84,0,3.34,1.47,3.35,3.31,0,0,0,0,0,0-.02,1.84-1.51,3.31-3.35,3.32-1.84,0-3.33-1.48-3.35-3.32Zm7.19,3.77c-.37-.12-.72-.27-1.07-.44.98-.83,1.55-2.04,1.56-3.32,0-2.39-1.92-4.33-4.31-4.34,0,0-.01,0-.02,0-2.39,0-4.33,1.93-4.33,4.32,0,0,0,.01,0,.02-.01,1.29.56,2.51,1.56,3.32-.35.17-.71.32-1.07.44-1.83.66-4.55,1.64-4.55,5.85,0,.27.22.48.49.48h15.81c.27,0,.49-.22.49-.49,0-4.21-2.72-5.19-4.55-5.85h0Z"/></svg>