<svg xmlns="http://www.w3.org/2000/svg" width="16" height="16" viewBox="0 0 16 16" fill="none">
  <path d="M1.6155 15.9875C1.15828 15.9875 0.777187 15.8345 0.471339 15.5287C0.165491 15.2228 0.0125 14.8417 0.0125 14.3845V1.6155C0.0125 1.15828 0.165491 0.777187 0.471339 0.471339C0.777187 0.165491 1.15828 0.0125 1.6155 0.0125H14.3845C14.8417 0.0125 15.2228 0.165491 15.5287 0.471339C15.8345 0.777187 15.9875 1.15828 15.9875 1.6155V14.3845C15.9875 14.8417 15.8345 15.2228 15.5287 15.5287C15.2228 15.8345 14.8417 15.9875 14.3845 15.9875H1.6155ZM1.6155 15.0125H14.3845C14.5424 15.0125 14.6865 14.9467 14.8166 14.8166C14.9467 14.6865 15.0125 14.5424 15.0125 14.3845V1.6155C15.0125 1.4576 14.9467 1.31348 14.8166 1.18341C14.6865 1.05335 14.5424 0.9875 14.3845 0.9875H1.6155C1.4576 0.9875 1.31348 1.05335 1.18341 1.18341C1.05335 1.31348 0.9875 1.4576 0.9875 1.6155V14.3845C0.9875 14.5424 1.05335 14.6865 1.18341 14.8166C1.31348 14.9467 1.4576 15.0125 1.6155 15.0125Z" fill="black" stroke="#EFF1F6" stroke-width="0.025"/>
    <path d="M 10 10 L 1 10 L 1 11 L 10 11 Z" transform="translate(2.5, -2)" fill="black" />
</svg>