<svg xmlns="http://www.w3.org/2000/svg" width="38" height="29.455" viewBox="0 0 38 29.455">
  <g id="Group_156877" data-name="Group 156877" transform="translate(-0.5 30)">
    <path id="Path_251111" data-name="Path 251111" d="M31.78-7.175l1.487-1.073a.653.653,0,0,0,.238-.775A.579.579,0,0,0,32.91-9.5H28.45L27.082-13.73a.789.789,0,0,0-.654-.477.789.789,0,0,0-.654.477v.119A13.507,13.507,0,0,0,20.9-16.233a19.941,19.941,0,0,1-2.141-.954,7.325,7.325,0,0,0,2.795-5.721,6.966,6.966,0,0,0-1.189-3.933,5.664,5.664,0,0,1,4.222-1.847,5.819,5.819,0,0,1,5.768,5.781,5.821,5.821,0,0,1-5.293,5.781.66.66,0,0,0-.595.715.612.612,0,0,0,.654.6h.059a7.065,7.065,0,0,0,2.438-.656,7.563,7.563,0,0,0,2.854,1.49c2.854,1.013,6.423,2.324,6.66,7.807ZM26.844-4.612a.642.642,0,0,0-.416-.179.514.514,0,0,0-.357.179L23.692-2.943l.892-2.741a.653.653,0,0,0-.238-.775L22.027-8.128h2.854a.645.645,0,0,0,.654-.477l.892-2.741.892,2.741a.7.7,0,0,0,.654.477h2.854L28.509-6.46a.745.745,0,0,0-.238.775l.892,2.741ZM1.868-7.175c.238-5.483,3.806-6.794,6.66-7.807a8.516,8.516,0,0,0,2.854-1.49,7.6,7.6,0,0,0,3.092.715,7.832,7.832,0,0,0,3.092-.715,7.967,7.967,0,0,0,2.854,1.49,11.584,11.584,0,0,1,4.876,2.8L24.406-9.5h-4.4a.645.645,0,0,0-.654.477.653.653,0,0,0,.238.775l1.487,1.073ZM8.707-22.908a5.78,5.78,0,0,1,5.768-5.781,5.819,5.819,0,0,1,5.768,5.781,5.78,5.78,0,0,1-5.768,5.781A5.742,5.742,0,0,1,8.707-22.908Zm22.241,6.675a10.4,10.4,0,0,1-2.141-.954,7.2,7.2,0,0,0,2.854-5.721A7.063,7.063,0,0,0,24.585-30a7.2,7.2,0,0,0-5.055,2.086A7.093,7.093,0,0,0,14.475-30a7.114,7.114,0,0,0-7.136,7.092,7.2,7.2,0,0,0,2.854,5.721,12.5,12.5,0,0,1-2.141.954C5.02-15.161.5-13.492.5-6.519a.661.661,0,0,0,.654.656H22.919l.238.238L21.79-1.394a.82.82,0,0,0,.238.715.713.713,0,0,0,.833,0l3.568-2.563L30.056-.679a.436.436,0,0,0,.357.119.5.5,0,0,0,.416-.119.6.6,0,0,0,.238-.715L29.7-5.625l.238-.238h7.909a.661.661,0,0,0,.654-.656c0-6.973-4.52-8.641-7.552-9.714" fill="#a100ff" fill-rule="evenodd"/>
  </g>
</svg>
