<svg xmlns="http://www.w3.org/2000/svg" viewBox="0 0 24 24" version="1.1">
    <g id="Icons" transform="translate(-1015.000000, -2562.000000)" fill="#000000" fill-rule="nonzero">
            <path d="M1038.49889,2581.83707 C1037.10304,2581.77233 1036.00335,2580.62407 1035.99894,2579.22673 L1035.99894,2573.48509 C1035.99894,2569.65672 1033.74933,2566.17688 1030.41644,2564.78421 C1030.09699,2563.15427 1028.6606,2561.98392 1026.99973,2562.00017 C1025.35748,2562.03576 1023.94949,2563.18297 1023.58303,2564.78421 C1020.24977,2566.17467 1018.00053,2569.65635 1018.00053,2573.48509 L1018.00053,2579.2271 C1018.02593,2580.63628 1016.90955,2581.80196 1015.50058,2581.83744 C1015.36322,2581.83467 1015.23099,2581.88961 1015.13604,2581.98891 C1015.04109,2582.08821 1014.99212,2582.22277 1015.00104,2582.35988 C1015.01409,2582.63405 1015.22724,2582.85665 1015.50058,2582.88157 L1023.56014,2582.88157 C1023.73426,2584.65114 1025.22236,2586 1027.00047,2586 C1028.77858,2586 1030.26668,2584.65114 1030.4408,2582.88157 L1038.49963,2582.88157 C1038.63684,2582.88409 1038.76888,2582.82919 1038.86387,2582.73014 C1038.95886,2582.63108 1039.00817,2582.49687 1038.99991,2582.35988 C1038.99942,2582.01158 1038.83241,2581.83732 1038.49889,2581.83707 Z M1026.99973,2584.95471 C1025.80892,2584.90301 1024.80572,2584.04832 1024.56551,2582.88084 L1029.43913,2582.88084 C1029.22268,2584.06435 1028.20265,2584.93169 1026.99973,2584.95508 L1026.99973,2584.95471 Z M1030.0919,2581.83707 C1030.05945,2581.82973 1030.0265,2581.82479 1029.99332,2581.8223 C1029.96554,2581.82517 1029.93802,2581.8301 1029.91098,2581.83707 L1024.10436,2581.83707 C1024.07191,2581.82973 1024.03896,2581.8248 1024.00578,2581.8223 C1023.97801,2581.82517 1023.95049,2581.8301 1023.92345,2581.83707 L1018.00053,2581.83707 C1018.62208,2581.10664 1018.97491,2580.18548 1019.00036,2579.22673 L1019.00036,2573.48509 C1018.96683,2570.04165 1021.05208,2566.93131 1024.2502,2565.65444 C1024.40555,2565.54938 1024.52225,2565.39637 1024.58249,2565.21877 C1024.75531,2564.00431 1025.77347,2563.08819 1026.99937,2563.0441 C1028.26628,2563.02277 1029.34498,2563.96111 1029.49931,2565.21877 C1029.52903,2565.41095 1029.65413,2565.57496 1029.8316,2565.65444 C1032.98793,2566.96891 1035.03183,2570.06615 1034.99911,2573.48509 L1034.99911,2579.2271 C1035.01642,2580.20311 1035.40375,2581.13612 1036.08276,2581.83744 L1030.0919,2581.83707 Z" id="Shape"/>
        </g>
    
</svg>