<svg xmlns="http://www.w3.org/2000/svg" width="27.015" height="26.347" viewBox="0 0 27.015 26.347">
  <g id="Group_156879" data-name="Group 156879" transform="translate(0 40.5)">
    <path id="Path_249362" data-name="Path 249362" d="M13.5-14.5A13.261,13.261,0,0,1,0-27.5c0-7.132,6.094-13,13.5-13A13.26,13.26,0,0,1,27-27.5,13.2,13.2,0,0,1,13.5-14.5Zm0-24.917A12.141,12.141,0,0,0,1.125-27.5,12.141,12.141,0,0,0,13.5-15.583,12.141,12.141,0,0,0,25.875-27.5,12.141,12.141,0,0,0,13.5-39.417Z" fill="#a123ff" fill-rule="evenodd"/>
    <path id="Path_249363" data-name="Path 249363" d="M6.624-16.157,5.5-16.531C7.093-21.117,11.965-31.973,24.99-34.5l.187,1.123C12.715-31.037,8.03-20.555,6.624-16.157Z" transform="translate(-1.831 -1.998)" fill="#a123ff" fill-rule="evenodd"/>
    <path id="Path_249364" data-name="Path 249364" d="M22.054-14.323C20.09-26.148,10.831-31.136,5.5-32.984L5.874-34c5.612,1.94,15.245,7.113,17.3,19.493Z" transform="translate(-1.831 -2.164)" fill="#a123ff" fill-rule="evenodd"/>
    <path id="Path_249365" data-name="Path 249365" d="M2.883-29.328A6.814,6.814,0,0,1,1.5-29.422l.184-1.133a5.134,5.134,0,0,0,1.2.094,8.963,8.963,0,0,0,8.85-9.067V-40h1.106v.472A10.039,10.039,0,0,1,2.883-29.328Z" transform="translate(-0.499 -0.166)" fill="#a123ff" fill-rule="evenodd"/>
    <path id="Path_249366" data-name="Path 249366" d="M18.511-8.658A10.467,10.467,0,0,1,17-13.958,10.2,10.2,0,0,1,27.2-24a10.164,10.164,0,0,1,5.477,1.581l-.567.93a9.119,9.119,0,0,0-4.91-1.395,9,9,0,0,0-9.065,8.926,9.463,9.463,0,0,0,1.322,4.742Z" transform="translate(-5.661 -5.494)" fill="#a123ff" fill-rule="evenodd"/>
  </g>
</svg>
