<svg width="17" height="19" viewBox="0 0 17 19" fill="none" xmlns="http://www.w3.org/2000/svg">
<path id="Path 1005" fill-rule="evenodd" clip-rule="evenodd" d="M16.4316 4.93415C16.3941 4.86711 16.3353 4.81419 16.2646 4.78353L11.6194 0.18595C11.5903 0.138031 11.5506 0.097398 11.5031 0.0673362C11.4557 0.0372745 11.4019 0.0185629 11.3459 0.0126255C11.3286 0.00990374 11.3174 0 11.2974 0H0.900201C0.796644 0.00667129 0.698978 0.050437 0.625431 0.123265C0.551884 0.196093 0.507472 0.292949 0.500293 0.395933V18.6007C0.49822 18.6534 0.507172 18.7059 0.526567 18.755C0.545963 18.8041 0.575371 18.8486 0.612962 18.8858C0.650553 18.923 0.695335 18.9521 0.74478 18.9711C0.794225 18.9901 0.847244 18.9987 0.900201 18.9963H16.0967C16.1509 19.0042 16.206 18.9993 16.2579 18.9823C16.3099 18.9652 16.3572 18.9364 16.396 18.898C16.4348 18.8596 16.464 18.8128 16.4815 18.7612C16.4989 18.7096 16.5042 18.6547 16.4966 18.6007V5.14502C16.5025 5.0691 16.4791 4.99383 16.4316 4.93415ZM11.6826 1.3114L15.1081 4.75086H11.6826V1.3114ZM1.30055 18.2051V0.791533H10.8801V5.14646C10.8781 5.19927 10.8873 5.2519 10.9068 5.30107C10.9263 5.35023 10.9555 5.39486 10.9932 5.43208C11.0309 5.46931 11.0763 5.49836 11.1259 5.51736C11.1755 5.53636 11.2283 5.54493 11.2813 5.5425H15.6977V18.2051H1.30055ZM12.2731 9.8415C11.1952 9.8184 10.1211 9.97436 9.09476 10.3029C8.33938 9.90087 7.64788 9.38999 7.04267 8.78682C6.90864 7.75318 6.66422 6.73668 6.31322 5.7547C6.2514 5.58466 6.14507 5.43405 6.00549 5.31823C5.86591 5.20242 5.69799 5.12561 5.51874 5.09562C5.30634 5.09866 5.09821 5.15456 4.91309 5.25821C4.72797 5.36185 4.57167 5.50998 4.45885 5.68902C4.35553 5.88433 4.3073 6.10368 4.31902 6.32407C4.33074 6.54446 4.40219 6.75769 4.52565 6.94106C5.01248 7.75039 5.58957 8.50227 6.24642 9.18242C6.32287 10.017 6.30089 10.8575 6.18051 11.6869C5.29726 12.2318 4.51357 12.9221 3.863 13.7283C3.71257 13.8682 3.60688 14.0492 3.55973 14.2486C3.51258 14.448 3.52606 14.6568 3.59802 14.8487C3.69585 15.0184 3.82904 15.1652 3.98903 15.2789C4.14901 15.3926 4.33213 15.4707 4.52521 15.5078H4.72338C4.90947 15.5019 5.09127 15.4507 5.25288 15.3588C5.41449 15.2668 5.55108 15.1369 5.65056 14.9803C6.28304 14.1441 6.71345 13.1743 6.90862 12.146C7.56857 11.7258 8.28122 11.3936 9.02796 11.1575C10.0515 11.6518 11.1455 11.9853 12.2718 12.146C12.4624 12.1539 12.6524 12.1161 12.8253 12.0358C12.9982 11.9555 13.1494 11.8351 13.2657 11.6846C13.3744 11.5077 13.4372 11.3068 13.4488 11.0998C13.4603 10.8928 13.42 10.6861 13.3317 10.4984C13.2238 10.3101 13.0706 10.1516 12.8859 10.037C12.7011 9.92231 12.4904 9.85507 12.2731 9.8415ZM5.18786 6.5459C5.13744 6.47946 5.11037 6.39846 5.11037 6.31521C5.11037 6.23196 5.13744 6.15096 5.18786 6.08451C5.21252 6.03259 5.24991 5.98752 5.29608 5.95305C5.34225 5.91859 5.39583 5.89575 5.45283 5.88671C5.51941 5.88671 5.51943 5.95251 5.5851 6.08451C5.78185 6.64351 5.93712 7.21624 6.04913 7.79793C5.72462 7.40739 5.43614 6.98832 5.18786 6.5459ZM5.05604 14.5213C5.01288 14.5858 4.95336 14.638 4.8837 14.6727C4.81403 14.7073 4.73659 14.7233 4.65881 14.7191C4.52656 14.7191 4.39383 14.6533 4.39383 14.5213C4.32725 14.3897 4.39362 14.3234 4.45974 14.1919C4.87523 13.7048 5.34137 13.2629 5.85052 12.8736C5.65303 13.4527 5.38638 14.0059 5.0556 14.5213H5.05604ZM7.04178 11.1598C7.04178 10.7642 7.10858 10.3029 7.10858 9.90728C7.42342 10.1705 7.75508 10.413 8.10167 10.6331C7.70584 10.83 7.37285 10.962 7.04178 11.1598ZM12.6053 11.2255C12.5387 11.2918 12.5387 11.3576 12.3403 11.3576C11.6211 11.2373 10.9124 11.0609 10.221 10.8301C10.8751 10.6993 11.5409 10.6332 12.2081 10.6327C12.2887 10.6477 12.3656 10.6788 12.4339 10.7241C12.5021 10.7694 12.5604 10.828 12.6053 10.8963C12.6381 10.945 12.6554 11.0024 12.6552 11.0611C12.655 11.1198 12.6375 11.177 12.6044 11.2255H12.6053Z" fill="black"/>
</svg>
