<svg width="16" height="19" viewBox="0 0 16 19" fill="none" xmlns="http://www.w3.org/2000/svg">
<path id="Path 1010" fill-rule="evenodd" clip-rule="evenodd" d="M15.993 5.13479V5.13203C15.9937 5.08754 15.9861 5.04339 15.9702 5.00176C15.9536 4.94871 15.9251 4.90015 15.8865 4.85989C15.8479 4.81963 15.8001 4.78867 15.7476 4.76951L11.1169 0.186396C11.0879 0.138422 11.0482 0.0977717 11.0007 0.0676197C10.9532 0.0374677 10.8991 0.0186189 10.843 0.0125958C10.8257 0.00988043 10.8154 0 10.7976 0H0.400234C0.296628 0.00696116 0.19897 0.050851 0.125459 0.123638C0.051947 0.196425 0.00756882 0.293193 0.00031787 0.395995V18.6008C-0.00181509 18.6535 0.00678543 18.7059 0.0261476 18.755C0.0455098 18.804 0.0749525 18.8486 0.112544 18.8858C0.150135 18.923 0.195331 18.9519 0.24481 18.971C0.294289 18.99 0.347213 18.9987 0.400234 18.9964H15.5966C15.6508 19.0042 15.7063 18.9994 15.7583 18.9822C15.8103 18.9651 15.8575 18.9362 15.8963 18.8978C15.9351 18.8595 15.9644 18.8126 15.9818 18.761C15.9992 18.7095 16.0042 18.6547 15.9965 18.6008V5.13479H15.993ZM11.1788 1.31151L14.5928 4.73968H11.1788V1.31151ZM0.796587 18.2048V0.791991H10.3763V5.13656C10.3743 5.18923 10.3831 5.24178 10.4026 5.2908C10.4221 5.33983 10.4517 5.3843 10.4894 5.4214C10.5272 5.4585 10.5721 5.48735 10.6217 5.50626C10.6713 5.52516 10.7245 5.53371 10.7776 5.53123H15.1931V18.2067L0.796587 18.2048ZM13.7934 10.7023C13.7961 10.7551 13.7874 10.808 13.7685 10.8575C13.7495 10.907 13.7204 10.952 13.683 10.9898C13.6455 11.0275 13.6007 11.0571 13.5511 11.0767C13.5016 11.0963 13.4486 11.1055 13.3953 11.1037H12.8043V14.7695C12.8116 14.8236 12.8061 14.8785 12.7883 14.9301C12.7704 14.9818 12.7407 15.0286 12.7014 15.0668C12.6622 15.105 12.6148 15.1336 12.5625 15.1504C12.5101 15.1671 12.4543 15.1715 12.3999 15.1632C12.3468 15.1658 12.2938 15.1575 12.2441 15.1388C12.1943 15.12 12.1489 15.0912 12.1109 15.0542C12.0729 15.0172 12.0434 14.9729 12.0236 14.9239C12.0038 14.8748 11.9943 14.8223 11.996 14.7695V11.1037H11.4055C11.3522 11.1055 11.2992 11.0963 11.2496 11.0767C11.2001 11.0571 11.1548 11.0275 11.1174 10.9898C11.0799 10.952 11.0508 10.907 11.0319 10.8575C11.0129 10.808 11.0047 10.7551 11.0074 10.7023C11.0136 10.5989 11.0571 10.5012 11.1303 10.4274C11.2035 10.3535 11.3014 10.3087 11.4055 10.3008H13.3948C13.4986 10.309 13.5958 10.354 13.6687 10.4278C13.7416 10.5016 13.785 10.5991 13.7912 10.7023H13.7934ZM4.5851 10.3008H3.58754C3.48429 10.3077 3.38699 10.3514 3.31365 10.4238C3.24031 10.4963 3.19588 10.5925 3.18851 10.695V14.7681C3.18651 14.8205 3.19586 14.8728 3.21523 14.9216C3.23461 14.9705 3.26369 15.0147 3.30118 15.0517C3.33868 15.0887 3.3837 15.1176 3.433 15.1365C3.48231 15.1555 3.53472 15.1641 3.58754 15.1618C3.64153 15.1696 3.69696 15.1647 3.74875 15.1477C3.80055 15.1307 3.84769 15.1019 3.88636 15.0637C3.92503 15.0255 3.95404 14.9789 3.97142 14.9276C3.9888 14.8763 3.99369 14.8217 3.98612 14.7681V13.4557H4.5851C5.84785 13.4557 6.37938 12.6672 6.37938 11.8793C6.3771 11.1547 5.84562 10.3008 4.58287 10.3008H4.5851ZM4.5851 12.6654H3.98256V11.0892H4.58154C5.51184 11.0892 5.57821 11.6802 5.57821 11.8775C5.57821 12.0749 5.51317 12.6654 4.58287 12.6654H4.5851ZM8.58382 10.3008H7.58536C7.48213 10.3076 7.38476 10.3512 7.31148 10.4237C7.23819 10.4962 7.19395 10.5925 7.18678 10.695V14.7681C7.18471 14.8205 7.19374 14.8727 7.21306 14.9215C7.23238 14.9703 7.26155 15.0147 7.29901 15.0517C7.33646 15.0887 7.3811 15.1176 7.43038 15.1365C7.47966 15.1555 7.53256 15.1641 7.58536 15.1618C7.63939 15.1697 7.69428 15.1649 7.74613 15.1479C7.79798 15.1309 7.84546 15.1022 7.88419 15.064C7.92291 15.0257 7.95184 14.9792 7.96925 14.9278C7.98665 14.8765 7.99197 14.8217 7.98439 14.7681V13.4557H8.58203C9.84569 13.4557 10.3776 12.6672 10.3776 11.8793C10.3767 11.1547 9.84479 10.3008 8.58159 10.3008H8.58382ZM8.58382 12.6654H7.98617V11.0892H8.58382C9.51457 11.0892 9.58182 11.6802 9.58182 11.8775C9.58182 12.0749 9.51234 12.6654 8.58159 12.6654H8.58382Z" fill="black"/>
</svg>
