<svg xmlns="http://www.w3.org/2000/svg" width="20" height="20" viewBox="0 0 20 20" fill="none">
  <path fill-rule="evenodd" clip-rule="evenodd" d="M9.21135 12.5235C9.21664 12.3036 9.30178 12.0947 9.44883 11.9412C9.59588 11.7877 9.79285 11.7017 9.99818 11.7017C10.2035 11.7017 10.401 11.7877 10.548 11.9412C10.6951 12.0947 10.7802 12.3036 10.7855 12.5235C10.7845 12.668 10.7477 12.8097 10.6785 12.9338C10.6093 13.0579 10.5104 13.16 10.3921 13.2296V15.4094C10.3993 15.4664 10.3941 15.5243 10.3768 15.5787C10.3595 15.633 10.3304 15.6824 10.2922 15.7228C10.254 15.7631 10.2077 15.7934 10.1567 15.8112C10.1057 15.829 10.0517 15.8338 9.99869 15.8252C9.94676 15.828 9.8949 15.8192 9.84632 15.7993C9.79774 15.7795 9.7534 15.749 9.71637 15.7099C9.67934 15.6708 9.65051 15.624 9.63127 15.5722C9.61203 15.5205 9.60297 15.4651 9.60477 15.4094V13.2296C9.48647 13.16 9.38754 13.0579 9.31837 12.9338C9.2492 12.8097 9.21236 12.668 9.21135 12.5235ZM16.9966 7.9496V19.5803C17.0041 19.6369 16.9992 19.6946 16.9823 19.7487C16.9654 19.8029 16.937 19.8521 16.8992 19.8924C16.8615 19.9328 16.8153 19.9631 16.7647 19.9811C16.7141 19.9992 16.6605 20.0044 16.6077 19.9963H3.38912C3.33755 19.9986 3.28587 19.9893 3.23777 19.9693C3.18967 19.9492 3.14588 19.9187 3.10935 19.8796C3.07282 19.8405 3.04459 19.7937 3.02578 19.7422C3.00696 19.6907 2.99823 19.6356 3.0003 19.5803V7.9496C3.00727 7.84173 3.05061 7.7402 3.12209 7.66385C3.19357 7.58749 3.2884 7.54138 3.38912 7.53421H5.32001V5.0133C5.32001 3.68369 5.81312 2.40853 6.69085 1.46836C7.56858 0.528182 8.75892 0 10.0002 0C11.2415 0 12.4319 0.528182 13.3096 1.46836C14.1873 2.40853 14.6804 3.68369 14.6804 5.0133V7.53366H16.6113C16.6626 7.53185 16.7134 7.54147 16.7611 7.56177C16.8088 7.58207 16.8524 7.61267 16.8885 7.6517C16.9247 7.69073 16.953 7.73732 16.9716 7.78858C16.9902 7.83983 16.9987 7.89467 16.9966 7.9496ZM6.09767 7.50241H13.8977V5.01507C13.8858 3.91553 13.4699 2.86531 12.7399 2.09227C12.0098 1.31924 11.0243 0.885655 9.99767 0.885655C8.97109 0.885655 7.98609 1.31924 7.256 2.09227C6.52591 2.86531 6.10955 3.91553 6.09767 5.01507V7.50241ZM16.2189 8.36596H3.77795V19.1662H16.2189V8.36596Z" fill="black"/>
</svg>