<svg xmlns="http://www.w3.org/2000/svg" width="15.82" height="15.822" viewBox="0 0 15.82 15.822">
  <g id="Group_161484" data-name="Group 161484" transform="translate(-871.553 -1219.275)">
    <path id="Path_253369" data-name="Path 253369" d="M23.105-25.856a.336.336,0,0,1-.363-.294L22.5-28.557a.442.442,0,0,1,.121-.294.272.272,0,0,1,.3-.059l2.844.529c.242.059.363.235.3.411a.454.454,0,0,1-.424.294l-2.36-.47.182,1.879c0,.235-.121.411-.363.411Z" transform="translate(860.725 1249.281)" fill-rule="evenodd"/>
    <path id="Path_253370" data-name="Path 253370" d="M4.077-5.388H4.018l-3.183-.7C.658-6.092.54-6.268.6-6.5a.335.335,0,0,1,.413-.235l2.653.529L3.488-8.089A.442.442,0,0,1,3.783-8.5c.236,0,.413.117.413.352L4.431-5.8c0,.117,0,.235-.118.294A.307.307,0,0,1,4.077-5.388Z" transform="translate(871.271 1239.447)" fill-rule="evenodd"/>
    <path id="Path_253371" data-name="Path 253371" d="M13.559-14.182a8.38,8.38,0,0,1-1.722-.18.381.381,0,0,1-.237-.481.337.337,0,0,1,.416-.24,6.4,6.4,0,0,0,1.544.18,7.19,7.19,0,0,0,7.125-7.212,7.259,7.259,0,0,0-3.384-6.13.394.394,0,0,1-.119-.541.458.458,0,0,1,.475-.12,8.092,8.092,0,0,1,3.74,6.791A7.955,7.955,0,0,1,13.559-14.182Z" transform="translate(865.977 1249.279)" fill-rule="evenodd"/>
    <path id="Path_253372" data-name="Path 253372" d="M3.883-16.216c-.06,0-.119-.06-.179-.06A7.887,7.887,0,0,1,0-23.035,7.918,7.918,0,0,1,7.885-31a8.32,8.32,0,0,1,1.673.181c.179,0,.3.181.239.422a.339.339,0,0,1-.418.241,12.45,12.45,0,0,0-1.493-.121A7.15,7.15,0,0,0,.717-23.035,7.307,7.307,0,0,0,4.062-16.88a.318.318,0,0,1,.119.483A.328.328,0,0,1,3.883-16.216Z" transform="translate(871.553 1250.275)" fill-rule="evenodd"/>
  </g>
</svg>
