<svg width="17" height="16" viewBox="0 0 17 16" fill="none" xmlns="http://www.w3.org/2000/svg">
<path id="Shape" d="M0.00432968 7.7205C-0.0803509 9.70602 0.61343 11.6451 1.93493 13.1164C2.56157 13.8425 3.33041 14.4292 4.19284 14.8395C5.05526 15.2497 5.99251 15.4747 6.94532 15.5H7.00471C7.09153 15.4963 7.17458 15.4632 7.24039 15.4058C7.30621 15.3484 7.35092 15.2703 7.36728 15.184C7.36359 15.0806 7.32595 14.9815 7.26029 14.9021C7.19463 14.8228 7.10471 14.7678 7.00471 14.7459C6.14625 14.722 5.30173 14.5206 4.5233 14.1539C3.74487 13.7873 3.04904 13.2632 2.47879 12.614C1.28868 11.2998 0.659014 9.5642 0.726352 7.7837C0.729106 6.43783 1.14267 5.12561 1.91059 4.0262C2.67851 2.92678 3.76335 2.09375 5.01702 1.64084C6.27068 1.18792 7.63206 1.1372 8.91531 1.49558C10.1986 1.85396 11.3411 2.60399 12.187 3.64327C13.2594 4.92068 13.8375 6.54766 13.8144 8.22291L11.8474 5.8878C11.823 5.84761 11.79 5.81344 11.7508 5.78781C11.7117 5.76218 11.6674 5.74573 11.6211 5.73967C11.5748 5.73361 11.5278 5.73809 11.4835 5.75279C11.4392 5.76748 11.3987 5.79202 11.365 5.8246C11.3262 5.85207 11.2936 5.88749 11.2693 5.92855C11.245 5.96962 11.2296 6.0154 11.224 6.06292C11.2184 6.11043 11.2227 6.15861 11.2368 6.2043C11.2509 6.24999 11.2743 6.29216 11.3056 6.32807L13.7946 9.30252C13.8128 9.33611 13.8368 9.36608 13.8655 9.391C13.89 9.41869 13.9203 9.44059 13.9541 9.45515C13.988 9.46971 14.0246 9.47658 14.0614 9.47526C14.1083 9.4911 14.1586 9.49389 14.207 9.48332C14.2554 9.47276 14.3001 9.44924 14.3364 9.41522C14.3711 9.39788 14.4033 9.37592 14.4323 9.34992L16.6056 5.94994C16.6595 5.85827 16.677 5.74937 16.6545 5.64519C16.6321 5.54101 16.5714 5.4493 16.4848 5.38855C16.4032 5.3453 16.3086 5.33428 16.2194 5.35765C16.1303 5.38101 16.0529 5.43708 16.0024 5.51494L14.5219 7.83215C14.4509 6.12336 13.8474 4.48099 12.7976 3.1398C11.8523 1.98922 10.5807 1.15942 9.15429 0.762344C7.72789 0.36527 6.21535 0.42003 4.8207 0.919235C3.42606 1.41844 2.21642 2.33807 1.35499 3.55406C0.493557 4.77006 0.0217743 6.2239 0.00328827 7.71945L0.00432968 7.7205Z" fill="#01000D"/>
</svg>
