<svg xmlns="http://www.w3.org/2000/svg" width="16" height="14.244" viewBox="0 0 16 14.244">
  <path id="Shape" d="M9.274,14.244a.371.371,0,0,1-.348-.3.443.443,0,0,1,.348-.417A6.033,6.033,0,0,0,13.619,11.5,6.43,6.43,0,0,0,15.3,6.918a6.207,6.207,0,0,0-11-3.932A6.577,6.577,0,0,0,2.739,7.335c1.882-2.21,1.887-2.217,1.887-2.217a.3.3,0,0,1,.463-.059.323.323,0,0,1,.057.478L2.757,8.361a.3.3,0,0,1-.068.084.239.239,0,0,1-.189.08h0a.264.264,0,0,1-.264-.057.378.378,0,0,1-.092-.062L.059,5.178A.4.4,0,0,1,.175,4.64a.355.355,0,0,1,.462.119l1.421,2.2A7.7,7.7,0,0,1,3.713,2.51a6.941,6.941,0,0,1,12.28,4.348,7.165,7.165,0,0,1-1.854,5.123,6.612,6.612,0,0,1-4.808,2.263ZM12.5,7.8H9.046A.336.336,0,0,1,8.7,7.446V3.527a.377.377,0,0,1,.346-.356.337.337,0,0,1,.345.356V7.089H12.5a.337.337,0,0,1,.345.357.31.31,0,0,1-.305.358Z"/>
</svg>
