<svg xmlns="http://www.w3.org/2000/svg" width="20" height="20" viewBox="0 0 20 20" fill="none">
  <path fill-rule="evenodd" clip-rule="evenodd" d="M17.5492 3.33623H17.1051V0.420079C17.1136 0.363477 17.1084 0.305796 17.0892 0.251567C17.0699 0.197339 17.0374 0.148071 16.9943 0.107671C16.9513 0.0672714 16.8984 0.0368543 16.8406 0.0188169C16.7828 0.000779436 16.7218 -0.00439242 16.6615 0.00374273H4.22232C3.63404 0.00463768 3.06958 0.224217 2.65321 0.614522C2.23683 1.00483 2.00207 1.53411 2 2.0866V17.9168C2.01471 18.4655 2.25367 18.9879 2.66734 19.3757C3.08101 19.7634 3.63802 19.9869 4.22232 19.9997H17.5515C17.6105 20.002 17.6691 19.9927 17.7241 19.9726C17.7791 19.9525 17.8296 19.9219 17.8714 19.8827C17.9131 19.8435 17.9453 19.7966 17.9668 19.745C17.9883 19.6933 17.9986 19.6381 17.9962 19.5827V3.75257C18.0048 3.69572 17.9986 3.63779 17.9791 3.58337C17.9597 3.52895 17.9271 3.47956 17.8837 3.43912C17.8403 3.39869 17.7875 3.36827 17.7294 3.35041C17.6713 3.33255 17.6096 3.32773 17.5492 3.33623ZM4.21996 0.837038H16.2151V3.33623H15.2927V2.06904C15.3019 2.01211 15.2969 1.95398 15.278 1.89921C15.259 1.84444 15.2268 1.79453 15.1837 1.75352C15.1407 1.7125 15.088 1.68145 15.03 1.66287C14.972 1.64428 14.9099 1.6387 14.8492 1.64648H4.19169C4.13232 1.64453 4.07313 1.65414 4.01794 1.67476C3.96274 1.69538 3.91299 1.72659 3.87127 1.76631C3.82955 1.80603 3.79707 1.85339 3.77585 1.9055C3.75464 1.95762 3.7453 2.01331 3.74817 2.06904C3.75579 2.17775 3.80447 2.28023 3.886 2.35773C3.96752 2.43523 4.07604 2.48256 4.19169 2.49104H14.4056V3.33623H4.22055C3.86767 3.33623 3.52884 3.20458 3.27932 2.97024C3.0298 2.73589 2.88999 2.41802 2.88999 2.0866C2.88999 1.75519 3.0298 1.43738 3.27932 1.20304C3.52884 0.96869 3.86767 0.837038 4.22055 0.837038H4.21996ZM17.1027 19.1664H4.21996C3.87025 19.1563 3.53755 19.0215 3.28992 18.7894C3.0423 18.5572 2.89779 18.2452 2.88645 17.9168V3.75257C3.28686 3.99363 3.74561 4.13692 4.21996 4.16946H14.7956C14.8129 4.17452 14.8306 4.17832 14.8486 4.1808C14.869 4.17843 14.8895 4.17463 14.9092 4.16946H17.1015L17.1027 19.1664Z" fill="black"/>
</svg>