<svg xmlns="http://www.w3.org/2000/svg" width="30.412" height="28.385" viewBox="0 0 30.412 28.385">
  <g id="Group_160349" data-name="Group 160349" transform="translate(12970.519 9738)">
    <path id="Path_253425" data-name="Path 253425" d="M23.852-127.3A3.836,3.836,0,0,1,20-131.148,3.836,3.836,0,0,1,23.852-135a3.906,3.906,0,0,1,3.852,3.852A3.906,3.906,0,0,1,23.852-127.3Zm0-6.42a2.535,2.535,0,0,0-2.568,2.568,2.535,2.535,0,0,0,2.568,2.568,2.6,2.6,0,0,0,2.568-2.568A2.6,2.6,0,0,0,23.852-133.716Z" transform="translate(-12988.491 -9590.024)" fill="#b5b5b5" fill-rule="evenodd"/>
    <path id="Path_253426" data-name="Path 253426" d="M25.573-120.512h-7.41a.58.58,0,0,1-.664-.649A5.882,5.882,0,0,1,23.472-127a5.862,5.862,0,0,1,4.755,2.379.674.674,0,0,1-.111.973.585.585,0,0,1-.885-.216,5.036,5.036,0,0,0-3.76-1.838,4.719,4.719,0,0,0-4.645,3.893h6.746a.706.706,0,0,1,.664.649A.631.631,0,0,1,25.573-120.512Z" transform="translate(-12988.019 -9591.536)" fill="#b5b5b5" fill-rule="evenodd"/>
    <path id="Path_253427" data-name="Path 253427" d="M46.555-127.3a3.941,3.941,0,0,1-4.055-3.852A3.941,3.941,0,0,1,46.555-135a4.013,4.013,0,0,1,4.055,3.852A4.013,4.013,0,0,1,46.555-127.3Zm0-6.42a2.6,2.6,0,0,0-2.7,2.568,2.6,2.6,0,0,0,2.7,2.568,2.675,2.675,0,0,0,2.7-2.568A2.675,2.675,0,0,0,46.555-133.716Z" transform="translate(-12992.744 -9590.024)" fill="#b5b5b5" fill-rule="evenodd"/>
    <path id="Path_253428" data-name="Path 253428" d="M51.815-120.512H44.479a.577.577,0,0,1-.657-.649.627.627,0,0,1,.657-.649h6.569a4.571,4.571,0,0,0-4.489-3.893,4.793,4.793,0,0,0-3.722,1.838.718.718,0,0,1-.985.216.8.8,0,0,1-.109-.973A5.839,5.839,0,0,1,46.559-127a5.922,5.922,0,0,1,5.912,5.839A.627.627,0,0,1,51.815-120.512Z" transform="translate(-12992.578 -9591.536)" fill="#b5b5b5" fill-rule="evenodd"/>
    <path id="Path_253429" data-name="Path 253429" d="M35.029-127.457a5.358,5.358,0,0,1-5.529-5.218A5.445,5.445,0,0,1,35.029-138a5.419,5.419,0,0,1,5.419,5.325A5.33,5.33,0,0,1,35.029-127.457Zm0-9.265a4.125,4.125,0,0,0-4.2,4.047,4.107,4.107,0,0,0,4.2,3.94,4.08,4.08,0,0,0,4.092-3.94A4.1,4.1,0,0,0,35.029-136.722Z" transform="translate(-12990.287 -9589.457)" fill="#b5b5b5" fill-rule="evenodd"/>
    <path id="Path_253430" data-name="Path 253430" d="M41.145-138.247a.448.448,0,0,1-.45-.226,8.079,8.079,0,0,0-6.411-3.169,7.769,7.769,0,0,0-6.411,3.169.709.709,0,0,1-1.012.113.7.7,0,0,1-.112-.905A9.3,9.3,0,0,1,34.284-143a9.249,9.249,0,0,1,7.423,3.734.6.6,0,0,1-.112.905C41.483-138.247,41.37-138.247,41.145-138.247Z" transform="translate(-12989.743 -9588.512)" fill="#b5b5b5" fill-rule="evenodd"/>
    <path id="Path_253431" data-name="Path 253431" d="M24.674-141.43a.41.41,0,0,1-.329-.107.558.558,0,0,1-.11-.857A12.665,12.665,0,0,1,34.005-147a12.69,12.69,0,0,1,9.66,4.5.667.667,0,0,1-.11.964.589.589,0,0,1-.878-.107,11.138,11.138,0,0,0-8.672-4.07,11.529,11.529,0,0,0-8.782,4.07C25.113-141.43,24.894-141.43,24.674-141.43Z" transform="translate(-12989.263 -9587.756)" fill="#b5b5b5" fill-rule="evenodd"/>
    <path id="Path_253432" data-name="Path 253432" d="M44.891-144.213c-.219,0-.437,0-.547-.212a14.4,14.4,0,0,0-11.259-5.3,14.463,14.463,0,0,0-11.368,5.3.589.589,0,0,1-.874.106.551.551,0,0,1-.109-.848A15.606,15.606,0,0,1,33.086-151a15.927,15.927,0,0,1,12.352,5.833.643.643,0,0,1-.109.848A.673.673,0,0,1,44.891-144.213Z" transform="translate(-12988.601 -9587)" fill="#b5b5b5" fill-rule="evenodd"/>
    <path id="Path_253433" data-name="Path 253433" d="M41.965-117.985h-15.3a.622.622,0,0,1-.661-.631,8.164,8.164,0,0,1,8.368-7.885,8.136,8.136,0,0,1,8.258,7.885A.622.622,0,0,1,41.965-117.985Zm-14.533-1.262H41.3a6.832,6.832,0,0,0-6.936-5.992A6.832,6.832,0,0,0,27.431-119.246Z" transform="translate(-12989.625 -9591.631)" fill="#b5b5b5" fill-rule="evenodd"/>
  </g>
</svg>
