<svg xmlns="http://www.w3.org/2000/svg" width="8.884" height="13.066" viewBox="0 0 8.884 13.066">
  <path id="Path_253362" data-name="Path 253362" d="M199.282,68.87a.494.494,0,0,1-.357-.116.487.487,0,0,1-.126-.367V57.13A1.206,1.206,0,0,1,200.086,56H206.2a1.206,1.206,0,0,1,1.287,1.126V68.388a.487.487,0,0,1-.126.367.493.493,0,0,1-.357.116h0a.16.16,0,0,1-.1-.03l-3.764-2.824-3.764,2.824a.161.161,0,0,1-.1.03Zm-.04-.327,3.8-2.855h0a.161.161,0,0,1,.191,0l3.8,2.855a.382.382,0,0,0,.1-.02c.008-.008.025-.037.025-.136V57.13a.878.878,0,0,0-.965-.8h-6.111a.878.878,0,0,0-.965.8V68.388c0,.1.017.128.025.136a.377.377,0,0,0,.1.02Z" transform="translate(-198.699 -55.905)" fill="#4a4a4a" stroke="#4a4a4a" stroke-width="0.2"/>
</svg>
