<svg width="24" height="24" viewBox="0 0 24 24" fill="none" xmlns="http://www.w3.org/2000/svg">
<path d="M5.80942 22.2891C7.49718 22.2891 8.87138 20.9167 8.87138 19.2311C8.87138 18.7455 8.75235 18.2843 8.54952 17.8759L15.3085 14.123C15.8653 14.6952 16.6409 15.0613 17.5005 15.0613C19.1883 15.0613 20.5625 13.6889 20.5625 12.0033C20.5625 10.3178 19.1883 8.94543 17.5005 8.94543C16.6388 8.94543 15.8568 9.3004 15.2998 9.87499L8.54952 6.13076C8.75451 5.7207 8.87138 5.26401 8.87138 4.77555C8.87138 3.09 7.49718 1.71763 5.80942 1.71763C4.12165 1.71763 2.74746 3.09 2.74746 4.77555C2.74746 6.4611 4.12165 7.83346 5.80942 7.83346C6.80693 7.83346 7.69429 7.34868 8.25377 6.60858L14.9431 10.318C14.6233 10.8009 14.4386 11.3826 14.4386 12.0033C14.4386 12.6284 14.6279 13.2038 14.9518 13.6887L8.25377 17.3982C7.69453 16.655 6.80937 16.1732 5.80942 16.1732C4.12165 16.1732 2.74746 17.5456 2.74746 19.2311C2.74746 20.9167 4.12165 22.2891 5.80942 22.2891ZM5.80942 21.7331C4.42253 21.7331 3.30418 20.6162 3.30418 19.2311C3.30418 17.8461 4.42253 16.7292 5.80942 16.7292C7.19631 16.7292 8.31466 17.8461 8.31466 19.2311C8.31466 20.6162 7.19631 21.7331 5.80942 21.7331ZM17.5005 14.5053C16.1136 14.5053 14.9953 13.3884 14.9953 12.0033C14.9953 10.6183 16.1136 9.50142 17.5005 9.50142C18.8874 9.50142 20.0058 10.6183 20.0058 12.0033C20.0058 13.3884 18.8874 14.5053 17.5005 14.5053ZM5.80942 7.27748C4.42253 7.27748 3.30418 6.16062 3.30418 4.77555C3.30418 3.39048 4.42253 2.27362 5.80942 2.27362C7.19631 2.27362 8.31466 3.39048 8.31466 4.77555C8.31466 6.16062 7.19631 7.27748 5.80942 7.27748Z" fill="black" stroke="black" stroke-width="0.4"/>
</svg>
