<svg xmlns="http://www.w3.org/2000/svg" viewBox="0 0 31.822 18.378"><g id="noun_Sort_3117309" transform="translate(0)"><g id="Group_98254" data-name="Group 98254" transform="translate(0)"><path id="Path_194671" data-name="Path 194671" d="M10,40.425a1.688,1.688,0,0,1-2.378,0L3,35.769A1.682,1.682,0,0,1,5.381,33.39L7.19,35.2V24.212a1.675,1.675,0,1,1,3.35,0V35.2l1.809-1.809a1.683,1.683,0,0,1,1.172-.5,1.571,1.571,0,0,1,1.172.5,1.658,1.658,0,0,1,0,2.378Z" transform="translate(-2.5 -22.537)" fill="#004dff"/><path id="Path_194672" data-name="Path 194672" d="M63.039,70.75H49.875a1.675,1.675,0,0,1,0-3.35H63.039a1.675,1.675,0,0,1,0,3.35Z" transform="translate(-32.892 -67.4)" fill="#004dff"/><path id="Path_194673" data-name="Path 194673" d="M49.875,45H59.69a1.675,1.675,0,0,1,0,3.35H49.875a1.675,1.675,0,0,1,0-3.35Z" transform="translate(-32.892 -37.497)" fill="#004dff"/><path id="Path_194674" data-name="Path 194674" d="M49.875,22.6h6.5a1.675,1.675,0,0,1,0,3.35h-6.5a1.675,1.675,0,0,1,0-3.35Z" transform="translate(-32.892 -7.593)" fill="#004dff"/></g></g></svg>