<svg id="noun_Sort_3117309" xmlns="http://www.w3.org/2000/svg" viewBox="0 0 31.823 18.378"><g id="Group_98254" data-name="Group 98254"><path id="Path_194671" data-name="Path 194671" d="M10,23.027a1.688,1.688,0,0,0-2.378,0L3,27.683a1.682,1.682,0,0,0,2.378,2.378L7.19,28.253V39.24a1.675,1.675,0,1,0,3.35,0V28.253l1.809,1.809a1.683,1.683,0,0,0,1.172.5,1.571,1.571,0,0,0,1.172-.5,1.658,1.658,0,0,0,0-2.378Z" transform="translate(-2.5 -22.537)" fill="#004dff"/><path id="Path_194672" data-name="Path 194672" d="M63.039,67.4H49.875a1.675,1.675,0,0,0,0,3.35H63.039a1.675,1.675,0,1,0,0-3.35Z" transform="translate(-32.892 -52.372)" fill="#004dff"/><path id="Path_194673" data-name="Path 194673" d="M49.875,48.35H59.69a1.675,1.675,0,0,0,0-3.35H49.875a1.675,1.675,0,0,0,0,3.35Z" transform="translate(-32.892 -37.476)" fill="#004dff"/><path id="Path_194674" data-name="Path 194674" d="M49.875,25.95h6.5a1.675,1.675,0,0,0,0-3.35h-6.5a1.675,1.675,0,0,0,0,3.35Z" transform="translate(-32.892 -22.579)" fill="#004dff"/></g></svg>