<?xml version="1.0" encoding="UTF-8"?><svg id="Layer_1" xmlns="http://www.w3.org/2000/svg" viewBox="0 0 22.49 26"><defs><style>.cls-1{fill-rule:evenodd;}</style></defs><g id="Group_165723"><path id="Path_254282" class="cls-1" d="m11.42,19.33c-4.36-.01-7.89-3.55-7.9-7.91-.02-4.35,3.49-7.89,7.84-7.91.02,0,.04,0,.06,0,4.36.01,7.89,3.54,7.9,7.91-.04,4.35-3.56,7.86-7.9,7.91Zm0-14.76c-3.78,0-6.85,3.07-6.85,6.85,0,3.78,3.07,6.85,6.85,6.85,3.78,0,6.85-3.07,6.85-6.85,0-3.78-3.07-6.85-6.85-6.85Z"/><path id="Path_254283" class="cls-1" d="m14.58,21.43h-6.32c-.28.01-.52-.2-.53-.48,0-.01,0-.03,0-.04v-2.64h1.05v2.11h5.27v-2.11h1.05v2.64c-.02.28-.24.51-.53.53Z"/><path id="Path_254284" class="cls-1" d="m13.53,23.54h-4.22c-.28.01-.52-.2-.53-.48,0-.01,0-.03,0-.04v-2.11c-.01-.28.2-.52.48-.53.01,0,.03,0,.04,0h4.22c.28.02.51.24.53.53v2.11c-.02.28-.24.51-.53.53Zm-3.69-1.05h3.16v-1.05h-3.16v1.05Z"/><path id="Path_254285" class="cls-1" d="m11.42,26c-.3,0-.53-.25-.53-.55,0-.01,0-.03,0-.04v-2.34c-.03-.3.19-.56.49-.58.01,0,.03,0,.04,0,.3.04.52.29.53.59v2.34c0,.3-.23.55-.53.59Z"/><path id="Path_254286" class="cls-1" d="m11.42,2.46c-.31-.01-.54-.27-.53-.58,0-.01,0-.02,0-.03V.62c-.03-.31.19-.58.49-.61.01,0,.02,0,.03,0,.3.05.53.31.53.62v1.23c0,.31-.22.57-.53.62Z"/><path id="Path_254287" class="cls-1" d="m18.24,4.92c-.19,0-.29,0-.38-.08-.21-.12-.28-.39-.16-.6.04-.06.09-.12.16-.16l.77-.67c.22-.24.59-.25.83-.03.01,0,.02.02.03.03.18.18.19.47.02.65,0,0-.01.01-.02.02l-.86.75c-.1.08-.19.08-.38.08Z"/><path id="Path_254288" class="cls-1" d="m21.96,11.95h-1.05c-.28.01-.52-.2-.53-.48,0-.01,0-.03,0-.04-.01-.28.2-.52.48-.53.01,0,.03,0,.04,0h1.05c.28.02.51.24.53.53-.02.28-.24.51-.53.53Z"/><path id="Path_254289" class="cls-1" d="m19.01,19.33c-.14-.02-.27-.08-.38-.17l-.77-.75c-.18-.08-.27-.3-.18-.49.04-.08.1-.15.18-.18.23-.17.54-.17.77,0l.86.67c.19.21.19.54,0,.75-.14.11-.31.17-.48.17Z"/><path id="Path_254290" class="cls-1" d="m4.36,4.92c-.11.01-.23-.02-.32-.08l-.64-.75c-.18-.12-.24-.37-.12-.55.03-.05.07-.09.12-.12.1-.18.32-.24.5-.14.06.03.11.08.14.14l.72.67c.16.23.16.53,0,.75-.12.07-.26.1-.4.08Z"/><path id="Path_254291" class="cls-1" d="m1.58,11.95H.53c-.28.01-.52-.2-.53-.48,0-.01,0-.03,0-.04-.01-.28.2-.52.48-.53.01,0,.03,0,.04,0h1.05c.28.02.51.24.53.53-.02.28-.24.51-.53.53Z"/><path id="Path_254292" class="cls-1" d="m3.72,19.33c-.13,0-.24-.07-.32-.17-.21-.17-.24-.47-.08-.68.02-.03.05-.05.08-.08l.64-.67c.21-.17.51-.17.72,0,.16.19.16.47,0,.67l-.72.75c-.09.09-.2.15-.32.17Z"/><path id="Path_254293" class="cls-1" d="m11.95,18.97h-.18c-.21-.1-.35-.31-.35-.54,0,.26-.19.48-.44.54-.28,0-.53-.18-.61-.45l-1.05-4.4h-1.05c-.88,0-1.59-.72-1.58-1.6,0,0,0,0,0-.01-.01-.88.69-1.6,1.57-1.62,0,0,0,0,.01,0,.85,0,1.59.6,1.76,1.44l.18.72h2.37l.18-.72c.21-.84.97-1.44,1.84-1.44.88,0,1.59.72,1.58,1.6,0,0,0,0,0,.01.01.88-.69,1.6-1.57,1.62,0,0,0,0-.01,0h-1.14l-1.05,4.4c-.01.24-.2.43-.44.45Zm-1.49-4.85l.88,4.13q.09.09.09.18v-.18l.97-4.13h-1.93Zm3.25-1.08h.88c.29-.02.51-.25.53-.54-.02-.29-.24-.52-.53-.54-.38-.02-.72.25-.79.63l-.09.45Zm-5.45-1.08c-.28,0-.52.21-.53.5,0,.01,0,.03,0,.04-.02.28.2.52.48.54.01,0,.03,0,.04,0h.88l-.18-.45c-.03-.36-.34-.64-.7-.63h0Z"/></g></svg>