<svg xmlns="http://www.w3.org/2000/svg" width="23.676" height="23.676" viewBox="0 0 23.676 23.676">
  <g id="Group_149841" data-name="Group 149841" transform="translate(0 37.5)">
    <path id="Path_248943" data-name="Path 248943" d="M18.575-15.783a.634.634,0,0,1-.332-.164l-4.154-3.189L9.935-15.946a.531.531,0,0,1-.582.082c-.249-.164-.332-.327-.249-.572l1.412-5.151L6.778-25.267a.5.5,0,0,1-.166-.572.5.5,0,0,1,.5-.245h4.652l1.828-4.17a.5.5,0,0,1,.5-.245.458.458,0,0,1,.415.245l1.911,4.17h4.652a.458.458,0,0,1,.415.245.479.479,0,0,1-.083.572l-3.739,3.679,1.412,5.151a.737.737,0,0,1-.249.572C18.741-15.864,18.658-15.783,18.575-15.783ZM14.089-20.2a.636.636,0,0,1,.332.082l3.24,2.535-1.08-4.006c-.083-.164,0-.327.166-.491L19.821-25.1H16.083a.561.561,0,0,1-.5-.327l-1.5-3.434L12.51-25.431a.551.551,0,0,1-.415.327H8.273l3.157,3.025a.6.6,0,0,1,.166.491l-1.163,4.006,3.323-2.535A.506.506,0,0,1,14.089-20.2Z" transform="translate(-2.369 -2.521)" fill="#707070" fill-rule="evenodd"/>
    <path id="Path_248944" data-name="Path 248944" d="M11.838-13.824A11.841,11.841,0,0,1,0-25.662,11.789,11.789,0,0,1,11.838-37.5,11.841,11.841,0,0,1,23.676-25.662,11.894,11.894,0,0,1,11.838-13.824Zm0-22.689A10.841,10.841,0,0,0,.986-25.662,10.894,10.894,0,0,0,11.838-14.811,10.894,10.894,0,0,0,22.689-25.662,10.841,10.841,0,0,0,11.838-36.514Z" transform="translate(0 0)" fill="#707070" fill-rule="evenodd"/>
  </g>
</svg>
