<svg xmlns="http://www.w3.org/2000/svg" width="17" height="28" viewBox="0 0 17 28">
  <g id="Group_150967" data-name="Group 150967" transform="translate(-0.08 36)">
    <path id="Path_248899" data-name="Path 248899" d="M14.079-18.912c-.1,0-.2-.1-.3-.1L8.616-22.777,3.457-19.116a.487.487,0,0,1-.708,0,.409.409,0,0,1-.2-.61l2.226-6L.321-29.389a.631.631,0,0,1-.2-.712.683.683,0,0,1,.607-.407H5.784l2.226-5.187A.72.72,0,0,1,8.616-36h0c.2,0,.506.1.506.305l2.226,5.187h5.159c.2,0,.506.2.506.407a.605.605,0,0,1-.1.712L12.46-25.727l2.226,6a.491.491,0,0,1-.2.61A.525.525,0,0,1,14.079-18.912ZM8.616-24.1a.37.37,0,0,1,.3.1l3.945,2.746-1.72-4.475c0-.2,0-.509.2-.61l3.439-2.95H10.943a.556.556,0,0,1-.506-.305L8.616-33.864,6.8-29.592a.611.611,0,0,1-.607.305H2.344l3.439,2.95a.491.491,0,0,1,.2.61L4.368-21.252,8.212-24A.606.606,0,0,1,8.616-24.1Z" transform="translate(0)" fill="#a123ff" fill-rule="evenodd"/>
    <path id="Path_248900" data-name="Path 248900" d="M15.912-.924H1.6a.573.573,0,0,1-.6-.6V-3.9a.641.641,0,0,1,.6-.6H15.912a.641.641,0,0,1,.6.6V-1.52A.573.573,0,0,1,15.912-.924ZM2.193-2.116H15.316V-3.308H2.193Z" transform="translate(-0.189 -7.076)" fill="#a123ff" fill-rule="evenodd"/>
    <path id="Path_248901" data-name="Path 248901" d="M14.143-4.847H4.6a.573.573,0,0,1-.6-.6V-11.4a.641.641,0,0,1,.6-.6h9.547a.641.641,0,0,1,.6.6v5.961A.573.573,0,0,1,14.143-4.847ZM5.193-6.039h8.353v-4.769H5.193Z" transform="translate(-0.805 -5.537)" fill="#a123ff" fill-rule="evenodd"/>
    <path id="Path_248902" data-name="Path 248902" d="M10.5-16.5h1.192v3.974H10.5Z" transform="translate(-2.336 -4.387)" fill="#a123ff"/>
  </g>
</svg>
