<svg xmlns="http://www.w3.org/2000/svg" width="19" height="22" viewBox="0 0 19 22">
  <g id="Group_150968" data-name="Group 150968" transform="translate(0 42)">
    <path id="Path_248938" data-name="Path 248938" d="M12.686-15.557A5.68,5.68,0,0,1,7-21.279,5.731,5.731,0,0,1,12.686-27a5.783,5.783,0,0,1,5.686,5.721A5.731,5.731,0,0,1,12.686-15.557Zm0-10.489a4.767,4.767,0,0,0-4.738,4.768,4.767,4.767,0,0,0,4.738,4.768,4.767,4.767,0,0,0,4.738-4.768A4.767,4.767,0,0,0,12.686-26.046Z" transform="translate(-3.186 -7.712)" fill="#a123ff" fill-rule="evenodd"/>
    <path id="Path_248939" data-name="Path 248939" d="M20.347-15.9c-.156,0-.234-.081-.389-.162l-3.269-4.121a.4.4,0,0,1,0-.566l2.88-4.445c.156-.162.467-.242.623-.081a.445.445,0,0,1,.156.646l-2.724,4.121,3.114,3.8a.634.634,0,0,1-.078.727C20.58-15.984,20.425-15.9,20.347-15.9Z" transform="translate(-7.585 -8.169)" fill="#a123ff" fill-rule="evenodd"/>
    <path id="Path_248940" data-name="Path 248940" d="M12.784-16.41h-5.3Q7-16.41,7-16.955a.5.5,0,0,1,.482-.545h5.3a.556.556,0,0,1,.482.545A.494.494,0,0,1,12.784-16.41Z" transform="translate(-3.207 -11.692)" fill="#a123ff" fill-rule="evenodd"/>
    <path id="Path_248941" data-name="Path 248941" d="M18.525-20H.475Q0-20,0-20.458V-41.542A.448.448,0,0,1,.475-42h12.35a.609.609,0,0,1,.317.153l5.7,5.5a.571.571,0,0,1,.158.306v15.583A.449.449,0,0,1,18.525-20ZM.95-20.917h17.1v-14.9l-5.463-5.271H.95Z" fill="#a123ff" fill-rule="evenodd"/>
    <path id="Path_248942" data-name="Path 248942" d="M29.072-35.189h-5.6q-.467,0-.467-.487v-5.838A.459.459,0,0,1,23.467-42a.513.513,0,0,1,.467.487v5.352h5.138a.513.513,0,0,1,.467.487A.458.458,0,0,1,29.072-35.189Z" transform="translate(-10.539)" fill="#a123ff" fill-rule="evenodd"/>
  </g>
</svg>
