<svg xmlns="http://www.w3.org/2000/svg" width="31.101" height="31.5" viewBox="0 0 31.101 31.5">
  <g id="Group_149730" data-name="Group 149730" transform="translate(0 39.5)">
    <path id="Path_248704" data-name="Path 248704" d="M15.551-9.056A14.41,14.41,0,0,1,4.314-14.482C5.689-16.5,7.87-17.316,9.624-17.94a8.339,8.339,0,0,0,2.845-1.441,6.494,6.494,0,0,0,3.082.72,6.63,6.63,0,0,0,3.082-.72,8.071,8.071,0,0,0,2.8,1.441c1.8.624,3.982,1.441,5.31,3.457A14.315,14.315,0,0,1,15.551-9.056ZM9.719-25.623a5.865,5.865,0,0,1,5.831-5.906,5.865,5.865,0,0,1,5.831,5.906,5.865,5.865,0,0,1-5.831,5.906A5.865,5.865,0,0,1,9.719-25.623ZM15.551-38.4A14.581,14.581,0,0,1,30.011-23.75a14.735,14.735,0,0,1-2.56,8.355,11.358,11.358,0,0,0-5.642-3.553,11.208,11.208,0,0,1-2.228-1.008,7.01,7.01,0,0,0,2.845-5.666,6.924,6.924,0,0,0-6.875-6.963,6.964,6.964,0,0,0-6.922,6.963,7.053,7.053,0,0,0,2.892,5.666,12.639,12.639,0,0,1-2.228,1.008c-1.849.672-4.125,1.489-5.642,3.553A14.771,14.771,0,0,1,1.043-23.75,14.591,14.591,0,0,1,15.551-38.4Zm0-1.1A15.66,15.66,0,0,0,0-23.75,15.66,15.66,0,0,0,15.551-8,15.66,15.66,0,0,0,31.1-23.75,15.66,15.66,0,0,0,15.551-39.5Z" fill="#737373" fill-rule="evenodd"/>
  </g>
</svg>
