<svg id="Component_2510_4" data-name="Component 2510 – 4" xmlns="http://www.w3.org/2000/svg" viewBox="0 0 12.226 12"><path id="Path_294466" data-name="Path 294466" d="M19.484-22.2H17.311A.345.345,0,0,1,17-22.531v-3.638a.308.308,0,0,1,.311-.331.308.308,0,0,1,.311.331v3.307h1.863a.308.308,0,0,1,.311.331A.345.345,0,0,1,19.484-22.2Z" transform="translate(-11.479 28.834)" fill-rule="evenodd"/><path id="Path_294468" data-name="Path 294468" d="M11.113-19.5A6.068,6.068,0,0,1,5-25.5a6.032,6.032,0,0,1,6.113-6,6.032,6.032,0,0,1,6.113,6A6.068,6.068,0,0,1,11.113-19.5Zm0-11.333A5.386,5.386,0,0,0,5.679-25.5a5.386,5.386,0,0,0,5.434,5.333A5.386,5.386,0,0,0,16.547-25.5,5.386,5.386,0,0,0,11.113-30.833Z" transform="translate(-5 31.5)" fill-rule="evenodd"/></svg>