<svg width="20" height="20" viewBox="0 0 20 20" fill="none" xmlns="http://www.w3.org/2000/svg">
<path d="M12.75 3.125H16.666V4.375H15.8125V16.25L15.8066 16.373C15.7793 16.6555 15.6561 16.9063 15.4375 17.125L15.3418 17.2129C15.1466 17.3769 14.9276 17.4707 14.6855 17.4941L14.5625 17.5H5.4375L5.31445 17.4941C5.07234 17.4707 4.85347 17.3769 4.6582 17.2129L4.5625 17.125C4.34386 16.9063 4.2207 16.6555 4.19336 16.373L4.1875 16.25V4.375H3.33301V3.125H7.25V2.5H12.75V3.125ZM9.25 5.125H6.1875V15.5H13.8125V5.125H10.75V4.5H9.25V5.125ZM9.5 15H7.5V5.83301H9.5V15ZM12.833 15H10.833V5.83301H12.833V15Z" fill="black"/>
</svg>
