<svg width="20" height="20" viewBox="0 0 20 20" fill="none" xmlns="http://www.w3.org/2000/svg">
<path fill-rule="evenodd" clip-rule="evenodd" d="M18.6291 11.1522L16.9703 10.9908C16.9912 10.7755 17.002 10.5567 17.002 10.3349C17.002 10.1132 16.9912 9.89441 16.9703 9.67909L18.6291 9.51765C18.6553 9.78654 18.6687 10.0592 18.6687 10.3349C18.6687 10.6107 18.6553 10.8833 18.6291 11.1522ZM18.3118 7.9146L16.7167 8.39786C16.5893 7.97705 16.4211 7.57363 16.2168 7.19207L17.686 6.40515C17.9416 6.88241 18.1521 7.38746 18.3118 7.9146ZM16.7769 5.04719L15.4892 6.10523C15.2115 5.7673 14.9013 5.45706 14.5634 5.17941L15.6214 3.89165C16.0432 4.23821 16.4304 4.62539 16.7769 5.04719ZM14.2634 2.98264L13.4765 4.45184C13.095 4.24747 12.6915 4.07935 12.2707 3.95185L12.754 2.35679C13.2811 2.51649 13.7862 2.72701 14.2634 2.98264ZM11.1509 2.0395L10.9895 3.69833C10.7742 3.67737 10.5554 3.66661 10.3337 3.66661C10.1119 3.66661 9.89313 3.67737 9.67781 3.69833L9.51637 2.0395C9.78526 2.01333 10.0579 1.99994 10.3337 1.99994C10.6094 1.99994 10.8821 2.01333 11.1509 2.0395ZM7.91331 2.35679C7.38618 2.51649 6.88113 2.72701 6.40387 2.98264L7.19079 4.45184C7.57235 4.24747 7.97577 4.07935 8.39657 3.95185L7.91331 2.35679ZM5.04591 3.89165L6.10395 5.17941C5.76602 5.45706 5.45578 5.7673 5.17813 6.10523L3.89037 5.04719C4.23693 4.62538 4.6241 4.23821 5.04591 3.89165ZM2.98136 6.40515L4.45055 7.19207C4.24619 7.57363 4.07806 7.97705 3.95057 8.39786L2.35551 7.9146C2.51521 7.38746 2.72573 6.88241 2.98136 6.40515ZM2.03822 9.51765C2.01205 9.78654 1.99866 10.0592 1.99866 10.3349C1.99866 10.6107 2.01205 10.8833 2.03822 11.1522L3.69705 10.9908C3.67609 10.7755 3.66532 10.5567 3.66532 10.3349C3.66532 10.1132 3.67609 9.89441 3.69705 9.67909L2.03822 9.51765ZM2.35551 12.7553L3.95057 12.272C4.07806 12.6928 4.24619 13.0963 4.45055 13.4778L2.98136 14.2647C2.72573 13.7875 2.51521 13.2824 2.35551 12.7553ZM3.89037 15.6227L5.17813 14.5646C5.45578 14.9026 5.76602 15.2128 6.10395 15.4905L5.04591 16.7782C4.6241 16.4317 4.23693 16.0445 3.89037 15.6227ZM6.40387 17.6872L7.19079 16.218C7.57235 16.4224 7.97577 16.5905 8.39657 16.718L7.91331 18.3131C7.38618 18.1534 6.88113 17.9429 6.40387 17.6872ZM9.51637 18.6304L9.67781 16.9715C9.89313 16.9925 10.1119 17.0033 10.3337 17.0033C10.5554 17.0033 10.7742 16.9925 10.9895 16.9715L11.1509 18.6304C10.8821 18.6565 10.6094 18.6699 10.3337 18.6699C10.0579 18.6699 9.78526 18.6565 9.51637 18.6304ZM12.754 18.3131L12.2707 16.718C12.6915 16.5905 13.095 16.4224 13.4765 16.218L14.2634 17.6872C13.7862 17.9429 13.2811 18.1534 12.754 18.3131ZM15.6214 16.7782L14.5634 15.4905C14.9013 15.2128 15.2115 14.9026 15.4892 14.5646L16.7769 15.6227C16.4304 16.0445 16.0432 16.4317 15.6214 16.7782ZM17.686 14.2647L16.2168 13.4778C16.4211 13.0963 16.5893 12.6928 16.7167 12.272L18.3118 12.7553C18.1521 13.2824 17.9416 13.7875 17.686 14.2647Z" fill="black"/>
</svg>
