<svg xmlns="http://www.w3.org/2000/svg" width="29.816" height="30.316" viewBox="0 0 29.816 30.316">
  <g id="Group_160350" data-name="Group 160350" transform="translate(13296.419 9386)">
    <path id="Path_253488" data-name="Path 253488" d="M23.347-88.106h-5.2a.624.624,0,0,1-.65-.65V-97.85a.624.624,0,0,1,.65-.65h5.2a.7.7,0,0,1,.65.65v9.095A.7.7,0,0,1,23.347-88.106Zm-4.547-1.3h3.9v-7.8H18.8Z" transform="translate(-13313.919 -9267.578)" fill="#b5b5b5" fill-rule="evenodd"/>
    <path id="Path_253489" data-name="Path 253489" d="M46.237-88.8H24.15a.624.624,0,0,1-.65-.65.624.624,0,0,1,.65-.65H45.263c-.974-1.191-4.439-2.6-8.77-2.6H27.4a.624.624,0,0,1-.65-.65A.624.624,0,0,1,27.4-94h9.095c4.872,0,10.394,1.841,10.394,4.547A.7.7,0,0,1,46.237-88.8Z" transform="translate(-13314.722 -9268.18)" fill="#b5b5b5" fill-rule="evenodd"/>
    <path id="Path_253490" data-name="Path 253490" d="M33.4-93.535l-.221-.2a6.026,6.026,0,0,0-4.534-2.038H24V-97h4.644a7.22,7.22,0,0,1,5.529,2.446l.221.2Z" transform="translate(-13314.789 -9267.778)" fill="#b5b5b5" fill-rule="evenodd"/>
    <path id="Path_253491" data-name="Path 253491" d="M43.72-97.68c-.11,0-.22-.109-.329-.109l-6.915-5-2.415,1.74-.768-1.088,2.744-1.958a.534.534,0,0,1,.768,0l5.708,4.024-2.305-6.852a.669.669,0,0,1,.22-.761l5.379-4.351H39.329c-.22,0-.549-.109-.549-.435l-2.305-6.417-2.305,6.417a.6.6,0,0,1-.659.435H27.035l5.488,4.351a.887.887,0,0,1,.11.761l-1.317,4.133L30-103.118l1.317-3.807-6.476-5.221a.669.669,0,0,1-.22-.761.741.741,0,0,1,.659-.435h7.794l2.744-7.722a.6.6,0,0,1,.659-.435.559.559,0,0,1,.549.435l2.744,7.722h7.9a.728.728,0,0,1,.549.435.669.669,0,0,1-.22.761l-6.367,5.221,2.744,8.375a.717.717,0,0,1-.22.761C44.049-97.789,43.83-97.68,43.72-97.68Z" transform="translate(-13314.866 -9264.5)" fill="#b5b5b5" fill-rule="evenodd"/>
  </g>
</svg>
