<svg version="1.0" xmlns="http://www.w3.org/2000/svg" x="0px" y="0px" width="27" height="27">
  <g id="Layer_1">
    <g>
      <path fill-rule="evenodd" clip-rule="evenodd" d="M0.691,13.224C0.768,5.979,6.602,0.182,13.774,0.236 c7.174,0.049,12.984,5.965,12.888,13.118c-0.095,7.315-5.735,12.882-12.975,12.858C6.201,26.189,0.694,20.199,0.691,13.224z M21.201,22.561c0.673-0.722,1.363-1.317,1.876-2.04c2.854-4.018,3.311-8.295,1.114-12.738c-2.222-4.497-7.27-7.041-12.218-6.29 C6.144,2.378,1.896,7.27,1.842,13.099c-0.038,3.712,1.473,6.735,4.203,9.186c0.089,0.084,0.306,0.127,0.403,0.074 c1.102-0.594,2.209-1.182,3.274-1.834c0.751-0.46,0.979-2.002,0.551-2.79c-0.598-1.107-1.194-2.224-1.68-3.386 c-0.282-0.676-0.374-1.441-0.504-2.174c-0.138-0.774-0.114-0.78,0.442-1.042c0.083-1.102,0.12-2.136,0.256-3.163 C8.897,7.155,9.19,6.385,9.83,5.817c1.631-1.449,3.534-1.692,5.572-1.176c1.896,0.486,3.036,1.699,3.233,3.685 c0.093,0.933,0.103,1.872,0.141,2.646c0.236,0.268,0.582,0.491,0.555,0.647c-0.181,1.019-0.424,2.021-0.684,3.021 c-0.066,0.256-0.28,0.469-0.392,0.72c-0.274,0.618-0.469,1.289-0.811,1.867c-0.36,0.585-0.462,1.184-0.489,1.846 c-0.03,0.665,0.211,1.136,0.762,1.461C18.851,21.202,19.989,21.858,21.201,22.561z"/>
    </g>
  </g>
</svg>
