<svg xmlns="http://www.w3.org/2000/svg" width="13.044" height="13.045" viewBox="0 0 13.044 13.045">
  <path id="Path_250546" data-name="Path 250546" d="M88.121,20.945a3.6,3.6,0,0,0-2.685,1.23l-.05.055-.047-.052a3.545,3.545,0,0,0-5.37,0,4.507,4.507,0,0,0,0,5.91l5.267,5.832a.2.2,0,0,0,.306,0l5.064-5.607a.2.2,0,0,0,.024-.033l.176-.195h0a4.507,4.507,0,0,0,0-5.91,3.6,3.6,0,0,0-2.685-1.23ZM90.5,27.783l-.2.225a.207.207,0,0,0-.025.033l-4.884,5.408-5.114-5.662a4.047,4.047,0,0,1,0-5.305,3.137,3.137,0,0,1,4.758,0l.2.221a.21.21,0,0,0,.306,0l.2-.225a3.137,3.137,0,0,1,4.758,0,4.047,4.047,0,0,1,0,5.305Z" transform="translate(-78.866 -20.945)" fill="#505050"/>
</svg>
