<svg xmlns="http://www.w3.org/2000/svg" width="32" height="30" viewBox="0 0 32 30" fill="none">
  <path fill-rule="evenodd" clip-rule="evenodd" d="M1.30035 28.6932H12.9849V16.9288H1.30035V28.6932ZM13.6307 30H0.65106C0.482416 29.9887 0.323053 29.9162 0.203456 29.7959C0.0838594 29.6757 0.0114644 29.5159 0 29.3461V16.2768C0.0116745 16.1072 0.0838796 15.9475 0.203456 15.8275C0.323033 15.7074 0.482561 15.635 0.65106 15.6237H13.6307C13.7992 15.635 13.9587 15.7074 14.0783 15.8275C14.1979 15.9475 14.2701 16.1072 14.2817 16.2768V29.3461C14.2702 29.5163 14.1976 29.6765 14.0774 29.7968C13.9572 29.9171 13.7972 29.9893 13.628 30H13.6307ZM18.1297 28.6932H29.8143V16.9288H18.1297V28.6932ZM30.46 30H17.4787C17.3103 29.9885 17.1521 29.9158 17.0328 29.7956C16.9136 29.6754 16.8415 29.5156 16.8303 29.3461V16.2768C16.8417 16.1074 16.9136 15.9479 17.0328 15.8278C17.1521 15.7078 17.3104 15.6353 17.4787 15.6237H30.46C30.6285 15.635 30.7872 15.7074 30.9068 15.8275C31.0263 15.9475 31.0994 16.1072 31.1111 16.2768V29.3461C31.0997 29.5157 31.0271 29.6755 30.9077 29.7957C30.7882 29.9159 30.6285 29.9885 30.46 30ZM10.4002 13.0694H22.0237V1.30505H10.4002V13.0694ZM22.6694 14.3771H9.7544C9.58643 14.3652 9.42819 14.2923 9.30945 14.1721C9.19071 14.0519 9.11961 13.8924 9.10865 13.7232V0.653916C9.11961 0.484741 9.19071 0.325273 9.30945 0.205059C9.42819 0.0848444 9.58643 0.011986 9.7544 0H22.6694C22.8374 0.0121737 22.9948 0.0851048 23.1135 0.205281C23.2322 0.325458 23.304 0.484807 23.3152 0.653916V13.7232C23.304 13.8923 23.2322 14.0517 23.1135 14.1719C22.9948 14.292 22.8374 14.365 22.6694 14.3771ZM3.27122 23.4722C3.10339 23.4609 2.94521 23.3886 2.82627 23.2688C2.70733 23.1491 2.63583 22.99 2.62459 22.8211V18.915C2.63583 18.7461 2.70733 18.5869 2.82627 18.4672C2.94521 18.3474 3.10339 18.2752 3.27122 18.2639H7.15016C7.32169 18.2639 7.4862 18.3325 7.60749 18.4546C7.72878 18.5767 7.7968 18.7423 7.7968 18.915C7.7968 19.0877 7.72878 19.2534 7.60749 19.3755C7.4862 19.4976 7.32169 19.5662 7.15016 19.5662H3.91786V22.8211C3.90661 22.99 3.83511 23.1491 3.71617 23.2688C3.59723 23.3886 3.43905 23.4609 3.27122 23.4722ZM12.3047 7.84833C12.1371 7.83685 11.9795 7.76469 11.8606 7.64517C11.7417 7.52565 11.6697 7.36683 11.658 7.19809V3.29218C11.6695 3.12328 11.7417 2.96426 11.8606 2.84455C11.9795 2.72484 12.1369 2.65256 12.3047 2.64105H16.1845C16.2714 2.63777 16.358 2.65213 16.4393 2.68335C16.5205 2.71457 16.5951 2.76198 16.6578 2.82273C16.7204 2.88347 16.7697 2.95634 16.8037 3.03692C16.8377 3.11749 16.8559 3.20418 16.8559 3.29174C16.8559 3.3793 16.8377 3.46598 16.8037 3.54656C16.7697 3.62713 16.7204 3.7 16.6578 3.76074C16.5951 3.82149 16.5205 3.8689 16.4393 3.90012C16.358 3.93134 16.2714 3.9457 16.1845 3.94242H12.9513V7.19809C12.9399 7.3669 12.8685 7.52583 12.7496 7.64539C12.6307 7.76495 12.4724 7.83704 12.3047 7.84833ZM20.1006 23.4722C19.9328 23.4609 19.7746 23.3886 19.6556 23.2688C19.5367 23.1491 19.4652 22.99 19.454 22.8211V18.915C19.4652 18.7461 19.5367 18.5869 19.6556 18.4672C19.7746 18.3474 19.9328 18.2752 20.1006 18.2639H23.9804C24.1519 18.2639 24.3165 18.3325 24.4377 18.4546C24.559 18.5767 24.627 18.7423 24.627 18.915C24.627 19.0877 24.559 19.2534 24.4377 19.3755C24.3165 19.4976 24.1519 19.5662 23.9804 19.5662H20.7472V22.8211C20.7358 22.99 20.6636 23.149 20.5447 23.2687C20.4258 23.3884 20.2684 23.4607 20.1006 23.4722Z" fill="#A100FF"/>
</svg>