<svg xmlns="http://www.w3.org/2000/svg" width="24" height="24" fill="none" viewBox="0 0 24 24">
  <path fill="#000" fill-rule="evenodd" d="M6.556 19.306a.529.529 0 0 1-.278-.139L2.105 14.99a.423.423 0 0 1 0-.557.39.39 0 0 1 .625 0l3.826 3.83.904-1.323a.362.362 0 0 1 .556-.07.437.437 0 0 1 .14.557l-1.252 1.671c-.07.14-.14.21-.279.21h-.069Zm3.285-4.28 7.47-10.368a.376.376 0 0 0-.14-.557.37.37 0 0 0-.558.07l-7.4 10.367a.367.367 0 0 0 .07.557.255.255 0 0 0 .209.07.536.536 0 0 0 .349-.14Zm1.69 4.071L21.925 4.658a.423.423 0 0 0-.07-.558.442.442 0 0 0-.627.07L11.183 18.259l-3.837-3.837a.393.393 0 0 0-.628 0 .425.425 0 0 0 0 .559l4.186 4.185c.095.087.22.136.349.139.138.001.208-.068.278-.208Z" clip-rule="evenodd"/>
</svg>
