<svg xmlns="http://www.w3.org/2000/svg" width="24" height="24" fill="none" viewBox="0 0 24 24">
  <path fill="#000" fill-rule="evenodd" d="M10.21 17.072a.395.395 0 0 1-.304-.153l-4.549-4.557a.427.427 0 0 1 0-.684.461.461 0 0 1 .606 0l4.17 4.254 11.07-13.747a.48.48 0 0 1 .683-.076.568.568 0 0 1 0 .683L10.513 16.92a.395.395 0 0 1-.303.153Zm9.06 4.309V10.899a.437.437 0 0 0-.454-.456.402.402 0 0 0-.454.456v10.025H2.913V5.43h10.905a.489.489 0 0 0 .454-.455.437.437 0 0 0-.454-.457H2.458a.403.403 0 0 0-.454.457V21.38a.437.437 0 0 0 .455.455h16.357a.49.49 0 0 0 .454-.455Z" clip-rule="evenodd"/>
</svg>
