<svg xmlns="http://www.w3.org/2000/svg" width="24" height="24" fill="none" viewBox="0 0 24 24">
  <path fill="#000" fill-rule="evenodd" d="m3.007 13.79 5.208 5.272L20.993 6.296l-2.361-2.29L8.567 14.069a.391.391 0 0 1-.625 0L5.303 11.5l-2.296 2.29Zm5.208 6.244a.277.277 0 0 1-.277-.14l-5.834-5.827a.422.422 0 0 1 0-.555l2.917-2.915a.522.522 0 0 1 .625 0l2.57 2.637 10.138-10.13a.522.522 0 0 1 .625 0l2.916 2.914a.42.42 0 0 1 0 .555L8.563 19.895c-.067.139-.206.139-.345.139h-.003Z" clip-rule="evenodd"/>
</svg>
