<svg xmlns="http://www.w3.org/2000/svg" width="24" height="24" fill="none" viewBox="0 0 24 24">
  <path fill="#000" fill-rule="evenodd" d="M21.845 21.302a.395.395 0 0 1 0 .626c-.07.07-.139.07-.278.07a.42.42 0 0 1-.278-.07l-9.314-9.32-9.314 9.32c-.07.07-.14.07-.279.07a.418.418 0 0 1-.278-.07.522.522 0 0 1 0-.626l9.28-9.286-9.28-9.286a.522.522 0 0 1 0-.626.423.423 0 0 1 .557 0l9.314 9.32 9.314-9.32a.423.423 0 0 1 .556 0 .395.395 0 0 1 0 .626l-9.279 9.286 9.279 9.286Z" clip-rule="evenodd"/>
</svg>
