<svg xmlns="http://www.w3.org/2000/svg" width="24" height="24" fill="none" viewBox="0 0 24 24">
  <path fill="#000" fill-rule="evenodd" d="M2.618 9.354A.59.59 0 0 1 2 8.825V3.536a.59.59 0 0 1 .618-.53h5.83a.536.536 0 1 1 0 1.059H3.235v4.76a.59.59 0 0 1-.618.53ZM22 8.825V3.536a.59.59 0 0 0-.619-.53h-5.83a.536.536 0 1 0 0 1.059h5.3v4.76a.569.569 0 0 0 .945.388.591.591 0 0 0 .204-.388ZM9.065 20.557a.592.592 0 0 0-.618-.534h-5.21v-4.806a.625.625 0 0 0-1.237 0v5.34a.592.592 0 0 0 .618.534h5.83a.592.592 0 0 0 .617-.533v-.001Zm12.935 0v-5.34a.592.592 0 0 0-.619-.534.572.572 0 0 0-.53.534v4.806h-5.3a.539.539 0 0 0-.62.534.54.54 0 0 0 .62.534h5.83a.593.593 0 0 0 .619-.533v-.001Z" clip-rule="evenodd"/>
</svg>
