<svg xmlns="http://www.w3.org/2000/svg" width="24" height="24" fill="none" viewBox="0 0 24 24">
  <path fill="#000" fill-rule="evenodd" d="M8.426 9.091h-5.84A.565.565 0 0 1 2 8.501a.632.632 0 0 1 .584-.59h5.257V2.605a.584.584 0 1 1 1.168 0V8.5a.564.564 0 0 1-.584.59Zm13.478-.59a.632.632 0 0 0-.584-.59h-5.256V2.605a.564.564 0 0 0-.585-.59.632.632 0 0 0-.584.59V8.5a.564.564 0 0 0 .584.59h5.84a.565.565 0 0 0 .585-.59ZM9.01 21.395V15.5a.631.631 0 0 0-.584-.59h-5.84A.63.63 0 0 0 2 15.5a.564.564 0 0 0 .584.59h5.257v5.306a.584.584 0 1 0 1.168 0Zm7.054 0V16.09h5.256a.562.562 0 0 0 .584-.59.631.631 0 0 0-.584-.59h-5.841a.631.631 0 0 0-.584.59v5.896a.564.564 0 0 0 .584.59.52.52 0 0 0 .585-.588v-.002Z" clip-rule="evenodd"/>
</svg>
