<svg xmlns="http://www.w3.org/2000/svg" width="24" height="24" fill="none" viewBox="0 0 24 24">
  <path fill="#000" fill-rule="evenodd" d="M21.997 7.985a2.54 2.54 0 0 0-2.523-2.456 2.476 2.476 0 0 1-3.754-1.264 2.457 2.457 0 0 0-1.384.432 2.457 2.457 0 0 0-4.673 0 2.443 2.443 0 0 0-1.382-.435 2.53 2.53 0 0 0-2.49 2.501v1.219H4.5c-1.667 0-2.5 1.563-2.5 3.126v1.25c0 3.439 1.876 9.378 8.959 9.378h4.166A6.937 6.937 0 0 0 22 14.859V7.982l-.003.003Zm-1.247 6.877a5.602 5.602 0 0 1-5.627 5.627h-4.166c-7.5 0-7.709-7.295-7.709-8.129v-1.25c0-.729.313-1.875 1.25-1.875h1.29v1.908h1.245V6.766a1.244 1.244 0 0 1 2.474-.193v.222h.017V8.02h1.246V6.769c0-.057-.013-.111-.018-.167V5.53a1.245 1.245 0 0 1 2.138-.9 1.247 1.247 0 0 1 .354.9v1.05c-.005.056-.018.11-.018.167v1.24h1.245V6.792h.018v-.24a1.244 1.244 0 0 1 2.474.193v1.104c-.004.056-.018.11-.018.165V9.88h1.263V8.014a1.263 1.263 0 0 1 2.527 0V9.88h.013l.002 4.983Z" clip-rule="evenodd"/>
</svg>
