<svg xmlns="http://www.w3.org/2000/svg" width="24" height="24" fill="none" viewBox="0 0 24 24">
  <path fill="#000" fill-rule="evenodd" d="M8.503 20.125a3.257 3.257 0 0 0 2.43 1.041h2.916c2.224 0 3.334-1.527 3.334-4.722a5.078 5.078 0 0 1 .555-2.292l1.805-3.403a.675.675 0 0 0 .07-.625.523.523 0 0 0-.346-.486.709.709 0 0 0-.625-.139c-.226.074-.422.22-.556.417l-2.224 3.541a.54.54 0 0 1-.555.14.337.337 0 0 1-.209-.417l1.32-7.364a.929.929 0 0 0-.07-.626 1.081 1.081 0 0 0-.555-.416 1.032 1.032 0 0 0-.625.139.708.708 0 0 0-.346.555l-1.458 6.181a.389.389 0 0 1-.417.346.44.44 0 0 1-.345-.416V3.662a.844.844 0 0 0-.833-.834.802.802 0 0 0-.834.834v7.917a.448.448 0 0 1-.416.416.388.388 0 0 1-.417-.345L8.714 5.12a.935.935 0 0 0-.417-.486.667.667 0 0 0-.625-.139.886.886 0 0 0-.486.346.708.708 0 0 0-.139.625v.07l1.389 9.306a.433.433 0 0 1-.278.416.326.326 0 0 1-.417-.07l-2.5-2.152c-.182-.13-.4-.203-.624-.208a.631.631 0 0 0-.556.277.803.803 0 0 0 .07 1.181v.07l4.372 5.768ZM13.849 22h-2.915a4.142 4.142 0 0 1-3.056-1.32l-4.374-5.832a1.637 1.637 0 0 1-.07-2.291A1.483 1.483 0 0 1 4.614 12c.43 0 .847.148 1.181.417l1.597 1.458-1.18-8.195a1.546 1.546 0 0 1 .278-1.25 1.556 1.556 0 0 1 2.29-.486 1.57 1.57 0 0 1 .693 1.042l.625 2.708V3.667a1.642 1.642 0 0 1 1.025-1.546 1.64 1.64 0 0 1 .641-.12 1.69 1.69 0 0 1 1.666 1.666v4.167l.556-2.57c.095-.42.343-.792.694-1.042a1.624 1.624 0 0 1 1.25-.208c.448.076.847.325 1.111.695.203.383.276.821.209 1.25l-.972 5.278 1.11-1.806c.25-.352.621-.6 1.042-.695a1.559 1.559 0 0 1 1.25.14c.37.245.64.614.763 1.041.074.428 0 .869-.208 1.25L18.5 14.501a3.854 3.854 0 0 0-.486 1.944C18.016 20.125 16.558 22 13.85 22Z" clip-rule="evenodd"/>
</svg>
