<svg xmlns="http://www.w3.org/2000/svg" width="24" height="24" fill="none" viewBox="0 0 24 24">
  <path fill="#000" fill-rule="evenodd" d="M20.369 7.159a2.074 2.074 0 0 0-2.046-2.047 1.987 1.987 0 0 0-1.009.287v-.32a2.072 2.072 0 0 0-2.046-2.042c-.424.003-.836.14-1.178.392a2.024 2.024 0 0 0-3.857-.038 2.014 2.014 0 0 0-1.132-.354 2.074 2.074 0 0 0-2.046 2.044v4.124H6.046A2.075 2.075 0 0 0 4 11.252v4.095C4 17.564 7.155 22 11.332 22h3.41a5.677 5.677 0 0 0 5.627-5.63V7.16Zm-1.023 9.212a4.586 4.586 0 0 1-4.603 4.606h-3.41c-3.411 0-6.31-3.754-6.31-5.63v-4.098a.985.985 0 0 1 1.023-1.023h1.01v4.048h1.022V5.08a1.022 1.022 0 0 1 2.032-.16v3.246h.014v2.023h1.023v-5.11c0-.046-.01-.09-.014-.137v-.888a1.024 1.024 0 1 1 2.046 0v4.112h.043v2.017h1.023V5.075a1.023 1.023 0 0 1 2.047 0v1.94c-.004.047-.015.092-.015.139v4.092H17.3V10.18h.014V6.996a1.022 1.022 0 0 1 2.032.158v9.216Z" clip-rule="evenodd"/>
</svg>
