<svg xmlns="http://www.w3.org/2000/svg" width="24" height="24" fill="none" viewBox="0 0 24 24">
  <path fill="#000" fill-rule="evenodd" d="M17.871 6.411c-.31.004-.613.09-.877.25V5.535a1.756 1.756 0 0 0-2.657-1.531V3.78A1.757 1.757 0 0 0 12.557 2a1.805 1.805 0 0 0-1.779 1.78v.225a1.783 1.783 0 0 0-.913-.25 1.805 1.805 0 0 0-1.779 1.78v7.713L6.53 11.394c0-.074 0-.074-.074-.074a1.48 1.48 0 0 0-2.002.074 1.574 1.574 0 0 0-.222 1.928c.222.37 2 4.08 3.484 6.379A4.887 4.887 0 0 0 11.793 22h2.965a4.89 4.89 0 0 0 4.892-4.895V8.203a1.762 1.762 0 0 0-1.779-1.792Zm.89 10.694a3.986 3.986 0 0 1-4.003 4.005h-2.965a4.09 4.09 0 0 1-3.336-1.854 55.512 55.512 0 0 1-3.41-6.379.074.074 0 0 1-.053-.021.072.072 0 0 1-.021-.053.571.571 0 0 1 .074-.74.586.586 0 0 1 .815-.074l2.373 2.744c.074.148.296.148.444.074.223 0 .297-.222.297-.37v-8.9a.899.899 0 0 1 .89-.89.857.857 0 0 1 .889.89v5.341h.89v-1.76h.023V3.78a.899.899 0 0 1 .89-.89.857.857 0 0 1 .89.89v1.636c0 .04-.013.078-.013.119v5.338h.89V9.118h.012V5.416a.902.902 0 0 1 .877-.773.857.857 0 0 1 .89.89v2.549c-.003.04-.013.079-.013.12v4.032h.89v-1.363h.013V8.085a.905.905 0 0 1 1.224-.72.86.86 0 0 1 .543.837v8.903Z" clip-rule="evenodd"/>
</svg>
