<svg xmlns="http://www.w3.org/2000/svg" width="24" height="24" fill="none" viewBox="0 0 24 24">
  <path fill="#000" d="M18.198 9.269h-.983a1.317 1.317 0 0 0-1.284-.91h-1.435a1.317 1.317 0 0 0-1.284-.909h-1.36V3.813a1.813 1.813 0 0 0-3.626 0v9.472l-1.662-1.44a1.607 1.607 0 0 0-2.116.076 1.507 1.507 0 0 0-.151 1.97c.227.378 3.626 6.138 4.912 7.881a.415.415 0 0 0 .378.228h8.159a.48.48 0 0 0 .454-.378l1.435-5.077c.236-.865.363-1.755.378-2.652V11.09a1.841 1.841 0 0 0-1.815-1.82Zm.906 4.622a8.018 8.018 0 0 1-.302 2.349l-1.36 4.85h-7.63c-1.435-1.97-4.684-7.578-4.76-7.654v-.075a.576.576 0 0 1 .076-.756.54.54 0 0 1 .831-.076l2.418 2.046a.445.445 0 0 0 .528.076.417.417 0 0 0 .227-.378V3.816a.907.907 0 0 1 1.813 0v4.091a.32.32 0 0 0 .01.044v2.693h.921V8.362h1.336a.486.486 0 0 1 .453.455v1.827h.92V9.269h1.344a.486.486 0 0 1 .452.451h-.005v1.842h.92v-1.384h.9a.876.876 0 0 1 .906.91l.002 2.803Z"/>
</svg>
