<svg xmlns="http://www.w3.org/2000/svg" width="24" height="24" fill="none" viewBox="0 0 24 24">
  <path fill="#000" fill-rule="evenodd" d="M21.839 21.305 17.71 17.16l2.325-1.013a.45.45 0 0 0 0-.833l-7.083-2.916a.49.49 0 0 0-.555.556l2.915 7.082a.452.452 0 0 0 .833 0l1.012-2.32 4.128 4.145a.518.518 0 0 0 .276.139.358.358 0 0 0 .276-.139.325.325 0 0 0 0-.556Zm-6.108-2.45-2.153-5.277 5.277 2.152-1.908.855a.312.312 0 0 0-.127.055.174.174 0 0 0-.18.18.31.31 0 0 0-.054.126l-.855 1.909ZM2.842 6.59H2V4.904h.843V6.59Zm0 3.325H2V8.277h.843v1.638Zm0 3.325H2v-1.639h.843v1.64Zm13.302-6.65h-.843V4.904h.843V6.59Zm-.843 1.686h.843v1.64h-.843v-1.64ZM2.843 15.333h.422v.812h-.843A.445.445 0 0 1 2 15.738v-.812h.843v.407ZM2.422 2h.843v.843h-.422v.422H2v-.843a.453.453 0 0 1 .422-.42V2Zm2.482 0H6.59v.843H4.904V2Zm3.372 0h1.64v.843h-1.64V2ZM4.904 15.302H6.59v.843H4.904v-.843Zm3.372 0h1.64v.843h-1.64v-.843Zm4.965-12.459H11.6v-.841h1.64v.841Zm2.092 0h-.406v-.841h.812a.445.445 0 0 1 .406.421v.843h-.812v-.423Z" clip-rule="evenodd"/>
</svg>
