<svg xmlns="http://www.w3.org/2000/svg" width="24" height="24" fill="none" viewBox="0 0 24 24">
  <path fill="#000" fill-rule="evenodd" d="M10.192 21.166h6.112l.764-4.232c.14-.625 0-1.388-.625-1.596l-3.68-1.249a.467.467 0 0 1-.278-.416V8.677a.801.801 0 0 0-.834-.833.896.896 0 0 0-.834.833v9.159a.468.468 0 0 1-.277.416c-.209.07-.346 0-.487-.208-1.597-2.498-2.361-2.706-2.986-2.706-.14 0-.14.07-.208.07-.053.33-.005.668.138.97l3.195 4.788Zm6.46.833H9.984a.381.381 0 0 1-.346-.208l-3.334-4.996a1.89 1.89 0 0 1-.139-1.735.931.931 0 0 1 .904-.554c.902 0 1.736.345 2.915 2.011v-7.84a1.667 1.667 0 0 1 3.334 0v4.718l3.403 1.11c1.111.346 1.39 1.596 1.181 2.568l-.834 4.579a.389.389 0 0 1-.416.347Zm1.23-13.348h-2.494a.398.398 0 1 1 0-.796h2.494a.398.398 0 1 1 0 .796Zm-3.335-2.482a.528.528 0 0 1-.279-.14.423.423 0 0 1 0-.557l1.671-1.67a.395.395 0 0 1 .557.557l-1.67 1.67a.361.361 0 0 1-.28.14Zm-2.479-.843a.45.45 0 0 1-.421-.416V2.416a.45.45 0 0 1 .421-.415.402.402 0 0 1 .422.415V4.91a.402.402 0 0 1-.421.416Zm-3.344.843a.526.526 0 0 1-.278-.14L6.775 4.36a.424.424 0 0 1 0-.557.325.325 0 0 1 .557 0l1.67 1.67a.326.326 0 0 1 0 .557.362.362 0 0 1-.278.14ZM7.906 8.65H5.412a.398.398 0 1 1 0-.796h2.494a.398.398 0 1 1 0 .796Z" clip-rule="evenodd"/>
</svg>
