<svg xmlns="http://www.w3.org/2000/svg" width="24" height="24" fill="none" viewBox="0 0 24 24">
  <path fill="#000" fill-rule="evenodd" d="M21.568 11.585h-1.253a8.248 8.248 0 0 0-2.4-5.473 8.294 8.294 0 0 0-5.474-2.427v-1.25A.42.42 0 0 0 12 2a.473.473 0 0 0-.441.435v1.25a8.347 8.347 0 0 0-5.46 2.44 8.302 8.302 0 0 0-2.414 5.46H2.432a.417.417 0 0 0-.305.714.417.417 0 0 0 .305.117h1.253a8.356 8.356 0 0 0 2.428 5.445 8.4 8.4 0 0 0 5.446 2.453v1.251A.47.47 0 0 0 12 22a.422.422 0 0 0 .441-.434v-1.25a8.347 8.347 0 0 0 5.46-2.44 8.302 8.302 0 0 0 2.414-5.46h1.253A.419.419 0 0 0 22 12a.414.414 0 0 0-.432-.415Zm-2.12 0h-3.25a4.193 4.193 0 0 0-1.211-2.537 4.214 4.214 0 0 0-2.544-1.207V4.555a7.46 7.46 0 0 1 4.846 2.182 7.419 7.419 0 0 1 2.154 4.848h.004Zm-7.887 0H8.783a3.301 3.301 0 0 1 .908-1.895 3.317 3.317 0 0 1 1.87-.967v2.862Zm0 .83v2.815a3.244 3.244 0 0 1-1.872-.934 3.229 3.229 0 0 1-.91-1.88h2.782Zm.882 0h2.879a3.236 3.236 0 0 1-.947 1.91 3.253 3.253 0 0 1-1.932.911v-2.82Zm0-.83V8.717a3.315 3.315 0 0 1 2.876 2.868h-2.876Zm-.882-7.03v3.292a4.207 4.207 0 0 0-2.483 1.232 4.186 4.186 0 0 0-1.174 2.506H4.557A7.477 7.477 0 0 1 6.724 6.75a7.517 7.517 0 0 1 4.833-2.195h.004Zm-7.004 7.86h3.346c.093.94.507 1.82 1.173 2.492a4.133 4.133 0 0 0 2.485 1.199v3.339a7.517 7.517 0 0 1-4.838-2.193 7.477 7.477 0 0 1-2.17-4.836h.004Zm7.886 7.03v-3.334a4.14 4.14 0 0 0 2.545-1.174 4.123 4.123 0 0 0 1.21-2.521h3.25a7.42 7.42 0 0 1-2.157 4.85 7.46 7.46 0 0 1-4.852 2.18h.004Z" clip-rule="evenodd"/>
</svg>
