<svg xmlns="http://www.w3.org/2000/svg" width="24" height="24" fill="none" viewBox="0 0 24 24">
  <path fill="#000" fill-rule="evenodd" d="M21.57 11.586h-2.137a7.478 7.478 0 0 0-2.152-4.855 7.52 7.52 0 0 0-4.84-2.213V2.435a.47.47 0 0 0-.44-.435.423.423 0 0 0-.442.435v2.081a7.586 7.586 0 0 0-4.885 2.198 7.545 7.545 0 0 0-2.204 4.87H2.432a.418.418 0 0 0-.399.579.416.416 0 0 0 .399.253h2.037a7.476 7.476 0 0 0 2.203 4.856 7.518 7.518 0 0 0 4.886 2.163v2.13a.418.418 0 0 0 .441.434.472.472 0 0 0 .442-.434v-2.13a7.452 7.452 0 0 0 4.84-2.178 7.41 7.41 0 0 0 2.152-4.84h2.135a.418.418 0 0 0 .399-.577.416.416 0 0 0-.399-.254h.001Zm-9.128 6.982v-2a.47.47 0 0 0-.442-.435.423.423 0 0 0-.441.435v2.001a6.636 6.636 0 0 1-4.275-1.905 6.6 6.6 0 0 1-1.945-4.247h2.106a.417.417 0 0 0 .305-.715.417.417 0 0 0-.305-.117H5.34A6.61 6.61 0 0 1 7.271 7.31a6.648 6.648 0 0 1 4.288-1.926v2.05A.419.419 0 0 0 12 7.87a.473.473 0 0 0 .442-.435V5.386c1.6.12 3.102.813 4.228 1.954a6.601 6.601 0 0 1 1.893 4.245h-2.007a.418.418 0 0 0-.399.579.418.418 0 0 0 .399.253h2.008a6.589 6.589 0 0 1-1.906 4.218 6.625 6.625 0 0 1-4.216 1.933Z" clip-rule="evenodd"/>
</svg>
