<svg xmlns="http://www.w3.org/2000/svg" width="24" height="24" fill="none" viewBox="0 0 24 24">
  <path fill="#000" fill-rule="evenodd" d="M6.854 5.75a.491.491 0 0 0 .578-.288 3.774 3.774 0 0 1 3.463-2.595 3.836 3.836 0 0 1 3.68 3.892v.524c-6.028-.57-7.342 2.168-7.553 3.078a3.633 3.633 0 0 0 2.022 4.328c.4.205.848.304 1.298.288 1.11 0 2.642-.479 4.234-2.505.006 1.22.726 2.505 1.946 2.505a.431.431 0 0 0 .306-.738.433.433 0 0 0-.306-.127c-.649 0-1.082-.865-1.082-1.657V6.758C15.44 4.235 13.35 2 10.895 2a4.62 4.62 0 0 0-4.257 3.172.454.454 0 0 0 .216.578Zm2.55 8.148a2.876 2.876 0 0 1-1.589-3.319c.555-1.871 3.045-2.807 6.76-2.43v2.797c-1.642 2.557-3.614 3.657-5.171 2.95v.002Zm12.551 3.594-2.017 3.32a.396.396 0 0 1-.36.216.263.263 0 0 1-.217-.072.378.378 0 0 1-.144-.578c.575-.976.947-1.608 1.191-2.025a20.079 20.079 0 0 1-18.19-.697.391.391 0 0 1-.211-.426.394.394 0 0 1 .067-.155.377.377 0 0 1 .578-.145 18.978 18.978 0 0 0 9.326 2.397 19.288 19.288 0 0 0 8.428-1.902l-2.702-.8a.461.461 0 0 1-.36-.505.49.49 0 0 1 .577-.288l3.743 1.01c.025.013.04.03.061.042a.485.485 0 0 1 .227.19.57.57 0 0 1 .019.111.346.346 0 0 1-.014.307h-.002Z" clip-rule="evenodd"/>
</svg>
