<svg xmlns="http://www.w3.org/2000/svg" width="24" height="24" fill="none" viewBox="0 0 24 24">
  <path fill="#000" d="M9.903 15.035a.94.94 0 0 0 .442.074 2.582 2.582 0 0 0 2.213-1.473 4.486 4.486 0 0 0 .59-2.725v-.736a.475.475 0 0 0-.443-.442 8.44 8.44 0 0 0-2.064.22c-1.917.516-2.286 1.842-2.286 2.799 0 1.252.59 2.062 1.548 2.283Zm.958-4.27c.461-.098.93-.148 1.401-.148v.294c0 .956 0 1.62-.442 2.284 0 .073 0 .073-.073.073a1.66 1.66 0 0 1-1.623.956c-.59-.148-.885-.663-.885-1.473 0-1.03.516-1.62 1.624-1.987h-.002Zm-6.266 2.43c0 2.724 1.695 4.492 4.275 4.492a5.215 5.215 0 0 0 4.204-1.694c.348.524.77.995 1.252 1.4a.26.26 0 0 1 .149.073 1.202 1.202 0 0 0 1.106-.148c.516-.441 1.475-1.251 1.917-1.693a.9.9 0 0 0 .147-1.252l-.073-.148a2.894 2.894 0 0 1-.812-1.988V7.744c0-1.546 0-3.09-1.253-4.345A7.072 7.072 0 0 0 11.305 2C7.84 2 5.554 3.62 5.038 6.27a.787.787 0 0 0 .22.81c.122.133.274.234.443.296h.074l2.507.294h.147a.938.938 0 0 0 .811-.81 1.7 1.7 0 0 1 1.697-1.252 1.19 1.19 0 0 1 1.032.516c.267.468.37 1.012.295 1.546-3.836.369-7.67 1.18-7.67 5.525Zm8.11-4.64a.476.476 0 0 0 .443-.442v-.368c0-.81 0-1.547-.443-2.136a2.198 2.198 0 0 0-1.77-.883A2.614 2.614 0 0 0 8.35 6.743a.072.072 0 0 1-.068.045l-2.36-.295c.59-3.09 3.613-3.608 5.382-3.608a5.602 5.602 0 0 1 3.614 1.18c.955.956.955 2.21.955 3.683v4.492a3.6 3.6 0 0 0 .959 2.504l.074.147a.073.073 0 0 1 .053.021.073.073 0 0 1 .021.053c-.516.442-1.475 1.252-1.99 1.694h-.15a6.466 6.466 0 0 1-1.032-1.18 1.606 1.606 0 0 0-.293-.368.397.397 0 0 0-.295-.221.562.562 0 0 0-.37.147c-1.252 1.325-2.212 1.767-3.981 1.767-2.064 0-3.392-1.4-3.392-3.608.002-3.39 2.656-4.272 7.228-4.642Zm9.257 10.031c.093 1.105-1.054 2.956-2.326 3.633h-.22a.403.403 0 0 1-.367-.225.499.499 0 0 1 .22-.592 4.364 4.364 0 0 0 1.757-2.226 20.462 20.462 0 0 1-9.195 2.287 17.417 17.417 0 0 1-9.655-2.815c-.22-.073-.22-.37-.073-.592a.382.382 0 0 1 .589-.074c.072.073 7.848 5.535 17.995.337a3.843 3.843 0 0 0-2.883-.103.46.46 0 0 1-.586-.296.42.42 0 0 1 .293-.518c1.604-.634 3.803-.06 4.327.698a.64.64 0 0 1 .09.102.37.37 0 0 1 .033.384Z"/>
</svg>
