<svg xmlns="http://www.w3.org/2000/svg" width="24" height="24" fill="none" viewBox="0 0 24 24">
  <path fill="#000" fill-rule="evenodd" d="M19.866 22c-1.112 0-1.78-.816-1.78-2.224v-.667a1.96 1.96 0 0 1-.89.222 1.804 1.804 0 0 1-1.78-1.78v-.89a.445.445 0 1 1 .89 0v.89a.856.856 0 0 0 .89.89.901.901 0 0 0 .89-.89v-1.78a.446.446 0 0 1 .89 0v4.002c0 1.335.669 1.335.89 1.335.223 0 .89 0 .89-1.335v-6.226c0-1.113-.516-2.447-1.853-2.67a.417.417 0 0 1-.304-.645.417.417 0 0 1 .452-.17c1.558.223 2.596 1.557 2.596 3.485v6.226c0 1.41-.668 2.227-1.78 2.227ZM5.56 19.776v-.667c.268.16.577.238.89.222a1.805 1.805 0 0 0 1.78-1.78v-.89a.445.445 0 0 0-.891 0v.89a.902.902 0 0 1-.89.89.856.856 0 0 1-.89-.89v-1.78a.445.445 0 0 0-.89 0v4.002c0 1.335-.668 1.335-.89 1.335-.223 0-.891 0-.891-1.335v-6.226c0-1.113.445-2.447 1.854-2.67a.416.416 0 0 0 .371-.444c-.075-.296-.296-.445-.516-.37C3.039 10.284 2 11.618 2 13.546v6.226c0 1.41.668 2.225 1.78 2.225 1.114 0 1.78-.815 1.78-2.222Zm6.263-16.884c2.6 0 4.236.595 4.46.892-.224.297-1.859.892-4.46.892-2.676 0-4.312-.595-4.461-.892.15-.297 1.785-.892 4.46-.892Zm5.35.892C17.174 2.372 13.83 2 11.824 2 9.816 2 6.47 2.372 6.47 3.784s3.345 1.784 5.352 1.784 5.351-.372 5.351-1.785Zm-5.8 6.5a.416.416 0 0 0 .448.37.47.47 0 0 0 .445-.37c.224-1.63 1.34-2.297 2.381-2.222 1.042.075 2.084.963 2.084 2.667 0 3.036-3.944 6-4.911 6.74-1.042-.667-4.912-3.481-4.912-6.74 0-1.926 1.042-2.667 2.01-2.74h.15c.969 0 2.01.666 2.308 2.296h-.002Zm.67 8.074c.224-.148 5.581-3.704 5.581-7.63 0-2.297-1.488-3.407-2.902-3.555a3.113 3.113 0 0 0-2.901 1.63 3.16 3.16 0 0 0-2.978-1.704c-1.414.074-2.827 1.26-2.827 3.63 0 4.222 5.357 7.48 5.58 7.629a.374.374 0 0 0 .447 0Z" clip-rule="evenodd"/>
</svg>
