<svg xmlns="http://www.w3.org/2000/svg" width="24" height="24" fill="none" viewBox="0 0 24 24">
  <path fill="#000" fill-rule="evenodd" d="M12 8.01a6.401 6.401 0 0 1-4.44-1.674.37.37 0 0 1-.069-.559.516.516 0 0 1 .625-.07A5.495 5.495 0 0 0 12 7.172a5.956 5.956 0 0 0 3.885-1.465.518.518 0 0 1 .625 0 .444.444 0 0 1-.07.629A6.738 6.738 0 0 1 12 8.009Zm-2.523 2.323a.802.802 0 0 1-.833.834.843.843 0 0 1-.834-.834.897.897 0 0 1 .834-.833.845.845 0 0 1 .833.833Zm.834 0a1.667 1.667 0 1 0-3.334 0 1.667 1.667 0 0 0 3.334 0Zm5.88 0a.802.802 0 0 1-.833.834.845.845 0 0 1-.834-.834.896.896 0 0 1 .834-.833.844.844 0 0 1 .833.833Zm.833 0a1.667 1.667 0 1 0-3.333 0 1.667 1.667 0 0 0 3.333 0Zm4.143 1.644a9.166 9.166 0 0 1-18.16 1.758 9.166 9.166 0 1 1 18.16-1.758Zm.833 0A10 10 0 1 0 12 22a10.015 10.015 0 0 0 10-10.023Zm-7.92 4.602A2.049 2.049 0 0 1 12 18.675a2.093 2.093 0 0 1-2.08-2.096A2.14 2.14 0 0 1 12 14.483a2.094 2.094 0 0 1 2.08 2.095v.001Zm.831 0a2.91 2.91 0 1 0-5.821 0 2.91 2.91 0 0 0 5.821 0Z" clip-rule="evenodd"/>
</svg>
