<svg xmlns="http://www.w3.org/2000/svg" width="24" height="24" fill="none" viewBox="0 0 24 24">
  <path fill="#000" fill-rule="evenodd" d="M10.392 8.364h-.07l-4.775 8.443 1.176.693 4.776-8.444c.069 0 .069-.07 0-.07l-1.107-.622Zm-3.67 9.966a.985.985 0 0 1-.415-.138l-1.176-.623a.823.823 0 0 1-.277-1.177L9.63 7.948a.728.728 0 0 1 .484-.415c.233-.05.475-.025.693.07l1.11.692a.93.93 0 0 1 .415.484.793.793 0 0 1-.07.692l-4.775 8.444a.958.958 0 0 1-.764.415Zm-1.32 1.253.211-.348-.212.348Zm-1.046-.557-.07 1.046.906-.628-.836-.418Zm-.418 2.161a.72.72 0 0 1-.279-.07.56.56 0 0 1-.278-.627l.211-1.745a.733.733 0 0 1 .349-.628.827.827 0 0 1 .696.07l1.185.628a.732.732 0 0 1 .348.628.71.71 0 0 1-.348.558l-1.464 1.046a.513.513 0 0 1-.418.14h-.002Zm13.964-3.758a.593.593 0 0 0 .485 0l.07-.07c.166-.075.31-.195.415-.346 0-.07 0-.07-.07-.139a3.15 3.15 0 0 0-.346-.624c-3.535-6.794-5.338-9.844-6.237-11.3 1.248 3.397 4.991 11.647 5.684 12.479h-.001Zm.208.898a1.597 1.597 0 0 1-.624-.207c-.832-.416-6.449-13.034-6.449-14.49a.68.68 0 0 1 .278-.554c.555-.278.97-.486 7.902 12.756.208.346.277.555.346.624.126.259.15.555.07.832a1.62 1.62 0 0 1-.832.832l-.139.069a1.307 1.307 0 0 1-.55.141l-.002-.003Zm1.445.923c-.14.139-.279.277 0 .624.242.284.555.5.907.624h.139c-.07-.555-.14-1.18-.418-1.318-.138-.135-.417.003-.626.072l-.002-.002Zm1.464 2.497a.383.383 0 0 1-.418-.278 1.662 1.662 0 0 0-.488-.208 3.04 3.04 0 0 1-1.255-.901 1.216 1.216 0 0 1 .139-1.735c.07 0 .07-.069.14-.069a1.369 1.369 0 0 1 1.533-.069c.907.555.767 2.497.767 2.913a.441.441 0 0 1-.416.35l-.002-.003Zm-10.683-7.682h4.169v.797h-4.169v-.797Zm-5.831.797H2.418A.45.45 0 0 1 2 14.445V11.11a.448.448 0 0 1 .418-.417h4.593v.834H2.836v2.5h1.669v.835Zm17.077 0h-2.084v-.834h1.668v-2.501H17.83v-.834h3.753a.448.448 0 0 1 .417.417v3.335a.449.449 0 0 1-.416.42l-.002-.003Z" clip-rule="evenodd"/>
</svg>
