<svg xmlns="http://www.w3.org/2000/svg" width="24" height="24" fill="none" viewBox="0 0 24 24">
  <path fill="#000" fill-rule="evenodd" d="M8.966 8.322h-.069a3.992 3.992 0 0 0-3.398 2.014c-1.456 2.499-.485 6.386 1.179 8.747.694 1.04 1.525 2.152 2.496 2.083a2.9 2.9 0 0 0 1.11-.278 4.398 4.398 0 0 1 1.871-.417c.594.013 1.181.13 1.734.348.38.219.809.338 1.248.347.97 0 1.595-.833 2.426-2.083.42-.667.79-1.363 1.11-2.083a4.38 4.38 0 0 1-.555-7.428 3.815 3.815 0 0 0-2.773-1.32 4.929 4.929 0 0 0-2.219.487 2.417 2.417 0 0 1-2.496 0 4.89 4.89 0 0 0-1.664-.417Zm.139 13.676c-1.456 0-2.427-1.457-3.12-2.43C4.183 17 3.21 12.766 4.805 9.92a4.811 4.811 0 0 1 4.092-2.43c.703-.03 1.4.14 2.01.486a1.836 1.836 0 0 0 1.942 0 5.835 5.835 0 0 1 2.565-.556 4.474 4.474 0 0 1 3.603 2.014c.055.081.08.18.07.277 0 .14-.07.209-.209.278a3.83 3.83 0 0 0-1.733 3.126 3.56 3.56 0 0 0 2.15 3.263.392.392 0 0 1 .288.332.396.396 0 0 1-.011.154 10.113 10.113 0 0 1-1.317 2.707c-.762 1.042-1.665 2.43-3.12 2.43a4.937 4.937 0 0 1-1.595-.347 2.73 2.73 0 0 0-1.387-.347 3.1 3.1 0 0 0-1.526.347c-.46.204-.953.322-1.456.347l-.066-.002Zm6.115-19.1a4.026 4.026 0 0 0-2.152 1.245 3.802 3.802 0 0 0-.9 2.283 3.491 3.491 0 0 0 2.152-1.245c.526-.65.84-1.447.9-2.282v-.002Zm-3.264 4.358h-.207c-.21 0-.348-.207-.418-.346a4.697 4.697 0 0 1 1.113-3.32A4.895 4.895 0 0 1 15.57 2a.507.507 0 0 1 .486.415 5.052 5.052 0 0 1-1.112 3.321 3.964 3.964 0 0 1-2.988 1.521Z" clip-rule="evenodd"/>
</svg>
