<svg xmlns="http://www.w3.org/2000/svg" width="24" height="24" fill="none" viewBox="0 0 24 24">
  <path fill="#000" fill-rule="evenodd" d="M10.654 20.164C8.669 18.674 2 13.426 2 7.683 2 3.995 4.412 2.15 6.682 2.01a4.747 4.747 0 0 1 4.681 2.907 4.432 4.432 0 0 1 4.54-2.766c2.412.213 4.824 2.128 4.824 5.532a7.446 7.446 0 0 1-.638 2.907l-.78-.283a7.626 7.626 0 0 0 .566-2.626 4.495 4.495 0 0 0-4.043-4.68c-1.632-.142-3.618.78-4.044 3.545-.071.213-.213.426-.426.426a.457.457 0 0 1-.425-.426c-.425-2.694-2.412-3.829-4.256-3.687-1.916.142-3.83 1.702-3.83 4.822 0 5.46 6.95 10.779 8.299 11.772l-.496.71Zm4.817.92h1.986v-.78c0-.141.072-.354.213-.354a3.88 3.88 0 0 0 1.207-.71.437.437 0 0 1 .496-.07l.637.425.994-1.702-.638-.355a.363.363 0 0 1-.216-.2.366.366 0 0 1 .003-.296c0-.213.07-.426.07-.638 0-.213-.07-.426-.07-.71a.316.316 0 0 1 .213-.425l.639-.355-.994-1.702-.638.355c-.142.142-.355.07-.496 0a2.88 2.88 0 0 0-1.207-.71.43.43 0 0 1-.213-.425v-.71H15.47v.71a.39.39 0 0 1-.283.426 4.432 4.432 0 0 0-1.133.709c-.142.07-.354.142-.497 0l-.638-.355-.994 1.702.638.355a.506.506 0 0 1 .213.425 2.652 2.652 0 0 0-.07.71c-.012.215.012.43.07.638a.551.551 0 0 1-.213.496l-.638.355.994 1.702.638-.425a.438.438 0 0 1 .497.07 3.86 3.86 0 0 0 1.206.71c.141 0 .212.213.212.355l-.002.78Zm2.838.426v-.922c.321-.137.63-.304.922-.497l.71.426a.64.64 0 0 0 .354.071c.071-.07.213-.142.213-.213l1.419-2.41a.641.641 0 0 0 .07-.355c-.07-.072-.142-.213-.213-.213l-.78-.497c0-.141.071-.354.071-.496 0-.213-.07-.355-.07-.566l.78-.426a.384.384 0 0 0 .142-.567l-1.42-2.41c0-.072-.14-.143-.212-.214a.642.642 0 0 0-.355.071l-.71.426c-.283-.213-.638-.355-.921-.566v-.854a.457.457 0 0 0-.426-.426h-2.837a.458.458 0 0 0-.426.426v.85c-.284.142-.566.355-.922.567l-.78-.426a.393.393 0 0 0-.567.142l-1.347 2.411a.425.425 0 0 0-.072.284c0 .142.072.213.213.284l.78.425a1.563 1.563 0 0 0-.07.567c-.012.168.013.337.07.496l-.78.497a.371.371 0 0 0-.14.566l1.346 2.411a.392.392 0 0 0 .567.142l.78-.426c.355.213.638.355.922.497v.922a.457.457 0 0 0 .426.425h2.837a.458.458 0 0 0 .426-.422Zm-1.868-6.528a1.423 1.423 0 1 0-.001 2.845 1.423 1.423 0 0 0 0-2.845Zm2.274 1.422a2.275 2.275 0 1 0-2.274 2.275 2.245 2.245 0 0 0 2.274-2.275Z" clip-rule="evenodd"/>
</svg>
