<svg xmlns="http://www.w3.org/2000/svg" width="24" height="24" fill="none" viewBox="0 0 24 24">
  <path fill="#000" fill-rule="evenodd" d="M21.927 15.43C20.331 7.604 15.748 4 12.207 4h-.556C6.513 4 2 11.62 2 16.193c0 .97 1.321 2.078 1.736 2.355 1.527 1.178 3.68 1.94 6.318 2.148.67.057 1.341.08 2.013.069.694 0 1.458 0 2.153-.07 4.65-.484 7.638-2.84 7.776-4.294a4.271 4.271 0 0 0-.069-.97Zm-7.776 4.434a19.567 19.567 0 0 1-4.027 0c-2.438-.202-4.41-.804-5.793-1.862l.022-.015a2.025 2.025 0 0 0-.21-.277v-.069a.07.07 0 0 0 .05-.02.068.068 0 0 0 .021-.05c.277-1.174 2.082-4.354 3.123-4.702.347-.07.625.138 1.18.76.486.553 1.041 1.175 1.805 1.106.763-.07 1.527-1.037 2.707-2.488.486-.622 1.18-1.59 1.457-1.66h.139c.626.346 2.777 2.213 4.862 6.015.27.36.4.809.362 1.258a12.08 12.08 0 0 1-5.698 2.005Zm6.486-2.673a3.488 3.488 0 0 0-.458-1.004c-2.082-3.871-4.304-5.945-5.207-6.36a1.432 1.432 0 0 0-.763 0c-.416.138-.972.76-1.804 1.867-.625.83-1.735 2.212-2.152 2.212-.416 0-.764-.415-1.11-.83-.555-.553-1.18-1.244-2.081-.967-1.392.462-3.224 3.691-3.628 5.066a2.032 2.032 0 0 1-.599-.985c0-4.227 4.235-11.361 8.818-11.361h.556c2.708 0 7.29 2.84 8.886 10.738.058.25.082.506.07.762a1.685 1.685 0 0 1-.527.862Z" clip-rule="evenodd"/>
</svg>
