<svg xmlns="http://www.w3.org/2000/svg" width="24" height="24" fill="none" viewBox="0 0 24 24">
  <path fill="#000" fill-rule="evenodd" d="m21.47 11.325-2.897-2.91a.419.419 0 0 0-.552 0 .392.392 0 0 0-.115.486.392.392 0 0 0 .115.138l2.133 2.142h-2.75c-.35-4.593-3.624-8.02-8.079-8.347-.138 0-.208-.14-.208-.278v-.14A.448.448 0 0 0 8.701 2H7.037a.401.401 0 0 0-.416.417v1.042c-.001.45.155.888.441 1.237-.388.514-1.548 2.043-5.01 6.61a.593.593 0 0 0 0 .486l4.882 7.729a2.037 2.037 0 0 0-.314 1.09v.972a.4.4 0 0 0 .416.417H8.7a.449.449 0 0 0 .417-.417.388.388 0 0 1 .346-.417C14.11 20.75 17.44 17 17.44 12v-.024h2.762l-2.25 2.258a.423.423 0 0 0 0 .555c.14.069.21.138.347.138a.523.523 0 0 0 .276-.138l2.897-2.84a.52.52 0 0 0 0-.624ZM7.452 2.834h.833a1.028 1.028 0 0 0 .97.833c4.04.326 6.977 3.349 7.319 7.514H15.32c-.204-2.27-1.393-6.06-6.898-6.612a1.123 1.123 0 0 1-.97-1.11v-.625ZM14.527 12c0 1.389-.486 5.972-6.173 6.597-.27.04-.528.136-.76.28l-4.455-6.9h11.387V12Zm-11.335-.82L7.72 5.208c.2.098.414.164.634.194 4.73.492 5.921 3.542 6.133 5.778H3.191Zm13.415.82c0 4.514-2.982 7.985-7.212 8.333a1.26 1.26 0 0 0-1.11.833h-.833v-.556a1.14 1.14 0 0 1 .971-1.18c6.381-.694 6.936-5.833 6.936-7.43v-.024h1.249c-.002.009 0 .016 0 .024Z" clip-rule="evenodd"/>
</svg>
