<svg xmlns="http://www.w3.org/2000/svg" width="24" height="24" fill="none" viewBox="0 0 24 24">
  <path fill="#000" fill-rule="evenodd" d="M16.653 2.013c-1.886-.146-4.062.944-5.077 3.488a4.906 4.906 0 0 0-4.933-3.416C4.322 2.23 2 4.193 2 8.263c0 7.341 8.995 13.374 9.36 13.664.073 0 .146.073.218.073a.378.378 0 0 0 .29-.145c.363-.29 9.286-7.269 9.286-14.1 0-3.706-2.324-5.596-4.5-5.742ZM2.871 8.263c0-3.488 1.959-5.16 3.844-5.306h.29c1.73 0 3.675 1.297 4.126 4.306v.927L7.865 10.3a.4.4 0 0 0-.218.364.483.483 0 0 0 .29.364L12.8 12.92l-3.628 2.111a.519.519 0 0 0-.218.437.4.4 0 0 0 .218.364l1.96 1.164v3.665c-2.1-1.557-8.26-6.635-8.26-12.397ZM12 20.631v-3.853a.52.52 0 0 0-.217-.437l-1.523-.873 3.7-2.255a.52.52 0 0 0 .219-.438.371.371 0 0 0-.291-.363l-4.79-1.893 2.686-1.674a.4.4 0 0 0 .218-.364V7.35a.293.293 0 0 0 .01-.03c.507-3.271 2.684-4.58 4.57-4.435 1.885.145 3.7 1.672 3.7 4.87-.002 5.376-6.2 11.121-8.282 12.878v-.002Z" clip-rule="evenodd"/>
</svg>
