<svg xmlns="http://www.w3.org/2000/svg" width="24" height="24" fill="none" viewBox="0 0 24 24">
  <path fill="#000" d="M19.042 10.332h-4.248c-.139 0-.21-.07-.349-.208a.444.444 0 0 1 0-.417 5.05 5.05 0 0 0 .42-2.083V4.499A2.538 2.538 0 0 0 12.356 2 2.491 2.491 0 0 0 9.85 4.5v3.124a6.53 6.53 0 0 0 .348 2.083.443.443 0 0 1 0 .417.385.385 0 0 1-.348.208H5.672a1.606 1.606 0 0 0-1.67 1.666v2.92a.4.4 0 0 0 .417.416h.427v6.248a.4.4 0 0 0 .417.418h2.504a.464.464 0 0 0 .349-.279l.903-1.738v1.597a.4.4 0 0 0 .418.417H19.45a.45.45 0 0 0 .418-.417v-6.249h.426a.45.45 0 0 0 .417-.416v-2.919a1.648 1.648 0 0 0-1.67-1.664Zm-.01 10.83h-.855v-3.727a.39.39 0 0 0-.399-.414c-.265 0-.399.138-.4.414v3.728h-.844v-2.926a.403.403 0 0 0-.422-.418.37.37 0 0 0-.423.418v2.926h-.845v-1.661a.39.39 0 0 0-.4-.415c-.266 0-.398.138-.398.415v1.66H9.852v-2.919a.389.389 0 0 0-.348-.417c-.208-.07-.347 0-.486.209l-1.53 3.13H5.679v-5.832h13.353v5.83Zm.845-6.664h-.358a.448.448 0 0 0-.069-.012H5.264a.53.53 0 0 0-.082.012h-.344v-2.5a.803.803 0 0 1 .835-.833H9.85a1.323 1.323 0 0 0 1.046-.555 1.427 1.427 0 0 0 .14-1.18 3.982 3.982 0 0 1-.348-1.806V4.499a1.605 1.605 0 0 1 1.67-1.666A1.647 1.647 0 0 1 14.03 4.5v3.125a5.207 5.207 0 0 1-.348 1.805 1.185 1.185 0 0 0 .07 1.18 1.324 1.324 0 0 0 1.046.556h4.248a.846.846 0 0 1 .835.833l-.005 2.5Zm-6.675-10.01a.845.845 0 1 1-1.692 0 .845.845 0 0 1 1.692 0Z"/>
</svg>
