<svg xmlns="http://www.w3.org/2000/svg" width="24" height="24" fill="none" viewBox="0 0 24 24">
  <path fill="#000" fill-rule="evenodd" d="M21.619 2.555C21.203 2.208 20.579 2 19.47 2a.37.37 0 0 0-.276.208l-8.428 10.598c-.009.006-.02.01-.028.017a.324.324 0 0 0-.051.082l-1.045 1.313a3.31 3.31 0 0 0-1.705-.175 3.244 3.244 0 0 0-2.218 1.324 4.05 4.05 0 0 0-.624 1.463c-.416 1.254-.762 2.368-2.634 2.23a.467.467 0 0 0-.416.278.43.43 0 0 0 .07.487 5.83 5.83 0 0 0 4.158 1.812 5.403 5.403 0 0 0 1.802-.279c1.87-.627 3.397-2.09 3.675-3.692a2.76 2.76 0 0 0-.22-1.687L21.898 4.776c.069-.07.069-.14.069-.278V4.29c.067-.694.067-1.32-.348-1.735ZM10.987 17.527c-.275 1.253-1.524 2.507-3.189 3.065a4.917 4.917 0 0 1-4.367-.767c1.664-.278 2.08-1.671 2.426-2.786a4.69 4.69 0 0 1 .555-1.185 2.195 2.195 0 0 1 1.663-.975 2.59 2.59 0 0 1 1.87.418 3.4 3.4 0 0 1 .715.782.348.348 0 0 0 .08.145h.004c.228.394.314.854.243 1.303Zm-.554-2.86c-.015-.012-.032-.022-.048-.033l.703-.893.694.73-.722.781a3.795 3.795 0 0 0-.627-.582v-.003Zm10.7-10.448v.139l-8.762 9.479-.76-.76c1.279-1.624 3.653-4.638 8.067-10.246.454-.005.904.09 1.317.278.174.343.223.736.139 1.111Z" clip-rule="evenodd"/>
</svg>
