<svg xmlns="http://www.w3.org/2000/svg" width="24" height="24" fill="none" viewBox="0 0 24 24">
  <path fill="#000" fill-rule="evenodd" d="m21.971 14.087-2.019-7.345-.048.011a.53.53 0 0 0-.114-.235l-2.36-2.36a.374.374 0 0 0-.225-.095L9.933 2c-.139 0-.347 0-.417.14l-.904.834c-.07.14-.139.21-.139.349a.528.528 0 0 0 .14.278l4.412 4.422-10.869 10.92a.325.325 0 0 0 0 .556l2.36 2.36a.36.36 0 0 0 .278.14.524.524 0 0 0 .277-.14l10.901-10.9 4.467 4.444c.07.07.14.07.278.07.14 0 .21 0 .28-.07l.903-.9c.071-.139.14-.277.071-.416ZM9.517 3.323l.417-.417 6.427 1.767-2.745 2.758-4.1-4.108ZM4.795 20.957 2.99 19.222 17.152 5.06l1.805 1.805-4.922 4.898-.82-.89-.656.657.87.835-1.16 1.153-.886-.815-.563.517.835.907-1.149 1.142-.864-.829-.61.61.861.828-1.176 1.17-.86-.824-.562.564.857.822-1.212 1.207-.819-.856-.657.61.894.825-1.563 1.561Zm15.923-6.454-4.123-4.166 2.714-2.712c.228.806.73 2.574 1.827 6.462l-.418.416Z" clip-rule="evenodd"/>
</svg>
