<svg xmlns="http://www.w3.org/2000/svg" width="24" height="24" fill="none" viewBox="0 0 24 24">
  <path fill="#000" fill-rule="evenodd" d="M21.152 14.532V4.898a.4.4 0 0 0-.413-.416h-6.236V4.06a.403.403 0 0 0-.417-.422h-2.111V2.413a.4.4 0 0 0-.555-.381.398.398 0 0 0-.242.381v1.226H9.909a.402.402 0 0 0-.417.422v.42H3.256a.4.4 0 0 0-.414.417v9.635a1.264 1.264 0 0 0 .407 2.455h3.913l-2.166 4.343a.362.362 0 0 0 .138.555c.07 0 .14.07.207.07a.465.465 0 0 0 .347-.278l2.34-4.688h3.153v4.55a.4.4 0 0 0 .554.38.396.396 0 0 0 .242-.38v-4.55h3.995l2.34 4.688a.462.462 0 0 0 .347.278c.069 0 .139-.07.207-.07a.363.363 0 0 0 .208-.407.362.362 0 0 0-.07-.148l-2.166-4.343h3.912a1.264 1.264 0 0 0 .407-2.455h-.005Zm-7.485-10.05v.387a.254.254 0 0 0-.007.029.178.178 0 0 0 .007.023v.403h-3.343v-.402a.237.237 0 0 0 .007-.024.262.262 0 0 0-.007-.03v-.387h3.343Zm-4.177.832v.432a.451.451 0 0 0 .417.422h4.177a.45.45 0 0 0 .417-.422v-.432h5.819v9.144H3.672V5.312l5.818.002Zm11.256 10.83h-4.424a.517.517 0 0 0-.372-.024c-.011.008-.017.017-.028.024H8.068c-.01-.007-.016-.016-.028-.024a.517.517 0 0 0-.372.024H3.244a.451.451 0 0 1-.417-.42.403.403 0 0 1 .417-.423h17.501a.402.402 0 0 1 .418.422.451.451 0 0 1-.417.421Z" clip-rule="evenodd"/>
</svg>
