<svg xmlns="http://www.w3.org/2000/svg" width="24" height="24" fill="none" viewBox="0 0 24 24">
  <path fill="#000" fill-rule="evenodd" d="M21.951 2.415v7.072a.397.397 0 0 1-.415.416.447.447 0 0 1-.416-.416V2.833H2.831v12.48h9.145a.416.416 0 0 1 0 .832h-9.56A.447.447 0 0 1 2 15.729V2.417A.448.448 0 0 1 2.415 2h19.122a.398.398 0 0 1 .414.415Zm-2.903 11.223a1.662 1.662 0 1 1-1.662-1.663 1.685 1.685 0 0 1 1.662 1.663Zm-.832 0a.803.803 0 0 0-.831-.832.842.842 0 0 0-.832.832.895.895 0 0 0 .832.83.842.842 0 0 0 .831-.83Zm2.757.023a1.896 1.896 0 0 1 0 2.085 1.99 1.99 0 0 1-.66.7v5.134a.384.384 0 0 1-.21.348.253.253 0 0 1-.21.07.523.523 0 0 1-.278-.14l-2.23-1.812-2.23 1.812a.33.33 0 0 1-.42.07.464.464 0 0 1-.278-.348v-5.151a2.454 2.454 0 0 1-.684-.681 2.223 2.223 0 0 1 0-2.085 2.223 2.223 0 0 1 0-2.084 2.085 2.085 0 0 1 1.8-1.042 2.153 2.153 0 0 1 1.8-1.042 2.065 2.065 0 0 1 1.8 1.042 1.932 1.932 0 0 1 1.8 1.042 1.896 1.896 0 0 1 0 2.082Zm-1.499 3.105c-.1.015-.2.023-.3.023a2.066 2.066 0 0 1-1.801 1.042 2.151 2.151 0 0 1-1.8-1.042c-.094 0-.187-.008-.279-.024v3.908l1.812-1.534a.423.423 0 0 1 .558 0l1.811 1.534v-3.907Zm.668-3.381a1.163 1.163 0 0 0 .138-1.392 1.255 1.255 0 0 0-1.315-.625c-.138.07-.346-.07-.415-.278a1.213 1.213 0 0 0-1.178-.764 1.123 1.123 0 0 0-1.107.764.393.393 0 0 1-.484.278 1.159 1.159 0 0 0-1.247.625 1.27 1.27 0 0 0 .07 1.392.42.42 0 0 1 0 .556 1.275 1.275 0 0 0 1.177 2.014h.07a.493.493 0 0 1 .414.209 1.186 1.186 0 0 0 1.108.834 1.274 1.274 0 0 0 1.178-.834c.07-.139.277-.278.414-.209a1.371 1.371 0 0 0 1.316-.625 1.142 1.142 0 0 0-.139-1.392.422.422 0 0 1 0-.555v.002Zm-.248-4.289a.4.4 0 0 0 .417-.416V6.6a.402.402 0 0 0-.417-.417 2.134 2.134 0 0 1-2.083-2.08.4.4 0 0 0-.418-.417H6.555a.449.449 0 0 0-.417.417 2.088 2.088 0 0 1-2.084 2.08.448.448 0 0 0-.417.416v4.994a.448.448 0 0 0 .417.416 2.046 2.046 0 0 1 2.084 2.08.449.449 0 0 0 .417.417h5.42a.416.416 0 0 0 0-.832H6.971a2.945 2.945 0 0 0-2.501-2.497V6.948a2.872 2.872 0 0 0 2.501-2.427h10.073a2.8 2.8 0 0 0 2.432 2.427v1.734a.448.448 0 0 0 .418.413v.001Z" clip-rule="evenodd"/>
</svg>
