<svg xmlns="http://www.w3.org/2000/svg" width="24" height="24" fill="none" viewBox="0 0 24 24">
  <path fill="#000" fill-rule="evenodd" d="M16.787 2a.388.388 0 0 0-.353.21l-4.858 6.855a2.995 2.995 0 0 0-2.521 2.577l-6.845 4.79a.388.388 0 0 0-.21.353C2 18.547 5.453 22 7.216 22a.387.387 0 0 0 .352-.21l4.642-6.63 4.862 4.848a.28.28 0 0 0 .282.14h.21a.423.423 0 0 0 .21-.42V17.76h1.974a.429.429 0 0 0 .424-.21.577.577 0 0 0-.07-.492l-4.949-4.868 6.635-4.633a.386.386 0 0 0 .21-.351C22.002 5.446 18.548 2 16.786 2ZM12 9.878a2.114 2.114 0 0 1 1.454.562.57.57 0 0 0 .04.087.21.21 0 0 0 .078.034c.357.393.553.907.55 1.438 0 .015-.005.03-.005.044a.307.307 0 0 0-.013.131 2.114 2.114 0 0 1-1.909 1.925.308.308 0 0 0-.194.02 2.093 2.093 0 0 1-1.481-.612c-.005-.005-.007-.012-.012-.017-.004-.005-.013-.006-.02-.01A2.13 2.13 0 0 1 9.883 12c0-.021.005-.04.005-.062a.597.597 0 0 0 .008-.075A2.074 2.074 0 0 1 12 9.88v-.002ZM7.005 21.083c-1.27-.282-3.877-2.82-4.088-4.088l6.192-4.34c.092.396.265.77.508 1.096l-.921.909a.51.51 0 0 0 0 .619c.107.055.228.08.348.069a.424.424 0 0 0 .28-.07l.915-.902c.329.246.705.422 1.105.515-.538.772-1.726 2.465-4.34 6.194v-.002Zm10.35-4.17a.453.453 0 0 0-.42.42v1.406l-3.956-3.943a3.008 3.008 0 0 0 1.827-1.833l3.96 3.949-1.412.001Zm-2.456-5.55a2.959 2.959 0 0 0-.507-1.11l.913-.924a.53.53 0 0 0 0-.634.515.515 0 0 0-.626 0l-.916.926a2.949 2.949 0 0 0-1.155-.528c.515-.735 1.694-2.412 4.392-6.25 1.269.281 3.877 2.883 4.088 4.15l-6.189 4.37Z" clip-rule="evenodd"/>
</svg>
