<svg xmlns="http://www.w3.org/2000/svg" width="24" height="24" fill="none" viewBox="0 0 24 24">
  <path fill="#000" fill-rule="evenodd" d="M8.181 15.615a1.146 1.146 0 0 1 .902.348l3.543 3.542a4.232 4.232 0 0 0 5.902 0 9.31 9.31 0 0 0 0-12.989 9.262 9.262 0 0 0-12.986 0 9.142 9.142 0 0 0 0 12.989c.247.225.57.35.903.347.311-.011.607-.134.834-.347a1.3 1.3 0 0 0 0-1.806 1.281 1.281 0 0 1-.347-.834 1.32 1.32 0 0 1 .347-.902 1.148 1.148 0 0 1 .902-.348Zm7.36 5.903a5.05 5.05 0 0 1-3.54-1.459l-3.543-3.542c-.07-.07-.138-.07-.277-.07-.138 0-.207 0-.278.07a.417.417 0 0 0 0 .625 2.143 2.143 0 0 1 0 2.918 1.999 1.999 0 0 1-1.458.625 2.157 2.157 0 0 1-1.528-.625 10 10 0 1 1 14.166 0 4.934 4.934 0 0 1-3.541 1.46v-.002Zm.008-13.477a.833.833 0 1 0 0 1.666.833.833 0 0 0 0-1.666Zm0 2.499a1.665 1.665 0 1 1 1.665-1.666 1.688 1.688 0 0 1-1.666 1.667v-.001Zm2.299 2.048a.446.446 0 0 0-.415.414.398.398 0 0 0 .415.415.367.367 0 0 0 .414-.415.397.397 0 0 0-.414-.413Zm0 1.657a1.243 1.243 0 1 1 1.15-.766 1.24 1.24 0 0 1-1.15.768v-.002Zm-2.3 1.67a1.24 1.24 0 1 0 1.254 1.239 1.243 1.243 0 0 0-1.254-1.237v-.002Zm0 3.303a2.13 2.13 0 0 1-2.087-2.064 2.083 2.083 0 0 1 2.088-2.065 2.042 2.042 0 0 1 1.935 1.265 2.082 2.082 0 0 1-1.936 2.867v-.003Zm-5.022-12.07a.843.843 0 0 0-.832.833.833.833 0 1 0 1.665 0 .844.844 0 0 0-.83-.83l-.003-.002Zm0 2.5a1.665 1.665 0 1 1 1.666-1.667 1.688 1.688 0 0 1-1.664 1.668l-.002-.002Z" clip-rule="evenodd"/>
</svg>
