<svg xmlns="http://www.w3.org/2000/svg" width="24" height="24" fill="none" viewBox="0 0 24 24">
  <path fill="#000" fill-rule="evenodd" d="M11.574 21.996a.4.4 0 0 1-.421-.417V9.083a.45.45 0 0 1 .42-.416.4.4 0 0 1 .424.416V21.58a.37.37 0 0 1-.423.417Zm-3.86-7.087-4.878 4.855v-9.64l4.878 4.785Zm-4.947 6.103 5.853-5.826a.422.422 0 0 0 0-.554L2.767 8.806a.432.432 0 0 0-.488-.07.458.458 0 0 0-.279.347v11.652a.468.468 0 0 0 .279.416h.14c.138 0 .278 0 .348-.139Zm17.549-10.888v9.64l-4.79-4.855 4.79-4.785Zm.624 11.027a.419.419 0 0 0 .209-.416V9.083a.381.381 0 0 0-.209-.347.412.412 0 0 0-.486.07l-5.83 5.824a.42.42 0 0 0 0 .555l5.832 5.826a.275.275 0 0 0 .276.138l.208.002ZM18.124 4.58a.454.454 0 0 0-.624.138l-1.03 1.535A5.421 5.421 0 0 0 5.753 7.406a.401.401 0 0 0 .417.416.367.367 0 0 0 .417-.416 4.587 4.587 0 0 1 9.063-.986l-1.693-1.356a.423.423 0 0 0-.556 0 .434.434 0 0 0 .07.62l2.364 1.957a.38.38 0 0 0 .218.16.36.36 0 0 0 .123.02h.072a.264.264 0 0 0 .085-.02l.036-.01a.382.382 0 0 0 .104-.062l.023-.02c.007-.006.02-.015.03-.025l1.666-2.482a.435.435 0 0 0-.069-.62Z" clip-rule="evenodd"/>
</svg>
