<svg xmlns="http://www.w3.org/2000/svg" width="24" height="24" fill="none" viewBox="0 0 24 24">
  <path fill="#000" fill-rule="evenodd" d="m21.841 11.709-1.157-2.314a.46.46 0 0 0-.346-.276h-4.14V7.895a.42.42 0 0 0-.159-.305c-.124-.251-.426-.85-1.156-2.313A.462.462 0 0 0 14.536 5H9.552a.468.468 0 0 0-.415.277L7.958 7.635a.407.407 0 0 0-.068.138.327.327 0 0 0-.02.267v1.078H3.71a.468.468 0 0 0-.417.276l-1.25 2.492a.319.319 0 0 0 .024.356v7.267a.368.368 0 0 0 .416.417h19.101a.403.403 0 0 0 .39-.254.4.4 0 0 0 .026-.163v-7.493a.425.425 0 0 0-.159-.307Zm-13.13.317v-2.49a.382.382 0 0 0-.009-.04V8.323h6.663V9.48a.444.444 0 0 0-.01.055V19.1H8.71v-7.074ZM20.062 9.95l.824 1.65h-4.689V9.95h3.865ZM9.76 5.832h4.5l.824 1.65H8.936l.824-1.65ZM3.918 9.95H7.87v1.65H3.091l.827-1.65Zm-1.02 2.492H7.87v6.653H2.898v-6.653Zm13.3 6.653v-6.653h4.97v6.653h-4.97Zm-3.32-7.455v4.083a.446.446 0 0 1-.417.415.398.398 0 0 1-.416-.415v-3.46l-.694.277a.474.474 0 0 1-.556-.277.35.35 0 0 1 .129-.428.352.352 0 0 1 .15-.056l1.248-.485c.07-.069.209-.069.348.07.136.069.206.138.206.276h.002Zm-6.223 5.81a.402.402 0 0 1-.417.419H4.639a.382.382 0 0 1-.347-.21.445.445 0 0 1 0-.418l1.458-2.024c0-.07.07-.14.07-.21a.384.384 0 1 0-.765-.07.402.402 0 0 1-.417.42.45.45 0 0 1-.417-.42 1.273 1.273 0 0 1 1.182-1.185 1.25 1.25 0 0 1 1.251 1.257 1.072 1.072 0 0 1-.278.698l-.906 1.326h.766a.45.45 0 0 1 .417.418h.002Zm13.148-2.505c.006.295-.085.584-.259.823.174.244.265.538.259.837a1.15 1.15 0 0 1-1.182 1.264 1.083 1.083 0 0 1-1.182-1.123.382.382 0 0 1 .347-.491.521.521 0 0 1 .487.42c0 .353.209.353.348.353.14 0 .347 0 .347-.421 0-.422-.209-.421-.347-.421-.007 0-.013-.003-.02-.003a.395.395 0 0 1-.398-.41v-.008a.453.453 0 0 1 .418-.421c.037 0 .068.007.103.01.12-.017.244-.09.244-.408 0-.414-.209-.414-.347-.414-.138 0-.348 0-.348.414a.52.52 0 0 1-.487.413.375.375 0 0 1-.347-.482 1.127 1.127 0 0 1 1.182-1.171 1.139 1.139 0 0 1 1.18 1.239h.002Z" clip-rule="evenodd"/>
</svg>
