<svg xmlns="http://www.w3.org/2000/svg" width="24" height="24" fill="none" viewBox="0 0 24 24">
  <path fill="#000" fill-rule="evenodd" d="m21.345 21.288-1.183-2.006.552-.329a.37.37 0 0 0 .207-.274.625.625 0 0 0-.069-.346L14.427 8.137V4.905A2.874 2.874 0 0 0 11.53 2a2.918 2.918 0 0 0-2.896 2.905v3.168c-.004.008-.01.014-.013.022l-1.656 4.692h-.807v-6.14a2.04 2.04 0 0 0-2.08-2.074A2.084 2.084 0 0 0 2 6.648V17.85a.242.242 0 0 1 .07.138l1.662 3.734A.46.46 0 0 0 4.08 22a.467.467 0 0 0 .416-.277l1.663-3.734v-2.717h2.877a.378.378 0 0 0 .414-.274s0-.004 2.242-5.761l6.535 10.69a.38.38 0 0 0 .346.206c.139 0 .208 0 .274-.069l.625-.37c.177.3.52.877 1.185 2.01a.377.377 0 0 0 .343.205h.206a.444.444 0 0 0 .14-.62ZM9.462 4.905a2.123 2.123 0 0 1 2.068-2.073 2.078 2.078 0 0 1 2.07 2.073v2.903H9.462V4.905ZM2.83 12.787V7.89h2.495v4.897H2.83Zm1.248-7.384a1.24 1.24 0 0 1 1.247 1.244v.402H2.829v-.402a1.241 1.241 0 0 1 1.25-1.244h-.002Zm0 15.144s0-.003-.862-1.958H4.94l-.862 1.958Zm1.247-2.835-.016.036H2.845l-.016-.036v-2.44h2.495v2.44Zm3.432-3.269H2.83v-.827h2.814a.502.502 0 0 0 .097.016.596.596 0 0 0 .115-.016H7.24c.138 0 .345-.07.345-.275l1.7-4.701h1.77l-2.296 5.803h-.002Zm9.952 4.72-6.44-10.526h1.52l6.164 9.833-1.244.692Z" clip-rule="evenodd"/>
</svg>
