<svg xmlns="http://www.w3.org/2000/svg" width="24" height="24" fill="none" viewBox="0 0 24 24">
  <path fill="#000" fill-rule="evenodd" d="m19.178 18.93-.031-.076a1.444 1.444 0 0 0-.208-.52L12.505 2.276a.453.453 0 0 0-.834 0L5.33 18.107a1.72 1.72 0 0 0-.308.771L5 18.93l.014.007c-.004.05-.014.1-.014.152C5 20.891 7.71 22 11.672 22c3.614 0 7.506-.97 7.506-2.91a1.42 1.42 0 0 0-.02-.152l.02-.008ZM12.09 3.596l5.443 13.645a14.827 14.827 0 0 0-5.86-1.063 12.15 12.15 0 0 0-4.948.867L12.09 3.597Zm-.417 17.573c-3.645 0-5.643-.946-5.82-1.936l.344-.864c.737-.727 2.59-1.359 5.476-1.359 3.355 0 5.627.808 6.39 1.556l.26.655c-.227.88-2.68 1.948-6.65 1.948Z" clip-rule="evenodd"/>
</svg>
