<svg xmlns="http://www.w3.org/2000/svg" width="24" height="24" fill="none" viewBox="0 0 24 24">
  <path fill="#000" fill-rule="evenodd" d="M12.023 2A10 10 0 1 0 22 12a10.036 10.036 0 0 0-9.978-10Zm0 19.166A9.166 9.166 0 1 1 21.169 12a9.192 9.192 0 0 1-9.146 9.165v.002ZM7.9 9.494h-.848a.394.394 0 0 1-.417-.398.438.438 0 0 1 .417-.398H7.9v-.849a.438.438 0 0 1 .398-.416.393.393 0 0 1 .399.416v.849h.847a.392.392 0 0 1 .417.398c0 .265-.139.398-.417.398h-.847v.85c0 .277-.133.415-.399.415a.39.39 0 0 1-.398-.416v-.85Zm9.556-.398c0 .265-.14.398-.417.398h-.848v.85a.37.37 0 0 1-.422.415.4.4 0 0 1-.421-.416v-.85h-.803a.39.39 0 0 1-.415-.397.437.437 0 0 1 .415-.398h.803v-.849a.45.45 0 0 1 .421-.416.401.401 0 0 1 .422.416v.849h.848a.393.393 0 0 1 .387.239.39.39 0 0 1 .03.157v.002Zm-.422 4.983c0 3.266-1.801 3.752-2.91 3.752-1.524 0-2.01-1.042-2.425-1.875-.416-.904-.762-1.46-1.732-1.46-1.386 0-2.078.973-2.079 2.918a.368.368 0 0 1-.416.417.398.398 0 0 1-.416-.417c0-3.266 1.871-3.752 2.91-3.752 1.524 0 2.079 1.111 2.495 1.945.415.903.762 1.39 1.663 1.39 1.454 0 2.078-.904 2.078-2.918a.448.448 0 0 1 .417-.416.4.4 0 0 1 .415.415v.001Z" clip-rule="evenodd"/>
</svg>
