<svg xmlns="http://www.w3.org/2000/svg" width="24" height="24" fill="none" viewBox="0 0 24 24">
  <path fill="#000" fill-rule="evenodd" d="M21.582 10.357h-.962a8.933 8.933 0 0 0-6.93-6.963v-.976a.402.402 0 0 0-.423-.417h-2.534a.451.451 0 0 0-.424.417v.976a8.866 8.866 0 0 0-6.883 6.963H2.417a.446.446 0 0 0-.417.411v2.465a.446.446 0 0 0 .417.41h1.009a8.867 8.867 0 0 0 6.883 6.963v.976a.452.452 0 0 0 .424.418h2.534a.405.405 0 0 0 .423-.418v-.976a8.933 8.933 0 0 0 6.93-6.963h.962a.395.395 0 0 0 .39-.25.4.4 0 0 0 .028-.16v-2.465a.398.398 0 0 0-.418-.41ZM11.155 2.835h1.69v1.667h-1.69V2.834Zm-8.32 8.345H4.5v1.643H2.834V11.18Zm10.01 9.987h-1.69V19.5h1.69v1.666Zm.845-1.422v-.661a.403.403 0 0 0-.423-.417h-2.534a.45.45 0 0 0-.423.417v.662a7.985 7.985 0 0 1-6.023-6.102h.63a.396.396 0 0 0 .418-.41v-2.465a.396.396 0 0 0-.418-.41h-.63a7.985 7.985 0 0 1 6.023-6.102v.662a.452.452 0 0 0 .423.417h2.534a.404.404 0 0 0 .423-.417v-.662a8.054 8.054 0 0 1 6.073 6.101h-.679a.445.445 0 0 0-.417.411v2.465a.445.445 0 0 0 .417.41h.679a8.054 8.054 0 0 1-6.073 6.101Zm7.476-6.922h-1.667V11.18h1.667v1.643Z" clip-rule="evenodd"/>
</svg>
