<svg xmlns="http://www.w3.org/2000/svg" width="24" height="24" fill="none" viewBox="0 0 24 24">
  <path fill="#000" d="M7.405 6.178h-.5L6.15 2.35A.385.385 0 0 0 5.737 2H4.084a.44.44 0 0 0-.413.349s0 .011-.755 3.828h-.5A.447.447 0 0 0 2 6.595V21.58a.4.4 0 0 0 .416.416h4.99a.368.368 0 0 0 .415-.416V6.594a.4.4 0 0 0-.416-.416ZM4.43 2.838h.962l.687 3.34H3.81l.62-3.34ZM3.119 7.01c.046.01.093.014.14.012h3.304a.85.85 0 0 0 .165-.012h.261v1.655H2.831V7.011h.288Zm3.87 2.5v9.153H2.832v-9.15L6.99 9.51ZM2.832 21.164V19.51H6.99v1.655H2.83ZM14.07 6.178h-.5l-.755-3.828a.386.386 0 0 0-.413-.35H10.75a.441.441 0 0 0-.413.349l-.755 3.828h-.5a.447.447 0 0 0-.416.417V21.58a.4.4 0 0 0 .416.416h4.988a.368.368 0 0 0 .416-.416V6.594a.4.4 0 0 0-.416-.416Zm-2.974-3.34h.964l.686 3.34h-2.269l.619-3.34ZM9.786 7.01c.046.01.093.014.14.012h3.304a.853.853 0 0 0 .165-.012h.257v1.655H9.494V7.011h.292Zm3.87 2.5v9.153H9.497v-9.15l4.158-.002ZM9.497 21.164V19.51h4.154v1.655H9.498Zm11.24-14.986h-.5L19.48 2.35a.386.386 0 0 0-.412-.35h-1.652a.44.44 0 0 0-.413.349s0 .011-.756 3.828h-.5a.446.446 0 0 0-.415.417V21.58a.401.401 0 0 0 .416.416h4.99a.368.368 0 0 0 .415-.416V6.594a.4.4 0 0 0-.418-.416h.002Zm-2.975-3.34h.964l.687 3.34h-2.269l.618-3.34Zm-1.31 4.173c.046.01.093.014.14.012h3.305a.851.851 0 0 0 .165-.012h.26v1.655h-4.156V7.011h.287Zm3.87 2.5v9.153h-4.156V9.513l4.157-.002Zm-4.156 11.653V19.51h4.157v1.655h-4.157Z"/>
</svg>
