<svg xmlns="http://www.w3.org/2000/svg" width="24" height="24" fill="none" viewBox="0 0 24 24">
  <path fill="#000" fill-rule="evenodd" d="M22 8.162a1.645 1.645 0 0 0-1.669-1.67 1.663 1.663 0 0 0-.927 3.048c-.418.4-1.213 1.156-2.734 2.606l-3.835-4.13A2.106 2.106 0 0 0 14.1 6.092 2.054 2.054 0 0 0 12.007 4a2.096 2.096 0 0 0-2.093 2.093 2.15 2.15 0 0 0 1.328 1.935l-3.826 4.12-2.74-2.673a1.67 1.67 0 0 0-1.037-2.981 1.669 1.669 0 0 0 0 3.339c.012 0 .022-.004.034-.004l1.612 6.31a1.667 1.667 0 0 0 .046 3.331h13.354a1.666 1.666 0 0 0 .122-3.327l1.68-6.328A1.64 1.64 0 0 0 22 8.162Zm-19.197 0a.845.845 0 0 1 .835-.835.808.808 0 0 1 .834.835.845.845 0 0 1-.834.834.897.897 0 0 1-.835-.834Zm17.527-.835a.804.804 0 0 1 .835.835.846.846 0 0 1-.834.834.898.898 0 0 1-.836-.834.846.846 0 0 1 .835-.835Zm-9.577-1.236a1.297 1.297 0 0 1 1.255-1.256 1.254 1.254 0 0 1 .039 2.508h-.011c-.01 0-.02.003-.029.003a1.297 1.297 0 0 1-1.255-1.253v-.002ZM19.518 17.8a.795.795 0 0 1-.835.835H5.33a.842.842 0 0 1-.835-.835.803.803 0 0 1 .835-.834h13.354a.765.765 0 0 1 .835.836V17.8Zm-1.527-1.701H6.093l-1.322-5.41 2.365 2.358a.42.42 0 0 0 .625 0L12.008 8.4l4.314 4.646a.525.525 0 0 0 .278.139c.139 0 .208-.07.348-.139l2.434-2.358-1.39 5.41Z" clip-rule="evenodd"/>
</svg>
