<svg xmlns="http://www.w3.org/2000/svg" width="24" height="24" fill="none" viewBox="0 0 24 24">
  <path fill="#000" fill-rule="evenodd" d="M22 8.1a1.664 1.664 0 0 0-3.194-.66 1.662 1.662 0 0 0 1.006 2.225c-.336.986-1.33 3.493-3.663 3.493-2.424 0-3.402-3.772-3.66-5.059a2.14 2.14 0 0 0 1.595-2.014A2.088 2.088 0 0 0 12 4a2.05 2.05 0 0 0-2.085 2.085 2.093 2.093 0 0 0 1.595 2.02c-.26 1.294-1.238 5.053-3.659 5.053-2.403 0-3.405-2.583-3.701-3.575a1.655 1.655 0 1 0-.882.03l1.678 9.029a.389.389 0 0 0 .415.346h13.275a.44.44 0 0 0 .415-.346s0-.007 1.602-8.914A1.69 1.69 0 0 0 22 8.1ZM10.75 6.084a1.25 1.25 0 1 1 1.284 1.247c-.01 0-.021-.006-.033-.006s-.024.005-.035.006a1.243 1.243 0 0 1-1.216-1.247Zm-7.918 1.92a.803.803 0 0 1 .831-.83.842.842 0 0 1 .832.83.894.894 0 0 1-.832.832.842.842 0 0 1-.83-.832Zm15.461 10.15H5.708L4.6 12.325a4.178 4.178 0 0 0 3.25 1.666c2.352 0 3.597-2.569 4.15-4.442.553 1.873 1.728 4.442 4.149 4.442a3.937 3.937 0 0 0 3.18-1.666l-1.037 5.832Zm2.12-9.234a.475.475 0 0 0-.193-.004.843.843 0 0 1-.714-.818.803.803 0 0 1 .832-.831.842.842 0 0 1 .831.831.897.897 0 0 1-.756.822ZM19.05 20.206a.45.45 0 0 1-.415.422H5.366a.422.422 0 0 1 0-.843h13.269a.45.45 0 0 1 .415.421Z" clip-rule="evenodd"/>
</svg>
