<svg xmlns="http://www.w3.org/2000/svg" width="24" height="24" fill="none" viewBox="0 0 24 24">
  <path fill="#000" fill-rule="evenodd" d="M20.247 18.047a5.4 5.4 0 0 0-3.665-9.38 5.15 5.15 0 0 0-2.284.524 5.312 5.312 0 0 0-1.878-.503v-.856a2.947 2.947 0 0 0 2.49-2.897v-.031A2.94 2.94 0 0 0 11.998 2a2.893 2.893 0 0 0-2.91 2.901v.034a2.898 2.898 0 0 0 2.49 2.901v.853c-.64.05-1.266.215-1.847.488a5.873 5.873 0 0 0-2.315-.51 5.399 5.399 0 0 0-3.676 9.37 1.625 1.625 0 0 0-.896 1.502 1.6 1.6 0 0 0 1.663 1.667H19.49a1.641 1.641 0 0 0 1.663-1.667 1.669 1.669 0 0 0-.907-1.492ZM12 2.837a2.094 2.094 0 0 1 2.03 1.65H9.964a2.04 2.04 0 0 1 2.034-1.65ZM9.96 5.333h4.079a2.146 2.146 0 0 1-2.018 1.695c-.006 0-.012-.005-.019-.005-.007 0-.014.004-.022.004a2.088 2.088 0 0 1-2.02-1.694Zm-7.128 8.75A4.536 4.536 0 0 1 7.415 9.5c.476 0 .95.074 1.404.218a5.566 5.566 0 0 0-1.943 6.183.436.436 0 0 0 .68.132.36.36 0 0 0 .081-.41 5.828 5.828 0 0 1-.207-1.53 4.532 4.532 0 0 1 4.527-4.59.33.33 0 0 0 .042.009.297.297 0 0 0 .037-.009 4.574 4.574 0 0 1 4.532 4.59 5.44 5.44 0 0 1-.278 1.53.439.439 0 0 0 .209.556h.138a.379.379 0 0 0 .415-.278c.221-.578.339-1.19.347-1.809a5.426 5.426 0 0 0-2.238-4.388c.461-.137.94-.206 1.421-.204a4.58 4.58 0 0 1 4.584 4.584 4.807 4.807 0 0 1-1.945 3.75H4.775a4.614 4.614 0 0 1-1.945-3.75h.001Zm16.66 6.287H4.507a.794.794 0 0 1-.833-.834.764.764 0 0 1 .833-.833H19.49a.802.802 0 0 1 .833.833.84.84 0 0 1-.833.834Z" clip-rule="evenodd"/>
</svg>
