<svg xmlns="http://www.w3.org/2000/svg" width="24" height="24" fill="none" viewBox="0 0 24 24">
  <path fill="#000" fill-rule="evenodd" d="M6.747 15.327a11.505 11.505 0 0 1-4.445-.951c-.238-.16-.397-.397-.238-.635a.438.438 0 0 1 .634-.238 10.63 10.63 0 0 0 4.048.873c5 0 9.207-4.522 10.319-5.712-1.112-1.19-5.318-5.712-10.319-5.712a9.443 9.443 0 0 0-4.048.952.479.479 0 0 1-.397-.873A10.362 10.362 0 0 1 6.746 2c6.191 0 11.112 6.109 11.271 6.426a.384.384 0 0 1 0 .558c-.158.235-5.079 6.343-11.27 6.343Zm3.36-6.69a3.33 3.33 0 1 1-3.331-3.33 3.35 3.35 0 0 1 3.33 3.33Zm.95 0a4.315 4.315 0 0 0-4.28-4.28 4.28 4.28 0 0 0 0 8.561 4.316 4.316 0 0 0 4.28-4.28Zm-1.926.027a2.442 2.442 0 0 0-2.382-2.382.457.457 0 0 0-.476.476.421.421 0 0 0 .476.477A1.428 1.428 0 1 1 5.322 8.66a.512.512 0 0 0-.477-.476.458.458 0 0 0-.476.476 2.34 2.34 0 0 0 2.382 2.382 2.389 2.389 0 0 0 2.38-2.379Zm11.252 10.125a2.26 2.26 0 0 1-4.52 0c0-.874 1.27-3.256 2.3-4.923.951 1.667 2.22 4.05 2.22 4.923Zm.951 0c0-1.589-2.537-5.638-2.775-6.114a.449.449 0 0 0-.793 0c-.317.476-2.854 4.525-2.854 6.114a3.21 3.21 0 1 0 6.423 0Z" clip-rule="evenodd"/>
</svg>
