<svg xmlns="http://www.w3.org/2000/svg" width="24" height="24" fill="none" viewBox="0 0 24 24">
  <path fill="#000" fill-rule="evenodd" d="M18.143 10.143a.462.462 0 0 0-.694 0c-.21.277-1.32 1.732-1.32 2.494a1.667 1.667 0 1 0 3.333 0c0-.762-1.111-2.217-1.32-2.495Zm-.347 3.326a.8.8 0 0 1-.833-.832c.168-.56.451-1.08.833-1.524.353.463.634.977.833 1.524a.843.843 0 0 1-.833.832Zm-8.732-2.69a1.645 1.645 0 0 0 1.666-1.666 1.667 1.667 0 1 0-3.333 0 1.646 1.646 0 0 0 1.667 1.666Zm0-2.5a.897.897 0 0 1 .833.834.844.844 0 0 1-.833.833.801.801 0 0 1-.834-.833.845.845 0 0 1 .834-.834Zm5.822 2.5a1.645 1.645 0 0 0 1.666-1.666 1.666 1.666 0 1 0-3.334 0 1.646 1.646 0 0 0 1.668 1.666Zm0-2.5a.896.896 0 0 1 .832.834.844.844 0 0 1-.832.833.803.803 0 0 1-.834-.833.844.844 0 0 1 .834-.834Zm2.913 8.591a.419.419 0 0 1-.762.346 5.551 5.551 0 0 0-5.06-2.836 5.77 5.77 0 0 0-5.06 2.905.382.382 0 0 1-.347.208.252.252 0 0 1-.208-.07.37.37 0 0 1-.14-.552 6.703 6.703 0 0 1 11.577 0ZM11.977 2A10 10 0 1 0 22 12a10.013 10.013 0 0 0-10.028-9.999L11.977 2Zm0 19.167a9.165 9.165 0 1 1 .054-18.33 9.165 9.165 0 0 1-.059 18.33h.005Z" clip-rule="evenodd"/>
</svg>
