<svg xmlns="http://www.w3.org/2000/svg" width="24" height="24" fill="none" viewBox="0 0 24 24">
  <path fill="#000" fill-rule="evenodd" d="M21.999 15.787V2.475A.456.456 0 0 0 21.522 2H8.16a.5.5 0 0 0-.388.232l-5.54 5.54A.495.495 0 0 0 2 8.16v13.362a.457.457 0 0 0 .475.477h13.312a.454.454 0 0 0 .377-.15l.046.043 5.683-5.683-.042-.047a.45.45 0 0 0 .148-.374Zm-5.737-.475v-6.77l4.783-4.829v11.6h-4.783Zm4.128.95-4.128 4.13v-4.13h4.128Zm-12.708-.64L2.95 20.398V8.639h4.733v6.982ZM3.77 7.683 7.682 3.77v3.914H3.77Zm4.869.954h6.674v6.674H8.638V8.638Zm11.76-5.687-4.777 4.734H8.638V2.95h11.76ZM3.712 21.046l4.829-4.783h6.77v4.783H3.713Z" clip-rule="evenodd"/>
</svg>
