<svg xmlns="http://www.w3.org/2000/svg" width="24" height="24" fill="none" viewBox="0 0 24 24">
  <path fill="#000" fill-rule="evenodd" d="M16.945 12h-.407v-1.227a.449.449 0 0 0-.419-.416h-.257l1.065-2.79c.289-.04.562-.153.795-.328a2.81 2.81 0 0 0 .697-2.78 3.176 3.176 0 0 0-2.298-2.364.632.632 0 0 0-.487.208.445.445 0 0 0 0 .417c.487.695.208 1.112-.276 1.669a14.59 14.59 0 0 0-.487.695 1.915 1.915 0 0 0 0 1.39c.094.186.215.356.358.506l-1.91 3.377h-.113v-7.94A.448.448 0 0 0 12.788 2H9.446a.401.401 0 0 0-.418.417v7.94h-.205L6.875 6.858c-.069-.069-.069-.138-.138-.207L4.653 5.403a.596.596 0 0 0-.487 0c-.138.139-.208.275-.139.416l.401 2.396a.362.362 0 0 0 .017.166v.071s0 .006.953 1.905h-.13a.4.4 0 0 0-.418.416v9.148A2.046 2.046 0 0 0 6.937 22h7.516a2.089 2.089 0 0 0 2.087-2.08v-2.099h.407a2.892 2.892 0 0 0 2.926-2.91A2.936 2.936 0 0 0 16.945 12ZM9.862 2.833h2.507v.858h-1.277a.404.404 0 0 0-.422.422.374.374 0 0 0 .422.423h1.277v.798h-.432a.406.406 0 0 0-.422.423.372.372 0 0 0 .422.422h.432v.845h-1.277a.392.392 0 0 0-.422.399c0 .266.14.4.422.4h1.277v.844h-.432a.406.406 0 0 0-.422.423.372.372 0 0 0 .422.422h.432v.811H9.862v-7.49Zm-2.016 7.491H6.318l-.992-1.921 1.018-.768c.187.341.599 1.078 1.501 2.69v-.001ZM5.774 7.082c-.156.118-.364.276-.647.488l-.129-.988.776.5Zm9.86-1.652a2.06 2.06 0 0 1 .347-.486 2.301 2.301 0 0 0 .697-1.669c.495.318.844.817.974 1.39a1.882 1.882 0 0 1-.487 1.878c-.209.278-.557.278-.975.138-.027-.012-.048-.026-.073-.04a.522.522 0 0 0-.142-.138.422.422 0 0 0-.152-.06.644.644 0 0 1-.19-.317 1.183 1.183 0 0 1 0-.692V5.43Zm.258 2.028.183.042-1.11 2.855h-.688l1.616-2.897ZM14.45 21.166H6.936a1.246 1.246 0 0 1-1.252-1.247v-8.732h10.019v1.168a.42.42 0 0 0-.01.06.541.541 0 0 0 .01.069v4.862a.443.443 0 0 0-.01.058.55.55 0 0 0 .01.07v2.445a1.243 1.243 0 0 1-1.253 1.251v-.004Zm2.495-4.178h-.408V12.83h.408a2.137 2.137 0 0 1 2.089 2.08 2.09 2.09 0 0 1-2.089 2.082v-.004Z" clip-rule="evenodd"/>
</svg>
