<svg xmlns="http://www.w3.org/2000/svg" width="24" height="24" fill="none" viewBox="0 0 24 24">
  <path fill="#000" fill-rule="evenodd" d="M19.917 2H4.085A2.047 2.047 0 0 0 2 4.083v15.833a2.047 2.047 0 0 0 2.085 2.083h15.832A2.09 2.09 0 0 0 22 19.916V4.086A2.089 2.089 0 0 0 19.917 2Zm-15.832.834h15.832a1.246 1.246 0 0 1 1.25 1.25v2.094H2.834V4.086a1.245 1.245 0 0 1 1.249-1.252h.002Zm15.832 18.332H4.085a1.247 1.247 0 0 1-1.251-1.25V7.023h18.333v12.893a1.244 1.244 0 0 1-1.25 1.25ZM4.49 4.512a.845.845 0 1 1 .844.821.834.834 0 0 1-.846-.821h.002Zm2.488 0a.845.845 0 1 1 .844.821.833.833 0 0 1-.849-.821h.005Zm2.535 0a.822.822 0 1 1 1.648-.002.822.822 0 0 1-1.65.002h.002ZM7.406 8.666h-2.5a.401.401 0 0 0-.416.416v9.965a.401.401 0 0 0 .416.416h2.5a.446.446 0 0 0 .416-.416V9.082a.447.447 0 0 0-.418-.414l.002-.002ZM5.323 12h1.665v1.643H5.323V12Zm0 2.488h1.665v1.69H5.323v-1.69Zm1.665-4.991v1.657H5.323V9.497h1.665Zm-1.665 9.136v-1.657h1.665v1.657H5.323Zm13.774-3.316h-2.635l-.831-.76c-.139 0-.208-.07-.277-.07h-1.248a.402.402 0 0 0-.416.415v4.147a.4.4 0 0 0 .416.415h4.99a.446.446 0 0 0 .416-.415v-3.317a.447.447 0 0 0-.418-.415h.003Zm-.417 3.317h-4.158v-3.317h.623l.902.76c.069.07.138.07.277.07h2.355v2.487Zm-1.637-7.777a1.24 1.24 0 1 0-.442-.947c.002.065.009.13.02.193l-5.463 3.057a1.24 1.24 0 1 0 .42.929 1.304 1.304 0 0 0-.016-.164l5.481-3.068Zm.802-1.361a.415.415 0 1 1 0 .83.415.415 0 0 1 0-.83Zm-7.51 5.007a.416.416 0 1 1 0-.831.416.416 0 0 1 0 .831Z" clip-rule="evenodd"/>
</svg>
