<svg xmlns="http://www.w3.org/2000/svg" width="24" height="24" fill="none" viewBox="0 0 24 24">
  <path fill="#000" fill-rule="evenodd" d="M12.819 17.82c-.14 0-.212-.07-.279-.07a.51.51 0 0 1-.07-.621 6.646 6.646 0 0 1 5.591-2.97.45.45 0 0 1 .42.414.4.4 0 0 1-.42.415 5.702 5.702 0 0 0-4.892 2.625c-.14.139-.21.207-.35.207ZM9.901 9.065a.897.897 0 0 1-.834.833.843.843 0 0 1-.832-.833.802.802 0 0 1 .832-.833.845.845 0 0 1 .834.832v.001Zm.833 0A1.645 1.645 0 0 0 9.067 7.4a1.603 1.603 0 0 0-1.666 1.666 1.645 1.645 0 0 0 1.666 1.667 1.69 1.69 0 0 0 1.667-1.668v.001Zm5.033 0a.897.897 0 0 1-.834.833.844.844 0 0 1-.833-.833.802.802 0 0 1 .833-.833.845.845 0 0 1 .836.832l-.002.001Zm.833 0A1.644 1.644 0 0 0 14.933 7.4a1.604 1.604 0 0 0-1.666 1.666 1.645 1.645 0 0 0 1.666 1.667 1.69 1.69 0 0 0 1.669-1.668l-.002.001ZM21.165 12A9.165 9.165 0 1 1 12 2.834 9.247 9.247 0 0 1 21.167 12h-.002Zm.832 0a9.999 9.999 0 1 0-2.927 7.07A10.002 10.002 0 0 0 22 12h-.003Z" clip-rule="evenodd"/>
</svg>
