<svg xmlns="http://www.w3.org/2000/svg" width="24" height="24" fill="none" viewBox="0 0 24 24">
  <path fill="#000" fill-rule="evenodd" d="M12.023 2A10 10 0 1 0 22 12a9.992 9.992 0 0 0-9.977-10Zm0 19.167A9.167 9.167 0 1 1 21.168 12a9.145 9.145 0 0 1-9.145 9.165v.002ZM9.535 11.11a1.858 1.858 0 0 1-1.812-1.879A1.545 1.545 0 0 1 9.256 7.7a.402.402 0 0 1 .418.418.37.37 0 0 1-.418.417.749.749 0 0 0-.696.696 1.011 1.011 0 0 0 .975 1.044 1.34 1.34 0 0 0 1.324-1.392 1.722 1.722 0 0 0-1.742-1.74 2.32 2.32 0 0 0-2.3 2.297 3.25 3.25 0 0 0 .21 1.183.437.437 0 0 1-.21.556h-.21a.382.382 0 0 1-.348-.208 3.734 3.734 0 0 1-.28-1.531 3.121 3.121 0 0 1 3.138-3.134 2.568 2.568 0 0 1 2.577 2.575 2.186 2.186 0 0 1-2.16 2.227v.002Zm8.812-2.227a2.186 2.186 0 0 1-2.16 2.227 1.86 1.86 0 0 1-1.813-1.879A1.546 1.546 0 0 1 15.907 7.7a.403.403 0 0 1 .419.418.368.368 0 0 1-.419.417.75.75 0 0 0-.697.696 1.012 1.012 0 0 0 .977 1.044 1.338 1.338 0 0 0 1.323-1.392 1.725 1.725 0 0 0-1.742-1.74 2.318 2.318 0 0 0-2.3 2.297 3.25 3.25 0 0 0 .21 1.183.438.438 0 0 1-.21.556h-.209a.383.383 0 0 1-.349-.208 3.743 3.743 0 0 1-.278-1.531 3.121 3.121 0 0 1 3.133-3.134 2.57 2.57 0 0 1 2.582 2.575v.002Zm-2.15 5.622H8.694a.404.404 0 0 0-.418.422.371.371 0 0 0 .418.421h3.33v1.242a2.047 2.047 0 0 0 2.083 2.085 2.092 2.092 0 0 0 2.085-2.084v-1.243h.004a.404.404 0 0 0 .418-.421.452.452 0 0 0-.418-.424v.002Zm-.838 2.084a1.25 1.25 0 1 1-2.502 0v-1.242h.853v.843c0 .281.132.422.397.422a.396.396 0 0 0 .399-.422v-.843h.852v1.242Z" clip-rule="evenodd"/>
</svg>
