<svg xmlns="http://www.w3.org/2000/svg" width="24" height="24" fill="none" viewBox="0 0 24 24">
  <path fill="#000" fill-rule="evenodd" d="m18.42 9.257 3.439-2.775c.07-.14.139-.21.139-.35a.534.534 0 0 0-.14-.348l-5.697-3.7c-.14-.14-.347-.07-.486 0l-3.677 3.11L8.323 2.08c-.14-.07-.348-.14-.487 0L2.21 5.78a.384.384 0 0 0-.21.35c0 .14.07.21.14.35l3.5 2.775-3.5 2.775a.536.536 0 0 0-.14.35.383.383 0 0 0 .209.348l3.97 2.61v2.398a.383.383 0 0 0 .207.348l5.406 3.413c.069 0 .139.07.208.07.139 0 .208-.07.277-.07l5.337-3.413a.383.383 0 0 0 .207-.348V15.35l4.04-2.622a.507.507 0 0 0 0-.698l-3.442-2.773Zm-6.421 2.994L7.166 9.254 12 6.198l4.893 3.056L12 12.251Zm3.953-9.328 4.934 3.21-3.195 2.652-5.003-3.07 3.264-2.792Zm-7.91 0 3.267 2.791-4.934 3.07-3.266-2.651 4.934-3.21ZM6.376 9.73l4.934 3.071-3.266 2.722-4.934-3.21L6.375 9.73Zm10.612 7.73-4.99 3.135-4.99-3.135v-1.573l.827.543c.069 0 .139.07.208.07a.359.359 0 0 0 .28-.14L12 13.315c.397.328 1.352 1.121 3.678 3.045a.522.522 0 0 0 .277.14c.07 0 .14-.07.209-.07l.826-.537-.002 1.567Zm-1.035-1.937L12.687 12.8l5.002-3.07 3.196 2.578-4.933 3.214Z" clip-rule="evenodd"/>
</svg>
