<svg xmlns="http://www.w3.org/2000/svg" width="24" height="24" fill="none" viewBox="0 0 24 24">
  <path fill="#000" fill-rule="evenodd" d="M11.41 3.375a13.002 13.002 0 0 1-2.466 2.391c-2.248 1.812-5.076 4.059-5.076 7.537a7.832 7.832 0 0 0 15.663 0c0-4.13-3.045-6.232-5.584-7.898a16.285 16.285 0 0 1-2.538-2.03ZM11.701 22A8.724 8.724 0 0 1 3 13.303C3 9.39 5.973 7 8.366 5.114c1.305-1.087 2.393-1.956 2.61-2.752A.46.46 0 0 1 11.411 2a.596.596 0 0 1 .435.29c.218.797 1.306 1.522 2.611 2.391 2.538 1.667 5.946 3.986 5.946 8.624A8.68 8.68 0 0 1 11.7 22h.002Zm-2.33-9.719a2.505 2.505 0 0 0-2.463 2.543c0 .945.507 1.89 2.028 1.89.652 0 1.883-.8 2.825-1.38 1.014-.582 1.522-.946 1.956-.946.433 0 .941.436 1.665 1.09.399.434.863.802 1.377 1.09a3.421 3.421 0 0 0 1.014-3.197 1.334 1.334 0 0 0-.29-.726 5.708 5.708 0 0 0-1.738.799 4.52 4.52 0 0 1-2.028.799c-.7-.1-1.355-.403-1.884-.872-.726-.507-1.668-1.088-2.465-1.088l.003-.002Zm-.435 5.305a2.664 2.664 0 0 1-2.897-2.762c.002-.854.31-1.679.869-2.325a3.134 3.134 0 0 1 2.463-1.09c1.086 0 2.1.654 2.97 1.236.4.339.87.587 1.376.726a4.21 4.21 0 0 0 1.593-.726c.797-.437 1.522-.873 2.173-.873.434 0 .869.364 1.086 1.018.362 1.163.218 3.416-1.376 4.578a.265.265 0 0 1-.217.073c-.652.145-1.377-.582-2.173-1.309-.362-.293-.942-.799-1.086-.872-.528.225-1.038.493-1.523.8-1.087.728-2.392 1.528-3.26 1.528l.002-.002Zm3.395.735c-.073 0-.146-.073-.219-.073a.41.41 0 0 1-.146-.589 2.087 2.087 0 0 1 1.825-1.103c.366 0 .879.148 1.315.956a.399.399 0 0 1-.146.589.476.476 0 0 1-.657-.147c-.074-.147-.293-.515-.511-.515a1.313 1.313 0 0 0-1.096.662.4.4 0 0 1-.364.222v-.002Zm.604 1.863a4.286 4.286 0 0 1-2.393-.797.404.404 0 0 1-.146-.58.473.473 0 0 1 .653-.145 2.989 2.989 0 0 0 3.7.073.54.54 0 0 1 .652.072.472.472 0 0 1-.145.653 4.52 4.52 0 0 1-2.32.726l-.001-.002Z" clip-rule="evenodd"/>
</svg>
