<svg xmlns="http://www.w3.org/2000/svg" width="24" height="24" fill="none" viewBox="0 0 24 24">
  <path fill="#000" fill-rule="evenodd" d="M9.331 21.165h3.33v-9.582a.449.449 0 0 1 .417-.417h2.845l.278-2.5h-3.123a.448.448 0 0 1-.416-.416V6.653a1.216 1.216 0 0 1 1.249-1.32h2.08v-2.43l-3.19-.07c-2.984 0-3.47 2.292-3.47 3.611V8.25a.449.449 0 0 1-.416.416H6.834v2.5h2.08a.449.449 0 0 1 .417.417v9.582Zm3.747.833H8.915a.448.448 0 0 1-.416-.416v-9.583H6.416A.448.448 0 0 1 6 11.583V8.25a.448.448 0 0 1 .416-.417h2.082V6.444C8.498 5.403 8.845 2 12.8 2l3.607.07a.4.4 0 0 1 .416.416V5.75a.45.45 0 0 1-.416.417H13.91c-.347 0-.417.277-.417.486V7.83h3.122a.53.53 0 0 1 .347.14.52.52 0 0 1 .07.346l-.347 3.333a.388.388 0 0 1-.417.347h-2.775v9.583a.448.448 0 0 1-.417.421l.002-.002Z" clip-rule="evenodd"/>
</svg>
