<svg xmlns="http://www.w3.org/2000/svg" width="24" height="24" fill="none" viewBox="0 0 24 24">
  <path fill="#000" fill-rule="evenodd" d="M16.867 13.69c3.548-4.149 5.06-10.824 5.127-11.157a.533.533 0 0 0-.07-.355.45.45 0 0 0-.152-.1.312.312 0 0 0-.374-.03 29.547 29.547 0 0 0-7.196 2.184c-.212 0-.283.213-.283.354a3.994 3.994 0 0 1-.85 2.196V5.436a.39.39 0 0 0-.213-.354.453.453 0 0 0-.424 0 11.064 11.064 0 0 0-3.046 2.195c-2.409 2.337-3.188 4.461-3.47 5.807a5.077 5.077 0 0 0 .66 3.78L2.16 21.28a.33.33 0 0 0 0 .566.368.368 0 0 0 .283.142.536.536 0 0 0 .284-.142l4.4-4.4a3.598 3.598 0 0 0 2.259.666c.43.023.86-.024 1.275-.141a11.833 11.833 0 0 0 4.858-2.905c.005-.005.013-.008.018-.013.005-.005.004-.008.008-.012.213-.196.427-.397.64-.611.154-.156.302-.311.45-.476a.58.58 0 0 0 .144-.097.357.357 0 0 0 .088-.166Zm-10.103-.466a11.126 11.126 0 0 1 3.188-5.382 11.869 11.869 0 0 1 2.267-1.7v1.841a.44.44 0 0 0 .284.425.519.519 0 0 0 .425-.141c.07-.07 1.699-1.63 1.841-3.4a32.622 32.622 0 0 1 5.492-1.69L7.198 16.238a3.935 3.935 0 0 1-.433-3.013v-.002Zm3.683 3.895a3.021 3.021 0 0 1-2.69-.306l13.029-13.03c-.623 2.101-2.061 6.24-4.39 9.119l-1.412-1.444a.544.544 0 0 0-.646 0 .52.52 0 0 0 0 .634l1.519 1.435c-.104.112-.204.228-.311.335-.097.096-.194.183-.29.275l-1.484-1.484a.45.45 0 0 0-.635.635l1.487 1.43a10.123 10.123 0 0 1-4.176 2.403v-.002Z" clip-rule="evenodd"/>
</svg>
