<svg xmlns="http://www.w3.org/2000/svg" width="24" height="24" fill="none" viewBox="0 0 24 24">
  <path fill="#000" fill-rule="evenodd" d="M7.774 11.072a5.58 5.58 0 0 0-1.67 6.056 5.847 5.847 0 0 0 5.636 4.037c2.921 0 4.87-1.67 5.427-4.594.834-4.385-1.74-10.51-6.818-13.225 1.6 3.202 1.322 7.448-.765 9.813-.14.07-.21.14-.349.14a.36.36 0 0 1-.278-.14 5.752 5.752 0 0 1-1.183-2.087Zm3.965 10.926a6.576 6.576 0 0 1-6.4-4.663 6.374 6.374 0 0 1 2.435-7.31c.069-.138.208-.138.347-.069.139.07.28.14.28.279a4.49 4.49 0 0 0 .833 1.949c1.879-2.506 1.74-6.822-.347-9.536a.594.594 0 0 1 0-.487.46.46 0 0 1 .487-.14c6.332 2.506 9.6 9.606 8.627 14.687C17.375 20.12 15.077 22 11.738 22l.001-.002Zm-1.536-4.161a1.808 1.808 0 0 0 1.524.834A1.687 1.687 0 0 0 13.39 17c0-.903-.207-1.806-.622-2.225a2.965 2.965 0 0 1-.624 1.737 3.393 3.393 0 0 1-1.94 1.326v-.002Zm1.524 1.67a2.474 2.474 0 0 1-2.493-2.016.987.987 0 0 1 .139-.416c.069-.07.276-.139.345-.07.486.14 1.248-.347 1.732-.972.208-.278.694-1.042.348-1.737a.436.436 0 0 1 0-.417.59.59 0 0 1 .346-.208 1.477 1.477 0 0 1 1.178.556c.693.695.9 1.876.9 2.848a2.517 2.517 0 0 1-2.495 2.431Z" clip-rule="evenodd"/>
</svg>
