<svg xmlns="http://www.w3.org/2000/svg" width="24" height="24" fill="none" viewBox="0 0 24 24">
  <path fill="#000" fill-rule="evenodd" d="M5.472 12.83h13.382l-5.27-4.228a.394.394 0 0 1 0-.696l5.27-4.229H5.472v9.154Zm14.56.833H5.058a.448.448 0 0 1-.415-.416V3.26a.447.447 0 0 1 .415-.417h14.977a.469.469 0 0 1 .415.278.46.46 0 0 1-.139.486l-5.824 4.647 5.824 4.646a.46.46 0 0 1 .139.486.468.468 0 0 1-.417.277h-.001ZM3.422 22A.45.45 0 0 1 3 21.584V2.417A.451.451 0 0 1 3.422 2a.402.402 0 0 1 .421.417v19.167a.403.403 0 0 1-.42.413L3.422 22Z" clip-rule="evenodd"/>
</svg>
