<svg xmlns="http://www.w3.org/2000/svg" width="24" height="24" fill="none" viewBox="0 0 24 24">
  <path fill="#000" fill-rule="evenodd" d="M4.421 22A.45.45 0 0 1 4 21.583V2.421a.421.421 0 1 1 .842 0v19.162a.45.45 0 0 1-.42.417Zm2.05-8.49V4.375c1.943-.623 5.134-1.384 6.036-.761a.63.63 0 0 1 .21.481 1.581 1.581 0 0 0 .553 1.178c1.388 1.038 5.066.277 6.523-.069v9.134c-1.943.485-5.065.9-5.967.208a.522.522 0 0 1-.278-.484 1.257 1.257 0 0 0-.555-1.108 3.218 3.218 0 0 0-1.735-.415 17.76 17.76 0 0 0-4.787.97Zm13.877 1.522c.139 0 .277-.207.277-.346V4.652c0-.138-.069-.208-.139-.346a.883.883 0 0 0-.416-.07c-1.873.554-5.273 1.108-6.244.347a.523.523 0 0 1-.278-.485 1.256 1.256 0 0 0-.555-1.107c-1.595-1.178-6.522.484-7.076.692a.469.469 0 0 0-.279.415v9.965a.38.38 0 0 0 .208.346.31.31 0 0 0 .347 0c1.943-.622 5.343-1.453 6.316-.83a.627.627 0 0 1 .209.484 1.582 1.582 0 0 0 .554 1.178c.732.36 1.544.527 2.359.484a19.41 19.41 0 0 0 4.717-.693Z" clip-rule="evenodd"/>
</svg>
