<svg xmlns="http://www.w3.org/2000/svg" width="24" height="24" fill="none" viewBox="0 0 24 24">
  <path fill="#000" d="M14.512 10.764 20.35 6.11a.459.459 0 0 0 .139-.487.47.47 0 0 0-.417-.277h-8.756V3.263a.402.402 0 0 0-.255-.39.402.402 0 0 0-.163-.027H5.061a.446.446 0 0 0-.416.417v10a.448.448 0 0 0 .416.416h2.071v2.078h.015v.006a.447.447 0 0 0 .416.416h12.51a.468.468 0 0 0 .416-.278.46.46 0 0 0-.139-.486l-5.838-4.652ZM5.477 3.68h5.004v2.004a.366.366 0 0 0-.016.069v7.094h-4.99l.002-9.167Zm3.128 10a3.613 3.613 0 0 0-.628.434v-.434h.628Zm-.556 1.667c.417-.972 2.224-1.528 2.919-1.667.004 0 .007-.005.011-.006a.398.398 0 0 0 .331-.4v-.047c0-.011.005-.021.005-.033 0-.011-.004-.014-.005-.021V6.18h7.58l-5.35 4.24a.527.527 0 0 0-.14.346c0 .14.07.209.14.347l5.35 4.24-10.841-.006Zm-4.25-12.93v19.167a.393.393 0 0 1-.4.416.439.439 0 0 1-.399-.416V2.417A.44.44 0 0 1 3.4 2a.394.394 0 0 1 .399.419v-.002Z"/>
</svg>
