<svg xmlns="http://www.w3.org/2000/svg" width="24" height="24" fill="none" viewBox="0 0 24 24">
  <path fill="#000" d="M19.4 5.35h-7.087V3.268a.448.448 0 0 0-.417-.417H6.06a.447.447 0 0 0-.416.417v9.996a.448.448 0 0 0 .416.416h2.118v1.728a1.897 1.897 0 0 0-.034.354.449.449 0 0 0 .417.417h10.84a.449.449 0 0 0 .416-.416V5.766a.449.449 0 0 0-.417-.417ZM6.477 3.684h5.003v2.083a.352.352 0 0 0 .03.129v6.951H6.477V3.684Zm3.127 9.996a5.26 5.26 0 0 0-.628.464v-.464h.628Zm9.379 1.666H9.048c.417-.972 2.154-1.527 2.917-1.666a.463.463 0 0 0 .348-.486c0-.008-.005-.014-.006-.022v-6.99h6.675v9.164ZM4.799 2.42v19.16a.4.4 0 1 1-.798 0V2.42a.4.4 0 1 1 .798 0Z"/>
</svg>
