<svg xmlns="http://www.w3.org/2000/svg" width="24" height="24" fill="none" viewBox="0 0 24 24">
  <path fill="#000" fill-rule="evenodd" d="M2.423 22A.451.451 0 0 1 2 21.583V2.408a.423.423 0 0 1 .846 0v19.175a.452.452 0 0 1-.423.417Zm2.102-6.134V4.36c3.894-2.01 6.12-.9 8.481.208 2.086 1.04 4.172 2.147 7.37.762v11.574c-2.85 1.317-4.866.416-7.022-.554-1.46-.693-3.06-1.386-4.938-1.386a8.75 8.75 0 0 0-3.89.9Zm16.48 1.664a.38.38 0 0 0 .208-.347V4.64a.38.38 0 0 0-.208-.347.446.446 0 0 0-.417 0c-3.129 1.594-5.145.624-7.23-.416-2.363-1.18-5.076-2.495-9.456-.138a.38.38 0 0 0-.208.346V16.56a.38.38 0 0 0 .208.346.445.445 0 0 0 .418 0c3.823-2.01 6.186-.97 8.69.208 1.46.624 2.919 1.317 4.588 1.317a7.594 7.594 0 0 0 3.404-.902h.003Zm-9.138-8.028a.575.575 0 0 0 .418-.278l.556-1.808.627 1.808c0 .14.208.278.347.278h1.948l-1.6 1.112a.43.43 0 0 0-.14.487l.627 1.808-1.53-1.113c-.21-.139-.349-.139-.488 0l-1.6 1.113.627-1.808a.43.43 0 0 0-.14-.487l-1.6-1.112h1.948Zm-1.391 4.867 2.365-1.738 2.365 1.738a.599.599 0 0 0 .487 0 .46.46 0 0 0 .139-.487l-.904-2.78 2.366-1.67a.43.43 0 0 0 .138-.486.468.468 0 0 0-.417-.279h-2.852l-.905-2.71a.425.425 0 0 0-.834 0l-.836 2.71H8.666a.47.47 0 0 0-.417.279c0 .208 0 .347.21.486l2.294 1.67-.904 2.78a.461.461 0 0 0 .14.487c.069 0 .208.07.278.07.07 0 .137-.07.206-.07h.003Z" clip-rule="evenodd"/>
</svg>
