<svg xmlns="http://www.w3.org/2000/svg" width="24" height="24" fill="none" viewBox="0 0 24 24">
  <path fill="#000" fill-rule="evenodd" d="m21.915 9.193-7.1-7.088a.52.52 0 0 0-.626 0L9.177 7.108 7.716 5.65a.423.423 0 0 0-.557 0l-4.176 4.1a.418.418 0 0 0 0 .625l7.1 7.089a.42.42 0 0 0 .278.07c.14 0 .21 0 .28-.07l1.808-1.807 1.444 1.456a.517.517 0 0 0 .274.138h.005c.005 0 .013.006.017.006a.538.538 0 0 0 .349-.139l7.378-7.366c.07-.07.069-.14.069-.278 0-.14.001-.21-.07-.28ZM10.36 16.56l-6.473-6.532 3.55-3.474 1.356 1.354c.017.047.04.092.068.134l5.03 4.993-3.53 3.525Zm2.993-1.806a5.47 5.47 0 0 0-.064.572l-.253-.255.317-.317Zm.905 1.459c-.557-1.182.557-2.988.626-2.988a.453.453 0 0 0-.139-.556.336.336 0 0 0-.104-.07L9.803 7.735l4.734-4.725 6.473 6.46-6.753 6.741Zm-1.536 5.093a.422.422 0 0 1 0 .556.53.53 0 0 1-.28.139.361.361 0 0 1-.28-.14L2.112 11.855a.394.394 0 0 1 .558-.556l10.052 10.007Z" clip-rule="evenodd"/>
</svg>
