<svg xmlns="http://www.w3.org/2000/svg" width="24" height="24" fill="none" viewBox="0 0 24 24">
  <path fill="#000" fill-rule="evenodd" d="M22.053 7.515h-7.156a8.2 8.2 0 0 0 2.465-1.138A2.579 2.579 0 0 0 15.59 2a2.58 2.58 0 0 0-1.844.776c-.54.584-1.138 2.277-1.52 3.544-.377-1.273-.945-2.98-1.485-3.567a2.577 2.577 0 0 0-4.376 1.772 2.578 2.578 0 0 0 .777 1.844c.726.523 1.54.911 2.404 1.146H2.427A.46.46 0 0 0 2 7.942v3.415a.413.413 0 0 0 .427.427h.436v9.79A.413.413 0 0 0 3.29 22h17.9a.41.41 0 0 0 .426-.427v-9.79h.437a.412.412 0 0 0 .427-.426V7.942a.46.46 0 0 0-.427-.427Zm-7.248 4.269v9.362H9.674v-9.363h5.131Zm-5.131-.863V8.369h5.131v2.552H9.674Zm4.71-7.579a1.718 1.718 0 0 1 1.206-.494c.427.014.833.191 1.134.494a1.619 1.619 0 0 1 0 2.4c-.425.495-2.411 1.13-3.9 1.554.424-1.484 1.062-3.46 1.559-3.955l.002.001ZM7.213 4.528c.027-.445.2-.869.494-1.205a1.701 1.701 0 0 1 2.4 0c.495.496 1.13 2.482 1.483 3.97-1.483-.426-3.389-1.064-3.883-1.56a1.716 1.716 0 0 1-.496-1.208l.002.003ZM2.854 8.372H8.81v2.552H3.287c-.013 0-.027.008-.04.01H2.85l.003-2.562Zm.862 3.415H8.81v9.36H3.716v-9.36Zm17.048 9.36h-5.095v-9.364h5.095v9.364Zm.862-10.218h-.395a.392.392 0 0 0-.04-.01h-5.522v-2.55h5.957v2.561Z" clip-rule="evenodd"/>
</svg>
