<svg xmlns="http://www.w3.org/2000/svg" width="24" height="24" fill="none" viewBox="0 0 24 24">
  <path fill="#000" fill-rule="evenodd" d="M8.052 12.58a2.312 2.312 0 0 0-1.457.437c-.51.437-.728 1.311-.728 2.623a2.611 2.611 0 0 0 2.622 2.624h6.989a2.61 2.61 0 0 0 2.62-2.623c0-1.385-.292-2.26-.8-2.695-.655-.583-1.893-.364-3.204-.146-1.392.291-2.83.291-4.222 0-.655-.074-1.31-.22-1.82-.22Zm7.426 6.56h-6.99a3.45 3.45 0 0 1-3.494-3.497c0-1.603.364-2.695 1.019-3.28 1.02-.875 2.548-.657 3.932-.438.727.073 1.383.218 2.038.218.656 0 1.31-.145 2.039-.218 1.383-.219 2.912-.437 3.858.364.728.656 1.093 1.75 1.093 3.353a3.498 3.498 0 0 1-3.495 3.496v.002ZM4.37 3.871c-2.325 2.105-.363 5.516-.293 5.661a.341.341 0 0 1-.073.435 7.484 7.484 0 0 0-1.09 4.717c.146 2.541 2.253 5.299 4.795 5.299h8.573c2.542 0 4.576-2.758 4.794-5.299a7.084 7.084 0 0 0-1.162-4.717.446.446 0 0 1 .072-.508v-.072c.363-.653 1.744-3.63-.363-5.516-1.235.145-3.123 1.887-3.85 2.685a.443.443 0 0 1-.509.218 11.152 11.152 0 0 0-6.538 0 .534.534 0 0 1-.435-.145C7.639 5.977 5.677 4.017 4.37 3.87Zm11.914 16.983H7.712c-3.124 0-5.448-3.194-5.667-6.097A7.807 7.807 0 0 1 3.208 9.75c-.872-1.67-1.599-4.718.726-6.605A.377.377 0 0 1 4.227 3c1.67 0 3.85 2.177 4.504 2.83a12.49 12.49 0 0 1 6.538 0C15.923 5.177 18.102 3 19.773 3a.377.377 0 0 1 .293.145c2.688 2.178 1.235 5.661.727 6.605a7.806 7.806 0 0 1 1.162 5.007c-.223 2.904-2.62 6.098-5.67 6.098v-.001Zm-1.26-6.092c-.144 0-.433.362-.433.87s.289.87.433.87c.217 0 .434-.29.434-.87 0-.509-.217-.871-.433-.871Zm0 2.612c-.722 0-1.3-.726-1.3-1.742 0-.943.578-1.74 1.3-1.74.722 0 1.3.797 1.3 1.74 0 1.015-.578 1.74-1.299 1.74v.002Zm-6.082-2.612c-.144 0-.433.362-.433.87s.289.87.433.87c.144 0 .433-.362.433-.87s-.288-.871-.433-.871Zm0 2.612c-.722 0-1.3-.726-1.3-1.742 0-.943.578-1.74 1.3-1.74.722 0 1.3.797 1.3 1.74 0 1.015-.578 1.74-1.3 1.74v.002Z" clip-rule="evenodd"/>
</svg>
