<svg xmlns="http://www.w3.org/2000/svg" width="24" height="24" fill="none" viewBox="0 0 24 24">
  <path fill="#000" fill-rule="evenodd" d="M3.917 18.875C3.634 19.292 3 20.267 3 20.754a1.27 1.27 0 0 0 2.54 0c0-.487-.708-1.463-.917-1.879a.474.474 0 0 0-.706 0Zm.353 2.296a.372.372 0 0 1-.425-.417 2.13 2.13 0 0 1 .425-.835c.171.262.314.542.425.835a.404.404 0 0 1-.425.417ZM20.62 8.027l-5.907-5.922a.518.518 0 0 0-.624 0l-6.183 6.2c-.005.004-.01.004-.014.008a.511.511 0 0 0-.036.552c.027.304.095 1.049.256 2.88a.302.302 0 0 0-.02.076l-3.73 5.4a.425.425 0 0 0 0 .558l.626.626c.082.056.18.08.278.07a.255.255 0 0 0 .21-.07l5.487-3.762 3.127.279c.14.07.208 0 .347-.07l6.183-6.2a.634.634 0 0 0 .068-.35.421.421 0 0 0-.069-.275Zm-9.53 5.8-2.158-2.14-.17-1.882L12.972 14l-1.883-.171Zm-5.755 3.745-.14-.141 3.429-4.93 1.606 1.645-4.895 3.426Zm8.796-3.665L8.833 8.629l5.603-5.619 5.28 5.295-5.585 5.602Z" clip-rule="evenodd"/>
</svg>
