<svg xmlns="http://www.w3.org/2000/svg" width="24" height="24" fill="none" viewBox="0 0 24 24">
  <path fill="#000" fill-rule="evenodd" d="M12.76 10.332V14.5h4.364a5.477 5.477 0 0 1-5.195 3.334 5.834 5.834 0 0 1 0-11.667 5.227 5.227 0 0 1 4.156 1.875l.416.208 2.91-2.708-.209-.416A10.57 10.57 0 0 0 11.927 2a10 10 0 0 0 0 20 9.905 9.905 0 0 0 9.976-9.584v-2.083H12.76Zm-.832-7.5c2.284 0 4.573 1.042 6.443 2.5l-1.87 1.875a6.44 6.44 0 0 0-4.573-1.874 6.578 6.578 0 0 0-5.506 2.875L4.557 6.642a9.166 9.166 0 0 1 7.369-3.81h.002ZM4.084 7.359l1.958 1.487a6.903 6.903 0 0 0 .016 6.342l-1.833 1.685a8.95 8.95 0 0 1-.14-9.514Zm.652 10.237 1.797-1.654a6.578 6.578 0 0 0 5.395 2.725 6.683 6.683 0 0 0 3.673-1.102l1.7 1.847a9.054 9.054 0 0 1-12.564-1.816h-.001Zm16.337-5.18a9.043 9.043 0 0 1-3.211 6.553L16.2 17.126a6.283 6.283 0 0 0 1.965-2.835l.208-.625h-4.78v-2.5h7.483l-.003 1.25Z" clip-rule="evenodd"/>
</svg>
