<svg xmlns="http://www.w3.org/2000/svg" width="24" height="24" fill="none" viewBox="0 0 24 24">
  <path fill="#000" fill-rule="evenodd" d="M8.893 5.836a6.058 6.058 0 0 0 0 12.115c5.192 0 5.607-4.595 5.607-6.055v-.21H9.517v.837h3.53a.448.448 0 0 1 .415.417c0 2.09-1.661 4.178-4.569 4.178a5.222 5.222 0 1 1 0-10.445 5.578 5.578 0 0 1 3.115 1.045l.624-.627a5.776 5.776 0 0 0-3.739-1.255Zm0 12.951A6.894 6.894 0 0 1 8.893 5a6.42 6.42 0 0 1 4.569 1.88.204.204 0 0 1 .208.21c0 .208 0 .208-.208.417L12.216 8.55c0 .21-.207.21-.415 0a4.946 4.946 0 0 0-2.908-1.044 4.387 4.387 0 1 0 0 8.773c2.285 0 3.53-1.462 3.739-2.924h-3.53a.448.448 0 0 1-.416-.418v-1.67c0-.21 0-.21.207-.21 0-.209 0-.209.208-.209h5.814a.448.448 0 0 1 .416.418v.627c0 3.342-1.661 6.893-6.438 6.893Zm9.78-4.615h.831v-1.248a.447.447 0 0 1 .416-.415h1.248v-.832H19.92a.447.447 0 0 1-.416-.416v-1.248h-.832v1.248a.447.447 0 0 1-.415.416h-1.248v.832h1.248a.447.447 0 0 1 .415.415v1.248Zm1.247.832h-1.663a.446.446 0 0 1-.416-.416v-1.247h-1.248a.447.447 0 0 1-.416-.416V11.26a.447.447 0 0 1 .416-.416h1.248V9.597a.447.447 0 0 1 .416-.416h1.663a.447.447 0 0 1 .416.416v1.248h1.248a.446.446 0 0 1 .416.416v1.664a.447.447 0 0 1-.416.416h-1.248v1.247a.447.447 0 0 1-.416.416Z" clip-rule="evenodd"/>
</svg>
