<svg xmlns="http://www.w3.org/2000/svg" width="24" height="24" fill="none" viewBox="0 0 24 24">
  <path fill="#000" d="M12.025 2A10 10 0 1 0 22 12a10.127 10.127 0 0 0-9.975-10Zm0 19.169a9.166 9.166 0 1 1 9.144-9.167 9.237 9.237 0 0 1-9.144 9.164v.003Zm1.667-8.75a4.26 4.26 0 0 1-4.155 3.762 4.18 4.18 0 0 1 0-8.358 3.727 3.727 0 0 1 3.116 1.463l-.623.418a3.43 3.43 0 0 0-2.495-1.045 3.345 3.345 0 0 0 0 6.686 3.136 3.136 0 0 0 3.115-2.508H9.535v-.835h3.739l.415.417h.003Zm5.82-.417v.845h-1.69v1.642h-.847v-1.642h-1.64v-.845h1.641V10.36h.846v1.642h1.69Z"/>
</svg>
