<svg xmlns="http://www.w3.org/2000/svg" width="24" height="24" fill="none" viewBox="0 0 24 24">
  <path fill="#000" fill-rule="evenodd" d="M20.761 10.527 5.874 3.574l-.07-.065-.022.022-.643-.3a2.024 2.024 0 0 0-2.116.146A2.08 2.08 0 0 0 2 5.201v14.59a2.2 2.2 0 0 0 1.023 1.897c.356.199.76.3 1.167.292.324.029.65-.021.95-.146l.855-.404.006.006.019-.018 14.741-6.952A2.196 2.196 0 0 0 22 12.495a2.28 2.28 0 0 0-1.239-1.97Zm-3.698-.728-2.253 2.107-6.83-6.37 9.083 4.263ZM4.774 21.032a1.468 1.468 0 0 1-1.238-.074 1.315 1.315 0 0 1-.657-1.167V5.201a1.203 1.203 0 0 1 .657-1.094 1.18 1.18 0 0 1 .657-.219c.201.014.4.063.584.146l.627.295 8.789 8.158-8.831 8.257.008.01-.596.277Zm10.09-7.919 2.28 2.115-9.057 4.247 6.778-6.362Zm5.46.623-2.36 1.108-2.477-2.311 2.467-2.317 2.373 1.113a1.25 1.25 0 0 1 .804 1.167 1.349 1.349 0 0 1-.81 1.24h.002Z" clip-rule="evenodd"/>
</svg>
