<svg xmlns="http://www.w3.org/2000/svg" width="24" height="24" fill="none" viewBox="0 0 24 24">
  <path fill="#000" fill-rule="evenodd" d="M12 2.833A9.166 9.166 0 1 0 21.166 12 9.248 9.248 0 0 0 12 2.833ZM12 22a10 10 0 1 1 0-20.001 10 10 0 0 1 0 20Zm0-15.83a1.69 1.69 0 0 0-1.658 1.675A1.645 1.645 0 0 0 12 9.52a1.604 1.604 0 0 0 1.659-1.675A1.647 1.647 0 0 0 12 6.171Zm0 4.187a2.535 2.535 0 0 1-2.488-2.512A2.583 2.583 0 0 1 12 5.333a2.535 2.535 0 0 1 2.488 2.512A2.49 2.49 0 0 1 12 10.357Zm-3.333 3.317a1.681 1.681 0 0 0-1.658 1.66 1.637 1.637 0 0 0 1.658 1.658 1.596 1.596 0 0 0 1.659-1.659 1.637 1.637 0 0 0-1.659-1.659Zm0 4.147a2.523 2.523 0 0 1-2.488-2.488 2.571 2.571 0 0 1 2.488-2.488 2.523 2.523 0 0 1 2.488 2.488 2.474 2.474 0 0 1-2.488 2.488Zm6.666-4.147a1.682 1.682 0 0 0-1.658 1.66 1.639 1.639 0 0 0 1.658 1.658 1.596 1.596 0 0 0 1.658-1.659 1.637 1.637 0 0 0-1.658-1.659Zm0 4.147a2.523 2.523 0 0 1-2.488-2.488 2.57 2.57 0 0 1 2.488-2.488 2.524 2.524 0 0 1 2.489 2.488 2.479 2.479 0 0 1-2.489 2.488Z" clip-rule="evenodd"/>
</svg>
