<svg xmlns="http://www.w3.org/2000/svg" width="24" height="24" fill="none" viewBox="0 0 24 24">
  <path fill="#000" fill-rule="evenodd" d="m8.533 9.503 4.999 4.374a.334.334 0 0 1 .138.417l-2.291 6.11 4.79-3.611V5.129L14.92 9.226a.469.469 0 0 1-.416.277H8.533ZM10.546 22a.36.36 0 0 1-.278-.14.334.334 0 0 1-.139-.415l2.639-7.151-5.625-4.86a.66.66 0 0 1-.139-.487.57.57 0 0 1 .418-.278h6.803l1.944-6.388a.466.466 0 0 1 .487-.277.44.44 0 0 1 .347.417V17a.531.531 0 0 1-.139.347l-6.11 4.512c-.07.071-.139.141-.208.141Z" clip-rule="evenodd"/>
</svg>
