<svg xmlns="http://www.w3.org/2000/svg" width="24" height="24" fill="none" viewBox="0 0 24 24">
  <path fill="#000" fill-rule="evenodd" d="M11.977 2.834a9.167 9.167 0 1 0 .04 18.334 9.167 9.167 0 0 0-.04-18.334Zm0 19.166A10 10 0 1 1 22 12a10.014 10.014 0 0 1-10.023 10ZM6.13 13.659c.209 2.715 2.854 5.012 5.847 5.012 2.92 0 5.568-2.297 5.777-5.012H6.13Zm5.847 5.847c-3.62 0-6.682-2.924-6.682-6.266a.371.371 0 0 1 .417-.418h12.53a.4.4 0 0 1 .417.418c0 3.344-3.063 6.265-6.682 6.265v.001ZM8.236 7.4a.804.804 0 0 0-.836.835.846.846 0 0 0 .836.835.898.898 0 0 0 .835-.835.846.846 0 0 0-.835-.833V7.4Zm0 2.505a1.65 1.65 0 0 1-1.671-1.67 1.609 1.609 0 0 1 1.67-1.67 1.645 1.645 0 0 1 1.67 1.67 1.694 1.694 0 0 1-1.67 1.672v-.002ZM15.718 7.4a.803.803 0 0 0-.836.835.846.846 0 0 0 .836.835.899.899 0 0 0 .835-.835.847.847 0 0 0-.835-.833V7.4Zm0 2.505a1.649 1.649 0 0 1-1.671-1.67 1.607 1.607 0 0 1 1.67-1.67 1.645 1.645 0 0 1 1.671 1.67 1.693 1.693 0 0 1-1.67 1.672v-.002Z" clip-rule="evenodd"/>
</svg>
