<svg xmlns="http://www.w3.org/2000/svg" width="24" height="24" fill="none" viewBox="0 0 24 24">
  <path fill="#000" fill-rule="evenodd" d="M11.977 2.834A9.167 9.167 0 1 0 21.163 12a9.213 9.213 0 0 0-9.186-9.167Zm0 19.166A10 10 0 1 1 22 12a10.059 10.059 0 0 1-10.023 10Zm-5.778-8.341c.21 2.715 2.854 5.012 5.778 5.012 2.993 0 5.638-2.297 5.846-5.012H6.2Zm5.778 5.847c-3.62 0-6.683-2.924-6.683-6.266a.402.402 0 0 1 .418-.418h12.53a.372.372 0 0 1 .417.418c0 3.344-3.063 6.265-6.682 6.265v.001ZM9.91 10.753a.448.448 0 0 1-.419-.415A1.247 1.247 0 0 0 8.236 9.09a1.293 1.293 0 0 0-1.257 1.248.4.4 0 0 1-.419.415.45.45 0 0 1-.419-.415 2.093 2.093 0 0 1 2.095-2.079 2.048 2.048 0 0 1 2.093 2.079.401.401 0 0 1-.418.415Zm7.487 0a.447.447 0 0 1-.414-.415 1.24 1.24 0 0 0-1.242-1.248 1.285 1.285 0 0 0-1.243 1.248.398.398 0 0 1-.414.415.445.445 0 0 1-.414-.415 2.08 2.08 0 0 1 2.071-2.079 2.038 2.038 0 0 1 2.071 2.079.4.4 0 0 1-.415.415Z" clip-rule="evenodd"/>
</svg>
