<svg xmlns="http://www.w3.org/2000/svg" width="24" height="24" fill="none" viewBox="0 0 24 24">
  <path fill="#000" fill-rule="evenodd" d="m21.977 21.311-5.23-10.433a.437.437 0 0 0-.435-.217.402.402 0 0 0-.364.217L10.72 21.31a.46.46 0 0 0 0 .435.398.398 0 0 0 .363.218h10.46a.403.403 0 0 0 .363-.218.478.478 0 0 0 .072-.435Zm-10.168-.217 4.504-9.057 4.575 9.057h-9.079Zm4.49-6.158a.387.387 0 0 1 .443.433v2.82a.422.422 0 0 1-.442.433.471.471 0 0 1-.442-.434V15.37a.422.422 0 0 1 .442-.433Zm.492 4.694a.467.467 0 1 1-.934 0 .467.467 0 0 1 .935 0Zm-6.867-.899-.58.727C6.58 17.205 2 12.625 2 7.826c0-3.708 2.472-5.6 4.725-5.816a4.92 4.92 0 0 1 4.87 3.053 4.603 4.603 0 0 1 4.653-2.908c2.398.219 4.87 2.182 4.87 5.671a8.147 8.147 0 0 1-.436 2.544l-.8-.29c.256-.723.38-1.487.363-2.254a4.604 4.604 0 0 0-4.07-4.798c-1.672-.073-3.707.8-4.215 3.707a.39.39 0 0 1-.364.364.406.406 0 0 1-.435-.364C10.725 3.9 8.616 2.737 6.798 2.882c-1.962.145-3.925 1.744-3.925 4.944-.001 4.433 4.36 8.796 7.05 10.904l.001.001Z" clip-rule="evenodd"/>
</svg>
