<svg xmlns="http://www.w3.org/2000/svg" width="24" height="24" fill="none" viewBox="0 0 24 24">
  <path fill="#000" fill-rule="evenodd" d="M12.033 6.675a.407.407 0 0 1-.436.364.462.462 0 0 1-.437-.364c-.436-2.838-2.472-3.93-4.29-3.784-1.963.145-3.999 1.746-3.999 4.948 0 5.02 5.672 9.896 8.071 11.715l-.509.728C7.888 18.317 2 13.297 2 7.839c0-3.784 2.472-5.675 4.798-5.821A4.71 4.71 0 0 1 11.598 5a4.65 4.65 0 0 1 4.653-2.837c2.472.145 4.944 2.182 4.944 5.675a8.158 8.158 0 0 1-.436 2.547l-.873-.291a6.854 6.854 0 0 0 .436-2.256c0-2.984-2.035-4.657-4.071-4.802-1.673-.145-3.782.729-4.218 3.638Zm1.521 10.098a.4.4 0 0 0 .437-.288 3.527 3.527 0 0 1 3.277-2.309 3.919 3.919 0 0 1 3.222 1.75h-1.463a.467.467 0 0 0-.435.435.417.417 0 0 0 .435.435h2.174a.468.468 0 0 0 .127-.021h.02a.407.407 0 0 0 .288-.41V14.19a.435.435 0 0 0-.87 0v.703a4.784 4.784 0 0 0-3.498-1.58A4.406 4.406 0 0 0 13.19 16.2a.382.382 0 0 0 .218.576l.146-.003Zm8.013 1.765a.538.538 0 0 0-.58.288 3.455 3.455 0 0 1-3.276 2.308 3.824 3.824 0 0 1-3.216-1.75h1.456a.435.435 0 0 0 0-.87h-2.175a.467.467 0 0 0-.434.435v2.174a.436.436 0 0 0 .748.318.434.434 0 0 0 .121-.318v-.704a4.786 4.786 0 0 0 3.5 1.581 4.4 4.4 0 0 0 4.15-2.886.49.49 0 0 0-.294-.575v-.001Z" clip-rule="evenodd"/>
</svg>
