<svg xmlns="http://www.w3.org/2000/svg" width="24" height="24" fill="none" viewBox="0 0 24 24">
  <path fill="#000" fill-rule="evenodd" d="m10.715 19.096-.496.71C7.74 17.961 2 12.998 2 7.681c0-3.69 2.409-5.53 4.676-5.673a4.74 4.74 0 0 1 4.676 2.908 4.53 4.53 0 0 1 4.534-2.765 5.294 5.294 0 0 1 4.818 5.53 7.938 7.938 0 0 1-.424 2.48l-.85-.282a6.36 6.36 0 0 0 .424-2.198A4.492 4.492 0 0 0 15.816 3c-1.559-.142-3.614.78-4.039 3.545-.07.212-.212.425-.424.425a.458.458 0 0 1-.425-.425c-.425-2.694-2.41-3.829-4.18-3.687C4.764 3 2.85 4.56 2.85 7.68c0 4.964 5.526 9.644 7.864 11.416Zm7.336-2.316-1.136 1.118v-3.81a.432.432 0 0 0-.863 0v3.81l-1.135-1.118a.538.538 0 0 0-.641 0 .516.516 0 0 0 0 .63s0 .004 1.866 1.77a.4.4 0 0 0 .688-.007l1.79-1.762a.389.389 0 0 0 0-.63.44.44 0 0 0-.57 0ZM22 16.424a5.54 5.54 0 1 1-5.54-5.54 5.547 5.547 0 0 1 5.54 5.54Zm-.852 0a4.687 4.687 0 1 0-9.375.003 4.687 4.687 0 0 0 9.375-.003Z" clip-rule="evenodd"/>
</svg>
