<svg xmlns="http://www.w3.org/2000/svg" width="24" height="24" fill="none" viewBox="0 0 24 24">
  <path fill="#000" fill-rule="evenodd" d="M16.513 10.758A5.488 5.488 0 1 0 22 16.246a5.495 5.495 0 0 0-5.487-5.488Zm-4.644 5.488a4.685 4.685 0 0 1 4.644-4.644c1.067.003 2.1.377 2.923 1.058l-6.483 6.57a4.612 4.612 0 0 1-1.084-2.984Zm4.644 4.643a4.638 4.638 0 0 1-2.985-1.087l6.547-6.506a4.623 4.623 0 0 1-3.565 7.593h.003ZM11.287 6.873a.395.395 0 0 1-.423-.352c-.422-2.746-2.392-3.803-4.151-3.662-1.9.141-3.87 1.692-3.87 4.789 0 4.859 5.489 9.577 7.81 11.338l-.49.704C7.698 17.79 2 12.93 2 7.648c0-3.662 2.392-5.493 4.644-5.634a4.61 4.61 0 0 1 4.645 2.887 4.501 4.501 0 0 1 4.503-2.746 5.256 5.256 0 0 1 4.785 5.493 7.894 7.894 0 0 1-.421 2.465l-.845-.282a6.308 6.308 0 0 0 .422-2.182c0-2.887-2.041-4.507-4.01-4.648-1.55-.14-3.59.705-4.013 3.521a.446.446 0 0 1-.423.351Z" clip-rule="evenodd"/>
</svg>
