<svg xmlns="http://www.w3.org/2000/svg" width="24" height="24" fill="none" viewBox="0 0 24 24">
  <path fill="#000" fill-rule="evenodd" d="m11.213 19.439-.498.709C8.661 18.66 2 13.418 2 7.679c0-3.613 2.41-5.455 4.677-5.667a4.654 4.654 0 0 1 4.677 2.975 4.536 4.536 0 0 1 4.606-2.834c2.338.213 4.748 2.126 4.748 5.526a8.794 8.794 0 0 1-.566 2.905l-.85-.284c.35-.831.541-1.72.566-2.622 0-2.834-1.984-4.534-3.968-4.676-1.63-.071-3.685.78-4.11 3.613a.397.397 0 0 1-.426.354.449.449 0 0 1-.425-.354c-.425-2.763-2.41-3.896-4.181-3.755-1.913.142-3.898 1.7-3.898 4.818 0 5.456 6.945 10.77 8.363 11.76Zm5.602-5.946a.528.528 0 0 0-.493-.07.406.406 0 0 0-.206.135l-1.774 1.823a.423.423 0 0 0 0 .56.54.54 0 0 0 .283.14.37.37 0 0 0 .283-.14l1.111-1.1v3.876a.46.46 0 0 0 .43.426.411.411 0 0 0 .431-.426v-3.901l1.137 1.124a.534.534 0 0 0 .636 0 .423.423 0 0 0 0-.559l-1.838-1.888ZM22 16.392a5.526 5.526 0 1 1-5.526-5.527A5.535 5.535 0 0 1 22 16.392Zm-.85 0a4.676 4.676 0 1 0-9.352-.001 4.676 4.676 0 0 0 9.351 0Z" clip-rule="evenodd"/>
</svg>
