<svg xmlns="http://www.w3.org/2000/svg" width="24" height="24" fill="none" viewBox="0 0 24 24">
  <path fill="#000" fill-rule="evenodd" d="M16.513 10.8A5.489 5.489 0 1 0 22 16.288a5.495 5.495 0 0 0-5.487-5.488Zm0 10.132a4.644 4.644 0 1 1 4.643-4.644 4.636 4.636 0 0 1-4.643 4.647v-.003Zm2.52-6.608-1.964 1.936 1.964 1.968a.325.325 0 0 1 0 .558.367.367 0 0 1-.283.14.535.535 0 0 1-.283-.14l-1.994-1.938-1.964 1.938c-.141.07-.212.14-.353.14a.535.535 0 0 1-.283-.14.42.42 0 0 1 0-.558l1.994-1.968-1.994-1.936a.516.516 0 0 1 0-.628.537.537 0 0 1 .636 0l1.964 1.968 1.994-1.968a.436.436 0 0 1 .566 0 .388.388 0 0 1 0 .628Zm-7.957 4.99-.492.704C8.614 18.541 2 13.335 2 7.637 2 3.979 4.393 2.15 6.645 2.01a4.71 4.71 0 0 1 4.644 2.883 4.394 4.394 0 0 1 4.503-2.743 5.255 5.255 0 0 1 4.786 5.487 7.383 7.383 0 0 1-.634 2.884l-.774-.281c.34-.828.53-1.709.563-2.603a4.46 4.46 0 0 0-4.012-4.643c-1.548-.14-3.588.774-4.01 3.517-.07.212-.212.423-.423.423a.455.455 0 0 1-.422-.423c-.421-2.673-2.393-3.798-4.221-3.658-1.9.141-3.8 1.692-3.8 4.784-.002 5.417 6.893 10.693 8.231 11.677Z" clip-rule="evenodd"/>
</svg>
