<svg xmlns="http://www.w3.org/2000/svg" width="24" height="24" fill="none" viewBox="0 0 24 24">
  <path fill="#000" fill-rule="evenodd" d="M10.714 20.19C8.659 18.7 2 13.445 2 7.692c0-3.693 2.41-5.54 4.677-5.682a4.74 4.74 0 0 1 4.676 2.912 4.533 4.533 0 0 1 4.537-2.77c2.41.214 4.819 2.131 4.819 5.54a7.461 7.461 0 0 1-.639 2.912l-.779-.284a7.646 7.646 0 0 0 .567-2.63 4.498 4.498 0 0 0-4.04-4.687c-1.557-.142-3.613.781-4.038 3.551-.07.213-.212.426-.425.426a.458.458 0 0 1-.424-.426c-.426-2.7-2.411-3.836-4.181-3.694-1.984.142-3.897 1.705-3.897 4.83 0 5.468 6.944 10.795 8.36 11.789l-.5.712Zm10.433-3.763a4.688 4.688 0 1 1-4.688-4.688 4.73 4.73 0 0 1 4.689 4.686v.002Zm.853 0a5.54 5.54 0 1 0-11.082.002A5.54 5.54 0 0 0 22 16.425v.002Zm-2.784-.024a.413.413 0 0 0-.425-.432h-4.667a.413.413 0 0 0-.424.432.46.46 0 0 0 .424.432h4.667a.46.46 0 0 0 .427-.434l-.002.002Z" clip-rule="evenodd"/>
</svg>
