<svg xmlns="http://www.w3.org/2000/svg" width="24" height="24" fill="none" viewBox="0 0 24 24">
  <path fill="#000" fill-rule="evenodd" d="M16.899 18.607c.099-.01.2.014.282.07l2.324 1.616-.916-2.599a.593.593 0 0 1 .14-.49l1.691-1.335h-1.83a.469.469 0 0 1-.353-.281l-1.337-2.6-1.267 2.6a.58.58 0 0 1-.422.28H13.45l1.62 1.335a.436.436 0 0 1 .14.491l-.845 2.599 2.324-1.616a.257.257 0 0 1 .21-.07Zm3.38 3.163c-.07 0-.14-.07-.21-.07l-3.17-2.178-3.098 2.177a.418.418 0 0 1-.491-.07.501.501 0 0 1-.21-.421l1.199-3.512-2.324-1.967c-.141-.07-.141-.281-.07-.422 0-.21.211-.28.352-.28h2.675l1.62-3.163a.387.387 0 0 1 .352-.211.424.424 0 0 1 .423.21l1.549 3.164h2.676a.386.386 0 0 1 .422.28.337.337 0 0 1-.141.422l-2.324 1.967 1.2 3.512a.338.338 0 0 1-.14.422.541.541 0 0 1-.29.138v.002Zm-10.12-2.137C7.697 17.808 2 12.893 2 7.629c0-3.654 2.39-5.476 4.642-5.617a4.653 4.653 0 0 1 4.642 2.879 4.535 4.535 0 0 1 4.572-2.738c2.321.21 4.713 2.106 4.713 5.476a7.832 7.832 0 0 1-.423 2.456l-.773-.28a8.23 8.23 0 0 0 .352-2.176c0-2.809-1.97-4.494-3.94-4.635-1.617-.141-3.656.772-4.078 3.51a.453.453 0 0 1-.422.42c-.211 0-.352-.21-.421-.42-.422-2.668-2.392-3.791-4.15-3.651-1.9.14-3.868 1.685-3.868 4.774 0 4.914 5.486 9.547 7.877 11.302l-.564.704Z" clip-rule="evenodd"/>
</svg>
