<svg xmlns="http://www.w3.org/2000/svg" width="24" height="24" fill="none" viewBox="0 0 24 24">
  <path fill="#000" fill-rule="evenodd" d="M6.97 2.885a.552.552 0 0 0-.292.073c-1.9.146-3.8 1.823-3.8 5.325 0 6.201 7.237 11.673 8.696 12.766 1.463-1.166 8.843-7.513 8.843-13.276 0-3.21-1.9-4.742-3.8-4.888-1.9-.146-4.093 1.167-4.532 4.377a.462.462 0 0 1-.437.365.41.41 0 0 1-.44-.365c-.51-2.991-2.411-4.377-4.238-4.377Zm4.678 19.113c-.147 0-.22 0-.293-.073C10.989 21.707 2 15.65 2 8.283c0-4.085 2.34-6.055 4.678-6.2 1.826-.147 3.945.875 4.97 3.428A4.952 4.952 0 0 1 16.69 2.01c2.192.146 4.604 2.043 4.604 5.764 0 6.857-8.99 13.86-9.428 14.152a.267.267 0 0 1-.215.073h-.003Z" clip-rule="evenodd"/>
</svg>
