<svg xmlns="http://www.w3.org/2000/svg" width="24" height="24" fill="none" viewBox="0 0 24 24">
  <path fill="#000" fill-rule="evenodd" d="M16.524 11.67a4.654 4.654 0 1 0 4.634 4.653 4.64 4.64 0 0 0-4.634-4.654Zm0 10.152a5.5 5.5 0 1 1-.048-11 5.5 5.5 0 0 1 .049 11Zm-.437-2.952c-.14 0-.212 0-.283-.142l-2.33-2.274a.535.535 0 0 1 0-.64.428.428 0 0 1 .564 0l2.049 2.06 2.897-3.267a.444.444 0 0 1 .636 0 .438.438 0 0 1 0 .568l-3.25 3.554c-.069.141-.141.141-.28.141h-.003Zm-5.413 1.19C8.63 18.58 2 13.362 2 7.652c0-3.666 2.47-5.499 4.655-5.64a4.662 4.662 0 0 1 4.653 2.893 4.546 4.546 0 0 1 4.584-2.75c2.327.212 4.726 2.116 4.726 5.5a8.75 8.75 0 0 1-.565 2.89l-.776-.282c.32-.833.487-1.716.492-2.609 0-2.82-1.974-4.511-3.95-4.652-1.622-.141-3.666.775-4.089 3.524a.456.456 0 0 1-.423.424c-.212 0-.353-.212-.423-.424-.423-2.679-2.398-3.807-4.16-3.665C4.819 3 2.845 4.555 2.845 7.654c0 5.43 6.91 10.717 8.321 11.704l-.492.702Z" clip-rule="evenodd"/>
</svg>
