<svg xmlns="http://www.w3.org/2000/svg" width="24" height="24" fill="none" viewBox="0 0 24 24">
  <path fill="#000" fill-rule="evenodd" d="M7.995 19.777c.07.07.138.07.275.07a.414.414 0 0 0 .274-.07 2.988 2.988 0 0 1 1.659-.973 1.698 1.698 0 0 1 1.52.556c.07.07.138.07.275.07a.414.414 0 0 0 .275-.07l.829-.834a.105.105 0 0 1 .006-.011.614.614 0 0 0 .082-.071l8.732-10.8a.543.543 0 0 0-.07-.555l-4.99-4.985a.422.422 0 0 0-.555 0l-10.362 9.11a.254.254 0 0 0-.032.018l-.828.833a.279.279 0 0 0-.139.278c0 .14 0 .278.139.348a1.492 1.492 0 0 1 .483 1.459 3.067 3.067 0 0 1-.898 1.667.279.279 0 0 0-.139.278c0 .139 0 .278.14.347l.5.504-3.006 2.628a.429.429 0 0 0-.139.485.42.42 0 0 0 .417.208h3.33a.253.253 0 0 0 .208-.069l1.389-1.043.625.622Zm-2.352-.342H3.562l2.22-1.872 1.043 1.04-1.182.832Zm10.95-16.431 4.435 4.431-8.227 10.157-5.99-6.022 9.782-8.566ZM6.405 14.289a2.3 2.3 0 0 0-.483-1.876l.274-.278 6.011 6.042-.207.277a2.805 2.805 0 0 0-1.935-.486 4.008 4.008 0 0 0-1.796.903l-2.764-2.778a3.444 3.444 0 0 0 .902-1.804h-.002ZM22 21.483a.402.402 0 0 1-.417.421H7.437a.401.401 0 0 1-.417-.42.45.45 0 0 1 .417-.422h14.146a.45.45 0 0 1 .417.422Z" clip-rule="evenodd"/>
</svg>
