<svg xmlns="http://www.w3.org/2000/svg" width="24" height="24" fill="none" viewBox="0 0 24 24">
  <path fill="#000" fill-rule="evenodd" d="M5.817 3.08A2.758 2.758 0 0 0 3.08 5.813v12.333a2.758 2.758 0 0 0 2.738 2.733h12.366a2.759 2.759 0 0 0 2.738-2.733V5.813a2.759 2.759 0 0 0-2.738-2.733H5.817Zm12.366 18.865H5.817A3.8 3.8 0 0 1 2 18.14V5.807a3.75 3.75 0 0 1 3.817-3.806h12.366A3.8 3.8 0 0 1 22 5.807V18.14a3.855 3.855 0 0 1-3.817 3.805ZM11.959 6.764a5.181 5.181 0 1 0 5.223 5.14 5.165 5.165 0 0 0-5.223-5.14Zm0 11.524a6.37 6.37 0 0 1-5.822-8.796 6.298 6.298 0 0 1 5.822-3.889 6.369 6.369 0 0 1 6.383 6.3 6.44 6.44 0 0 1-6.383 6.385ZM18.342 4.97a.574.574 0 1 0 .574.574.561.561 0 0 0-.574-.574Zm0 2.049a1.474 1.474 0 1 1 1.476-1.475 1.466 1.466 0 0 1-1.476 1.475Z" clip-rule="evenodd"/>
</svg>
