<svg xmlns="http://www.w3.org/2000/svg" width="24" height="24" fill="none" viewBox="0 0 24 24">
  <path fill="#000" fill-rule="evenodd" d="M21.198 4.816c-.87-.87-2.538-1.161-3.409-.29L2.121 20.202a.446.446 0 0 0-.072.508.398.398 0 0 0 .362.218h.073l6.528-.87a.732.732 0 0 0 .218-.074L21.488 8.227a1.805 1.805 0 0 0 .508-1.379 2.98 2.98 0 0 0-.797-2.032ZM7.843 15.711l.886-.887 2.279 2.24-.946.908-2.219-2.262Zm1.477-1.477.952-.952 2.272 2.31-.933.895-2.29-2.253Zm-.526 4.953-5.15.726 3.561-3.563.678.69-1.002 1.001a.443.443 0 0 0 0 .582c.08.078.181.13.291.148a.38.38 0 0 0 .292-.148l.997-.996.952.968-.619.592ZM20.91 7.575l-7.716 7.396-2.306-2.305 7.555-7.559c.208-.157.465-.234.725-.217.505 0 .994.18 1.379.508.368.394.576.912.58 1.452a.954.954 0 0 1-.217.724v.001Z" clip-rule="evenodd"/>
</svg>
