<svg xmlns="http://www.w3.org/2000/svg" width="24" height="24" fill="none" viewBox="0 0 24 24">
  <path fill="#000" fill-rule="evenodd" d="M4.803 2.915a1.788 1.788 0 1 0-.076 3.572 1.815 1.815 0 0 0 1.895-1.824 1.733 1.733 0 0 0-1.819-1.748Zm-.076 4.484A2.72 2.72 0 0 1 2 4.663a2.677 2.677 0 0 1 2.803-2.66 2.699 2.699 0 1 1-.076 5.396ZM2.91 20.166h3.636V9.223H2.91v10.943ZM7 21.08H2.455A.49.49 0 0 1 2 20.622V8.767a.438.438 0 0 1 .455-.456H7a.402.402 0 0 1 .454.456v11.855A.438.438 0 0 1 7 21.08Zm10.454-.913h3.636v-5.623c0-3.344-1.515-5.32-4.09-5.32a5.712 5.712 0 0 0-3.334 1.216c-.075.152-.303.152-.454.076a.504.504 0 0 1-.303-.38v-.912h-3.56c0 1.976 0 9.043-.076 10.943h3.636V14.24a2.283 2.283 0 0 1 2.272-2.28 2.236 2.236 0 0 1 2.273 2.28v5.927Zm4.09.913H17a.49.49 0 0 1-.454-.457V14.24a1.364 1.364 0 1 0-2.727 0v6.383a.439.439 0 0 1-.455.457H8.816a.537.537 0 0 1-.455-.457c0-.151.076-10.943 0-11.855a.583.583 0 0 1 .152-.306.302.302 0 0 1 .303-.152h4.545a.402.402 0 0 1 .454.456v.456A6.61 6.61 0 0 1 17 8.309c3.105 0 5 2.432 5 6.232v6.08a.438.438 0 0 1-.456.458Z" clip-rule="evenodd"/>
</svg>
