<svg xmlns="http://www.w3.org/2000/svg" width="24" height="24" fill="none" viewBox="0 0 24 24">
  <path fill="#000" fill-rule="evenodd" d="M12 2.833A9.165 9.165 0 1 0 21.166 12 9.202 9.202 0 0 0 12 2.833ZM12 22a10 10 0 1 1 0-20 10 10 0 0 1 0 20ZM6.997 7.364h-.139c-.346 0-.692.347-.692.904 0 .764 1.177 1.945 2.078 2.64.901-.694 2.08-1.876 2.08-2.64a.856.856 0 0 0-.763-.904c-.416-.07-.762.278-.9.904a.45.45 0 0 1-.833 0c-.138-.626-.487-.904-.831-.904Zm1.247 4.45a.417.417 0 0 1-.277-.07c-.277-.208-2.633-1.946-2.633-3.475a1.687 1.687 0 0 1 1.455-1.738 2.005 2.005 0 0 0 2.91 0 1.687 1.687 0 0 1 1.456 1.738c0 1.53-2.426 3.267-2.702 3.476a.255.255 0 0 1-.209.068v.001Zm6.264-4.45h-.139c-.346 0-.693.347-.693.904 0 .764 1.179 1.945 2.08 2.64.9-.694 2.079-1.876 2.079-2.64a.855.855 0 0 0-.762-.904c-.416-.07-.762.278-.9.904a.45.45 0 0 1-.833 0c-.139-.626-.485-.904-.832-.904Zm1.247 4.45a.42.42 0 0 1-.277-.07c-.277-.208-2.633-1.946-2.633-3.475A1.687 1.687 0 0 1 14.3 6.531a2.006 2.006 0 0 0 2.91 0 1.687 1.687 0 0 1 1.456 1.738c0 1.53-2.426 3.267-2.702 3.476a.253.253 0 0 1-.208.068v.001Zm-3.686 6.244a6.434 6.434 0 0 1-5.846-3.321.383.383 0 0 1 .14-.554.563.563 0 0 1 .626.208 5.867 5.867 0 0 0 10.091-.069.544.544 0 0 1 .557-.139.37.37 0 0 1 .14.554 6.372 6.372 0 0 1-5.707 3.317v.004Z" clip-rule="evenodd"/>
</svg>
