<svg xmlns="http://www.w3.org/2000/svg" width="24" height="24" fill="none" viewBox="0 0 24 24">
  <path fill="#000" fill-rule="evenodd" d="m21.865 8.405-1.888-1.887.985-2.79a.693.693 0 0 0-.164-.573.545.545 0 0 0-.493-.083l-2.871.985-1.887-1.887a.31.31 0 0 0-.492-.082.45.45 0 0 0-.328.492l.328 2.79-2.87 1.557a.585.585 0 0 0-.247.492c.082.246.246.41.41.41l2.497.591L2.123 21.062a.612.612 0 0 0 0 .737.491.491 0 0 0 .328.082.74.74 0 0 0 .41-.082L15.573 9.086l.548 2.598a.542.542 0 0 0 .409.329h.082a.452.452 0 0 0 .41-.246l1.641-2.871 2.789.328c.164.082.41-.082.492-.247a.504.504 0 0 0-.08-.572Zm-3.449-.493a.585.585 0 0 0-.492.246l-1.066 2.05s0-.004-.541-2.007a.478.478 0 0 0-.112-.403.803.803 0 0 0-.124-.062 1.627 1.627 0 0 0-.127-.07l-2.133-.492 1.97-1.148a.397.397 0 0 0 .244-.492l-.164-1.725 1.066 1.149a.675.675 0 0 0 .575.082l2.132-.738-.738 2.215a.602.602 0 0 0 .164.492l1.067 1.066-1.72-.163Z" clip-rule="evenodd"/>
</svg>
