<svg xmlns="http://www.w3.org/2000/svg" width="24" height="24" fill="none" viewBox="0 0 24 24">
  <path fill="#000" fill-rule="evenodd" d="m21.86 12.312-2.402-2.397a.526.526 0 0 0-.636 0l-6.286 6.275a3.29 3.29 0 0 1-4.733 0 3.359 3.359 0 0 1 0-4.794L14.09 5.12a.425.425 0 0 0 .07-.282.64.64 0 0 0-.07-.352l-2.402-2.328a.398.398 0 0 0-.636 0l-6.85 6.84a7.61 7.61 0 0 0 10.735 10.79l6.922-6.911a.351.351 0 0 0 0-.564ZM11.336 3.005l1.836 1.833-1.222 1.22-1.828-1.829 1.214-1.224Zm3.037 16.147a6.83 6.83 0 0 1-9.606 0 6.759 6.759 0 0 1 0-9.52l4.789-4.83L11.4 6.608 7.17 10.83a4.217 4.217 0 0 0 6.003 5.923l4.19-4.134 1.758 1.793-4.748 4.739Zm5.365-5.355-1.77-1.77 1.21-1.194 1.765 1.763-1.205 1.2Z" clip-rule="evenodd"/>
</svg>
