<svg xmlns="http://www.w3.org/2000/svg" width="24" height="24" fill="none" viewBox="0 0 24 24">
  <path fill="#000" d="M22 2.414A.398.398 0 0 0 21.583 2H2.42a.4.4 0 0 0-.42.414v4.137c0 .005.005.01.005.015 0 .005-.005.011-.005.018v14.953a.448.448 0 0 0 .419.415h14.58a.363.363 0 0 0 .28-.138l4.582-4.569A.522.522 0 0 0 22 16.97V6.584c0-.007-.003-.011-.003-.018 0-.007.003-.01.003-.015V2.414Zm-.834 13.73h-4.604a.4.4 0 0 0-.417.415v4.56H7.012V6.998h14.154v9.148Zm0-10.007H19.47V3.64h-.795v2.497h-2.529V4.483h-.843v1.654h-2.482V4.483h-.843v1.654H9.496V3.64h-.843v2.497h-1.64V2.828h14.154l-.001 3.31ZM2.836 2.828h3.332v3.31H2.836v-3.31Zm0 4.172h3.332v1.65H3.686v.844h2.482v2.482H4.53v.843h1.638v2.482H4.53v.844h1.638v2.482H3.686v.843h2.482v1.652H2.836V7Zm14.146 14v-4.027h3.973L16.982 21Z"/>
</svg>
