<svg xmlns="http://www.w3.org/2000/svg" width="24" height="24" fill="none" viewBox="0 0 24 24">
  <path fill="#000" fill-rule="evenodd" d="M11.625 8.665a6.667 6.667 0 1 0 6.69 6.667 6.725 6.725 0 0 0-6.69-6.667Zm0 12.5a5.835 5.835 0 1 1 .042-11.668 5.835 5.835 0 0 1-.042 11.669Zm3.763-7.498h-2.22l-1.182-2.234a.353.353 0 0 0-.694 0l-1.18 2.234H7.89a.57.57 0 0 0-.417.28c0 .209 0 .418.139.488l1.875 1.535-.764 2.654c.003.15.051.296.138.419a.427.427 0 0 0 .487.07l2.292-1.467 2.292 1.466h.208a.419.419 0 0 0 .279-.07.337.337 0 0 0 .138-.418l-.764-2.653 1.875-1.536a.404.404 0 0 0 .14-.489.47.47 0 0 0-.42-.279Zm-2.362 1.817c-.139.07-.138.279-.138.419l.555 1.885-1.598-.978a.347.347 0 0 0-.417 0l-1.596.978.555-1.885a.337.337 0 0 0-.14-.419l-1.18-.978h1.32a.38.38 0 0 0 .346-.209l.903-1.745.903 1.745a.383.383 0 0 0 .348.21h1.32l-1.181.977Zm.805-8.206 2.432-5A.463.463 0 0 1 16.61 2h4.196a.385.385 0 0 1 .349.208.874.874 0 0 1 .07.416l-3.422 6.94a.466.466 0 0 1-.35.277.258.258 0 0 1-.21-.07.362.362 0 0 1-.139-.555l3.075-6.383h-1.165L16.428 8.26l-.091.193v.004c-.003.006-.011.008-.015.014a.562.562 0 0 1-.125.125.254.254 0 0 1-.036.02.446.446 0 0 1-.345.051h-.036a.477.477 0 0 1-.208-.562l.253-.527 2.25-4.744h-1.182l-2.294 4.792a.42.42 0 0 1-.764-.347h-.004ZM5.386 9.563l-3.34-6.939a.326.326 0 0 1 .07-.416A.383.383 0 0 1 2.463 2h4.161a.465.465 0 0 1 .35.278l2.371 5a.364.364 0 0 1-.14.555.442.442 0 0 1-.558-.208L6.343 2.833H5.16l2.518 5.273a.464.464 0 0 1-.209.555h-.003l-.006.005h-.028a.504.504 0 0 1-.37-.05l-.02-.011a.302.302 0 0 1-.09-.095c-.015-.02-.039-.03-.05-.054L4.21 2.83H3.09l3.062 6.384a.384.384 0 0 1-.209.555c-.07.07-.07.07-.139.07a.47.47 0 0 1-.419-.276Z" clip-rule="evenodd"/>
</svg>
