<svg xmlns="http://www.w3.org/2000/svg" width="24" height="24" fill="none" viewBox="0 0 24 24">
  <path fill="#000" fill-rule="evenodd" d="M17.866 14.162a.477.477 0 0 0-.424-.284h-3.9l-1.205-3.902a.45.45 0 0 0-.426-.355.38.38 0 0 0-.355.355l-1.205 3.902h-3.97a.471.471 0 0 0-.354.284.582.582 0 0 0 .07.496l3.191 2.767-1.56 3.972a.407.407 0 0 0 .142.497.342.342 0 0 0 .496 0l3.545-2.767 3.617 2.767a.259.259 0 0 0 .212.07c.142 0 .214 0 .285-.07a.408.408 0 0 0 .14-.497l-1.559-3.972 3.12-2.767a.438.438 0 0 0 .14-.496Zm-4.112 2.837a.583.583 0 0 0-.07.497l1.133 2.766-2.623-1.986a.368.368 0 0 0-.284-.142c-.07 0-.142.071-.213.142l-2.623 1.986 1.134-2.766a.44.44 0 0 0-.142-.497l-2.553-2.27h3.12a.39.39 0 0 0 .426-.284l.85-2.909.922 2.909c0 .213.213.284.354.284h3.121l-2.552 2.27ZM6.888 2.566a.31.31 0 0 1 .071-.354A.379.379 0 0 1 7.243 2h9.337a.389.389 0 0 1 .354.212.309.309 0 0 1 .07.354l-1.697 9.338c0 .141-.212.283-.425.283h-.07c-.212 0-.354-.213-.283-.495l1.556-8.843h-2.46v5.532a.378.378 0 0 1-.431.425.414.414 0 0 1-.431-.425V2.85h-1.727v5.532c0 .284-.135.425-.407.425a.4.4 0 0 1-.408-.425V2.85H7.81l1.556 8.843c.071.282-.071.495-.283.495-.283.07-.495-.07-.495-.283l-1.7-9.339Z" clip-rule="evenodd"/>
</svg>
