<svg xmlns="http://www.w3.org/2000/svg" width="24" height="24" fill="none" viewBox="0 0 24 24">
  <path fill="#000" fill-rule="evenodd" d="M18.455 13.925a.467.467 0 0 0-.415-.277h-3.882l-1.524-3.88a.467.467 0 0 0-.416-.278.46.46 0 0 0-.347.277l-1.594 3.881H6.396a.461.461 0 0 0-.346.277.41.41 0 0 0 .07.485l3.119 2.704L8.06 21.48a.494.494 0 0 0 .206.416.338.338 0 0 0 .376.077.338.338 0 0 0 .11-.077l3.466-2.703 3.535 2.703a.249.249 0 0 0 .207.07.418.418 0 0 0 .278-.07.332.332 0 0 0 .138-.416l-1.178-4.366 3.12-2.704a.429.429 0 0 0 .136-.485Zm-4.019 2.773a.741.741 0 0 0-.139.416l.97 3.396-2.772-2.149a.358.358 0 0 0-.277-.138c-.07 0-.139.069-.208.138L9.238 20.51l.9-3.396a.334.334 0 0 0-.138-.416L7.505 14.48h3.05a.418.418 0 0 0 .415-.208l1.248-3.188 1.317 3.188a.38.38 0 0 0 .346.208h3.05l-2.495 2.218Zm-5.541-4.162L6.823 4.634V2.416A.445.445 0 0 1 7.236 2h9.938a.4.4 0 0 1 .414.416v2.218l-2.073 7.902a.379.379 0 0 1-.415.277h-.068a.521.521 0 0 1-.346-.485l2.073-7.832V2.832h-2.494v5.399c0 .277-.133.416-.398.416a.392.392 0 0 1-.375-.257.392.392 0 0 1-.023-.159V2.832h-.843v5.399a.37.37 0 0 1-.421.416.403.403 0 0 1-.422-.416V2.832h-.842v5.399c0 .277-.133.416-.398.416a.39.39 0 0 1-.398-.416V2.832H7.65v1.664l2.073 7.832a.395.395 0 0 1-.276.485h-.139a.43.43 0 0 1-.414-.277Z" clip-rule="evenodd"/>
</svg>
