<svg xmlns="http://www.w3.org/2000/svg" width="24" height="24" fill="none" viewBox="0 0 24 24">
  <path fill="#000" fill-rule="evenodd" d="M11.668 8.664a6.668 6.668 0 1 0 6.668 6.668 6.714 6.714 0 0 0-6.668-6.668Zm0 12.503a5.835 5.835 0 1 1 5.393-3.6 5.825 5.825 0 0 1-5.393 3.6Zm4.156-7.219a.468.468 0 0 0-.416-.279h-2.221l-1.18-2.234a.356.356 0 0 0-.696 0l-1.18 2.234H7.909a.47.47 0 0 0-.417.28c0 .209 0 .418.14.488l1.875 1.536-.764 2.654c0 .14 0 .349.138.419a.426.426 0 0 0 .487.07l2.292-1.467 2.292 1.466h.209a.417.417 0 0 0 .278-.07c.14-.07.139-.279.139-.418l-.764-2.654 1.876-1.536a.404.404 0 0 0 .135-.491v.002Zm-2.776 1.536c-.139.07-.138.28-.138.42l.555 1.885-1.598-.978a.346.346 0 0 0-.417 0l-1.597.978.555-1.886c0-.14 0-.349-.14-.419l-1.18-.977h1.32a.38.38 0 0 0 .347-.21l.903-1.745.903 1.746a.383.383 0 0 0 .348.209h1.319l-1.18.977ZM8.01 8.39 6.693 4.638V2.417A.448.448 0 0 1 7.109 2H17.12a.404.404 0 0 1 .419.417v2.22L16.282 8.39c0 .208-.21.277-.349.277h-.139a.395.395 0 0 1-.28-.486l1.188-3.75v-1.6h-1.697v4.617a.423.423 0 1 1-.846 0V2.832h-1.643v4.617a.422.422 0 1 1-.845 0V2.832h-1.643v4.617a.423.423 0 0 1-.846 0V2.832H7.525v1.597l1.248 3.682c.07.278 0 .486-.277.555h-.07a.38.38 0 0 1-.418-.28l.002.003Z" clip-rule="evenodd"/>
</svg>
