<svg xmlns="http://www.w3.org/2000/svg" width="24" height="24" fill="none" viewBox="0 0 24 24">
  <path fill="#000" d="M11.56 13.662a.449.449 0 0 0-.417.417v3.751H2.83V9.494h3.762a.422.422 0 0 0 0-.844H2.83V7.41a1.243 1.243 0 0 1 1.248-1.25h2.493a.417.417 0 0 0 0-.833H4.08A2.043 2.043 0 0 0 2 7.41v12.505A2.045 2.045 0 0 0 4.08 22h5.818a2.088 2.088 0 0 0 2.078-2.084V14.08a.447.447 0 0 0-.416-.418Zm-1.663 7.502H4.078a1.246 1.246 0 0 1-1.248-1.248v-1.242h8.312v1.242a1.244 1.244 0 0 1-1.245 1.248ZM7.01 7.434a.454.454 0 0 1-.421.421h-.843a.421.421 0 0 1 0-.843h.843a.454.454 0 0 1 .42.422h.001ZM20.33 2H10.32a1.69 1.69 0 0 0-1.668 1.664V8.66a1.69 1.69 0 0 0 1.668 1.664h2.502v2.08a.434.434 0 0 0 .279.417h.139a.525.525 0 0 0 .277-.139l2.364-2.357h4.452A1.69 1.69 0 0 0 22 8.659V3.664A1.69 1.69 0 0 0 20.329 2Zm.834 6.657a.844.844 0 0 1-.834.833h-4.59a.363.363 0 0 0-.278.139l-1.808 1.803V9.906a.448.448 0 0 0-.417-.416h-2.92a.803.803 0 0 1-.834-.833V3.663a.803.803 0 0 1 .835-.832h10.01a.845.845 0 0 1 .833.832v4.994Zm-4.528-4.994a1.35 1.35 0 0 0-1.311.554 1.404 1.404 0 0 0-1.312-.554 1.607 1.607 0 0 0-1.381 1.663c0 1.455 2.21 3.049 2.416 3.257a.42.42 0 0 0 .277.07.252.252 0 0 0 .207-.07c.276-.207 2.485-1.801 2.485-3.257a1.606 1.606 0 0 0-1.38-1.664ZM15.324 7.75c-.828-.693-1.864-1.733-1.864-2.425a.844.844 0 0 1 .62-.832h.07c.346 0 .622.277.76.832a.448.448 0 0 0 .828 0c.138-.555.415-.9.828-.832a.844.844 0 0 1 .623.832c0 .691-1.036 1.733-1.865 2.424Zm-7.47 12.14Z"/>
</svg>
