<svg xmlns="http://www.w3.org/2000/svg" width="24" height="24" fill="none" viewBox="0 0 24 24">
  <path fill="#000" fill-rule="evenodd" d="M2.416 3.65a.395.395 0 0 1-.412-.412v-.825A.443.443 0 0 1 2.416 2h.824a.396.396 0 0 1 .411.412.364.364 0 0 1-.41.411h-.413v.412a.363.363 0 0 1-.412.414Zm8.762-.412v-.825A.402.402 0 0 0 10.754 2h-.847a.45.45 0 0 0-.423.412.401.401 0 0 0 .423.411h.424v.412a.402.402 0 0 0 .423.411.368.368 0 0 0 .423-.409ZM2.804 5.731v-.823a.39.39 0 0 0-.401-.411.437.437 0 0 0-.402.411v.823a.39.39 0 0 0 .402.412.356.356 0 0 0 .401-.412Zm3.34-3.304a.401.401 0 0 0-.412-.424h-.824a.449.449 0 0 0-.41.424.402.402 0 0 0 .41.423h.824a.37.37 0 0 0 .412-.423Zm0 8.326a.402.402 0 0 0-.412-.423h-.824a.448.448 0 0 0-.41.423.402.402 0 0 0 .41.423h.824a.37.37 0 0 0 .412-.423Zm2.493-8.326a.401.401 0 0 0-.411-.424h-.824a.45.45 0 0 0-.412.424.402.402 0 0 0 .412.423h.824a.37.37 0 0 0 .413-.423h-.002Zm0 8.326a.402.402 0 0 0-.411-.423h-.824a.45.45 0 0 0-.412.423.402.402 0 0 0 .412.423h.824a.37.37 0 0 0 .413-.423h-.002Zm2.54 0v-.847a.409.409 0 0 0-.423-.423.455.455 0 0 0-.423.423v.423h-.424a.454.454 0 0 0-.422.424.406.406 0 0 0 .422.423h.848a.376.376 0 0 0 .422-.423Zm0-2.493v-.847a.408.408 0 0 0-.423-.423.456.456 0 0 0-.423.423v.847a.406.406 0 0 0 .423.423.373.373 0 0 0 .423-.423Zm-7.526 2.493a.402.402 0 0 0-.41-.424h-.413v-.423a.402.402 0 0 0-.412-.423.449.449 0 0 0-.412.423v.847a.402.402 0 0 0 .412.423h.824a.368.368 0 0 0 .41-.423h.001ZM2.804 8.26v-.847a.397.397 0 0 0-.401-.423.445.445 0 0 0-.402.423v.847a.395.395 0 0 0 .402.423c.268 0 .401-.14.401-.423Zm8.374-2.529v-.823a.403.403 0 0 0-.424-.411.449.449 0 0 0-.423.411v.823a.4.4 0 0 0 .423.412.368.368 0 0 0 .423-.412Zm-8.339 7.925h7.505v7.505H2.839v-7.505Zm8.339 7.92v-8.34a.402.402 0 0 0-.418-.416H2.421a.448.448 0 0 0-.417.417v8.343a.402.402 0 0 0 .417.416h8.34a.37.37 0 0 0 .416-.416v-.004Zm9.858-12.341-3.302-3.298a.37.37 0 0 0-.324-.172.408.408 0 0 0-.313.185L13.81 9.235a.517.517 0 0 0 0 .624.422.422 0 0 0 .556 0l2.644-2.64v11.867a.391.391 0 0 0 .401.416c.268 0 .402-.139.402-.416V7.195l2.67 2.666c.081.056.18.08.277.07.14 0 .209 0 .278-.07a.39.39 0 0 0-.003-.624v-.002Z" clip-rule="evenodd"/>
</svg>
