<svg xmlns="http://www.w3.org/2000/svg" width="24" height="24" fill="none" viewBox="0 0 24 24">
  <path fill="#000" fill-rule="evenodd" d="M3.27 22h-.847A.402.402 0 0 1 2 21.587v-.823a.423.423 0 0 1 .847 0v.411h.423a.448.448 0 0 1 .423.412.401.401 0 0 1-.423.411Zm7.952-.412v-.823a.423.423 0 1 0-.847 0v.411h-.424a.45.45 0 0 0-.423.412.402.402 0 0 0 .423.411h.847a.403.403 0 0 0 .424-.411Zm-8.375-2.494v-.824a.424.424 0 0 0-.847 0v.824a.423.423 0 0 0 .847 0Zm3.34 2.482a.457.457 0 0 0-.423-.423h-.848a.455.455 0 0 0-.422.423.407.407 0 0 0 .422.423h.848a.409.409 0 0 0 .424-.423Zm0-8.328a.456.456 0 0 0-.423-.423h-.848a.455.455 0 0 0-.422.423.407.407 0 0 0 .422.423h.848a.407.407 0 0 0 .424-.423Zm2.494 8.328a.45.45 0 0 0-.411-.423h-.824a.45.45 0 0 0-.412.423.402.402 0 0 0 .412.423h.824a.4.4 0 0 0 .411-.423Zm0-8.328a.449.449 0 0 0-.411-.423h-.824a.45.45 0 0 0-.412.423.401.401 0 0 0 .412.423h.824a.401.401 0 0 0 .411-.423Zm2.541.847v-.847a.455.455 0 0 0-.424-.423h-.847a.457.457 0 0 0-.423.423.407.407 0 0 0 .423.423h.424v.424a.423.423 0 1 0 .847 0Zm0 2.493v-.846a.423.423 0 1 0-.847 0v.846a.423.423 0 1 0 .847 0Zm-8.375-2.493v-.424h.423a.404.404 0 0 0 .396-.259.407.407 0 0 0 .027-.164.456.456 0 0 0-.423-.423h-.847a.455.455 0 0 0-.423.423v.847a.423.423 0 1 0 .847 0Zm0 2.493v-.846a.423.423 0 1 0-.847 0v.846a.423.423 0 1 0 .847 0Zm8.375 2.506v-.824a.423.423 0 1 0-.847 0v.824a.423.423 0 1 0 .847 0ZM2.842 2.836h7.544v7.508H2.842V2.836Zm8.38 7.922v-8.34A.45.45 0 0 0 10.804 2H2.418A.45.45 0 0 0 2 2.417v8.341a.402.402 0 0 0 .418.417h8.384a.401.401 0 0 0 .42-.416v-.001Zm9.86 3.449a.327.327 0 0 0-.558 0l-2.62 2.609V4.91a.423.423 0 1 0-.847 0v11.953l-2.669-2.656a.394.394 0 1 0-.557.555l3.346 3.332a.065.065 0 0 0 .011.007.442.442 0 0 0 .2.11.32.32 0 0 0 .069.022c.005 0 .007-.003.011-.003.005 0 .01.003.012.003a.458.458 0 0 0 .39-.272l3.214-3.2a.323.323 0 0 0 0-.552l-.002-.002Z" clip-rule="evenodd"/>
</svg>
