<svg xmlns="http://www.w3.org/2000/svg" width="24" height="24" fill="none" viewBox="0 0 24 24">
  <path fill="#000" fill-rule="evenodd" d="M8.88 8.28a.844.844 0 0 0-.833.834.802.802 0 0 0 .833.833.844.844 0 0 0 .834-.833.897.897 0 0 0-.834-.834Zm0 2.5a1.606 1.606 0 0 1-1.667-1.666A1.645 1.645 0 0 1 8.88 7.447a1.69 1.69 0 0 1 1.666 1.667A1.646 1.646 0 0 1 8.88 10.78Zm5.822-2.5a.844.844 0 0 0-.833.834.802.802 0 0 0 .833.833.844.844 0 0 0 .833-.833.896.896 0 0 0-.833-.834Zm0 2.5a1.608 1.608 0 0 1-1.667-1.666 1.645 1.645 0 0 1 1.667-1.667 1.69 1.69 0 0 1 1.667 1.667 1.645 1.645 0 0 1-1.667 1.666ZM12 2.833A9.166 9.166 0 1 0 21.165 12a9.203 9.203 0 0 0-9.163-9.165H12ZM12 22a10 10 0 1 1 10-10 9.96 9.96 0 0 1-9.998 10.001L12 22Zm5.828-5.822H6.172a.37.37 0 0 1-.416-.423.404.404 0 0 1 .416-.424h11.656a.451.451 0 0 1 .416.424.404.404 0 0 1-.414.425l-.002-.002Z" clip-rule="evenodd"/>
</svg>
