<svg xmlns="http://www.w3.org/2000/svg" width="24" height="24" fill="none" viewBox="0 0 24 24">
  <path fill="#000" fill-rule="evenodd" d="M14.267 9.198a2.007 2.007 0 0 0-1.8.278 1.867 1.867 0 0 0-1.731-.278 2.207 2.207 0 0 0-1.524 2.223c.07 2.013 2.979 3.47 3.117 3.54.069.07.069.07.138.07a.254.254 0 0 0 .208-.07c.138-.07 3.047-1.527 3.047-3.54a2.165 2.165 0 0 0-1.455-2.223Zm-1.8 4.93c-.76-.416-2.354-1.527-2.423-2.707a1.39 1.39 0 0 1 .97-1.46h.276a.906.906 0 0 1 .831.418.5.5 0 0 0 .692 0 .987.987 0 0 1 1.177-.417 1.34 1.34 0 0 1 .9 1.459c0 1.18-1.592 2.29-2.423 2.707Zm9.438 3.04c-.971-.972-1.873-1.248-2.914-.972l-3.428 1.144a1.503 1.503 0 0 0-1.106-.41h-2.282a5.99 5.99 0 0 0-3.943-1.667H6.169v-.38a.4.4 0 0 0-.417-.416H2.418a.448.448 0 0 0-.418.416V20.7a.4.4 0 0 0 .418.416h3.334a.37.37 0 0 0 .417-.416v-.597c.691.225 1.313.45 1.932.674 2.15.764 3.4 1.181 4.509 1.181 1.318 0 2.497-.625 5.064-2.014 1.11-.555 2.428-1.248 4.093-2.083a.381.381 0 0 0 .208-.347.305.305 0 0 0-.07-.344v-.003Zm-19.07 3.117v-4.988h2.5v.342a.362.362 0 0 0-.01.04.422.422 0 0 0 .01.048v4.56l-2.5-.002Zm14.493-1.034c-4.44 2.291-4.44 2.291-9.018.694-.622-.186-1.307-.434-2.14-.73v-3.12h2.063a4.888 4.888 0 0 1 3.458 1.598.42.42 0 0 0 .277.07h2.49c.485 0 .623.278.623.417 0 .208-.138.417-.622.417H9.892a.448.448 0 0 0-.415.417.399.399 0 0 0 .415.416h4.566a1.303 1.303 0 0 0 1.452-1.248c0-.01 0-.021-.003-.032l3.293-1.12a1.715 1.715 0 0 1 1.665.348c-1.21.564-2.39 1.19-3.536 1.876v-.003ZM4.291 7.817c.256.008.513-.015.763-.07L8.46 6.59c.277.254.642.389 1.017.375h2.357a5.672 5.672 0 0 0 3.881 1.649h2.07v.427a.4.4 0 0 0 .416.415h3.335a.366.366 0 0 0 .416-.415V3.222a.4.4 0 0 0-.416-.416H18.2a.448.448 0 0 0-.417.416v.588a30.15 30.15 0 0 1-1.838-.648c-4.855-1.667-4.925-1.667-9.573.834-1.11.555-2.429 1.248-4.093 2.153-.139 0-.208.139-.208.278a.306.306 0 0 0 .07.347 2.87 2.87 0 0 0 2.148 1.047l.002-.004Zm16.828-4.18v4.987h-2.5v-.358a.62.62 0 0 0 .009-.066.499.499 0 0 0-.01-.054V4.618a.473.473 0 0 0 .034-.062.44.44 0 0 0-.033-.326v-.589l2.5-.004ZM6.72 4.76c4.44-2.362 4.44-2.363 8.947-.764.658.18 1.325.414 2.118.697v3.094h-2.069a4.886 4.886 0 0 1-3.397-1.51.532.532 0 0 0-.346-.139H9.477a.561.561 0 0 1-.467-.175V5.94a.344.344 0 0 0-.068-.116.404.404 0 0 1-.019-.097c0-.137.14-.412.556-.412h4.574a.366.366 0 0 0 .416-.412.397.397 0 0 0-.416-.412H9.478a1.275 1.275 0 0 0-1.387 1.236c0 .04.009.08.012.12L4.846 6.912a1.714 1.714 0 0 1-1.665-.348 74.707 74.707 0 0 0 3.537-1.801l.003-.003Z" clip-rule="evenodd"/>
</svg>
