<svg xmlns="http://www.w3.org/2000/svg" width="24" height="24" fill="none" viewBox="0 0 24 24">
  <path fill="#000" fill-rule="evenodd" d="M17.032 7.818v4.18a.37.37 0 0 0 .417.417.401.401 0 0 0 .418-.417V4.083A2.139 2.139 0 0 0 15.778 2H4.088A2.09 2.09 0 0 0 2 4.083v12.498a2.048 2.048 0 0 0 2.088 2.083h7.933a.4.4 0 0 0 .418-.417.448.448 0 0 0-.418-.416H7.867v-4.143h4.56a.409.409 0 0 0 .264-.114l.022-.016c.007-.006.013-.022.022-.032a.4.4 0 0 0 .109-.255v-5.45l4.188-.003Zm0-3.737v2.892h-4.188V2.83h2.934a1.293 1.293 0 0 1 1.254 1.25Zm-5.033 2.892H7.867V2.83H12v4.143ZM4.09 2.83h2.934v4.143H2.836V4.081A1.246 1.246 0 0 1 4.09 2.83ZM2.836 7.818h4.188v5.023H2.836V7.818Zm4.188 10.01H4.09a1.247 1.247 0 0 1-1.252-1.25v-2.893h4.188l-.001 4.143ZM12 12.841H7.868V7.818H12v5.023Zm7.182 4.905a1.667 1.667 0 1 1-3.334.06 1.667 1.667 0 0 1 3.334-.06Zm-1.667.833a.801.801 0 0 1-.833-.833.834.834 0 1 1 1.666 0 .8.8 0 0 1-.833.832v.001Zm4.016.3a.21.21 0 0 1 0 .276L20.7 20.61a.382.382 0 0 1-.554.139l-.623-.344c-.261.187-.54.349-.83.485v.692a.4.4 0 0 1-.416.415h-1.661a.368.368 0 0 1-.416-.415v-.692a2.873 2.873 0 0 1-.761-.485l-.555.344a.414.414 0 0 1-.276.07.96.96 0 0 1-.277-.209l-.83-1.454a.377.377 0 0 1-.06-.309.376.376 0 0 1 .197-.245l.555-.343v-.9l-.555-.344a.373.373 0 0 1-.202-.406.375.375 0 0 1 .064-.149l.83-1.454.209-.207a.51.51 0 0 1 .343.07l.555.343c.226-.2.484-.364.761-.484v-.623a.404.404 0 0 1 .254-.389.4.4 0 0 1 .162-.027h1.661a.447.447 0 0 1 .416.416v.623c.291.135.57.297.83.484l.624-.344a.373.373 0 0 1 .553.138l.831 1.454a.375.375 0 0 1-.138.555l-.554.344v.415a1.03 1.03 0 0 1-.07.485l.624.343a.358.358 0 0 1 .14.277ZM20.146 16.8c-.138.07-.277.277-.208.416.053.18.077.366.07.553.01.21-.013.421-.07.624a.308.308 0 0 0 .208.415l.415.277-.415.762-.485-.277c-.138-.139-.344-.07-.485.07a2.92 2.92 0 0 1-1.037.553.38.38 0 0 0-.278.415v.554h-.83v-.554a.466.466 0 0 0-.277-.415 2.725 2.725 0 0 1-.97-.554.418.418 0 0 0-.553-.069l-.415.276-.417-.76.485-.278c.139-.069.277-.277.208-.415a1.918 1.918 0 0 1-.07-.624 1.72 1.72 0 0 1 .07-.553c.07-.139-.07-.344-.208-.415l-.485-.278.417-.761.415.277a.522.522 0 0 0 .554-.07c.281-.25.611-.438.97-.553A.467.467 0 0 0 17.03 15v-.484h.831V15a.38.38 0 0 0 .278.416c.38.112.733.3 1.038.553a.428.428 0 0 0 .485.07l.485-.277.484.761-.485.277Z" clip-rule="evenodd"/>
</svg>
