<svg xmlns="http://www.w3.org/2000/svg" width="24" height="24" fill="none" viewBox="0 0 24 24">
  <path fill="#000" fill-rule="evenodd" d="M22.09 3.806a.42.42 0 0 0-.495-.07l-4.422 2.447V2.45a.475.475 0 0 0-.283-.422.438.438 0 0 0-.426.07l-5.863 5.701H5.75a.328.328 0 0 0-.27.093l-3.364 3.364a.433.433 0 0 0-.07.49.465.465 0 0 0 .351.28h4.855l3.226 6.042a.187.187 0 0 0 .211.211l9.273 3.65a.26.26 0 0 0 .211.07.376.376 0 0 0 .279-.21c.14-.141.14-.28 0-.492 0 0 0-.003-3.077-4.424l4.856-12.574a.435.435 0 0 0-.141-.492Zm-5.767 11.555L11.37 8.236c.463-.446 1.691-1.639 4.954-4.8V15.36ZM3.447 11.184 5.62 8.942l1.123 2.242H3.447Zm4.36.216-.011.005v-.01L6.424 8.651h3.984v7.591L7.807 11.4Zm3.442 6.177V9.575l7.728 11.09-7.728-3.088Zm5.924-2.54V7.192l3.858-2.117-3.858 9.962Z" clip-rule="evenodd"/>
</svg>
