<svg xmlns="http://www.w3.org/2000/svg" width="24" height="24" fill="none" viewBox="0 0 24 24">
  <path fill="#000" fill-rule="evenodd" d="M17.354 19.47h-1.225v-3.75a.449.449 0 0 0-.417-.418h-1.998l.756-4.979h.415c.139 0 .347-.138.347-.277l.83-2.495a.464.464 0 0 0-.208-.554 9.346 9.346 0 0 0-3.433-.832 2.076 2.076 0 0 0 2.023-2.08V2.417A.446.446 0 0 0 14.032 2h-3.295a.398.398 0 0 0-.412.417v1.668a2.034 2.034 0 0 0 2.04 2.082 9.864 9.864 0 0 0-3.427.83.509.509 0 0 0-.277.554l.83 2.495a.467.467 0 0 0 .414.277h.417l.756 4.979h-2.02a.4.4 0 0 0-.417.418v3.75H7.415a.401.401 0 0 0-.415.422v1.686a.402.402 0 0 0 .415.422h9.943a.45.45 0 0 0 .415-.422v-1.686a.45.45 0 0 0-.42-.421ZM11.146 4.086v-1.25h2.473v1.25a1.236 1.236 0 1 1-2.473 0Zm-.067 5.753a.439.439 0 0 0-.415-.346h-.486L9.556 7.69c2.352-.901 3.389-.901 5.604 0l-.623 1.802h-.415a.388.388 0 0 0-.416.346l-.898 5.464h-.903l-.826-5.464Zm-1.61 6.3h2.048a.363.363 0 0 0 .047.007h1.66a.305.305 0 0 0 .045-.008h2.028v3.334H9.47v-3.334Zm7.471 5.019H7.826v-.843h9.114v.843Z" clip-rule="evenodd"/>
</svg>
