<svg xmlns="http://www.w3.org/2000/svg" width="24" height="24" fill="none" viewBox="0 0 24 24">
  <path fill="#000" fill-rule="evenodd" d="m20.942 9.28-7.156-7.174a.426.426 0 0 0-.562 0L11.4 3.864a.527.527 0 0 0 0 .632l.351.353-6.293 6.827c0 .07-.07.14-.07.21l-.62 3.513-1.626 1.619a.278.278 0 0 0-.14.279c0 .14 0 .21.14.28l2.386 2.375c.07.14.14.14.28.14a.281.281 0 0 0 .281-.14l1.64-1.633 3.479-.614c.07 0 .14-.07.209-.07l6.82-6.285.317.32a.43.43 0 0 0 .281.07.523.523 0 0 0 .351-.07l1.755-1.829a.43.43 0 0 0 0-.56ZM6.67 11.615 7.782 10.4l4.915 4.915-1.214 1.112-4.813-4.813Zm-.532.702 4.643 4.643-3.079.468-2.033-2.033.469-3.078Zm-.33 6.8L3.986 17.3l1.192-1.188 1.825 1.817-1.193 1.188Zm7.488-4.35L8.413 9.711l3.916-4.273 3.286 3.285 2.042 2.045-4.361 3.996Zm5.54-4.008-.25-.251c-.006-.006-.01-.014-.017-.02l-1.339-1.34-4.919-4.93 1.193-1.195 6.525 6.54-1.192 1.196Zm-3.089 10.68a.472.472 0 0 1-.56.209c-.07-.07-3.292-1.598-8.124 0a7.353 7.353 0 0 1-1.89.346 1.982 1.982 0 0 1-1.47-.486c-.839-.694-.561-1.944-.561-2.014a.555.555 0 0 1 .56-.347.44.44 0 0 1 .28.556s-.14.833.28 1.18c.419.42 1.33.348 2.52 0 5.183-1.736 8.614-.07 8.754 0a.436.436 0 0 1 .21.555h.001Z" clip-rule="evenodd"/>
</svg>
