<svg xmlns="http://www.w3.org/2000/svg" width="24" height="24" fill="none" viewBox="0 0 24 24">
  <path fill="#000" fill-rule="evenodd" d="m21.911 18.809-2.93-4.973a7.833 7.833 0 0 0 1.067-3.931 7.97 7.97 0 0 0-15.938 0c0 1.303.327 2.585.948 3.73l-2.977 5.173c-.14.139-.07.347 0 .486a.337.337 0 0 0 .417.138l2.867-.485.978 2.775a.7.7 0 0 0 .35.278h.07a.384.384 0 0 0 .349-.209l2.624-4.296a7.832 7.832 0 0 0 4.555.033l2.531 4.264a.603.603 0 0 0 .418.208.492.492 0 0 0 .348-.278l1.045-2.774 2.857.485c.139.07.279 0 .417-.138a.59.59 0 0 0 .004-.486ZM6.834 20.612l-.77-2.22a.397.397 0 0 0-.488-.278l-2.377.347 2.38-3.998a8.064 8.064 0 0 0 3.299 2.706c-.277.469-.851 1.435-2.043 3.443ZM4.95 9.905a7.13 7.13 0 1 1 7.13 7.109 7.104 7.104 0 0 1-7.13-7.11Zm13.477 8.21a.393.393 0 0 0-.487.278l-.837 2.22-2.024-3.358a8.056 8.056 0 0 0 3.402-2.659l2.246 3.868-2.3-.349ZM15.5 6.908a.441.441 0 0 1 .07.626l-4.118 5.224a.533.533 0 0 1-.35.14c-.139 0-.208 0-.279-.07l-2.234-2.23a.52.52 0 0 1 0-.625.427.427 0 0 1 .559 0l1.955 1.88 3.84-4.875a.433.433 0 0 1 .557-.07Z" clip-rule="evenodd"/>
</svg>
