<svg xmlns="http://www.w3.org/2000/svg" width="24" height="24" fill="none" viewBox="0 0 24 24">
  <path fill="#000" fill-rule="evenodd" d="M10.763 14.798a.531.531 0 0 1 .278.138l.83.973.831-.973c.139-.138.348-.207.486-.069l1.11.556.415-1.181a.44.44 0 0 1 .416-.348l1.319.14-.14-1.251c0-.208.07-.416.277-.416l1.25-.415-.624-1.112a.438.438 0 0 1 .139-.556l.971-.764-.971-.834a.437.437 0 0 1-.139-.556l.623-1.111-1.248-.348a.468.468 0 0 1-.278-.486l.14-1.251-1.319.139a.468.468 0 0 1-.416-.278l-.415-1.25-1.11.623a.46.46 0 0 1-.486-.14l-.83-.972-.83.973a.461.461 0 0 1-.488.139l-1.11-.624-.414 1.251a.47.47 0 0 1-.416.278l-1.246-.14.069 1.252a.467.467 0 0 1-.278.486l-1.248.348.623 1.111a.526.526 0 0 1-.07.556l-1.038.834 1.039.764a.526.526 0 0 1 .069.556l-.623 1.112 1.248.415c.208 0 .278.208.278.416l-.07 1.25 1.247-.139a.442.442 0 0 1 .416.348l.415 1.18 1.11-.555a.254.254 0 0 1 .208-.07Zm1.11 2.223c-.138 0-.207-.07-.347-.208l-.902-1.042-1.246.623a.312.312 0 0 1-.346 0c-.14 0-.208-.14-.278-.208l-.415-1.39-1.458.14a.526.526 0 0 1-.277-.14c-.138-.069-.139-.207-.139-.347l.14-1.39-1.389-.486c-.138 0-.207-.07-.276-.207a.519.519 0 0 1 .069-.348l.623-1.32-1.11-.903a.42.42 0 0 1 0-.623l1.11-.903-.694-1.32V6.6c.07-.07.139-.208.277-.208l1.388-.415-.14-1.459c0-.14.001-.278.14-.348a.53.53 0 0 1 .277-.139l1.457.14.416-1.32a.54.54 0 0 1 .277-.28.312.312 0 0 1 .347 0l1.246.696.902-1.112a.463.463 0 0 1 .694 0l.902 1.112 1.248-.695a.312.312 0 0 1 .347 0c.14 0 .207.14.277.278l.416 1.32 1.456-.139a.53.53 0 0 1 .278.14c.139.069.139.207.139.347l-.139 1.459 1.388.415c.138 0 .207.139.277.208v.347l-.694 1.32 1.11.904a.42.42 0 0 1 0 .623l-1.11.903.694 1.32c0 .07.07.208 0 .348-.07.14-.14.207-.277.207l-1.388.486.139 1.39c0 .139 0 .278-.139.348a.526.526 0 0 1-.278.138l-1.456-.138-.416 1.39c-.07.069-.138.207-.277.207a.313.313 0 0 1-.347 0l-1.248-.623-.902 1.042a.382.382 0 0 1-.346.208ZM17.014 22a.59.59 0 0 1-.349-.208l-2.233-3.738.699-.416 1.817 2.978.767-2.285a.428.428 0 0 1 .49-.208l2.371.347-2.443-4.086.768-.415 2.792 4.847a.59.59 0 0 1 0 .485.337.337 0 0 1-.419.138l-2.862-.484-.977 2.77a.64.64 0 0 1-.42.275h-.001ZM6.728 22c-.207-.07-.348-.138-.348-.277l-1.047-2.77-2.86.485a.339.339 0 0 1-.42-.139.59.59 0 0 1 0-.484l2.791-4.847.768.415L3.24 18.47l2.304-.347a.427.427 0 0 1 .488.208l.837 2.285 1.745-2.978.698.416-2.233 3.738A.593.593 0 0 1 6.73 22h-.003Zm4.575-9.911a.422.422 0 0 1-.28-.07L8.792 9.806a.516.516 0 0 1 0-.623.523.523 0 0 1 .628 0l1.882 1.869 2.996-4.015a.434.434 0 0 1 .558-.07.381.381 0 0 1 .14.555l-3.346 4.43a.53.53 0 0 1-.279.138h-.067Z" clip-rule="evenodd"/>
</svg>
