<svg xmlns="http://www.w3.org/2000/svg" width="24" height="24" fill="none" viewBox="0 0 24 24">
  <path fill="#000" fill-rule="evenodd" d="M9.233 10.421h2.132a3.295 3.295 0 0 0 1.658-.477c.158-.159.395-.239.553-.397.445-.442.77-.99.947-1.592a2.08 2.08 0 0 0-.79-2.304 1.783 1.783 0 0 0-1.263-.477h-2.29a.424.424 0 0 0-.394.397L8.762 9.868a.72.72 0 0 0 .079.398.601.601 0 0 0 .392.155Zm1.344-4.296h1.895a.96.96 0 0 1 .71.238 1.216 1.216 0 0 1 .395 1.353c-.098.444-.35.838-.71 1.114l-.316.32a2.215 2.215 0 0 1-1.184.32H9.784l.793-3.345ZM7.569 18.786l1.35-5.382h2.937a6.95 6.95 0 0 0 7.066-5.46 4.607 4.607 0 0 0-4.684-5.936H6.294a.503.503 0 0 0-.476.396L2.007 18.55a.593.593 0 0 0 .079.396c.159.079.238.158.397.158h4.684c.16 0 .398-.16.398-.317h.004Zm-4.447-.633L6.695 2.958h7.543a3.857 3.857 0 0 1 3.096 1.425 3.658 3.658 0 0 1 .636 3.324c-.636 2.928-3.018 4.748-6.114 4.748H8.6a.444.444 0 0 0-.476.396l-1.35 5.302H3.122Zm18.614-7.33a6.83 6.83 0 0 1-6.875 5.467h-3.003l-1.344 5.39a.433.433 0 0 1-.473.316H5.375c-.158 0-.238 0-.316-.158-.158-.079-.158-.238-.158-.396l.394-1.426c0-.238.238-.397.553-.32.238 0 .396.238.317.554l-.158.793h3.635l1.344-5.312a.502.502 0 0 1 .474-.396h3.398a5.883 5.883 0 0 0 5.926-4.755 3.83 3.83 0 0 0-.315-2.854.64.64 0 0 1 .236-.713.563.563 0 0 1 .633.238 4.883 4.883 0 0 1 .394 3.571h.004Z" clip-rule="evenodd"/>
</svg>
