<svg xmlns="http://www.w3.org/2000/svg" width="24" height="24" fill="none" viewBox="0 0 24 24">
  <path fill="#000" fill-rule="evenodd" d="M18.297 10.954 15.099 5.75l1.56-3.121a.437.437 0 0 0-.144-.571.383.383 0 0 0-.203-.055H6.726a.42.42 0 0 0-.417.209.328.328 0 0 0 .07.417l1.943 3.108-3.207 5.216a.241.241 0 0 0-.069.348l4.995 10.418a.38.38 0 0 0 .416.278h2.499a.355.355 0 0 0 .347-.278l4.995-10.418a.316.316 0 0 0-.001-.348Zm-2.681-8.117-1.244 2.49h-5.36L7.42 2.838h8.195Zm-3.87 9.146a.252.252 0 0 0-.028-.006c-.012 0-.02.005-.032.006a1.23 1.23 0 0 1-.833-2.101 1.228 1.228 0 1 1 .892 2.101Zm.93 9.18h-.537V12.77a2.14 2.14 0 0 0 1.64-2.034 2.079 2.079 0 0 0-2.86-1.932 2.036 2.036 0 0 0-1.262 1.932 2.088 2.088 0 0 0 1.639 2.04v8.388h-.632l-4.787-10L8.993 6.17h5.354l3.118 4.992-4.788 10Z" clip-rule="evenodd"/>
</svg>
