<svg xmlns="http://www.w3.org/2000/svg" width="24" height="24" fill="none" viewBox="0 0 24 24">
  <path fill="#000" fill-rule="evenodd" d="M8.085 4.53a.382.382 0 0 0-.348.209L6.07 8.482c0 .07-.07.138-.07.208v11.229A2.133 2.133 0 0 0 8.084 22a2.086 2.086 0 0 0 2.082-2.081V8.482L8.498 4.739a.419.419 0 0 0-.414-.208Zm0 1.456.843 1.87H7.24l.844-1.87ZM6.835 17.83h2.5v.843h-2.5v-.843Zm0-9.071.047-.107h.758v8.335h-.806V8.759Zm1.648 8.228V8.652h.804l.048.107v8.228h-.852Zm-.398 4.179a1.29 1.29 0 0 1-1.25-1.247v-.45h2.5v.45a1.244 1.244 0 0 1-1.25 1.245v.002Zm9.114-19.164h-4.976a.448.448 0 0 0-.414.417V21.58a.447.447 0 0 0 .415.416h4.975a.398.398 0 0 0 .414-.416V2.42A.397.397 0 0 0 17.2 2v.002Zm-.415 19.162h-4.147v-2.49h1.237a.423.423 0 0 0 0-.844h-1.238v-2.528h1.238a.4.4 0 1 0 0-.797h-1.238v-2.529h1.238a.4.4 0 1 0 0-.796h-1.238V8.652h1.238a.4.4 0 1 0 0-.796h-1.238v-2.53h1.238a.4.4 0 1 0 0-.795h-1.238V2.835h4.148v18.33Z" clip-rule="evenodd"/>
</svg>
