<svg xmlns="http://www.w3.org/2000/svg" width="24" height="24" fill="none" viewBox="0 0 24 24">
  <path fill="#000" fill-rule="evenodd" d="M6.523 3.885v9.564l11.042-4.782L6.523 3.885Zm-.416 10.603a.255.255 0 0 1-.209-.07.381.381 0 0 1-.209-.346V3.262a.38.38 0 0 1 .21-.347.443.443 0 0 1 .415 0L18.816 8.32c.14 0 .209.208.209.347a.494.494 0 0 1-.21.416l-12.5 5.405h-.208ZM4.423 22A.451.451 0 0 1 4 21.582V2.417A.451.451 0 0 1 4.423 2a.403.403 0 0 1 .422.417v19.166a.403.403 0 0 1-.422.417Z" clip-rule="evenodd"/>
</svg>
