<svg xmlns="http://www.w3.org/2000/svg" width="24" height="24" fill="none" viewBox="0 0 24 24">
  <path fill="#000" fill-rule="evenodd" d="M18.123 7.475 5.697 2.102A.408.408 0 0 0 5.42 2a.388.388 0 0 0-.198.065c-.005.003-.01 0-.016.004-.014.007-.02.022-.032.03a.474.474 0 0 0-.07.065.36.36 0 0 0-.105.244v19.175a.452.452 0 0 0 .423.417.402.402 0 0 0 .422-.417V13.55l12.28-5.312a.492.492 0 0 0 .209-.416c-.003-.14-.072-.348-.211-.348ZM5.843 12.6V3.045l11.03 4.775-11.03 4.78Z" clip-rule="evenodd"/>
</svg>
