<svg xmlns="http://www.w3.org/2000/svg" width="24" height="24" fill="none" viewBox="0 0 24 24">
  <path fill="#000" fill-rule="evenodd" d="M21.52 11.585h-2.13a7.481 7.481 0 0 0-6.972-7.067V2.434a.47.47 0 0 0-.44-.433.421.421 0 0 0-.44.433v2.083a7.548 7.548 0 0 0-7.068 7.067H2.438a.42.42 0 0 0-.404.252.416.416 0 0 0 .404.58H4.47a7.548 7.548 0 0 0 7.069 7.068v2.082a.42.42 0 0 0 .44.434.47.47 0 0 0 .44-.434v-2.084a7.482 7.482 0 0 0 6.97-7.067h2.132a.415.415 0 1 0 0-.831Zm-9.101 7.032v-1.171a.47.47 0 0 0-.44-.434.422.422 0 0 0-.44.434v1.172a6.613 6.613 0 0 1-6.202-6.202h1.221a.42.42 0 0 0 .404-.252.416.416 0 0 0-.404-.58h-1.22a6.669 6.669 0 0 1 6.201-6.201v1.172a.421.421 0 0 0 .44.433.471.471 0 0 0 .44-.433v-1.17a6.659 6.659 0 0 1 6.104 6.2h-1.122a.417.417 0 1 0 0 .83h1.123a6.604 6.604 0 0 1-6.105 6.202Zm1.449-9.65a1.95 1.95 0 0 0-1.878.938 2.055 2.055 0 0 0-1.948-.938 2.21 2.21 0 0 0-1.877 2.235c0 2.018 3.174 4.325 3.537 4.613.072 0 .144.073.288.073.072 0 .144-.073.217-.073.361-.288 3.537-2.595 3.537-4.613a2.21 2.21 0 0 0-1.876-2.235Zm-1.878 5.911c-1.01-.72-2.96-2.45-2.96-3.676a1.352 1.352 0 0 1 1.084-1.37h.144c.506 0 1.083.288 1.3 1.298 0 .216.216.288.432.288.144 0 .36-.072.36-.288.29-1.082.94-1.37 1.445-1.298a1.291 1.291 0 0 1 1.083 1.37c0 1.225-1.876 2.955-2.887 3.676Z" clip-rule="evenodd"/>
</svg>
