<svg xmlns="http://www.w3.org/2000/svg" width="24" height="24" fill="none" viewBox="0 0 24 24">
  <path fill="#000" fill-rule="evenodd" d="M12.27 2C7.058 2 4 5.75 4 9.29c0 2.292.903 3.96 2.502 4.655a.82.82 0 0 0 .695-.07.733.733 0 0 0 .417-.486 1.79 1.79 0 0 1 .139-.486c0-.139.07-.347.07-.417a.924.924 0 0 0-.21-.972 2.973 2.973 0 0 1-.625-1.945 4.855 4.855 0 0 1 5.004-4.861c2.572 0 4.17 1.458 4.17 3.82 0 3.056-1.39 5.487-3.127 5.487a1.45 1.45 0 0 1-1.112-.556 1.476 1.476 0 0 1-.209-1.112l.417-1.458c.322-.797.51-1.642.556-2.5 0-1.251-.764-2.084-1.876-2.084-1.39 0-2.571 1.458-2.571 3.264.025.616.142 1.224.347 1.806-.208.764-1.181 5.001-1.39 5.832a12.674 12.674 0 0 0 0 4.307.46.46 0 0 0 .417.486h.139a.497.497 0 0 0 .417-.208h.07a12.45 12.45 0 0 0 2.015-3.752c.07-.277.347-1.457.556-2.222a3.934 3.934 0 0 0 2.502.903c3.683 0 6.324-3.334 6.324-7.987C19.64 5.472 16.927 2 12.27 2Zm1.043 13.892a2.65 2.65 0 0 1-2.293-1.181.6.6 0 0 0-.418-.209.44.44 0 0 0-.416.348s-.626 2.5-.765 2.986a8.28 8.28 0 0 1-1.53 2.917 10.267 10.267 0 0 1 .14-3.334c.209-.903 1.39-6.044 1.39-6.044.07-.069.07-.138 0-.277a3.42 3.42 0 0 1-.347-1.528c0-1.39.764-2.431 1.738-2.431s1.043.833 1.043 1.25a8.07 8.07 0 0 1-.487 2.223 13.52 13.52 0 0 0-.417 1.597 1.915 1.915 0 0 0 .347 1.806 2.321 2.321 0 0 0 1.739.833c2.293 0 3.961-2.708 3.961-6.32 0-2.779-2.015-4.655-5.003-4.655A5.668 5.668 0 0 0 6.157 9.57 3.443 3.443 0 0 0 6.991 12l.07.14v.139c-.07.069-.07.277-.14.416-.07.14-.07.348-.139.417-1.25-.486-1.945-1.875-1.945-3.82 0-2.64 2.293-6.46 7.435-6.46 4.1 0 6.533 3.056 6.533 5.904-.002 4.24-2.226 7.157-5.492 7.157Z" clip-rule="evenodd"/>
</svg>
