<svg xmlns="http://www.w3.org/2000/svg" width="24" height="24" fill="none" viewBox="0 0 24 24">
  <path fill="#000" d="M11.591 17.761H7.862v-4.139h4.552a.427.427 0 0 0 .243-.08.388.388 0 0 0 .043-.024c.006-.006.008-.015.013-.02a.396.396 0 0 0 .115-.291V7.81h4.182v2.487a.417.417 0 1 0 .834 0V4.074A2.133 2.133 0 0 0 15.758 2H4.084A2.085 2.085 0 0 0 2 4.074V16.52a2.043 2.043 0 0 0 2.084 2.074h7.505a.37.37 0 0 0 .402-.247.368.368 0 0 0 .015-.168.402.402 0 0 0-.415-.417Zm.395-4.982H7.862v-4.97h4.124v4.97Zm-9.15-4.97h4.182v4.97H2.837v-4.97Zm5.026-.843V2.827h4.125v4.14H7.862Zm9.15-2.894v2.894h-4.183V2.827h2.932a1.244 1.244 0 0 1 1.25 1.245ZM4.088 2.827h2.93v4.14h-4.18V4.071a1.242 1.242 0 0 1 1.249-1.245Zm-1.25 13.69v-2.895h4.18v4.14h-2.93a1.242 1.242 0 0 1-1.252-1.245h.001Zm19.11 4.847-4.597-9.15a.462.462 0 0 0-.348-.277.572.572 0 0 0-.418.277l-4.597 9.15c0 .07 0 .277.07.347a.384.384 0 0 0 .347.208H21.6a.384.384 0 0 0 .348-.208.315.315 0 0 0-.001-.347h.001Zm-8.846-.277 3.9-7.766 3.9 7.766h-7.8Zm3.9-5.402a.45.45 0 0 1 .422.416v2.496a.422.422 0 1 1-.844 0V16.1a.45.45 0 0 1 .422-.416Zm.422 4.174a.422.422 0 1 1 0-.003v.003Z"/>
</svg>
