<svg xmlns="http://www.w3.org/2000/svg" width="24" height="24" fill="none" viewBox="0 0 24 24">
  <path fill="#000" d="M12.846 7.82h4.143v3.345a.4.4 0 0 0 .418.416.369.369 0 0 0 .416-.416V4.083A2.087 2.087 0 0 0 15.74 2H4.083A2.135 2.135 0 0 0 2 4.083v12.501a2.088 2.088 0 0 0 2.083 2.083h7.564a.4.4 0 0 0 .416-.416.449.449 0 0 0-.416-.417H7.822v-4.143h4.606a.434.434 0 0 0 .282-.087.273.273 0 0 0 .03-.018c.01-.01.014-.026.023-.037a.44.44 0 0 0 .083-.276V7.82Zm4.144-3.74v2.893h-4.143V2.831h2.895a1.243 1.243 0 0 1 1.249 1.252v-.002ZM12 6.974H7.822V2.831H12v4.143ZM4.083 2.831h2.941v4.143h-4.19v-2.89A1.29 1.29 0 0 1 4.082 2.83ZM2.833 7.82h4.19v5.023h-4.19V7.82Zm4.19 10.012h-2.94a1.292 1.292 0 0 1-1.25-1.25v-2.893h4.191v4.143Zm.8-10.012H12v5.023H7.822V7.82Zm13.763 5.869h-2.493a.446.446 0 0 0-.416.415v3.74a.803.803 0 0 1-.83.83.843.843 0 0 1-.832-.83v-3.74a.4.4 0 0 0-.415-.415h-2.493a.447.447 0 0 0-.416.415v3.74a4.168 4.168 0 0 0 4.155 4.155A4.126 4.126 0 0 0 22 17.844v-3.74a.4.4 0 0 0-.414-.415Zm-.415.83v1.658H19.51v-1.658h1.661Zm-4.986 0v1.658h-1.661v-1.658h1.661Zm1.66 6.649a3.322 3.322 0 0 1-3.321-3.322v-.823h1.661v.823a1.685 1.685 0 0 0 1.66 1.66 1.641 1.641 0 0 0 1.662-1.66v-.823h1.66v.823a3.28 3.28 0 0 1-3.32 3.322h-.001Z"/>
</svg>
