<svg xmlns="http://www.w3.org/2000/svg" width="24" height="24" fill="none" viewBox="0 0 24 24">
  <path fill="#000" fill-rule="evenodd" d="M16.494 14.181a.265.265 0 0 1-.217-.073.393.393 0 0 1-.145-.58 5.554 5.554 0 0 0 .799-2.832 5.23 5.23 0 1 0-10.461 0 5.56 5.56 0 0 0 .799 2.832.402.402 0 0 1-.145.58.38.38 0 0 1-.581-.145 5.728 5.728 0 0 1-.945-3.267 6.102 6.102 0 0 1 12.204 0 6.344 6.344 0 0 1-.944 3.267.4.4 0 0 1-.364.218ZM5.9 16.657a.459.459 0 0 0 0-.653 7.656 7.656 0 0 1-2.03-5.297 7.83 7.83 0 1 1 13.63 5.297c-.218.218-.146.435 0 .653a.468.468 0 0 0 .652-.073A8.715 8.715 0 0 0 6.793 3.522 8.713 8.713 0 0 0 3 10.707a8.929 8.929 0 0 0 2.248 5.95c.144.073.217.145.362.145a.55.55 0 0 0 .29-.146v.001Zm6.895-2.467c.359.022.697.177.948.434a1.345 1.345 0 0 1 .365 1.012l-.51 4.337a1.228 1.228 0 0 1-1.314 1.157h-1.241a1.273 1.273 0 0 1-1.314-1.157l-.438-4.337a1.288 1.288 0 0 1 .293-1.012 1.84 1.84 0 0 1 1.021-.434h2.19Zm1.678 5.928.511-4.338a2.208 2.208 0 0 0-.585-1.735 2.099 2.099 0 0 0-1.606-.723h-2.19a2.388 2.388 0 0 0-1.678.723 2.452 2.452 0 0 0-.51 1.735l.51 4.338a2.073 2.073 0 0 0 2.116 1.88h1.241a2.094 2.094 0 0 0 2.192-1.88ZM13.448 9.916A1.748 1.748 0 1 1 11.7 8.168a1.772 1.772 0 0 1 1.748 1.748Zm.874 0a2.622 2.622 0 1 0-2.622 2.622 2.611 2.611 0 0 0 2.622-2.622Z" clip-rule="evenodd"/>
</svg>
