<svg xmlns="http://www.w3.org/2000/svg" width="24" height="24" fill="none" viewBox="0 0 24 24">
  <path fill="#000" fill-rule="evenodd" d="M19.503 10.92h-6.898V8.363h6.898v2.557Zm-.853 10.228h-6.045v-9.376h6.045v9.376ZM5.707 11.772h6.048v9.376H5.707v-9.376Zm-.853-.852V8.363h6.9v2.557h-6.9Zm2.773-5.185a1.758 1.758 0 0 1 0-2.415 1.665 1.665 0 0 1 1.209-.497 1.465 1.465 0 0 1 1.209.497c.498.498 1.138 2.415 1.565 3.907-1.494-.356-3.485-.994-3.98-1.492h-.003Zm6.685-2.415a1.562 1.562 0 0 1 1.209-.497 1.668 1.668 0 0 1 1.209.497 1.76 1.76 0 0 1 0 2.415c-.498.498-2.49 1.136-3.982 1.49.426-1.49 1.069-3.407 1.564-3.905Zm5.618 4.19h-5.05a9.676 9.676 0 0 0 2.42-1.135 2.563 2.563 0 0 0-3.627-3.622c-.569.497-1.138 2.202-1.493 3.48-.356-1.278-.925-2.983-1.494-3.48a2.563 2.563 0 1 0-3.627 3.622c.75.49 1.563.871 2.418 1.137h-5.05A.458.458 0 0 0 4 7.937v3.409a.458.458 0 0 0 .427.426h.427v9.802A.458.458 0 0 0 5.28 22h13.796a.459.459 0 0 0 .427-.426v-9.802h.427a.459.459 0 0 0 .427-.426V7.937a.459.459 0 0 0-.427-.43v.004Z" clip-rule="evenodd"/>
</svg>
