<svg xmlns="http://www.w3.org/2000/svg" width="24" height="24" fill="none" viewBox="0 0 24 24">
  <path fill="#000" fill-rule="evenodd" d="M21.897 8.088a17.979 17.979 0 0 1-3.125 2.976.386.386 0 0 1-.556-.138.363.363 0 0 1-.04-.442.367.367 0 0 1 .11-.112 22.312 22.312 0 0 0 2.777-2.561c-.971-1.038-4.722-4.984-9.096-4.984S3.91 6.773 2.939 7.811c.903 1.038 4.375 4.707 8.542 4.984a.388.388 0 0 1 .347.417.446.446 0 0 1-.417.417c-5.139-.417-9.166-5.33-9.306-5.538a.417.417 0 0 1 0-.553C2.245 7.329 6.55 2 11.966 2c5.486 0 9.792 5.33 9.93 5.538a.417.417 0 0 1 0 .55Zm-6.191-.254a3.725 3.725 0 0 0-3.754-3.727 3.729 3.729 0 1 0 0 7.454 3.723 3.723 0 0 0 3.754-3.727Zm-3.754 2.9a2.9 2.9 0 1 0 0-5.798 2.9 2.9 0 0 0 0 5.798Zm2.11-2.9a2.093 2.093 0 0 0-2.085-2.085.417.417 0 1 0 0 .834 1.251 1.251 0 1 1 0 2.503 1.294 1.294 0 0 1-1.25-1.252.401.401 0 0 0-.418-.417.448.448 0 0 0-.417.417 2.093 2.093 0 0 0 2.085 2.086 2.05 2.05 0 0 0 2.087-2.086h-.002Zm5.82 6.635h-.85v-.408a2.885 2.885 0 0 0-2.907-2.919 2.932 2.932 0 0 0-2.907 2.92v.407h-.849a.449.449 0 0 0-.417.417v5.826a.449.449 0 0 0 .417.417h7.512a.4.4 0 0 0 .417-.417v-5.826a.4.4 0 0 0-.415-.417h-.002Zm-5.832 0h4.153v-.408a2.047 2.047 0 0 0-2.077-2.085 2.085 2.085 0 0 0-2.076 2.085v.408Zm5.415.834h-.788a.404.404 0 0 1-.06.012.324.324 0 0 1-.049-.012h-4.875a.405.405 0 0 1-.06.012.385.385 0 0 1-.052-.012h-.796v4.994h6.678l.002-4.994Zm-3.34.81a.856.856 0 0 0-.843.843.838.838 0 0 0 .423.723v1.348a.45.45 0 0 0 .421.417.402.402 0 0 0 .423-.417v-1.332a.849.849 0 0 0-.423-1.583Z" clip-rule="evenodd"/>
</svg>
