<svg xmlns="http://www.w3.org/2000/svg" width="24" height="24" fill="none" viewBox="0 0 24 24">
  <path fill="#000" d="M13.242 16.778a.842.842 0 0 1-.844.82.894.894 0 0 1-.842-.82.843.843 0 0 1 .842-.82.8.8 0 0 1 .844.82Zm-.843-10a2.928 2.928 0 0 0-2.903 2.918.446.446 0 0 0 .414.417.399.399 0 0 0 .414-.417 2.085 2.085 0 0 1 2.074-2.084 2.042 2.042 0 0 1 2.074 2.084 2.085 2.085 0 0 1-2.074 2.085.448.448 0 0 0-.414.416v2.501a.448.448 0 0 0 .414.417.403.403 0 0 0 .388-.255.399.399 0 0 0 .026-.162v-2.153a2.799 2.799 0 0 0 2.49-2.848 2.928 2.928 0 0 0-2.903-2.918Zm8.584 7.028a2.073 2.073 0 0 1 .207 2.014 1.968 1.968 0 0 1-1.593 1.25 2.194 2.194 0 0 1-.554 2.014 2.247 2.247 0 0 1-1.94.555 2.188 2.188 0 0 1-1.316 1.597 3.162 3.162 0 0 0-3.81.764 1.957 1.957 0 0 1-1.732-1.042 2.23 2.23 0 0 1-2.078.278 1.967 1.967 0 0 1-1.248-1.597 2.385 2.385 0 0 1-2.008-.555 2.157 2.157 0 0 1-.485-2.014 1.973 1.973 0 0 1-1.663-1.25 2.086 2.086 0 0 1 .276-2.014A2.16 2.16 0 0 1 2 12.001a3.18 3.18 0 0 0 .763-3.82 1.97 1.97 0 0 1 1.663-1.25 2.157 2.157 0 0 1 .485-2.013 2.182 2.182 0 0 1 2.008-.556 1.97 1.97 0 0 1 1.248-1.597 2.215 2.215 0 0 1 2.078.207A2.038 2.038 0 0 1 11.977 2a2.16 2.16 0 0 1 1.801.972 2.062 2.062 0 0 1 2.01-.207 2.19 2.19 0 0 1 1.315 1.597 2.056 2.056 0 0 1 1.94.556 2.197 2.197 0 0 1 .555 2.014 1.967 1.967 0 0 1 1.593 1.25 2.075 2.075 0 0 1-.207 2.013 2.168 2.168 0 0 1 .97 1.806 2.267 2.267 0 0 1-.97 1.805Zm.14-1.805a1.271 1.271 0 0 0-.97-1.25.329.329 0 0 1-.347-.347c-.07-.14 0-.278.139-.415a1.208 1.208 0 0 0 .484-1.527 1.176 1.176 0 0 0-1.385-.695.42.42 0 0 1-.414-.207.337.337 0 0 1 0-.486 1.17 1.17 0 0 0-.138-1.528 1.277 1.277 0 0 0-1.594-.207.336.336 0 0 1-.485 0 .42.42 0 0 1-.207-.416 1.182 1.182 0 0 0-.693-1.389 1.226 1.226 0 0 0-1.524.486c-.14.139-.277.207-.414.139a.318.318 0 0 1-.347-.278 1.26 1.26 0 0 0-1.247-1.042 1.19 1.19 0 0 0-1.178 1.042.46.46 0 0 1-.346.278.31.31 0 0 1-.414-.14 1.252 1.252 0 0 0-2.286.904.292.292 0 0 1-.207.416.258.258 0 0 1-.414 0 1.266 1.266 0 0 0-1.594.207 1.168 1.168 0 0 0-.138 1.528.452.452 0 0 1-.414.694 1.262 1.262 0 0 0-1.456.695A1.29 1.29 0 0 0 4.02 9.99a.6.6 0 0 1 .207.415c-.07.207-.207.347-.347.347a1.261 1.261 0 0 0-1.039 1.25 1.19 1.19 0 0 0 1.04 1.18.84.84 0 0 1 .346.348.419.419 0 0 1-.207.414 1.32 1.32 0 0 0-.486 1.528 1.305 1.305 0 0 0 1.456.763.6.6 0 0 1 .414.207.443.443 0 0 1 0 .414 1.243 1.243 0 0 0 1.732 1.736.44.44 0 0 1 .414 0c.207.138.276.277.207.415a1.26 1.26 0 0 0 2.286.972.381.381 0 0 1 .347-.207h.068a.832.832 0 0 1 .347.347 1.19 1.19 0 0 0 1.178 1.041 1.26 1.26 0 0 0 1.247-1.041c0-.14.139-.278.346-.347a.599.599 0 0 1 .415.207 1.314 1.314 0 0 0 1.523.486 1.267 1.267 0 0 0 .693-1.458.604.604 0 0 1 .207-.415.593.593 0 0 1 .486 0 1.243 1.243 0 0 0 1.732-1.736.26.26 0 0 1 0-.414.42.42 0 0 1 .414-.207 1.256 1.256 0 0 0 .9-2.291.31.31 0 0 1-.138-.414c0-.14.139-.278.347-.348a1.193 1.193 0 0 0 .967-1.181Z"/>
</svg>
