<svg xmlns="http://www.w3.org/2000/svg" width="24" height="24" fill="none" viewBox="0 0 24 24">
  <path fill="#000" fill-rule="evenodd" d="M17.66 17.18V2.42a.368.368 0 0 0-.416-.416H6.436a.4.4 0 0 0-.416.416v14.883a.325.325 0 0 0 0 .226v4.055a.462.462 0 0 0 .277.347.243.243 0 0 0 .139.069.36.36 0 0 0 .277-.139l5.127-3.957 5.197 3.957c.07.139.277.139.415.07a.381.381 0 0 0 .208-.347v-4.045a.361.361 0 0 0 0-.36Zm-.832-14.343v13.67l-4.71-3.616a.335.335 0 0 0-.487 0l-4.78 3.67V2.836h9.977Zm-4.71 14.232a.333.333 0 0 0-.486 0l-4.781 3.61v-3.12l4.99-3.834 4.987 3.784v3.171l-4.71-3.611Z" clip-rule="evenodd"/>
</svg>
