<svg xmlns="http://www.w3.org/2000/svg" width="24" height="24" fill="none" viewBox="0 0 24 24">
  <path fill="#000" fill-rule="evenodd" d="M12.16 21.091h1.358c2.266 0 4.155.076 5.137-.908a3.16 3.16 0 0 0 .756-2.042l-7.251-4.312-7.253 4.312a2.775 2.775 0 0 0 .68 2.042c.982.987 2.87.908 5.137.908h1.436Zm2.642.908h-4.078c-2.417 0-4.533.076-5.742-1.135C4.302 20.184 4 19.2 4 17.838a.418.418 0 0 1 .226-.378l7.707-4.539a.474.474 0 0 1 .453 0l7.705 4.54a.416.416 0 0 1 .226.377 4.085 4.085 0 0 1-1.057 3.026c-.982.984-2.569 1.135-4.456 1.135h-.002ZM12.16 10.152c.075 0 .15.075.226.075l7.025 4.142v-1.657L12.16 8.42l-7.253 4.292v1.657l7.026-4.142c.076 0 .15-.074.227-.074v-.001Zm7.704 5.423a.278.278 0 0 1-.226-.076l-7.478-4.368L4.68 15.5a.284.284 0 0 1-.454 0A.415.415 0 0 1 4 15.122v-2.71a.416.416 0 0 1 .226-.378l7.707-4.518a.475.475 0 0 1 .453 0l7.705 4.518a.414.414 0 0 1 .226.377v2.711a.64.64 0 0 1-.226.377.278.278 0 0 1-.227.076ZM12.16 4.713c.075 0 .15.075.226.075l7.025 4.166V7.287l-7.251-4.32-7.253 4.32v1.667l7.026-4.166c.076 0 .15-.075.227-.075Zm7.704 5.456a.275.275 0 0 1-.226-.076L12.16 5.698l-7.48 4.395c-.15.076-.302.152-.454 0A.417.417 0 0 1 4 9.714V6.986a.42.42 0 0 1 .226-.379l7.707-4.55a.474.474 0 0 1 .453 0l7.705 4.55a.416.416 0 0 1 .226.38v2.727a.644.644 0 0 1-.226.379.275.275 0 0 1-.227.076Z" clip-rule="evenodd"/>
</svg>
