<svg xmlns="http://www.w3.org/2000/svg" width="24" height="24" fill="none" viewBox="0 0 24 24">
  <path fill="#000" fill-rule="evenodd" d="M17.237 2H6.42a.447.447 0 0 0-.416.415v19.123a.42.42 0 0 0 .208.416h.208a.414.414 0 0 0 .277-.07l5.13-3.948 5.13 3.949a.428.428 0 0 0 .484.07.42.42 0 0 0 .209-.417V2.415A.447.447 0 0 0 17.237 2Zm-.416 10.417L12.105 8.78a.335.335 0 0 0-.484 0l-4.786 3.642V9.306l4.993-3.818 4.993 3.817v3.112Zm-9.985 1.048 4.992-3.853 4.993 3.853v3.115l-4.716-3.635a.335.335 0 0 0-.483 0l-4.786 3.642v-3.122ZM16.82 2.831v5.431l-4.716-3.601a.337.337 0 0 0-.484 0L6.835 8.269V2.831h9.986Zm-4.715 14.273a.337.337 0 0 0-.487 0l-4.784 3.603v-3.078l4.993-3.853 4.993 3.853v3.078l-4.715-3.603Z" clip-rule="evenodd"/>
</svg>
