<svg xmlns="http://www.w3.org/2000/svg" width="24" height="24" fill="none" viewBox="0 0 24 24">
  <path fill="#000" fill-rule="evenodd" d="M12.142 16.57h.226l7.013 4.148V19.06l-7.24-4.224-7.239 4.224v1.659l7.013-4.149h.227ZM19.833 22c-.075 0-.15-.075-.226-.075l-7.464-4.375-7.465 4.375a.482.482 0 0 1-.453 0A.415.415 0 0 1 4 21.547v-2.715a.653.653 0 0 1 .225-.452l7.693-4.525a.479.479 0 0 1 .453 0l7.691 4.525a.654.654 0 0 1 .226.452v2.715a.416.416 0 0 1-.226.378c-.077 0-.153.075-.229.075Zm-7.691-11.303h.226l7.013 4.149v-1.66l-7.24-4.223-7.239 4.224v1.66l7.013-4.15h.227Zm7.691 5.431c-.075 0-.15-.076-.226-.076l-7.464-4.374-7.465 4.374a.479.479 0 0 1-.453 0A.414.414 0 0 1 4 15.675V12.96a.65.65 0 0 1 .225-.452l7.693-4.526a.481.481 0 0 1 .453 0l7.691 4.526a.652.652 0 0 1 .226.452v2.715a.414.414 0 0 1-.226.377c-.077 0-.153.076-.229.076ZM12.142 4.791h.226l7.013 4.172v-1.67l-7.24-4.25-7.239 4.25v1.67l7.013-4.172h.227Zm7.691 5.464c-.075 0-.15-.075-.226-.075l-7.464-4.402-7.465 4.402a.479.479 0 0 1-.453 0A.417.417 0 0 1 4 9.8V7.068a.659.659 0 0 1 .225-.455l7.693-4.556a.48.48 0 0 1 .453 0l7.691 4.556a.658.658 0 0 1 .226.455V9.8a.418.418 0 0 1-.226.38c-.077 0-.153.075-.229.075Z" clip-rule="evenodd"/>
</svg>
