<svg xmlns="http://www.w3.org/2000/svg" width="24" height="24" fill="none" viewBox="0 0 24 24">
  <path fill="#000" fill-rule="evenodd" d="M11.977 2.833A9.166 9.166 0 1 0 21.165 12a9.214 9.214 0 0 0-9.188-9.166Zm0 19.167A10 10 0 1 1 22 12a10.013 10.013 0 0 1-10.023 10Zm1.667-7.483a1.28 1.28 0 0 0-1.241 1.239 1.24 1.24 0 0 0 2.48 0 1.28 1.28 0 0 0-1.24-1.24Zm0 3.304a2.028 2.028 0 0 1-2.067-2.066 2.067 2.067 0 0 1 4.133 0 2.03 2.03 0 0 1-2.066 2.066Zm2.088-7.042a2.067 2.067 0 0 1-2.088-2.112.419.419 0 0 1 .417-.418.416.416 0 0 1 .417.418 1.254 1.254 0 0 0 2.507 0 .418.418 0 0 1 .837 0 2.066 2.066 0 0 1-2.09 2.112Zm-7.512 0a2.066 2.066 0 0 1-2.09-2.112.418.418 0 0 1 .837 0 1.254 1.254 0 0 0 2.507 0 .418.418 0 1 1 .836 0 2.065 2.065 0 0 1-2.09 2.112Z" clip-rule="evenodd"/>
</svg>
