<svg xmlns="http://www.w3.org/2000/svg" width="24" height="24" fill="none" viewBox="0 0 24 24">
  <path fill="#000" fill-rule="evenodd" d="M11.524 16.584c.07 0 .208 0 .208.07l6.483 4.165V2.836H4.832v17.983l6.482-4.166a.255.255 0 0 1 .21-.069ZM18.635 22c-.07 0-.14-.07-.208-.07l-6.901-4.444-6.901 4.444a.439.439 0 0 1-.416 0A.38.38 0 0 1 4 21.583V2.42a.401.401 0 0 1 .416-.416h14.222a.369.369 0 0 1 .416.416v19.163a.381.381 0 0 1-.209.347c-.07 0-.14.07-.21.07ZM9.217 6.576H9.01a2.062 2.062 0 0 0-1.68 2.086c0 1.737 2.867 4.24 4.195 5.282 1.398-1.042 4.195-3.545 4.195-5.282a2.063 2.063 0 0 0-1.678-2.086c-.77-.07-1.748.416-2.098 1.947a.456.456 0 0 1-.839 0c-.351-1.46-1.19-1.947-1.89-1.947h.001Zm2.307 8.27a.255.255 0 0 1-.208-.07c-.208-.138-4.824-3.474-4.824-6.116a2.954 2.954 0 0 1 2.447-2.92 2.665 2.665 0 0 1 2.587 1.46 2.76 2.76 0 0 1 2.657-1.46 2.897 2.897 0 0 1 2.378 2.92c0 2.642-4.546 5.978-4.756 6.117a.42.42 0 0 1-.281.07Z" clip-rule="evenodd"/>
</svg>
