<svg xmlns="http://www.w3.org/2000/svg" width="24" height="24" fill="none" viewBox="0 0 24 24">
  <path fill="#000" fill-rule="evenodd" d="M20.64 5.043a1.35 1.35 0 0 0-1.207.88h-1.621l-5.543-3.815a.35.35 0 0 0-.506 0L6.221 5.922H4.51a1.288 1.288 0 0 0-1.217-.88 1.32 1.32 0 0 0 0 2.64 1.286 1.286 0 0 0 1.217-.88h1.397v9.983c0 .145.073.217.216.29l5.627 4.78c.072.073.144.145.216.145a.375.375 0 0 0 .289-.145l5.626-4.78c.145-.072.145-.145.145-.29V6.802h1.404a1.35 1.35 0 0 0 1.208.88 1.32 1.32 0 0 0 0-2.64h.002ZM11.98 2.97l4.283 2.952h-8.51L11.98 2.97ZM3.293 6.802a.44.44 0 0 1 0-.88.44.44 0 0 1 0 .88Zm13.868 9.766-5.194 4.418-5.194-4.418V6.802h10.388v9.766Zm3.48-9.766a.466.466 0 0 1-.422-.4.336.336 0 0 0 .007-.04.37.37 0 0 0-.007-.04.466.466 0 0 1 .421-.4.441.441 0 0 1 0 .88ZM7.784 11.925l2.17 1.6-.796 2.616a.45.45 0 0 0 .145.508c.072.073.145.073.29.073a.263.263 0 0 0 .215-.073l2.17-1.599 2.241 1.6a.615.615 0 0 0 .507 0 .486.486 0 0 0 .144-.509l-.866-2.617 2.24-1.599a.483.483 0 0 0 .146-.508.486.486 0 0 0-.433-.29h-2.675l-.867-2.617a.486.486 0 0 0-.432-.291.48.48 0 0 0-.362.29l-.868 2.617H8.078a.485.485 0 0 0-.432.291.483.483 0 0 0 .142.508h-.004Zm3.326.073a.479.479 0 0 0 .361-.29l.507-1.672.578 1.672c0 .145.216.29.361.29h1.736l-1.373 1.017a.418.418 0 0 0-.145.51l.506 1.598-1.373-1.018a.617.617 0 0 0-.506 0l-1.375 1.018.506-1.599a.418.418 0 0 0-.144-.509l-1.374-1.017h1.735Z" clip-rule="evenodd"/>
</svg>
