<svg xmlns="http://www.w3.org/2000/svg" width="24" height="24" fill="none" viewBox="0 0 24 24">
  <path fill="#000" fill-rule="evenodd" d="m21.85 6.736-4.572-4.58a.39.39 0 0 0-.623 0l-6.261 6.27a.634.634 0 0 0-.184.08.627.627 0 0 0-.082.185l-1.434 1.437a.645.645 0 0 0-.127.064.619.619 0 0 0-.054.117l-1.691 1.693a.683.683 0 0 0-.127.062.657.657 0 0 0-.058.123l-1.434 1.436a.282.282 0 0 0-.276.277l-2.823 2.826a.423.423 0 0 0 0 .555l4.57 4.578a.415.415 0 0 0 .625 0L21.85 7.291a.416.416 0 0 0 .071-.278c0-.14-.001-.21-.07-.277Zm-14.9 14.22-3.949-3.955 2.33-2.344L7.1 16.423c.139.07.21.14.349.14a.529.529 0 0 0 .279-.14.52.52 0 0 0 0-.627l-1.769-1.768 1.046-1.05 1.43 1.36c.07.07.14.07.28.07a.42.42 0 0 0 .278-.07.515.515 0 0 0 0-.62l-1.371-1.36 1.237-1.245 1.77 1.797a.41.41 0 0 0 .617 0 .525.525 0 0 0 0-.628L9.48 10.488l1.038-1.044 1.168 1.168c.14.07.211.14.352.14a.533.533 0 0 0 .28-.14.523.523 0 0 0 0-.633s0-.002-1.17-1.171l1.223-1.233 1.805 1.775c.077.073.174.12.278.137a.536.536 0 0 0 .348-.137.412.412 0 0 0 0-.549l-1.844-1.816 1.084-1.09 1.366 1.392c.137.07.203.14.342.14a.516.516 0 0 0 .274-.14.529.529 0 0 0 0-.627L14.63 5.302l2.302-2.316 4.02 4.024-14 13.946Z" clip-rule="evenodd"/>
</svg>
