<svg xmlns="http://www.w3.org/2000/svg" width="24" height="24" fill="none" viewBox="0 0 24 24">
  <path fill="#000" fill-rule="evenodd" d="m21.813 21.31-3.274-3.278a.318.318 0 0 0-.05-.081.33.33 0 0 0-.153-.124l-1.86-1.862a.337.337 0 0 0-.046-.075.342.342 0 0 0-.152-.123l-1.914-1.916a.31.31 0 0 0-.043-.068.337.337 0 0 0-.148-.123L12.3 11.782a.342.342 0 0 0-.039-.062.633.633 0 0 0-.094-.07l-1.933-1.935a.283.283 0 0 0-.034-.055.338.338 0 0 0-.14-.121L8.122 7.6a.349.349 0 0 0-.168-.17c-.61-.61-1.233-1.236-1.895-1.9a.328.328 0 0 0-.028-.041.338.338 0 0 0-.134-.119L2.696 2.165a.429.429 0 0 0-.485-.139.42.42 0 0 0-.208.417v19.14a.4.4 0 0 0 .415.417h19.12a.462.462 0 0 0 .346-.278c.07-.134.07-.342-.072-.411Zm-18.98-.138V3.417l2.32 2.332c-.124.123-.303.3-.578.576a.42.42 0 0 0 0 .555c.138.069.208.139.347.139a.525.525 0 0 0 .277-.14l.54-.54 1.468 1.473-.571.571a.42.42 0 0 0 0 .555c.138.07.208.138.346.138a.523.523 0 0 0 .277-.138l.536-.535L9.31 9.926l-.566.566a.42.42 0 0 0 0 .554c.139.07.208.139.347.139a.525.525 0 0 0 .277-.139l.53-.53 1.468 1.476-.558.558a.42.42 0 0 0 0 .554c.138.07.208.14.346.14a.522.522 0 0 0 .277-.14l.525-.524 1.469 1.475-.557.556a.422.422 0 0 0 0 .554c.139.07.208.139.347.139a.525.525 0 0 0 .277-.139l.52-.52 1.514 1.524-.55.55a.421.421 0 0 0 0 .554c.138.07.207.139.346.139a.524.524 0 0 0 .277-.139l.515-.514 1.468 1.476-.545.545a.422.422 0 0 0 0 .554c.138.07.208.139.347.139a.526.526 0 0 0 .277-.139l.508-.508L20.5 21.17l-17.667.002Zm11.066-2.387-8.723-8.702a.428.428 0 0 0-.485-.138.417.417 0 0 0-.208.415v8.702a.399.399 0 0 0 .416.414h8.722a.456.456 0 0 0 .346-.276c.072-.139.072-.347-.066-.416l-.002.001Zm-8.585-.138v-7.32l7.27 7.32h-7.27Z" clip-rule="evenodd"/>
</svg>
