<svg xmlns="http://www.w3.org/2000/svg" width="24" height="24" fill="none" viewBox="0 0 24 24">
  <path fill="#000" fill-rule="evenodd" d="M6.953 17.296a5.77 5.77 0 0 1 5.058-2.899 5.556 5.556 0 0 1 5.06 2.83.56.56 0 0 0 .624.207c.139-.138.276-.344.138-.552a6.71 6.71 0 0 0-11.576 0 .37.37 0 0 0 .14.552.252.252 0 0 0 .207.07.383.383 0 0 0 .35-.208Zm1.944-8.153a.832.832 0 1 1-1.664 0 .832.832 0 0 1 1.664 0Zm.831 0a1.663 1.663 0 1 0-3.326 0 1.663 1.663 0 0 0 3.326 0Zm6.616 0a.832.832 0 1 1-1.663 0 .832.832 0 0 1 1.663 0Zm.832 0a1.663 1.663 0 1 0-3.326 0 1.663 1.663 0 0 0 3.326 0Zm3.99 2.88A9.166 9.166 0 1 1 12 2.88a9.144 9.144 0 0 1 9.166 9.144Zm.834 0A10 10 0 1 0 12 22a10.036 10.036 0 0 0 10-9.977Z" clip-rule="evenodd"/>
</svg>
