<svg xmlns="http://www.w3.org/2000/svg" width="24" height="24" fill="none" viewBox="0 0 24 24">
  <path fill="#000" fill-rule="evenodd" d="M22 12.028a10 10 0 1 0-3.565 7.626.49.49 0 0 0 .155-.139A9.918 9.918 0 0 0 22 12.028Zm-19.16 0a9.164 9.164 0 0 1 18.327 0 9.094 9.094 0 0 1-2.55 6.323 6.424 6.424 0 0 0-6.614-5.902 6.56 6.56 0 0 0-6.607 5.907 9.088 9.088 0 0 1-2.555-6.328Zm3.336 7.058a5.8 5.8 0 0 1 5.828-5.808c3.338 0 5.735 2.394 5.828 5.808a9.193 9.193 0 0 1-11.656 0Zm0-10.382a.416.416 0 1 1 .833 0 1.25 1.25 0 0 0 2.5 0 .417.417 0 1 1 .833 0 2.101 2.101 0 0 1-2.89 1.953 2.058 2.058 0 0 1-1.277-1.953h.001Zm7.491 0a.418.418 0 1 1 .833 0 1.252 1.252 0 0 0 2.143.9 1.25 1.25 0 0 0 .357-.9.417.417 0 0 1 .833 0 2.1 2.1 0 0 1-2.89 1.952 2.06 2.06 0 0 1-1.277-1.952h.001Z" clip-rule="evenodd"/>
</svg>
