<svg xmlns="http://www.w3.org/2000/svg" width="24" height="24" fill="none" viewBox="0 0 24 24">
  <path fill="#000" fill-rule="evenodd" d="M11.953 2.834A9.167 9.167 0 1 0 21.163 12a9.181 9.181 0 0 0-9.21-9.166Zm0 19.166A10 10 0 1 1 22 12a10.026 10.026 0 0 1-10.047 10Zm0-2.496a6.698 6.698 0 0 1-6.706-6.688.419.419 0 1 1 .838 0 5.868 5.868 0 1 0 11.736 0 .42.42 0 0 1 .839 0 6.698 6.698 0 0 1-6.707 6.688Zm-2.09-8.753a.448.448 0 0 1-.42-.415 1.256 1.256 0 0 0-2.511 0 .42.42 0 0 1-.838 0 2.049 2.049 0 0 1 2.094-2.079 2.091 2.091 0 0 1 2.093 2.079.448.448 0 0 1-.418.417v-.002Zm7.53 0a.448.448 0 0 1-.419-.415 1.257 1.257 0 0 0-2.513 0 .419.419 0 0 1-.838 0 2.05 2.05 0 0 1 2.094-2.079 2.093 2.093 0 0 1 2.095 2.079.45.45 0 0 1-.42.417v-.002Z" clip-rule="evenodd"/>
</svg>
