<svg xmlns="http://www.w3.org/2000/svg" width="24" height="24" fill="none" viewBox="0 0 24 24">
  <path fill="#000" fill-rule="evenodd" d="M11.953 2.834A9.166 9.166 0 1 0 21.163 12a9.181 9.181 0 0 0-9.21-9.166Zm0 19.166A10 10 0 1 1 22 12a10.07 10.07 0 0 1-10.047 10Zm0-2.496a6.699 6.699 0 0 1-6.706-6.688.42.42 0 0 1 .838 0 5.868 5.868 0 1 0 11.736 0 .419.419 0 0 1 .838 0 6.698 6.698 0 0 1-6.706 6.688Zm3.765-8.753a2.092 2.092 0 0 1-2.094-2.078.419.419 0 1 1 .838 0 1.256 1.256 0 0 0 2.512 0 .42.42 0 0 1 .838 0 2.092 2.092 0 0 1-2.094 2.08v-.002Zm-7.53 0a2.092 2.092 0 0 1-2.094-2.078.42.42 0 0 1 .838 0 1.257 1.257 0 0 0 2.513 0 .419.419 0 0 1 .837 0 2.092 2.092 0 0 1-2.092 2.08l-.002-.002Z" clip-rule="evenodd"/>
</svg>
