<svg xmlns="http://www.w3.org/2000/svg" width="24" height="24" fill="none" viewBox="0 0 24 24">
  <path fill="#000" fill-rule="evenodd" d="M22 2.417v16.637a.4.4 0 0 1-.416.416H10.76a.404.404 0 0 1-.421-.422v-.842a.421.421 0 1 1 .842 0v.432h9.987V2.832H5.364v9.987h.4a.448.448 0 0 1 .41.421.4.4 0 0 1-.41.422h-.82a.4.4 0 0 1-.41-.422V2.416A.446.446 0 0 1 4.95 2h16.637a.448.448 0 0 1 .413.417Zm-9.605 4.549a.45.45 0 0 0-.418.417v4.176a.39.39 0 0 0 .24.378.287.287 0 0 0 .175.04h4.178a.4.4 0 0 0 .418-.419.449.449 0 0 0-.418-.417h-3.183l5.945-5.964a.393.393 0 0 0-.122-.645.392.392 0 0 0-.431.09l-5.967 5.984V7.383a.448.448 0 0 0-.417-.417Zm-9.13 5.854h-.843a.447.447 0 0 0-.421.41v.819a.422.422 0 0 0 .844 0v-.41h.42a.403.403 0 0 0 .392-.248.4.4 0 0 0 .03-.161.446.446 0 0 0-.421-.41Zm-.843 4.17a.403.403 0 0 0 .422-.42v-.844a.422.422 0 0 0-.844 0v.843a.405.405 0 0 0 .423.42v.002Zm5.82-4.17h-.82a.448.448 0 0 0-.41.422.4.4 0 0 0 .41.42h.82a.404.404 0 0 0 .385-.258.4.4 0 0 0 .025-.162.447.447 0 0 0-.41-.422Zm-2.483 8.29h-.82a.448.448 0 0 0-.409.421.4.4 0 0 0 .41.421h.82a.4.4 0 0 0 .41-.421.447.447 0 0 0-.41-.422Zm2.482 0h-.82a.448.448 0 0 0-.409.421.4.4 0 0 0 .41.421h.82a.404.404 0 0 0 .385-.259.4.4 0 0 0 .025-.162.447.447 0 0 0-.41-.422Zm-4.976.023h-.42v-.41a.422.422 0 0 0-.844 0v.82a.4.4 0 0 0 .421.41h.843a.403.403 0 0 0 .392-.25.4.4 0 0 0 .03-.16.447.447 0 0 0-.421-.41Zm-.843-1.663a.405.405 0 0 0 .422-.422v-.842a.422.422 0 0 0-.844 0v.842a.405.405 0 0 0 .423.422Zm8.337-6.65h-.843a.448.448 0 0 0-.422.41.4.4 0 0 0 .422.41h.422v.409a.421.421 0 0 0 .842 0v-.818a.447.447 0 0 0-.42-.411h-.001Zm0 2.482a.453.453 0 0 0-.42.422v.842a.421.421 0 1 0 .842 0v-.842a.454.454 0 0 0-.421-.422h-.001Zm0 5.011a.446.446 0 0 0-.42.41v.41h-.423a.448.448 0 0 0-.421.41.4.4 0 0 0 .421.41h.844a.4.4 0 0 0 .42-.41v-.82a.447.447 0 0 0-.42-.407l-.001-.003Z" clip-rule="evenodd"/>
</svg>
