<svg xmlns="http://www.w3.org/2000/svg" width="24" height="24" fill="none" viewBox="0 0 24 24">
  <path fill="#000" fill-rule="evenodd" d="M19.509 4.903v4.146a.368.368 0 0 1-.419.414.4.4 0 0 1-.417-.414V5.853l-5.98 5.96c-.07.138-.139.138-.277.138a.278.278 0 0 1-.277-.138.418.418 0 0 1 0-.553L18.1 5.317h-3.194a.4.4 0 0 1-.42-.414.448.448 0 0 1 .42-.415h4.185a.401.401 0 0 1 .417.415ZM5.744 3.643a.363.363 0 0 0 .411-.41v-.411h.41a.365.365 0 0 0 .412-.411.394.394 0 0 0-.411-.41h-.822a.442.442 0 0 0-.41.41v.821a.394.394 0 0 0 .41.41ZM21.586 2h-.821a.442.442 0 0 0-.412.411.396.396 0 0 0 .412.41h.41v.411a.393.393 0 0 0 .41.41.362.362 0 0 0 .411-.41v-.821a.393.393 0 0 0-.41-.41ZM5.756 6.13a.367.367 0 0 0 .422-.41V4.9a.4.4 0 0 0-.421-.411.448.448 0 0 0-.423.41v.822a.4.4 0 0 0 .424.41h-.001Zm2.488-3.285h.844a.375.375 0 0 0 .423-.422A.406.406 0 0 0 9.088 2h-.844a.455.455 0 0 0-.423.423.406.406 0 0 0 .423.422ZM11.576 2h-.845a.453.453 0 0 0-.422.423.404.404 0 0 0 .422.422h.845a.374.374 0 0 0 .422-.422.404.404 0 0 0-.422-.423Zm1.678.845h.822a.368.368 0 0 0 .41-.422.402.402 0 0 0-.41-.423h-.822a.447.447 0 0 0-.41.423.399.399 0 0 0 .41.422Zm2.5 0h.845a.372.372 0 0 0 .422-.422A.405.405 0 0 0 16.6 2h-.845a.454.454 0 0 0-.422.423.404.404 0 0 0 .422.422ZM19.086 2h-.845a.454.454 0 0 0-.423.423.406.406 0 0 0 .423.422h.845a.375.375 0 0 0 .422-.422.408.408 0 0 0-.422-.423Zm-7.088 16.217c0 .267-.14.4-.422.4h-.422v2.917a.367.367 0 0 1-.248.401.368.368 0 0 1-.168.016h-8.32A.403.403 0 0 1 2 21.534v-8.32a.448.448 0 0 1 .417-.416h2.917v-.423a.455.455 0 0 1 .423-.422.404.404 0 0 1 .421.422v.423h4.56a.401.401 0 0 1 .416.416v4.606h.422a.397.397 0 0 1 .392.238c.022.05.032.105.032.16h-.002Zm-1.676 2.9v-2.838a.397.397 0 0 1-.013-.062.327.327 0 0 1 .013-.051v-4.538H5.845a.598.598 0 0 1-.088.012.49.49 0 0 1-.076-.012H2.832v7.489h7.49Zm3.753-3.299h-.821a.434.434 0 0 0-.41.401.39.39 0 0 0 .252.377c.05.019.104.027.158.024h.82a.359.359 0 0 0 .412-.4.387.387 0 0 0-.41-.401h-.001Zm2.523 0h-.844a.443.443 0 0 0-.423.401.395.395 0 0 0 .423.401h.844c.282 0 .423-.133.423-.4a.396.396 0 0 0-.422-.401Zm2.488 0h-.845a.443.443 0 0 0-.423.401.395.395 0 0 0 .423.401h.845c.281 0 .422-.133.422-.4a.396.396 0 0 0-.422-.401Zm2.5-.845a.442.442 0 0 0-.411.41v.411h-.41a.443.443 0 0 0-.412.412.395.395 0 0 0 .411.41h.821a.363.363 0 0 0 .41-.41v-.822a.395.395 0 0 0-.41-.41Zm-.013-2.487a.447.447 0 0 0-.422.41v.822a.402.402 0 0 0 .422.41.37.37 0 0 0 .405-.242.368.368 0 0 0 .017-.168v-.822a.4.4 0 0 0-.421-.412l-.001.002Zm0-2.535a.454.454 0 0 0-.422.422v.846a.407.407 0 0 0 .422.421.375.375 0 0 0 .407-.25.373.373 0 0 0 .015-.171v-.846a.406.406 0 0 0-.421-.422h-.001Zm0-2.488a.454.454 0 0 0-.422.423v.845a.407.407 0 0 0 .422.422.373.373 0 0 0 .422-.422v-.845a.407.407 0 0 0-.421-.423h-.001Zm0-2.488a.454.454 0 0 0-.422.423v.845a.408.408 0 0 0 .422.422.374.374 0 0 0 .422-.422v-.845a.407.407 0 0 0-.421-.423h-.001Zm-15.817 4.18a.374.374 0 0 0 .422-.421v-.845a.406.406 0 0 0-.422-.423.455.455 0 0 0-.423.423v.845a.406.406 0 0 0 .425.419l-.002.003Zm0-2.487a.372.372 0 0 0 .422-.422V7.4a.406.406 0 0 0-.422-.423.455.455 0 0 0-.423.423v.845a.406.406 0 0 0 .425.42l-.002.002Zm15.817-4.18a.448.448 0 0 0-.422.41v.822a.402.402 0 0 0 .422.41.37.37 0 0 0 .422-.41V4.9a.4.4 0 0 0-.421-.411h-.001Z" clip-rule="evenodd"/>
</svg>
