<svg xmlns="http://www.w3.org/2000/svg" width="24" height="24" fill="none" viewBox="0 0 24 24">
  <path fill="#000" fill-rule="evenodd" d="M12.34 14.105c.138 0 .208 0 .278.07l2.765 2.142-.969-3.387a.51.51 0 0 1 .138-.415l2.212-2.142H14a.46.46 0 0 1-.346-.277l-1.315-3.179-1.245 3.18a.469.469 0 0 1-.415.276h-2.7l2.146 2.143c.138.138.207.276.138.414l-.9 3.387 2.769-2.143a.255.255 0 0 1 .208-.069Zm3.736 3.732c-.069 0-.138-.069-.207-.138l-3.53-2.695-3.459 2.695a.426.426 0 0 1-.484.07.627.627 0 0 1-.207-.484l1.246-4.355-2.765-2.695a.409.409 0 0 1 .073-.637.382.382 0 0 1 .203-.055h3.46l1.59-3.94a.38.38 0 0 1 .347-.206.418.418 0 0 1 .415.207l1.522 3.94h3.459a.419.419 0 0 1 .415.207.427.427 0 0 1-.138.484l-2.698 2.695 1.176 4.355a.426.426 0 0 1-.138.483c-.073 0-.21.07-.28.07Zm-11.24 1.694h14.986V6.838L12.33 2.884 4.84 6.838 4.834 19.53Zm15.4.832H4.42a.446.446 0 0 1-.416-.416V6.629a.42.42 0 0 1 .208-.416l7.91-4.161a.442.442 0 0 1 .416 0l7.908 4.161a.42.42 0 0 1 .208.416v13.318a.4.4 0 0 1-.417.416Zm0 1.637H4.42a.452.452 0 0 1-.416-.421.403.403 0 0 1 .416-.42h15.818a.37.37 0 0 1 .416.42.4.4 0 0 1-.417.42Z" clip-rule="evenodd"/>
</svg>
