<svg xmlns="http://www.w3.org/2000/svg" width="24" height="24" fill="none" viewBox="0 0 24 24">
  <path fill="#000" d="M16.515 9.514h-2.991l-.765-2.635a.454.454 0 0 0-.834 0l-.695 2.635H8.17a.431.431 0 0 0-.416.277c0 .139 0 .347.138.416l2.295 1.942L9.004 15.2a.333.333 0 0 0 .14.416.525.525 0 0 0 .555.07l2.642-1.942 2.711 1.941c.07 0 .139.07.21.07a.527.527 0 0 0 .277-.139.333.333 0 0 0 .139-.416l-1.183-3.051 2.295-1.941a.334.334 0 0 0 .139-.417.38.38 0 0 0-.413-.277Zm-2.78 2.15a.586.586 0 0 0-.14.485l.835 2.011-1.807-1.248a.525.525 0 0 0-.279-.07.256.256 0 0 0-.208.07l-1.808 1.248.765-2.011a.429.429 0 0 0-.138-.485l-1.6-1.318h2.155a.442.442 0 0 0 .417-.346l.417-1.526.418 1.526a.44.44 0 0 0 .417.346h2.155l-1.6 1.318Zm6.512-9.662H4.417A.4.4 0 0 0 4 2.418v6.04a15.177 15.177 0 0 0 8.123 13.472c.07 0 .14.07.209.07.069 0 .139-.07.208-.07a15.175 15.175 0 0 0 8.124-13.47V2.42a.4.4 0 0 0-.417-.42v.002Zm-.416.833v1.654H4.834V2.835h14.997Zm-7.5 18.26A14.38 14.38 0 0 1 4.836 8.46V5.334H19.83V8.46a14.38 14.38 0 0 1-7.5 12.635v.001Z"/>
</svg>
