<svg xmlns="http://www.w3.org/2000/svg" width="24" height="24" fill="none" viewBox="0 0 24 24">
  <path fill="#000" fill-rule="evenodd" d="M10.707 9.082a1.67 1.67 0 1 0-3.34 0 1.67 1.67 0 0 0 3.34 0Zm-2.506 0a.846.846 0 0 1 .835-.835.807.807 0 0 1 .835.835.846.846 0 0 1-.835.835.897.897 0 0 1-.835-.835Zm6.717-1.67a1.645 1.645 0 0 0-1.67 1.67 1.67 1.67 0 0 0 3.34 0 1.646 1.646 0 0 0-1.67-1.67Zm0 2.505a.898.898 0 0 1-.834-.835.846.846 0 0 1 .834-.835.805.805 0 0 1 .836.835.847.847 0 0 1-.835.835ZM11.977 2A9.999 9.999 0 1 0 22 12 10.014 10.014 0 0 0 11.977 2Zm0 19.166A9.167 9.167 0 1 1 21.164 12a9.214 9.214 0 0 1-9.187 9.166Zm3.346-6.926-2.567 1.69 2.567 1.688a.37.37 0 0 1 .202.404.372.372 0 0 1-.063.148.383.383 0 0 1-.348.206.256.256 0 0 1-.208-.069l-2.898-1.886-2.868 1.886a.255.255 0 0 1-.209.07.382.382 0 0 1-.346-.207.415.415 0 0 1 .069-.552l2.596-1.689-2.596-1.689a.402.402 0 0 1-.07-.551c.07-.207.347-.207.556-.138l2.868 1.886 2.898-1.886a.455.455 0 0 1 .556.138.36.36 0 0 1-.139.551Z" clip-rule="evenodd"/>
</svg>
