<svg xmlns="http://www.w3.org/2000/svg" width="24" height="24" fill="none" viewBox="0 0 24 24">
  <path fill="#000" fill-rule="evenodd" d="M7.971 13.945a1.173 1.173 0 0 0-.695.209.79.79 0 0 0-.208.555c.014.502.183.988.487 1.39.335.495.788.9 1.318 1.177.952.455 2.001.67 3.055.625a6.182 6.182 0 0 0 2.639-.486 3.793 3.793 0 0 0 1.665-1.25c.36-.51.553-1.116.556-1.739a2.73 2.73 0 0 0-.347-1.388 2.603 2.603 0 0 0-.833-.903 7.117 7.117 0 0 0-1.458-.694c-.556-.139-1.25-.348-1.944-.487-.625-.138-1.041-.277-1.32-.347a5.338 5.338 0 0 1-.763-.277 1.897 1.897 0 0 1-.694-.556 1.457 1.457 0 0 1-.278-.764 1.358 1.358 0 0 1 .764-1.177 3.7 3.7 0 0 1 3.54-.07c.391.316.7.721.903 1.181.127.213.292.4.486.555.07.14.28.14.486.14a.85.85 0 0 0 .625-.209 1.25 1.25 0 0 0 .277-.625 1.33 1.33 0 0 0-.277-.833 2.78 2.78 0 0 0-.764-.834 4.67 4.67 0 0 0-1.32-.694 8.53 8.53 0 0 0-2.012-.208 8.672 8.672 0 0 0-2.5.347c-.608.21-1.14.597-1.527 1.11-.355.431-.551.97-.556 1.529.003.568.172 1.123.487 1.597.372.437.85.772 1.388.972.74.302 1.508.534 2.291.694a11.37 11.37 0 0 1 1.666.417c.432.123.833.336 1.178.625.31.313.485.736.486 1.177a1.89 1.89 0 0 1-.903 1.458c-.598.388-1.3.582-2.013.555a4.618 4.618 0 0 1-1.527-.277 3.12 3.12 0 0 1-.903-.695c-.214-.331-.4-.68-.556-1.042a2.419 2.419 0 0 0-.416-.624.586.586 0 0 0-.483-.134Zm3.957 4.792a7.553 7.553 0 0 1-3.47-.695 6.462 6.462 0 0 1-1.598-1.458 3.364 3.364 0 0 1-.625-1.875 1.626 1.626 0 0 1 .486-1.177c.356-.28.798-.428 1.25-.417.38-.024.753.1 1.041.347.284.24.5.552.625.903.104.307.27.59.486.833.161.215.377.382.625.486.346.163.729.235 1.11.209a2.876 2.876 0 0 0 1.597-.417.887.887 0 0 0 .486-.764.56.56 0 0 0-.277-.555 1.61 1.61 0 0 0-.764-.486c-.416-.07-.972-.209-1.596-.348a12.625 12.625 0 0 1-2.43-.764 3.636 3.636 0 0 1-1.739-1.25 3.027 3.027 0 0 1-.694-2.082c.018-.749.26-1.474.694-2.084A4.41 4.41 0 0 1 9.08 5.824a8.354 8.354 0 0 1 2.777-.416c.75-.024 1.5.07 2.222.277.6.178 1.164.46 1.666.834.397.3.728.677.971 1.11.22.356.34.764.348 1.181a1.97 1.97 0 0 1-.486 1.177 1.675 1.675 0 0 1-1.25.486 1.362 1.362 0 0 1-1.041-.347 2.465 2.465 0 0 1-.625-.763 2.391 2.391 0 0 0-.694-.903c-.139-.139-.486-.28-1.25-.28-.465-.02-.925.1-1.319.347-.347.208-.416.347-.416.486 0 .138.07.208.07.28.138.07.277.208.416.28.212.135.447.23.694.28.208.07.624.14 1.18.278.686.126 1.36.312 2.013.556.6.142 1.167.401 1.666.764.491.282.898.69 1.18 1.18.292.556.436 1.178.417 1.806a4.011 4.011 0 0 1-.694 2.221 4.464 4.464 0 0 1-2.013 1.528c-.94.407-1.96.596-2.983.55Zm1.666 1.874h.208a4.233 4.233 0 0 0 2.222.556 4.816 4.816 0 0 0 4.86-4.791 5.722 5.722 0 0 0-.486-2.153c-.07-.069-.07-.139-.07-.278a7.563 7.563 0 0 0 .209-1.805 8.652 8.652 0 0 0-8.609-8.61c-.488.012-.976.058-1.458.139-.139 0-.208 0-.28-.07a4.77 4.77 0 0 0-7.359 4.097 5.06 5.06 0 0 0 .625 2.43c.056.083.08.182.07.28a6.983 6.983 0 0 0-.209 1.739 8.653 8.653 0 0 0 8.609 8.61 12.395 12.395 0 0 0 1.597-.14l.071-.004ZM16.024 22a6.232 6.232 0 0 1-2.5-.556 12.35 12.35 0 0 1-1.596.14 9.453 9.453 0 0 1-9.442-9.444 6.982 6.982 0 0 1 .209-1.738A5.43 5.43 0 0 1 2 7.694 5.662 5.662 0 0 1 7.624 2a5.237 5.237 0 0 1 2.846.833c.482-.08.97-.126 1.458-.138a9.453 9.453 0 0 1 9.442 9.443c0 .63-.07 1.26-.209 1.875a5.562 5.562 0 0 1-5.137 7.985V22Z" clip-rule="evenodd"/>
</svg>
