<svg xmlns="http://www.w3.org/2000/svg" width="24" height="24" fill="none" viewBox="0 0 24 24">
  <path fill="#000" fill-rule="evenodd" d="M19.091 17.334H4.907a.447.447 0 0 1-.418-.417V7.752a.4.4 0 0 1 .418-.417h.834a.369.369 0 0 1 .417.417.4.4 0 0 1-.417.416h-.418V16.5h13.353v-1.248a.4.4 0 0 1 .417-.416.369.369 0 0 1 .418.416v1.667a.402.402 0 0 1-.42.415ZM7.81 4.835h13.353v8.333H7.81V4.835Zm14.187 8.75V4.42a.37.37 0 0 0-.417-.417H7.392a.4.4 0 0 0-.418.417v9.165a.448.448 0 0 0 .418.417h14.186a.4.4 0 0 0 .418-.419ZM17.02 20.25v-1.666a.369.369 0 0 0-.417-.417.4.4 0 0 0-.417.417v1.25H2.834V11.5h.418a.398.398 0 0 0 .39-.254.4.4 0 0 0 .027-.162.368.368 0 0 0-.417-.417h-.835a.402.402 0 0 0-.417.417v9.165a.448.448 0 0 0 .417.417h14.187a.4.4 0 0 0 .416-.417Z" clip-rule="evenodd"/>
</svg>
