<svg xmlns="http://www.w3.org/2000/svg" width="24" height="24" fill="none" viewBox="0 0 24 24">
  <path fill="#000" fill-rule="evenodd" d="M9.007 10.9a.769.769 0 0 0-.763-.762 1.613 1.613 0 0 1-1.597-1.592 1.58 1.58 0 0 1 1.22-1.47v-.477a.4.4 0 1 1 .798 0v.482a1.528 1.528 0 0 1 1.173 1.463.4.4 0 0 1-.417.416.367.367 0 0 1-.416-.416.702.702 0 0 0-.703-.689.235.235 0 0 1-.036.01.33.33 0 0 1-.05-.012.705.705 0 0 0-.738.689.77.77 0 0 0 .764.76 1.568 1.568 0 0 1 1.596 1.593 1.527 1.527 0 0 1-1.173 1.463v.395a.4.4 0 1 1-.799 0v-.387a1.58 1.58 0 0 1-1.219-1.471.4.4 0 0 1 .417-.415.369.369 0 0 1 .416.415.708.708 0 0 0 .737.689.294.294 0 0 1 .05-.012.298.298 0 0 1 .038.009.702.702 0 0 0 .702-.681Zm6.794.688a.28.28 0 0 0-.046-.01.286.286 0 0 0-.045.01.706.706 0 0 1-.718-.688.368.368 0 0 0-.417-.416.399.399 0 0 0-.415.416 1.574 1.574 0 0 0 1.174 1.456v.402a.424.424 0 0 0 .844 0v-.395a1.527 1.527 0 0 0 1.174-1.463 1.57 1.57 0 0 0-1.596-1.592.77.77 0 0 1-.764-.762.705.705 0 0 1 .718-.688c.015.004.03.008.046.01a.33.33 0 0 0 .045-.01.704.704 0 0 1 .718.688.367.367 0 0 0 .416.416.4.4 0 0 0 .416-.416 1.527 1.527 0 0 0-1.173-1.463v-.482a.424.424 0 0 0-.845 0v.489a1.575 1.575 0 0 0-1.174 1.456 1.611 1.611 0 0 0 1.596 1.592.77.77 0 0 1 .764.762.705.705 0 0 1-.718.688ZM22 12A10 10 0 1 1 12 2a9.96 9.96 0 0 1 10 9.998V12Zm-.834 0a9.165 9.165 0 1 0-9.165 9.166 9.202 9.202 0 0 0 9.165-9.168V12Zm-3.529 2.182a.54.54 0 0 0-.555.139 5.852 5.852 0 0 1-10.07.069.466.466 0 0 0-.556-.208.493.493 0 0 0-.209.553 6.725 6.725 0 0 0 11.6 0 .463.463 0 0 0-.21-.555v.002Z" clip-rule="evenodd"/>
</svg>
