<svg xmlns="http://www.w3.org/2000/svg" width="24" height="24" fill="none" viewBox="0 0 24 24">
  <path fill="#000" fill-rule="evenodd" d="M2.452 21.895c-.14 0-.208-.069-.347-.138a.511.511 0 0 1 0-.62l10.845-10.76a.523.523 0 0 1 .625 0 .511.511 0 0 1 0 .621L2.73 21.758a.528.528 0 0 1-.278.138ZM22 8.23a.402.402 0 0 0-.415-.423h-2.493a.37.37 0 0 0-.416.423.403.403 0 0 0 .416.422h2.493A.45.45 0 0 0 22 8.227v.003Zm-3.448-2.2 1.67-1.67a.443.443 0 0 0-.627-.626l-1.67 1.67a.52.52 0 0 0 0 .626c.142.07.209.141.349.141a.531.531 0 0 0 .28-.142l-.002.001Zm-2.357-1.119V2.419a.403.403 0 0 0-.423-.415.369.369 0 0 0-.423.415v2.493a.402.402 0 0 0 .423.416.45.45 0 0 0 .423-.418v.002Zm-2.62 1.12a.516.516 0 0 0 0-.627l-1.67-1.67a.443.443 0 0 0-.627.626l1.67 1.67c.141.07.21.141.348.141a.527.527 0 0 0 .279-.142v.001ZM12.87 8.23a.4.4 0 0 0-.415-.423H9.963a.37.37 0 0 0-.416.423.402.402 0 0 0 .416.422h2.492a.45.45 0 0 0 .416-.425v.003Zm3.324 4.967v-2.492a.402.402 0 0 0-.423-.416.371.371 0 0 0-.423.415v2.493a.402.402 0 0 0 .423.415.449.449 0 0 0 .424-.417l-.001.002Zm4.026-1.362a.517.517 0 0 0 0-.626l-1.67-1.67a.443.443 0 0 0-.626.626l1.67 1.67c.141.07.21.141.348.141a.528.528 0 0 0 .28-.144l-.002.003Z" clip-rule="evenodd"/>
</svg>
