<svg xmlns="http://www.w3.org/2000/svg" width="24" height="24" fill="none" viewBox="0 0 24 24">
  <path fill="#000" fill-rule="evenodd" d="M14.792 22H5.184A2.147 2.147 0 0 1 3 19.813v-5.687h.874v5.687a1.306 1.306 0 0 0 1.31 1.312h9.608a1.306 1.306 0 0 0 1.31-1.312v-5.687h.874v5.687A2.191 2.191 0 0 1 14.792 22Zm-.867-3.938a.473.473 0 0 0-.438-.443H6.49a.443.443 0 0 0 0 .886h6.999a.474.474 0 0 0 .436-.442h.001Zm.32-2.233a.414.414 0 0 0-.293-.511l-6.876-1.461a.389.389 0 0 0-.512.365.416.416 0 0 0 .294.511l6.876 1.461h.074a.41.41 0 0 0 .438-.366Zm.789-2.116a.455.455 0 0 0-.218-.579l-6.389-2.82a.437.437 0 0 0-.363.795l6.39 2.821h.216a.4.4 0 0 0 .364-.217Zm1.254-1.97a.447.447 0 0 0-.073-.581L10.5 7.088a.466.466 0 0 0-.66.073.391.391 0 0 0 .147.582l5.642 4.146c.147 0 .22.073.294.073a.402.402 0 0 0 .366-.219Zm1.576-1.576a.542.542 0 0 0 0-.654L13.2 4.356a.461.461 0 0 0-.656 0 .44.44 0 0 0 0 .58l4.663 5.158c.073.145.219.145.365.145a.44.44 0 0 0 .288-.073l.003.001Zm1.92-1.329a.38.38 0 0 0 .146-.582l-3.505-6.042a.404.404 0 0 0-.584-.145.487.487 0 0 0-.219.582L19.2 8.693a.402.402 0 0 0 .365.218.268.268 0 0 0 .22-.073Z" clip-rule="evenodd"/>
</svg>
