<svg xmlns="http://www.w3.org/2000/svg" width="24" height="24" fill="none" viewBox="0 0 24 24">
  <path fill="#000" fill-rule="evenodd" d="M19.915 15.216h-4.028c-2.778-1.867-1.458-4.634-.486-6.849.417-.969.764-1.66.764-2.283a3.786 3.786 0 0 0-1.32-3.045 4.122 4.122 0 0 0-2.847-1.038c-2.083 0-4.165 1.384-4.165 4.083.104.803.363 1.579.763 2.283 1.042 2.214 2.292 4.981-.485 6.85H4.083A2.086 2.086 0 0 0 2 17.291v2.56a.447.447 0 0 0 .416.417h.427v1.264a.45.45 0 0 0 .417.422h17.48a.45.45 0 0 0 .417-.422V20.27h.427a.447.447 0 0 0 .416-.417v-2.56a2.086 2.086 0 0 0-2.085-2.076Zm.407 5.894H3.673v-.843h16.65v.843Zm.842-1.673h-.372a.118.118 0 0 0-.108 0H3.312a.35.35 0 0 0-.052-.013.32.32 0 0 0-.052.013h-.373v-2.145a1.288 1.288 0 0 1 1.25-1.245H8.25a.256.256 0 0 0 .209-.07c3.472-2.283 1.943-5.675.901-7.956a6.592 6.592 0 0 1-.694-1.937 3.176 3.176 0 0 1 3.333-3.253 3.333 3.333 0 0 1 2.291.831 3.039 3.039 0 0 1 1.042 2.422 6.608 6.608 0 0 1-.695 1.937c-1.041 2.283-2.57 5.675.902 7.956a.258.258 0 0 0 .208.07h4.166a1.288 1.288 0 0 1 1.25 1.245l.001 2.145Z" clip-rule="evenodd"/>
</svg>
