<svg xmlns="http://www.w3.org/2000/svg" width="24" height="24" fill="none" viewBox="0 0 24 24">
  <path fill="#000" fill-rule="evenodd" d="M7.385 13.53c.012-.471.06-.941.141-1.406a.483.483 0 0 1 .567-.28.443.443 0 0 1 .283.562 3.079 3.079 0 0 0-.141 1.124 4.25 4.25 0 0 0 8.5 0 3.156 3.156 0 0 0-.212-1.124.45.45 0 0 1 .354-.495.405.405 0 0 1 .495.28c.14.432.21.883.212 1.336a5.1 5.1 0 1 1-10.2 0l.001.003Zm10.756-6.287a.372.372 0 0 0-.565.07.427.427 0 0 0 0 .564A7.612 7.612 0 1 1 4.85 13.516a7.315 7.315 0 0 1 2.474-5.568.45.45 0 1 0-.636-.635A8.63 8.63 0 0 0 4 13.516a8.484 8.484 0 0 0 16.97 0 8.54 8.54 0 0 0-2.828-6.273h-.001ZM7.978 5.813a.468.468 0 0 1-.142-.494.478.478 0 0 1 .424-.283h2.683l1.13-2.753A.478.478 0 0 1 12.497 2a.468.468 0 0 1 .353.283l1.13 2.753h2.753a.467.467 0 0 1 .353.283.434.434 0 0 1-.07.495L14.757 7.86l.847 3.108a.34.34 0 0 1-.141.424c-.213.14-.354.14-.495 0l-1.627-1.256 1.695 4.523a.448.448 0 0 1-.282.568c-.07 0-.07.071-.14.071a.475.475 0 0 1-.423-.284l-1.732-4.83-1.745 4.83a.48.48 0 0 1-.425.284.25.25 0 0 0-.143-.07c-.213-.072-.283-.284-.212-.569a4515.5 4515.5 0 0 1 1.615-4.416l-1.524 1.219a.422.422 0 0 1-.282.07.26.26 0 0 1-.213-.07.55.55 0 0 1-.211-.495l.847-3.107-2.188-2.047Zm1.34.072 1.625 1.484a.519.519 0 0 1 .14.424l-.635 2.189 1.715-1.304a.39.39 0 0 1 .106-.075.332.332 0 0 1 .23-.06.22.22 0 0 1 .036.004.378.378 0 0 1 .095.009.319.319 0 0 1 .17.154l1.673 1.272-.564-2.19a.467.467 0 0 1 .07-.423l1.623-1.484h-1.906a.387.387 0 0 1-.423-.283l-.777-1.98-.847 1.98a.388.388 0 0 1-.424.283H9.319Z" clip-rule="evenodd"/>
</svg>
