<svg xmlns="http://www.w3.org/2000/svg" width="24" height="24" fill="none" viewBox="0 0 24 24">
  <path fill="#000" fill-rule="evenodd" d="M12.47 16.582c.139 0 .208 0 .277.07l6.363 4.165V2.834H5.83v17.983l6.433-4.166a.254.254 0 0 1 .207-.069Zm7.056 5.416a.255.255 0 0 1-.208-.07l-6.848-4.443-6.778 4.443a.44.44 0 0 1-.416 0A.46.46 0 0 1 5 21.581V2.417A.448.448 0 0 1 5.416 2h14.11a.398.398 0 0 1 .414.417v19.164a.383.383 0 0 1-.207.347.253.253 0 0 1-.207.07Zm-7.066-9.993c.138 0 .207 0 .276.07l2.005 1.392-.554-2.227c-.069-.139 0-.278.139-.418l1.59-1.321h-2.212a.46.46 0 0 1-.345-.278l-.9-2.296-.829 2.296a.465.465 0 0 1-.415.278H9.072l1.59 1.322c.138.139.207.278.138.417l-.553 2.226 2.004-1.39a.255.255 0 0 1 .208-.072v.001Zm2.903 2.922c-.07 0-.14-.07-.208-.07L12.46 12.91l-2.627 1.948a.596.596 0 0 1-.486 0 .432.432 0 0 1-.138-.486l.76-3.061-2.28-1.948a.336.336 0 0 1-.14-.418.353.353 0 0 1 .347-.278h3.04l1.176-3.061a.354.354 0 0 1 .346-.278.377.377 0 0 1 .415.278l1.175 3.061h2.97a.378.378 0 0 1 .416.278.336.336 0 0 1-.138.418l-2.282 1.948.761 3.06a.432.432 0 0 1-.138.487c-.067-.001-.136.068-.274.068v.001Z" clip-rule="evenodd"/>
</svg>
