<svg xmlns="http://www.w3.org/2000/svg" width="24" height="24" fill="none" viewBox="0 0 24 24">
  <path fill="#000" fill-rule="evenodd" d="M11.989 14.051a.419.419 0 0 1 .277.069l2.284 1.728-.9-2.97a.509.509 0 0 1 .139-.415l2.215-2.14h-2.769c-.138 0-.346-.139-.346-.277l-.9-2.003-.83 2.003a.57.57 0 0 1-.416.277H8.042l2.146 2.14a.508.508 0 0 1 .139.414l-.9 2.971 2.284-1.728a.528.528 0 0 1 .278-.069Zm3.322 3.314c-.069 0-.138-.069-.277-.138l-3.046-2.279-3.045 2.28a.428.428 0 0 1-.486.069.514.514 0 0 1-.209-.487l1.178-3.936-2.701-2.693a.581.581 0 0 1-.14-.486.493.493 0 0 1 .416-.207h3.46l1.177-2.694c0-.138.208-.206.346-.206a.495.495 0 0 1 .417.206l1.107 2.694h3.467a.494.494 0 0 1 .415.207.426.426 0 0 1-.139.486l-2.7 2.693 1.178 3.936a.403.403 0 0 1-.21.487c-.07 0-.139.068-.208.068Zm-4.978 2.373h.139a.46.46 0 0 1 .278.347 1.271 1.271 0 0 0 2.501 0 .46.46 0 0 1 .278-.347.634.634 0 0 1 .485.208 1.291 1.291 0 0 0 1.528.486 1.262 1.262 0 0 0 .694-1.454.494.494 0 0 1 .209-.416.59.59 0 0 1 .486 0 1.221 1.221 0 0 0 1.667-1.732.588.588 0 0 1 0-.486.433.433 0 0 1 .486-.139 1.225 1.225 0 0 0 1.388-.762 1.313 1.313 0 0 0-.486-1.524.334.334 0 0 1-.138-.416.459.459 0 0 1 .277-.346 1.188 1.188 0 0 0 1.041-1.178 1.261 1.261 0 0 0-1.04-1.247.317.317 0 0 1-.278-.346.333.333 0 0 1 .138-.416 1.252 1.252 0 0 0-.902-2.286.432.432 0 0 1-.487-.139.589.589 0 0 1 0-.486 1.255 1.255 0 0 0-.139-1.593 1.168 1.168 0 0 0-1.527-.139c-.209.139-.348.139-.487 0a.495.495 0 0 1-.208-.416 1.236 1.236 0 0 0-2.222-.97c-.14.208-.278.278-.486.208a.317.317 0 0 1-.277-.346 1.292 1.292 0 0 0-2.502 0 .317.317 0 0 1-.278.346c-.208.07-.347 0-.486-.207a1.099 1.099 0 0 0-1.458-.416 1.222 1.222 0 0 0-.764 1.385.494.494 0 0 1-.209.416.26.26 0 0 1-.416 0A1.243 1.243 0 0 0 5.402 7.06a.59.59 0 0 1 0 .486.433.433 0 0 1-.487.139 1.252 1.252 0 0 0-.902 2.286.495.495 0 0 1 .208.416c-.07.208-.208.346-.347.346a1.261 1.261 0 0 0-1.042 1.247 1.188 1.188 0 0 0 1.042 1.178.836.836 0 0 1 .347.346.494.494 0 0 1-.208.416 1.312 1.312 0 0 0-.486 1.524 1.225 1.225 0 0 0 1.388.762.432.432 0 0 1 .486.139.59.59 0 0 1 0 .486 1.243 1.243 0 0 0 1.736 1.732.445.445 0 0 1 .417 0 .495.495 0 0 1 .208.416 1.306 1.306 0 0 0 .764 1.454 1.197 1.197 0 0 0 1.458-.486c.14-.138.21-.208.35-.208ZM12 21.953a2.161 2.161 0 0 1-1.806-1.04 2.088 2.088 0 0 1-2.014.278 1.971 1.971 0 0 1-1.25-1.663 2.03 2.03 0 0 1-2.014-.554 2.187 2.187 0 0 1-.555-1.94 2.108 2.108 0 0 1-1.597-1.247 2.229 2.229 0 0 1 .278-2.079A2.04 2.04 0 0 1 2 11.978a3.161 3.161 0 0 0 .764-3.81A3.442 3.442 0 0 0 4.916 4.91a2.03 2.03 0 0 1 2.014-.554 1.967 1.967 0 0 1 1.25-1.594 1.914 1.914 0 0 1 2.014.208 2.165 2.165 0 0 1 3.611 0 1.914 1.914 0 0 1 2.015-.208 1.966 1.966 0 0 1 1.25 1.594 2.03 2.03 0 0 1 2.014.554 2.008 2.008 0 0 1 .555 1.94 2.192 2.192 0 0 1 1.597 1.316 1.913 1.913 0 0 1-.277 2.009A2.067 2.067 0 0 1 22 11.977a3.112 3.112 0 0 0-.764 3.81 2.108 2.108 0 0 1-1.597 1.247 2.008 2.008 0 0 1-.555 1.94 2.03 2.03 0 0 1-2.014.554 1.971 1.971 0 0 1-1.25 1.663 2.088 2.088 0 0 1-2.014-.277A2.16 2.16 0 0 1 12 21.956v-.003Z" clip-rule="evenodd"/>
</svg>
