<svg xmlns="http://www.w3.org/2000/svg" width="24" height="24" fill="none" viewBox="0 0 24 24">
  <path fill="#000" fill-rule="evenodd" d="M18.22 22c-.07 0-.138-.07-.208-.07l-6.039-4.443-5.97 4.443a.588.588 0 0 1-.487 0 .461.461 0 0 1-.138-.486l2.36-7.22-5.623-4.861c-.139-.07-.139-.278-.07-.417 0-.208.209-.278.347-.278h6.805l2.43-6.387c0-.208.21-.278.349-.278a.38.38 0 0 1 .416.278l1.042 2.847-.763.277-.694-1.805-2.083 5.624a.468.468 0 0 1-.416.278H3.507l4.998 4.235a.432.432 0 0 1 .14.486l-2.083 6.249 5.206-3.82a.336.336 0 0 1 .486 0l5.206 3.82-2.082-6.25a.412.412 0 0 1 .07-.485l3.679-3.124.555.624-3.47 2.986 2.43 7.22a.46.46 0 0 1-.139.486c-.074.001-.213.071-.283.071ZM14.378 7.003h6.668v1.663h-6.668V7.003Zm7.502 2.078V6.59a.4.4 0 0 0-.418-.415h-7.501a.446.446 0 0 0-.416.415v2.494a.447.447 0 0 0 .416.416h7.501a.4.4 0 0 0 .417-.418Z" clip-rule="evenodd"/>
</svg>
