<svg xmlns="http://www.w3.org/2000/svg" width="24" height="24" fill="none" viewBox="0 0 24 24">
  <path fill="#000" fill-rule="evenodd" d="M11.966 8.242c.138 0 .208 0 .277.07l1.799 1.248-.761-2.012a.398.398 0 0 1 .137-.485l1.384-.902h-2.006a.371.371 0 0 1-.347-.347l-.484-1.733-.415 1.733a.387.387 0 0 1-.415.347H9.198l1.383.902a.399.399 0 0 1 .139.485L9.958 9.56l1.799-1.248a.253.253 0 0 1 .209-.07Zm2.906 2.913c-.07 0-.138-.07-.207-.07l-2.7-1.941-2.628 1.942a.425.425 0 0 1-.485-.07.334.334 0 0 1-.137-.416L9.82 7.548 7.607 6.092a.46.46 0 0 1-.139-.486c0-.207.208-.277.347-.277h3.045l.76-3.052c0-.138.208-.277.346-.277.208 0 .416.139.416.277l.76 3.052h2.979a.379.379 0 0 1 .414.277.459.459 0 0 1-.138.486l-2.214 1.456L15.29 10.6a.335.335 0 0 1-.138.417.363.363 0 0 1-.28.138Zm2.517 7.932c.139 0 .208 0 .278.07l1.808 1.249-.765-2.012a.397.397 0 0 1 .14-.485l1.39-.902h-2.018a.373.373 0 0 1-.348-.347l-.487-1.734-.417 1.734a.388.388 0 0 1-.418.347h-1.946l1.39.902a.397.397 0 0 1 .14.485l-.766 2.012 1.808-1.249a.254.254 0 0 1 .21-.07Zm2.92 2.914c-.069 0-.139-.07-.208-.07l-2.712-1.942-2.643 1.942a.431.431 0 0 1-.487-.069.333.333 0 0 1-.139-.416l1.113-3.052-2.225-1.456a.46.46 0 0 1-.14-.486c0-.208.21-.278.349-.278h3.06l.765-3.051c0-.14.208-.277.347-.277.209 0 .418.138.418.277l.764 3.051h2.991a.38.38 0 0 1 .417.278.458.458 0 0 1-.138.486l-2.226 1.456 1.113 3.052a.333.333 0 0 1-.14.416.36.36 0 0 1-.279.139ZM6.543 19.087c.14 0 .209 0 .279.07l1.808 1.249-.766-2.012a.397.397 0 0 1 .14-.485l1.39-.902H7.377a.371.371 0 0 1-.348-.347l-.487-1.734-.417 1.734a.387.387 0 0 1-.417.347H3.76l1.391.902a.398.398 0 0 1 .14.485l-.766 2.012 1.808-1.249a.252.252 0 0 1 .208-.07h.002Zm2.92 2.914c-.069 0-.138-.07-.208-.07L6.543 19.99 3.9 21.931a.432.432 0 0 1-.488-.069.334.334 0 0 1-.138-.416l1.11-3.052-2.225-1.456a.459.459 0 0 1-.14-.486c0-.208.21-.278.349-.278h3.06l.765-3.051c0-.14.209-.277.347-.277.209 0 .418.138.418.277l.765 3.051h2.99a.381.381 0 0 1 .418.278.46.46 0 0 1-.14.486l-2.225 1.456 1.113 3.052a.334.334 0 0 1-.139.416.362.362 0 0 1-.277.139Z" clip-rule="evenodd"/>
</svg>
