<svg xmlns="http://www.w3.org/2000/svg" width="24" height="24" fill="none" viewBox="0 0 24 24">
  <path fill="#000" fill-rule="evenodd" d="m8.953 11.163 1.6 1.324a.433.433 0 0 1 .138.487l-.695 1.949 1.738-1.324a.335.335 0 0 1 .487 0l1.808 1.324-.765-1.949a.433.433 0 0 1 .14-.487l1.598-1.324h-1.738a.471.471 0 0 1-.417-.279l-.835-2.021-.903 2.021a.462.462 0 0 1-.348.28H8.953Zm5.98 5.436a.363.363 0 0 1-.28-.14l-2.642-2.02-2.71 2.02a.395.395 0 0 1-.626-.418l1.182-3.066-2.294-1.949a.335.335 0 0 1-.14-.418.378.378 0 0 1 .417-.279h2.643l1.112-2.718a.42.42 0 0 1 .417-.208.38.38 0 0 1 .349.208l1.181 2.718h2.642a.356.356 0 0 1 .349.28.336.336 0 0 1-.14.417l-2.224 1.949 1.112 3.066a.335.335 0 0 1-.139.418c-.07.07-.14.14-.21.14Zm-4.53 2.69a.531.531 0 0 1 .348.138l1.25 1.459 1.18-1.459a.42.42 0 0 1 .556-.07l1.666.834.555-1.805a.47.47 0 0 1 .417-.278l1.944.209-.208-1.944a.468.468 0 0 1 .277-.417l1.806-.555-.834-1.666a.42.42 0 0 1 .07-.556L20.888 12l-1.458-1.25a.344.344 0 0 1-.07-.487l.834-1.735-1.806-.556a.47.47 0 0 1-.277-.416l.208-1.874-1.944.138a.379.379 0 0 1-.417-.277l-.555-1.805-1.666.902a.542.542 0 0 1-.556-.138l-1.18-1.458-1.25 1.458a.46.46 0 0 1-.487.138L8.53 3.737l-.556 1.805a.379.379 0 0 1-.416.277l-1.875-.138.14 1.874a.379.379 0 0 1-.279.416l-1.806.556.904 1.735a.46.46 0 0 1-.14.487L3.044 12l1.457 1.18a.542.542 0 0 1 .14.556L3.737 15.4l1.806.555a.38.38 0 0 1 .278.417l-.139 1.944 1.875-.209a.469.469 0 0 1 .416.278l.556 1.805 1.735-.833a.216.216 0 0 1 .14-.07Zm1.598 2.706a.382.382 0 0 1-.348-.208l-1.319-1.528-1.805.903a.76.76 0 0 1-.348.07.544.544 0 0 1-.278-.278L7.28 19.01l-2.013.138c-.14 0-.278 0-.347-.138a.526.526 0 0 1-.14-.278l.209-2.083-2.013-.624a.42.42 0 0 1-.21-.556l.972-1.874-1.595-1.32a.277.277 0 0 1-.14-.277c0-.139 0-.277.14-.347l1.595-1.319-.971-1.805a.31.31 0 0 1 0-.347c0-.14.14-.209.209-.278l2.013-.625-.208-2.013a.474.474 0 0 1 .487-.487l2.013.207.624-2.013c.07-.069.14-.208.278-.208a.311.311 0 0 1 .348 0l1.805.975 1.32-1.597c.068-.139.208-.139.347-.139a.278.278 0 0 1 .277.139l1.32 1.597 1.875-.975a.307.307 0 0 1 .347 0 .312.312 0 0 1 .208.208l.625 2.013 2.082-.207a.527.527 0 0 1 .279.138c.139.07.139.209.139.347l-.14 2.014 1.945.625a.541.541 0 0 1 .277.277.757.757 0 0 1-.07.347l-.902 1.806 1.528 1.318a.382.382 0 0 1 .208.348.372.372 0 0 1-.208.277l-1.528 1.319.903 1.874a.521.521 0 0 1 .07.348c-.07.07-.14.208-.278.208l-1.944.625.139 2.083a.49.49 0 0 1-.418.416l-2.082-.139-.625 1.944c0 .139-.139.208-.208.278a.519.519 0 0 1-.347-.07l-1.875-.902-1.319 1.527a.373.373 0 0 1-.279.211Z" clip-rule="evenodd"/>
</svg>
