<svg xmlns="http://www.w3.org/2000/svg" width="24" height="24" fill="none" viewBox="0 0 24 24">
  <path fill="#000" fill-rule="evenodd" d="M11.988 14.496a.528.528 0 0 1 .278.07l2.71 2.15-.904-3.4c-.069-.138 0-.277.14-.416l2.572-2.567h-3.128a.47.47 0 0 1-.417-.277l-1.252-2.914-1.32 2.914a.461.461 0 0 1-.348.277H7.121L9.763 12.9a.509.509 0 0 1 .139.416l-.975 3.4 2.78-2.15a.423.423 0 0 1 .28-.07Zm3.753 3.746a.526.526 0 0 1-.278-.138l-3.475-2.708-3.476 2.708a.44.44 0 0 1-.488.07c-.208-.14-.277-.278-.208-.488l1.182-4.371-3.127-3.122a.428.428 0 0 1-.14-.488.42.42 0 0 1 .417-.208h3.893L11.57 5.96a.421.421 0 0 1 .418-.208.382.382 0 0 1 .347.208l1.599 3.538h3.893a.382.382 0 0 1 .347.208.411.411 0 0 1-.07.488l-3.128 3.122 1.183 4.37a.63.63 0 0 1-.21.488c-.07 0-.138.07-.208.07Zm-3.765-15.41a9.166 9.166 0 1 0 .05 18.331 9.166 9.166 0 0 0-.053-18.331h.003Zm0 19.168A10 10 0 1 1 22 12a10.015 10.015 0 0 1-10.027 10l.003.001Z" clip-rule="evenodd"/>
</svg>
