<svg xmlns="http://www.w3.org/2000/svg" width="24" height="24" fill="none" viewBox="0 0 24 24">
  <path fill="#000" fill-rule="evenodd" d="M11.99 14.5c.138 0 .207 0 .277.07l2.774 2.154-.972-3.403c0-.139 0-.278.138-.347l2.636-2.64h-3.19a.463.463 0 0 1-.348-.278L11.99 7.207l-1.25 2.849a.466.466 0 0 1-.415.278H7.203l2.566 2.64a.256.256 0 0 1 .164.246.255.255 0 0 1-.026.101l-.901 3.403 2.775-2.153a.255.255 0 0 1 .209-.07Zm3.745 3.753c-.07 0-.14-.07-.208-.07l-3.537-2.779-3.468 2.78a.596.596 0 0 1-.486 0 .633.633 0 0 1-.209-.487l1.248-4.307-3.186-3.196a.328.328 0 0 1-.07-.417.355.355 0 0 1 .347-.278h3.884l1.594-3.544a.382.382 0 0 1 .347-.208.418.418 0 0 1 .416.208L13.933 9.5h3.884a.378.378 0 0 1 .416.278c.07.139 0 .278-.139.417l-3.121 3.196 1.18 4.307a.433.433 0 0 1-.139.486.419.419 0 0 1-.28.071v-.001ZM5.74 2.833a2.93 2.93 0 0 0-2.91 2.918v12.5a2.93 2.93 0 0 0 2.91 2.916h12.47a2.932 2.932 0 0 0 2.911-2.917V5.75a2.931 2.931 0 0 0-2.91-2.916H5.74ZM18.21 22H5.741A3.726 3.726 0 0 1 2 18.25V5.75A3.728 3.728 0 0 1 5.74 2h12.47a3.731 3.731 0 0 1 3.743 3.75v12.5A3.729 3.729 0 0 1 18.212 22Z" clip-rule="evenodd"/>
</svg>
