<svg xmlns="http://www.w3.org/2000/svg" width="24" height="24" fill="none" viewBox="0 0 24 24">
  <path fill="#000" fill-rule="evenodd" d="M11.947 16.726c.105 0 .21.105.314.105l4.71 2.418-.941-5.152a.805.805 0 0 1 .208-.524l3.768-3.68-5.234-.736a.818.818 0 0 1-.418-.42L11.946 4.11 9.644 8.737a.818.818 0 0 1-.419.42l-5.233.736 3.767 3.68c.13.144.205.33.21.524l-.942 5.152 4.71-2.418c.106 0 .105-.105.21-.105Zm5.86 4.31h-.314l-5.546-2.944-5.441 2.944a.64.64 0 0 1-.628-.105.749.749 0 0 1-.314-.63l1.046-6.099-4.395-4.31a.776.776 0 0 1-.21-.632.698.698 0 0 1 .524-.42l6.174-.947 2.722-5.572a.573.573 0 0 1 .523-.316.633.633 0 0 1 .628.316l2.72 5.572 6.175.946a.698.698 0 0 1 .523.421.775.775 0 0 1-.21.631l-4.394 4.311 1.046 6.098a.75.75 0 0 1-.314.631.384.384 0 0 1-.315.107v-.002Z" clip-rule="evenodd"/>
</svg>
