<svg xmlns="http://www.w3.org/2000/svg" width="24" height="24" fill="none" viewBox="0 0 24 24">
  <path fill="#000" fill-rule="evenodd" d="M11.977 2.834A9.167 9.167 0 1 0 21.163 12a9.213 9.213 0 0 0-9.186-9.167Zm0 19.166A10 10 0 1 1 22 12a10.059 10.059 0 0 1-10.023 10ZM8 7.4a.846.846 0 0 0-.834.836.898.898 0 0 0 .834.835.846.846 0 0 0 .836-.835A.804.804 0 0 0 8 7.401Zm0 2.506a1.693 1.693 0 0 1-1.55-2.313A1.646 1.646 0 0 1 8 6.565a1.61 1.61 0 0 1 1.671 1.671 1.65 1.65 0 0 1-1.67 1.67Zm3.977 3.751a2.09 2.09 0 0 0-2.084 2.085 2.136 2.136 0 0 0 2.084 2.084 2.088 2.088 0 0 0 2.083-2.084 2.047 2.047 0 0 0-2.083-2.085Zm0 5.002a2.936 2.936 0 0 1-2.703-4.038 2.891 2.891 0 0 1 2.703-1.797 2.85 2.85 0 0 1 2.917 2.918 2.895 2.895 0 0 1-2.917 2.917ZM15.53 7.401a.847.847 0 0 0-.836.836.898.898 0 0 0 .835.834.846.846 0 0 0 .835-.834.805.805 0 0 0-.835-.836Zm0 2.506a1.694 1.694 0 0 1-1.671-1.67 1.646 1.646 0 0 1 1.67-1.671 1.606 1.606 0 0 1 1.67 1.67 1.646 1.646 0 0 1-1.67 1.67Z" clip-rule="evenodd"/>
</svg>
