<svg xmlns="http://www.w3.org/2000/svg" width="24" height="24" fill="none" viewBox="0 0 24 24">
  <path fill="#000" fill-rule="evenodd" d="m20.262 7.98-3.748-3.262a2.672 2.672 0 0 0-.652-.256 1.123 1.123 0 0 0-.595-.424l-4.65-1.734a1.69 1.69 0 0 0-.642-.024A1.197 1.197 0 0 0 9.22 2H4.244A1.288 1.288 0 0 0 3 3.25v17.5A1.242 1.242 0 0 0 4.244 22h4.977c.298 0 .585-.109.81-.305l.026.023L20.4 9.784a1.242 1.242 0 0 0-.139-1.805ZM14.99 4.8a.472.472 0 0 1 .276.555L10.463 18.25v-15a1.035 1.035 0 0 0-.016-.142L14.99 4.8ZM4.245 21.166a.368.368 0 0 1-.414-.417v-17.5a.4.4 0 0 1 .414-.416h4.977a.447.447 0 0 1 .414.417v17.5a.4.4 0 0 1-.414.417l-4.977-.001ZM19.778 9.228l-8.915 10.286 5.17-13.882c.02-.061.034-.124.044-.188l3.632 3.16a.44.44 0 0 1 .067.624h.002ZM8.405 3.69H5.064a.399.399 0 0 0-.419.413v3.305a.368.368 0 0 0 .419.413h3.341a.4.4 0 0 0 .42-.413V4.103A.448.448 0 0 0 8.4 3.69h.004Zm-.417 3.305H5.48V4.516h2.508v2.479Zm.417 1.671H5.064a.403.403 0 0 0-.419.418v3.342a.37.37 0 0 0 .419.418h3.341a.405.405 0 0 0 .392-.255.402.402 0 0 0 .027-.163V9.084a.45.45 0 0 0-.423-.418h.004Zm-.417 3.343H5.48V9.502h2.508v2.507Zm.417 1.68H5.064a.4.4 0 0 0-.419.413v3.306a.368.368 0 0 0 .419.413h3.341a.398.398 0 0 0 .39-.252.4.4 0 0 0 .03-.161v-3.306a.448.448 0 0 0-.424-.413h.004Zm-.417 3.305H5.48v-2.478h2.508v2.478Zm-1.254 1.25A1.299 1.299 0 0 0 5.49 19.51a1.244 1.244 0 1 0 2.49 0 1.298 1.298 0 0 0-1.248-1.267h.002Zm0 1.69a.37.37 0 0 1-.415-.423.402.402 0 0 1 .415-.423.45.45 0 0 1 .416.423.402.402 0 0 1-.418.422h.002Z" clip-rule="evenodd"/>
</svg>
