<svg xmlns="http://www.w3.org/2000/svg" width="24" height="24" fill="none" viewBox="0 0 24 24">
  <path fill="#000" fill-rule="evenodd" d="M17.47 12.76a.366.366 0 0 1-.07.365.378.378 0 0 1-.345.14l-.043-.002-3.143.802h-.137a.468.468 0 0 1-.417-.277c0-.276.07-.483.347-.553l2.448-.581a7.68 7.68 0 0 0-4.532-1.5 7.844 7.844 0 0 0-5.197 1.972.511.511 0 0 1-.625 0 .451.451 0 0 1 .07-.634 8.625 8.625 0 0 1 5.752-2.182 8.492 8.492 0 0 1 4.82 1.515l-.52-2.183a.393.393 0 0 1 .276-.484c.208-.069.486.07.486.277l.83 3.316v.01Zm2.463-9.117a.424.424 0 0 0-.415.505.423.423 0 1 0 .415-.505Zm-1.69 0a.423.423 0 1 0 0 .846.423.423 0 0 0 0-.846Zm-1.642.846a.423.423 0 1 0 0-.846.423.423 0 0 0 0 .846Zm-1.69 0a.423.423 0 1 0 0-.846.423.423 0 0 0 0 .846Zm5.022 15.861a.403.403 0 0 0-.37.491.4.4 0 0 0 .792-.09.412.412 0 0 0-.422-.396v-.005Zm-1.69 0a.4.4 0 1 0 .423.401.411.411 0 0 0-.422-.396v-.005Zm-1.642 0a.4.4 0 1 0 .422.401.412.412 0 0 0-.422-.396v-.005Zm-1.69 0a.4.4 0 1 0 .423.401.411.411 0 0 0-.423-.396v-.005ZM13.268 4.49a.423.423 0 1 0 .001-.846.423.423 0 0 0 0 .846Zm0 15.861a.4.4 0 1 0 .422.401.411.411 0 0 0-.422-.396v-.005ZM21.576 4.49a.424.424 0 0 0 .415-.505.423.423 0 1 0-.415.505Zm0 .844a.423.423 0 1 0-.001.845.423.423 0 0 0 0-.845Zm0 1.643a.422.422 0 1 0 0 .844.422.422 0 0 0 0-.844Zm0 1.69a.421.421 0 1 0 0 .843.421.421 0 0 0 0-.843Zm0 1.643a.423.423 0 1 0 0 .845.423.423 0 0 0 0-.845Zm0 1.69a.421.421 0 1 0 0 .842.421.421 0 0 0 0-.842Zm0 1.689a.4.4 0 1 0 .422.4.41.41 0 0 0-.422-.4Zm0 1.643a.421.421 0 1 0 0 .843.421.421 0 0 0 0-.843Zm0 1.69a.4.4 0 0 0-.05.794.4.4 0 0 0 .472-.394.411.411 0 0 0-.422-.4Zm0 1.642a.421.421 0 1 0 0 .843.421.421 0 0 0 0-.843Zm0 1.69a.4.4 0 1 0 .18.769.4.4 0 0 0 .242-.368.411.411 0 0 0-.422-.399v-.002ZM9.94 20.317h-7.1V4.477h7.1a.4.4 0 0 0 .417-.417.448.448 0 0 0-.417-.417H2.42a.402.402 0 0 0-.417.417v16.674a.37.37 0 0 0 .418.417H9.94a.401.401 0 0 0 .417-.417.448.448 0 0 0-.418-.417h.001Zm1.637-7.474a.4.4 0 0 0-.421.416v8.32a.372.372 0 0 0 .421.417.401.401 0 0 0 .423-.416v-8.321a.451.451 0 0 0-.423-.416Zm0-4.177A.401.401 0 0 0 12 8.249V2.417a.45.45 0 0 0-.423-.416.398.398 0 0 0-.394.253.402.402 0 0 0-.027.163V8.25a.372.372 0 0 0 .421.417Z" clip-rule="evenodd"/>
</svg>
