<svg xmlns="http://www.w3.org/2000/svg" width="24" height="24" fill="none" viewBox="0 0 24 24">
  <path fill="#000" fill-rule="evenodd" d="M2.876 18.826c3.841 0 5.218.58 6.305 1.089a5.797 5.797 0 0 0 2.827.653h5.655a.937.937 0 0 0 .87-.87.882.882 0 0 0-.87-.872.417.417 0 0 1-.435-.435.385.385 0 0 1 .434-.436h.87a.936.936 0 0 0 .87-.87.882.882 0 0 0-.87-.872.417.417 0 0 1-.434-.435.384.384 0 0 1 .434-.435h.87a.936.936 0 0 0 .87-.871.882.882 0 0 0-.87-.871.415.415 0 0 1-.407-.266.419.419 0 0 1-.028-.17.384.384 0 0 1 .435-.435h.87a.936.936 0 0 0 .87-.871.882.882 0 0 0-.87-.871h-6.955a.396.396 0 0 1-.364-.218.319.319 0 0 1-.072-.363s.87-3.265.87-4.935a1.71 1.71 0 0 0-.435-1.233.861.861 0 0 0-.653-.363c-.362 0-.651.144-.651.58 0 4.354-3.697 7.403-6.956 7.403H2.882l-.006 6.967ZM17.66 21.44h-5.654a6.56 6.56 0 0 1-3.117-.726c-1.16-.435-2.464-1.017-6.45-1.017a.417.417 0 0 1-.435-.436v-7.838a.384.384 0 0 1 .435-.436h2.609c2.827 0 6.088-2.685 6.088-6.531a1.43 1.43 0 0 1 1.522-1.452 1.643 1.643 0 0 1 1.304.653 2.53 2.53 0 0 1 .653 1.815 21.307 21.307 0 0 1-.798 4.645h6.45a1.716 1.716 0 0 1 .58 3.336c.173.313.272.66.29 1.018a1.725 1.725 0 0 1-1.16 1.596c.173.313.272.66.29 1.018a1.727 1.727 0 0 1-1.159 1.597c.173.313.272.66.29 1.017a1.765 1.765 0 0 1-1.737 1.74Z" clip-rule="evenodd"/>
</svg>
