<svg xmlns="http://www.w3.org/2000/svg" width="24" height="24" fill="none" viewBox="0 0 24 24">
  <path fill="#000" d="M22 10.759a1.687 1.687 0 0 0-1.667-1.661h-6.04c.347-.97.903-2.907.625-4.083-.486-1.662-1.39-2.077-2.153-2.008a1.504 1.504 0 0 0-1.18 1.523c0 2.876-2.78 6.098-4.574 6.577v-.728a.4.4 0 0 0-.417-.415H2.417a.397.397 0 0 0-.39.253.4.4 0 0 0-.027.162v9.944a.448.448 0 0 0 .417.414h4.177a.447.447 0 0 0 .417-.414v-1.194c.848.116 1.477.233 2.003.35a15.2 15.2 0 0 0 3.404.415h5.416c1.111 0 1.667-.415 1.666-1.246a2.252 2.252 0 0 0-.277-.969 1.645 1.645 0 0 0 1.11-1.522 2.246 2.246 0 0 0-.277-.969 1.574 1.574 0 0 0 .764-2.491A2.3 2.3 0 0 0 22 10.759Zm-19.165 9.15v-9.116h3.341v.756c0 .015-.008.025-.008.04v7.06a.42.42 0 0 0 .008.044v1.216H2.835Zm17.498-7.904H19.5a.402.402 0 0 0-.389.253.401.401 0 0 0-.027.162.447.447 0 0 0 .416.415.842.842 0 0 1 .833.83.894.894 0 0 1-.833.83h-.833a.401.401 0 0 0-.416.416.447.447 0 0 0 .416.415.842.842 0 0 1 .833.83.894.894 0 0 1-.833.831h-.833a.4.4 0 0 0-.416.416.448.448 0 0 0 .416.415.843.843 0 0 1 .833.83c0 .208 0 .416-.833.416h-5.416a10.504 10.504 0 0 1-3.194-.416c-.623-.069-1.315-.206-2.215-.344v-6.371c2.29-.424 5.407-4.155 5.407-7.401a.688.688 0 0 1 .486-.692c.348-.07.903.345 1.181 1.384.348 1.107-.486 3.322-.833 4.083a.88.88 0 0 0 .07.415.383.383 0 0 0 .346.208h6.666a.843.843 0 0 1 .834.83c.001.483-.416 1.245-.835 1.245h.002ZM5.326 18.676a.4.4 0 1 1-.398-.421.41.41 0 0 1 .398.421Z"/>
</svg>
