<svg xmlns="http://www.w3.org/2000/svg" width="24" height="24" fill="none" viewBox="0 0 24 24">
  <path fill="#000" d="M21.587 3H17.44a.447.447 0 0 0-.415.416v.96a12.268 12.268 0 0 1-2.393-.752A8.419 8.419 0 0 0 11.577 3H6.163a1.688 1.688 0 0 0-1.666 1.664c.01.352.132.692.348.97a1.625 1.625 0 0 0-1.18 1.524c.01.352.131.692.347.97a1.624 1.624 0 0 0-1.179 1.525c.01.352.13.692.346.97A1.625 1.625 0 0 0 2 12.15a1.643 1.643 0 0 0 1.665 1.663H9.77c-.347 1.11-.972 3.396-.624 4.574.417 1.525 1.25 2.08 1.943 2.08h.208a1.437 1.437 0 0 0 1.11-1.456c0-3.033 2.825-6.18 4.615-6.603v.975a.446.446 0 0 0 .415.415h4.147a.399.399 0 0 0 .415-.415V3.415A.4.4 0 0 0 21.587 3Zm-4.596 8.525c-2.29.416-5.415 4.089-5.415 7.485a.557.557 0 0 1-.416.624c-.417.069-.903-.347-1.25-1.456-.278-1.109.487-3.673.832-4.643.07-.07 0-.208-.069-.347a.379.379 0 0 0-.347-.208h-6.66a.844.844 0 0 1-.832-.831.894.894 0 0 1 .832-.832h.832a.367.367 0 0 0 .417-.416.4.4 0 0 0-.417-.416.842.842 0 0 1-.832-.832.894.894 0 0 1 .832-.831h.833a.368.368 0 0 0 .417-.416.4.4 0 0 0-.417-.416.843.843 0 0 1-.833-.832.895.895 0 0 1 .833-.831h.833a.369.369 0 0 0 .417-.416.4.4 0 0 0-.417-.416.844.844 0 0 1-.833-.831.895.895 0 0 1 .833-.832h5.415a6.54 6.54 0 0 1 2.775.624c.848.351 1.732.607 2.637.762v6.307Zm4.181 1.443h-3.317V3.83h3.317v9.137Zm-2.081-7.48a.423.423 0 1 0 0-.845.423.423 0 0 0 0 .845Z"/>
</svg>
