<svg xmlns="http://www.w3.org/2000/svg" width="24" height="24" fill="none" viewBox="0 0 24 24">
  <path fill="#000" fill-rule="evenodd" d="M3.744 11.693a.935.935 0 0 0-.87.87.88.88 0 0 0 .87.869h6.95a.396.396 0 0 1 .362.217.32.32 0 0 1 .072.362s-.869 3.187-.869 4.852c-.023.463.105.92.363 1.304a.937.937 0 0 0 .725.29c.361 0 .65-.145.65-.51 0-4.417 3.622-7.386 6.954-7.386h2.173V5.535c-3.839-.072-5.215-.579-6.301-1.086a6.879 6.879 0 0 0-2.826-.58h-5.65a.934.934 0 0 0-.87.87.88.88 0 0 0 .87.87.417.417 0 0 1 .435.434.384.384 0 0 1-.435.434h-.87a.934.934 0 0 0-.868.87.88.88 0 0 0 .869.869.418.418 0 0 1 .435.434.384.384 0 0 1-.435.435h-.869a.933.933 0 0 0-.869.869.88.88 0 0 0 .869.869.419.419 0 0 1 .435.434.384.384 0 0 1-.435.435l-.865.001Zm7.604 9.632a1.978 1.978 0 0 1-1.377-.579 2.923 2.923 0 0 1-.578-1.883c.099-1.545.365-3.075.795-4.562H3.744a1.713 1.713 0 0 1-.58-3.334 2.36 2.36 0 0 1-.29-1.014 1.722 1.722 0 0 1 1.16-1.593 2.363 2.363 0 0 1-.29-1.014 1.721 1.721 0 0 1 1.159-1.594 2.362 2.362 0 0 1-.29-1.014A1.762 1.762 0 0 1 6.35 3H12a7.714 7.714 0 0 1 3.116.652c1.086.435 2.461 1.014 6.445 1.014a.385.385 0 0 1 .435.434v7.895a.384.384 0 0 1-.435.434h-2.606c-2.826 0-6.085 2.68-6.085 6.518a1.412 1.412 0 0 1-1.522 1.378Z" clip-rule="evenodd"/>
</svg>
