<svg xmlns="http://www.w3.org/2000/svg" width="24" height="24" fill="none" viewBox="0 0 24 24">
  <path fill="#000" fill-rule="evenodd" d="M4.17 18.456a10.32 10.32 0 0 0 4.194.85A10.5 10.5 0 0 0 18.963 8.744v-.496a.54.54 0 0 1 .142-.355c.213-.142.356-.212.569-.354.213-.142.427-.355.64-.497a2.03 2.03 0 0 1-.853-.283.403.403 0 0 1 0-.709c.219-.128.412-.297.569-.496a11.04 11.04 0 0 1-1.636.496c-.142 0-.287 0-.356-.142a3.388 3.388 0 0 0-2.56-1.063 3.456 3.456 0 0 0-3.415 3.403 2.64 2.64 0 0 0 .071.78.468.468 0 0 1-.07.425.546.546 0 0 1-.357.141 11.651 11.651 0 0 1-7.895-3.686 3.11 3.11 0 0 0-.142 1.134A3.588 3.588 0 0 0 5.163 9.95a.341.341 0 0 1 .142.425.38.38 0 0 1-.355.355 8.324 8.324 0 0 1-1.28-.284 3.402 3.402 0 0 0 2.7 2.764.432.432 0 0 1 0 .851 6.16 6.16 0 0 1-1.139.142 3.512 3.512 0 0 0 2.917 1.773.39.39 0 0 1 .427.283.468.468 0 0 1-.143.496 9.36 9.36 0 0 1-4.262 1.702Zm4.194 1.701a11.31 11.31 0 0 1-6.189-1.843.407.407 0 0 1-.141-.496.48.48 0 0 1 .426-.284 7.177 7.177 0 0 0 4.553-.919 4.36 4.36 0 0 1-2.916-2.764.517.517 0 0 1 .141-.426c.072-.07.143-.141.214-.141A4.261 4.261 0 0 1 2.745 9.81a.327.327 0 0 1 .213-.354.453.453 0 0 1 .427 0c.071 0 .142 0 .142.07a4.232 4.232 0 0 1-.711-2.48 3.832 3.832 0 0 1 .569-2.127c.071-.14.142-.212.287-.212.151.015.297.063.427.142a10.484 10.484 0 0 0 7.113 3.828v-.425A4.274 4.274 0 0 1 15.48 4a4.2 4.2 0 0 1 2.987 1.207 9.571 9.571 0 0 0 2.134-.851c.142-.142.356-.07.498 0 .09.15.138.321.142.496l-.142.213a2.397 2.397 0 0 1-.498 1.134c.274-.013.54-.085.783-.213a.41.41 0 0 1 .498.142.436.436 0 0 1 .07.497 6.793 6.793 0 0 1-1.849 1.63c-.071.07-.213.142-.284.213v.283A11.318 11.318 0 0 1 8.367 20.157h-.003Z" clip-rule="evenodd"/>
</svg>
