<svg xmlns="http://www.w3.org/2000/svg" width="24" height="24" fill="none" viewBox="0 0 24 24">
  <path fill="#000" fill-rule="evenodd" d="M18.564 9.515A6.646 6.646 0 0 0 5.872 6.007a6.647 6.647 0 0 0-.547 2.645c.002.289.023.577.062.863A6.676 6.676 0 0 0 8.65 22a6.588 6.588 0 0 1 6.652 0 6.675 6.675 0 0 0 3.263-12.485h-.001ZM6.156 8.652a5.82 5.82 0 0 1 11.638 0c0 .162-.01.322-.024.481a13.817 13.817 0 0 1-9.12-.481 6.6 6.6 0 0 0-2.469.48 5.55 5.55 0 0 1-.025-.48Zm8.313 6.674a3.042 3.042 0 1 1-4.987 0c0-.17.01-.337.025-.503a6.59 6.59 0 0 0 4.938 0c.013.17.024.334.024.503Zm-2.494-.855c-.802 0-1.595-.17-2.327-.497a5.898 5.898 0 0 1 2.342-3.432 5.839 5.839 0 0 1 2.32 3.444 5.817 5.817 0 0 1-2.335.486v-.001Zm-3.083-.904a5.879 5.879 0 0 1-2.572-3.58 5.705 5.705 0 0 1 2.33-.5 5.79 5.79 0 0 1 2.551.592 6.674 6.674 0 0 0-2.31 3.488Zm3.87-3.479a5.706 5.706 0 0 1 2.539-.602c.804 0 1.6.166 2.336.49a5.816 5.816 0 0 1-2.575 3.604 6.674 6.674 0 0 0-2.3-3.492ZM8.65 21.165a5.83 5.83 0 0 1-3.087-10.77 6.665 6.665 0 0 0 3.151 4.049 6.592 6.592 0 0 0 2.489 6.129 5.782 5.782 0 0 1-2.552.593H8.65Zm6.652 0a5.712 5.712 0 0 1-2.539-.6 6.666 6.666 0 0 0 2.539-5.239 6.796 6.796 0 0 0-.065-.882 6.66 6.66 0 0 0 3.156-4.065A5.843 5.843 0 0 1 15.3 21.165Z" clip-rule="evenodd"/>
</svg>
