<svg xmlns="http://www.w3.org/2000/svg" width="24" height="24" fill="none" viewBox="0 0 24 24">
  <path fill="#000" fill-rule="evenodd" d="M4.89 7.772a.886.886 0 0 1 .764.346c.347.347.833 1.942 1.806 5.201.43 1.529.94 3.034 1.53 4.509a3.135 3.135 0 0 0 1.944 1.803 1.63 1.63 0 0 0 1.459-.278c1.598-.97 7.643-5.964 8.686-11.998.28-1.317 0-2.356-.695-2.982-.764-.624-2.015-.693-3.266-.208a4.917 4.917 0 0 0-3.057 3.051 1.805 1.805 0 0 1 1.876.278c.694.693.764 2.01.07 3.26-1.946 3.675-2.78 3.675-3.058 3.675-.834 0-1.181-1.248-1.946-4.161-.14-.555-.209-1.248-.347-1.942-.28-1.664-.626-3.537-1.459-4.161a1.146 1.146 0 0 0-.972-.139c-1.946.347-4.517 3.121-5.282 3.953l.348.416a3.235 3.235 0 0 1 1.598-.623Zm6.462 12.76a2.626 2.626 0 0 1-.695-.069 4.289 4.289 0 0 1-2.432-2.22 48.076 48.076 0 0 1-1.529-4.715c-.625-1.943-1.459-4.578-1.668-4.925-.139-.138-.903.209-1.598.694a.53.53 0 0 1-.28.139c-.14-.07-.209-.07-.28-.208l-.765-.971a.418.418 0 0 1 0-.555c.14-.138 3.405-4.022 5.976-4.508a2.1 2.1 0 0 1 1.598.277c1.112.833 1.459 2.844 1.807 4.716.07.632.186 1.258.348 1.873.277 1.04.833 3.26 1.181 3.537.208-.07.973-.763 2.293-3.26.556-1.04.417-1.872.07-2.219-.348-.346-1.043-.277-1.74.139a.337.337 0 0 1-.487 0 .31.31 0 0 1-.138-.416 5.991 5.991 0 0 1 3.822-4.508c1.528-.555 3.057-.416 4.1.416.625.555 1.32 1.664.972 3.745-1.111 6.311-7.435 11.513-9.031 12.553a2.505 2.505 0 0 1-1.524.485Z" clip-rule="evenodd"/>
</svg>
