<svg xmlns="http://www.w3.org/2000/svg" width="24" height="24" fill="none" viewBox="0 0 24 24">
  <path fill="#000" fill-rule="evenodd" d="M5.421 9.374a2.129 2.129 0 1 0 0-4.257 2.129 2.129 0 0 0 0 4.257Zm0-3.407a1.278 1.278 0 1 1-1.182.788 1.272 1.272 0 0 1 1.182-.788ZM8.37 9.805H2.425A.457.457 0 0 0 2 10.23a12.052 12.052 0 0 0 .99 4.818c.138.267.233.554.284.85v4.536a.458.458 0 0 0 .424.425h3.397a.407.407 0 0 0 .425-.425v-4.536c.05-.296.146-.583.284-.85a12.06 12.06 0 0 0 .99-4.818.408.408 0 0 0-.424-.425Zm-1.344 4.96a2.599 2.599 0 0 0-.355 1.133v4.11H4.122v-4.11c-.029-.4-.15-.788-.353-1.134a12.62 12.62 0 0 1-.92-4.11h2.116v2.553a.46.46 0 0 0 .431.425.412.412 0 0 0 .43-.425v-2.552h2.118a11.005 11.005 0 0 1-.919 4.11Zm6.05-9.65a2.129 2.129 0 1 0 0 4.258 2.129 2.129 0 0 0 0-4.257Zm0 3.408a1.278 1.278 0 1 1-.001-2.556 1.278 1.278 0 0 1 .002 2.556Zm3.804-1.696a3.828 3.828 0 0 0-7.654 0v5.09a.457.457 0 0 0 .424.424h.91a12.39 12.39 0 0 0-.904 4.69.457.457 0 0 0 .424.426h1.699v2.975a.457.457 0 0 0 .424.425H13.9a.406.406 0 0 0 .425-.425v-2.976h1.699a.407.407 0 0 0 .424-.425 12.566 12.566 0 0 0-.878-4.69h.884a.407.407 0 0 0 .424-.425l.001-5.089Zm-2.978 9.78a.456.456 0 0 0-.424.425v2.975h-.85v-2.975a.408.408 0 0 0-.424-.425h-1.698c.141-3.33 1.415-5.809 2.547-5.809 1.133 0 2.477 2.48 2.548 5.809h-1.7Zm2.128-5.114h-.883c-.556-.937-1.266-1.545-2.094-1.545-.8 0-1.504.606-2.064 1.544h-.914V6.827a2.977 2.977 0 0 1 5.954 0v4.665Zm5.969 2.157a1.198 1.198 0 0 0-.641-1.134 2.532 2.532 0 0 0-.71-.141.39.39 0 0 0-.215-.354 1.076 1.076 0 0 0-.995-.496 1.241 1.241 0 0 0-.996.496 1.551 1.551 0 0 0-.213.354c-.22.012-.436.06-.641.141a1.26 1.26 0 0 0-.224 2.128.37.37 0 0 0 .015.055l1.693 2.977a.4.4 0 0 0 .706 0l1.695-2.977a.392.392 0 0 0 .05-.064A1.263 1.263 0 0 0 22 13.65h-.001Zm-4.053-.353a.455.455 0 0 1 .427 0c.142.141.355.07.498 0a.504.504 0 0 0 .213-.425.31.31 0 0 1 .071-.354.537.537 0 0 1 .641 0 .524.524 0 0 1 .072.354.34.34 0 0 0 .142.425c.143.07.356.141.498 0 .213-.071.356-.071.427 0a.387.387 0 0 1 .213.353.405.405 0 0 1-.365.413H18.11a.455.455 0 0 1-.375-.413.388.388 0 0 1 .213-.353h-.002Zm1.48 3.318-.917-1.701h1.905l-.989 1.7Z" clip-rule="evenodd"/>
</svg>
