<svg xmlns="http://www.w3.org/2000/svg" width="24" height="24" fill="none" viewBox="0 0 24 24">
  <path fill="#000" fill-rule="evenodd" d="M11.38 19.185c.692.345 2.006.966 2.975.966a8.248 8.248 0 0 0 3.114-.69l1.314-4.691a8.451 8.451 0 0 1-2.56.345 6.22 6.22 0 0 1-3.39-.895l-1.453 4.965Zm2.975 1.794c-1.314 0-3.667-1.104-3.874-1.45v-.275l1.73-5.795a.297.297 0 0 1 .276-.276.24.24 0 0 1 .278-.002.24.24 0 0 1 .068.071 5.455 5.455 0 0 0 3.39 1.034 8.135 8.135 0 0 0 3.045-.551.426.426 0 0 1 .415.069c.138.137.207.276.138.414l-1.591 5.657c-.07.138-.138.276-.277.276-1.136.5-2.357.78-3.598.828Zm-8.734-3.786a5.416 5.416 0 0 1 3.131.969c.417-1.454 1.182-4.152 1.53-5.19a5.748 5.748 0 0 0-2.781-.9 9.962 9.962 0 0 0-3.058.692l-1.39 4.913a7.585 7.585 0 0 1 2.568-.484ZM8.958 19.2a.255.255 0 0 1-.208-.07 5.293 5.293 0 0 0-3.131-1.107 7.99 7.99 0 0 0-3.059.692.462.462 0 0 1-.417-.069.507.507 0 0 1-.14-.415l1.74-5.882c0-.139.068-.208.208-.277a9.674 9.674 0 0 1 3.544-.83c1.53 0 2.782.83 3.477 1.245a.492.492 0 0 1 .208.415c-.28.762-1.46 4.845-1.808 6.021 0 .07-.138.208-.208.277h-.206ZM7.788 8.813a5.684 5.684 0 0 1 3.05.9c.347-1.314 1.04-3.667 1.454-4.912v-.139a5.38 5.38 0 0 0-2.912-.83 7.848 7.848 0 0 0-2.842.623L5.15 9.298a7.927 7.927 0 0 1 2.637-.485Zm3.258 2.007c-.069 0-.138-.07-.208-.07a5.229 5.229 0 0 0-3.05-1.106 8.532 8.532 0 0 0-3.12.692.328.328 0 0 1-.416-.07c-.139-.069-.139-.276-.139-.415L5.777 4.04c.07-.139.139-.277.28-.277a9.148 9.148 0 0 1 3.258-.76 6.128 6.128 0 0 1 3.675 1.106.38.38 0 0 1 .208.346v.138l-.139.484c-.416 1.454-1.248 4.361-1.594 5.397a.297.297 0 0 1-.28.277.242.242 0 0 1-.136.069h-.003Zm2.398.137a6.354 6.354 0 0 0 6.12.28l1.39-4.858a7.364 7.364 0 0 1-2.643.486 6.404 6.404 0 0 1-3.406-.972l-1.46 5.064Zm3.2 1.734a6.598 6.598 0 0 1-3.895-1.18c-.07 0-.07-.07-.14-.07a.883.883 0 0 1-.069-.416l1.739-5.899a.299.299 0 0 1 .28-.28c.138-.07.279-.07.347.07a5.785 5.785 0 0 0 3.407 1.11 9.14 9.14 0 0 0 3.13-.694.328.328 0 0 1 .418.07c.139.069.139.28.139.416l-1.738 5.83c0 .069 0 .069-.07.138 0 .07-.07.07-.139.14a8.931 8.931 0 0 1-3.41.767v-.002Z" clip-rule="evenodd"/>
</svg>
