<svg xmlns="http://www.w3.org/2000/svg" width="24" height="24" fill="none" viewBox="0 0 24 24">
  <path fill="#000" fill-rule="evenodd" d="M11.977 2.833a9.165 9.165 0 1 0 .044 18.33 9.165 9.165 0 0 0-.044-18.33Zm0 19.167A10 10 0 1 1 22 12a10.013 10.013 0 0 1-10.023 10ZM6.48 9.418a.392.392 0 0 1-.35-.138.412.412 0 0 1 .07-.55 6.54 6.54 0 0 1 3.22-1.31.381.381 0 0 1 .49.345c.07.207-.14.414-.349.482a5.019 5.019 0 0 0-2.8 1.102.431.431 0 0 1-.281.069Zm10.97 0c-.14 0-.21 0-.279-.069a5.404 5.404 0 0 0-2.783-1.102c-.278-.068-.417-.275-.348-.482a.347.347 0 0 1 .418-.344 5.997 5.997 0 0 1 3.2 1.308.358.358 0 0 1 .071.551.28.28 0 0 1-.279.138Zm-5.474 3.417c-1.188 0-2.096 1.252-2.096 2.921 0 1.6.908 2.921 2.096 2.921 1.118 0 2.096-1.321 2.096-2.92-.002-1.67-.978-2.922-2.096-2.922Zm0 6.675c-1.607 0-2.935-1.738-2.935-3.755 0-2.087 1.328-3.757 2.935-3.757s2.934 1.67 2.934 3.757c0 2.018-1.327 3.757-2.934 3.757v-.002Z" clip-rule="evenodd"/>
</svg>
