<svg xmlns="http://www.w3.org/2000/svg" width="24" height="24" fill="none" viewBox="0 0 24 24">
  <path fill="#000" fill-rule="evenodd" d="M17.81 11.764H5.845A3.825 3.825 0 0 0 2 15.602v2.56A3.871 3.871 0 0 0 5.845 22H17.81a3.872 3.872 0 0 0 3.845-3.838v-2.56a3.828 3.828 0 0 0-3.846-3.838Zm2.99 6.398a3.006 3.006 0 0 1-2.99 2.984H5.845a3.006 3.006 0 0 1-2.99-2.984v-2.56a3.006 3.006 0 0 1 2.99-2.984H17.81a3.006 3.006 0 0 1 2.99 2.984v2.56ZM4.642 2.669a.367.367 0 0 1 .072-.567.375.375 0 0 1 .573.071l2.285 2.87 2.254-2.87a.403.403 0 1 1 .636.496L8.01 5.833V9.61a.46.46 0 0 1-.43.424h-.012a.459.459 0 0 1-.423-.425V5.85L4.643 2.67Zm5.047 3.109v2.554a1.706 1.706 0 0 0 3.412 0V5.778a1.706 1.706 0 0 0-3.412 0Zm.853 0a.853.853 0 0 1 1.706 0v2.554a.853.853 0 0 1-1.706 0V5.778Zm4.066 3.616a2.036 2.036 0 0 1-.642-1.493V4.502a.428.428 0 0 1 .855 0v3.405c.011.318.138.62.357.851a1.256 1.256 0 0 0 .926.426 1.27 1.27 0 0 0 1.274-1.182v-3.5a.413.413 0 0 1 .432-.428h.005a.41.41 0 0 1 .428.426v5.056a.428.428 0 0 1-.856.04 2.109 2.109 0 0 1-2.096.272c-.257-.11-.49-.27-.682-.472l-.001-.002Zm-3.19 6.207v3.329a.46.46 0 0 1-.432.425.399.399 0 0 1-.219-.078 1.3 1.3 0 0 1-.646.172 1.284 1.284 0 0 1-1.297-1.283v-2.567a.433.433 0 0 1 .865 0v2.567a.433.433 0 0 0 .865 0v-2.569a.411.411 0 0 1 .432-.425H11a.41.41 0 0 1 .42.423v.007Zm-2.595-.86a.413.413 0 0 1-.427.431H7.142v3.755a.433.433 0 0 1-.865 0v-3.75H4.974a.415.415 0 0 1-.427-.432.38.38 0 0 1 .427-.433h3.422a.38.38 0 0 1 .427.432v-.004Zm4.71.431a1.314 1.314 0 0 0-.432.078v-1.335a.433.433 0 0 0-.866 0v5.015a.411.411 0 0 0 .433.424.459.459 0 0 0 .235-.07 1.3 1.3 0 0 0 1.83-.623c.065-.157.099-.325.099-.494v-1.711a1.283 1.283 0 0 0-1.299-1.279v-.005Zm.433 2.995a.433.433 0 0 1-.865 0v-1.711a.433.433 0 0 1 .865 0v1.71Zm3.989-.23a.413.413 0 0 0-.433.425c0 .213-.287.288-.505.288a.608.608 0 0 1-.504-.497v-.425h1.297a.46.46 0 0 0 .433-.426v-.85a1.297 1.297 0 1 0-2.595 0v1.701a1.407 1.407 0 0 0 1.37 1.347 1.239 1.239 0 0 0 1.369-1.135.413.413 0 0 0-.432-.424v-.004Zm-1.442-1.489a.433.433 0 0 1 .865 0v.426h-.865v-.425Z" clip-rule="evenodd"/>
</svg>
