<svg xmlns="http://www.w3.org/2000/svg" width="1920" height="340" fill="none" viewBox="0 0 1920 340">
  <path fill="#fff" d="M0 0h1920v340H0z"/>
  <path fill="#000" d="M111.936 118.68h8.544l9.024 23.424 8.832-23.424h8.448V153H140.4v-25.92L130.176 153h-2.064l-10.416-25.92V153h-5.76v-34.32Zm53.408 30.288c2.176 0 3.872-.736 5.088-2.208 1.216-1.504 1.824-3.552 1.824-6.144v-.336c0-2.592-.608-4.624-1.824-6.096-1.216-1.504-2.912-2.256-5.088-2.256s-3.888.736-5.136 2.208c-1.216 1.472-1.824 3.504-1.824 6.096v.384c0 2.592.608 4.64 1.824 6.144 1.216 1.472 2.928 2.208 5.136 2.208Zm-.048 4.512c-1.856 0-3.568-.304-5.136-.912-1.568-.608-2.928-1.472-4.08-2.592-1.152-1.12-2.048-2.464-2.688-4.032-.64-1.568-.96-3.312-.96-5.232v-.384c0-1.952.32-3.712.96-5.28.672-1.6 1.584-2.96 2.736-4.08a11.658 11.658 0 0 1 4.08-2.64c1.568-.64 3.28-.96 5.136-.96 1.824 0 3.52.304 5.088.912a11.658 11.658 0 0 1 4.08 2.64c1.152 1.12 2.048 2.464 2.688 4.032.672 1.568 1.008 3.312 1.008 5.232v.384c0 1.952-.336 3.728-1.008 5.328a12.244 12.244 0 0 1-2.688 4.08c-1.152 1.12-2.512 1.984-4.08 2.592-1.568.608-3.28.912-5.136.912Zm32.364 0c-2.016 0-3.728-.432-5.137-1.296-1.375-.864-2.399-1.936-3.071-3.216V153h-5.808v-36.72h5.808v15.648c.352-.608.8-1.184 1.344-1.728a9.378 9.378 0 0 1 1.872-1.44 11.84 11.84 0 0 1 2.352-1.008 8.928 8.928 0 0 1 2.64-.384c1.568 0 3.024.288 4.368.864a9.94 9.94 0 0 1 3.552 2.496c.992 1.088 1.776 2.432 2.352 4.032.576 1.568.864 3.36.864 5.376v.384c0 2.016-.288 3.824-.864 5.424-.544 1.6-1.312 2.96-2.304 4.08a9.732 9.732 0 0 1-3.504 2.592c-1.344.576-2.832.864-4.464.864Zm-1.44-4.608c2.144 0 3.776-.688 4.896-2.064 1.152-1.408 1.728-3.472 1.728-6.192v-.384c0-1.376-.176-2.576-.528-3.6-.32-1.056-.784-1.936-1.392-2.64-.608-.704-1.312-1.216-2.112-1.536-.8-.352-1.68-.528-2.64-.528-2.016 0-3.68.688-4.992 2.064-1.28 1.344-1.92 3.424-1.92 6.24v.384c0 2.816.624 4.896 1.872 6.24 1.28 1.344 2.976 2.016 5.088 2.016Zm18.13-20.976h5.808V153h-5.808v-25.104Zm2.832-4.128c-.96 0-1.776-.32-2.448-.96a3.122 3.122 0 0 1-1.008-2.352c0-.96.336-1.76 1.008-2.4.672-.64 1.488-.96 2.448-.96s1.776.32 2.448.96c.672.64 1.008 1.44 1.008 2.4 0 .928-.336 1.712-1.008 2.352-.672.64-1.488.96-2.448.96Zm10.387-7.488h5.808V153h-5.808v-36.72Zm24.115 37.2c-1.856 0-3.568-.288-5.136-.864a12.516 12.516 0 0 1-4.032-2.544c-1.12-1.12-2-2.464-2.64-4.032-.608-1.568-.912-3.344-.912-5.328v-.384c0-1.952.304-3.712.912-5.28.64-1.6 1.52-2.96 2.64-4.08a11.372 11.372 0 0 1 3.936-2.64c1.536-.64 3.2-.96 4.992-.96 1.568 0 3.056.24 4.464.72 1.44.48 2.704 1.232 3.792 2.256 1.088 1.024 1.952 2.336 2.592 3.936.672 1.6 1.008 3.52 1.008 5.76v1.68h-18.384c.096 2.4.72 4.24 1.872 5.52 1.184 1.28 2.864 1.92 5.04 1.92 1.76 0 3.104-.336 4.032-1.008.928-.672 1.504-1.616 1.728-2.832h5.616c-.416 2.656-1.632 4.688-3.648 6.096-2.016 1.376-4.64 2.064-7.872 2.064Zm5.856-15.648c-.16-2.176-.768-3.76-1.824-4.752-1.024-.992-2.448-1.488-4.272-1.488-1.76 0-3.2.56-4.32 1.68-1.12 1.088-1.824 2.608-2.112 4.56h12.528ZM123.58 210h-7.497a2.045 2.045 0 0 0-1.934 1.28 2.045 2.045 0 0 0-.149.803v15.834a2.091 2.091 0 0 0 2.083 2.083h7.497a2.134 2.134 0 0 0 2.082-2.083v-15.833A2.09 2.09 0 0 0 123.58 210Zm-8.746 4.169h9.995v11.662h-9.995v-11.662Zm1.248-3.335h7.498a1.233 1.233 0 0 1 1.155.77c.062.152.094.315.093.479v1.24h-9.995v-1.242a1.26 1.26 0 0 1 .365-.884 1.244 1.244 0 0 1 .885-.363h-.001Zm7.498 18.332h-7.498a1.233 1.233 0 0 1-1.155-.771 1.24 1.24 0 0 1-.093-.478v-1.243h9.995v1.243a1.248 1.248 0 0 1-.77 1.155 1.232 1.232 0 0 1-.479.094Zm-2.93-1.274a.824.824 0 0 1-.994.778.818.818 0 0 1-.278-1.485.82.82 0 0 1 .453-.136.823.823 0 0 1 .585.251.831.831 0 0 1 .235.592h-.001Zm24.498-13.402h2.492l2.632 6.832 2.576-6.832h2.464v10.01h-1.862v-7.56l-2.982 7.56h-.602l-3.038-7.56v7.56h-1.68v-10.01Zm15.577 8.834c.635 0 1.13-.215 1.484-.644.355-.439.532-1.036.532-1.792v-.098c0-.756-.177-1.349-.532-1.778-.354-.439-.849-.658-1.484-.658-.634 0-1.134.215-1.498.644-.354.429-.532 1.022-.532 1.778v.112c0 .756.178 1.353.532 1.792.355.429.854.644 1.498.644Zm-.014 1.316a4.12 4.12 0 0 1-1.498-.266 3.495 3.495 0 0 1-1.19-.756 3.432 3.432 0 0 1-.784-1.176 4.015 4.015 0 0 1-.28-1.526v-.112c0-.569.094-1.083.28-1.54.196-.467.462-.863.798-1.19a3.398 3.398 0 0 1 1.19-.77c.458-.187.957-.28 1.498-.28.532 0 1.027.089 1.484.266a3.39 3.39 0 0 1 1.19.77c.336.327.598.719.784 1.176.196.457.294.966.294 1.526v.112c0 .569-.098 1.087-.294 1.554a3.564 3.564 0 0 1-.784 1.19 3.486 3.486 0 0 1-1.19.756 4.112 4.112 0 0 1-1.498.266Zm9.44 0c-.588 0-1.088-.126-1.498-.378a2.453 2.453 0 0 1-.896-.938v1.176h-1.694v-10.71h1.694v4.564c.102-.177.233-.345.392-.504.158-.159.34-.299.546-.42.214-.121.443-.219.686-.294.242-.075.499-.112.77-.112.457 0 .882.084 1.274.252.401.168.746.411 1.036.728.289.317.518.709.686 1.176.168.457.252.98.252 1.568v.112c0 .588-.084 1.115-.252 1.582a3.45 3.45 0 0 1-.672 1.19c-.28.327-.621.579-1.022.756a3.272 3.272 0 0 1-1.302.252Zm-.42-1.344c.625 0 1.101-.201 1.428-.602.336-.411.504-1.013.504-1.806v-.112c0-.401-.052-.751-.154-1.05a2.098 2.098 0 0 0-.406-.77 1.596 1.596 0 0 0-.616-.448 1.888 1.888 0 0 0-.77-.154c-.588 0-1.074.201-1.456.602-.374.392-.56.999-.56 1.82v.112c0 .821.182 1.428.546 1.82.373.392.868.588 1.484.588Zm5.288-6.118h1.694v7.322h-1.694v-7.322Zm.826-1.204a.996.996 0 0 1-.714-.28.91.91 0 0 1-.294-.686c0-.28.098-.513.294-.7a.996.996 0 0 1 .714-.28c.28 0 .518.093.714.28.196.187.294.42.294.7a.91.91 0 0 1-.294.686.996.996 0 0 1-.714.28Zm3.029-2.184h1.694v10.71h-1.694v-10.71Zm7.034 10.85a4.31 4.31 0 0 1-1.498-.252 3.65 3.65 0 0 1-1.176-.742 3.516 3.516 0 0 1-.77-1.176c-.178-.457-.266-.975-.266-1.554v-.112c0-.569.088-1.083.266-1.54.186-.467.443-.863.77-1.19a3.303 3.303 0 0 1 1.148-.77 3.74 3.74 0 0 1 1.456-.28c.457 0 .891.07 1.302.21.42.14.788.359 1.106.658.317.299.569.681.756 1.148.196.467.294 1.027.294 1.68v.49h-5.362c.028.7.21 1.237.546 1.61.345.373.835.56 1.47.56.513 0 .905-.098 1.176-.294.27-.196.438-.471.504-.826h1.638c-.122.775-.476 1.367-1.064 1.778-.588.401-1.354.602-2.296.602Zm1.708-4.564c-.047-.635-.224-1.097-.532-1.386-.299-.289-.714-.434-1.246-.434-.514 0-.934.163-1.26.49-.327.317-.532.761-.616 1.33h3.654Z"/>
</svg>
