<svg width="30" height="30" viewBox="0 0 30 30" fill="none" xmlns="http://www.w3.org/2000/svg">
<g clip-path="url(#clip0_8795_6967)">
<path d="M15.0011 0C23.2865 0 30.0022 6.71471 30.0022 14.9989C30.0022 23.2831 23.2865 29.9978 15.0011 29.9978C12.5405 29.9978 10.1643 29.4033 8.03459 28.2856L1.6 29.9611C0.918919 30.1384 0.222703 29.7298 0.0454054 29.0488C-0.00864865 28.8391 -0.00864865 28.6164 0.0454054 28.4067L1.71892 21.9752C0.596757 19.8415 0 17.4613 0 14.9989C0 6.71471 6.71567 0 15.0011 0Z" fill="url(#paint0_linear_8795_6967)"/>
<path d="M15.001 24.8375L7.99132 21.0629L5.66699 16.9943L14.0324 5.677H15.9719L24.3373 16.9943L22.0129 21.0629L15.0032 24.8375H15.001ZM14.9989 7.33514L7.84861 17.0051L9.4551 19.6426L14.9989 22.6281L20.5427 19.6426L22.2465 17.0051L14.9989 7.33514Z" fill="white"/>
</g>
<defs>
<linearGradient id="paint0_linear_8795_6967" x1="3.37081" y1="2.31534" x2="20.1675" y2="27.5529" gradientUnits="userSpaceOnUse">
<stop offset="0.11" stop-color="#49009D"/>
<stop offset="0.53" stop-color="#7100EC"/>
<stop offset="0.93" stop-color="#8F00FD"/>
</linearGradient>
<clipPath id="clip0_8795_6967">
<rect width="30" height="30" fill="white"/>
</clipPath>
</defs>
</svg>
