<svg width="24" height="24" viewBox="0 0 24 24" fill="none" xmlns="http://www.w3.org/2000/svg">
<mask id="mask0_5243_8082" style="mask-type:alpha" maskUnits="userSpaceOnUse" x="0" y="0" width="24" height="24">
<rect width="24" height="24" fill="#D9D9D9"/>
</mask>
<g mask="url(#mask0_5243_8082)">
<path d="M17.9615 12.75V11.25H21.577V12.75H17.9615ZM19.1037 19.4808L16.2115 17.3115L17.123 16.1155L20.0152 18.2845L19.1037 19.4808ZM17.0845 7.84627L16.173 6.65002L19.0652 4.48077L19.977 5.67702L17.0845 7.84627ZM5.24997 18.4808V14.577H4.23072C3.73206 14.577 3.30614 14.4004 2.95297 14.047C2.59964 13.6939 2.42297 13.2679 2.42297 12.7693V11.2308C2.42297 10.7321 2.59964 10.3062 2.95297 9.95302C3.30614 9.59969 3.73206 9.42302 4.23072 9.42302H8.09622L12.577 6.75002V17.25L8.09622 14.577H6.74997V18.4808H5.24997ZM11.077 14.5848V9.41527L8.51147 10.923H4.23072C4.15389 10.923 4.08339 10.9551 4.01922 11.0193C3.95506 11.0834 3.92297 11.1539 3.92297 11.2308V12.7693C3.92297 12.8461 3.95506 12.9166 4.01922 12.9808C4.08339 13.0449 4.15389 13.077 4.23072 13.077H8.51147L11.077 14.5848ZM13.9615 15.1193V8.88077C14.3538 9.23594 14.6698 9.68336 14.9095 10.223C15.1493 10.7629 15.2692 11.3552 15.2692 12C15.2692 12.6449 15.1493 13.2372 14.9095 13.777C14.6698 14.3167 14.3538 14.7641 13.9615 15.1193Z" fill="#1C1B1F"/>
</g>
</svg>
