<svg width="22" height="33" viewBox="0 0 22 33" fill="none" xmlns="http://www.w3.org/2000/svg">
<path d="M21.0757 26.712V17.3354C21.0719 17.1086 21.022 16.8849 20.9288 16.6771C20.8355 16.4694 20.7009 16.2817 20.5327 16.1251C20.3645 15.9686 20.166 15.8461 19.9488 15.7649C19.7317 15.6837 19.5001 15.6454 19.2677 15.6522C19.0321 15.6463 18.7977 15.6865 18.5783 15.7705C18.3589 15.8544 18.159 15.9803 17.9904 16.1408C17.8218 16.3013 17.6878 16.4932 17.5965 16.705C17.5052 16.9168 17.4584 17.1444 17.4588 17.3741V21.4216C17.4588 21.4991 17.3793 21.582 17.2943 21.5417C17.2529 21.5417 17.2148 21.4642 17.2148 21.4216V15.8111C17.2157 15.5864 17.1703 15.3638 17.0813 15.1565C16.9923 14.9493 16.8615 14.7615 16.6966 14.6045C16.5317 14.4475 16.3362 14.3244 16.1215 14.2426C15.9069 14.1607 15.6776 14.1217 15.4472 14.128C14.9732 14.1232 14.5167 14.302 14.1777 14.6251C13.8387 14.9482 13.645 15.3892 13.6392 15.8514V21.1813C13.6373 21.2126 13.6237 21.2421 13.601 21.2642C13.5783 21.2864 13.548 21.2996 13.516 21.3015C13.4992 21.3038 13.4822 21.3023 13.4662 21.2971C13.4501 21.2919 13.4355 21.2831 13.4236 21.2714C13.4116 21.2598 13.4026 21.2456 13.3973 21.2299C13.3919 21.2143 13.3904 21.1977 13.3928 21.1813V14.369C13.3932 14.139 13.3463 13.9113 13.2548 13.6993C13.1634 13.4873 13.0292 13.2953 12.8604 13.1348C12.6915 12.9743 12.4913 12.8484 12.2716 12.7646C12.052 12.6808 11.8173 12.6409 11.5815 12.6471C11.1075 12.6423 10.6509 12.8211 10.312 13.1442C9.973 13.4673 9.77933 13.9083 9.77346 14.3705V21.4223C9.77346 21.4998 9.73213 21.5425 9.69398 21.5425C9.61451 21.5828 9.52947 21.5022 9.52947 21.4223V7.39618C9.5236 6.93346 9.32949 6.49197 8.98983 6.16877C8.65017 5.84558 8.19277 5.66716 7.71821 5.67274C7.23999 5.66701 6.77852 5.84426 6.43278 6.16645C6.08704 6.48864 5.88457 6.93011 5.8688 7.39618V23.5859C5.8688 23.6262 5.82748 23.6634 5.78933 23.6262L3.40505 21.4223C3.06593 21.0952 2.60812 20.9116 2.13105 20.9116C1.65397 20.9116 1.19616 21.0952 0.857046 21.4223C0.690978 21.5821 0.559115 21.7724 0.469113 21.9823C0.379111 22.1921 0.332764 22.4173 0.332764 22.6448C0.332764 22.8723 0.379111 23.0975 0.469113 23.3073C0.559115 23.5172 0.690978 23.7075 0.857046 23.8672C2.25423 25.2296 3.61089 26.5927 5.04941 27.955C6.20022 29.0399 7.06332 30.3999 8.37865 31.3213C9.27235 31.9238 10.3337 32.2453 11.4202 32.2427H15.4894C16.9818 32.2289 18.4079 31.6393 19.4554 30.6027C20.503 29.5662 21.0868 28.1672 21.0789 26.712H21.0757Z" fill="black" stroke="white" stroke-width="0.384279"/>
<path d="M10.4255 11.2013C11.0956 10.7263 11.6294 10.0916 11.9759 9.35786C12.3224 8.62413 12.4699 7.81596 12.4044 7.01072C12.3388 6.20548 12.0624 5.43012 11.6016 4.75887C11.1407 4.08761 10.5109 3.54293 9.77234 3.17695C9.0338 2.81098 8.21128 2.63596 7.38351 2.66866C6.55575 2.70137 5.75045 2.94069 5.04469 3.36372C4.33894 3.78675 3.75636 4.37934 3.35272 5.08474C2.94908 5.79015 2.7379 6.58477 2.73938 7.39254C2.7297 8.14943 2.91231 8.89689 3.27092 9.56823C3.62954 10.2396 4.15301 10.8139 4.79463 11.2401V9.91881C4.13106 9.23727 3.76293 8.33228 3.767 7.39254C3.767 6.90311 3.86587 6.41846 4.05797 5.96628C4.25006 5.5141 4.53162 5.10324 4.88656 4.75715C5.2415 4.41107 5.66288 4.13654 6.12663 3.94924C6.59039 3.76194 7.08744 3.66553 7.5894 3.66553C8.09137 3.66553 8.58841 3.76194 9.05217 3.94924C9.51592 4.13654 9.9373 4.41107 10.2922 4.75715C10.6472 5.10324 10.9287 5.5141 11.1208 5.96628C11.3129 6.41846 11.4118 6.90311 11.4118 7.39254C11.4185 8.31275 11.0659 9.20098 10.4255 9.87696V11.2013Z" fill="black" stroke="white" stroke-width="0.384279"/>
<path d="M4.79617 14.047V12.9676C3.59064 12.3963 2.60142 11.4678 1.97018 10.3149C1.33895 9.16204 1.09809 7.84395 1.28209 6.54943C1.46609 5.25492 2.06552 4.05038 2.99452 3.10833C3.92353 2.16629 5.13445 1.53506 6.45387 1.30506C7.77329 1.07506 9.13351 1.25807 10.3397 1.8279C11.546 2.39773 12.5363 3.32513 13.1689 4.4773C13.8015 5.62946 14.044 6.94727 13.8616 8.242C13.6791 9.53672 13.0811 10.7419 12.1533 11.6851C12.5092 11.7657 12.8447 11.9156 13.1396 12.126C14.2975 10.8089 14.9383 9.13371 14.9476 7.39893C14.9501 6.09347 14.5882 4.81197 13.9006 3.69178C13.2131 2.57158 12.2259 1.65492 11.0448 1.04004C9.86378 0.425168 8.53337 0.135253 7.19622 0.201373C5.85906 0.267494 4.56557 0.687157 3.45436 1.41538C2.34316 2.14361 1.45614 3.15295 0.888366 4.33521C0.320597 5.51748 0.0934854 6.82811 0.231371 8.12663C0.369257 9.42516 0.866943 10.6626 1.67109 11.7064C2.47523 12.7502 3.55552 13.5609 4.79617 14.0517V14.047Z" fill="black" stroke="white" stroke-width="0.384279"/>
<path d="M21.0757 26.712V17.3354C21.0719 17.1086 21.022 16.8849 20.9288 16.6771C20.8355 16.4694 20.7009 16.2817 20.5327 16.1251C20.3645 15.9686 20.166 15.8461 19.9488 15.7649C19.7317 15.6837 19.5001 15.6454 19.2677 15.6522C19.0321 15.6463 18.7977 15.6865 18.5783 15.7705C18.3589 15.8544 18.159 15.9803 17.9904 16.1408C17.8218 16.3013 17.6878 16.4932 17.5965 16.705C17.5052 16.9168 17.4584 17.1444 17.4588 17.3741V21.4216C17.4588 21.4991 17.3793 21.582 17.2943 21.5417C17.2529 21.5417 17.2148 21.4642 17.2148 21.4216V15.8111C17.2157 15.5864 17.1703 15.3638 17.0813 15.1565C16.9923 14.9493 16.8615 14.7615 16.6966 14.6045C16.5317 14.4475 16.3362 14.3244 16.1215 14.2426C15.9069 14.1607 15.6776 14.1217 15.4472 14.128C14.9732 14.1232 14.5167 14.302 14.1777 14.6251C13.8387 14.9482 13.645 15.3892 13.6392 15.8514V21.1813C13.6373 21.2126 13.6237 21.2421 13.601 21.2642C13.5783 21.2864 13.548 21.2996 13.516 21.3015C13.4992 21.3038 13.4822 21.3023 13.4662 21.2971C13.4501 21.2919 13.4355 21.2831 13.4236 21.2714C13.4116 21.2598 13.4026 21.2456 13.3973 21.2299C13.3919 21.2143 13.3904 21.1977 13.3928 21.1813V14.369C13.3932 14.139 13.3463 13.9113 13.2548 13.6993C13.1634 13.4873 13.0292 13.2953 12.8604 13.1348C12.6915 12.9743 12.4913 12.8484 12.2716 12.7646C12.052 12.6808 11.8173 12.6409 11.5815 12.6471C11.1075 12.6423 10.6509 12.8211 10.312 13.1442C9.973 13.4673 9.77933 13.9083 9.77346 14.3705V21.4223C9.77346 21.4998 9.73213 21.5425 9.69398 21.5425C9.61451 21.5828 9.52947 21.5022 9.52947 21.4223V7.39618C9.5236 6.93346 9.32949 6.49197 8.98983 6.16877C8.65017 5.84558 8.19277 5.66716 7.71821 5.67274C7.23999 5.66701 6.77852 5.84426 6.43278 6.16645C6.08704 6.48864 5.88457 6.93011 5.8688 7.39618V23.5859C5.8688 23.6262 5.82748 23.6634 5.78933 23.6262L3.40505 21.4223C3.06593 21.0952 2.60812 20.9116 2.13105 20.9116C1.65397 20.9116 1.19616 21.0952 0.857046 21.4223C0.690978 21.5821 0.559115 21.7724 0.469113 21.9823C0.379111 22.1921 0.332764 22.4173 0.332764 22.6448C0.332764 22.8723 0.379111 23.0975 0.469113 23.3073C0.559115 23.5172 0.690978 23.7075 0.857046 23.8672C2.25423 25.2296 3.61089 26.5927 5.04941 27.955C6.20022 29.0399 7.06332 30.3999 8.37865 31.3213C9.27235 31.9238 10.3337 32.2453 11.4202 32.2427H15.4894C16.9818 32.2289 18.4079 31.6393 19.4554 30.6027C20.503 29.5662 21.0868 28.1672 21.0789 26.712H21.0757Z" fill="black" stroke="white" stroke-width="0.384279"/>
<path d="M10.4255 11.2013C11.0956 10.7263 11.6294 10.0916 11.9759 9.35786C12.3224 8.62413 12.4699 7.81596 12.4044 7.01072C12.3388 6.20548 12.0624 5.43012 11.6016 4.75887C11.1407 4.08761 10.5109 3.54293 9.77234 3.17695C9.0338 2.81098 8.21128 2.63596 7.38351 2.66866C6.55575 2.70137 5.75045 2.94069 5.04469 3.36372C4.33894 3.78675 3.75636 4.37934 3.35272 5.08474C2.94908 5.79015 2.7379 6.58477 2.73938 7.39254C2.7297 8.14943 2.91231 8.89689 3.27092 9.56823C3.62954 10.2396 4.15301 10.8139 4.79463 11.2401V9.91881C4.13106 9.23727 3.76293 8.33228 3.767 7.39254C3.767 6.90311 3.86587 6.41846 4.05797 5.96628C4.25006 5.5141 4.53162 5.10324 4.88656 4.75715C5.2415 4.41107 5.66288 4.13654 6.12663 3.94924C6.59039 3.76194 7.08744 3.66553 7.5894 3.66553C8.09137 3.66553 8.58841 3.76194 9.05217 3.94924C9.51592 4.13654 9.9373 4.41107 10.2922 4.75715C10.6472 5.10324 10.9287 5.5141 11.1208 5.96628C11.3129 6.41846 11.4118 6.90311 11.4118 7.39254C11.4185 8.31275 11.0659 9.20098 10.4255 9.87696V11.2013Z" fill="black" stroke="white" stroke-width="0.384279"/>
<path d="M4.79617 14.047V12.9676C3.59064 12.3963 2.60142 11.4678 1.97018 10.3149C1.33895 9.16204 1.09809 7.84395 1.28209 6.54943C1.46609 5.25492 2.06552 4.05038 2.99452 3.10833C3.92353 2.16629 5.13445 1.53506 6.45387 1.30506C7.77329 1.07506 9.13351 1.25807 10.3397 1.8279C11.546 2.39773 12.5363 3.32513 13.1689 4.4773C13.8015 5.62946 14.044 6.94727 13.8616 8.242C13.6791 9.53672 13.0811 10.7419 12.1533 11.6851C12.5092 11.7657 12.8447 11.9156 13.1396 12.126C14.2975 10.8089 14.9383 9.13371 14.9476 7.39893C14.9501 6.09347 14.5882 4.81197 13.9006 3.69178C13.2131 2.57158 12.2259 1.65492 11.0448 1.04004C9.86378 0.425168 8.53337 0.135253 7.19622 0.201373C5.85906 0.267494 4.56557 0.687157 3.45436 1.41538C2.34316 2.14361 1.45614 3.15295 0.888366 4.33521C0.320597 5.51748 0.0934854 6.82811 0.231371 8.12663C0.369257 9.42516 0.866943 10.6626 1.67109 11.7064C2.47523 12.7502 3.55552 13.5609 4.79617 14.0517V14.047Z" fill="black" stroke="white" stroke-width="0.384279"/>
</svg>
