<svg width="24" height="24" viewBox="0 0 24 24" fill="none" xmlns="http://www.w3.org/2000/svg">
<path d="M12 2.15039C13.3623 2.14908 14.6424 2.4076 15.8408 2.92578C17.0421 3.44526 18.0841 4.1473 18.9688 5.03125C19.8533 5.91518 20.5557 6.95725 21.0752 8.15918C21.5934 9.35823 21.8516 10.6384 21.8496 12C21.8476 13.3618 21.5892 14.6416 21.0742 15.8408C20.5581 17.0427 19.856 18.0848 18.9688 18.9688C18.0813 19.8529 17.0386 20.5551 15.8398 21.0752C14.6444 21.5939 13.3649 21.8522 12 21.8496C10.6362 21.8496 9.35626 21.5914 8.15918 21.0752C6.95932 20.5577 5.91723 19.8554 5.03125 18.9688C4.14525 18.0821 3.44323 17.04 2.92578 15.8408C2.40957 14.6444 2.15106 13.3645 2.15039 12C2.14973 10.6356 2.40829 9.35552 2.92578 8.15918C3.44457 6.95996 4.14659 5.91791 5.03125 5.03125C5.91586 4.14467 6.95798 3.44256 8.15918 2.92578C9.35767 2.41018 10.6375 2.15172 12 2.15039ZM12 3.84961C9.72773 3.84961 7.79747 4.64003 6.21875 6.21875C4.64003 7.79747 3.84961 9.72773 3.84961 12C3.84961 14.2723 4.64003 16.2025 6.21875 17.7812C7.79747 19.36 9.72773 20.1504 12 20.1504C14.2723 20.1504 16.2025 19.36 17.7812 17.7812C19.36 16.2025 20.1504 14.2723 20.1504 12C20.1504 9.72773 19.36 7.79747 17.7812 6.21875C16.2025 4.64003 14.2723 3.84961 12 3.84961ZM11.9502 15.6504C12.2626 15.6492 12.52 15.7545 12.7314 15.9678C12.9435 16.1817 13.0491 16.4393 13.0498 16.75C13.0504 17.0603 12.9455 17.3181 12.7324 17.5312C12.5193 17.7444 12.2613 17.8496 11.9502 17.8496C11.6419 17.8496 11.3844 17.7443 11.1689 17.5312C10.9544 17.319 10.8479 17.0622 10.8496 16.751C10.8514 16.4384 10.9578 16.1805 11.1689 15.9688C11.3798 15.7573 11.6372 15.6517 11.9502 15.6504ZM12.0996 6.15039C13.0045 6.15039 13.7815 6.39183 14.4365 6.87109C15.0768 7.33965 15.4004 8.00926 15.4004 8.90039C15.4003 9.42621 15.2808 9.86773 15.0488 10.2314C14.8067 10.6111 14.4735 11.0145 14.0469 11.4414C13.4644 11.9913 13.087 12.4443 12.9482 12.7949C12.8254 13.1055 12.7654 13.5096 12.7549 14H11.2021C11.2113 13.2008 11.2939 12.6729 11.4346 12.3916C11.5087 12.2436 11.6516 12.0496 11.873 11.8076C12.0926 11.5678 12.3825 11.2864 12.7451 10.9648L12.7461 10.9658C13.0556 10.7086 13.3149 10.4275 13.5234 10.123C13.7394 9.80771 13.8496 9.46511 13.8496 9.09961C13.8495 8.70814 13.6992 8.35264 13.4111 8.03711C13.1071 7.70423 12.6597 7.5498 12.0996 7.5498C11.471 7.54988 10.9763 7.73479 10.6475 8.12891C10.3955 8.43096 10.2133 8.72219 10.1074 9.00195L8.74121 8.46387C8.97246 7.84835 9.35171 7.31498 9.88477 6.86426C10.4432 6.39213 11.177 6.15046 12.0996 6.15039Z" fill="black" stroke="white" stroke-width="0.3"/>
</svg>
