<svg width="32" height="33" viewBox="0 0 32 33" fill="none" xmlns="http://www.w3.org/2000/svg">
<g id="game-icons:honeycomb">
<path id="Vector" opacity="0.5" d="M28.2168 4L23.828 4.00781L23.4862 4.00594L23.3164 4.29688L21.1699 7.97656L17.4902 7.98438L15.5409 4.64844L15.3768 4.35344L15.0351 4.34969L10.6465 4.35744L10.3027 4.35544L10.1347 4.64644L8.00972 8.29094L3.91209 8.29875L3.57022 8.29688L3.40034 8.58787L1.20703 12.3496L1.03903 12.6406L1.21278 12.9336L3.15816 16.2636L1.04878 19.8848L0.878906 20.1758L1.05278 20.4688L3.24809 24.2246L3.41016 24.5215L3.75391 24.5234L7.99216 24.5156L9.93153 27.83L10.0937 28.1269L10.4375 28.1289L14.6621 28.1211L16.6113 31.4571L16.7754 31.7519L17.1173 31.7559L21.5059 31.7481L21.8379 31.7539L22.0079 31.4629L24.1426 27.8144L28.2403 27.8067L28.5723 27.8126L28.7403 27.5216L30.9453 23.7559L31.1133 23.4649L30.9396 23.1719L28.7442 19.4161L28.5821 19.1211L28.2383 19.1173L24.0138 19.1251L22.3144 16.2188L24.3732 12.6973L28.2188 12.6895L28.5508 12.6954L28.7188 12.4044L30.9219 8.63881L31.0919 8.34775L30.918 8.05475L28.7227 4.29888L28.5606 4.004L28.2168 4.00012L28.2168 4ZM27.8827 5.166L29.7265 8.35938L27.8808 11.5274L24.164 11.5332L22.3124 8.35162L24.1659 5.17L27.8827 5.166ZM7.96678 9.457L9.81053 12.6504L7.96478 15.8184L4.24791 15.8243L2.39641 12.6426L4.24991 9.461L7.96678 9.45706V9.457ZM14.6483 13.082L16.4315 16.1757L14.5331 19.4336L10.9218 19.4394L9.07809 16.2696L10.9316 13.0879L14.6485 13.0821L14.6483 13.082ZM21.2304 16.666L23.0663 19.8496L21.2206 23.0196L17.5039 23.0234L15.7089 19.9394L17.6191 16.6719L21.2304 16.666ZM27.9042 20.2832L29.7479 23.4766L27.9023 26.6446L24.1854 26.6485L22.3339 23.4688L24.1874 20.2871L27.9043 20.2832H27.9042ZM14.496 20.6076L16.3339 23.793L14.4883 26.961L10.7714 26.9649L8.91984 23.7833L10.7673 20.6134L14.4959 20.6076H14.496Z" fill="url(#paint0_linear_2245_17833)"/>
</g>
<defs>
<linearGradient id="paint0_linear_2245_17833" x1="9.70858" y1="4" x2="24.3737" y2="4.24688" gradientUnits="userSpaceOnUse">
<stop stop-color="#A72DD4"/>
<stop offset="1" stop-color="#68DBBA"/>
</linearGradient>
</defs>
</svg>
