<?xml version="1.0" encoding="utf-8"?>
<!-- Generator: Adobe Illustrator 25.2.1, SVG Export Plug-In . SVG Version: 6.00 Build 0)  -->
<svg version="1.1" id="Layer_1" xmlns="http://www.w3.org/2000/svg" xmlns:xlink="http://www.w3.org/1999/xlink" x="0px" y="0px"
	 viewBox="0 0 87.7 23.1" style="enable-background:new 0 0 87.7 23.1;" xml:space="preserve">
<style type="text/css">
	.st0{fill:#FFFFFF;}
</style>
<g id="Group_101761" transform="translate(-80.58 -146.475)">
	<path id="Path_40442" class="st0" d="M131.7,152.9l5-1.9l-5-2v-2.6l8.6,3.5v2.2l-8.6,3.5V152.9z"/>
	<path id="Path_40443" class="st0" d="M83.9,169.6c-1.8,0-3.3-0.9-3.3-3v-0.1c0-2.5,2.1-3.3,4.8-3.3h1.3v-0.5c0-1-0.4-1.6-1.5-1.6
		c-0.8-0.1-1.4,0.5-1.5,1.2c0,0,0,0.1,0,0.1h-2.7c0.2-2.2,2-3.3,4.4-3.3s4.2,1,4.2,3.6v6.8h-2.8v-1.2C86,169.1,85,169.6,83.9,169.6z
		 M86.6,166v-1h-1.1c-1.4,0-2.1,0.4-2.1,1.3v0.1c0,0.7,0.4,1.2,1.4,1.2c0.9,0.1,1.7-0.5,1.8-1.4C86.6,166.1,86.6,166.1,86.6,166
		L86.6,166z M95.8,169.6c-2.8,0-4.8-1.7-4.8-5.2v-0.1c0-3.4,2.1-5.2,4.8-5.2c2.3,0,4.2,1.2,4.4,3.8h-2.7c-0.2-1-0.7-1.6-1.7-1.6
		c-1.2,0-2,0.9-2,2.9v0.3c0,2.1,0.7,3,2.1,3c1,0,1.8-0.8,1.8-1.8h2.6c-0.1,2.3-2,4-4.2,4C96,169.6,95.9,169.6,95.8,169.6L95.8,169.6
		z M106.4,169.6c-2.8,0-4.8-1.7-4.8-5.2v-0.1c0-3.4,2.1-5.2,4.8-5.2c2.3,0,4.2,1.2,4.4,3.8h-2.7c-0.2-1-0.7-1.6-1.7-1.6
		c-1.2,0-2,0.9-2,2.9v0.3c0,2.1,0.7,3,2.1,3c1,0,1.8-0.8,1.8-1.8h2.6c-0.1,2.3-2,4-4.2,4C106.5,169.6,106.5,169.6,106.4,169.6
		L106.4,169.6z M117,169.6c-2.9,0-4.9-1.7-4.9-5.1v-0.2c0-3.4,2.1-5.2,4.8-5.2c2.5,0,4.6,1.4,4.6,4.8v1.2h-6.6
		c0.1,1.8,0.9,2.5,2.1,2.5c0.9,0.1,1.7-0.5,1.9-1.3h2.6C121.2,168.1,119.6,169.6,117,169.6L117,169.6z M114.9,163.1h3.8
		c-0.1-1.5-0.7-2.1-1.9-2.1C116,161,115.2,161.5,114.9,163.1L114.9,163.1z M123.2,159.3h2.8v1.5c0.6-1.1,1.8-1.8,3.1-1.7
		c1.8,0,3.1,1.1,3.1,3.6v6.8h-2.8V163c0-1.2-0.5-1.7-1.5-1.7c-0.9-0.1-1.7,0.7-1.8,1.6c0,0.1,0,0.2,0,0.3v6.2h-2.8L123.2,159.3z
		 M137.5,156.2v3.1h1.9v2.1h-1.9v4.8c0,0.8,0.3,1.1,1,1.1c0.3,0,0.7,0,1-0.2v2.2c-0.5,0.1-1.1,0.2-1.6,0.2c-2.2,0-3.2-1-3.2-3.1
		v-5.1h-1.2v-2.1h1.2v-1.9L137.5,156.2z M150,169.4h-2.8v-1.5c-0.6,1.1-1.7,1.8-2.9,1.7c-1.8,0-3.2-1.1-3.2-3.5v-6.8h2.8v6.5
		c0,1.2,0.5,1.7,1.5,1.7c0.9,0,1.7-0.7,1.8-1.6c0-0.1,0-0.2,0-0.3v-6.3h2.8L150,169.4z M152.1,159.3h2.8v1.9c0.5-1.3,1.7-2.1,3-2
		v2.8c-1.9,0-3,0.6-3,2.3v5.2h-2.8L152.1,159.3z M163.8,169.6c-2.9,0-4.9-1.7-4.9-5.1v-0.2c0-3.4,2.1-5.2,4.8-5.2
		c2.5,0,4.6,1.4,4.6,4.8v1.2h-6.6c0.1,1.8,0.9,2.5,2.1,2.5c0.9,0.1,1.7-0.5,1.9-1.3h2.6C168,168.1,166.5,169.6,163.8,169.6
		L163.8,169.6z M161.8,163.1h3.8c-0.1-1.5-0.7-2.1-1.9-2.1C162.8,161,162,161.5,161.8,163.1L161.8,163.1z"/>
</g>
</svg>
