<svg xmlns="http://www.w3.org/2000/svg" width="87.738" height="23.126" viewBox="0 0 87.738 23.126">
  <g id="Group_11229" data-name="Group 11229" transform="translate(-80.581 -146.475)">
    <path id="Path_40442" data-name="Path 40442" d="M325.37,287.952l5.048-1.876L325.37,284.1V281.49l8.65,3.484v2.167l-8.65,3.5Z" transform="translate(-193.657 -135.015)" fill="#a100ff"/>
    <path id="Path_40443" data-name="Path 40443" d="M233.588,312.977c-1.817,0-3.328-.93-3.328-2.978v-.118c0-2.495,2.15-3.312,4.779-3.312H236.3v-.484c0-1.005-.446-1.613-1.489-1.613a1.387,1.387,0,0,0-1.527,1.317h-2.688c.194-2.247,1.973-3.349,4.371-3.349s4.183,1.043,4.183,3.559v6.774h-2.79v-1.161A3.226,3.226,0,0,1,233.588,312.977Zm2.688-3.58v-.989h-1.1c-1.392,0-2.107.387-2.107,1.3v.1c0,.7.425,1.183,1.376,1.183A1.658,1.658,0,0,0,236.3,309.4Zm9.231,3.58c-2.806,0-4.839-1.742-4.839-5.167v-.134c0-3.425,2.15-5.242,4.839-5.242,2.3,0,4.2,1.161,4.43,3.812h-2.688c-.172-.984-.677-1.613-1.667-1.613-1.2,0-2.032.946-2.032,2.941v.3c0,2.054.736,2.978,2.054,2.978a1.9,1.9,0,0,0,1.839-1.817h2.57a4.1,4.1,0,0,1-4.484,3.946Zm10.526,0c-2.806,0-4.839-1.742-4.839-5.167v-.134c0-3.425,2.15-5.242,4.839-5.242,2.3,0,4.2,1.161,4.43,3.812h-2.688c-.172-.984-.677-1.613-1.667-1.613-1.2,0-2.032.946-2.032,2.941v.3c0,2.054.737,2.978,2.054,2.978a1.9,1.9,0,0,0,1.839-1.817h2.575a4.1,4.1,0,0,1-4.484,3.946Zm10.607,0c-2.925,0-4.914-1.742-4.914-5.107v-.194c0-3.387,2.107-5.242,4.839-5.242,2.516,0,4.623,1.414,4.623,4.758v1.215h-6.575c.118,1.817.892,2.516,2.107,2.516a1.747,1.747,0,0,0,1.86-1.317h2.613c-.312,1.919-1.876,3.371-4.516,3.371Zm-2.011-6.451h3.8c-.059-1.489-.737-2.15-1.86-2.15-.871.032-1.683.516-1.914,2.161Zm8.285-3.887h2.823v1.511a3.3,3.3,0,0,1,3.059-1.72c1.839,0,3.059,1.1,3.059,3.559v6.774h-2.812v-6.344c0-1.183-.484-1.7-1.511-1.7a1.693,1.693,0,0,0-1.78,1.876v6.172H272.93Zm14.225-3.059v3.059h1.935v2.108h-1.935v4.8c0,.753.349,1.1,1.005,1.1a2.434,2.434,0,0,0,.984-.172v2.231a5.773,5.773,0,0,1-1.613.215c-2.2,0-3.226-1.005-3.226-3.059v-5.113h-1.183v-2.107h1.183v-1.9Zm12.58,13.177h-2.828v-1.489a3.086,3.086,0,0,1-2.941,1.7c-1.817,0-3.156-1.1-3.156-3.484v-6.844h2.844V309.1c0,1.161.462,1.7,1.473,1.7a1.7,1.7,0,0,0,1.779-1.876v-6.279h2.828Zm2.054-10.123H304.6v1.855a3.021,3.021,0,0,1,3.038-1.995v2.785c-1.914,0-3.038.581-3.038,2.263v5.2h-2.823Zm11.677,10.344c-2.925,0-4.914-1.742-4.914-5.107v-.194c0-3.387,2.107-5.242,4.839-5.242,2.516,0,4.623,1.414,4.623,4.758v1.215h-6.586c.118,1.817.892,2.516,2.107,2.516a1.747,1.747,0,0,0,1.86-1.317h2.613C317.681,311.526,316.138,312.977,313.45,312.977Zm-2.011-6.451h3.8c-.059-1.489-.737-2.15-1.86-2.15-.882.032-1.693.516-1.925,2.161Z" transform="translate(-149.679 -143.38)"/>
  </g>
</svg>
