<svg xmlns="http://www.w3.org/2000/svg" width="24" height="24" fill="none" viewBox="0 0 24 24">
  <path fill="#000" fill-rule="evenodd" d="M21.361 12.777a.255.255 0 0 0 .207.07h.209a.422.422 0 0 0 .208-.419v-2.93a.529.529 0 0 0-.139-.278L12.27 2.105a.332.332 0 0 0-.486 0L2.21 9.22a.373.373 0 0 0-.21.279v2.93a.47.47 0 0 0 .278.418.325.325 0 0 0 .416-.07l.99-.73v9.107H2.418a.452.452 0 0 0-.417.422.402.402 0 0 0 .417.42h19.15a.372.372 0 0 0 .403-.251.37.37 0 0 0 .015-.17.404.404 0 0 0-.417-.421h-1.222v-9.13l1.015.753ZM2.833 9.708l9.16-6.766 9.16 6.766v1.953l-.82-.61a.387.387 0 0 0-.402-.333c-.011 0-.022.007-.033.008l-7.627-5.69a.333.333 0 0 0-.486 0l-7.678 5.683h-.005a.447.447 0 0 0-.387.291l-.882.653V9.708Zm8.535 7.736-3.53 3.22v-6.458l3.53 3.238Zm4.04 3.71h-6.83l3.415-3.136 3.416 3.136Zm-2.789-3.71 3.528-3.238v6.458l-3.528-3.22Zm-.626-.571L8.47 13.657h7.046l-3.523 3.216Zm7.521 4.28h-2.536V13.24a.401.401 0 0 0-.416-.417H7.425a.449.449 0 0 0-.416.417v7.914h-2.49v-9.722l7.543-5.56 7.453 5.534v9.748ZM9.91 9.478a2.088 2.088 0 0 0 2.083 2.082 2.046 2.046 0 0 0 2.083-2.082 2.088 2.088 0 0 0-2.083-2.083A2.136 2.136 0 0 0 9.91 9.477Zm3.333 0a1.25 1.25 0 0 1-2.5 0 1.25 1.25 0 0 1 2.5 0Z" clip-rule="evenodd"/>
</svg>
