<svg xmlns="http://www.w3.org/2000/svg" width="24" height="24" fill="none" viewBox="0 0 24 24">
  <path fill="#000" fill-rule="evenodd" d="M8.316 19.948a.446.446 0 0 1-.414.416A2.923 2.923 0 0 1 5 17.454V6.648A2.879 2.879 0 0 1 7.902 3.74h5.7a216.15 216.15 0 0 0-1.015-1.008.388.388 0 0 1 0-.627.427.427 0 0 1 .559 0l1.681 1.672a.396.396 0 0 1 .057.566.478.478 0 0 1-.157.16l-1.582 1.575a.364.364 0 0 1-.28.14.53.53 0 0 1-.28-.14.388.388 0 0 1 0-.627l.93-.878H7.902A2.04 2.04 0 0 0 5.831 6.65v10.806a2.083 2.083 0 0 0 2.072 2.079.399.399 0 0 1 .413.413ZM17.042 3.74a.398.398 0 0 0-.413.416.446.446 0 0 0 .413.415 2.04 2.04 0 0 1 2.073 2.078v10.806a2.083 2.083 0 0 1-2.072 2.078h-5.66l.93-.979a.384.384 0 0 0 0-.62.417.417 0 0 0-.551 0l-1.652 1.654a.387.387 0 0 0-.012.61.57.57 0 0 0 .065.065l1.599 1.6a.516.516 0 0 0 .275.138.357.357 0 0 0 .275-.138.385.385 0 0 0 0-.62l-.875-.876h5.605a2.922 2.922 0 0 0 2.9-2.91V6.65a2.877 2.877 0 0 0-2.9-2.911Zm-1.669 13.262H9.57a.445.445 0 0 1-.413-.414v-7.46a.398.398 0 0 1 .413-.414h1.244V7.469a.398.398 0 0 1 .415-.414h2.486a.397.397 0 0 1 .415.414v1.244h1.243a.398.398 0 0 1 .414.414v7.46a.446.446 0 0 1-.416.415h.002Zm-.414-7.46h-1.243a.446.446 0 0 1-.414-.414V7.883h-1.659v1.244a.445.445 0 0 1-.413.414H9.986v6.633h4.974V9.541Zm-1.385.57a.326.326 0 0 0-.559 0l-2.087 2.003a.656.656 0 0 0-.139.484.573.573 0 0 0 .418.276h1.53l-1.391 1.382a.321.321 0 0 0-.114.435.32.32 0 0 0 .114.117.53.53 0 0 0 .278.139.366.366 0 0 0 .28-.139l2.085-2.072a.423.423 0 0 0 .14-.484.498.498 0 0 0-.418-.207H12.25l1.32-1.382a.323.323 0 0 0 .004-.552Z" clip-rule="evenodd"/>
</svg>
