<svg xmlns="http://www.w3.org/2000/svg" width="24" height="24" fill="none" viewBox="0 0 24 24">
  <path fill="#000" fill-rule="evenodd" d="M21.16 14.5V7.002H2.83V14.5h1.666l.833-4.582a.448.448 0 0 1 .417-.417h12.497a.448.448 0 0 1 .416.417l.834 4.582h1.666Zm.833.417c0 .21 0 .21-.21.21 0 .21 0 .21-.21.21h-2.5a.448.448 0 0 1-.416-.417l-.834-4.582H6.165l-.833 4.582a.448.448 0 0 1-.416.417h-2.5A.447.447 0 0 1 2 14.92V6.586c0-.21 0-.21.21-.21 0-.21 0-.21.21-.21h5.83l.834-3.75a.417.417 0 1 1 .834 0l-.834 3.75h5.832l-.834-3.75a.417.417 0 0 1 .834 0l.833 3.75h5.832a.448.448 0 0 1 .416.417l-.004 8.334ZM11.995 3.669a.448.448 0 0 0 .417-.416V2.42a.416.416 0 0 0-.833 0v.833a.448.448 0 0 0 .416.416Zm0 8.332a.448.448 0 0 0-.416.417v2.499a.416.416 0 0 0 .833 0v-2.502a.448.448 0 0 0-.417-.414Zm0 5.832a.448.448 0 0 0-.416.416v3.333a.416.416 0 0 0 .833 0V18.25a.447.447 0 0 0-.417-.416Zm4.165-6.664a.448.448 0 0 0-.416.417l1.667 9.997a.417.417 0 1 0 .833 0l-1.667-9.997a.447.447 0 0 0-.416-.418v.001Zm-7.915.417L6.58 21.583a.417.417 0 1 1-.833 0l1.666-9.997a.417.417 0 1 1 .833 0Z" clip-rule="evenodd"/>
</svg>
