<svg xmlns="http://www.w3.org/2000/svg" width="24" height="24" fill="none" viewBox="0 0 24 24">
  <path fill="#000" fill-rule="evenodd" d="M15.878 12.822H7.721v4.575c.37.23.789.373 1.223.416a3.127 3.127 0 0 0 2.651-1.455.423.423 0 0 1 .816 0 3.002 3.002 0 0 0 2.447 1.455c.354.055.716-.02 1.021-.208v-4.783Zm-8.973-.832V8.454a9.424 9.424 0 0 1-2.243 3.536h2.243Zm.816 0h2.242A9.415 9.415 0 0 1 7.72 8.454v3.536Zm.203-6.24c.204 1.873 1.02 4.992 3.671 6.24h.409c2.65-1.248 3.466-4.367 3.67-6.24-.816.832-2.04 2.08-3.874 2.08-1.835 0-3.06-1.248-3.876-2.08Zm7.954 2.704a9.43 9.43 0 0 1-2.243 3.536h2.243V8.454Zm.816 0v3.536h2.242a9.415 9.415 0 0 1-2.242-3.536Zm0 4.368v4.367c.334-.208.614-.493.816-.831.204-.417.61-.417.61 0 .206 0 1.225 1.663 3.06 1.455.204-.208.408 0 .408.209 0 .208 0 .415-.408.623-1.631.208-2.651-.831-3.263-1.456a3.937 3.937 0 0 1-3.06 1.456 3.485 3.485 0 0 1-2.854-1.456 3.611 3.611 0 0 1-3.06 1.456c-1.43 0-2.446-1.04-2.855-1.456-.611.416-1.631 1.456-3.059 1.456h-.612c-.204-.208-.407-.416-.407-.623 0-.208.203-.209.407-.209 1.836.416 3.264-1.663 3.264-1.663a.5.5 0 0 1 .815.208s0 .208.409.415v-3.951H2.417a.416.416 0 0 1 0-.832h.612c2.856-1.456 3.468-4.784 3.875-6.655-.204 0-.204.208-.408.208-.204.208-.204.416-.408.416l-.204.208a.71.71 0 0 1-.408.207c-.205.208-.409.208-.612.416H4.66c-.204.208-.408.208-.612.416a.74.74 0 0 0-.611.209h-1.02a.416.416 0 0 1 0-.833c2.243 0 4.079-2.08 4.487-2.703V2.423a.408.408 0 1 1 .816 0v1.456c.203.624 1.835 3.12 4.076 3.12 2.448 0 3.875-2.496 4.079-3.12V2.423a.408.408 0 1 1 .816 0v1.456c.407.624 2.242 2.703 4.487 2.703a.416.416 0 1 1 0 .833c-1.836 0-3.467-1.248-4.283-2.08.204 1.871.816 5.2 3.67 6.655h.613a.415.415 0 0 1 0 .832h-4.484Zm4.894 8.527c0 .208 0 .416-.408.624-1.631.208-2.651-.832-3.263-1.456a3.937 3.937 0 0 1-3.06 1.456 3.485 3.485 0 0 1-2.854-1.456 3.611 3.611 0 0 1-3.06 1.456c-1.43 0-2.446-1.04-2.855-1.456-.611.416-1.631 1.456-3.059 1.456h-.612c-.204-.208-.407-.416-.407-.624 0-.208.203-.208.407-.208 1.836.416 3.264-1.664 3.264-1.664a.5.5 0 0 1 .815.208 3.002 3.002 0 0 0 2.447 1.456 3.127 3.127 0 0 0 2.652-1.456.424.424 0 0 1 .815 0 3.002 3.002 0 0 0 2.448 1.456 3.128 3.128 0 0 0 2.652-1.456c.204-.416.61-.416.61 0 .206 0 1.225 1.664 3.06 1.456.205-.208.407 0 .407.208Z" clip-rule="evenodd"/>
</svg>
