<svg xmlns="http://www.w3.org/2000/svg" width="24" height="24" fill="none" viewBox="0 0 24 24">
  <path fill="#000" fill-rule="evenodd" d="M21.472 10.478a4.25 4.25 0 0 0-2.095-3.723 4.376 4.376 0 0 0-4.26-.07l-1.203.677v-.548a1.742 1.742 0 0 0-.276-.967l3.16-3.176a.432.432 0 0 0 0-.565.523.523 0 0 0-.633 0l-3.217 3.169a1.793 1.793 0 0 0-.712-.145c-.235 0-.468.05-.683.145L8.4 2.106a.523.523 0 0 0-.631 0 .43.43 0 0 0 0 .565l3.117 3.136a1.675 1.675 0 0 0-.328 1.008v.489l-1.104-.617a4.419 4.419 0 0 0-4.28.07A4.31 4.31 0 0 0 3 10.48c0 2.67 1.824 3.582 4.632 4.986h.07a3.387 3.387 0 0 0-2.107 3.09 3.282 3.282 0 0 0 3.298 3.443 3.512 3.512 0 0 0 2.666-1.194c.307-.34.55-.73.72-1.156.182.423.432.814.74 1.156A3.45 3.45 0 0 0 15.603 22a3.288 3.288 0 0 0 3.352-3.443 3.386 3.386 0 0 0-2.096-3.09h.07c2.798-1.406 4.543-2.32 4.543-4.988Zm-9.236 6.424a.903.903 0 0 1-.838-.84v-1.673h1.677v1.672a.85.85 0 0 1-.839.844v-.003Zm-.838-5.017h1.677v1.653h-1.677v-1.653Zm1.677-.85h-1.677V9.333h1.677v1.7Zm-.348-4.92.004.007.014.008a.823.823 0 0 1 .33.681v1.673h-1.677v-.167l.024-.02a.573.573 0 0 0-.024-.391V6.811a.822.822 0 0 1 .25-.59.52.52 0 0 0 .103-.086.839.839 0 0 1 .976-.018v-.002ZM10.93 20.238a2.88 2.88 0 0 1-2.035.914 2.529 2.529 0 0 1 .07-5.057.446.446 0 0 0 .421-.352c.07-.21-.07-.35-.21-.491-.422-.21-.843-.422-1.194-.563-2.736-1.404-4.14-2.036-4.14-4.214a3.543 3.543 0 0 1 1.754-3.02 3.355 3.355 0 0 1 3.44 0l1.523.822v7.786a1.706 1.706 0 0 0 1.273 1.624 3.979 3.979 0 0 1-.902 2.554v-.003Zm4.256-4.495a.392.392 0 0 0 .419.352 2.453 2.453 0 0 1 2.514 2.458 2.48 2.48 0 0 1-2.514 2.599 2.833 2.833 0 0 1-1.953-.914 4.092 4.092 0 0 1-.966-2.56 1.655 1.655 0 0 0 1.229-1.617V8.337l1.622-.88a3.324 3.324 0 0 1 3.422 0 3.48 3.48 0 0 1 1.676 3.021c0 2.178-1.327 2.81-4.05 4.215-.35.14-.77.351-1.187.562-.212.14-.282.28-.212.49v-.002Zm-7.58-7.26a2.12 2.12 0 0 0-2.103 2.126 2.167 2.167 0 0 0 2.103 2.126 2.121 2.121 0 0 0 2.102-2.126 2.076 2.076 0 0 0-2.102-2.123v-.002Zm0 3.402a1.276 1.276 0 1 1 0-2.551 1.276 1.276 0 0 1 0 2.55Zm9.26.85a2.12 2.12 0 0 0 2.101-2.126 2.075 2.075 0 0 0-2.102-2.125 2.12 2.12 0 0 0-2.102 2.125 2.168 2.168 0 0 0 2.102 2.129v-.003Zm0-3.401a1.275 1.275 0 1 1 0 2.55 1.275 1.275 0 0 1 0-2.55Z" clip-rule="evenodd"/>
</svg>
