<svg xmlns="http://www.w3.org/2000/svg" width="24" height="24" fill="none" viewBox="0 0 24 24">
  <path fill="#000" fill-rule="evenodd" d="M9.343 17.832h4.899v3.333h-4.9v-3.333Zm-3.676-2.709 2.248 1.873H4.444l1.223-1.873Zm1.43-2.291h1.429v3.751l-2.45-2.291 1.02-1.46Zm0-5.834 1.429-1.25v1.25h-1.43ZM8.525 2.83v1.25l-1.43-1.25h1.43Zm6.533 1.25V2.83h1.43l-1.43 1.25Zm0 2.917v-1.25l1.43 1.25h-1.43Zm2.45 7.291-2.45 2.294v-3.751h1.43l1.02 1.457Zm-1.838 2.709 2.248-1.873 1.225 1.873H15.67Zm-3.878-1.458 1.837 1.458H9.955l1.838-1.458Zm-.613-.626L9.341 16.58v-3.333l1.838 1.666Zm0-5L9.341 11.58V8.248l1.838 1.667Zm-.409-2.916H9.342v-1.25l1.43 1.25ZM9.342 4.08V2.83h1.43l-1.43 1.25Zm3.47-1.25h1.43v1.25l-1.43-1.25Zm-1.02 3.96L9.544 4.919l2.248-1.873 2.248 1.873-2.248 1.874Zm1.02.209 1.43-1.25V7h-1.43Zm.817.833-1.838 1.459-1.837-1.459h3.675Zm-1.225 2.084 1.837-1.667v3.333l-1.837-1.666Zm1.837 3.333v3.333l-1.837-1.666 1.837-1.667ZM9.954 12l1.838-1.458L13.63 12H9.954Zm3.675.833-1.838 1.458-1.837-1.458h3.675Zm7.555 8.334h-6.125v-3.334h4.9c.205 0 .205 0 .409-.208v-.417l-3.265-5C16.9 12 16.9 12 16.694 12H15.06V7.833h2.45a.707.707 0 0 0 .409-.208.777.777 0 0 0-.204-.625l-2.45-2.083 2.45-2.084a.775.775 0 0 0 .204-.625A.707.707 0 0 0 17.51 2H6.076a.707.707 0 0 0-.409.208.776.776 0 0 0 .204.625l2.45 2.084L5.872 7a.777.777 0 0 0-.204.625c.11.113.253.186.409.208h2.45V12H6.892c-.204 0-.204 0-.409.209l-3.264 5v.416c.204.209.204.208.408.208h4.9v3.334H2.402a.416.416 0 0 0 0 .833h18.785a.417.417 0 0 0 0-.833h-.003Z" clip-rule="evenodd"/>
</svg>
