<svg xmlns="http://www.w3.org/2000/svg" width="24" height="24" fill="none" viewBox="0 0 24 24">
  <path fill="#000" fill-rule="evenodd" d="M21.384 13.865a.389.389 0 0 1-.14.56l-1.256.713 1.117.64a.362.362 0 0 1 .208.407.363.363 0 0 1-.07.148.38.38 0 0 1-.345.208.254.254 0 0 1-.208-.07l-1.05-.599v1.562a.403.403 0 0 1-.419.42.45.45 0 0 1-.418-.42v-2.04l-.819-.468v1.667a.397.397 0 0 1-.41.417.446.446 0 0 1-.412-.417v-2.136l-1.213-.694-2.96 2.089v.595l1.643.97a.451.451 0 0 1 .14.627.535.535 0 0 1-.35.139h-.209l-1.225-.769v1.284l1.644.97a.452.452 0 0 1 .14.627.537.537 0 0 1-.35.139h-.209l-1.225-.77v1.101a.404.404 0 0 1-.422.419.451.451 0 0 1-.422-.419v-1.71a.388.388 0 0 1 0-.246v-2.005a.39.39 0 0 1 0-.246v-.74l-1.878-1.247a.451.451 0 0 1-.139-.623.37.37 0 0 1 .556-.069l1.879 1.177 2.921-2.008V10.14l-2.921-2.008-1.878 1.246a.387.387 0 0 1-.557-.139.373.373 0 0 1 .14-.553l1.878-1.247v-.701l-1.667-.992a.543.543 0 0 1-.14-.557.451.451 0 0 1 .625-.139l1.182.723V4.53l-1.598-.987a.376.376 0 0 1-.139-.556.362.362 0 0 1 .555-.14l1.182.723V2.422a.452.452 0 0 1 .422-.418.404.404 0 0 1 .422.418v1.144l1.23-.72a.361.361 0 0 1 .554.14.386.386 0 0 1-.138.556L12.99 4.558v1.194l1.23-.77a.536.536 0 0 1 .554.138.453.453 0 0 1-.138.626l-1.646.978v.678l2.973 2.035 1.2-.699V6.59a.444.444 0 0 1 .412-.415.397.397 0 0 1 .412.415v1.667l.818-.476V5.75a.451.451 0 0 1 .418-.42.403.403 0 0 1 .419.42v1.543l.959-.558a.448.448 0 0 1 .62.139.44.44 0 0 1-.206.556l-1.054.611 1.285.785a.367.367 0 0 1 .14.56.382.382 0 0 1-.35.21c-.07 0-.139-.07-.21-.07l-1.712-.992-.731.425 1.18.673a.364.364 0 0 1 .136.554.378.378 0 0 1-.342.207.25.25 0 0 1-.204-.07l-1.61-.874-1.222.713v2.877l1.254.717 1.579-.924a.37.37 0 0 1 .548.139.458.458 0 0 1-.137.626l-1.13.65.69.393 1.704-.986a.468.468 0 0 1 .555.211Zm-10.927 4.407a3.729 3.729 0 0 1-7.457 0 3.776 3.776 0 0 1 1.657-3.129V4.088A2.085 2.085 0 0 1 6.728 2 2.041 2.041 0 0 1 8.8 4.088v11.057a3.777 3.777 0 0 1 1.658 3.127Zm-.829 0a2.841 2.841 0 0 0-1.45-2.503.383.383 0 0 1-.208-.348V4.088a1.242 1.242 0 1 0-2.485 0v11.333a.383.383 0 0 1-.206.348 2.84 2.84 0 0 0-1.45 2.503 2.9 2.9 0 1 0 5.8 0Zm-1.658-.02a1.243 1.243 0 1 1-1.64-1.172v-8.8a.438.438 0 0 1 .398-.416.392.392 0 0 1 .398.416v8.8a1.232 1.232 0 0 1 .845 1.172Zm-.828 0a.395.395 0 0 0-.375-.408c-.013 0-.024.008-.038.008-.015 0-.022-.007-.033-.008a.41.41 0 0 0 .033.82.398.398 0 0 0 .414-.412Z" clip-rule="evenodd"/>
</svg>
