<svg xmlns="http://www.w3.org/2000/svg" width="24" height="24" fill="none" viewBox="0 0 24 24">
  <path fill="#000" fill-rule="evenodd" d="M15.722 9.631c0-1.943-3.033-6.868-3.378-7.423a.39.39 0 0 0-.69 0c-.345.555-3.379 5.48-3.379 7.423 0 1.943 1.586 3.47 3.724 3.47 2.137 0 3.723-1.527 3.723-3.47ZM12 12.267c-1.724 0-2.896-1.11-2.896-2.636 0-1.249 1.861-4.648 2.896-6.382 1.034 1.732 2.896 5.064 2.896 6.382 0 1.527-1.242 2.636-2.896 2.636Zm.398-1.266a.445.445 0 0 1-.413.413 1.963 1.963 0 0 1-2.07-1.929.445.445 0 0 1 .415-.413.397.397 0 0 1 .413.413 1.163 1.163 0 0 0 1.242 1.103.397.397 0 0 1 .413.413Zm9.324-3.828a1.408 1.408 0 0 0-1.249.278c-.902.625-1.388 2.292-1.388 5.001l-1.319 1.32.21-1.042c.21-.903-.138-1.528-.624-1.737a1.276 1.276 0 0 0-1.526.625c-.555.904-1.25 3.335-1.319 3.404v3.466h-.428a.4.4 0 0 0-.415.415v2.494a.447.447 0 0 0 .415.416h4.978a.447.447 0 0 0 .415-.416v-2.494a.4.4 0 0 0-.415-.415h-.387v-.683c.486-.556 2.637-2.573 3.192-3.195a.524.524 0 0 0 .139-.278V7.59a.57.57 0 0 0-.28-.417h.001ZM18.64 20.982h-4.15v-1.663h.38a.327.327 0 0 0 .05.011.349.349 0 0 0 .053-.011h3.23a.359.359 0 0 0 .052.011.352.352 0 0 0 .053-.011h.338l-.007 1.663Zm2.526-6.861-3.192 3.195a.277.277 0 0 0-.138.278v.893h-2.498V15.23c.289-1.1.684-2.17 1.179-3.195a.406.406 0 0 1 .486-.21c.139 0 .277.278.21.694l-.624 2.501a.629.629 0 0 0 .21.486c.21.07.416.07.485-.069l2.498-2.5a.528.528 0 0 0 .139-.278c0-3.266.624-4.238 1.04-4.516.07-.07.14-.139.21-.139l-.005 6.116ZM9.922 18.488h-.428v-3.466c-.07-.07-.763-2.5-1.319-3.404a1.329 1.329 0 0 0-1.526-.625 1.438 1.438 0 0 0-.694 1.737l.278 1.042-1.319-1.32c0-2.709-.485-4.376-1.457-5.001a1.26 1.26 0 0 0-1.179-.278A.432.432 0 0 0 2 7.59v6.738a.36.36 0 0 0 .14.277c.693.626 2.705 2.64 3.19 3.196v.683h-.385a.4.4 0 0 0-.415.415v2.494a.446.446 0 0 0 .415.416h4.977a.446.446 0 0 0 .415-.416v-2.494a.399.399 0 0 0-.416-.413l.001.002Zm-3.898-1.172c-.07-.07-2.22-2.362-3.192-3.195V8.006c.07 0 .14.07.21.14.348.277 1.04 1.25 1.04 4.515a.278.278 0 0 0 .14.277l2.429 2.501a.427.427 0 0 0 .485.07c.21-.14.278-.278.21-.487l-.555-2.5c-.07-.417 0-.695.21-.695.14-.07.28 0 .417.21a17.931 17.931 0 0 1 1.248 3.195v3.256H6.17v-.893a.525.525 0 0 0-.145-.28v.001Zm3.483 3.666H5.359v-1.663h.338a.116.116 0 0 0 .1 0h3.23a.116.116 0 0 0 .1 0h.38v1.663Z" clip-rule="evenodd"/>
</svg>
