<svg xmlns="http://www.w3.org/2000/svg" width="24" height="24" fill="none" viewBox="0 0 24 24">
  <path fill="#000" fill-rule="evenodd" d="M21.541 13.664H17.79v-3.089c.007-.01.019-.013.024-.023a.519.519 0 0 0-.024-.371V8.117l1.355-.688a.258.258 0 0 0 .186-.065l2.512-1.67a.428.428 0 0 0-.489-.697l-1.636 1.088.577-2.354a.398.398 0 0 0-.275-.49.368.368 0 0 0-.481.35l-.826 3.147-.924.492V2.84a.392.392 0 0 0-.4-.417.438.438 0 0 0-.397.417v6.84l-.855-.446-.837-3.118c-.07-.278-.28-.416-.489-.346a.392.392 0 0 0-.279.484s0 .005.577 2.305l-1.6-1.08a.446.446 0 0 0-.62.14.458.458 0 0 0 .138.556l2.453 1.654.008.006.017.011a.232.232 0 0 0 .184.068l1.3.646v3.103H2.417A.447.447 0 0 0 2 14.08v7.504a.448.448 0 0 0 .416.417h19.122a.402.402 0 0 0 .416-.417V14.08a.401.401 0 0 0-.413-.415Zm-15.809.834h3.616l-.828 2.205-2.788-2.205Zm4.489 0h2.988l1.217 3.203-2.573 1.737-2.644-2.153 1.012-2.787Zm-1.459 3.525 2.812 2.247a.524.524 0 0 0 .277.139c.07 0 .14-.07.21-.14l3.037-2.067 2.512-1.148-1.324 4.113H6.351c.579-.79 1.614-2.138 2.41-3.145h.001Zm9.636-.691 2.42 3.833h-3.675l1.255-3.833Zm-.405-1.355-2.836 1.278c-.157-.413-.472-1.213-1.073-2.757h3.269a.32.32 0 0 0 .037.008.399.399 0 0 0 .046-.008h1.999l-1.442 1.479Zm-13.626-1.48 1.685 1.332-3.216 2.085v-3.417h1.531ZM2.836 18.92l3.895-2.553 1.4 1.107c-1.746 2.225-2.514 3.203-2.827 3.694H2.836V18.92Zm15.997-2.538 1.778-1.883h.516v5.53l-2.294-3.647Zm-11.84-6.043a4.17 4.17 0 0 0 0-8.338 4.17 4.17 0 0 0 0 8.338Zm0-7.504a3.327 3.327 0 0 1 3.316 3.335 3.283 3.283 0 0 1-3.316 3.335A3.326 3.326 0 0 1 3.677 6.17a3.372 3.372 0 0 1 3.315-3.337l.001.002Z" clip-rule="evenodd"/>
</svg>
