<svg xmlns="http://www.w3.org/2000/svg" width="24" height="24" fill="none" viewBox="0 0 24 24">
  <path fill="#000" fill-rule="evenodd" d="M16.64 20.747c-.325.198-.69.32-1.07.357h-2.14c-1.428 0-2.5-1.429-2.675-2.676h1.428a1.62 1.62 0 0 0 .535 1.25h.714a.544.544 0 0 0 0-.714c-.178-.18-.357-.358-.357-.535h1.25a1.545 1.545 0 0 0 .535 1.07l.179.178a.624.624 0 0 0 .357-.178.336.336 0 0 0 0-.535c0-.18-.18-.358-.18-.535h1.251a.383.383 0 0 0 .357-.358c0-.357-.178-.535-.357-.535h-1.25c0-.178.179-.178.179-.357a.544.544 0 0 0 0-.714c-.18 0-.536 0-.536.178a.982.982 0 0 0-.535.893h-1.25c0-.178.179-.357.358-.535a.378.378 0 0 0-.535-.535 1.11 1.11 0 0 0-.715 1.07h-1.428a2.864 2.864 0 0 1 2.676-2.5h2.14c.366-.028.733.034 1.07.18l4.286 2.856-4.286 2.675ZM6.822 7.177h-.357V2.894h.357c1.25 0 2.676.535 2.676 2.14S8.071 7.178 6.821 7.178Zm-2.14-4.284h.893v4.285H4.68V2.893Zm17.14 14.819L17 14.498a1.926 1.926 0 0 0-1.429-.357h-2.14c-1.964 0-3.214 1.785-3.571 3.392h-2.5a3.432 3.432 0 0 1-3.57-3.392 3.582 3.582 0 0 1 3.57-3.571h11.248a3.01 3.01 0 0 0 3.036-3.035A3.129 3.129 0 0 0 18.608 4.5h-8.391C10.038 2.894 8.789 2 6.825 2h-2.5c-.357 0-.535.179-.535.357v1.25H2.54a.57.57 0 0 0-.535.535c0 .179.179.357.535.357h1.25v.893H2.54a.473.473 0 0 0-.535.535c0 .179.179.358.535.358h1.25v1.25a.474.474 0 0 0 .535.534h2.5c1.964 0 3.21-1.07 3.392-2.675h8.391a2.17 2.17 0 0 1 2.14 2.14 2.063 2.063 0 0 1-2.14 2.14H7.36a4.376 4.376 0 1 0 0 8.75h2.5c.357 1.784 1.605 3.57 3.57 3.57h2.141A3.363 3.363 0 0 0 17 21.637h.178l4.643-3.214c.179-.179.179-.179.179-.357 0-.179-.002-.354-.18-.354h.001Z" clip-rule="evenodd"/>
</svg>
