<svg xmlns="http://www.w3.org/2000/svg" width="24" height="24" fill="none" viewBox="0 0 24 24">
  <path fill="#000" fill-rule="evenodd" d="M21.824 4.67a.483.483 0 0 0 .075-.682.555.555 0 0 0-.675 0c-1.05.986-2.848 2.654-2.848 3.488v3.895a.4.4 0 0 0-.039.166v2.73a1.354 1.354 0 0 1-1.358 1.364h-.44V2.454A.489.489 0 0 0 16.086 2H2.456A.49.49 0 0 0 2 2.454v19.091a.436.436 0 0 0 .455.455h13.63a.436.436 0 0 0 .454-.455v-5.003h.44a2.229 2.229 0 0 0 2.264-2.276v-2.363l1.61-.81a.457.457 0 0 0 .225-.453V8.83a.487.487 0 0 0-.45-.454h-1.355v-.825c.077-.455 1.352-1.82 2.55-2.88ZM15.63 2.91v6.386H2.91V2.909h12.72ZM2.91 21.089V10.21h12.72v5.83a.356.356 0 0 0-.01.04.45.45 0 0 0 .01.05v4.955l-12.721.002ZM19.277 9.281h.901v1.132l-.9.453V9.282ZM4.29 8.377h9.96a.436.436 0 0 0 .454-.454V4.289a.488.488 0 0 0-.453-.455H4.289a.488.488 0 0 0-.452.455V7.92a.436.436 0 0 0 .453.457h-.001Zm.453-3.632h9.055v2.724H4.742V4.745Zm7.167 6.411c-.075-.076-.226 0-.378.076a5.94 5.94 0 0 1-2.272.985 5.603 5.603 0 0 0-2.045.757 2.497 2.497 0 0 0-1.287 2.045 2.25 2.25 0 0 0 .952 1.665 14.114 14.114 0 0 0-1.692 2.92.516.516 0 0 0 .303.606h.152a.539.539 0 0 0 .454-.227c.332-.884.781-1.719 1.336-2.482a2.184 2.184 0 0 0 1.373.999.817.817 0 0 0 .378.076 3.172 3.172 0 0 0 2.196-1.06c1.06-1.212 1.741-4.318.832-6.136.002-.148-.15-.224-.301-.224Zm-1.21 5.68a2.119 2.119 0 0 1-1.666.833 1.744 1.744 0 0 1-.979-.943 6.482 6.482 0 0 1 1.908-1.52.408.408 0 0 0 .15-.607.475.475 0 0 0-.606-.228 7.403 7.403 0 0 0-2.058 1.637 1.281 1.281 0 0 1-.61-.988 1.686 1.686 0 0 1 .832-1.287c.592-.26 1.198-.488 1.816-.682a7.219 7.219 0 0 0 2.12-.758c.38 1.514-.15 3.786-.908 4.544Z" clip-rule="evenodd"/>
</svg>
