<svg xmlns="http://www.w3.org/2000/svg" width="24" height="24" fill="none" viewBox="0 0 24 24">
  <path fill="#000" fill-rule="evenodd" d="M21.097 16.203 18.77 13.88v-.007l-1.666-3.336a.382.382 0 0 0-.348-.21H7.589a.42.42 0 0 0-.417.21l-1.648 3.301-2.455 2.452c-.068.067-.069.137-.069.269v3.336a.4.4 0 0 0 .416.416h.427v1.274a.398.398 0 0 0 .416.415h2.496a.446.446 0 0 0 .415-.415v-1.274h1.64v.427a.4.4 0 0 0 .42.416h5.864a.449.449 0 0 0 .418-.416v-.427h1.64v1.274a.402.402 0 0 0 .422.415h2.531a.449.449 0 0 0 .422-.415v-1.274h.38a.447.447 0 0 0 .416-.416V16.56a.446.446 0 0 0-.226-.357ZM6.337 21.17H4.674v-.828h1.663v.828Zm13.345 0h-1.687v-.828h1.687v.828ZM7.797 11.162h8.68l1.245 2.493H6.55l1.247-2.493Zm-3.965 5.82h2.503v.845H3.832v-.844Zm5.815 3.34v-.366a.318.318 0 0 0 .014-.061.343.343 0 0 0-.014-.062V18.66h5.026v1.152a.45.45 0 0 0-.014.084.457.457 0 0 0 .014.085v.343l-5.026-.002Zm5.445-2.495H9.23a.402.402 0 0 0-.42.416v1.236H3.832v-.808h2.921a.451.451 0 0 0 .417-.423V16.56a.45.45 0 0 0-.417-.422H4.398l1.643-1.64h12.17l1.695 1.64H17.57a.404.404 0 0 0-.418.422v1.687a.405.405 0 0 0 .418.422h2.92v.808h-4.978v-1.235a.449.449 0 0 0-.42-.416Zm5.397-.844v.844h-2.503v-.844h2.503Zm-7.93-1.23v.82a.435.435 0 0 1-.399.408.387.387 0 0 1-.398-.408v-.82a.389.389 0 0 1 .398-.408.436.436 0 0 1 .4.407ZM6.342 8.36a.256.256 0 0 0 .208-.07 36.498 36.498 0 0 1 3.692-1.69c-.222.937-.158 1.648.244 2.166a2.164 2.164 0 0 0 1.874.765h.555c1.944-.21 5.068-2.648 5.762-5.015.07-.14 0-.21-.07-.35a.36.36 0 0 0-.278-.138 8.463 8.463 0 0 1-2.915-1.045c-1.041-.557-2.013-1.045-3.192-.975-1.11.139-1.874.557-2.222 1.184-.316.7-.223 1.517.27 2.502a26.254 26.254 0 0 0-4.135 1.9.414.414 0 0 0 .207.765v.002Zm4.422-4.75c.277-.557 1.04-.696 1.526-.765.972-.07 1.734.349 2.707.836.83.513 1.748.868 2.707 1.045-.832 1.88-3.4 3.83-4.858 3.97-.625.07-1.388 0-1.733-.418-.26-.39-.212-1.088.134-2.029 1.392-.445 2.828-.717 3.899-.459a.44.44 0 0 0 .555-.278c0-.209-.14-.486-.347-.486-1.214-.311-2.772-.051-4.262.4-.434-.787-.577-1.442-.328-1.817v.001Z" clip-rule="evenodd"/>
</svg>
