<svg xmlns="http://www.w3.org/2000/svg" width="24" height="24" fill="none" viewBox="0 0 24 24">
  <path fill="#000" fill-rule="evenodd" d="M8.062 8.36a.257.257 0 0 0 .209-.07 36.397 36.397 0 0 1 3.738-1.7c-.225.941-.161 1.656.242 2.176a2.31 2.31 0 0 0 1.944.764h.486c1.943-.209 5.068-2.647 5.762-5.015.07-.14.069-.21-.07-.349a.36.36 0 0 0-.278-.14 9.022 9.022 0 0 1-2.915-1.044c-1.041-.557-2.013-1.045-3.193-.975-1.111.139-1.875.557-2.222 1.184-.316.698-.223 1.513.266 2.495a26.437 26.437 0 0 0-4.177 1.908.376.376 0 0 0-.14.556.384.384 0 0 0 .348.21Zm4.466-4.75c.278-.557 1.041-.696 1.53-.765.972-.07 1.733.349 2.707.836.83.514 1.748.868 2.708 1.045-.833 1.881-3.401 3.832-4.86 3.971-.624.07-1.387 0-1.733-.418-.26-.391-.211-1.092.138-2.037 1.39-.44 2.824-.708 3.894-.453a.442.442 0 0 0 .558-.278c0-.21-.14-.487-.349-.487-1.213-.31-2.771-.055-4.262.395-.423-.782-.52-1.435-.33-1.809Zm-2.61 13.797a.448.448 0 0 1-.413.421H8.268a.423.423 0 0 1 0-.844h1.237a.448.448 0 0 1 .413.423Zm0 1.687a.449.449 0 0 1-.413.422H8.268a.422.422 0 1 1 0-.844h1.237a.447.447 0 0 1 .413.422Zm5.015-1.687a.448.448 0 0 1-.412.421h-1.237a.423.423 0 0 1 0-.844h1.237a.449.449 0 0 1 .412.423Zm0 1.687a.448.448 0 0 1-.412.422h-1.237a.422.422 0 1 1 0-.844h1.237a.448.448 0 0 1 .412.422Zm2.953-1.687a.45.45 0 0 1 .413-.423h1.238a.422.422 0 0 1 0 .844h-1.238a.45.45 0 0 1-.413-.421Zm0 1.687a.449.449 0 0 1 .413-.422h1.238a.422.422 0 1 1 0 .844h-1.238a.45.45 0 0 1-.413-.422Zm3.963-8.036a.33.33 0 0 0-.418-.07l-4.388 2.58v-2.161a.384.384 0 0 0-.209-.349.446.446 0 0 0-.418 0l-4.385 2.44v-2.091a.421.421 0 0 0-.21-.418c-.14-.07-.348-.07-.418.07l-3.9 2.509-1.463-7.11a.442.442 0 0 0-.418-.348h-2.02a.441.441 0 0 0-.418.349L2 14.96v6.62a.45.45 0 0 0 .418.419h19.224a.45.45 0 0 0 .418-.418V11.407a.385.385 0 0 0-.21-.349Zm-.627 10.106H2.832V15.1l1.115-8.153h1.326l1.533 7.387c0 .14.139.209.278.279a.313.313 0 0 0 .348 0l3.762-2.44v2.091a.384.384 0 0 0 .21.349.445.445 0 0 0 .417 0l4.388-2.51v2.161a.384.384 0 0 0 .209.349.447.447 0 0 0 .418 0l4.388-2.51-.002 9.06Z" clip-rule="evenodd"/>
</svg>
