<svg xmlns="http://www.w3.org/2000/svg" width="24" height="24" fill="none" viewBox="0 0 24 24">
  <path fill="#000" fill-rule="evenodd" d="M9.32 17h-.923v-.394h.924V17Zm-.395-4.078h6.205l1.452.79v.131h-1.847a.35.35 0 0 0-.397.395c0 .263.133.526.397.526h1.847v.92H7.47v-.92h1.848c.265 0 .397-.263.397-.526a.35.35 0 0 0-.397-.395H7.47v-.132l1.455-.789Zm1.189-2.762h3.828L14.6 12H9.451l.663-1.841ZM15.658 17h-.923v-.394h.923V17Zm-1.32.921h1.848a.35.35 0 0 0 .396-.394v-.922h.528c.264 0 .396-.264.396-.526v-2.763c0-.132-.132-.263-.263-.395l-1.586-.789-.923-2.5a.422.422 0 0 0-.396-.394h-4.62a.421.421 0 0 0-.397.394l-.924 2.5-1.585.79c-.132.13-.263.262-.263.394v2.763c0 .262.131.526.395.526h.528v.92a.35.35 0 0 0 .396.395h1.849c.264 0 .528-.131.528-.394v-.921h3.564v.92c0 .265.265.396.529.396ZM12.093 2.924h2.642v2.632h-2.642V2.924Zm6.601 3.683a.465.465 0 0 0-.658.658 8.226 8.226 0 1 1-14.258 5.657 8.164 8.164 0 0 1 7.391-8.156v1.316a.35.35 0 0 0 .396.394h3.696a.349.349 0 0 0 .395-.394v-.527h1.452a.35.35 0 0 0 .396-.394c0-.263-.132-.526-.396-.526h-1.452v-.79h1.452c.264 0 .396-.263.396-.526a.35.35 0 0 0-.396-.395h-1.452v-.526a.349.349 0 0 0-.395-.394h-3.696a.349.349 0 0 0-.396.394v1.447a9.102 9.102 0 1 0 10.033 9.078 9.292 9.292 0 0 0-2.508-6.316Z" clip-rule="evenodd"/>
</svg>
