<svg xmlns="http://www.w3.org/2000/svg" width="24" height="24" fill="none" viewBox="0 0 24 24">
  <path fill="#000" fill-rule="evenodd" d="M21.578 2.876h-3.334a.448.448 0 0 0-.416.417v.611c-.813-.283-1.538-.56-2.163-.787-4.578-1.598-4.648-1.598-9.017.765-1.18.625-2.567 1.39-4.37 2.292A.69.69 0 0 0 2 6.522c.027.122.074.24.139.348.97.973 1.804 1.25 2.913.903l4.926-1.738 2.15.487c-.07.139-.208.208-.347.348-1.456 1.042-2.983 2.154-2.428 3.128a.863.863 0 0 0 .833.556c.555 0 1.248-.278 2.428-.834.624-.209 1.317-.556 2.15-.904L17.83 9.84v.11a.4.4 0 0 0 .416.417h3.335a.37.37 0 0 0 .401-.248.367.367 0 0 0 .015-.168V3.293a.398.398 0 0 0-.418-.417Zm-6.676 5.108h-.277c-.972.417-1.733.764-2.29.974-2.08.904-2.08.904-2.22.625-.138-.209.556-.903 2.151-2.085.416-.278.833-.626 1.11-.835a.994.994 0 0 0 .14-.417.462.462 0 0 0-.348-.278l-3.122-.764a.211.211 0 0 0-.278 0L4.776 7.012a1.617 1.617 0 0 1-1.596-.348c1.596-.834 2.844-1.46 3.815-2.016 4.093-2.225 4.093-2.225 8.394-.696.696.255 1.513.51 2.44.816V9l-2.927-1.017Zm6.26 1.553h-2.5V3.708h2.5v5.829Zm-12.56 2.281a.506.506 0 0 1 0 .62l-1.686 1.587a.37.37 0 0 1-.282.137.535.535 0 0 1-.28-.137.414.414 0 0 1 0-.552l1.615-1.655a.534.534 0 0 1 .633 0Zm5.811 1.408a.516.516 0 0 1-.274.14.352.352 0 0 1-.273-.14l-1.64-1.616a.4.4 0 0 1 0-.632.407.407 0 0 1 .547 0l1.64 1.616a.537.537 0 0 1 0 .632Zm2.853.323-.408 2.232a.434.434 0 0 1-.407.348h-.068c-.203 0-.338-.209-.338-.488l.408-2.23a.362.362 0 0 1 .474-.35c.203 0 .338.28.338.486v.002Zm-6.742 1.316a.427.427 0 0 1 0-.56.524.524 0 0 1 .63 0l1.616 1.685a.426.426 0 0 1 0 .56c-.14.07-.21.141-.35.141a.533.533 0 0 1-.281-.14l-1.615-1.686Zm-1.867 1.07.134 2.285a.453.453 0 0 1-.402.484.44.44 0 0 1-.401-.416l-.134-2.284a.393.393 0 0 1 .401-.415c.2-.069.4.14.4.347l.002-.001Zm4.255 2.746a.367.367 0 0 1-.07.56l-1.898 1.405c-.07 0-.14.07-.281.07a.375.375 0 0 1-.28-.21.37.37 0 0 1 .07-.56l1.896-1.406a.457.457 0 0 1 .561.142l.002-.001Zm-3.91 2.107a.44.44 0 0 1-.415.351h-.07l-2.284-.56a.399.399 0 0 1-.277-.492.522.522 0 0 1 .485-.351l2.216.56c.274.072.413.282.343.493l.002-.001Zm6.696-.137c.07.21-.07.419-.35.488h-.071a.475.475 0 0 1-.422-.279l-.56-2.3a.396.396 0 0 1 .281-.489.434.434 0 0 1 .56.349l.562 2.231Zm-10.56-3.413-1.335 1.865a.389.389 0 0 1-.351.207c-.07 0-.14-.069-.21-.069a.524.524 0 0 1-.141-.621l1.405-1.866c.07-.207.351-.207.56-.068a.355.355 0 0 1 .154.42.356.356 0 0 1-.084.135l.002-.003Zm-1.254-4.786-.271-2.23c-.067-.28.068-.489.338-.489.204-.07.408.14.408.349l.338 2.3a.346.346 0 0 1-.338.42H4.29a.432.432 0 0 1-.409-.346l.002-.004Z" clip-rule="evenodd"/>
</svg>
