<svg xmlns="http://www.w3.org/2000/svg" width="24" height="24" fill="none" viewBox="0 0 24 24">
  <path fill="#000" d="M14.155 7.212a1.874 1.874 0 0 0-3.747 0 1.874 1.874 0 1 0 3.747 0Zm-2.915 0a1.026 1.026 0 0 1 1.041-1.047 1.07 1.07 0 0 1 1.041 1.047 1.087 1.087 0 0 1-1.04 1.118 1.045 1.045 0 0 1-1.042-1.118Zm6.404 7.434a.383.383 0 0 0-.348-.138H11.77c.026-1.11.222-2.21.58-3.262a2.386 2.386 0 0 0 1.655.69c.474.01.939-.136 1.32-.418A2.276 2.276 0 0 0 16.3 9.99a2.336 2.336 0 0 0-.278-1.529 2.403 2.403 0 0 0 1.251-2.849 2.296 2.296 0 0 0-2.711-1.528A2.327 2.327 0 0 0 12.269 2a13.884 13.884 0 0 1-5.004 3.612A2.33 2.33 0 0 0 8.516 8.46a2.316 2.316 0 0 0 2.771 3.364 10.496 10.496 0 0 0-.357 2.682H6.425c-.14 0-.279 0-.349.138a.516.516 0 0 0-.07.347l1.673 6.662a.44.44 0 0 0 .418.347h7.527a.442.442 0 0 0 .419-.347l1.673-6.662a.516.516 0 0 0-.071-.345Zm-5.931-4.17a1.465 1.465 0 0 1-2.085.347 1.516 1.516 0 0 1-.279-2.084c.07-.07.07-.139.209-.208a.458.458 0 0 0 .07-.417c0-.208-.14-.278-.348-.278a.418.418 0 0 0-.279-.07 1.571 1.571 0 0 1-.972-1.875 1.51 1.51 0 0 1 1.877-.973.523.523 0 0 1 .277.14.596.596 0 0 0 .487 0 .43.43 0 0 0 .14-.487v-.278a1.46 1.46 0 1 1 2.918 0v.278a.43.43 0 0 0 .14.486.593.593 0 0 0 .485 0 .363.363 0 0 1 .28-.139 1.511 1.511 0 0 1 1.876.973 1.572 1.572 0 0 1-.974 1.875.623.623 0 0 0-.347.07.357.357 0 0 0-.348.278.509.509 0 0 0 .139.417l.208.208c.221.326.32.72.279 1.112a1.352 1.352 0 0 1-.627.972 1.397 1.397 0 0 1-2.015-.347.956.956 0 0 1-.208-.278c-.008-.016-.024-.021-.034-.035a.61.61 0 0 0-.11-.118l-.005-.004c-.023-.018-.041-.038-.066-.054a.467.467 0 0 0-.556.209c-.034.079-.063.156-.095.234a.3.3 0 0 1-.037.046Zm-.394 4.864a.28.28 0 0 0 .04.01h.07c.008 0 .014-.007.022-.01h5.288l-.214.854h-9.33l-.215-.854h4.34Zm3.956 5.83h-6.83l-1.05-4.18h8.929c-.216.863-.547 2.175-1.049 4.18Z"/>
</svg>
