<svg xmlns="http://www.w3.org/2000/svg" width="24" height="24" fill="none" viewBox="0 0 24 24">
  <path fill="#000" fill-rule="evenodd" d="M12.004 9.691a2.578 2.578 0 1 0 2.563 2.578 2.559 2.559 0 0 0-2.563-2.578Zm0 6.013a3.472 3.472 0 0 1-3.411-3.436 3.425 3.425 0 0 1 3.411-3.437 3.382 3.382 0 0 1 3.413 3.437 3.426 3.426 0 0 1-3.413 3.437v-.001ZM6.287 6.993a3.362 3.362 0 0 0-3.212 2.353 3.746 3.746 0 0 0 .143 2.635 3.51 3.51 0 0 0 1.998 1.639c.23.081.47.13.713.142.214.071.357.143.357.356a.47.47 0 0 1-.071.428 3.288 3.288 0 0 0-.5.498 3.396 3.396 0 0 0 .713 4.773 3.504 3.504 0 0 0 4.852-.712 2.85 2.85 0 0 1 .356-.641.476.476 0 0 1 .358-.285.586.586 0 0 1 .427.285c.091.228.212.443.358.64a3.408 3.408 0 0 0 4.78.713 3.286 3.286 0 0 0 1.355-2.208 3.34 3.34 0 0 0-.642-2.565 3.273 3.273 0 0 0-.5-.498.47.47 0 0 1-.07-.428c0-.213.142-.285.356-.356.243-.013.484-.06.713-.142a3.412 3.412 0 0 0 2.211-4.274 3.527 3.527 0 0 0-4.35-2.208c-.215.07-.43.213-.644.284a.611.611 0 0 1-.499 0c-.142-.142-.214-.284-.142-.427.056-.233.08-.473.071-.712a3.379 3.379 0 0 0-3.424-3.42 3.422 3.422 0 0 0-3.425 3.42c-.008.24.016.479.071.712.072.143 0 .285-.142.427a.611.611 0 0 1-.5 0 2.51 2.51 0 0 0-.642-.284 2.771 2.771 0 0 0-1.069-.144v-.001Zm2.21 14.39a4.28 4.28 0 0 1-2.568-.856 4.36 4.36 0 0 1-.927-5.983.068.068 0 0 0 .051-.02.068.068 0 0 0 .02-.051h-.07a4.149 4.149 0 0 1-2.498-2.138A4.052 4.052 0 0 1 2.22 9.06a4.257 4.257 0 0 1 5.422-2.707h.072V6.28a4.28 4.28 0 0 1 8.561 0v.07h.072a4.269 4.269 0 1 1 2.64 8.122h-.073c0 .01.002.018.006.027a.07.07 0 0 0 .015.024.073.073 0 0 0 .052.02 4.62 4.62 0 0 1 .784 3.205 4.3 4.3 0 0 1-7.706 1.852l-.07-.07-.072.07a4.333 4.333 0 0 1-3.425 1.782Z" clip-rule="evenodd"/>
</svg>
