<svg xmlns="http://www.w3.org/2000/svg" width="24" height="24" fill="none" viewBox="0 0 24 24">
  <path fill="#000" fill-rule="evenodd" d="M21.272 12.837a1.515 1.515 0 0 0-.207-.347.438.438 0 0 0-.415 0 7.862 7.862 0 0 1-3.044.417c-1.176-.07-2.213-.07-3.253.555-.969.556-1.453 1.251-1.453 2.015 0 .756.458 1.453 1.316 2.094a36.51 36.51 0 0 0-2.928 3.548.531.531 0 0 0 .138.625c.069 0 .138.069.207.069a.38.38 0 0 0 .347-.208 32.236 32.236 0 0 1 2.605-3.225c.192.966.574 1.602 1.152 1.892.237.113.5.161.762.139a3.338 3.338 0 0 0 1.798-.556c1.591-1.04 3.39-4.656 2.975-7.018Zm-3.457 6.323c-.484.278-1.176.625-1.66.348-.465-.2-.736-.852-.819-1.886 1.049-1.005 2.213-1.874 3.296-2.126.207 0 .347-.277.347-.486a.436.436 0 0 0-.554-.277c-1.205.256-2.466 1.169-3.588 2.228-.718-.494-1.104-.989-1.104-1.483 0-.556.692-1.112 1.038-1.322.83-.487 1.729-.487 2.836-.417.954.039 1.909-.055 2.836-.278.068 2.016-1.315 4.865-2.63 5.699h.002Zm-6.914-3.796H5.468v-5H17.12v.813a.416.416 0 0 0 .832 0v-.813h1.267a.403.403 0 0 0 .415-.42.45.45 0 0 0-.415-.42h-1.267V4.522h1.267a.402.402 0 0 0 .415-.42.45.45 0 0 0-.415-.42h-2.108V2.42a.45.45 0 0 0-.415-.42H13.37a.45.45 0 0 0-.416.42v1.262H3.416a.45.45 0 0 0-.416.42.402.402 0 0 0 .416.421h1.22v5h-1.22a.45.45 0 0 0-.416.42.402.402 0 0 0 .416.421h1.22v5h-1.22a.437.437 0 0 0-.416.397.392.392 0 0 0 .416.398h1.22v5h-1.22a.45.45 0 0 0-.414.42.4.4 0 0 0 .414.42h6.216a.4.4 0 0 0 .416-.416.447.447 0 0 0-.416-.416h-.373a.305.305 0 0 0-.036-.009H5.47v-5h5.434a.39.39 0 0 0 .416-.397.438.438 0 0 0-.423-.397h.004Zm2.884-12.523h2.495v.841h-2.495v-.841ZM5.468 4.523H17.12v5H5.468v-5Z" clip-rule="evenodd"/>
</svg>
