<svg xmlns="http://www.w3.org/2000/svg" width="24" height="24" fill="none" viewBox="0 0 24 24">
  <path fill="#000" fill-rule="evenodd" d="M21.904 17.007c-.97-.975-1.87-1.254-2.908-.975l-3.085 1.034a1.33 1.33 0 0 0-1.427-1.005h-2.282a6.001 6.001 0 0 0-3.942-1.66H6.148v-.424a.398.398 0 0 0-.415-.414H2.414a.446.446 0 0 0-.414.414v6.63a.445.445 0 0 0 .414.414h3.32a.4.4 0 0 0 .414-.415v-.665c.85.28 1.606.52 2.255.758 2.079.766 3.184 1.115 4.223 1.115 1.247 0 2.355-.558 4.778-1.88 1.108-.558 2.493-1.324 4.36-2.299.14-.07.209-.14.209-.279a.307.307 0 0 0-.069-.349ZM5.317 20.192H2.828v-5.8h2.49v5.8Zm11.67-.956c-4.085 2.229-4.085 2.229-8.309.696-.704-.257-1.535-.575-2.531-.896v-3.804h2.112a5.201 5.201 0 0 1 3.459 1.522.52.52 0 0 0 .276.138h2.49c.484 0 .622.208.622.415a.424.424 0 0 1-.008.083.338.338 0 0 0-.089.167.687.687 0 0 1-.525.165H9.92a.415.415 0 0 0 0 .83h4.564a1.439 1.439 0 0 0 1.23-.558l3.49-1.125a1.553 1.553 0 0 1 1.661.348c-1.592.765-2.839 1.462-3.877 2.02Zm-9.105-6.768a.384.384 0 0 0 .208-.554 6.605 6.605 0 0 1-.693-2.84 6.298 6.298 0 0 1 6.23-6.24c.1 0 .197.01.296.015-.677.305-1.277.751-1.24 1.37a1.111 1.111 0 0 0 1.524 1.038v.9a.875.875 0 0 0-.415.07c-.416.069-.901.207-1.178 0-.07-.07-.139-.208-.208-.278-.346-.276-.9-.276-1.662-.138-1.802.346-1.802 2.631-1.802 2.7 0 .555.277 1.593 1.247 1.593h.485a1.32 1.32 0 0 1 .76 0c.07.07.071.208.071.415 0 .139.069.208.138.347.183.164.346.35.485.554 0 .069-.07.138-.138.207-.079.2-.126.41-.139.623 0 .347.554 1.87 1.247 1.87 1.247 0 2.01-.554 2.148-1.592.29-.13.548-.32.761-.555a.853.853 0 0 0 .277-.553 1.34 1.34 0 0 0-.347-.624l.208-.207c.485-.554 1.525-1.593.693-2.355-.07-.138-.277-.138-.415-.069a.757.757 0 0 1-.347.07 6.07 6.07 0 0 0-.346-.831 1.639 1.639 0 0 1 1.318-.208.417.417 0 0 0 .277-.07 3.053 3.053 0 0 0 1.41-1.607 6.273 6.273 0 0 1-1.924 8.957.539.539 0 0 0-.138.555.595.595 0 0 0 .416.208.252.252 0 0 0 .207-.07 7.16 7.16 0 0 0 3.392-6.099 7.058 7.058 0 0 0-1.736-4.64.385.385 0 0 0-.073-.082A7.014 7.014 0 0 0 13.626 2a7.095 7.095 0 0 0-7.062 7.07 6.985 6.985 0 0 0 .761 3.188.463.463 0 0 0 .557.211ZM18.115 4.76a2.81 2.81 0 0 1-.996 1.607 3.009 3.009 0 0 0-2.355.623.872.872 0 0 0-.07.554c.07.07.139.208.278.208.18.27.298.578.346.9a.241.241 0 0 0 .07.139 1.165 1.165 0 0 0 .9.277c-.192.367-.45.695-.76.969-.347.346-.555.554-.555.83 0 .278.208.416.346.555h.07c-.2.202-.434.367-.693.484a.459.459 0 0 0-.277.346c0 .278 0 1.04-1.248 1.04a2.867 2.867 0 0 1-.484-1.04.34.34 0 0 1 .07-.207c.1-.196.17-.406.207-.623a1.836 1.836 0 0 0-.623-1.039 1.146 1.146 0 0 0-.347-.831 1.566 1.566 0 0 0-1.385-.277h-.416c-.415 0-.415-.692-.415-.76 0 0 0-1.662 1.108-1.87.316-.083.645-.107.97-.07 0 .07.07.14.07.209.623.553 1.455.346 2.079.207.208 0 .415-.069.554-.069a.44.44 0 0 0 .416-.346c.138-1.177.07-1.87-.277-2.147a.522.522 0 0 0-.624 0 .436.436 0 0 1-.415 0 .523.523 0 0 1-.138-.276c0-.203.946-.746 2.17-.96.92.326 1.75.863 2.424 1.568Z" clip-rule="evenodd"/>
</svg>
