<svg xmlns="http://www.w3.org/2000/svg" width="24" height="24" fill="none" viewBox="0 0 24 24">
  <path fill="#000" fill-rule="evenodd" d="M20.939 5.641a.381.381 0 0 0-.346-.207c-.07-.07-.208 0-.346.07a6.782 6.782 0 0 1-2.766 1.314c-1.107.346-2.144.624-2.905 1.525-.83.97-1.176 1.939-.966 2.7a2.774 2.774 0 0 0 1.461 1.729 15.328 15.328 0 0 0-1.833 4.516c-.07.278.07.486.278.486.07 0 .07.07.138.07a.512.512 0 0 0 .416-.348c.352-1.43.903-2.805 1.637-4.082a2.352 2.352 0 0 0 1.706 1.3h.277c.83 0 1.728-.485 2.558-1.526 1.243-1.454 1.797-5.4.69-7.547Zm-1.313 6.992c-.763.9-1.522 1.385-2.075 1.246-.536-.067-.942-.527-1.345-1.312a16.596 16.596 0 0 1 2.923-3.493c.138-.21.207-.418 0-.626a.42.42 0 0 0-.555 0 17.354 17.354 0 0 0-3.079 3.625 1.908 1.908 0 0 1-1.056-1.17c-.207-.691.346-1.453.763-2.007.622-.692 1.452-.969 2.49-1.315.96-.2 1.875-.576 2.698-1.108.687 1.937.202 5.053-.764 6.16ZM12.424 2.07h-.139c-.139 0-.208-.069-.278-.069a9.998 9.998 0 0 0-9.978 9.42.46.46 0 0 0-.014.27c-.003.102-.015.203-.015.31a9.95 9.95 0 0 0 9.546 9.977c.037.006.073.018.11.023h.069a.397.397 0 0 0 .062-.01c.074 0 .146.01.22.01h.417a.448.448 0 0 0 .417-.417V2.486a.449.449 0 0 0-.418-.417h.001Zm-6.65 9.943V12h2.487v.023a23.446 23.446 0 0 0 .237 3.341H6.22a12.53 12.53 0 0 1-.448-3.352h.001Zm-1.923-4.17h1.783a12.62 12.62 0 0 0-.66 3.317H2.875a9.067 9.067 0 0 1 .975-3.32h.001Zm2.666 0h2.128a21.86 21.86 0 0 0-.367 3.317H5.803c.075-1.135.315-2.253.713-3.318h.001ZM9.665 7c.56-2.237 1.46-3.692 2.342-4.042V7H9.665Zm2.342.841v3.318H9.109c.035-1.114.159-2.224.37-3.318h2.528Zm-1.62-4.536A10.37 10.37 0 0 0 8.826 7H6.878a7.507 7.507 0 0 1 3.509-3.695ZM8.628 16.16a11.697 11.697 0 0 0 1.708 4.575c-1.707-.773-3.084-2.424-3.863-4.575h2.156Zm3.379 4.997c-.994-.442-2.008-2.259-2.538-4.997h2.538v4.997Zm-2.673-5.792a22.674 22.674 0 0 1-.24-3.34V12h2.912v3.364H9.333ZM8.519 3.531A9.163 9.163 0 0 0 5.963 7H4.34a9.266 9.266 0 0 1 4.177-3.47h.002ZM4.945 12v.012c0 1.131.145 2.258.431 3.352H3.48A9.145 9.145 0 0 1 2.835 12h2.11Zm-1.107 4.159h1.776a9.772 9.772 0 0 0 2.694 4.228 9.175 9.175 0 0 1-4.473-4.228h.003Z" clip-rule="evenodd"/>
</svg>
