<svg xmlns="http://www.w3.org/2000/svg" width="24" height="24" fill="none" viewBox="0 0 24 24">
  <path fill="#000" fill-rule="evenodd" d="M9.223 11.366H9.5a2.571 2.571 0 0 0 1.724-1.324 16.608 16.608 0 0 1 1.626 4.025.44.44 0 0 0 .415.347.47.47 0 0 0 .417-.278c.31-.775.709-1.511 1.187-2.196a2.012 2.012 0 0 0 1.362.975h.278a2.907 2.907 0 0 0 2.016-.977c1.042-1.046 1.598-3.907.834-5.582-.07-.14-.209-.209-.279-.279a.518.518 0 0 0-.347.07 5.124 5.124 0 0 1-2.155.907 7.14 7.14 0 0 0-1.877.767 2.293 2.293 0 0 0-1.181 1.815 2.09 2.09 0 0 0 .869 1.6 10.597 10.597 0 0 0-.985 1.58 22.724 22.724 0 0 0-1.576-3.386 2.982 2.982 0 0 0 1.483-1.74c.208-.833-.137-1.735-.967-2.706-.765-.902-1.802-1.249-2.912-1.596A6.392 6.392 0 0 1 6.66 2.07.754.754 0 0 0 6.313 2a.591.591 0 0 0-.347.208c-1.11 2.152-.554 6.106.694 7.633.83.97 1.73 1.525 2.563 1.525Zm5.13-1.732a1.696 1.696 0 0 1 .835-1.116 4.507 4.507 0 0 1 1.6-.629 6.248 6.248 0 0 0 1.946-.767c.347 1.396-.07 3.489-.835 4.257a1.695 1.695 0 0 1-1.529.697 1.35 1.35 0 0 1-.933-.866 5.927 5.927 0 0 1 1.787-1.447.437.437 0 0 0 .207-.554.373.373 0 0 0-.555-.14 6.438 6.438 0 0 0-1.94 1.507 1.312 1.312 0 0 1-.582-.944v.002ZM6.52 3.042c.838.524 1.75.922 2.704 1.179.968.278 1.871.555 2.496 1.319.416.485.901 1.248.764 1.942a2.083 2.083 0 0 1-1.087 1.228A17.792 17.792 0 0 0 8.34 5.04a.366.366 0 0 0-.555.07.36.36 0 0 0 0 .555 16.468 16.468 0 0 1 2.944 3.523c-.408.805-.82 1.276-1.364 1.344-.555.07-1.317-.347-2.08-1.249-.973-1.179-1.458-4.3-.764-6.244v.002Zm15.339 14.119c-.971-.973-1.804-1.25-2.914-.973l-3.01 1.024a1.33 1.33 0 0 0-1.438-1.039h-2.293a6.026 6.026 0 0 0-3.96-1.667H6.168v-.427a.4.4 0 0 0-.417-.416H2.416a.447.447 0 0 0-.416.416v6.66a.447.447 0 0 0 .416.417h3.335a.4.4 0 0 0 .417-.416v-.634c.866.27 1.6.502 2.232.732 2.012.765 3.191 1.112 4.232 1.112 1.248 0 2.359-.556 4.79-1.875 1.109-.556 2.496-1.32 4.37-2.293.138-.07.208-.139.208-.278s-.003-.275-.142-.345v.002ZM2.832 20.323v-5.83h2.502v.388a.308.308 0 0 0-.01.04.286.286 0 0 0 .01.04v5.36l-2.502.002Zm14.17-.94c-4.094 2.152-4.094 2.152-8.325.694-.765-.254-1.535-.567-2.51-.884v-3.854h2.075a5.074 5.074 0 0 1 3.474 1.529.527.527 0 0 0 .278.139h2.502c.416 0 .625.208.625.417a.318.318 0 0 1-.035.135.426.426 0 0 0-.07.092.678.678 0 0 1-.52.19H9.911a.416.416 0 1 0 0 .833h4.585a1.457 1.457 0 0 0 1.204-.522l3.522-1.13a1.561 1.561 0 0 1 1.665.347c-1.597.762-2.845 1.457-3.885 2.012v.002Z" clip-rule="evenodd"/>
</svg>
