<svg xmlns="http://www.w3.org/2000/svg" width="24" height="24" fill="none" viewBox="0 0 24 24">
  <path fill="#000" fill-rule="evenodd" d="m21.263 13.022-4.071-2.64v-5.23a.388.388 0 0 0-.211-.353l-5.068-2.746a.319.319 0 0 0-.352 0L6.493 4.799a.47.47 0 0 0-.281.352v5.278l-4 2.593a.387.387 0 0 0-.212.351v5.471a.385.385 0 0 0 .211.35l4.222 2.736a.354.354 0 0 0 .421 0l4.884-2.638 4.884 2.638c0 .07.07.07.14.07.141 0 .212 0 .282-.07l4.222-2.735a.534.534 0 0 0 .14-.35v-5.472a.533.533 0 0 0-.143-.35Zm-9.56-10.124 4.645 2.535v5l-4.646 2.465-.87-.463-3.775-2.04V5.431l4.645-2.533Zm-4.99 18.19-3.868-2.454v-5.05l3.868-2.456 4.563 2.523v4.99c-.056.027-.531.282-4.563 2.447Zm13.85-2.454-3.799 2.454-4.633-2.45v-4.989l4.633-2.523 3.798 2.456v5.052Z" clip-rule="evenodd"/>
</svg>
