<svg xmlns="http://www.w3.org/2000/svg" width="24" height="24" fill="none" viewBox="0 0 24 24">
  <path fill="#000" fill-rule="evenodd" d="M7.841 15.122V4.083a2.09 2.09 0 0 0-2.085-2.082 2.138 2.138 0 0 0-2.087 2.082v11.04a3.755 3.755 0 1 0 4.172 0Zm-2.085 6.04a2.936 2.936 0 0 1-2.921-2.915 2.831 2.831 0 0 1 1.46-2.498.382.382 0 0 0 .21-.347V4.085a1.251 1.251 0 1 1 2.502 0v11.317a.383.383 0 0 0 .209.347 2.832 2.832 0 0 1 1.46 2.498 2.935 2.935 0 0 1-2.918 2.915h-.002Zm.422-4.057v-8.87a.403.403 0 0 0-.422-.416.451.451 0 0 0-.423.417v8.853a1.24 1.24 0 1 0 .845.015v.001Zm-.446 1.574a.397.397 0 0 1-.414-.415.446.446 0 0 1 .414-.415.4.4 0 0 1 .414.415.366.366 0 0 1-.414.415Zm11.663-7.103a5.805 5.805 0 0 1-5.81 5.82 8.47 8.47 0 0 1-1.315-.139.392.392 0 0 1-.276-.485c.069-.277.276-.416.484-.346.364.08.734.126 1.106.138a4.989 4.989 0 0 0 0-9.977c-.491.001-.98.071-1.452.208a.437.437 0 0 1-.553-.277.395.395 0 0 1 .276-.485 5.012 5.012 0 0 1 1.73-.278 5.806 5.806 0 0 1 5.81 5.82Zm-6.242-7.502V2.415a.45.45 0 0 1 .422-.414.403.403 0 0 1 .423.414v1.659a.37.37 0 0 1-.423.415.404.404 0 0 1-.422-.415Zm7.232.788a.528.528 0 0 1 0 .627l-1.173 1.183a.615.615 0 0 1-.344.07.412.412 0 0 1-.275-.07.527.527 0 0 1 0-.627l1.172-1.183a.51.51 0 0 1 .62 0Zm2.766 6.713a.37.37 0 0 1-.415.423h-1.658a.402.402 0 0 1-.414-.422.45.45 0 0 1 .414-.423h1.658a.403.403 0 0 1 .416.422h-.001Zm-2.816 6.25a.42.42 0 0 1 0 .558.389.389 0 0 1-.352.14.282.282 0 0 1-.282-.14L16.504 17.2a.42.42 0 0 1 0-.557.53.53 0 0 1 .634 0l1.197 1.183Zm-6.337 1.252v1.659a.37.37 0 0 1-.422.414.402.402 0 0 1-.422-.414v-1.659a.45.45 0 0 1 .422-.414.4.4 0 0 1 .422.414Z" clip-rule="evenodd"/>
</svg>
