<svg xmlns="http://www.w3.org/2000/svg" width="24" height="24" fill="none" viewBox="0 0 24 24">
  <path fill="#000" fill-rule="evenodd" d="M21.538 11.182h-2.91V9.496h2.49a.38.38 0 0 0 .345-.21.446.446 0 0 0 0-.416l-2.9-6.591A.46.46 0 0 0 18.218 2a.465.465 0 0 0-.414.278l-2.9 6.59a.458.458 0 0 0 .07.417.378.378 0 0 0 .345.21h2.467v1.686h-4.143a.38.38 0 0 0-.346.21l-1.454 2.22a.383.383 0 0 0 .138.554l2.563 1.733-1.939 1.664c-.138.07-.139.21-.139.347a.521.521 0 0 0 .14.277l.691.555-1.68 1.636c.068-.405.158-.934.273-1.636a.463.463 0 0 0-.277-.485l-1.312-.485 1.867-1.596a.53.53 0 0 0 .138-.346.381.381 0 0 0-.21-.347L9.4 13.68l1.245-1.873a.443.443 0 0 0 0-.416.382.382 0 0 0-.345-.21H6.17V9.495h2.486a.381.381 0 0 0 .347-.21.44.44 0 0 0 0-.416l-2.92-6.591A.461.461 0 0 0 5.735 2a.469.469 0 0 0-.417.278l-2.92 6.59a.458.458 0 0 0 .07.417.382.382 0 0 0 .347.21h2.51v1.686h-2.91a.4.4 0 0 0-.415.416v9.986a.4.4 0 0 0 .416.417h19.12a.448.448 0 0 0 .416-.417v-9.986a.447.447 0 0 0-.414-.415Zm-3.32-7.722 2.21 5.204h-2.176a.343.343 0 0 0-.045-.01.416.416 0 0 0-.053.01H15.94l2.278-5.204Zm-12.48 0 2.224 5.204H5.794a.367.367 0 0 0-.044-.01.41.41 0 0 0-.053.01H3.444L5.738 3.46Zm-2.904 8.554H9.54L8.503 13.61a.385.385 0 0 0 .138.555l2.559 1.733-1.936 1.664a.254.254 0 0 0-.138.347.381.381 0 0 0 .207.347l1.66.693-.346 2.22H2.834v-9.154Zm18.289 9.155H11.98l2.286-2.22a.53.53 0 0 0 .139-.346c-.07-.07-.07-.21-.21-.278l-.693-.485 2.008-1.665a.531.531 0 0 0 .14-.346.383.383 0 0 0-.21-.347l-2.702-1.803 1.108-1.665h7.272l.004 9.155Z" clip-rule="evenodd"/>
</svg>
