<svg xmlns="http://www.w3.org/2000/svg" width="24" height="24" fill="none" viewBox="0 0 24 24">
  <path fill="#000" fill-rule="evenodd" d="M21.848 2.105a.335.335 0 0 0-.38-.076c-.61.076-15.458 1.749-18.808 8.82-1.171 2.555-.79 5.392 1.198 8.51l-.522.521a.567.567 0 0 0 0 .685c.152.076.228.152.38.152a.577.577 0 0 0 .305-.152l.478-.478c2.008 1.236 3.887 1.86 5.622 1.86a7.04 7.04 0 0 0 2.97-.684C20.173 17.917 21.923 3.17 22 2.485c0-.153-.076-.228-.152-.38ZM12.71 20.427c-2.179 1.015-4.705.644-7.51-1.041l2.309-2.309h4.446a.49.49 0 0 0 .457-.457.44.44 0 0 0-.457-.457h-3.53l2.725-2.726h3.064a.49.49 0 0 0 .455-.455.438.438 0 0 0-.455-.456H12.06l2.73-2.729h1.273a.492.492 0 0 0 .452-.461.437.437 0 0 0-.452-.462h-.902v-.923a.437.437 0 0 0-.452-.46.402.402 0 0 0-.45.46V8.96l-2.78 2.78V9.79a.437.437 0 0 0-.457-.455.402.402 0 0 0-.454.455v2.859l-2.726 2.726v-3.328a.439.439 0 0 0-.458-.456.403.403 0 0 0-.457.456v4.242l-2.405 2.406c-1.673-2.79-2.037-5.299-1.024-7.392 2.817-5.93 14.696-7.907 17.513-8.286-.383 2.736-2.438 14.672-8.301 17.41Z" clip-rule="evenodd"/>
</svg>
