<svg xmlns="http://www.w3.org/2000/svg" width="24" height="24" fill="none" viewBox="0 0 24 24">
  <path fill="#000" fill-rule="evenodd" d="M14.38 19.115a.4.4 0 0 1-.413.42h-4.13a.403.403 0 0 1-.387-.258.4.4 0 0 1-.026-.162.45.45 0 0 1 .414-.42h4.13a.448.448 0 0 1 .413.42Zm-.413 1.216h-4.13a.45.45 0 0 0-.413.42.4.4 0 0 0 .414.421h1.644v.421a.422.422 0 0 0 .842 0v-.42h1.643a.401.401 0 0 0 .414-.421.449.449 0 0 0-.414-.423v.002Zm5.84-10.822a7.637 7.637 0 0 1-5.408 7.162v.763a.401.401 0 0 1-.417.417H9.823a.4.4 0 0 1-.416-.417v-.764A7.636 7.636 0 0 1 4 9.51C4 5.407 7.535 2 11.903 2c4.367 0 7.903 3.407 7.903 7.509Zm-.833 0c0-3.615-3.19-6.675-7.071-6.675-3.882 0-7.072 3.06-7.072 6.675a6.803 6.803 0 0 0 5.06 6.466.373.373 0 0 1 .348.348v.695h1.14a28.552 28.552 0 0 1-.376-4.05c-1.079.171-1.875-.042-2.38-.545-.557-.485-.695-1.386-.416-2.493.278-1.107 1.042-1.87 1.876-2.632a7.628 7.628 0 0 0 1.878-2.493c.07-.07.208-.207.278-.207a.304.304 0 0 1 .347.069c2.017 1.385 3.339 5.126 2.92 7.066-.277 1.108-.762 1.801-1.529 2.079-.139 0-.348.069-.486.069a3.129 3.129 0 0 1-1.628-.605c.053 1.255.183 2.506.39 3.745h1.315v-.695c0-.14.138-.348.278-.348a6.788 6.788 0 0 0 5.128-6.47Zm-7.967 2.624c.042-1.577.287-3.154.957-4.22a.448.448 0 0 1 .552-.138.454.454 0 0 1 .137.625c-.583.947-.783 2.402-.803 3.866.822.6 1.463.84 1.919.712.487-.139.763-.9.904-1.455.348-1.455-.626-4.503-2.156-5.889a7.546 7.546 0 0 1-1.877 2.217c-.763.763-1.46 1.386-1.668 2.286-.07.485-.209 1.317.208 1.73.31.31.95.397 1.827.266Z" clip-rule="evenodd"/>
</svg>
