<svg xmlns="http://www.w3.org/2000/svg" width="24" height="24" fill="none" viewBox="0 0 24 24">
  <path fill="#000" d="M8.643 11.023a1.668 1.668 0 1 0-1.667-1.666 1.69 1.69 0 0 0 1.667 1.666Zm0-2.5a.834.834 0 1 1 0 1.668.834.834 0 0 1 0-1.668Zm2.535 8.322a1.667 1.667 0 1 0-1.666-1.667 1.69 1.69 0 0 0 1.666 1.667Zm0-2.5a.834.834 0 1 1 0 1.668.834.834 0 0 1 0-1.668Zm-4.202.833a1.667 1.667 0 1 0-1.666 1.667 1.69 1.69 0 0 0 1.666-1.667Zm-1.666.834a.833.833 0 1 1 0-1.666.833.833 0 0 1 0 1.666Zm13.353-4.144h-.298A3.346 3.346 0 0 0 16.175 6H8.667a3.379 3.379 0 0 0-3.334 3.333 3.31 3.31 0 0 0 1.175 2.535H5.333A3.378 3.378 0 0 0 2 15.201a3.334 3.334 0 0 0 3.333 3.334h13.33A3.294 3.294 0 0 0 22 15.201a3.335 3.335 0 0 0-3.337-3.333Zm-5.008 3.333a2.49 2.49 0 0 1-2.5 2.5v-.011h-.117a2.479 2.479 0 0 1-2.376-2.409c0-.026.004-.052.004-.08 0-.027-.003-.052-.004-.078a2.497 2.497 0 0 1 4.992.079Zm2.52-8.368a2.5 2.5 0 0 1 0 5h-5.282a3.352 3.352 0 0 0-.026-5h5.308Zm-10.009 2.5a2.5 2.5 0 1 1 2.5 2.5 2.489 2.489 0 0 1-2.5-2.5Zm2.855 3.333c-.309.262-.57.577-.77.93a3.365 3.365 0 0 0-.756-.93H9.02Zm-6.188 2.535a2.497 2.497 0 0 1 4.992-.075c0 .025-.004.052-.004.075 0 .024.003.053.004.077A2.478 2.478 0 0 1 5.45 17.69h-.118v.011A2.49 2.49 0 0 1 2.833 15.2v.002Zm4.736 2.489c.273-.244.502-.532.68-.852.181.32.415.608.691.852H7.57Zm11.09.011h-5.281a3.352 3.352 0 0 0-.026-5h5.308a2.5 2.5 0 1 1 0 5Zm-2.484-9.166h-3.333v-.842h3.333v.842Zm-.845.798h1.69v.845h-1.69v-.845Zm1.69 5.024h-1.69v-.845h1.69v.845Zm2.489 0h-1.69v-.845h1.69v.845Zm-2.489.842h3.334v.798H17.02V15.2Zm-1.69.798h.845v.846h-.845v-.846Zm-.842-4.976h-1.644v-.845h1.644v.845Z"/>
</svg>
