<svg xmlns="http://www.w3.org/2000/svg" width="24" height="24" fill="none" viewBox="0 0 24 24">
  <path fill="#000" fill-rule="evenodd" d="M19.977 10.266a5.053 5.053 0 0 1-.623-1.25C19.354 4.64 15.335 2 11.385 2a8.293 8.293 0 0 0-8.384 8.402c0 3.056 1.109 5.277 3.256 6.666v4.514a.4.4 0 0 0 .415.417h8.316a.4.4 0 0 0 .415-.417v-2.43c1.455-.07 2.425-.208 3.05-.834.693-.694.832-2.777.832-3.75h.9a1.135 1.135 0 0 0 .762-.486.768.768 0 0 0 .208-.624v-.07c.07-.97-.623-2.082-1.178-3.123Zm.347 3.194v.139c-.07.069-.139.069-.208.139-.485 0-1.247-.07-1.247-.07a.49.49 0 0 0-.416.417c0 1.25-.138 3.194-.554 3.609-.485.486-1.178.625-2.772.625h-.138c-.139 0-.208 0-.277.07-.07.138-.139.207-.139.347v2.43H7.09v-4.375a.382.382 0 0 0-.208-.347c-2.01-1.18-3.05-3.194-3.05-6.042a7.49 7.49 0 0 1 7.553-7.569c3.534 0 7.137 2.361 7.137 6.18 0 .348.277.834.692 1.667.485.834 1.178 1.944 1.11 2.639v.141Zm-6.1-8.187a.452.452 0 0 0-.349.139c-.687.5-1.469.856-2.298 1.042A5.172 5.172 0 0 0 9.07 7.776c-.697.833-.975 1.667-.766 2.362a2.216 2.216 0 0 0 1.189 1.49 15.67 15.67 0 0 0-1.515 3.72c-.07.209.07.417.347.486h.07a.44.44 0 0 0 .417-.347 14.19 14.19 0 0 1 1.316-3.24c.32.496.811.857 1.38 1.016h.28c.696 0 1.462-.487 2.228-1.322 1.045-1.25 1.463-4.586.56-6.462a1.542 1.542 0 0 0-.352-.206h.001Zm-.905 6.114c-.56.762-1.184 1.112-1.672 1.043-.392-.066-.723-.38-1.05-.993a14.315 14.315 0 0 1 2.452-2.97.423.423 0 0 0 0-.556.367.367 0 0 0-.555-.07 14.728 14.728 0 0 0-2.561 3.05 1.737 1.737 0 0 1-.864-.965c-.14-.556.279-1.18.627-1.598a4.941 4.941 0 0 1 2.09-1.042 8.35 8.35 0 0 0 2.228-.904c.488 1.6.14 4.102-.696 5.005Z" clip-rule="evenodd"/>
</svg>
