<svg xmlns="http://www.w3.org/2000/svg" width="24" height="24" fill="none" viewBox="0 0 24 24">
  <path fill="#000" fill-rule="evenodd" d="M14.249 10.178a.755.755 0 0 0-.347-.069.954.954 0 0 0-.277.207l-1.322 2.697a.434.434 0 0 0 .208.553 1.614 1.614 0 0 1 .903 1.452.4.4 0 0 0 .415.415h2.985a.363.363 0 0 0 .277-.139.523.523 0 0 0 .139-.276 5.409 5.409 0 0 0-2.981-4.84Zm-.07 4.425a2.267 2.267 0 0 0-.97-1.521l.97-2.005a4.67 4.67 0 0 1 2.221 3.526h-2.22Zm-.842 1.737a.516.516 0 0 0-.622-.07 1.56 1.56 0 0 1-1.867 0 .516.516 0 0 0-.622.07L8.43 18.753a.507.507 0 0 0 .07.62 5.436 5.436 0 0 0 6.566 0 .513.513 0 0 0 .069-.62l-1.797-2.413Zm-1.59 3.309a4.538 4.538 0 0 1-2.419-.759l1.383-1.723a2.345 2.345 0 0 0 2.142 0l1.313 1.723a4.196 4.196 0 0 1-2.42.759h.001Zm-1.578-4.631a1.613 1.613 0 0 1 .903-1.452.434.434 0 0 0 .208-.553l-1.388-2.697c0-.069-.139-.138-.208-.207a.628.628 0 0 0-.347.07 5.288 5.288 0 0 0-2.984 4.839.4.4 0 0 0 .416.415h2.984a.398.398 0 0 0 .418-.417l-.002.002Zm-2.984-.415a4.674 4.674 0 0 1 2.221-3.526l.972 2.005a2.05 2.05 0 0 0-.972 1.521h-2.22Zm2.987-9.567c1.107-.76 2.281-.276 3.594.276a8.01 8.01 0 0 0 3.11.828c1.383 0 2.973-.69 4.562-2.898a.362.362 0 0 0 .093-.292.364.364 0 0 0-.163-.26.417.417 0 0 0-.553 0c-1.52 1.38-2.972.897-4.7.276-2.073-.69-4.353-1.45-6.496 1.449a.417.417 0 0 0 0 .552.523.523 0 0 0 .552.069h.001Zm5.668-1.311c1.106.414 2.28.828 3.524.62-1.935 1.588-3.593.898-5.252.208a7.768 7.768 0 0 0-2.764-.69h-.07c1.452-1.173 2.903-.69 4.562-.138Zm5.9 17.738c-2.842-4.439-3.327-12.97-3.327-13.106 0-.209-.139-.347-.416-.347H5.52a.44.44 0 0 0-.416.347c0 .138-.416 8.67-3.258 13.106a.438.438 0 0 0 0 .416.462.462 0 0 0 .346.278h19.132a.47.47 0 0 0 .416-.278.44.44 0 0 0 0-.416Zm-18.786-.139c2.286-4.23 2.843-10.82 2.98-12.484H17.65c.07 1.665.694 8.254 2.981 12.485H2.954Zm8.792-7.06a.786.786 0 0 1 .817.817.828.828 0 0 1-.817.816.879.879 0 0 1-.817-.816.829.829 0 0 1 .817-.816v-.002Z" clip-rule="evenodd"/>
</svg>
