<svg xmlns="http://www.w3.org/2000/svg" width="24" height="24" fill="none" viewBox="0 0 24 24">
  <path fill="#000" fill-rule="evenodd" d="M19.616 7.142c-.073-.072-.145-.217-.29-.217-.145-.073-.218 0-.364.072a6.418 6.418 0 0 1-2.54 1.09 7.216 7.216 0 0 0-2.25.871 2.835 2.835 0 0 0-1.307 2.107 2.324 2.324 0 0 0 1 1.85c-.52.68-.982 1.405-1.38 2.164a20.192 20.192 0 0 0-1.881-4.284 3.146 3.146 0 0 0 1.798-2.033c.218-1.018-.145-2.036-1.163-3.199-.872-1.09-2.107-1.454-3.412-1.818a9.716 9.716 0 0 1-3.413-1.6C4.341 2 4.196 2 4.051 2a.988.988 0 0 0-.29.218c-1.381 2.618-.727 7.272.726 9.09 1.016 1.163 2.106 1.818 3.123 1.818a.55.55 0 0 0 .29-.073c.833-.064 1.494-.64 2.038-1.618a21.952 21.952 0 0 1 1.902 4.435H8.697c-.145 0-.218.073-.364.219a.326.326 0 0 0 0 .365l1.75 5.251c0 .219.218.292.364.292h4.375a.4.4 0 0 0 .438-.292l1.749-5.251a.32.32 0 0 0-.073-.365.4.4 0 0 0-.365-.219h-3.466c.358-.764.787-1.494 1.28-2.18a2.24 2.24 0 0 0 1.6 1.227c.119.031.24.056.363.073a3.232 3.232 0 0 0 2.322-1.235c1.236-1.237 1.89-4.579.946-6.613Zm-5.088 13.979H10.81l-1.457-4.376h3.02a.312.312 0 0 0 .042.007c.025 0 .047-.005.07-.007h3.502l-1.458 4.376Zm-6.775-8.868c-.727.072-1.672-.51-2.544-1.527C3.975 9.27 3.394 5.49 4.338 3.09a8.943 8.943 0 0 0 3.199 1.454c1.235.365 2.324.655 3.05 1.6.582.582 1.164 1.527.946 2.4a2.543 2.543 0 0 1-1.393 1.487 20.444 20.444 0 0 0-3.679-4.334.412.412 0 0 0-.581.582 20.329 20.329 0 0 1 3.529 4.265c-.437.994-1.01 1.565-1.656 1.709Zm10.339.918c-.508.51-1.307 1.018-1.96.872-.443-.063-.83-.457-1.163-1.085a7.015 7.015 0 0 1 2.164-1.733.436.436 0 0 0 .145-.582.459.459 0 0 0-.581-.218 8.15 8.15 0 0 0-2.279 1.828 1.543 1.543 0 0 1-.682-1.188 1.994 1.994 0 0 1 .944-1.38 4.57 4.57 0 0 1 1.96-.727c.836-.212 1.64-.529 2.396-.944.435 1.67-.146 4.286-.944 5.157Z" clip-rule="evenodd"/>
</svg>
