<svg xmlns="http://www.w3.org/2000/svg" width="24" height="24" fill="none" viewBox="0 0 24 24">
  <path fill="#000" fill-rule="evenodd" d="m16.581 13.755-1.665-2.32h3.332l-1.667 2.32Zm4.998-3.165h-.416v-.422a.417.417 0 0 0-.834 0v.422h-.832v-.422a.417.417 0 1 0-.833 0v.422h-4.165v-.422a.417.417 0 1 0-.832 0v.422h-.834v-.422a.416.416 0 1 0-.832 0v.422h-.417a.422.422 0 0 0 0 .845h2.29l2.29 3.164v6.541a.417.417 0 0 0 .833 0v-6.543l2.29-3.165h2.29a.422.422 0 1 0 0-.845l.002.003ZM5.754 5.526h4.998L8.253 8.691 5.754 5.526Zm6.039 0h2.29a.422.422 0 0 0 0-.845h-.416V3.417a.417.417 0 0 0-.834 0v1.265h-.832V3.417a.416.416 0 1 0-.833 0v1.265h-5.83V3.417a.416.416 0 1 0-.833 0v1.265h-.833V3.417a.416.416 0 1 0-.833 0v1.265h-.416a.423.423 0 1 0 0 .845h2.29l3.123 4.009V21.14a.416.416 0 1 0 .832 0V9.535l3.125-4.009Z" clip-rule="evenodd"/>
</svg>
