<svg xmlns="http://www.w3.org/2000/svg" width="24" height="24" fill="none" viewBox="0 0 24 24">
  <path fill="#000" fill-rule="evenodd" d="M10.734 9.485a4.215 4.215 0 0 0-4.16 3.825.44.44 0 0 1-.347.416 3.654 3.654 0 0 0-3.398 3.685 3.734 3.734 0 0 0 3.744 3.755h9.152a2.933 2.933 0 0 0 2.912-2.92 2.902 2.902 0 0 0-1.248-2.363.437.437 0 0 1-.14-.556 2.074 2.074 0 0 0-.276-2.086 2.02 2.02 0 0 0-1.943-.765.568.568 0 0 1-.415-.278 4.206 4.206 0 0 0-3.881-2.713ZM15.725 22H6.573a4.587 4.587 0 0 1-.762-9.108 5.058 5.058 0 0 1 4.923-4.24 5.15 5.15 0 0 1 4.575 2.919 2.92 2.92 0 0 1 2.357 1.182 2.984 2.984 0 0 1 .415 2.642 3.558 3.558 0 0 1 1.388 2.85A3.733 3.733 0 0 1 15.725 22ZM11.5 8.183a.257.257 0 0 1-.21-.07.456.456 0 0 1-.138-.555A13.308 13.308 0 0 1 21.533 2a.448.448 0 0 1 .416.417.4.4 0 0 1-.416.417 12.356 12.356 0 0 0-9.687 5.212.527.527 0 0 1-.346.137Zm3.373 1.124a.526.526 0 0 1-.277-.14.428.428 0 0 1 0-.558 9.79 9.79 0 0 1 6.939-3.283.45.45 0 0 1 .416.42.39.39 0 0 1-.347.42 9.215 9.215 0 0 0-6.383 3.003c-.14.068-.209.137-.348.137Zm2.739 2.014a.512.512 0 0 1-.346-.07.53.53 0 0 1 0-.63 7.169 7.169 0 0 1 4.294-1.968.403.403 0 0 1 .415.42.351.351 0 0 1-.345.42 5.398 5.398 0 0 0-3.74 1.757.414.414 0 0 1-.278.071Z" clip-rule="evenodd"/>
</svg>
