<svg xmlns="http://www.w3.org/2000/svg" width="24" height="24" fill="none" viewBox="0 0 24 24">
  <path fill="#000" fill-rule="evenodd" d="M20.227 8.675H4.417A.448.448 0 0 0 4 9.091v12.492a.448.448 0 0 0 .416.417h15.811a.398.398 0 0 0 .39-.255.401.401 0 0 0 .027-.162V9.091a.402.402 0 0 0-.416-.416Zm-.415 12.492H4.832V9.507h14.98v11.66ZM8.162 6.996V6.16a4.16 4.16 0 1 1 8.32 0v.835a.4.4 0 0 1-.415.417.449.449 0 0 1-.416-.417V6.16a3.29 3.29 0 0 0-3.329-3.337A3.334 3.334 0 0 0 8.994 6.16v.835a.4.4 0 0 1-.416.417.448.448 0 0 1-.417-.417Zm6.963 8.83a.366.366 0 0 1 .457.01.342.342 0 0 1 .098.13l1.526 2.908a.44.44 0 0 1 0 .416.531.531 0 0 1-.347.139h-3.001c.425.583.431.593.431.593a.37.37 0 0 1-.068.553c-.069.07-.137.07-.274.07-.136 0-.203 0-.274-.14-.621-.752-.865-1.049-.963-1.169a.372.372 0 0 1-.122-.165.331.331 0 0 1 .058-.397l.033-.04.01-.011.984-1.194a.356.356 0 0 1 .548-.069.362.362 0 0 1 .069.554l-.452.58h2.329l-1.18-2.216a.362.362 0 0 1 .138-.552Zm-4.838-2.58 1.658-2.773a.392.392 0 0 1 .691 0l1.584 2.543.157-.763a.429.429 0 0 1 .548-.28c.203 0 .343.28.274.49l-.412 1.683a.49.49 0 0 1-.305.263.308.308 0 0 1-.092.015.117.117 0 0 1-.014.003h-1.644a.398.398 0 0 1-.41-.42.448.448 0 0 1 .41-.422h.847l-1.288-2.071-1.244 2.15a.385.385 0 0 1-.553.139.438.438 0 0 1-.207-.556Zm-2.9 5.974a.442.442 0 0 1 0-.415l1.693-2.712h-.93a.396.396 0 0 1-.41-.413.443.443 0 0 1 .41-.413h1.645a.373.373 0 0 1 .203.064c.006.002.014.003.02.006.005.003.01.011.017.016a.433.433 0 0 1 .04.04c.08.072.131.172.144.28l.395 1.59a.392.392 0 0 1-.273.482h-.138a.426.426 0 0 1-.41-.275l-.142-.709-1.157 1.835h2.148a.397.397 0 0 1 .415.416.367.367 0 0 1-.415.417h-2.91a.382.382 0 0 1-.344-.209Z" clip-rule="evenodd"/>
</svg>
