<svg xmlns="http://www.w3.org/2000/svg" width="24" height="24" fill="none" viewBox="0 0 24 24">
  <path fill="#000" fill-rule="evenodd" d="M11.573 15.296H7.01a16.92 16.92 0 0 1 1.01-1.266h1.453a.379.379 0 0 0 .345-.21.433.433 0 0 0 0-.414L7.33 9.67a.38.38 0 0 0-.345-.21H2.419a.43.43 0 0 0-.415.277.509.509 0 0 0 .138.415l.9.968a2.327 2.327 0 0 0-.622 1.66c0 1.107 1.521 4.289 2.697 6.157.086.18.203.344.345.484.01.01.02.01.031.018.402.432.94.713 1.523.797h4.557a.445.445 0 0 0 .415-.411v-4.121a.445.445 0 0 0-.415-.409Zm-8.324-2.51a1.612 1.612 0 0 1 .623-1.314.37.37 0 0 0 .209-.277c0-.138 0-.277-.139-.346l-.484-.553h3.32l1.935 2.905h-.9a.362.362 0 0 0-.276.138 10.245 10.245 0 0 0-2.49 3.874c-.966-1.8-1.797-3.805-1.797-4.428v.001Zm7.91 6.632H7.016a1.679 1.679 0 0 1-.966-.618l-.21-.48-.037.016c-.068-.411.016-1.113.664-2.214h4.69l.002 3.296Zm10.747-5.966a1.954 1.954 0 0 0-.118-1.485l-2.695-3.856c-.07-.069-.138-.138-.21-.138a.52.52 0 0 0-.345.069l-3.593 2.479a.968.968 0 0 0-.21.275c0 .07.07.21.07.276l2.443 3.477c-.35-.014-.732-.042-1.146-.087v-.829a.467.467 0 0 0-.277-.414c-.209-.07-.346 0-.485.209l-2.494 3.73a.434.434 0 0 0 0 .414l2.354 4.144a.38.38 0 0 0 .346.21h.07a.439.439 0 0 0 .346-.416l.069-1.312a2.041 2.041 0 0 0 1.731-.276c.832-.622 2.563-3.523 3.74-5.664a2.49 2.49 0 0 0 .328-.534l.021-.032v-.012a.463.463 0 0 1 .068-.113.473.473 0 0 0-.012-.116l-.001.001Zm-4.623 5.776a1.158 1.158 0 0 1-1.316 0c-.138-.069-.346-.138-.415-.069a.459.459 0 0 0-.278.345l-.069.622-1.524-2.763 1.593-2.418c.07.21.21.345.347.345 2.147.277 3.532.14 4.433-.137-1.316 2.21-2.285 3.728-2.77 4.074l-.001.001Zm1-4.677-2.507-3.617 2.902-1.997 2.419 3.444a1.016 1.016 0 0 1 0 .895l-.209.482-.006.013c-.298.3-1.008.71-2.598.779v.001ZM9.356 9.63c.07 0 .07.07.138.07a.242.242 0 0 0 .139-.07c.139 0 .21-.07.277-.21l1.735-3.646c.197.373.401.794.609 1.27l-.965.825a.654.654 0 0 0-.138.481.565.565 0 0 0 .413.275h4.55a.38.38 0 0 0 .345-.206l2.481-4.608c.138-.138.07-.344 0-.482a.424.424 0 0 0-.483-.068l-1.24.412a2.427 2.427 0 0 0-1.172-1.237c-.935-.4-4.131-.477-6.896-.419V2h-.555a2.294 2.294 0 0 0-1.454.972L5.2 7.202a.523.523 0 0 0-.069.346.94.94 0 0 0 .277.21L9.356 9.63Zm6.275-6.437a1.336 1.336 0 0 1 .896 1.098c.018.104.066.2.138.275a.456.456 0 0 0 .414.07l.62-.276-1.861 3.44h-3.171l.345-.344a.455.455 0 0 0 .138-.481c-.965-2.201-1.862-3.44-2.62-4.127 2.759.001 4.62.07 5.103.345h-.002Zm-7.73.126c.199-.24.473-.405.778-.47h.127c.314.052 1.194.27 2.327 2.048-.161.333-.607 1.255-1.848 3.83L6.1 7.203 7.9 3.32Z" clip-rule="evenodd"/>
</svg>
