<svg xmlns="http://www.w3.org/2000/svg" width="24" height="24" fill="none" viewBox="0 0 24 24">
  <path fill="#000" fill-rule="evenodd" d="M13.762 15.438c.636-.214 1.13-.847 1.343-1.835.424-1.694-.706-5.082-2.543-6.423a.316.316 0 0 0-.353 0c-.142 0-.215.07-.283.214a7.575 7.575 0 0 1-1.696 2.188c-.706.635-1.483 1.34-1.695 2.4-.214.988-.142 1.765.353 2.258a2.24 2.24 0 0 0 2.164.489c.007.428.024.865.06 1.337a.448.448 0 0 0 .423.353h.072a.353.353 0 0 0 .353-.423 26.09 26.09 0 0 1-.036-.935 2.62 2.62 0 0 0 1.344.452c.168.015.338-.01.494-.075Zm-4.239-1.765a1.574 1.574 0 0 1-.141-1.483c.141-.776.777-1.341 1.413-1.976a11.825 11.825 0 0 0 1.696-1.976c1.271 1.27 2.12 3.882 1.837 5.152-.142.494-.353 1.13-.848 1.27-.328.132-.903-.106-1.552-.652.047-1.523.281-2.671.737-3.378a.458.458 0 0 0-.141-.635.55.55 0 0 0-.566.14 7.374 7.374 0 0 0-.903 3.74c-.753.132-1.282.049-1.532-.201v-.001Zm12.331.57c-.07 0-.213.072-.282.072a.39.39 0 0 1-.354-.214L19.7 11.849a7.683 7.683 0 0 1-5.919 7.169 8.014 8.014 0 0 1-1.765.214 7.654 7.654 0 0 1-5.366-2.185.527.527 0 0 1 0-.635.428.428 0 0 1 .565 0 6.67 6.67 0 0 0 6.355 1.762 6.968 6.968 0 0 0 5.317-6.777l-2.056 2.495a.437.437 0 0 1-.566.07.455.455 0 0 1-.07-.637l2.627-3.185a.451.451 0 0 1 .255-.214.724.724 0 0 1 .1.013c.02-.006.04-.01.06-.013a.388.388 0 0 1 .353.214l2.334 3.47a.527.527 0 0 1-.07.635v-.001ZM5.056 14.06a.363.363 0 0 1-.192.096.117.117 0 0 1-.038.015h-.019c-.012 0-.024-.008-.037-.01a.391.391 0 0 1-.208-.086l-.004-.005a.35.35 0 0 1-.107-.11l-2.407-3.523a.459.459 0 0 1 .141-.563.371.371 0 0 1 .566.14l1.391 2.055a8.011 8.011 0 0 1 1.102-4.183 8.218 8.218 0 0 1 5.006-3.674 7.629 7.629 0 0 1 7.474 2.331.447.447 0 0 1-.071.636.375.375 0 0 1-.564-.07 6.92 6.92 0 0 0-6.628-2.12 7.675 7.675 0 0 0-4.513 3.32 7.09 7.09 0 0 0-.878 4.421l2.137-2.504a.375.375 0 0 1 .566-.07.444.444 0 0 1 .07.634l-2.62 3.078a.354.354 0 0 1-.17.193h.003Z" clip-rule="evenodd"/>
</svg>
