<svg xmlns="http://www.w3.org/2000/svg" width="24" height="24" fill="none" viewBox="0 0 24 24">
  <path fill="#000" fill-rule="evenodd" d="M21.532 11.179h-3.755V9.91a.4.4 0 0 0-.415-.417h-3.189a3.348 3.348 0 0 0 1.122-2.497v-.828h2.068a.398.398 0 0 0 .414-.417V4.084a.4.4 0 0 0-.415-.417h-2.074v-1.25A.4.4 0 0 0 14.873 2H9.067a.447.447 0 0 0-.415.417v1.25H6.578a.447.447 0 0 0-.415.417v1.667a.448.448 0 0 0 .415.417h2.067v.828a3.35 3.35 0 0 0 1.15 2.497H6.578a.447.447 0 0 0-.415.417v1.269h-3.75a.398.398 0 1 0 0 .796h3.75v1.27a.448.448 0 0 0 .415.416h2.074v3.751a.447.447 0 0 0 .415.417h1.264v3.75a.448.448 0 0 0 .416.42h2.494a.4.4 0 0 0 .415-.42v-3.75h1.217a.402.402 0 0 0 .388-.255.4.4 0 0 0 .027-.162v-3.75h2.074a.4.4 0 0 0 .415-.418v-1.268h3.754a.398.398 0 1 0 0-.796v-.001ZM6.993 4.5h2.074a.398.398 0 0 0 .415-.417v-1.25h4.976v1.25a.447.447 0 0 0 .415.417h2.074v.834h-2.02a.461.461 0 0 0-.048-.01h-5.82a.35.35 0 0 0-.038.01H6.992l.001-.834Zm2.483 2.495v-.828h4.987v.828a2.484 2.484 0 0 1-2.414 2.497h-.151a2.53 2.53 0 0 1-2.422-2.497Zm3.349 14.166h-1.662v-3.333h1.662v3.333Zm4.122-8.335h-2.073a.447.447 0 0 0-.415.417v3.751h-1.17a.435.435 0 0 0-.048-.009h-2.494a.313.313 0 0 0-.04.01H9.483v-3.752a.4.4 0 0 0-.415-.417H6.994v-1.175a.217.217 0 0 0 0-.15v-1.175h4.8c.058.003.118.01.177.01.06 0 .122-.007.184-.01h4.793v2.5Z" clip-rule="evenodd"/>
</svg>
