<svg xmlns="http://www.w3.org/2000/svg" width="24" height="24" fill="none" viewBox="0 0 24 24">
  <path fill="#000" fill-rule="evenodd" d="M11.98 6.343a5.657 5.657 0 1 0-.042 11.313 5.657 5.657 0 0 0 .042-11.313Zm0 12.185A6.527 6.527 0 1 1 18.484 12a6.535 6.535 0 0 1-6.504 6.528Zm0 3.472a.473.473 0 0 1-.438-.439v-1.76a.474.474 0 0 1 .438-.438.422.422 0 0 1 .439.438v1.76a.422.422 0 0 1-.439.439Zm6.936-2.64a.541.541 0 0 1-.285-.143l-1.276-1.278a.431.431 0 0 1 0-.567.333.333 0 0 1 .446-.117c.05.028.091.068.121.117l1.277 1.277a.333.333 0 0 1 .118.447.333.333 0 0 1-.118.121.367.367 0 0 1-.283.142Zm2.608-6.944h-1.728a.415.415 0 0 1-.308-.718.416.416 0 0 1 .308-.113h1.728a.415.415 0 0 1 .403.58.417.417 0 0 1-.403.25Zm-3.885-5.623a.528.528 0 0 1-.284-.146.448.448 0 0 1 0-.58l1.276-1.306a.33.33 0 0 1 .568 0 .345.345 0 0 1 .118.456.344.344 0 0 1-.118.125l-1.277 1.305a.365.365 0 0 1-.283.146Zm-5.659-2.2a.469.469 0 0 1-.438-.433V2.432A.47.47 0 0 1 11.98 2a.42.42 0 0 1 .439.432V4.16a.418.418 0 0 1-.439.432Zm-5.642 2.2a.549.549 0 0 1-.29-.146L4.742 5.342a.442.442 0 0 1 0-.581.34.34 0 0 1 .581 0L6.63 6.067a.34.34 0 0 1 0 .58.376.376 0 0 1-.29.146Zm-2.173 5.623H2.437A.414.414 0 0 1 2 12a.416.416 0 0 1 .437-.415h1.728a.414.414 0 0 1 .438.415.416.416 0 0 1-.438.416Zm.868 6.943a.554.554 0 0 1-.291-.142.425.425 0 0 1 0-.568l1.306-1.277a.345.345 0 0 1 .581 0 .33.33 0 0 1 0 .567l-1.306 1.278a.38.38 0 0 1-.29.142Z" clip-rule="evenodd"/>
</svg>
