<svg xmlns="http://www.w3.org/2000/svg" width="24" height="24" fill="none" viewBox="0 0 24 24">
  <path fill="#000" fill-rule="evenodd" d="M10.29 19.482h2.488v-3.74a.397.397 0 0 1 .415-.417h.966l-2.696-2.355-2.625 2.355h1.036a.447.447 0 0 1 .415.416l.002 3.741Zm2.903.832H9.876a.398.398 0 0 1-.414-.416v-3.741h-1.73a.468.468 0 0 1-.413-.277.461.461 0 0 1 .137-.485l3.731-3.326a.418.418 0 0 1 .554 0l3.731 3.326a.457.457 0 0 1 .138.485.467.467 0 0 1-.414.277h-1.59v3.74a.447.447 0 0 1-.413.418v-.001Zm-6.71-5.409a.416.416 0 0 1-.415-.208 7 7 0 0 1-.83-3.123 6.228 6.228 0 1 1 12.456 0 6.932 6.932 0 0 1-.763 3.123.448.448 0 0 1-.623.139.374.374 0 0 1-.138-.555c.47-.824.71-1.76.692-2.707a5.398 5.398 0 1 0-10.796 0 5.32 5.32 0 0 0 .763 2.707.541.541 0 0 1-.139.555.254.254 0 0 1-.206.07h-.001ZM11.467 4.53a.453.453 0 0 1-.42-.421V2.422a.453.453 0 0 1 .42-.422.406.406 0 0 1 .421.422v1.686a.408.408 0 0 1-.423.423l.002-.002Zm5.351 2.108c-.137 0-.206 0-.274-.068a.378.378 0 0 1 0-.61l1.098-1.153a.52.52 0 0 1 .619 0 .5.5 0 0 1 0 .61L17.09 6.57a.418.418 0 0 1-.274.068l.001-.001Zm3.793 5.34h-1.57a.398.398 0 0 1 0-.796h1.57a.398.398 0 1 1 0 .796Zm-2.625 6.463c-.137 0-.206 0-.275-.07l-1.17-1.18a.392.392 0 0 1 0-.625.415.415 0 0 1 .55 0l1.17 1.18a.523.523 0 0 1 0 .626.41.41 0 0 1-.276.07h.001Zm-12.94 0a.42.42 0 0 1-.278-.07.519.519 0 0 1 0-.624l1.18-1.18a.422.422 0 0 1 .556 0 .518.518 0 0 1 0 .624l-1.18 1.18c-.07.07-.14.07-.28.07h.002Zm-1.06-6.463h-1.57a.397.397 0 0 1-.28-.68.397.397 0 0 1 .28-.116h1.57a.397.397 0 0 1 .281.68.397.397 0 0 1-.28.116Zm2.24-5.245a.361.361 0 0 1-.277-.137l-1.181-1.17a.415.415 0 0 1 0-.55.328.328 0 0 1 .556 0l1.18 1.1a.509.509 0 0 1 0 .618.527.527 0 0 1-.28.139h.002ZM20.606 22H2.422a.422.422 0 1 1 0-.843h18.184a.421.421 0 1 1 0 .843Z" clip-rule="evenodd"/>
</svg>
