<svg xmlns="http://www.w3.org/2000/svg" width="24" height="24" fill="none" viewBox="0 0 24 24">
  <path fill="#000" fill-rule="evenodd" d="m8.87 16.98 2.701 2.36 2.633-2.36h-.97a.4.4 0 0 1-.415-.418v-3.75h-2.492v3.75a.448.448 0 0 1-.415.417H8.87Zm2.701 3.334a.36.36 0 0 1-.277-.14l-3.74-3.334a.335.335 0 0 1-.14-.417.38.38 0 0 1 .417-.277h1.662v-3.752a.4.4 0 0 1 .416-.417h3.326a.447.447 0 0 1 .414.417v3.75h1.664a.356.356 0 0 1 .346.278c.07.14.07.348-.07.418l-3.74 3.334c-.141.07-.21.141-.28.141l.002-.001Zm-5.063-5.409a.38.38 0 0 1-.346-.208 6.23 6.23 0 1 1 10.796 0 .38.38 0 0 1-.553.139.465.465 0 0 1-.208-.555 5.32 5.32 0 0 0 .763-2.707 5.399 5.399 0 0 0-10.797 0 5.256 5.256 0 0 0 .693 2.707.375.375 0 0 1-.139.555.254.254 0 0 1-.21.07h.001ZM11.561 4.53a.408.408 0 0 1-.422-.42V2.421A.407.407 0 0 1 11.561 2a.453.453 0 0 1 .421.422v1.686a.453.453 0 0 1-.423.423l.002-.002Zm5.287 2.108a.427.427 0 0 1-.278-.068.5.5 0 0 1 0-.61l1.18-1.153a.43.43 0 0 1 .556 0 .496.496 0 0 1 0 .61l-1.18 1.154c-.072.068-.142.068-.28.068l.002-.001Zm3.852 5.34h-1.654a.398.398 0 0 1-.386-.555.396.396 0 0 1 .386-.241H20.7a.4.4 0 0 1 .42.398.4.4 0 0 1-.42.398Zm-2.69 6.463c-.137 0-.205 0-.274-.07l-1.17-1.18a.526.526 0 0 1 0-.625.415.415 0 0 1 .55 0l1.17 1.18a.393.393 0 0 1 0 .626.41.41 0 0 1-.277.07h.002Zm-12.969 0a.41.41 0 0 1-.274-.07.523.523 0 0 1 0-.624l1.17-1.18a.415.415 0 0 1 .549 0 .392.392 0 0 1 0 .624l-1.1 1.18a.614.614 0 0 1-.347.07h.002Zm-1.017-6.463h-1.6a.4.4 0 0 1-.387-.555.398.398 0 0 1 .387-.241h1.6a.4.4 0 0 1 .42.398.4.4 0 0 1-.42.398Zm2.184-5.245a.356.356 0 0 1-.274-.137l-1.17-1.17a.418.418 0 0 1 0-.55.385.385 0 0 1 .618 0l1.1 1.1a.386.386 0 0 1 0 .618.356.356 0 0 1-.275.14h.001ZM20.698 22H2.422a.423.423 0 0 1-.299-.72.422.422 0 0 1 .299-.123h18.276a.421.421 0 0 1 0 .843Z" clip-rule="evenodd"/>
</svg>
