<svg xmlns="http://www.w3.org/2000/svg" width="24" height="24" fill="none" viewBox="0 0 24 24">
  <path fill="#000" fill-rule="evenodd" d="M18.665 8.846c.208.21.624.422.832.632v3.795h-.832V8.846Zm-.834 8.648h-.834v-3.375h.833l.001 3.375Zm1.666 1.687h-4.164v-.844h4.164v.844Zm-4.164-5.906V8.848c.314-.158.596-.372.833-.632v5.057l-.833.002ZM7.836 8.213c.209.21.626.422.834.632v4.427h-.834V8.213Zm-.832 9.28H6.17V14.12h.833v3.375Zm1.666 1.688H4.505v-.844H8.67v.844Zm-4.165-5.906V9.478c.314-.158.597-.372.833-.632v4.427l-.833.002Zm2.29-6.539c0 .211.208.211.208.422v6.115h-.832V7.789c.254-.322.464-.677.625-1.054l-.001.001Zm3.54 6.539h-.833V9.478c.208 0 .624.211.832.211v3.586ZM12.832 9.9v3.373h-1.666V9.898h1.667V9.9Zm1.666-.422v3.795h-.833V9.687c.418 0 .626-.209.834-.209h.001Zm2.915-2.742c.007.39.155.765.416 1.055v5.482h-.833V7.157l.417-.42Zm4.164 6.539h-1.249V9.689a2.6 2.6 0 0 0 1.249.211.423.423 0 1 0 0-.844c-2.706 0-3.75-2.32-3.75-4.64a.416.416 0 1 0-.832 0c0 2.53-2.29 4.64-4.997 4.64a6.337 6.337 0 0 1-2.706-.632v-.21c-1.25-.844-2.29-2.11-2.29-3.797a.416.416 0 1 0-.833 0c0 1.897-.625 3.796-2.29 4.43-.462.187-.962.26-1.458.21a.423.423 0 1 0 0 .844c.427.033.856-.04 1.249-.211v3.583H2.422a.423.423 0 0 0 0 .844h2.915v3.374h-1.25a.452.452 0 0 0-.416.422v1.688a.451.451 0 0 0 .416.422h4.997a.451.451 0 0 0 .417-.422v-1.688a.452.452 0 0 0-.417-.422h-1.25v-3.374h8.33v3.374h-1.251a.452.452 0 0 0-.417.422v1.688a.451.451 0 0 0 .417.422h4.997a.452.452 0 0 0 .417-.422v-1.688a.451.451 0 0 0-.417-.422h-1.25v-3.374h2.915a.422.422 0 1 0 0-.844l.003.002Z" clip-rule="evenodd"/>
</svg>
