<svg xmlns="http://www.w3.org/2000/svg" width="24" height="24" fill="none" viewBox="0 0 24 24">
  <path fill="#000" fill-rule="evenodd" d="M13.786 15.115V4.084A2.08 2.08 0 0 0 11.72 2a2.037 2.037 0 0 0-2.067 2.084v11.031A3.765 3.765 0 0 0 8 18.236a3.72 3.72 0 1 0 7.44 0 3.766 3.766 0 0 0-1.654-3.12ZM11.72 21.15a2.92 2.92 0 0 1-2.893-2.913 2.833 2.833 0 0 1 1.447-2.497.382.382 0 0 0 .206-.348V4.085a1.24 1.24 0 1 1 2.48 0V15.39a.382.382 0 0 0 .206.348 2.835 2.835 0 0 1 1.448 2.497 2.921 2.921 0 0 1-2.895 2.913v.002Zm.397-4.103V8.266a.399.399 0 1 0-.795 0v8.78a1.241 1.241 0 1 0 .795 0Zm-.397 1.583a.41.41 0 0 1-.032-.82c.01 0 .021.008.032.008.01 0 .021-.006.032-.007a.41.41 0 0 1-.032.819Z" clip-rule="evenodd"/>
</svg>
