<svg xmlns="http://www.w3.org/2000/svg" width="24" height="24" fill="none" viewBox="0 0 24 24">
  <path fill="#000" fill-rule="evenodd" d="M21.86 13.251a.754.754 0 0 0-.348-.07c-1.805.347-2.916-1.387-2.986-1.456a.395.395 0 0 0-.694 0 3.287 3.287 0 0 1-2.639 1.526 3.482 3.482 0 0 1-2.707-1.526.395.395 0 0 0-.695 0 3.287 3.287 0 0 1-2.638 1.526c-1.667 0-2.638-1.526-2.708-1.526-.139-.208-.487-.278-.626-.07-.07.07-1.597 1.943-3.333 1.596-.139-.07-.209 0-.348.07a.528.528 0 0 0-.138.277v5.818c0 .138 0 .208.138.277.07.138.14.138.279.138h19.165a.4.4 0 0 0 .418-.415v-5.818a.53.53 0 0 0-.14-.347Zm-15.763-.624a4.112 4.112 0 0 0 3.055 1.456 3.943 3.943 0 0 0 2.986-1.456 4.25 4.25 0 0 0 3.055 1.456 3.946 3.946 0 0 0 2.986-1.456 3.651 3.651 0 0 0 2.986 1.456v2.464c-1.6.083-2.573-1.432-2.638-1.497a.394.394 0 0 0-.694 0 3.288 3.288 0 0 1-2.64 1.526 3.482 3.482 0 0 1-2.707-1.526.395.395 0 0 0-.694 0 3.287 3.287 0 0 1-2.639 1.526c-1.666 0-2.638-1.526-2.708-1.526-.139-.208-.486-.277-.625-.07-.065.065-1.399 1.695-2.986 1.634v-2.53c1.457.069 2.707-.902 3.263-1.457ZM21.165 19H2.833v-1.592c1.458.07 2.708-.9 3.264-1.455a4.113 4.113 0 0 0 3.055 1.455 3.948 3.948 0 0 0 2.986-1.455 4.252 4.252 0 0 0 3.055 1.455 3.948 3.948 0 0 0 2.986-1.455 3.652 3.652 0 0 0 2.986 1.455V19Zm-8.607-9.649a.388.388 0 0 1 0-.623.422.422 0 0 1 .555 0l1.392 1.39V4.417A.39.39 0 0 1 14.903 4a.438.438 0 0 1 .398.417v5.724l1.414-1.412a.422.422 0 0 1 .555 0 .517.517 0 0 1 0 .622l-2.08 2.074a.417.417 0 0 1-.276.07h-.018c-.124 0-.194-.003-.26-.069l-2.078-2.075Zm-5.808 0a.387.387 0 0 1 0-.623.422.422 0 0 1 .555 0l1.346 1.343V4.417A.402.402 0 0 1 9.072 4a.45.45 0 0 1 .421.417v5.724l1.415-1.412a.422.422 0 0 1 .554 0 .516.516 0 0 1 0 .622l-2.078 2.074a.416.416 0 0 1-.278.07h-.034c-.009 0-.013-.003-.021-.003a.495.495 0 0 1-.134-.02.318.318 0 0 1-.221-.18L6.75 9.353Z" clip-rule="evenodd"/>
</svg>
