<svg xmlns="http://www.w3.org/2000/svg" width="24" height="24" fill="none" viewBox="0 0 24 24">
  <path fill="#000" fill-rule="evenodd" d="M19.638 2.843H3.42a.421.421 0 1 1 0-.843h16.217a.422.422 0 0 1 0 .843Zm2.055 2.085a.437.437 0 0 0-.416-.399H6.325a.399.399 0 1 0 0 .797h14.953a.438.438 0 0 0 .415-.398Zm-2.06 2.505a.45.45 0 0 0-.417-.42H8.386a.421.421 0 0 0 0 .843h10.83a.45.45 0 0 0 .416-.423Zm-2.108 2.482a.45.45 0 0 0-.415-.42H5.482a.421.421 0 0 0 0 .844H17.11a.45.45 0 0 0 .415-.424Zm1.264 2.482a.45.45 0 0 0-.415-.42H9.229a.42.42 0 1 0 0 .84h9.145a.45.45 0 0 0 .415-.42Zm1.687 2.506a.44.44 0 0 0-.417-.398h-7.504a.398.398 0 1 0 0 .796h7.504a.438.438 0 0 0 .417-.398Zm1.216 2.506a.45.45 0 0 0-.416-.42h-5.819a.421.421 0 0 0 0 .843h5.82a.452.452 0 0 0 .416-.423Zm-1.639 2.482a.45.45 0 0 0-.416-.42h-2.915a.421.421 0 0 0 0 .843h2.915a.451.451 0 0 0 .417-.423Zm-2.903 1.686a.454.454 0 0 0-.42-.42h-1.686a.42.42 0 1 0 0 .843h1.686a.454.454 0 0 0 .42-.423Z" clip-rule="evenodd"/>
</svg>
