<svg xmlns="http://www.w3.org/2000/svg" width="24" height="24" fill="none" viewBox="0 0 24 24">
  <path fill="#000" fill-rule="evenodd" d="m15.822 11.994-.224-.454V8.814l3.568 3.18H15.82Zm-.224 2.045-3.122 1.818-3.346-1.818.446-1.136h5.576l.446 1.136Zm-2.23 2.272 2.676-1.363 1.338 3.862-4.014-2.5Zm-6.022 2.5 1.562-3.861 2.676 1.363-4.238 2.499Zm-1.784-6.815 3.791-3.18v2.726l-.223.454H5.562Zm0-5.452 3.791-3.18v3.18h-3.79Zm10.036 0v-3.18l3.568 3.18h-3.569Zm-5.576 5.225 2.454-3.862 2.23 3.862v.227h-4.683l-.001-.227Zm1.784-4.771-1.56 2.954V4.045l1.56 2.953Zm.67-.909-2.007-3.18h3.79l-1.783 3.18Zm2.23 3.863L12.92 6.998l1.785-2.953v5.907Zm.892-2.272v-.228h4.907c.224 0 .224-.227.447-.227a.846.846 0 0 0-.224-.681L15.376 2H9.353L4 6.544v.681c.12.123.277.203.447.227h4.906v.228L4 11.996v.682c.12.123.277.203.447.227h4.238l-3.346 8.407c-.223.227 0 .455.223.682a.81.81 0 0 0 .669-.227l.67-1.818 5.575-2.953 5.576 2.953.67 1.818c0 .227.222.227.445.227.224-.227.447-.455.447-.682l-3.569-8.407h4.461c.224 0 .224-.227.447-.227a.845.845 0 0 0-.223-.682L15.597 7.68Z" clip-rule="evenodd"/>
</svg>
