<svg xmlns="http://www.w3.org/2000/svg" width="24" height="24" fill="none" viewBox="0 0 24 24">
  <path fill="#000" fill-rule="evenodd" d="M21.082 11.933v9.658a.434.434 0 0 1-.408.409.615.615 0 0 1-.409-.409v-9.658c0-5.033-3.954-9.114-8.724-9.114s-8.723 4.08-8.723 9.114v9.658a.409.409 0 0 1-.818 0v-9.658C2 6.492 6.225 2 11.541 2c5.316 0 9.541 4.492 9.541 9.933ZM6.908 19.415l.68-1.632h8.04l.546 1.632H6.908Zm2.59-9.115c0-1.496.817-2.448 2.043-2.448 1.226 0 2.045.952 2.045 2.448v1.633H9.497V10.3Zm-.138 2.45h4.363l.68 1.768H8.676l.683-1.769Zm-.953 2.584h6.269l.545 1.632h-7.36l.546-1.632Zm5.997-2.993V10.3c0-1.904-1.227-3.264-2.863-3.264s-2.862 1.36-2.862 3.265v2.039l-3.407 9.114c0 .136.136.409.272.409l.135.136c.273 0 .41-.137.41-.273l.545-1.496h9.814l.545 1.496c0 .136.272.273.409.273l.136-.136c.136 0 .273-.273.273-.409l-3.407-9.114Z" clip-rule="evenodd"/>
</svg>
