<svg xmlns="http://www.w3.org/2000/svg" width="24" height="24" fill="none" viewBox="0 0 24 24">
  <path fill="#000" fill-rule="evenodd" d="M18.647 6.634a9.53 9.53 0 0 0-6.488-2.947V2.421a.456.456 0 0 0-.428-.42.406.406 0 0 0-.428.42v1.267a9.555 9.555 0 0 0-6.536 2.946 10.393 10.393 0 0 0-2.747 7.702.353.353 0 0 0 .422.353.404.404 0 0 0 .396-.26.406.406 0 0 0 .027-.164 1.2 1.2 0 0 1 .352-.775 1.747 1.747 0 0 1 1.269-.495c1.69 0 1.76 1.2 1.76 1.344a.333.333 0 0 0 .353.353.311.311 0 0 0 .423-.283 2.187 2.187 0 0 1 2.184-1.412 2.085 2.085 0 0 1 2.097 1.347v6.241a1.386 1.386 0 0 0 1.475 1.412 1.424 1.424 0 0 0 1.475-1.412.455.455 0 0 0-.42-.423.405.405 0 0 0-.422.423.636.636 0 0 1-1.264 0v-6.2c.19-.315.93-1.395 2.133-1.395 1.409 0 2.113 1.483 2.113 1.483.07.142.282.283.422.212a.323.323 0 0 0 .353-.282c.07-.07.422-1.413 1.761-1.413a1.785 1.785 0 0 1 1.69 1.413c0 .212.212.282.424.282a.395.395 0 0 0 .422-.353 10.736 10.736 0 0 0-2.818-7.698Zm.282 5.509a2.421 2.421 0 0 0-2.184 1.271 3.367 3.367 0 0 0-2.466-1.271 3.066 3.066 0 0 1-5.073 0 3.364 3.364 0 0 0-2.466 1.06 2.553 2.553 0 0 0-2.254-1.06 2.935 2.935 0 0 0-1.62.494A9.759 9.759 0 0 1 5.4 7.2a8.71 8.71 0 0 1 6.285-2.682c.015 0 .027.006.044.006a.443.443 0 0 0 .045-.007A8.671 8.671 0 0 1 18.011 7.2a9.508 9.508 0 0 1 2.537 5.58 2.415 2.415 0 0 0-1.62-.636Z" clip-rule="evenodd"/>
</svg>
