<svg xmlns="http://www.w3.org/2000/svg" width="24" height="24" fill="none" viewBox="0 0 24 24">
  <path fill="#000" fill-rule="evenodd" d="M17.094 17.196 12.878 4.52a.386.386 0 0 0-.421-.282h-.006V2.422a.41.41 0 0 0-.428-.421.458.458 0 0 0-.429.421V4.24a.358.358 0 0 0-.332.28L7.046 17.196c-.07.14-.07.281.07.352a.377.377 0 0 0 .282.211h4.196v2.836a1.419 1.419 0 0 0 1.476 1.402 1.38 1.38 0 0 0 1.476-1.402.404.404 0 0 0-.422-.42.453.453 0 0 0-.42.42.637.637 0 0 1-1.266 0v-2.836h4.235a.386.386 0 0 0 .352-.21.31.31 0 0 0 .069-.353Zm-9.064-.282 3.934-11.83h.006a.392.392 0 0 0 .052.01.47.47 0 0 0 .062-.01h.091l3.935 11.83H8.03Z" clip-rule="evenodd"/>
</svg>
