<svg xmlns="http://www.w3.org/2000/svg" width="24" height="24" fill="none" viewBox="0 0 24 24">
  <path fill="#000" fill-rule="evenodd" d="M21.584 21.117h-7.921v-6.203c.97.933 2.363 1.934 3.963 1.988h.14a4.363 4.363 0 0 0 3.256-1.53h.069a.761.761 0 0 0 .277-.624.66.66 0 0 0-.416-.695l-7.24-3.36c.654-1.216 1.77-3.74.922-5.96-.485-1.247-1.456-2.08-2.981-2.635h-.07a.869.869 0 0 0-.623-.07c-.21.14-.624.417-.624.764v7.787c-2.012-.482-4.529-.49-6.178.77a4.568 4.568 0 0 0-1.738 3.86v.07a.83.83 0 0 0 .21.62.79.79 0 0 0 .556.206h.278l6.874-2.509v7.521H2.417a.402.402 0 0 0-.417.42.45.45 0 0 0 .417.42h19.166a.45.45 0 0 0 .417-.42.4.4 0 0 0-.416-.42Zm-1.116-6.3a3.654 3.654 0 0 1-2.842 1.25c-1.689-.068-3.244-1.523-3.963-2.431v-2.043l6.805 3.153v.07ZM11.238 2.86h.14c1.317.486 2.149 1.179 2.495 2.15.586 1.599-.055 3.522-.572 4.673A1.665 1.665 0 0 0 12 9.03c-.293.003-.58.085-.83.24V2.93a.057.057 0 0 1 .004-.026.067.067 0 0 1 .065-.043Zm-7.98 12.417v-.069a3.728 3.728 0 0 1 1.388-3.171c1.514-1.11 3.962-1.045 5.693-.625v1.255l-7.082 2.61ZM11.17 10.7v-.002a.83.83 0 1 1 1.663.005V21.12H11.17V10.7Z" clip-rule="evenodd"/>
</svg>
