<svg xmlns="http://www.w3.org/2000/svg" width="24" height="24" fill="none" viewBox="0 0 24 24">
  <path fill="#000" fill-rule="evenodd" d="M21.075 21.201h-3.318v-8.407h.368c.736 0 1.288-.533 1.288-1.24 0-.619-.552-1.151-1.288-1.151h-.368v-.799h.368c.736 0 1.288-.62 1.288-1.418 0-.707-.552-1.326-1.288-1.326h-.368v-.8h.368c.736 0 1.288-.532 1.288-1.24 0-.706-.552-1.238-1.288-1.238h-.368v-.799h3.318v18.419ZM2.828 2.8h3.41v.798H5.87c-.736 0-1.38.533-1.38 1.24 0 .706.644 1.239 1.38 1.239h.368v.798H5.87c-.736 0-1.38.62-1.38 1.326 0 .799.644 1.419 1.38 1.419h.368v8.32H5.87c-.736 0-1.38.62-1.38 1.24 0 .706.644 1.238 1.38 1.238h.368v.799h-3.41V2.799Zm8.293 16.815c-.184 0-.368-.18-.368-.44 0-.18.184-.354.368-.354h1.656c.369 0 .46.179.46.353 0 .267-.091.44-.46.44h-1.656Zm0-3.364c-.184 0-.368-.18-.368-.44 0-.262.184-.441.368-.441h1.656c.369 0 .46.179.46.44 0 .262-.091.44-.46.44h-1.656Zm0-10.973c-.184 0-.368-.266-.368-.44 0-.175.184-.441.368-.441h1.656c.369 0 .46.266.46.44 0 .175-.091.44-.46.44h-1.656ZM7.619 4.39c.368 0 .46.266.46.44 0 .175-.092.441-.46.441H5.87c-.276 0-.46-.266-.46-.44 0-.175.184-.44.46-.44h1.75Zm0 3.364c.368 0 .46.266.46.44 0 .267-.092.441-.46.441H5.87c-.276 0-.46-.18-.46-.44 0-.18.184-.44.46-.44h1.75Zm0 12.652c.828 0 1.38-.532 1.38-1.239 0-.62-.552-1.239-1.38-1.239h-.552V9.61h.552c.828 0 1.38-.62 1.38-1.418 0-.707-.552-1.327-1.38-1.327h-.552v-.798h.552c.828 0 1.38-.533 1.38-1.24 0-.706-.552-1.238-1.38-1.238h-.552V2.79h4.514v.799h-.46c-.736 0-1.289.532-1.289 1.239 0 .706.553 1.239 1.289 1.239h.46v8.407h-.46c-.736 0-1.289.533-1.289 1.327 0 .706.553 1.326 1.289 1.326h.46v.798h-.46c-.736 0-1.289.62-1.289 1.24 0 .706.553 1.239 1.289 1.239h.46v.798H7.067v-.798h.552v.005Zm0-1.592c.368 0 .46.18.46.353 0 .267-.092.44-.46.44H5.87c-.276 0-.46-.178-.46-.44 0-.179.184-.353.46-.353h1.75ZM16.279 12c-.184 0-.46-.18-.46-.44 0-.18.276-.354.46-.354h1.846c.184 0 .46.18.46.354 0 .266-.184.44-.46.44h-1.846Zm0-3.364c-.184 0-.46-.18-.46-.44 0-.18.276-.44.46-.44h1.846c.184 0 .46.265.46.44 0 .266-.184.44-.46.44h-1.846Zm0-5.044c-.736 0-1.38.533-1.38 1.24 0 .706.644 1.239 1.38 1.239h.645v.798h-.645c-.736 0-1.38.62-1.38 1.327 0 .798.644 1.418 1.38 1.418h.645v.798h-.645c-.736 0-1.38.533-1.38 1.152 0 .707.644 1.24 1.38 1.24h.645v8.407h-4.515v-.799h.368c.737 0 1.289-.532 1.289-1.239 0-.62-.552-1.239-1.289-1.239h-.368v-.799h.368c.737 0 1.289-.619 1.289-1.326 0-.798-.552-1.326-1.289-1.326h-.368V6.071h.368c.737 0 1.289-.533 1.289-1.24 0-.706-.552-1.239-1.289-1.239h-.368v-.798h4.515v.798h-.645Zm0 1.68c-.184 0-.46-.266-.46-.44 0-.175.276-.44.46-.44h1.846c.184 0 .46.265.46.44 0 .174-.184.44-.46.44h-1.846ZM21.54 2H2.37c-.187 0-.37.18-.37.44v19.202c0 .179.184.353.368.353h19.167c.276 0 .46-.179.46-.353V2.44c0-.266-.184-.44-.46-.44h.005Z" clip-rule="evenodd"/>
</svg>
