<svg xmlns="http://www.w3.org/2000/svg" width="24" height="24" fill="none" viewBox="0 0 24 24">
  <path fill="#000" fill-rule="evenodd" d="M9.73 10.88a.995.995 0 0 0-.992-.967 1.794 1.794 0 0 1-1.23-.421 1.781 1.781 0 0 1 .786-3.105v-.63a.457.457 0 0 1 .444-.407.411.411 0 0 1 .443.408v.624a1.797 1.797 0 0 1 1.4 1.738.401.401 0 0 1-.425.415.454.454 0 0 1-.426-.415.986.986 0 0 0-.597-.93.996.996 0 0 0-1.368.706.986.986 0 0 0 .418 1.022c.164.11.357.168.554.169.45-.003.884.16 1.221.455a1.825 1.825 0 0 1-.778 3.146v.573c0 .275-.147.413-.443.412a.415.415 0 0 1-.444-.412v-.577a1.863 1.863 0 0 1-1.4-1.8.423.423 0 0 1 .426-.425.426.426 0 0 1 .425.424.987.987 0 0 0 .6.961.995.995 0 0 0 1.385-.96l.001-.005Zm9.767-3.48v14.18a.372.372 0 0 1-.43.416H4.43a.411.411 0 0 1-.4-.252.405.405 0 0 1-.03-.164V2.417a.454.454 0 0 1 .43-.416h9.477a.402.402 0 0 1 .393.246l4.925 4.765a.385.385 0 0 1 .25.256.35.35 0 0 1 .022.125v.008Zm-5.16-.419h3.648l-3.648-3.58v3.58Zm4.3 14.18V7.813h-4.729a.411.411 0 0 1-.4-.252.405.405 0 0 1-.03-.163V2.835H4.862v18.329l13.776-.003Zm-2.18-5.816H7.09a.457.457 0 0 0-.43.42.405.405 0 0 0 .264.393.41.41 0 0 0 .166.026h9.365a.376.376 0 0 0 .428-.42.403.403 0 0 0-.43-.418l.002-.001Zm0-1.674h-4.28a.457.457 0 0 0-.428.42.404.404 0 0 0 .263.393.41.41 0 0 0 .165.026h4.28a.374.374 0 0 0 .427-.42.402.402 0 0 0-.263-.391.406.406 0 0 0-.165-.026v-.002Zm0-1.674H13.9a.456.456 0 0 0-.425.42.404.404 0 0 0 .425.419h2.556a.375.375 0 0 0 .426-.42.404.404 0 0 0-.425-.42Zm0-1.674H13.9a.456.456 0 0 0-.425.42.404.404 0 0 0 .425.419h2.556a.374.374 0 0 0 .426-.42.403.403 0 0 0-.425-.418v-.001Zm0 6.696H7.09a.446.446 0 0 0-.43.395.396.396 0 0 0 .43.395h9.365c.286 0 .428-.132.428-.395a.393.393 0 0 0-.43-.394l.002-.001Zm0 1.626H7.09a.457.457 0 0 0-.43.42.405.405 0 0 0 .43.419h9.365a.375.375 0 0 0 .428-.42.405.405 0 0 0-.43-.417l.002-.002Z" clip-rule="evenodd"/>
</svg>
