<svg xmlns="http://www.w3.org/2000/svg" width="24" height="24" fill="none" viewBox="0 0 24 24">
  <path fill="#000" fill-rule="evenodd" d="M10.3 19.506v-.5a1.25 1.25 0 0 0-1.245-1.267H4.069c-.624 0-1.244.562-1.244 1.267v.509c-.457.186-.825.648-.825 1.2v.857c0 .214.205.429.415.429h8.294c.275 0 .415-.215.415-.429v-.857a1.28 1.28 0 0 0-.825-1.21Zm-6.646-.5c0-.282.21-.424.415-.424H9.05c.275 0 .415.138.415.424v.423h-5.81v-.423Zm6.64 2.138H2.83v-.429c0-.286.21-.429.415-.429H9.88c.275 0 .414.143.414.429v.429Zm11.604-2.99-8.248-8.45c.47-.48 1.025-1.052 1.682-1.728l.102.105c.28.285.555.428.904.428.35 0 .695-.143.904-.428.485-.5.625-1.281.07-1.853l-3.756-3.852c-.624-.572-1.388-.429-1.808 0-.484.5-.624 1.28-.07 1.852l.154.157c-.41.424-1.43 1.472-3.965 4.077l-.135-.138c-.625-.572-1.389-.43-1.808 0-.485.5-.625 1.28-.07 1.852l3.75 3.848c.28.285.555.428.905.428s.694-.143.904-.428c.485-.5.624-1.281.07-1.853l-.121-.124 1.696-1.742c.648.661 2.558 2.619 8.21 8.414.07.143.21.143.28.143.14 0 .28 0 .35-.143a.442.442 0 0 0 0-.572v.005ZM12.308 3.02c.07-.072.349-.357.624-.072l3.751 3.848c.28.286.07.643 0 .643-.07.071-.35.357-.624.071l-.415-.428s-.01 0-.014-.01c-.07-.071-.475-.49-2.89-2.967 0 0-.004-.01-.008-.014l-.415-.428c-.28-.286-.07-.572 0-.643h-.01Zm.083 2.01 2.354 2.342-1.934 1.986-.08.038a.354.354 0 0 0-.065.11c-.512.523-1.141 1.17-1.934 1.99L8.45 9.082l3.942-4.053Zm-1.528 8.361c-.07.072-.35.357-.624.072L6.487 9.615c-.28-.286-.07-.571 0-.643.07-.071.35-.357.625-.071l.415.428c.009.01.014.024.023.034l2.903 2.985a.234.234 0 0 0 .14.124l.27.276c.28.286.07.643 0 .643Z" clip-rule="evenodd"/>
</svg>
