<svg xmlns="http://www.w3.org/2000/svg" width="24" height="24" fill="none" viewBox="0 0 24 24">
  <path fill="#000" fill-rule="evenodd" d="M21.585 17.01H7.814v-2.922c1.66-.762 2.489-3.05 2.489-4.99 0-.21-.14-.414-.415-.414H2.415A.445.445 0 0 0 2 9.098c0 1.94.9 4.228 2.49 4.99v2.921H2.415a.442.442 0 0 0-.415.414c0 .21.21.414.415.414h8.345c-.448.558-1.273 1.577-2.797 3.475a.422.422 0 0 0-.07.483c.07.14.21.205.345.205h6.666c.21 0 .345-.07.415-.205a.422.422 0 0 0-.07-.483l-2.797-3.475h9.128c.28 0 .415-.204.415-.414 0-.209-.14-.414-.415-.414h.005ZM2.9 9.511h6.573c-.14 1.665-.9 3.465-2.214 3.953-.14.07-.275.21-.275.349v3.19h-1.66v-3.19c0-.14-.07-.28-.275-.349-1.245-.484-2.075-2.288-2.145-3.953H2.9Zm6.247 11.655 2.429-3.032 2.499 3.032H9.142h.005Zm8.266-5.809c2.573 0 4.587-2.088 4.587-4.6 0-2.511-2.014-4.6-4.587-4.6-2.574 0-4.588 2.093-4.588 4.6 0 2.507 2.084 4.6 4.588 4.6Zm0-8.363a3.744 3.744 0 0 1 3.753 3.763 3.744 3.744 0 0 1-3.753 3.763 3.744 3.744 0 0 1-3.753-3.763c0-2.088 1.739-3.763 3.753-3.763Zm.545 4.735a.546.546 0 0 0-.555-.553c-.764 0-1.32-.623-1.32-1.386 0-.619.37-1.144.92-1.317V8.18c0-.209.204-.418.414-.418.275 0 .415.21.415.418v.298c.555.181.965.698.965 1.312 0 .209-.14.414-.415.414a.446.446 0 0 1-.415-.414c0-.28-.21-.554-.554-.554-.28 0-.485.28-.485.554s.21.553.485.553c.764 0 1.389.623 1.389 1.386 0 .614-.406 1.13-.965 1.312v.297c0 .21-.14.42-.415.42-.205 0-.415-.21-.415-.42v-.293c-.546-.176-.918-.697-.918-1.316 0-.21.14-.414.415-.414.21 0 .414.21.414.414 0 .28.21.554.485.554a.549.549 0 0 0 .555-.554ZM6.149 7.856c1.665 0 2.914-1.326 2.914-2.93C9.063 3.32 7.813 2 6.149 2 4.485 2 3.24 3.326 3.24 4.93c0 1.605 1.32 2.93 2.914 2.93l-.005-.004Zm0-5.023c1.18 0 2.08.907 2.08 2.093s-.9 2.093-2.08 2.093a2.092 2.092 0 0 1 0-4.182v-.004Z" clip-rule="evenodd"/>
</svg>
