<svg xmlns="http://www.w3.org/2000/svg" width="24" height="24" fill="none" viewBox="0 0 24 24">
  <path fill="#000" fill-rule="evenodd" d="M21.585 22.001H2.465a.442.442 0 0 1-.414-.414c0-.21.209-.415.414-.415h19.12c.21 0 .414.205.414.415s-.21.414-.414.414ZM22 19.94c0-.205-.21-.415-.414-.415H2.465a.442.442 0 0 0-.414.415c0 .21.209.414.414.414h19.12c.21 0 .414-.205.414-.414ZM7.037 12.015v5.82h.409c.21 0 .414.204.414.414s-.21.414-.414.414H3.288a.442.442 0 0 1-.414-.414c0-.21.21-.415.414-.415h.41v-5.819h-.41a.442.442 0 0 1-.414-.414c0-.21.21-.415.414-.415h4.158c.21 0 .414.205.414.415s-.21.414-.414.414h-.41Zm-.824 0H4.52v5.82h1.693v-5.82Zm7.46 0v5.82h.452c.21 0 .418.204.418.414s-.209.414-.418.414H9.93c-.21 0-.419-.205-.419-.414 0-.21.21-.415.419-.415h.45v-5.819h-.45c-.21 0-.419-.205-.419-.414 0-.21.21-.415.419-.415h4.195c.21 0 .418.205.418.415s-.209.414-.418.414h-.451Zm-.823 0h-1.646v5.82h1.646v-5.82Zm8.33 6.23c0 .204-.209.413-.413.413h-4.159a.442.442 0 0 1-.413-.414c0-.21.209-.414.413-.414h.41v-5.82h-.41a.442.442 0 0 1-.413-.414c0-.21.209-.414.413-.414h4.159c.209 0 .413.205.413.414 0 .21-.209.415-.413.415h-.41v5.819h.41c.209 0 .413.205.413.414Zm-3.339-.415h1.693v-5.82h-1.693v5.82ZM12.013 2.956l8.321 6.531H3.623l8.39-6.531ZM22 10.04c0-.14 0-.349-.14-.484l-9.567-7.505a.585.585 0 0 0-.483 0L2.167 9.557c-.14.14-.21.35-.14.484.07.14.21.28.414.28h19.144c.14 0 .349-.14.414-.28Z" clip-rule="evenodd"/>
</svg>
