<svg xmlns="http://www.w3.org/2000/svg" width="24" height="24" fill="none" viewBox="0 0 24 24">
  <path fill="#000" fill-rule="evenodd" d="M21.562 22.001H2.437c-.292 0-.433-.214-.433-.433s.146-.433.433-.433h19.125c.219 0 .433.214.433.433 0 .22-.22.433-.433.433ZM7.216 12.422v6.995h.428c.218 0 .432.214.432.433s-.219.433-.432.433H2.437c-.292 0-.433-.214-.433-.433 0-.22.146-.433.433-.433h.428v-6.995h-.428c-.292 0-.433-.214-.433-.433s.146-.433.433-.433h5.207c.218 0 .432.214.432.433 0 .22-.219.433-.432.433h-.428Zm-3.442 6.995h.86v-6.995h-.86v6.995Zm2.581-6.995h-.86v6.995h.86v-6.995Zm7.798 0v6.995h.476c.22 0 .433.214.433.433s-.219.433-.432.433H9.422c-.287 0-.433-.214-.433-.433 0-.22.146-.433.433-.433h.428v-6.995h-.428c-.287 0-.433-.214-.433-.433s.146-.433.433-.433h5.207c.218 0 .432.214.432.433 0 .22-.219.433-.432.433h-.477Zm-3.442 6.995h.86v-6.995h-.86v6.995Zm2.582-6.995h-.86v6.995h.86v-6.995Zm8.706 7.423c0 .214-.218.433-.432.433H16.36c-.291 0-.432-.214-.432-.433 0-.22.145-.433.432-.433h.428v-6.995h-.428c-.291 0-.432-.214-.432-.433s.145-.433.432-.433h5.207c.218 0 .432.214.432.433 0 .22-.218.433-.432.433h-.428v6.995h.428c.218 0 .432.214.432.433Zm-1.72-7.423h-.91v6.995h.91v-6.995Zm-2.63 6.995h.86v-6.995h-.86v6.995ZM12 2.999l8.332 6.829H3.692L12 2.999Zm9.927 7.408c.072-.146 0-.365-.073-.506l-9.562-7.846c-.146-.073-.365-.073-.584 0L2.174 9.9c-.145.146-.218.365-.145.506.073.146.218.292.432.292h19.1c.147 0 .293-.146.36-.292h.006Z" clip-rule="evenodd"/>
</svg>
