<svg xmlns="http://www.w3.org/2000/svg" width="24" height="24" fill="none" viewBox="0 0 24 24">
  <path fill="#000" fill-rule="evenodd" d="M21.585 20.223h-.428V8.75a.426.426 0 0 0-.132-.274.448.448 0 0 0-.285-.121h-2.5a.408.408 0 0 0-.297.108.384.384 0 0 0-.12.287v11.474H16.18v-5.95a.426.426 0 0 0-.132-.274.448.448 0 0 0-.284-.122h-2.501a.403.403 0 0 0-.298.11.385.385 0 0 0-.119.286v5.95h-1.69V12.72a.425.425 0 0 0-.132-.273.449.449 0 0 0-.284-.122h-2.5a.405.405 0 0 0-.298.108.385.385 0 0 0-.119.287v7.503H6.179v-3.576a.426.426 0 0 0-.132-.274.449.449 0 0 0-.285-.121h-2.5a.407.407 0 0 0-.297.108.386.386 0 0 0-.12.287v3.576h-.428a.401.401 0 0 0-.296.105.38.38 0 0 0-.12.283c0 .26.138.389.416.388h19.166a.403.403 0 0 0 .296-.105.38.38 0 0 0 .12-.283.421.421 0 0 0-.132-.27.445.445 0 0 0-.282-.118ZM18.657 9.144h1.667v11.065h-1.667V9.144Zm-4.976 5.524h1.666v5.539H13.68v-5.54ZM8.657 13.11h1.667v7.097H8.657V13.11ZM3.68 17.04h1.667v3.163H3.68V17.04Zm.834-4.718a1.256 1.256 0 0 0 .876-.341 1.193 1.193 0 0 0 .368-.845 1.063 1.063 0 0 0-.098-.435l3.19-2.523a1.284 1.284 0 0 0 1.177.056 1.24 1.24 0 0 0 .432-.33l2.813.87c.008.316.143.617.376.837.234.22.547.343.873.342a1.26 1.26 0 0 0 .868-.35c.232-.223.364-.525.369-.841a1.11 1.11 0 0 0-.195-.608L19 4.276c.163.068.339.102.516.1a1.27 1.27 0 0 0 .888-.336 1.177 1.177 0 0 0 .38-.85 1.219 1.219 0 0 0-.387-.844 1.288 1.288 0 0 0-.88-.346c-.33 0-.645.124-.882.346a1.218 1.218 0 0 0-.386.844c.001.204.058.404.166.58l-3.492 3.88a1.19 1.19 0 0 0-.407-.077 1.278 1.278 0 0 0-.543.13 1.242 1.242 0 0 0-.43.35l-2.807-.886V7.16a1.195 1.195 0 0 0-.377-.833 1.264 1.264 0 0 0-.867-.342c-.324 0-.635.123-.868.342-.232.22-.367.519-.376.833 0 .15.03.3.089.44l-3.23 2.507a1.212 1.212 0 0 0-.59-.162 1.292 1.292 0 0 0-.865.354c-.23.221-.367.519-.38.834a1.165 1.165 0 0 0 .366.848 1.233 1.233 0 0 0 .877.343v-.003Zm15-9.525a.456.456 0 0 1 .287.12.43.43 0 0 1 .134.275.378.378 0 0 1-.122.288.401.401 0 0 1-.3.107c-.281 0-.422-.131-.423-.395a.378.378 0 0 1 .124-.286.4.4 0 0 1 .3-.106v-.003Zm-5.001 5.57a.45.45 0 0 1 .283.122c.076.073.122.17.13.273a.375.375 0 0 1-.118.285.396.396 0 0 1-.295.11.37.37 0 0 1-.308-.097.35.35 0 0 1-.105-.298.376.376 0 0 1 .119-.284.397.397 0 0 1 .295-.109l-.001-.003Zm-5.024-1.6a.45.45 0 0 1 .283.123c.076.072.122.17.13.272a.378.378 0 0 1-.012.065.318.318 0 0 0-.028.042.347.347 0 0 0-.008.083.4.4 0 0 1-.153.154.415.415 0 0 1-.213.053.372.372 0 0 1-.31-.097.35.35 0 0 1-.103-.3.374.374 0 0 1 .12-.284.394.394 0 0 1 .295-.108v-.003ZM4.513 10.74a.389.389 0 0 1 .206.07.574.574 0 0 0 .052.101c.036.03.076.055.12.074a.332.332 0 0 1 .038.15.375.375 0 0 1-.117.286.398.398 0 0 1-.296.11.372.372 0 0 1-.309-.097.35.35 0 0 1-.104-.298.374.374 0 0 1 .118-.283.396.396 0 0 1 .293-.11v-.003Z" clip-rule="evenodd"/>
</svg>
