<svg xmlns="http://www.w3.org/2000/svg" width="24" height="24" fill="none" viewBox="0 0 24 24">
  <path fill="#000" fill-rule="evenodd" d="M21.585 21.009h-.428v-2.037a.36.36 0 0 0-.417-.405h-2.5a.397.397 0 0 0-.417.405v2.037H16.18v-5.32a.364.364 0 0 0-.416-.408h-2.502a.395.395 0 0 0-.416.409v5.319h-1.69v-8.56a.364.364 0 0 0-.417-.407h-2.5a.397.397 0 0 0-.388.247.395.395 0 0 0-.028.16v8.56H6.179V9.21a.361.361 0 0 0-.417-.406h-2.5a.396.396 0 0 0-.417.406v11.8h-.428a.39.39 0 0 0-.387.241.393.393 0 0 0-.03.158.44.44 0 0 0 .417.4h19.166a.391.391 0 0 0 .417-.4c.001-.266-.137-.399-.415-.4Zm-2.928-1.632h1.666v1.62h-1.666v-1.62Zm-4.976-3.28h1.666v4.894H13.68v-4.894Zm-5.024-3.242h1.667v8.138H8.657v-8.138ZM3.68 9.615h1.667v11.38H3.68V9.614Zm.479-6.41a.458.458 0 0 1 .625-.135c9.43 6.149 12.927 8.428 14.224 9.275l-.342-2.32a.381.381 0 0 1 .348-.405.374.374 0 0 1 .484.337l.403 3.127c.007.031.01.063.012.095v.007c.07.202-.139.404-.346.404l-3.325.47h-.069c-.207 0-.346-.201-.414-.403a.38.38 0 0 1 .346-.404l2.295-.31L4.302 3.751a.362.362 0 0 1-.144-.546h.001Z" clip-rule="evenodd"/>
</svg>
