<svg xmlns="http://www.w3.org/2000/svg" width="24" height="24" fill="none" viewBox="0 0 24 24">
  <path fill="#000" fill-rule="evenodd" d="M21.583 21.16H2.84v-1.676h15.41a.385.385 0 0 0 .297-.114.407.407 0 0 0 .12-.302v-3.321a.46.46 0 0 0-.133-.288.436.436 0 0 0-.284-.127H2.84v-1.69h10.431a.386.386 0 0 0 .298-.116.409.409 0 0 0 .12-.305v-3.36a.463.463 0 0 0-.133-.29.44.44 0 0 0-.285-.13H2.837V7.799h10.435a.386.386 0 0 0 .298-.116.409.409 0 0 0 .12-.304v-3.36a.463.463 0 0 0-.133-.291.439.439 0 0 0-.285-.13H2.837V2.423a.418.418 0 0 0-.12-.303.395.395 0 0 0-.297-.115.35.35 0 0 0-.311.1.373.373 0 0 0-.106.318v19.154a.382.382 0 0 0 .106.317.36.36 0 0 0 .31.101h19.164a.387.387 0 0 0 .297-.115.407.407 0 0 0 .12-.303.46.46 0 0 0-.132-.29.437.437 0 0 0-.285-.128ZM2.844 10.28H12.86v2.52H2.844v-2.52Zm0-5.842H12.86v2.52H2.844v-2.52Zm14.992 11.723v2.494H2.843V16.16l14.993.002Z" clip-rule="evenodd"/>
</svg>
