<svg xmlns="http://www.w3.org/2000/svg" width="24" height="24" fill="none" viewBox="0 0 24 24">
  <path fill="#000" fill-rule="evenodd" d="M4.223 6.375c-.14-.139-.21-.417-.07-.556 1.388-1.736 3.262-2.986 5.415-3.472.21-.07.418.07.488.278.07.208-.07.417-.279.486-1.944.486-3.68 1.667-4.928 3.195a.383.383 0 0 1-.348.208.528.528 0 0 1-.278-.139ZM12 2.833c2.084 0 3.958.695 5.555 1.875.07.07.208.14.278.14.14 0 .278-.07.348-.21.14-.138.07-.416-.07-.555A9.86 9.86 0 0 0 12 2c-.278 0-.418.208-.418.417 0 .277.14.416.418.416Zm-3.958 17.43c-1.805-.832-3.262-2.29-4.167-4.096-.14-.209-.348-.278-.557-.14-.209.07-.348.348-.209.556a9.795 9.795 0 0 0 4.585 4.445c.07.07.139.07.209.07.139 0 .278-.14.348-.279.139-.208 0-.416-.21-.555ZM2.835 12c0-1.32.279-2.57.836-3.75.07-.208 0-.486-.21-.556-.208-.138-.487 0-.556.209C2.348 9.223 2 10.61 2 12c0 .764.07 1.528.278 2.292a.47.47 0 0 0 .418.277h.07a.522.522 0 0 0 .348-.486c-.21-.694-.279-1.389-.279-2.083Zm18.608 1.736c-.209-.07-.418.07-.487.278-.418 1.944-1.527 3.75-3.053 5.07a.367.367 0 0 0-.07.555.53.53 0 0 0 .348.139c.07 0 .14 0 .209-.07 1.735-1.389 2.914-3.333 3.401-5.486a.522.522 0 0 0-.348-.486Zm-5.415 6.528c-1.248.625-2.64.903-4.028.903-.626 0-1.248-.07-1.805-.14-.209-.069-.487.07-.487.279-.07.277.07.486.278.486A10.44 10.44 0 0 0 12 22c1.527 0 2.984-.347 4.376-.972.209-.14.278-.347.209-.556-.14-.208-.348-.278-.557-.208ZM19.847 5.75c-.14-.139-.418-.208-.627-.07-.139.209-.208.417-.07.626 1.319 1.597 2.015 3.472 2.015 5.486 0 .277.209.416.417.416.279 0 .418-.208.418-.416 0-2.223-.766-4.306-2.153-6.042Zm-2.371 11.236H6.57c-.209 0-.418-.139-.418-.417V8.245c0-.208.209-.416.418-.416.278 0 .417.208.417.416v7.908h.854v-3.718c0-.208.209-.412.418-.412h1.675a.4.4 0 0 1 .418.412v3.718h.821V8.245c0-.208.204-.416.413-.416h1.643c.274 0 .413.208.413.416v7.908h.867V9.93c0-.209.205-.417.413-.417h1.643c.274 0 .413.208.413.417v6.222h.497c.209 0 .417.208.417.416 0 .278-.209.417-.417.417Zm-2.14-.833h.822v-5.81h-.822v5.81Zm-6.65 0h.836v-3.306h-.835v3.306Zm4.14 0V8.662h-.821v7.49h.821Z" clip-rule="evenodd"/>
</svg>
