<svg xmlns="http://www.w3.org/2000/svg" width="24" height="24" fill="none" viewBox="0 0 24 24">
  <path fill="#000" fill-rule="evenodd" d="M2.833 18.801h18.333V5.812H2.833v12.99Zm18.75.812H2.416a.391.391 0 0 1-.298-.111.396.396 0 0 1-.119-.295V5.406A.443.443 0 0 1 2.417 5h19.165a.443.443 0 0 1 .418.406v13.801a.397.397 0 0 1-.418.406ZM4.516 17.208H19.48V7.452H4.517v9.756Zm15.38.813H4.103a.397.397 0 0 1-.387-.247.395.395 0 0 1-.028-.16V7.046a.442.442 0 0 1 .415-.407h15.796a.441.441 0 0 1 .415.407v10.568a.395.395 0 0 1-.416.407ZM6.592 16.38a.398.398 0 0 1-.422-.406V14.35a.422.422 0 0 1 .843 0v1.623a.397.397 0 0 1-.422.407Zm1.662 0a.385.385 0 0 1-.397-.406v-4.059a.398.398 0 0 1 .796 0v4.058a.386.386 0 0 1-.4.407h.001Zm1.663 0a.398.398 0 0 1-.421-.404v-2.425a.422.422 0 0 1 .842 0v2.424a.394.394 0 0 1-.422.405h.001Zm1.663 0a.385.385 0 0 1-.397-.406V14.35a.4.4 0 0 1 .553-.38.397.397 0 0 1 .243.38v1.623a.386.386 0 0 1-.4.407Zm4.989 0a.399.399 0 0 1-.422-.407v-5.696a.42.42 0 1 1 .843 0v5.696a.398.398 0 0 1-.422.407Zm-1.664 0a.385.385 0 0 1-.397-.404v-3.64a.398.398 0 1 1 .796 0v3.64a.387.387 0 0 1-.4.404h.001Zm-1.662 0a.398.398 0 0 1-.422-.405V8.684a.422.422 0 0 1 .843 0v7.29a.397.397 0 0 1-.422.407h.001Z" clip-rule="evenodd"/>
</svg>
