<svg xmlns="http://www.w3.org/2000/svg" width="24" height="24" fill="none" viewBox="0 0 24 24">
  <path fill="#000" fill-rule="evenodd" d="M21.584 18.145h-.426V5.438a.491.491 0 0 0-.132-.303.428.428 0 0 0-.284-.135H18.25a.43.43 0 0 0-.285.135.492.492 0 0 0-.132.303v12.707h-1.686V11.58a.49.49 0 0 0-.131-.302.427.427 0 0 0-.284-.135h-2.495a.427.427 0 0 0-.284.135.49.49 0 0 0-.132.302v6.564h-1.638V9.817a.492.492 0 0 0-.133-.303.428.428 0 0 0-.284-.135H8.271a.428.428 0 0 0-.284.135.492.492 0 0 0-.132.303v8.326H6.17v-3.945a.49.49 0 0 0-.131-.302.428.428 0 0 0-.284-.135H3.26a.428.428 0 0 0-.284.134.491.491 0 0 0-.133.303v3.945h-.426a.424.424 0 0 0-.283.13.486.486 0 0 0-.134.298.45.45 0 0 0 .121.312.4.4 0 0 0 .137.091.36.36 0 0 0 .159.025h19.165a.37.37 0 0 0 .296-.116.427.427 0 0 0-.012-.608.424.424 0 0 0-.282-.13Zm-2.92-12.27h1.663v12.251h-1.663V5.876Zm-5.012 6.143h1.663v6.11h-1.662v-6.11Zm-4.965-1.762h1.664v7.87H8.687v-7.87Zm-5.012 4.38h1.663v3.49H3.675v-3.49Z" clip-rule="evenodd"/>
</svg>
