<svg xmlns="http://www.w3.org/2000/svg" width="24" height="24" fill="none" viewBox="0 0 24 24">
  <path fill="#000" fill-rule="evenodd" d="M14.469 10.164a1.626 1.626 0 0 0-1.633-1.63v-.82a.4.4 0 0 0-.43-.407.452.452 0 0 0-.43.408v.816h-.816v-.816a.402.402 0 0 0-.43-.408.451.451 0 0 0-.43.408v.816h-.402a.444.444 0 0 0-.416.408v4.898a.396.396 0 0 0 .416.408h.401v.78a.4.4 0 0 0 .43.399c.287 0 .43-.133.43-.399v-.78h.817v.78a.399.399 0 0 0 .43.399c.287 0 .43-.133.43-.399v-.784a1.584 1.584 0 0 0 1.633-1.63 1.615 1.615 0 0 0-.546-1.212 1.595 1.595 0 0 0 .546-1.235Zm-.831 2.448a.793.793 0 0 1-.831.817h-2.495v-1.633h2.495a.835.835 0 0 1 .83.816Zm-3.326-1.632V9.348h2.495a.834.834 0 0 1 .774 1.135.793.793 0 0 1-.774.497h-2.495Zm11.268.816a.364.364 0 0 0 .417-.408.395.395 0 0 0-.417-.408h-2.94V8.531h2.94a.365.365 0 0 0 .417-.408.395.395 0 0 0-.417-.408h-2.94V6.486a1.274 1.274 0 0 0-1.248-1.22h-1.244V2.41a.393.393 0 0 0-.408-.408.44.44 0 0 0-.408.408v2.857h-3.356V2.41a.392.392 0 0 0-.408-.408.439.439 0 0 0-.408.408v2.857H8.665V2.41a.403.403 0 0 0-.43-.408.452.452 0 0 0-.43.408v2.857H6.56a1.328 1.328 0 0 0-1.25 1.22v1.229H2.418A.444.444 0 0 0 2 8.123a.397.397 0 0 0 .418.408H5.31v3.265H2.418a.444.444 0 0 0-.418.409.397.397 0 0 0 .418.407H5.31v2.404H2.418a.444.444 0 0 0-.418.408.397.397 0 0 0 .418.408H5.31v1.23a1.277 1.277 0 0 0 1.25 1.22h1.244v2.856a.404.404 0 0 0 .43.408c.287 0 .43-.136.43-.408V18.28h3.31v2.857a.402.402 0 0 0 .431.408c.287 0 .43-.136.43-.408V18.28h2.494v2.857a.392.392 0 0 0 .409.408.358.358 0 0 0 .393-.243.362.362 0 0 0 .015-.165V18.28h1.244a1.23 1.23 0 0 0 1.249-1.22v-1.229h2.938a.364.364 0 0 0 .417-.408.395.395 0 0 0-.417-.408H18.64v-3.22h2.94Zm-3.772 5.265a.363.363 0 0 1-.417.407h-1.638c-.005 0-.01-.003-.014-.003-.005 0-.008.003-.012.003H12.42c-.006 0-.01-.003-.016-.003-.005 0-.008.003-.011.003H8.249c-.006 0-.01-.003-.015-.003-.006 0-.008.003-.013.003H6.56a.396.396 0 0 1-.417-.407v-1.455c.02-.059.03-.12.029-.182a.44.44 0 0 0-.029-.154v-2.883a.55.55 0 0 0 .029-.183.44.44 0 0 0-.029-.153V8.305a.55.55 0 0 0 .029-.182.444.444 0 0 0-.029-.154V6.487a.443.443 0 0 1 .417-.407h1.658c.006 0 .011.003.017.003.006 0 .013-.003.02-.003h3.297c.006 0 .01.003.016.003s.013-.003.02-.003h4.136c.006 0 .01.003.016.003.007 0 .012-.003.02-.003h1.633a.395.395 0 0 1 .416.407V17.06Z" clip-rule="evenodd"/>
</svg>
