<svg xmlns="http://www.w3.org/2000/svg" width="24" height="24" fill="none" viewBox="0 0 24 24">
  <path fill="#000" fill-rule="evenodd" d="M21.583 16.406h-.402V6.63A1.673 1.673 0 0 0 19.512 5H4.488a1.674 1.674 0 0 0-1.67 1.63v9.776h-.401a.444.444 0 0 0-.417.41v1.638a1.234 1.234 0 0 0 1.25 1.227h17.5A1.233 1.233 0 0 0 22 18.454v-1.636a.445.445 0 0 0-.417-.412ZM3.653 6.63a.835.835 0 0 1 .835-.814h15.024a.887.887 0 0 1 .835.814v9.777h-6.264a.443.443 0 0 0-.417.41v.408h-3.332v-.408a.445.445 0 0 0-.417-.41H3.654L3.653 6.63Zm17.514 11.825a.397.397 0 0 1-.418.408H3.25a.395.395 0 0 1-.416-.408v-1.228H9.5v.41a.396.396 0 0 0 .417.408h4.165a.397.397 0 0 0 .417-.408v-.41h6.667v1.228Zm-10.849-4.457v1.186a.431.431 0 1 0 .863 0v-1.186h.818v1.186a.409.409 0 0 0 .818 0v-1.186h.015a1.616 1.616 0 0 0 1.092-2.852 1.593 1.593 0 0 0 .575-1.239 1.674 1.674 0 0 0-1.667-1.636h-.015V7.13a.41.41 0 0 0-.818 0v1.14h-.818V7.13a.431.431 0 1 0-.863 0v1.14h-.401a.444.444 0 0 0-.417.41v4.908a.396.396 0 0 0 .417.41l.401-.001Zm3.348-1.637a.836.836 0 0 1-.833.819h-2.5v-1.637h2.5a.887.887 0 0 1 .833.819Zm0-2.454a.836.836 0 0 1-.833.818h-2.5V9.088h2.5a.888.888 0 0 1 .833.818Z" clip-rule="evenodd"/>
</svg>
