<svg xmlns="http://www.w3.org/2000/svg" width="24" height="24" fill="none" viewBox="0 0 24 24">
  <path fill="#000" d="M14.471 12.958a1.613 1.613 0 0 0-1.633-1.607v-1.235a.4.4 0 0 0-.43-.4.448.448 0 0 0-.431.4v1.232h-.82v-1.232a.4.4 0 0 0-.43-.4.448.448 0 0 0-.431.4v1.232h-.4a.442.442 0 0 0-.417.402v4.86a.444.444 0 0 0 .417.407h.4v1.225a.452.452 0 0 0 .595.385.405.405 0 0 0 .266-.385v-1.225h.82v1.225a.45.45 0 0 0 .595.385.402.402 0 0 0 .266-.385v-1.227a1.625 1.625 0 0 0 1.076-2.852 1.585 1.585 0 0 0 .557-1.205Zm-.832 2.427a.793.793 0 0 1-.83.816h-2.495v-1.633h2.495a.793.793 0 0 1 .83.817Zm-.83-1.633h-2.495v-1.599h2.495a.802.802 0 0 1 .06 1.605c-.02 0-.04-.006-.059-.006h-.001ZM19.917 4H4.083A2.066 2.066 0 0 0 2 6.036v12.212a2.066 2.066 0 0 0 2.083 2.034h15.834A2.02 2.02 0 0 0 22 18.248V6.036a2.021 2.021 0 0 0-2.084-2.035h.001Zm-15.834.814h15.834a1.23 1.23 0 0 1 1.25 1.221v2.047H2.831V6.036a1.277 1.277 0 0 1 1.25-1.223l.001.002Zm15.834 14.654H4.083a1.277 1.277 0 0 1-1.25-1.221V8.899h18.334v9.349a1.233 1.233 0 0 1-1.25 1.22ZM4.494 6.45a.84.84 0 1 1 .84.816.828.828 0 0 1-.84-.814V6.45Zm2.494 0a.84.84 0 1 1 .84.816.83.83 0 0 1-.84-.814V6.45Zm2.494 0a.84.84 0 1 1 .84.816.828.828 0 0 1-.84-.814V6.45Z"/>
</svg>
