<svg xmlns="http://www.w3.org/2000/svg" width="24" height="24" fill="none" viewBox="0 0 24 24">
  <path fill="#000" fill-rule="evenodd" d="M11.165 14.197a1.626 1.626 0 0 0-1.661-1.632h-.016v-1.224a.437.437 0 0 0-.408-.408.391.391 0 0 0-.407.408v1.224h-.816v-1.224a.452.452 0 0 0-.595-.385.402.402 0 0 0-.266.385v1.224h-.402a.362.362 0 0 0-.398.242.364.364 0 0 0-.017.166v4.859a.393.393 0 0 0 .415.402h.402v1.224a.402.402 0 0 0 .43.409.452.452 0 0 0 .431-.409v-1.224h.816v1.224a.392.392 0 0 0 .407.409.437.437 0 0 0 .408-.409v-1.224h.016a1.659 1.659 0 0 0 1.662-1.61 1.558 1.558 0 0 0-.57-1.215 1.616 1.616 0 0 0 .57-1.212Zm-.83 2.425a.88.88 0 0 1-.83.806h-.376a.305.305 0 0 0-.049-.012.374.374 0 0 0-.054.012H7.479a.345.345 0 0 0-.05-.012.433.433 0 0 0-.062.012h-.354v-1.599h2.493c.02 0 .038-.004.055-.006a.824.824 0 0 1 .774.8Zm-3.326-1.61v-1.631h2.495a.834.834 0 0 1 .83.816.886.886 0 0 1-.83.816H7.009Zm10.414-4.079a4.467 4.467 0 1 0 0-8.932 4.467 4.467 0 1 0 0 8.932Zm0-8.12a3.73 3.73 0 0 1 3.747 3.654 3.776 3.776 0 0 1-3.747 3.654 3.729 3.729 0 0 1-3.747-3.654 3.687 3.687 0 0 1 3.747-3.655v.001ZM8.264 9.3a6.1 6.1 0 1 0 0 12.197 6.099 6.099 0 0 0 4.418-10.47A6.103 6.103 0 0 0 8.264 9.3Zm0 11.383a5.288 5.288 0 1 1 5.422-5.284 5.362 5.362 0 0 1-5.422 5.284Zm9.688-13.258a.541.541 0 0 0-.553-.54 1.372 1.372 0 0 1-1.383-1.354 1.358 1.358 0 0 1 .998-1.293v-.28a.364.364 0 0 1 .408-.414.396.396 0 0 1 .407.415v.294a1.357 1.357 0 0 1 .953 1.28.442.442 0 0 1-.415.405.397.397 0 0 1-.387-.246.396.396 0 0 1-.029-.16.538.538 0 0 0-.553-.54.504.504 0 0 0-.552.54.538.538 0 0 0 .552.542 1.373 1.373 0 0 1 1.383 1.353 1.27 1.27 0 0 1-.952 1.22v.338a.437.437 0 0 1-.408.408.393.393 0 0 1-.408-.408v-.328a1.274 1.274 0 0 1-.998-1.232.364.364 0 0 1 .415-.405.395.395 0 0 1 .416.405.488.488 0 0 0 .553.474.53.53 0 0 0 .554-.474h-.001Zm-14.627-1.1a.415.415 0 0 1 .629-.54c.432.417.722.697.92.886a4.345 4.345 0 0 1 1.374-2.98c.859-.82 2-1.278 3.187-1.282a.362.362 0 0 1 .415.405.393.393 0 0 1-.415.405 3.557 3.557 0 0 0-2.632 1.079 3.656 3.656 0 0 0-1.098 2.38l.974-.893a.415.415 0 0 1 .63.54L5.63 7.941a.497.497 0 0 1-.164.096.456.456 0 0 1-.153.032.305.305 0 0 1-.031.006h-.004a.43.43 0 0 1-.327-.183L3.325 6.324Zm18.128 9.158a.412.412 0 0 1 0 .546.327.327 0 0 1-.558 0l-.99-.923a4.527 4.527 0 0 1-4.562 4.302.395.395 0 0 1-.284-.69.444.444 0 0 1 .285-.126 3.692 3.692 0 0 0 3.729-3.45l-.974.955a.424.424 0 0 1-.28.069c-.139 0-.21 0-.28-.069a.382.382 0 0 1 0-.617l1.592-1.564a.387.387 0 0 1 .368-.218.434.434 0 0 1 .332.19l1.622 1.595Z" clip-rule="evenodd"/>
</svg>
