<svg xmlns="http://www.w3.org/2000/svg" width="24" height="24" fill="none" viewBox="0 0 24 24">
  <path fill="#000" fill-rule="evenodd" d="M20.198 12.26a2.97 2.97 0 0 0-.625-2.714 3.277 3.277 0 0 0-2.567-1.29A5.448 5.448 0 0 0 12.012 5a5.392 5.392 0 0 0-5.41 4.885 4.925 4.925 0 0 0 .416 9.838h10.82A4.141 4.141 0 0 0 22 15.585a4.19 4.19 0 0 0-1.802-3.325Zm-2.359 6.648H7.02a4.106 4.106 0 1 1 0-8.21.395.395 0 0 0 .416-.406 4.585 4.585 0 0 1 8.878-1.493c.07.204.208.34.416.272a2.593 2.593 0 0 1 2.22.95 2.33 2.33 0 0 1 .416 2.306.382.382 0 0 0 .139.475 3.292 3.292 0 0 1 1.664 2.782 3.352 3.352 0 0 1-3.329 3.324Zm-2.497-7.34a1.622 1.622 0 0 0-1.66-1.63h-.016V8.713a.439.439 0 0 0-.407-.408.392.392 0 0 0-.408.408v1.223h-.816V8.713a.451.451 0 0 0-.593-.385.402.402 0 0 0-.266.385v1.223h-.4a.363.363 0 0 0-.415.408v4.892a.394.394 0 0 0 .415.407h.4v1.223a.402.402 0 0 0 .43.408.45.45 0 0 0 .43-.408v-1.223h.815v1.223a.393.393 0 0 0 .408.408.438.438 0 0 0 .407-.408v-1.223h.015a1.669 1.669 0 0 0 1.66-1.63 1.588 1.588 0 0 0-.572-1.235 1.614 1.614 0 0 0 .573-1.21Zm-.83 2.446a.885.885 0 0 1-.83.816H11.19V13.2h2.49a.834.834 0 0 1 .83.814h.001Zm-3.321-1.63v-1.63h2.49a.835.835 0 0 1 .831.815.886.886 0 0 1-.83.815H11.19Z" clip-rule="evenodd"/>
</svg>
