<svg xmlns="http://www.w3.org/2000/svg" width="24" height="24" fill="none" viewBox="0 0 24 24">
  <path fill="#000" fill-rule="evenodd" d="M15.05 10.509a1.744 1.744 0 0 0-1.733-1.702h-.015V7.583a.378.378 0 0 0-.426-.43.411.411 0 0 0-.425.43v1.224h-.898V7.583a.38.38 0 0 0-.252-.413.378.378 0 0 0-.172-.017.412.412 0 0 0-.426.43v1.224h-.418a.461.461 0 0 0-.433.426v5.062a.41.41 0 0 0 .433.42h.418v1.28a.407.407 0 0 0 .426.421.374.374 0 0 0 .424-.421v-1.28h.897v1.28a.408.408 0 0 0 .426.421.373.373 0 0 0 .426-.421v-1.28h.015a1.682 1.682 0 0 0 1.599-1.024c.088-.207.133-.429.134-.654a1.652 1.652 0 0 0-.594-1.245 1.655 1.655 0 0 0 .594-1.283Zm-.866 2.528a.823.823 0 0 1-.867.839h-2.599V12.21h2.6c.02 0 .039-.005.06-.005a.86.86 0 0 1 .806.832Zm-3.466-1.678V9.658h2.6a.87.87 0 0 1 .806 1.184.829.829 0 0 1-.807.517h-2.599Zm1.284-9.356a.938.938 0 0 0-.435.07c-5.43.212-9.56 4.314-9.56 9.547a10 10 0 1 0 9.995-9.617Zm0 15.267a5.51 5.51 0 1 1 5.63-5.51 5.58 5.58 0 0 1-5.63 5.51Zm-9.093-5.06h2.62a6.21 6.21 0 0 0 1.287 3.355H3.804a8.897 8.897 0 0 1-.895-3.355Zm2.619-.85H2.89a8.557 8.557 0 0 1 1.252-4.254H7.63a6.307 6.307 0 0 0-2.106 4.253h.003Zm12.951.85h2.628a8.732 8.732 0 0 1-.847 3.355h-3.044a6.238 6.238 0 0 0 1.26-3.355h.003Zm0-.85a6.3 6.3 0 0 0-2.074-4.254h3.364a8.702 8.702 0 0 1 1.339 4.253h-2.629Zm.686-5.104h-3.682a14.717 14.717 0 0 0-2.013-3.28 9.145 9.145 0 0 1 5.694 3.28Zm-6.927-3.393a14 14 0 0 1 2.066 2.962 6.553 6.553 0 0 0-2.3-.42 6.44 6.44 0 0 0-2.288.426 14.311 14.311 0 0 1 2.155-2.973c.04-.004.08-.007.133-.007.077 0 .154.01.232.012h.002Zm-1.693.157c-.803.993-1.48 2.08-2.018 3.238h-3.79A8.932 8.932 0 0 1 10.54 3.02h.004ZM4.28 16.416h3.322c.368.333.773.624 1.206.866a22.887 22.887 0 0 0 1.886 3.284 9.147 9.147 0 0 1-6.418-4.15h.004Zm7.503 4.244a28.115 28.115 0 0 1-1.728-2.84 6.578 6.578 0 0 0 3.954-.008 18.213 18.213 0 0 1-1.773 2.849c-.078 0-.153.011-.232.011-.079 0-.15-.011-.227-.011l.006-.001Zm1.598-.1a23.973 23.973 0 0 0 1.808-3.253c.45-.246.867-.546 1.246-.891h3.354a9.072 9.072 0 0 1-6.411 4.145h.003Z" clip-rule="evenodd"/>
</svg>
