<svg xmlns="http://www.w3.org/2000/svg" width="24" height="24" fill="none" viewBox="0 0 24 24">
  <path fill="#000" d="M17.418 2H6.584a2.49 2.49 0 0 0-2.5 2.501V19.5a2.493 2.493 0 0 0 2.5 2.5h10.834a2.49 2.49 0 0 0 2.5-2.501V4.5A2.493 2.493 0 0 0 17.417 2Zm-10.834.835h10.834c.904 0 1.665.766 1.665 1.666v4.167H4.918V4.501c0-.905.765-1.666 1.665-1.666Zm5.848 6.655h6.65v5.02h-6.65V9.49Zm-.867 5.02H4.919V9.49h6.65v5.02h-.004ZM4.919 19.5v-4.167h6.65v5.833H6.584A1.688 1.688 0 0 1 4.919 19.5Zm12.503 1.666h-4.985v-5.833h6.65V19.5c0 .905-.765 1.666-1.665 1.666ZM6.95 7.8h10.106c.621 0 1.178-.482 1.178-1.178v-1.8c0-.622-.552-1.18-1.178-1.18H6.95a1.17 1.17 0 0 0-1.178 1.18v1.8c0 .691.482 1.178 1.178 1.178Zm-.348-2.979c0-.208.14-.348.348-.348h10.106c.209 0 .348.14.348.348v1.8c0 .21-.14.349-.348.349H6.95c-.209 0-.348-.14-.348-.348v-1.8ZM6.18 12h1.234v-1.276h.82V12h1.28v.821h-1.28v1.276h-.82v-1.276H6.18V12Zm11.224 0v.821h-3.33V12h3.33Zm-8.585 6.186L9.83 19.21l-.547.594-1.034-1.035-1.016 1.035-.594-.594 1.025-1.025L6.64 17.16l.594-.594 1.016 1.035 1.034-1.035.547.594-1.01 1.026Zm5.255.478h3.33v.82h-3.33v-.82Zm0-1.643h3.33v.821h-3.33v-.821Z"/>
</svg>
