<svg xmlns="http://www.w3.org/2000/svg" width="24" height="24" fill="none" viewBox="0 0 24 24">
  <path fill="#000" fill-rule="evenodd" d="M18.207 17.456h-3.428a.454.454 0 0 0-.428.417.407.407 0 0 0 .428.417h3.428v.835H2.857v-.835h3.427a.407.407 0 0 0 .428-.417.455.455 0 0 0-.428-.417H2.857v-1.04l1.428-1.46h12.493l1.429 1.46v1.04Zm-.858 3.337h-1.713v-.83h1.713v.83Zm-11.922 0H3.714v-.83h1.713v.83Zm11.78-6.534h-.072v-.07H4.785l1.356-3.336H9.64a.416.416 0 0 0 .399-.58.416.416 0 0 0-.4-.255H5.857a.391.391 0 0 0-.429.279l-1.642 4.032-1.641 1.599a.521.521 0 0 0-.144.278v3.337a.455.455 0 0 0 .428.416h.429v1.254a.455.455 0 0 0 .428.416h2.57a.453.453 0 0 0 .429-.416v-1.254h8.495v1.254a.456.456 0 0 0 .429.416h2.57a.455.455 0 0 0 .428-.416v-1.254h.428a.454.454 0 0 0 .429-.416v-3.337a.522.522 0 0 0-.143-.278l-1.713-1.67Zm-.696-2.324a4.55 4.55 0 1 1 4.632-4.516 4.584 4.584 0 0 1-4.632 4.519v-.003Zm0-9.935A5.384 5.384 0 1 0 22 7.42a5.497 5.497 0 0 0-5.489-5.418V2Zm0 3.421a.773.773 0 0 1 .716.767.456.456 0 0 0 .429.418.406.406 0 0 0 .429-.418 1.661 1.661 0 0 0-1.145-1.533v-.418a.455.455 0 0 0-.429-.419.406.406 0 0 0-.428.419v.418a1.592 1.592 0 0 0 .428 3.136.709.709 0 0 1 .716.697.771.771 0 0 1-.715.767.783.783 0 0 1-.786-.767.429.429 0 0 0-.857 0 1.577 1.577 0 0 0 1.215 1.533v.419a.406.406 0 0 0 .428.418.456.456 0 0 0 .429-.418v-.419a1.595 1.595 0 0 0 1.144-1.533 1.567 1.567 0 0 0-1.573-1.533.766.766 0 0 1 0-1.534Z" clip-rule="evenodd"/>
</svg>
