<svg xmlns="http://www.w3.org/2000/svg" width="24" height="24" fill="none" viewBox="0 0 24 24">
  <path fill="#000" fill-rule="evenodd" d="M16.153 8.094a.538.538 0 0 0 .28-.135l2.311-2.23c.346.229.752.35 1.167.35A2.119 2.119 0 0 0 22 4.04 2.067 2.067 0 0 0 19.91 2a2.03 2.03 0 0 0-2.088 2.04 2 2 0 0 0 .362 1.14c-.31.29-.968.91-2.383 2.24a.4.4 0 0 0 0 .54c.142.067.212.134.352.134Zm3.757-5.277a1.227 1.227 0 0 1 1.113.774 1.221 1.221 0 0 1-.912 1.65 1.226 1.226 0 0 1-1.454-1.2 1.23 1.23 0 0 1 .778-1.137c.151-.06.313-.09.476-.087Zm0 14.652a2.171 2.171 0 0 0-1.172.332l-1.54-1.509a.426.426 0 0 0-.552 0 .498.498 0 0 0 0 .61l1.506 1.477a1.99 1.99 0 0 0-.33 1.105A2.056 2.056 0 0 0 19.91 21.5 2.108 2.108 0 0 0 22 19.484a2.056 2.056 0 0 0-2.09-2.015Zm0 3.225a1.213 1.213 0 0 1-1.14-1.471 1.208 1.208 0 0 1 .961-.928 1.214 1.214 0 0 1 1.433 1.19 1.223 1.223 0 0 1-.78 1.125 1.23 1.23 0 0 1-.473.084ZM4.091 6.079A2.06 2.06 0 0 0 5.2 5.743L7.481 7.96c.14.068.207.135.348.135a.533.533 0 0 0 .278-.135.402.402 0 0 0 0-.54S8.098 7.414 5.8 5.18c.242-.33.375-.728.38-1.138a2.068 2.068 0 0 0-2.09-2.04 2.03 2.03 0 0 0-2.088 2.04 2.067 2.067 0 0 0 2.09 2.038Zm0-3.262A1.235 1.235 0 0 1 5.344 4.04a1.2 1.2 0 0 1-.275.761.336.336 0 0 0-.158.121.32.32 0 0 0-.052.08c-.22.17-.49.26-.768.261a1.226 1.226 0 0 1-1.25-1.223 1.222 1.222 0 0 1 1.25-1.223Zm2.633 13.475-1.532 1.489a2.136 2.136 0 0 0-1.103-.312 2.022 2.022 0 0 0-1.93 1.227c-.105.25-.16.518-.159.788A2.055 2.055 0 0 0 4.09 21.5a2.107 2.107 0 0 0 2.088-2.016c0-.411-.13-.812-.372-1.145l1.477-1.436a.375.375 0 0 0 .116-.477.376.376 0 0 0-.116-.134.434.434 0 0 0-.556 0h-.003Zm-2.633 4.402a1.215 1.215 0 0 1-1.159-.736 1.208 1.208 0 0 1 1.16-1.683c.3.007.59.12.816.317l.003.007.013.007a1.18 1.18 0 0 1 .42.876 1.271 1.271 0 0 1-1.252 1.212Zm15.82-11.38a2.034 2.034 0 0 0-2.05 1.64h-2.11c-.278 0-.416.132-.416.398a.389.389 0 0 0 .416.398h2.112a2.078 2.078 0 0 0 2.048 1.641A2.118 2.118 0 0 0 22 11.351a2.067 2.067 0 0 0-2.09-2.038Zm0 3.261a1.234 1.234 0 0 1-1.251-1.196.232.232 0 0 0 .007-.027c0-.012-.006-.02-.007-.03a1.25 1.25 0 0 1 1.5-1.223 1.252 1.252 0 0 1 .909 1.707 1.251 1.251 0 0 1-1.159.77ZM8.25 10.954H6.138a2.083 2.083 0 0 0-2.047-1.64 2.03 2.03 0 0 0-2.089 2.038 2.067 2.067 0 0 0 2.09 2.039 2.144 2.144 0 0 0 2.044-1.64h2.117a.439.439 0 0 0 .417-.4.392.392 0 0 0-.418-.397Zm-4.16 1.621a1.228 1.228 0 0 1-1.11-.763 1.222 1.222 0 0 1 .882-1.657 1.228 1.228 0 0 1 1.478 1.16c0 .013-.006.022-.006.037 0 .014.005.022.006.034a1.23 1.23 0 0 1-1.25 1.19Zm6.872-2.243a1.06 1.06 0 0 0 1.05 1.02 1.787 1.787 0 0 1 1.676 1.084c.092.217.141.45.143.686a1.815 1.815 0 0 1-1.41 1.716v.581a.447.447 0 0 1-.421.413.403.403 0 0 1-.394-.25.4.4 0 0 1-.029-.163v-.578a1.813 1.813 0 0 1-1.455-1.717.445.445 0 0 1 .42-.409.399.399 0 0 1 .42.409.989.989 0 0 0 .945.943.44.44 0 0 1 .094-.018c.03.003.06.01.088.02a.952.952 0 0 0 .89-.986.95.95 0 0 0-.967-.912 1.86 1.86 0 0 1-1.89-1.837 1.809 1.809 0 0 1 1.456-1.716V8.08c0-.27.14-.405.422-.405a.398.398 0 0 1 .422.405v.533a1.82 1.82 0 0 1 1.409 1.716.419.419 0 0 1-.84 0 .986.986 0 0 0-.98-.952 1.055 1.055 0 0 0-1.049.955Z" clip-rule="evenodd"/>
</svg>
