<svg xmlns="http://www.w3.org/2000/svg" width="24" height="24" fill="none" viewBox="0 0 24 24">
  <path fill="#000" fill-rule="evenodd" d="M17.837 4.85c-.07 0-.14-.07-.21-.14-1.664-1.179-3.539-1.875-5.622-1.875-.21 0-.419-.139-.419-.417 0-.21.21-.418.419-.418 2.223 0 4.376.696 6.111 2.084.21.139.21.417.07.556a.384.384 0 0 1-.349.21ZM4.502 6.514c-.07 0-.14-.07-.209-.14-.21-.138-.279-.417-.07-.556a9.542 9.542 0 0 1 5.35-3.471c.208-.07.418.07.487.278.07.21-.07.418-.279.488-1.944.487-3.679 1.666-4.93 3.192a.384.384 0 0 1-.349.21Zm17.084 5.694c-.21 0-.419-.14-.419-.418 0-2.014-.693-3.888-1.944-5.485-.14-.209-.14-.417.07-.626.14-.14.419-.07.553.07C21.237 7.484 22 9.567 22 11.79c0 .209-.14.418-.349.418h-.07.005ZM2.698 14.57a.471.471 0 0 1-.419-.279C2.14 13.527 2 12.766 2 12c0-1.387.349-2.78.902-4.097.14-.21.35-.348.554-.21.21.07.349.349.21.558A8.726 8.726 0 0 0 2.832 12c0 .696.14 1.387.279 2.084.07.208-.07.417-.35.487h-.069.005Zm15.483 5.206a.532.532 0 0 1-.348-.139.368.368 0 0 1 .07-.557c1.525-1.318 2.637-3.123 3.055-5.067.07-.209.28-.348.489-.278.279.07.418.278.348.487-.488 2.153-1.665 4.097-3.335 5.485-.07.07-.209.07-.279.07ZM7.902 21.095c-.07 0-.14 0-.209-.07a9.812 9.812 0 0 1-4.581-4.445c-.07-.209 0-.487.209-.557.21-.139.419-.07.553.14.903 1.805 2.363 3.262 4.168 4.097.21.14.349.348.21.557-.07.139-.21.278-.35.278ZM12 22c-.623 0-1.32-.07-1.944-.209-.28 0-.419-.209-.349-.487.07-.209.279-.348.488-.278.624.07 1.252.139 1.805.139 1.46 0 2.777-.279 4.028-.905.21-.07.488 0 .553.209.07.208 0 .417-.209.556-1.32.627-2.846.97-4.377.97L12 22Zm.823-15.012c-2.777 0-5 1.805-5 4.024 0 1.039.489 2.079 1.46 2.844.14.07.21.279.14.487l-.693 1.388 2.014-.97c.07-.07.21-.07.28 0 .623.14 1.18.278 1.804.278 2.777 0 5-1.805 5-4.023s-2.223-4.023-5-4.023l-.005-.005Zm-5 9.991c-.14 0-.21 0-.279-.07-.14-.139-.21-.348-.14-.487l1.112-2.148c-.972-.9-1.53-2.014-1.53-3.262 0-2.706 2.642-4.854 5.837-4.854 3.196 0 5.837 2.148 5.837 4.854 0 2.705-2.641 4.853-5.837 4.853-.623 0-1.25-.139-1.874-.278l-2.986 1.387h-.14v.005Zm7.498-7.902c0-.205-.21-.413-.414-.413h-4.158a.44.44 0 0 0-.414.413c0 .273.21.413.414.413h4.158c.21 0 .414-.14.414-.413Zm0 1.689c0-.204-.21-.413-.414-.413h-4.158a.44.44 0 0 0-.414.413c0 .273.21.413.414.413h4.158c.21 0 .414-.14.414-.413Zm0 1.642c0-.204-.21-.413-.414-.413h-4.158a.44.44 0 0 0-.414.413c0 .274.21.413.414.413h4.158c.21 0 .414-.139.414-.413Z" clip-rule="evenodd"/>
</svg>
