<svg xmlns="http://www.w3.org/2000/svg" width="24" height="24" fill="none" viewBox="0 0 24 24">
  <path fill="#000" fill-rule="evenodd" d="M19.5 16.265a.444.444 0 0 1-.418.41H9.054a.41.41 0 1 1 0-.82h10.028a.445.445 0 0 1 .418.41ZM12.416 13.4a.412.412 0 0 0-.391.25.409.409 0 0 0 .391.569h6.667a.412.412 0 0 0 .391-.25.409.409 0 0 0-.391-.569h-6.667ZM22 8.945V19.54a.444.444 0 0 1-.417.407H2.416A.443.443 0 0 1 2 19.54V8.944a.442.442 0 0 1 .416-.407h6.892l2.725-2.665-.464-.419-2.216 2.128a.36.36 0 0 1-.277.137.525.525 0 0 1-.277-.137.32.32 0 0 1 0-.55l2.492-2.472a.327.327 0 0 1 .556 0l.757.753 1.188-1.161a.33.33 0 0 1 .556 0l1.669 1.633a.316.316 0 0 1 0 .544l-2.258 2.21h7.822a.442.442 0 0 1 .419.406ZM4.748 15.244l1.085-.369-.757-.736-.327 1.105Zm7.506-6.323-1.082-1.073L9.86 9.12a.474.474 0 0 1-.186.181l-4.234 4.11 1.115 1.085 5.7-5.576Zm-.52-1.618 1.08 1.072 2.372-2.319-1.113-1.02-2.34 2.267Zm9.432 2.05h-8.24L6.84 15.308l-.003.003c0 .067-.07.068-.14.136l-2.503.816h-.14a.364.364 0 0 1-.278-.136c-.14-.067-.14-.272-.14-.408l.835-2.45c.07-.068.07-.136.14-.136L8.476 9.35H2.833v9.78h18.334l-.001-9.778Z" clip-rule="evenodd"/>
</svg>
