<svg xmlns="http://www.w3.org/2000/svg" width="24" height="24" fill="none" viewBox="0 0 24 24">
  <path fill="#000" fill-rule="evenodd" d="M15.236 2.004A6.71 6.71 0 0 0 8.459 8.64a6.617 6.617 0 1 0 6.776 6.637 6.638 6.638 0 0 0 6.247-9.208A6.642 6.642 0 0 0 15.235 2v.003Zm-.847 13.253a5.932 5.932 0 1 1-5.93-5.788h.058a6.705 6.705 0 0 0 5.87 5.754l.002.034Zm.847-.806a5.81 5.81 0 1 1 5.93-5.808 5.86 5.86 0 0 1-5.93 5.808Zm-1.268-7.053a.81.81 0 0 0 .854.83 1.65 1.65 0 0 1 .414 3.26v.475a.446.446 0 0 1-.415.415.4.4 0 0 1-.414-.415v-.466a1.644 1.644 0 0 1-1.292-1.609.405.405 0 0 1 .427-.415.452.452 0 0 1 .427.415.809.809 0 0 0 .853.83.83.83 0 1 0 0-1.66 1.66 1.66 0 0 1-1.345-2.69 1.64 1.64 0 0 1 .93-.577v-.466a.4.4 0 0 1 .415-.415.446.446 0 0 1 .414.415v.474A1.693 1.693 0 0 1 16.527 7.4a.452.452 0 0 1-.426.415.404.404 0 0 1-.427-.415.854.854 0 0 0-.854-.83.81.81 0 0 0-.851.827Zm-6.78 6.637a.811.811 0 0 0 .854.83 1.65 1.65 0 0 1 .415 3.26v.475a.447.447 0 0 1-.415.415.4.4 0 0 1-.415-.415v-.467a1.645 1.645 0 0 1-1.292-1.608.404.404 0 0 1 .427-.415.452.452 0 0 1 .427.415.811.811 0 0 0 .853.83.828.828 0 0 0 .793-1.154.831.831 0 0 0-.793-.506 1.655 1.655 0 0 1-.415-3.268v-.466a.399.399 0 0 1 .415-.414.445.445 0 0 1 .415.414v.474a1.693 1.693 0 0 1 1.29 1.602.452.452 0 0 1-.426.415.4.4 0 0 1-.397-.252.403.403 0 0 1-.03-.163.854.854 0 0 0-.853-.83.812.812 0 0 0-.852.83v-.002Z" clip-rule="evenodd"/>
</svg>
