<svg xmlns="http://www.w3.org/2000/svg" width="24" height="24" fill="none" viewBox="0 0 24 24">
  <path fill="#000" fill-rule="evenodd" d="M12.45 5.979a.462.462 0 0 0-.435-.425h-1.312V3.426A.463.463 0 0 0 10.268 3H2.437a.462.462 0 0 0-.435.426v2.553a.462.462 0 0 0 .435.426h1.312v1.702h-.464a.463.463 0 0 0-.434.426v2.128h-.416a.463.463 0 0 0-.435.425v2.554a.462.462 0 0 0 .435.426h.416v1.702h-.416a.462.462 0 0 0-.435.426v2.554a.462.462 0 0 0 .435.425h.416v2.087a.46.46 0 0 0 .434.42h7.831a.46.46 0 0 0 .436-.42v-2.52a.46.46 0 0 0-.436-.42H10.7v-1.703h.416a.463.463 0 0 0 .436-.425v-2.554a.462.462 0 0 0-.436-.426H10.7V11.51h.416a.464.464 0 0 0 .436-.426V8.956h.464a.462.462 0 0 0 .434-.425V5.979Zm-2.185 8.085h.417v1.703h-.88v-1.703h.463ZM2.87 16.618h.88v1.702h-.88v-1.702Zm6.08 2.552v1.667h-3.5v-1.665l3.5-.002Zm-4.35-.85v-1.703h3.5v1.702H4.6Zm4.35-2.554h-3.5v-1.703h3.5v1.703Zm-5.665-2.554h-.416V11.51h.88v1.703h-.464Zm1.312 0V11.51h3.5v1.703h-3.5Zm.851-2.554V8.957h3.5v1.702h-3.5Zm.9-2.553v-1.7h3.451v1.702l-3.452-.001Zm-1.75-4.257h3.499v1.703h-3.5V3.85Zm5.23 1.703h-.88V3.85h.88v1.703ZM2.866 3.85h.88v1.703h-.88V3.85Zm1.75 2.554h.832v1.703h-.832V6.403Zm-.898 2.554h.88v1.702h-.88V8.957Zm0 5.107h.88v1.703h-.88v-1.703Zm0 5.107h.88v1.667h-.88v-1.667Zm6.961 1.667h-.88v-1.665h.464a.365.365 0 0 0 .053-.012h.364l-.001 1.677Zm-.85-2.52h-.88v-1.703h.88v1.703Zm0-5.107h-.88v-1.703h.88v1.703Zm.85-2.554h-.88V8.955h.88v1.702Zm.899-2.553h-.88v-1.7h.88v1.7Zm9.987 7.66h-.417v-2.127a.463.463 0 0 0-.434-.426h-7.831a.462.462 0 0 0-.436.426v2.559a.463.463 0 0 0 .436.425h.415v1.703h-.415a.46.46 0 0 0-.436.42v2.52a.46.46 0 0 0 .436.42h7.83a.46.46 0 0 0 .435-.42v-2.091h.417a.463.463 0 0 0 .435-.425v-2.552a.463.463 0 0 0-.435-.428v-.004Zm-6.517 0v-1.702H18.5v1.703h-3.452Zm4.351.852v1.702h-3.5v-1.703h3.5ZM18.5 19.17v1.667h-3.452v-1.663l3.452-.004Zm2.63-.85h-.88v-1.703h.88v1.702Zm-.852-2.554H19.4v-1.703h.88v1.703Zm-6.96-1.703h.832v1.703h-.833v-1.703Zm1.732 2.554v1.702h-.88v-1.703h.88Zm-1.733 2.542h.368a.359.359 0 0 0 .052.011h.417v1.667h-.833l-.004-1.678Zm6.961 1.68H19.4v-1.665h.88v1.665Z" clip-rule="evenodd"/>
</svg>
