<svg xmlns="http://www.w3.org/2000/svg" width="24" height="24" fill="none" viewBox="0 0 24 24">
  <path fill="#000" fill-rule="evenodd" d="M15.333 12.61V4.042C15.333 2.612 11.859 2 8.666 2 5.474 2 2 2.612 2 4.04v12.247c0 1.428 3.465 2.04 6.652 2.04h.014v1.199c0 1.415 3.475 2.022 6.667 2.022 3.192 0 6.667-.605 6.667-2.022v-4.872c0-1.43-3.472-2.042-6.667-2.042Zm5.834 4.487v.004c0 .34-2.014 1.224-5.834 1.224-3.889 0-5.833-.884-5.833-1.224v-1.384c1.22.673 3.592.976 5.833.976 2.24 0 4.614-.302 5.834-.976v1.38ZM14.5 6.488c0 .34-2.014 1.225-5.834 1.225-3.889 0-5.833-.884-5.833-1.225V5.104c1.22.673 3.593.976 5.833.976 2.241 0 4.614-.302 5.834-.976v1.384Zm-5.834 2.04c2.241 0 4.614-.301 5.834-.975v1.384c0 .34-2.014 1.225-5.834 1.225-3.889 0-5.833-.884-5.833-1.225V7.553c1.22.673 3.592.976 5.833.976Zm0 2.45c2.241 0 4.614-.302 5.834-.976v1.384c0 .34-2.014 1.225-5.834 1.225-3.889 0-5.833-.884-5.833-1.225v-1.384c1.22.673 3.592.976 5.833.976ZM2.831 12.45c1.219.674 3.593.977 5.835.977.408 0 .819-.01 1.228-.03-.755.314-1.228.729-1.228 1.255v.408h-.014c-3.88 0-5.821-.885-5.821-1.225V12.45Zm18.336 2.202c0 .34-2.014 1.224-5.834 1.224-3.889 0-5.833-.884-5.833-1.224 0-.34 1.944-1.225 5.833-1.225 3.82 0 5.834.885 5.834 1.225Zm-7.06-2.011c.14-.059.277-.126.41-.201v.184c-.137.006-.274.01-.41.017ZM8.67 2.815c3.82 0 5.833.884 5.833 1.224 0 .34-2.014 1.225-5.833 1.225-3.89 0-5.834-.884-5.834-1.225 0-.34 1.942-1.224 5.831-1.224h.003Zm-.015 14.694c-3.88 0-5.82-.885-5.82-1.225V14.9c1.216.673 3.584.976 5.82.976h.015v1.633h-.015Zm6.682 3.227c-3.889 0-5.833-.876-5.833-1.213v-1.359c1.22.673 3.592.976 5.833.976 2.24 0 4.614-.302 5.833-.976v1.36c-.003.336-2.016 1.212-5.836 1.212h.003Z" clip-rule="evenodd"/>
</svg>
