<svg xmlns="http://www.w3.org/2000/svg" width="24" height="24" fill="none" viewBox="0 0 24 24">
  <path fill="#000" fill-rule="evenodd" d="M12.01 12.404c0-.21-.21-.418-.42-.418H4.085a1.247 1.247 0 0 1-1.251-1.248V5.332h13.344V7.41c0 .278.14.417.418.417.21 0 .419-.139.419-.417V4.079c0-1.11-.972-2.079-2.084-2.079H4.084C2.902 2 2 2.97 2 4.079v6.659c0 1.178.902 2.079 2.084 2.079h7.507c.209 0 .418-.14.418-.418v.005ZM4.083 2.83h10.842c.693 0 1.25.556 1.25 1.248v.431H2.834V4.08c0-.692.558-1.248 1.25-1.248Zm5 4.19h-4.19c-.279 0-.419-.144-.419-.432 0-.218.14-.431.419-.431h4.195c.21 0 .419.218.419.431 0 .288-.21.432-.419.432h-.004Zm5.818-.868c.205 0 .414.218.414.432 0 .287-.204.431-.414.431h-1.646c-.275 0-.414-.144-.414-.431 0-.218.135-.432.414-.432h1.646ZM7.39 7.842c.209 0 .418.203.418.412 0 .274-.209.413-.418.413H4.884c-.28 0-.419-.139-.419-.413a.4.4 0 0 1 .419-.413H7.39Zm9.181 3.331c-2.99 0-5.423 2.427-5.423 5.41 0 2.984 2.432 5.411 5.423 5.411 2.99 0 5.423-2.427 5.423-5.41 0-2.984-2.432-5.411-5.423-5.411Zm-4.59 5.41a4.583 4.583 0 0 1 4.59-4.58c1.116 0 2.144.414 2.944 1.091l-6.465 6.45a4.565 4.565 0 0 1-1.07-2.965v.005Zm4.59 4.58a4.588 4.588 0 0 1-2.972-1.067l6.484-6.427a4.55 4.55 0 0 1 1.074 2.915c0 2.566-2.084 4.58-4.59 4.58h.004Z" clip-rule="evenodd"/>
</svg>
