<svg xmlns="http://www.w3.org/2000/svg" width="24" height="24" fill="none" viewBox="0 0 24 24">
  <path fill="#000" fill-rule="evenodd" d="M11.559 11.752h-7.48a1.275 1.275 0 0 1-1.248-1.22V5.264h13.3v2.018a.395.395 0 0 0 .415.406.365.365 0 0 0 .415-.406v-3.25A2.06 2.06 0 0 0 14.884 2H4.078A2.107 2.107 0 0 0 2 4.032v6.503a2.063 2.063 0 0 0 2.078 2.031h7.48a.365.365 0 0 0 .399-.24.363.363 0 0 0 .017-.166.394.394 0 0 0-.415-.409Zm-7.48-8.94h10.805a1.228 1.228 0 0 1 1.247 1.22v.416H2.83v-.416a1.274 1.274 0 0 1 1.247-1.22Zm4.986 4.085H4.91a.395.395 0 0 1-.416-.409.444.444 0 0 1 .416-.408h4.156a.396.396 0 0 1 .415.408.364.364 0 0 1-.415.409Zm5.849-.817a.396.396 0 0 1 .415.408.363.363 0 0 1-.415.409h-1.661a.396.396 0 0 1-.416-.409.443.443 0 0 1 .416-.408h1.66ZM7.39 7.713a.393.393 0 0 1 .413.408.363.363 0 0 1-.413.408H4.907a.393.393 0 0 1-.414-.408.442.442 0 0 1 .414-.408H7.39Zm14.188 6.483H20.32v-1.205a2.852 2.852 0 0 0-2.925-2.83 2.895 2.895 0 0 0-2.925 2.83v1.205h-1.215a.443.443 0 0 0-.417.408v6.529a.397.397 0 0 0 .417.408h8.325a.365.365 0 0 0 .417-.408v-6.53a.395.395 0 0 0-.42-.407h.001Zm-6.274-1.205a2.108 2.108 0 0 1 2.088-2.022 2.064 2.064 0 0 1 2.09 2.022v1.205h-4.179v-1.205Zm5.858 7.734h-7.493v-5.713h7.493v5.713Zm-2.93-3.265a.783.783 0 0 1-.409.71v1.33c0 .273-.143.41-.43.409a.404.404 0 0 1-.43-.409v-1.346a.804.804 0 0 1-.409-.694.889.889 0 0 1 .839-.816.837.837 0 0 1 .838.817h.001Z" clip-rule="evenodd"/>
</svg>
