<svg xmlns="http://www.w3.org/2000/svg" width="24" height="24" fill="none" viewBox="0 0 24 24">
  <path fill="#000" fill-rule="evenodd" d="M12.01 12.404c0-.21-.21-.418-.42-.418H4.085a1.247 1.247 0 0 1-1.251-1.248V5.332h13.344V7.41c0 .278.209.417.418.417.21 0 .419-.139.419-.417V4.079c0-1.11-.972-2.079-2.084-2.079H4.084C2.972 2 2 2.97 2 4.079v6.659c0 1.178.972 2.079 2.084 2.079h7.507c.209 0 .418-.14.418-.418v.005ZM4.083 2.83h10.842c.693 0 1.25.556 1.25 1.248v.431H2.834V4.08c0-.692.558-1.248 1.25-1.248Zm5 4.19h-4.19a.408.408 0 0 1-.419-.432c0-.218.21-.431.419-.431h4.195c.21 0 .419.218.419.431 0 .288-.21.432-.419.432h-.004Zm5.818-.868c.205 0 .414.218.414.432 0 .287-.204.431-.414.431h-1.646a.407.407 0 0 1-.414-.431c0-.218.204-.432.414-.432h1.646ZM7.39 7.842c.209 0 .418.203.418.412 0 .274-.209.413-.418.413H4.884c-.21 0-.419-.139-.419-.413 0-.204.21-.413.419-.413H7.39Zm9.181 3.331c-2.99 0-5.423 2.427-5.423 5.41 0 2.984 2.432 5.411 5.423 5.411 2.99 0 5.423-2.427 5.423-5.41 0-2.984-2.432-5.411-5.423-5.411Zm0 9.99c-2.502 0-4.59-2.013-4.59-4.58 0-2.565 2.083-4.58 4.59-4.58 2.507 0 4.59 2.08 4.59 4.58 0 2.502-2.083 4.58-4.59 4.58Zm2.79-6.106c.14.14.21.418 0 .552l-2.925 3.188c-.07.14-.14.14-.279.14-.14 0-.21 0-.279-.07l-2.093-2.08c-.21-.208-.21-.482 0-.62.14-.14.419-.14.558 0l1.814 1.8 2.581-2.91c.21-.14.489-.14.628 0h-.004Z" clip-rule="evenodd"/>
</svg>
