<svg xmlns="http://www.w3.org/2000/svg" width="24" height="24" fill="none" viewBox="0 0 24 24">
  <path fill="#000" fill-rule="evenodd" d="M14.777 18.068a.404.404 0 0 1-.425.411H4.13A2.064 2.064 0 0 1 2 16.411V8.142a2.107 2.107 0 0 1 2.13-2.068h9.37a.45.45 0 0 1 .425.414.402.402 0 0 1-.425.411H4.13A1.255 1.255 0 0 0 2.85 8.14v1.22h10.622a.453.453 0 0 1 .425.416.405.405 0 0 1-.425.417H2.851v6.22a1.255 1.255 0 0 0 1.279 1.24h10.222a.453.453 0 0 1 .425.415Zm-2.546-5.79a.453.453 0 0 0-.426-.417H4.974a.454.454 0 0 0-.428.417.406.406 0 0 0 .428.416h6.831a.404.404 0 0 0 .426-.416Zm-7.257 1.25a.454.454 0 0 0-.428.417.406.406 0 0 0 .428.416h2.57a.408.408 0 0 0 .429-.416.454.454 0 0 0-.429-.417h-2.57ZM22 14.75a3.345 3.345 0 0 1-3.009 3.29v1.277a.416.416 0 0 1-.833 0v-1.285a3.344 3.344 0 0 1-2.963-3.284.452.452 0 0 1 .426-.414.4.4 0 0 1 .395.25.44.44 0 0 1 .029.164 2.49 2.49 0 0 0 2.113 2.443v-4.893a3.3 3.3 0 0 1 0-6.564V4.402a.417.417 0 0 1 .833 0v1.325A3.4 3.4 0 0 1 22 9.017a.452.452 0 0 1-.425.413.403.403 0 0 1-.425-.414 2.49 2.49 0 0 0-2.16-2.448v4.959A3.327 3.327 0 0 1 22 14.75Zm-3.842-3.29V6.576a2.468 2.468 0 0 0 0 4.887v-.001Zm2.992 3.29a2.467 2.467 0 0 0-2.16-2.378v4.826a2.49 2.49 0 0 0 2.16-2.448Z" clip-rule="evenodd"/>
</svg>
