<svg xmlns="http://www.w3.org/2000/svg" width="24" height="24" fill="none" viewBox="0 0 24 24">
  <path fill="#000" fill-rule="evenodd" d="M4.02 13.584a.473.473 0 0 0 .499-.489v-.489h6.991v.49a.524.524 0 0 0 .489.488.47.47 0 0 0 .49-.489v-.489h6.99v.49a.531.531 0 0 0 .5.488.476.476 0 0 0 .499-.489v-.978a.476.476 0 0 0-.5-.489H12.49v-.978h4.011a.472.472 0 0 0 .499-.487 4.835 4.835 0 0 0-3.13-4.43 3.134 3.134 0 0 0 1.445-2.582 3.29 3.29 0 0 0-6.575 0 3.163 3.163 0 0 0 1.44 2.592 4.856 4.856 0 0 0-3.067 4.42.474.474 0 0 0 .499.487h3.902v.978H4.026a.529.529 0 0 0-.498.49v.977a.532.532 0 0 0 .493.49ZM11.984.97a2.186 2.186 0 1 1 0 4.363 2.183 2.183 0 1 1 0-4.363Zm.027 5.382a3.916 3.916 0 0 1 3.906 3.325h-3.894c-.01 0-.015-.005-.024-.005-.01 0-.014.005-.02.005H8.106a3.914 3.914 0 0 1 3.905-3.325Zm-9.005 11.09a1.005 1.005 0 0 0 1.004.978 2.012 2.012 0 0 1 2.011 1.956A1.929 1.929 0 0 1 4.5 22.27v.553a.432.432 0 0 1-.489.489.47.47 0 0 1-.489-.49v-.552A1.928 1.928 0 0 1 2 20.376a.533.533 0 0 1 .504-.489.476.476 0 0 1 .502.49 1.005 1.005 0 0 0 1.005.977.953.953 0 0 0 1.006-.978 1.005 1.005 0 0 0-1.006-.978 1.96 1.96 0 0 1-2.01-1.956 1.996 1.996 0 0 1 1.521-1.888v-.516a.52.52 0 0 1 .49-.476.461.461 0 0 1 .488.476v.516a1.997 1.997 0 0 1 1.522 1.888.439.439 0 0 1-.504.49.474.474 0 0 1-.502-.49 1.005 1.005 0 0 0-1.006-.978 1.067 1.067 0 0 0-1.004.978Zm11.348-1.874a.59.59 0 0 1 .084.733l-1.95 2.835v.262h.524a.478.478 0 0 1 .505.489.44.44 0 0 1-.505.488h-.524v.49h.524a.478.478 0 0 1 .505.488.44.44 0 0 1-.505.49h-.524v.978a.432.432 0 0 1-.489.489.469.469 0 0 1-.489-.489v-.978h-.524a.48.48 0 0 1-.506-.49.536.536 0 0 1 .506-.489h.524v-.489h-.524a.478.478 0 0 1-.506-.488.536.536 0 0 1 .506-.49h.524v-.261L9.558 16.3a.523.523 0 0 1 .17-.733.54.54 0 0 1 .672.162l1.6 2.366 1.598-2.364a.659.659 0 0 1 .757-.162Zm7.642 7.254a.437.437 0 0 1-.497.489h-3.896a.472.472 0 0 1-.497-.49.53.53 0 0 1 .497-.488c.331 0 .912-.734.912-1.223v-.627H17.01a.53.53 0 0 1-.498-.489.474.474 0 0 1 .498-.488h1.506v-2.391a1.657 1.657 0 0 1 3.316 0 .472.472 0 0 1-.498.489.437.437 0 0 1-.497-.489.663.663 0 1 0-1.326 0v2.39h1.987a.438.438 0 0 1 .5.49.476.476 0 0 1-.307.459.475.475 0 0 1-.193.03H19.51v.625c-.023.437-.166.86-.414 1.222H21.5a.473.473 0 0 1 .497.49Z" clip-rule="evenodd"/>
</svg>
