<svg xmlns="http://www.w3.org/2000/svg" width="24" height="24" fill="none" viewBox="0 0 24 24">
  <path fill="#000" fill-rule="evenodd" d="M11.095 10.74a2.86 2.86 0 0 1 1.225-.416 2.181 2.181 0 0 1 1.43.624.393.393 0 0 1 .112.486.393.393 0 0 1-.112.139.378.378 0 0 1-.611 0 1.21 1.21 0 0 0-1.837 0 1.58 1.58 0 0 0 0 1.873 1.496 1.496 0 0 0 1.837 0 2.186 2.186 0 0 1 3.059 0 2.605 2.605 0 0 1 .204 2.708l.408.624c.204 0 .204.416 0 .416 0 .209 0 .209-.204.209s-.204 0-.204-.209l-.612-.416c-.37.23-.79.373-1.224.416a2.18 2.18 0 0 1-1.43-.624c-.204-.209-.204-.625 0-.625a.376.376 0 0 1 .61 0 1.5 1.5 0 0 0 1.838 0 1.58 1.58 0 0 0 0-1.874c-.612-.624-1.43-.624-1.837 0a2.186 2.186 0 0 1-3.06 0c-.611-.832-.815-1.874-.203-2.706l-.613-.625v-.624h.613l.611.624ZM7.03 7.587a.78.78 0 0 0-.204.627 1.22 1.22 0 1 0 1.22-1.253.734.734 0 0 0-.61.209l.407.417c.204 0 .204.418 0 .418 0 .21 0 .21-.203.21-.204 0-.203 0-.203-.21l-.407-.418Zm13.416 6.893L10.689 4.455H4.998l2.034 2.09a1.53 1.53 0 0 1 1.018-.418 2.066 2.066 0 0 1 2.03 2.09 1.945 1.945 0 0 1-2.03 2.09 2.065 2.065 0 0 1-2.035-2.09 1.61 1.61 0 0 1 .406-1.045l-2.035-2.09v5.848l9.757 10.026 6.303-6.476Zm.813.21-6.91 7.101c0 .209 0 .209-.204.209a.2.2 0 0 1-.203-.209L3.778 11.347c-.202 0-.202 0-.202-.209V4.246L2.152 2.575c-.203 0-.203-.418 0-.418 0-.21.407-.21.407 0l1.626 1.462h6.71c.203 0 .203 0 .203.209l10.163 10.444c.201 0 .201.418-.002.418Z" clip-rule="evenodd"/>
</svg>
