<svg xmlns="http://www.w3.org/2000/svg" width="24" height="24" fill="none" viewBox="0 0 24 24">
  <path fill="#000" fill-rule="evenodd" d="M11.757 2A10 10 0 1 0 22 12 10.144 10.144 0 0 0 11.757 2Zm0 19.131A9.135 9.135 0 0 1 3.132 8.458a9.134 9.134 0 0 1 8.625-5.588 9.132 9.132 0 0 1 3.565 17.634 9.13 9.13 0 0 1-3.565.627Zm1.78-11.315a.474.474 0 0 0 .445.437.425.425 0 0 0 .446-.437 2.618 2.618 0 0 0-2.233-2.579v-.87a.384.384 0 0 0-.438-.435.418.418 0 0 0-.437.434v.873a2.672 2.672 0 0 0-2.232 2.577 2.735 2.735 0 0 0 2.232 2.573v3.48a1.78 1.78 0 0 1-1.344-1.686.39.39 0 0 0-.445-.437.423.423 0 0 0-.446.437 2.736 2.736 0 0 0 2.233 2.573v.878a.468.468 0 0 0 .437.433.42.42 0 0 0 .438-.433v-.875a2.678 2.678 0 0 0 2.232-2.576 2.617 2.617 0 0 0-2.232-2.579V8.117a1.673 1.673 0 0 1 1.346 1.699h-.002Zm-3.56 0a1.72 1.72 0 0 1 1.345-1.69V11.5a1.779 1.779 0 0 1-1.345-1.685Zm3.56 4.369a1.727 1.727 0 0 1-1.345 1.692v-3.392a1.672 1.672 0 0 1 1.347 1.701l-.002-.001Z" clip-rule="evenodd"/>
</svg>
