<svg xmlns="http://www.w3.org/2000/svg" width="24" height="24" fill="none" viewBox="0 0 24 24">
  <path fill="#000" fill-rule="evenodd" d="M12.279 11.585V4.926a3.323 3.323 0 0 1 3.38 3.328.452.452 0 0 0 .426.416.404.404 0 0 0 .426-.416 4.22 4.22 0 0 0-4.232-4.16V2.418c0-.278-.148-.417-.442-.417a.415.415 0 0 0-.442.417V4.18a4.143 4.143 0 0 0 0 8.15v6.627a3.397 3.397 0 0 1-2.544-3.212.372.372 0 0 0-.426-.416.408.408 0 0 0-.396.252.404.404 0 0 0-.029.164 4.202 4.202 0 0 0 3.395 4.075v1.762a.463.463 0 0 0 .61.394.413.413 0 0 0 .274-.394v-1.677a4.16 4.16 0 0 0 2.996-7.132 4.16 4.16 0 0 0-2.996-1.188ZM8.85 8.255a3.338 3.338 0 0 1 2.543-3.217v6.429A3.399 3.399 0 0 1 8.85 8.255Zm3.428 10.818v-6.656a3.324 3.324 0 0 1 3.38 3.328 3.367 3.367 0 0 1-3.38 3.328Z" clip-rule="evenodd"/>
</svg>
