<svg xmlns="http://www.w3.org/2000/svg" width="24" height="24" fill="none" viewBox="0 0 24 24">
  <path fill="#000" fill-rule="evenodd" d="M2.766 14.57h-.07a.47.47 0 0 1-.418-.278C2.14 13.528 2 12.764 2 12c0-1.389.348-2.778.905-4.097.14-.209.348-.347.557-.209.209.07.348.348.209.556A8.683 8.683 0 0 0 2.835 12c0 .694.14 1.389.279 2.083.07.209-.07.417-.348.486Zm5.276 5.694c-1.805-.833-3.262-2.292-4.167-4.097-.14-.209-.348-.278-.557-.14-.209.07-.279.348-.209.556a9.818 9.818 0 0 0 4.585 4.445c.07.07.139.07.209.07.139 0 .278-.14.348-.279.139-.208 0-.416-.21-.555ZM4.292 6.375c.07.07.14.139.21.139.138 0 .278-.07.347-.208C6.097 4.778 7.833 3.597 9.777 3.11c.21-.07.348-.278.279-.486-.07-.208-.279-.347-.488-.278A9.518 9.518 0 0 0 4.223 5.82c-.21.14-.14.417.07.556Zm15.555-.625c-.14-.139-.418-.208-.557-.07-.209.209-.209.417-.07.626 1.249 1.597 1.945 3.472 1.945 5.486 0 .277.209.416.417.416h.07c.209 0 .348-.208.348-.416 0-2.223-.766-4.306-2.153-6.042ZM18.18 4.639a.367.367 0 0 0-.07-.556C16.376 2.694 14.223 2 12 2c-.209 0-.418.208-.418.417 0 .277.21.416.418.416 2.084 0 3.958.695 5.624 1.875.07.07.14.14.209.14.14 0 .278-.07.348-.21Zm3.262 9.097c-.209-.07-.418.07-.487.278-.418 1.944-1.527 3.75-3.053 5.07a.367.367 0 0 0-.07.555.53.53 0 0 0 .348.139c.07 0 .209 0 .278-.07a10.018 10.018 0 0 0 3.332-5.486c.07-.208-.07-.416-.348-.486Zm-5.415 6.528c-1.248.625-2.57.903-4.028.903-.557 0-1.179-.07-1.805-.14-.209-.069-.418.07-.487.279-.07.277.07.486.348.486A9.254 9.254 0 0 0 12 22c1.527 0 3.053-.347 4.376-.972.209-.14.278-.347.209-.556-.07-.208-.348-.278-.557-.208Zm-3.944-4.579a.362.362 0 0 0-.232 0c-.79-.065-1.48-.796-1.48-1.657 0-.209-.14-.417-.418-.417a.448.448 0 0 0-.418.417c0 1.24.882 2.254 2.01 2.458v.907c0 .278.203.417.412.417.274 0 .413-.139.413-.416v-.903a2.482 2.482 0 0 0 2.102-2.463c0-1.32-1.109-2.435-2.5-2.435a1.614 1.614 0 0 1-1.597-1.602c0-.908.766-1.602 1.596-1.602.905 0 1.666.694 1.666 1.602 0 .208.14.416.418.416a.447.447 0 0 0 .417-.416c0-1.19-.905-2.204-2.102-2.394v-.995c0-.204-.139-.412-.413-.412-.204 0-.413.204-.413.412v1c-1.127.208-2.009 1.213-2.009 2.389 0 1.32 1.109 2.435 2.431 2.435.905 0 1.666.764 1.666 1.602 0 .838-.7 1.592-1.55 1.657Z" clip-rule="evenodd"/>
</svg>
