<svg xmlns="http://www.w3.org/2000/svg" width="24" height="24" fill="none" viewBox="0 0 24 24">
  <path fill="#000" fill-rule="evenodd" d="M9.727 10.728a.444.444 0 1 0 .889 0 2.437 2.437 0 0 0-1.992-2.356v-.777a.431.431 0 0 0-.462-.436.484.484 0 0 0-.463.436v.784a2.446 2.446 0 0 0-1.897 2.35A2.357 2.357 0 0 0 7.7 13.006v3.014a1.56 1.56 0 0 1-1.009-1.436.444.444 0 1 0-.888 0A2.447 2.447 0 0 0 7.7 16.933v.687a.433.433 0 0 0 .462.436c.308 0 .462-.146.462-.436v-.68a2.388 2.388 0 0 0 0-4.712V9.273a1.544 1.544 0 0 1 1.104 1.455Zm-3.039 0a1.561 1.561 0 0 1 1.01-1.436V12.1a1.46 1.46 0 0 1-1.01-1.372Zm3.04 3.857A1.544 1.544 0 0 1 8.62 16.04v-2.91a1.545 1.545 0 0 1 1.106 1.455Zm7.958-10.788a.429.429 0 0 0-.67.219l-1.71 4.295a.455.455 0 0 0 0 .437c.148.073.222.145.37.145h2.085l-4.092 4.368 1.19-2.839a.905.905 0 0 0-.074-.436.41.41 0 0 0-.372-.219h-1.785l2.754-6.697v-.364a1.024 1.024 0 0 0-.298-.218A10 10 0 1 0 22 11.95a9.884 9.884 0 0 0-4.314-8.154Zm-5.95 17.327a9.176 9.176 0 1 1 0-18.345c.88.01 1.755.132 2.603.364l-2.755 6.916a.455.455 0 0 0 0 .437.574.574 0 0 0 .372.146h1.785l-1.785 4.44a.558.558 0 0 0 .149.582.591.591 0 0 0 .595-.072l6.397-6.77a.442.442 0 0 0 .075-.51.492.492 0 0 0-.373-.293h-2.453l1.264-3.204a9.038 9.038 0 0 1 3.496 7.135 9.235 9.235 0 0 1-9.37 9.174Z" clip-rule="evenodd"/>
</svg>
