<svg xmlns="http://www.w3.org/2000/svg" width="24" height="24" fill="none" viewBox="0 0 24 24">
  <path fill="#000" fill-rule="evenodd" d="M12.62 2.07h-.142c-.071 0-.143-.07-.285-.07C6.53 2 2 6.304 2 11.792A10.233 10.233 0 0 0 12.193 22h.426a.405.405 0 0 0 .425-.417V2.486a.372.372 0 0 0-.425-.416Zm-.427 4.942H9.324a13.933 13.933 0 0 1 2.772-4.174c.034 0 .064-.004.097-.004v4.178ZM2.86 12.023h4.744c.059 1.408.323 2.799.783 4.13H3.914a9.373 9.373 0 0 1-1.053-4.13H2.86Zm.018-.835a8.717 8.717 0 0 1 .91-3.341h4.336a12.724 12.724 0 0 0-.527 3.34h-4.72Zm5.55.835h3.764v4.13H9.25a13.677 13.677 0 0 1-.821-4.13h-.003Zm3.764-.835H8.425c.034-1.137.234-2.262.593-3.341h3.173v3.34Zm-1.364-8.252A14.232 14.232 0 0 0 8.42 7.012H4.264a9.248 9.248 0 0 1 6.566-4.075h-.002ZM4.407 16.988h4.286a19.89 19.89 0 0 0 2.263 4.087 9.302 9.302 0 0 1-6.547-4.087h-.002Zm7.598 4.17a20.19 20.19 0 0 1-2.422-4.17h2.61v4.179c-.061 0-.122-.007-.185-.007l-.003-.003Zm6.188-9.521V6.45a2.65 2.65 0 0 1 2.253 2.591.405.405 0 0 0 .428.416.455.455 0 0 0 .428-.416 3.46 3.46 0 0 0-3.109-3.438V4.18a.412.412 0 0 0-.441-.416.462.462 0 0 0-.44.416v1.422a3.423 3.423 0 0 0 0 6.809v5.186a2.627 2.627 0 0 1-2.208-2.522.405.405 0 0 0-.428-.417.372.372 0 0 0-.427.417 3.437 3.437 0 0 0 3.063 3.37v1.421a.461.461 0 0 0 .608.393.41.41 0 0 0 .273-.393v-1.423a3.417 3.417 0 0 0 0-6.806Zm-3.09-2.596A2.651 2.651 0 0 1 17.31 6.45v5.113a2.627 2.627 0 0 1-2.205-2.522h-.003Zm3.09 8.552v-5.112a2.577 2.577 0 0 1 0 5.112Z" clip-rule="evenodd"/>
</svg>
