<svg xmlns="http://www.w3.org/2000/svg" width="24" height="24" fill="none" viewBox="0 0 24 24">
  <path fill="#000" fill-rule="evenodd" d="M11.995 2.003A9.878 9.878 0 0 0 2 11.751C2 17.1 6.513 21.5 11.995 21.5a9.752 9.752 0 1 0 0-19.497Zm0 18.684c-4.998 0-9.163-4.062-9.163-8.936a9.167 9.167 0 1 1 9.163 8.936Zm-2.894-9.752h3.725a.364.364 0 0 1 .418.408.398.398 0 0 1-.418.408h-3.78v.023c0 .265.018.53.051.794h2.872a.362.362 0 0 1 .415.408.394.394 0 0 1-.415.407h-2.7c.531 1.698 2.056 2.453 4.784 2.453a.36.36 0 0 1 .4.24.36.36 0 0 1 .018.166.397.397 0 0 1-.418.406c-2.15 0-4.909-.407-5.647-3.264H7.403a.442.442 0 0 1-.415-.409.396.396 0 0 1 .415-.407h.852a7.445 7.445 0 0 1-.042-.794v-.023h-.808a.443.443 0 0 1-.417-.408.397.397 0 0 1 .417-.408h.854c.405-3.62 3.46-4.035 5.79-4.035a.365.365 0 0 1 .418.406.397.397 0 0 1-.418.406c-3.11 0-4.658.98-4.95 3.223h.002Z" clip-rule="evenodd"/>
</svg>
