<svg xmlns="http://www.w3.org/2000/svg" width="24" height="24" fill="none" viewBox="0 0 24 24">
  <path fill="#000" fill-rule="evenodd" d="M12.402 2h-.416C6.367 2 2 6.208 2 11.57a9.965 9.965 0 0 0 9.986 9.976.536.536 0 0 0 .277-.068h.139a.396.396 0 0 0 .416-.408V2.407A.443.443 0 0 0 12.402 2Zm-.416 4.91H9.093a13.688 13.688 0 0 1 2.689-4.086c.068 0 .134-.01.204-.01V6.91ZM2.84 11.772h4.595c.057 1.394.319 2.773.777 4.09H3.907a9.09 9.09 0 0 1-1.064-4.09H2.84Zm.02-.818a8.533 8.533 0 0 1 .89-3.273h4.2a12.365 12.365 0 0 0-.52 3.273H2.86Zm5.367.818h3.758v4.09H9.06a13.251 13.251 0 0 1-.832-4.09Zm-.004-.818a11.39 11.39 0 0 1 .584-3.273h3.176v3.273h-3.76Zm2.368-8.035a13.704 13.704 0 0 0-2.364 3.99H4.195a9.009 9.009 0 0 1 6.397-3.988V2.92ZM4.399 16.682h4.118a19.56 19.56 0 0 0 2.174 3.946 9.164 9.164 0 0 1-6.292-3.946Zm7.39 4.039a19.5 19.5 0 0 1-2.395-4.04h2.591v4.05c-.067 0-.13-.008-.197-.012v.002Zm10.21-2.854a.443.443 0 0 1-.417.406 6.267 6.267 0 0 1-5.89-4.046h-1.458a.398.398 0 0 1-.416-.409.366.366 0 0 1 .416-.409h1.213a5.9 5.9 0 0 1-.13-1.227c0-.138.013-.274.022-.41h-1.105a.41.41 0 1 1 0-.817h1.21a6.194 6.194 0 0 1 6.138-4.865.396.396 0 0 1 .417.407.442.442 0 0 1-.417.406 5.406 5.406 0 0 0-5.275 4.052h3.685a.41.41 0 1 1 0 .818h-3.818c-.011.136-.022.271-.022.41.002.413.054.825.155 1.226h3.684a.398.398 0 0 1 .417.41.444.444 0 0 1-.417.409h-3.414a5.44 5.44 0 0 0 5.005 3.23.395.395 0 0 1 .418.409Z" clip-rule="evenodd"/>
</svg>
