<svg xmlns="http://www.w3.org/2000/svg" width="24" height="24" fill="none" viewBox="0 0 24 24">
  <path fill="#000" fill-rule="evenodd" d="M22 12.174v3.273a.416.416 0 0 1-.832 0v-2.355l-5.556 5.057a.429.429 0 0 1-.555 0l-3.887-3.047L3.949 21.4a.534.534 0 0 1-.278.135c-.14 0-.208-.068-.347-.135a.422.422 0 0 1 .07-.61l7.5-6.5a.43.43 0 0 1 .556 0l3.888 3.047c3.011-2.732 4.504-4.084 5.243-4.756H18.33a.408.408 0 0 1 0-.818h3.259a.444.444 0 0 1 .412.412ZM5.957 15.788a.26.26 0 0 0 .209.068.384.384 0 0 0 .347-.205.438.438 0 0 0-.14-.611 6.334 6.334 0 0 1-3.54-5.708 6.668 6.668 0 0 1 13.333 0 6.074 6.074 0 0 1-1.25 3.737.363.363 0 0 0 .139.544.371.371 0 0 0 .555-.068 7.134 7.134 0 0 0 1.388-4.213A7.501 7.501 0 0 0 2 9.332a7.311 7.311 0 0 0 3.96 6.456h-.003Zm5.488-9.797a.407.407 0 0 0 .423-.409.408.408 0 0 0-.423-.408 4.165 4.165 0 0 0-4.097 3.318H6.143a.396.396 0 0 0-.417.41.443.443 0 0 0 .417.408h1.132c.002.275.033.55.09.818H6.143a.398.398 0 0 0-.417.41.444.444 0 0 0 .417.409h1.492a4.167 4.167 0 0 0 3.81 2.454.444.444 0 0 0 .418-.408.397.397 0 0 0-.418-.408 3.312 3.312 0 0 1-2.878-1.638h1.743a.443.443 0 0 0 .416-.41.395.395 0 0 0-.416-.409H8.224a3.352 3.352 0 0 1-.114-.818h2.2a.443.443 0 0 0 .416-.409.395.395 0 0 0-.416-.409H8.203a3.318 3.318 0 0 1 3.244-2.501h-.002Z" clip-rule="evenodd"/>
</svg>
