<svg xmlns="http://www.w3.org/2000/svg" width="24" height="24" fill="none" viewBox="0 0 24 24">
  <path fill="#000" fill-rule="evenodd" d="M21.264 18.233v3.349a.455.455 0 0 1-.425.418h-3.427a.455.455 0 0 1-.427-.419.407.407 0 0 1 .427-.418h2.358l-5.416-4.845-3.99 3.118a.358.358 0 0 1-.497-.07l-7.694-6.651a.354.354 0 0 1-.155-.419.355.355 0 0 1 .084-.136.46.46 0 0 1 .642 0l7.408 6.375 3.989-3.118a.448.448 0 0 1 .57.07l5.697 5.11v-2.365a.408.408 0 0 1 .43-.419.455.455 0 0 1 .426.42ZM8.43 14.976c.143 0 .214-.069.357-.138a.436.436 0 0 0 .042-.493.438.438 0 0 0-.113-.132 6.524 6.524 0 0 1-1.997-4.72 6.844 6.844 0 1 1 11.69 4.72.322.322 0 0 0 0 .555.442.442 0 0 0 .57 0 7.486 7.486 0 0 0 2.282-5.274 7.701 7.701 0 0 0-15.397 0 7.355 7.355 0 0 0 2.28 5.344c.08.074.181.122.29.138H8.43Zm7.144-8.886a.419.419 0 1 0 0-.836 4.293 4.293 0 0 0-4.236 3.396h-1.187a.374.374 0 0 0-.426.419.405.405 0 0 0 .426.418h1.112c.003.282.034.562.094.838h-1.206a.374.374 0 0 0-.426.418.405.405 0 0 0 .426.42h1.484a4.31 4.31 0 0 0 3.938 2.51.456.456 0 0 0 .431-.416.409.409 0 0 0-.431-.418 3.43 3.43 0 0 1-2.975-1.677h1.816a.455.455 0 0 0 .427-.419.406.406 0 0 0-.427-.418h-2.17a3.376 3.376 0 0 1-.12-.838h2.29a.454.454 0 0 0 .427-.418.406.406 0 0 0-.427-.419h-2.193a3.423 3.423 0 0 1 3.355-2.56h-.002Z" clip-rule="evenodd"/>
</svg>
