<svg xmlns="http://www.w3.org/2000/svg" width="24" height="24" fill="none" viewBox="0 0 24 24">
  <path fill="#000" fill-rule="evenodd" d="M16.07 9.991a.83.83 0 0 0-.824-.812A1.659 1.659 0 0 1 13.6 7.554a1.595 1.595 0 0 1 1.218-1.564v-.467a.43.43 0 0 1 .858 0v.467a1.596 1.596 0 0 1 1.22 1.564.412.412 0 0 1-.825 0 .83.83 0 0 0-.823-.812.788.788 0 0 0-.824.812.83.83 0 0 0 .825.813 1.614 1.614 0 0 1 1.647 1.624 1.653 1.653 0 0 1-1.22 1.56v.471a.43.43 0 0 1-.857 0v-.471A1.652 1.652 0 0 1 13.6 9.99a.411.411 0 1 1 .823 0 .83.83 0 0 0 .825.813.878.878 0 0 0 .822-.813Zm-.844 5.259a6.614 6.614 0 1 1-6.612-6.477h.023V8.75a6.614 6.614 0 1 1 6.613 6.477h-.023l-.001.023Zm-5.763-6.5a5.75 5.75 0 0 0 5.24 5.64l.04-.018a.37.37 0 0 1 .11.025c.131.01.264.02.396.02A5.667 5.667 0 1 0 9.463 8.75Zm4.936 6.5v-.082a6.54 6.54 0 0 1-5.702-5.585h-.084A5.668 5.668 0 1 0 14.4 15.25ZM9.44 13.016a.405.405 0 1 0 0-.813 3.324 3.324 0 0 0-3.085 2.03h-.642a.407.407 0 1 0 0 .813h.426a3.07 3.07 0 0 0-.002.813h-.422a.407.407 0 1 0 0 .812h.633a3.28 3.28 0 0 0 3.095 2.03.405.405 0 0 0 .406-.405.406.406 0 0 0-.406-.406 2.49 2.49 0 0 1-2.155-1.219h1.75a.407.407 0 0 0 .155-.781.407.407 0 0 0-.155-.031H6.987a2.022 2.022 0 0 1 0-.813h2.05a.407.407 0 0 0 0-.812H7.29a2.488 2.488 0 0 1 2.148-1.217l.003-.001ZM4.128 8.23c.067.033.117.066.168.091a.435.435 0 0 0 .12.03.258.258 0 0 0 .059.016h.016a.44.44 0 0 0 .357-.229l1.574-1.547a.41.41 0 0 0 0-.547.395.395 0 0 0-.625 0l-.883.867a3.566 3.566 0 0 1 1.019-2.336 3.612 3.612 0 0 1 2.61-1.083.392.392 0 0 0 .41-.406.361.361 0 0 0-.41-.406 4.56 4.56 0 0 0-3.16 1.286A4.287 4.287 0 0 0 4.088 6.98c-.207-.191-.52-.483-1.003-.935a.395.395 0 0 0-.626 0 .41.41 0 0 0 0 .547l1.67 1.64Zm15.55 7.49a.32.32 0 0 0-.088-.052.39.39 0 0 0-.218-.08.447.447 0 0 0-.38.263l-1.526 1.481a.37.37 0 0 0-.115.472.37.37 0 0 0 .115.132.422.422 0 0 0 .276.067c.138 0 .208 0 .276-.067l.928-.9a3.676 3.676 0 0 1-3.712 3.426.44.44 0 0 0-.414.407.395.395 0 0 0 .414.406 4.462 4.462 0 0 0 4.545-4.333l1.006.927a.328.328 0 0 0 .553 0 .31.31 0 0 0 0-.537l-1.66-1.611Z" clip-rule="evenodd"/>
</svg>
