<svg xmlns="http://www.w3.org/2000/svg" width="24" height="24" fill="none" viewBox="0 0 24 24">
  <path fill="#000" fill-rule="evenodd" d="M19.427 16.995a5.136 5.136 0 0 1-10.27 0v-3.322H4.43a.455.455 0 0 1-.43-.418.407.407 0 0 1 .429-.418h4.729v-1.673H4.429A.456.456 0 0 1 4 10.745a.406.406 0 0 1 .43-.418h4.728V7.005a5.137 5.137 0 0 1 10.27 0 .406.406 0 0 1-.43.416.453.453 0 0 1-.427-.416 4.28 4.28 0 0 0-8.558 0v3.322h7.266a.373.373 0 0 1 .429.418.405.405 0 0 1-.429.419h-7.266v1.673h5.547a.373.373 0 0 1 .428.418.407.407 0 0 1-.428.418h-5.547v3.322a4.28 4.28 0 0 0 8.558 0 .405.405 0 0 1 .428-.416.374.374 0 0 1 .428.416Z" clip-rule="evenodd"/>
</svg>
