<svg xmlns="http://www.w3.org/2000/svg" width="24" height="24" fill="none" viewBox="0 0 24 24">
  <path fill="#000" fill-rule="evenodd" d="M17.763 4.85c-.07 0-.139-.07-.209-.14-1.596-1.179-3.54-1.875-5.554-1.875h-.07c-.208 0-.417-.139-.417-.417A.45.45 0 0 1 11.93 2H12c2.223 0 4.306.696 6.042 2.084a.367.367 0 0 1 .07.556.383.383 0 0 1-.349.21ZM4.432 6.514c-.07 0-.14-.07-.21-.14a.368.368 0 0 1-.069-.556A9.525 9.525 0 0 1 9.5 2.348c.209-.07.487.07.487.278.07.21-.07.418-.278.488C7.763 3.6 6.028 4.78 4.78 6.306a.383.383 0 0 1-.348.21Zm17.15 5.694c-.278 0-.417-.14-.417-.418-.07-2.014-.766-3.888-2.014-5.485-.14-.209-.14-.417.07-.626.139-.14.417-.07.556.07A10.096 10.096 0 0 1 22 11.79a.45.45 0 0 1-.418.418ZM2.626 14.57a.47.47 0 0 1-.417-.279A12.764 12.764 0 0 1 2 12c0-1.387.278-2.78.835-4.097.14-.21.348-.348.557-.21.209.07.348.349.209.558A9.756 9.756 0 0 0 2.835 12c0 .696.07 1.387.21 2.084.069.208-.07.417-.28.487h-.139Zm15.485 5.206c-.139 0-.208-.07-.348-.139-.139-.14-.07-.418.07-.557 1.527-1.318 2.64-3.123 3.053-5.067.07-.209.279-.348.557-.278.209.07.348.278.279.487-.488 2.153-1.666 4.097-3.332 5.485-.07.07-.209.07-.279.07ZM7.833 21.095c-.07 0-.14 0-.209-.07-1.944-.904-3.54-2.5-4.585-4.445-.07-.209 0-.487.21-.557.208-.139.486-.07.556.14a9 9 0 0 0 4.237 4.097c.209.14.278.348.139.557-.07.139-.209.278-.348.278ZM12 22c-.696 0-1.387-.07-2.014-.209a.38.38 0 0 1-.348-.487c.07-.209.278-.348.487-.278.627.07 1.248.139 1.875.139 1.387 0 2.71-.279 3.958-.905.21-.07.487 0 .557.209.14.208 0 .417-.209.556a10 10 0 0 1-4.306.97V22ZM5.875 12c.696.83 3.202 3.322 6.055 3.322 2.854 0 5.36-2.491 6.126-3.322-.766-.83-3.272-3.323-6.126-3.323-2.853 0-5.36 2.492-6.055 3.323Zm6.055 4.153c-3.828 0-6.82-3.74-6.96-3.88a.331.331 0 0 1 0-.482c.14-.209 3.132-3.949 6.96-3.949 3.829 0 6.891 3.74 6.961 3.95a.33.33 0 0 1 0 .482c-.07.139-3.132 3.88-6.96 3.88Zm0-5.828c-.9 0-1.66.766-1.66 1.675 0 .91.76 1.675 1.66 1.675.9 0 1.657-.766 1.657-1.675 0-.91-.761-1.675-1.657-1.675Zm0 4.185A2.49 2.49 0 0 1 9.443 12a2.49 2.49 0 0 1 2.487-2.51A2.49 2.49 0 0 1 14.418 12a2.49 2.49 0 0 1-2.488 2.51Z" clip-rule="evenodd"/>
</svg>
