<svg xmlns="http://www.w3.org/2000/svg" width="24" height="24" fill="none" viewBox="0 0 24 24">
  <path fill="#000" fill-rule="evenodd" d="m21.974 19.014-1.67-7.307a.387.387 0 0 0-.418-.338H16.88L15.29 4.34a.386.386 0 0 0-.412-.34H9.056a.368.368 0 0 0-.346.34s0 .005-1.59 7.028H4.045a.368.368 0 0 0-.348.338l-1.67 7.307a.291.291 0 0 0 .07.338.282.282 0 0 0 .277.135h9.185c.14 0 .279 0 .35-.135a.117.117 0 1 1 .183 0 .281.281 0 0 0 .278.135h9.185c.14 0 .278 0 .348-.135a.292.292 0 0 0 .07-.338ZM9.403 4.818h5.195l1.453 6.532H7.947l1.456-6.532ZM2.932 18.674l1.461-6.494h5.22l1.46 6.494H2.932Zm9.092.339a.233.233 0 0 0-.023.08.241.241 0 0 0-.023-.08l-1.565-6.848h3.175c-.158.697-.557 2.444-1.564 6.849v-.001Zm.904-.339 1.461-6.494h5.219l1.461 6.494h-8.141Zm-.552-12.626a.364.364 0 0 1-.418.407h-.907l-.349 1.759a.512.512 0 0 1-.42.338h-.138a.384.384 0 0 1-.28-.473l.488-2.098a.369.369 0 0 1 .35-.338h1.255a.395.395 0 0 1 .419.406ZM7.402 13.37a.365.365 0 0 1-.418.406h-.908l-.35 1.76a.512.512 0 0 1-.418.338h-.14a.385.385 0 0 1-.279-.473l.489-2.098a.369.369 0 0 1 .348-.338h1.257a.396.396 0 0 1 .421.406h-.002Zm9.995 0a.366.366 0 0 1-.419.406h-.906l-.35 1.76a.512.512 0 0 1-.418.338h-.14a.384.384 0 0 1-.28-.473l.49-2.098a.37.37 0 0 1 .348-.338h1.255a.398.398 0 0 1 .391.246c.02.05.031.105.03.16Z" clip-rule="evenodd"/>
</svg>
