<svg xmlns="http://www.w3.org/2000/svg" width="24" height="24" fill="none" viewBox="0 0 24 24">
  <path fill="#000" fill-rule="evenodd" d="M22.182 12.615v3.295a.418.418 0 0 1-.837 0v-2.366l-5.61 5.104a.436.436 0 0 1-.562 0l-3.925-3.074-7.289 6.354a.428.428 0 0 1-.28.069.391.391 0 0 1-.35-.137.356.356 0 0 1 .07-.546l7.569-6.561a.432.432 0 0 1 .561 0l3.924 3.075 5.23-4.803H18.48a.398.398 0 0 1-.418-.412.368.368 0 0 1 .418-.411h3.253a.42.42 0 0 1 .048.003.394.394 0 0 1 .4.41ZM5.997 16.253c.07 0 .14.069.21.069a.463.463 0 0 0 .351-.276.367.367 0 0 0-.14-.548A6.415 6.415 0 0 1 2.84 9.672a6.735 6.735 0 0 1 13.467 0 6.318 6.318 0 0 1-1.263 3.838.366.366 0 0 0 .14.548.44.44 0 0 0 .561-.068 7.24 7.24 0 0 0 1.403-4.318 7.574 7.574 0 1 0-11.151 6.58v.001Zm3.564-8.905a.097.097 0 0 0 .012.004h.007a.942.942 0 0 1 .963.956.446.446 0 0 0 .42.41.4.4 0 0 0 .419-.41 1.82 1.82 0 0 0-1.373-1.715V5.98a.435.435 0 0 0-.869 0v.599a1.77 1.77 0 0 0 .424 3.507 1.003 1.003 0 0 1 .979 1.026.942.942 0 0 1-.963.956h-.006a1.007 1.007 0 0 1-1.06-.955.398.398 0 0 0-.419-.41.446.446 0 0 0-.419.41 1.82 1.82 0 0 0 1.465 1.73v.598a.435.435 0 0 0 .868 0v-.613a1.823 1.823 0 0 0 1.373-1.715 1.846 1.846 0 0 0-1.819-1.847.962.962 0 1 1 0-1.915l-.002-.003Z" clip-rule="evenodd"/>
</svg>
