<svg xmlns="http://www.w3.org/2000/svg" width="24" height="24" fill="none" viewBox="0 0 24 24">
  <path fill="#000" fill-rule="evenodd" d="M14.402 19.077c0 .204-.208.413-.412.413H9.844a.44.44 0 0 1-.413-.413c0-.21.209-.413.413-.413h4.146a.44.44 0 0 1 .412.413Zm-.412 1.276H9.844a.44.44 0 0 0-.413.413c0 .209.209.413.413.413h1.637v.413c0 .204.218.413.431.413s.431-.204.431-.413v-.413h1.637a.44.44 0 0 0 .413-.413c0-.21-.209-.413-.413-.413h.01Zm5.843-10.85c0 3.198-2.221 6.117-5.417 7.086v.836a.449.449 0 0 1-.417.417h-4.17a.449.449 0 0 1-.417-.417v-.836C6.222 15.62 4 12.701 4 9.503 4 5.336 7.543 2 11.917 2c4.373 0 7.916 3.336 7.916 7.503Zm-.834 0c0-3.684-3.196-6.672-7.082-6.672-3.887 0-7.082 2.993-7.082 6.672 0 2.92 2.082 5.56 5.138 6.395a.47.47 0 0 1 .279.418v.696h3.334v-.697a.47.47 0 0 1 .278-.417c3.057-.835 5.14-3.476 5.14-6.395h-.006Zm-7.073-3.067a1.32 1.32 0 0 1 1.322 1.318c0 .209.139.418.417.418a.449.449 0 0 0 .418-.418 2.166 2.166 0 0 0-1.735-2.107v-.765c0-.279-.218-.423-.431-.423-.214 0-.432.14-.432.423v.77c-.955.209-1.641 1.077-1.641 2.102 0 1.11.904 2.079 2.087 2.079.695 0 1.321.552 1.321 1.318 0 .691-.626 1.248-1.321 1.248a1.246 1.246 0 0 1-1.253-1.248c0-.279-.208-.418-.417-.418-.278 0-.417.14-.417.418 0 .965.686 1.824 1.641 2.032v.822c0 .208.218.417.432.417.213 0 .431-.209.431-.417v-.812c.983-.2 1.734-1.063 1.734-2.037a2.163 2.163 0 0 0-2.156-2.149 1.243 1.243 0 0 1-1.252-1.248c0-.761.556-1.318 1.252-1.318v-.005Z" clip-rule="evenodd"/>
</svg>
