<svg xmlns="http://www.w3.org/2000/svg" width="24" height="24" fill="none" viewBox="0 0 24 24">
  <path fill="#000" fill-rule="evenodd" d="M18.278 9.998a2.56 2.56 0 0 1-.765-.135 18.755 18.755 0 0 1-.904-.203c-1.738-.34-2.92-.679-3.128-.882a.436.436 0 0 0-.555-.068c-.21.068-.21.339-.14.475.14.203 2.781 4.136 3.476 6.509H7.294a10.02 10.02 0 0 1-.208-1.289c-.07-.61-.14-1.287-.209-2.033a8.073 8.073 0 0 1 .07-1.83c.069-.272.139-.611.208-.882a14.58 14.58 0 0 1 .975-2.306c.07-.136.21-.339.28-.474.347-.746 2.085-2.035 3.475-2.984.247-.134.479-.293.694-.474.17-.075.334-.166.488-.271l.07-.068-.07 1.288a.453.453 0 0 0 .278.34l3.06 1.083.834 1.56c0 .068.069.135.139.203l1.53 1.017-.63 1.424Zm-1.391 6.848.07.068h.069c.154.216.294.443.418.678l.07.068H6.251l.07-.068c.097-.249.239-.479.417-.678.07 0 .07 0 .07-.068l.347-.338h9.385l.346.338Zm.975 1.56v.068c.057.174.08.358.07.541v2.238H5.837v-2.238a1.463 1.463 0 0 1 .069-.541v-.068h11.956Zm1.947-9.832a.384.384 0 0 0-.14-.474l-1.807-1.152-.764-1.626c-.07-.135-.14-.203-.279-.203l-2.92-1.017.07-1.695a.372.372 0 0 0-.208-.34.356.356 0 0 0-.418 0c-.07.069-.695.408-1.46.882-.278.203-.487.34-.764.542-.139.068-.279.204-.487.34a15.85 15.85 0 0 0-1.878 1.49 5.39 5.39 0 0 0-1.112 1.221l-.21.407a14.337 14.337 0 0 0-1.18 2.915c-.07.271-.07.542-.14.813a7.5 7.5 0 0 0 0 1.763c.14 1.896.348 3.05.417 3.525-.139.136-.208.271-.347.407l-.07.068A4.423 4.423 0 0 0 5 19.016v2.577a.395.395 0 0 0 .417.406h12.93c.209 0 .348-.135.348-.406v-2.576a4.369 4.369 0 0 0-1.043-2.577c-.07 0-.07 0-.07-.068l-.416-.407-.07-.067a5.28 5.28 0 0 0-.488-1.492 30.43 30.43 0 0 0-2.363-4.475l-.07-.068h.14c.625.204 1.462.407 2.502.679.282.011.563.057.834.135.278.068.557.136.765.203a.468.468 0 0 0 .488-.27l.905-2.036Z" clip-rule="evenodd"/>
</svg>
