<svg xmlns="http://www.w3.org/2000/svg" width="24" height="24" fill="none" viewBox="0 0 24 24">
  <path fill="#000" fill-rule="evenodd" d="m21.982 11.737-2.68-6.065h.605a.416.416 0 0 0 .399-.581.416.416 0 0 0-.4-.255h-6.869a1.684 1.684 0 0 0-2.91 0h-6.03a.404.404 0 0 0-.426.418.373.373 0 0 0 .426.418h.597l-2.67 6.063a.434.434 0 0 0 .03.353 3.29 3.29 0 0 0 6.578-.024.39.39 0 0 0 .029-.33L5.99 5.673h3.902a1.602 1.602 0 0 0 1.253 1.517v11.76H9.067a.456.456 0 0 0-.428.418.407.407 0 0 0 .428.418h4.993a.406.406 0 0 0 .429-.418.456.456 0 0 0-.429-.418h-2.03V7.19a1.602 1.602 0 0 0 1.252-1.517h4.747c-.312.708-1.021 2.315-2.628 5.95a.412.412 0 0 0-.123.271 3.34 3.34 0 1 0 6.68.12.348.348 0 0 0 .025-.276Zm-16.677-5.4 2.298 5.138H3.07c.295-.675.917-2.107 2.235-5.139Zm0 8.203a2.39 2.39 0 0 1-2.411-2.229h4.892a2.505 2.505 0 0 1-2.48 2.23Zm6.298-8.121c-.006 0-.012-.004-.018-.004-.006 0-.011.004-.018.004a.838.838 0 0 1-.829-.759.849.849 0 0 1 .848-.83.87.87 0 0 1 .783.521.408.408 0 0 0 .031.092c.021.07.033.143.034.217a.839.839 0 0 1-.83.759Zm9.323 5.056h-4.53l2.233-5.12 2.297 5.12ZM18.62 14.54a2.394 2.394 0 0 1-2.419-2.229h4.908a2.51 2.51 0 0 1-2.488 2.23h-.001Z" clip-rule="evenodd"/>
</svg>
