<svg xmlns="http://www.w3.org/2000/svg" width="24" height="24" fill="none" viewBox="0 0 24 24">
  <path fill="#000" fill-rule="evenodd" d="M21.582 20H2.417A.397.397 0 0 1 2 19.594V3.415A.413.413 0 0 1 2.417 3a.418.418 0 0 1 .417.414V19.19h18.749a.444.444 0 0 1 .417.405.392.392 0 0 1-.257.38.396.396 0 0 1-.16.025Zm-5.86-2.825a.438.438 0 0 0-.415-.403 2.087 2.087 0 0 1-1.33-.437 2.065 2.065 0 0 1-.75-1.177l-.138-.806a.364.364 0 0 0-.316-.352.37.37 0 0 0-.17.015c-.206 0-.346.269-.346.47l.206.808c.123.654.477 1.244.998 1.662.52.42 1.174.64 1.844.624a.397.397 0 0 0 .39-.244.39.39 0 0 0 .028-.16Zm-8.354-1.894.972-5.337A1.63 1.63 0 0 1 9.937 8.66c.352.009.692.127.972.338a.44.44 0 0 0 .555-.067.493.493 0 0 0-.069-.609 2.864 2.864 0 0 0-1.458-.472 2.379 2.379 0 0 0-1.542.547 2.36 2.36 0 0 0-.817 1.412l-1.045 5.335c-.088.463-.339.88-.707 1.177-.368.296-.83.454-1.305.444a.445.445 0 0 0-.416.406.392.392 0 0 0 .256.38c.051.02.106.028.16.025a2.893 2.893 0 0 0 1.839-.639 2.86 2.86 0 0 0 1.008-1.656Zm12.523 1.894a.439.439 0 0 0-.412-.405 2.084 2.084 0 0 1-1.33-.441 2.061 2.061 0 0 1-.744-1.18l-.968-5.338a2.37 2.37 0 0 0-.817-1.404 2.397 2.397 0 0 0-3.068 0c-.43.358-.719.855-.816 1.404l-1.038 5.338a1.986 1.986 0 0 1-.704 1.175 2.008 2.008 0 0 1-1.3.446.445.445 0 0 0-.416.405.39.39 0 0 0 .255.38.38.38 0 0 0 .16.026 2.882 2.882 0 0 0 1.832-.643 2.853 2.853 0 0 0 1.002-1.654l.968-5.338a1.6 1.6 0 0 1 .565-.923c.29-.234.652-.361 1.025-.36.365 0 .718.13.997.365.278.235.464.56.524.918l1.037 5.338c.12.655.472 1.246.991 1.667a2.83 2.83 0 0 0 1.843.63.396.396 0 0 0 .414-.408v.003Z" clip-rule="evenodd"/>
</svg>
