<svg xmlns="http://www.w3.org/2000/svg" width="24" height="24" fill="none" viewBox="0 0 24 24">
  <path fill="#000" d="M19.619 2H4.38A2.368 2.368 0 0 0 2 4.33v15.84a2.411 2.411 0 0 0 2.381 2.33H19.62A2.367 2.367 0 0 0 22 20.17V4.333A2.309 2.309 0 0 0 19.62 2Zm-2.35 6.291 3.779-1.062v3.14h-3.78V8.291Zm-.969 2.081h-1.872L16.3 8.921v1.451Zm-3.118.966H16.3v2.793h-3.817v-2.249l.7-.544Zm-1.666 2.79H7.699v-3.985l3.817 1.791v2.194Zm-4.785 0H3.524l3.207-3.449v3.45Zm-3.778.913H6.73v2.79H2.953v-2.79Zm4.745 0h3.817v2.79H7.698v-2.79Zm3.817 3.756v2.771H7.698v-2.774l3.817.003Zm.968 0H16.3v2.771h-3.817v-2.77Zm0-.966v-2.79H16.3v2.79h-3.817Zm4.786-2.79h3.779v2.79h-3.78v-2.79Zm0-.913v-2.79h3.779v2.793l-3.78-.003ZM4.38 2.933h15.24a1.412 1.412 0 0 1 1.317.857c.073.171.11.355.112.54v1.98l-4.342 1.197a.298.298 0 0 0-.24.078l-4.546 3.492-4.468-2.095a.5.5 0 0 0-.557.155l-3.941 4.218V4.333a1.403 1.403 0 0 1 1.427-1.4ZM2.953 20.169v-1.375H6.73v2.774H4.38a1.412 1.412 0 0 1-1.317-.858 1.403 1.403 0 0 1-.111-.54v-.001Zm16.666 1.398h-2.35v-2.773h3.779v1.373a1.404 1.404 0 0 1-1.43 1.401v-.001Z"/>
</svg>
