<svg xmlns="http://www.w3.org/2000/svg" width="24" height="24" fill="none" viewBox="0 0 24 24">
  <path fill="#000" fill-rule="evenodd" d="M4.227 6.375a.367.367 0 0 1-.07-.556 9.518 9.518 0 0 1 5.346-3.472c.21-.07.488.07.488.278.07.208-.07.417-.279.486-1.944.486-3.68 1.667-4.928 3.195a.383.383 0 0 1-.348.208c-.07 0-.139-.07-.209-.139Zm3.82 13.889a8.99 8.99 0 0 1-4.237-4.097c-.07-.209-.348-.278-.557-.14-.209.07-.279.348-.209.556 1.04 1.945 2.64 3.542 4.585 4.445.07.07.139.07.209.07.139 0 .278-.14.348-.279.139-.208.07-.416-.14-.555Zm3.888-17.43h.07c2.014 0 3.958.694 5.554 1.874.07.07.14.14.209.14.14 0 .278-.07.348-.21a.367.367 0 0 0-.07-.555C16.311 2.694 14.227 2 12.005 2h-.07c-.209 0-.418.208-.418.417 0 .277.21.416.418.416Zm-8.89 11.25A10.575 10.575 0 0 1 2.834 12c0-1.32.279-2.57.766-3.75.14-.208 0-.486-.209-.556-.209-.138-.418 0-.557.209A10.521 10.521 0 0 0 2 12c0 .764.07 1.528.209 2.292a.47.47 0 0 0 .417.277h.14c.208-.069.348-.277.278-.486Zm12.913 6.18c-1.248.625-2.57.903-3.958.903-.626 0-1.248-.07-1.875-.14-.209-.069-.417.07-.487.279-.07.277.14.486.348.486A9.425 9.425 0 0 0 12 22c1.527 0 2.984-.347 4.306-.972.21-.14.348-.347.21-.556-.07-.208-.349-.278-.558-.208Zm3.82-14.514c-.14-.139-.418-.208-.558-.07-.208.209-.208.417-.07.626 1.25 1.597 1.945 3.472 2.015 5.486 0 .277.139.416.417.416.21 0 .418-.208.418-.416a10.098 10.098 0 0 0-2.223-6.042Zm1.665 7.986c-.278-.07-.487.07-.557.278-.417 1.944-1.526 3.75-3.053 5.07-.14.138-.209.416-.07.555.14.07.21.139.348.139.07 0 .21 0 .279-.07a10.018 10.018 0 0 0 3.332-5.486c.07-.208-.07-.416-.279-.486Zm-3.6 2.838c0-.208-.21-.417-.418-.417H6.993v-3.666c.283-.144.886-.454 2.176-1.111l2.362 3.236c.07.07.14.139.279.139h.07c.139 0 .208-.07.278-.14l2.71-4.203 2.362-.481a.521.521 0 0 0 .348-.482.519.519 0 0 0-.488-.343l-2.57.482c-.07.07-.21.139-.279.208l-2.431 3.857-2.153-3.033c-.14-.208-.418-.208-.557-.138 0 0-.005 0-2.107 1.125V8.245c0-.208-.209-.416-.418-.416-.278 0-.417.208-.417.416v8.324c0 .278.139.417.417.417H17.43c.21 0 .418-.139.418-.417l-.005.005Z" clip-rule="evenodd"/>
</svg>
