<svg xmlns="http://www.w3.org/2000/svg" width="24" height="24" fill="none" viewBox="0 0 24 24">
  <path fill="#000" fill-rule="evenodd" d="M20.336 13.718a1.623 1.623 0 0 0 1.539-1.011 1.65 1.65 0 0 0 .125-.639 1.684 1.684 0 0 0-.56-1.266 1.661 1.661 0 0 0-1.314-.409 1.654 1.654 0 0 0-1.17.729 1.68 1.68 0 0 0-.225 1.367l-2.94 1.711a1.68 1.68 0 0 0-1.17-.482 1.614 1.614 0 0 0-1.016.33c-.292.223-.5.538-.592.896H10.04a1.69 1.69 0 0 0-.599-.882 1.671 1.671 0 0 0-1.004-.345 1.608 1.608 0 0 0-1.173.46 1.63 1.63 0 0 0-.417 1.652l-4.02 2.635v-6.579l5.088-3.05a1.648 1.648 0 0 0 1.35.489 1.64 1.64 0 0 0 1.219-.76l3.317 1.04v.011a1.61 1.61 0 0 0 .473 1.192 1.589 1.589 0 0 0 1.19.459 1.62 1.62 0 0 0 1.178-.472 1.642 1.642 0 0 0 .486-1.179 1.617 1.617 0 0 0-.377-1.02l2.83-3.467c.232.127.491.194.755.197a1.67 1.67 0 0 0 1.165-.486c.311-.308.49-.726.499-1.165 0-.444-.175-.87-.487-1.184a1.658 1.658 0 0 0-2.352 0 1.68 1.68 0 0 0-.487 1.184c.003.304.093.6.258.855L16.085 8.09a1.641 1.641 0 0 0-1.178-.03c-.383.136-.703.41-.898.768l-3.261-1.022c.003-.042.012-.082.012-.124a1.68 1.68 0 0 0-.497-1.165 1.658 1.658 0 0 0-2.332 0 1.68 1.68 0 0 0-.497 1.165c.002.158.029.314.078.464l-4.679 2.807v-8.33a.42.42 0 0 0-.416-.405.415.415 0 0 0-.417.404V21.09a.401.401 0 0 0 .257.386.397.397 0 0 0 .16.024h18.748a.392.392 0 0 0 .388-.249.401.401 0 0 0 .028-.16.448.448 0 0 0-.416-.411H2.834v-1.22c.007-.005.018-.004.024-.01l4.473-2.87c.312.26.706.399 1.11.392.367.007.725-.11 1.017-.332a1.64 1.64 0 0 0 .594-.894h2.959c.084.362.292.683.587.907a1.57 1.57 0 0 0 1.027.319 1.61 1.61 0 0 0 1.172-.46 1.63 1.63 0 0 0 .492-1.167 1.522 1.522 0 0 0-.06-.399l2.951-1.685c.314.294.727.457 1.156.456Zm0-10.87a.791.791 0 0 1 .775.503.844.844 0 0 1-.193.905.834.834 0 0 1-.582.243.81.81 0 0 1-.457-.141.492.492 0 0 0-.103-.17.446.446 0 0 0-.115-.046.818.818 0 0 1-.154-.467.805.805 0 0 1 .508-.773.79.79 0 0 1 .32-.053ZM15.464 8.79c.147.004.29.05.413.133a.347.347 0 0 0 .054.059c.02.015.042.027.066.034a.802.802 0 0 1-.533 1.425.788.788 0 0 1-.594-.23.8.8 0 0 1-.236-.596.844.844 0 0 1 .248-.582.833.833 0 0 1 .582-.243Zm-6.37-1.933a.79.79 0 0 1 .595.23.801.801 0 0 1 .236.595.84.84 0 0 1-.243.592.828.828 0 0 1-1.176 0 .84.84 0 0 1-.244-.592.805.805 0 0 1 .51-.773.79.79 0 0 1 .322-.052Zm11.242 4.385a.834.834 0 0 1 .583.243.845.845 0 0 1 .192.906.8.8 0 0 1-.775.502.807.807 0 0 1-.687-.341.512.512 0 0 0-.014-.09.435.435 0 0 0-.056-.04.877.877 0 0 1-.074-.354.845.845 0 0 1 .25-.582.833.833 0 0 1 .58-.242v-.002ZM8.438 16.16a.784.784 0 0 1-.773-.494.8.8 0 0 1-.059-.32.84.84 0 0 1 .252-.577.828.828 0 0 1 .58-.236.88.88 0 0 1 .567.25.89.89 0 0 1 .264.563.84.84 0 0 1-.251.577.829.829 0 0 1-.58.237Zm6.183 0a.78.78 0 0 1-.576-.211.791.791 0 0 1-.25-.563c0-.015.007-.025.007-.04a.281.281 0 0 0-.008-.034.837.837 0 0 1 .26-.553.826.826 0 0 1 .567-.224.88.88 0 0 1 .832.813.839.839 0 0 1-.252.576.828.828 0 0 1-.58.236Z" clip-rule="evenodd"/>
</svg>
