<svg xmlns="http://www.w3.org/2000/svg" width="24" height="24" fill="none" viewBox="0 0 24 24">
  <path fill="#000" fill-rule="evenodd" d="M21.976 14.399a.21.21 0 0 0-.024-.071V9.853a.492.492 0 0 0 .024-.362c-.004-.014-.017-.023-.024-.036V3.352a.404.404 0 0 0-.206-.405.437.437 0 0 0-.484.135l-5.196 5.725-6.029-1.885a.428.428 0 0 0-.277.067l-6.928 3.57v-8.15a.36.36 0 0 0-.416-.405.395.395 0 0 0-.416.404v18.187a.44.44 0 0 0 .416.404h19.122a.395.395 0 0 0 .416-.404v-5.892a.43.43 0 0 0 .022-.304ZM2.83 16.396l6.452-3.465h5.341a.244.244 0 0 0 .14-.068l6.358-2.572v3.917l-6.498 1.398-5.41-.336c-.069 0-.208.068-.277.068l-6.105 4.085v-3.027Zm7.136-8.6 6.098 1.886a.435.435 0 0 0 .483-.135l4.575-5.121v4.983l-6.566 2.71H9.004L2.83 15.525v-4.023l7.136-3.706ZM3.171 20.189l6.111-4.113 5.341.336h.07l6.426-1.418v5.195H3.17Z" clip-rule="evenodd"/>
</svg>
