<svg xmlns="http://www.w3.org/2000/svg" width="24" height="24" fill="none" viewBox="0 0 24 24">
  <path fill="#000" fill-rule="evenodd" d="M2.837 18.837h18.33V5.818H2.837v13.019Zm18.747.813H2.42a.391.391 0 0 1-.297-.111.395.395 0 0 1-.12-.296V5.413a.361.361 0 0 1 .417-.407h19.164a.395.395 0 0 1 .416.407v13.831a.442.442 0 0 1-.416.407ZM4.482 17.24h15.04V7.463H4.482v9.777Zm15.459.814H4.065a.4.4 0 0 1-.39-.247.397.397 0 0 1-.029-.16V7.057a.365.365 0 0 1 .419-.407H19.94a.397.397 0 0 1 .418.407V17.65a.444.444 0 0 1-.418.406ZM5.73 15.566c-.07 0-.139-.068-.206-.068a.476.476 0 0 1-.207-.541l2.504-4.065a.608.608 0 0 1 .418-.203.384.384 0 0 1 .347.203l2.157 3.523 1.739-1.962a.398.398 0 0 1 .626 0l1.74 1.962 2.99-5.15a.568.568 0 0 1 .626-.203.638.638 0 0 1 .14.61l-3.34 5.691a1.495 1.495 0 0 1-.348.203.382.382 0 0 1-.347-.203l-1.74-2.032-1.807 2.032a.383.383 0 0 1-.347.203 1.519 1.519 0 0 1-.348-.203L8.241 11.84l-2.157 3.523a.385.385 0 0 1-.355.203Z" clip-rule="evenodd"/>
</svg>
