<svg xmlns="http://www.w3.org/2000/svg" width="24" height="24" fill="none" viewBox="0 0 24 24">
  <path fill="#000" fill-rule="evenodd" d="M21.21 18.332v3.252a.395.395 0 0 1-.111.279.61.61 0 0 1-.032.065.436.436 0 0 1-.285.07h-3.414a.405.405 0 0 1-.427-.416.453.453 0 0 1 .427-.415h2.281l-5.332-4.78-3.977 3.048a.35.35 0 0 1-.498 0l-7.672-6.65a.36.36 0 0 1-.07-.554.456.456 0 0 1 .639-.07l7.387 6.442 3.979-3.117a.441.441 0 0 1 .569 0l5.681 5.17v-2.324a.372.372 0 0 1 .427-.416.405.405 0 0 1 .428.416ZM8.454 14.994a.647.647 0 0 0 .354-.07.433.433 0 0 0-.07-.625 6.706 6.706 0 0 1-1.986-4.792 6.806 6.806 0 0 1 13.608 0 6.549 6.549 0 0 1-1.984 4.723.386.386 0 0 0 0 .625.436.436 0 0 0 .567 0 7.484 7.484 0 0 0-5.386-12.853A7.592 7.592 0 0 0 5.9 9.504a7.426 7.426 0 0 0 2.267 5.42.43.43 0 0 0 .285.07h.001Zm5.096-7.841h.007a.104.104 0 0 0 .012-.004.958.958 0 0 1 .992.971.425.425 0 1 0 .85 0 1.85 1.85 0 0 0-1.437-1.752v-.607a.447.447 0 0 0-.418-.418.402.402 0 0 0-.417.418v.607a1.794 1.794 0 0 0 .43 3.555 1.018 1.018 0 0 1 .992 1.04.958.958 0 0 1-1.004.968h-.007a1.017 1.017 0 0 1-1.044-.97.405.405 0 0 0-.427-.415.452.452 0 0 0-.425.416 1.844 1.844 0 0 0 1.485 1.752v.607a.4.4 0 0 0 .417.418.446.446 0 0 0 .418-.418v-.607a1.85 1.85 0 0 0 1.437-1.752 1.87 1.87 0 0 0-1.844-1.872.974.974 0 1 1-.018-1.94v.003Z" clip-rule="evenodd"/>
</svg>
