<svg xmlns="http://www.w3.org/2000/svg" width="24" height="24" fill="none" viewBox="0 0 24 24">
  <path fill="#000" fill-rule="evenodd" d="M21.43 20.65a.403.403 0 0 1-.435.354H2.435c-.146 0-.218 0-.29-.071A.532.532 0 0 1 2 20.649V2.426a.413.413 0 0 1 .435-.425.4.4 0 0 1 .362.425v17.798h18.198a.462.462 0 0 1 .434.425ZM3.942 14.971a2.382 2.382 0 0 1 2.39-2.335h.361l.942-1.627A2.443 2.443 0 0 1 6.91 9.31a2.39 2.39 0 0 1 4.78 0c.015.354-.086.702-.29.99l1.666 1.133-.072.142a2.049 2.049 0 0 1 1.303-.425c.35-.005.696.067 1.014.213l.869-1.557.256.194c-.99-.896-2.116-2.156-2.116-3.293a2.208 2.208 0 0 1 1.883-2.268 2.537 2.537 0 0 0 3.911 0 2.21 2.21 0 0 1 1.884 2.268c0 1.912-3.187 4.18-3.55 4.462a.626.626 0 0 1-.579 0c-.118-.092-.542-.4-1.055-.837l-.85 1.455c.454.45.713 1.06.724 1.698a2.39 2.39 0 0 1-4.78 0c.006-.55.212-1.078.58-1.486l-1.52-.99a2.672 2.672 0 0 1-1.666.637 2.041 2.041 0 0 1-.942-.213l-.868 1.486a2.432 2.432 0 0 1 1.23 2.052 2.338 2.338 0 0 1-2.389 2.335 2.381 2.381 0 0 1-2.391-2.335ZM18.16 10.32c1.014-.78 2.969-2.48 2.969-3.614A1.354 1.354 0 0 0 19.97 5.29c-.507-.071-1.158.283-1.375 1.274-.073.354-.797.354-.87 0-.217-.921-.797-1.274-1.303-1.274h-.073a1.353 1.353 0 0 0-1.159 1.417c0 1.134 1.956 2.834 2.97 3.614v-.001Zm-5.383 3.165a1.528 1.528 0 0 0 1.521 1.557 1.558 1.558 0 0 0 1.12-2.668 1.557 1.557 0 0 0-1.12-.445 1.525 1.525 0 0 0-1.523 1.557h.002ZM7.709 9.31a1.593 1.593 0 1 0 1.593-1.557 1.589 1.589 0 0 0-1.593 1.558Zm-2.897 5.661a1.527 1.527 0 0 0 1.521 1.557 1.559 1.559 0 0 0 1.128-2.672 1.557 1.557 0 0 0-1.128-.441 1.526 1.526 0 0 0-1.522 1.557Z" clip-rule="evenodd"/>
</svg>
