<svg xmlns="http://www.w3.org/2000/svg" width="24" height="24" fill="none" viewBox="0 0 24 24">
  <path fill="#000" fill-rule="evenodd" d="M22 3.284v17.474c0 .21-.152.414-.456.414H13.82v-.832h2.69v-7.08c0-.209.229-.418.457-.418h2.286v.832h-1.83v6.666h3.665v-1.684h-1.835v-.823h1.835v-1.647h-1.835v-.823h1.835v-4.196H13.83v1.68h-.908v-2.098c0-.21.228-.419.457-.419h2.24V6.586c0-.21.228-.419.456-.419h2.732c.304 0 .456.21.456.42v2.101h-.912V7.01h-1.82v3.326h4.567V3.702h-3.634V2.87h4.09c.304 0 .456.21.456.414H22ZM11.544 17.009H8.35v-4.158h2.28c.305 0 .457-.21.457-.414V8.693h2.28c.305 0 .457-.21.457-.414v-4.8c.34.307.927.833 1.94 1.744.153.21.452.21.604 0 .152-.14.152-.418 0-.563l-2.646-2.52c-.152-.07-.228-.14-.375-.14a.566.566 0 0 0-.299.14l-2.716 2.52a.403.403 0 0 0 0 .563c.075.07.228.14.299.14.152 0 .228-.07.299-.14l1.976-1.776v4.418h-2.28c-.229 0-.457.21-.457.414v3.74H7.89c-.229 0-.457.209-.457.414v4.99c0 .21.228.414.457.414h3.193v4.158h.912v-4.572c0-.209-.152-.414-.456-.414h.005Zm3.178 1.647v-3.749c0-.21-.152-.419-.451-.419H9.288v.833h4.532v3.33h.907l-.005.005Zm-5.89.018H5.65V12.02h-.912v7.074c0 .21.228.414.456.414h3.183v.832H2.912V10.327H7.93c.304 0 .456-.21.456-.419v-3.75h-.912v3.33H2.912V3.702h1.835V7.86h.897V3.702h3.64V2.87H2.455c-.228 0-.456.21-.456.414v17.474c0 .21.228.414.456.414h6.371c.304 0 .456-.21.456-.414v-1.665c0-.21-.152-.414-.456-.414l.005-.005Z" clip-rule="evenodd"/>
</svg>
