<svg xmlns="http://www.w3.org/2000/svg" width="24" height="24" fill="none" viewBox="0 0 24 24">
  <path fill="#000" fill-rule="evenodd" d="M2.832 17.43h18.334V6.819H2.832V17.43Zm18.751.817H2.415A.442.442 0 0 1 2 17.839V6.409A.443.443 0 0 1 2.415 6h19.168a.396.396 0 0 1 .417.408v11.43a.397.397 0 0 1-.417.408Zm-9.606-8.163a2.04 2.04 0 1 0 0 4.082 2.043 2.043 0 0 0 1.915-2.83 2.04 2.04 0 0 0-1.915-1.252Zm0 4.898a2.854 2.854 0 0 1-2.674-1.755 2.857 2.857 0 0 1 2.674-3.96 2.86 2.86 0 0 1 2.674 3.96 2.857 2.857 0 0 1-2.674 1.755ZM5.31 10.084a.84.84 0 1 1 .84.816.828.828 0 0 1-.84-.816Zm11.656 4.082a.839.839 0 1 1 .839.816.828.828 0 0 1-.84-.816ZM5.718 8.45a1.28 1.28 0 0 0-1.252 1.224v4.898a1.28 1.28 0 0 0 1.252 1.225h12.517a1.235 1.235 0 0 0 1.252-1.225V9.675a1.232 1.232 0 0 0-1.252-1.224H5.718Zm12.517 8.163H5.718a2.071 2.071 0 0 1-2.087-2.04V9.674a2.07 2.07 0 0 1 2.087-2.04h12.517a2.028 2.028 0 0 1 2.087 2.04v4.898a2.028 2.028 0 0 1-2.087 2.041Z" clip-rule="evenodd"/>
</svg>
