<svg xmlns="http://www.w3.org/2000/svg" width="24" height="24" fill="none" viewBox="0 0 24 24">
  <path fill="#000" fill-rule="evenodd" d="M16.603 14.154a.26.26 0 0 0 .209-.067l5.006-3.244a.433.433 0 0 0 .139-.54.461.461 0 0 0-.626-.136l-4.866 3.177h-3.616v-.82h3.754a.262.262 0 0 0 .209-.068l5.006-3.244a.433.433 0 0 0 .139-.54.46.46 0 0 0-.626-.136l-4.866 3.177h-3.616v-.82h3.749a.26.26 0 0 0 .209-.068l5.01-3.262a.385.385 0 0 0 .14-.476c0-.135-.209-.271-.348-.271h-4.051l.092-.069a.414.414 0 0 0 .139-.475c0-.136-.209-.272-.348-.272h-5.843c-.139 0-.21 0-.28.068l-1.019.748H7.43c-.138 0-.207 0-.277.067l-4.987 3.262a.416.416 0 0 0-.137.476.467.467 0 0 0 .415.272h3.728v.816h-3.75a.408.408 0 0 0 0 .815h3.75v.816h-3.75a.408.408 0 1 0 0 .815h3.75v.816h-3.75a.408.408 0 1 0 0 .815h3.75v.816h-3.75a.41.41 0 0 0-.39.567.408.408 0 0 0 .39.248h3.75v.407a.396.396 0 0 0 .416.408h5.844a.444.444 0 0 0 .417-.408v-.407h3.754a.26.26 0 0 0 .209-.068l5.006-3.28a.44.44 0 0 0 .139-.546.457.457 0 0 0-.626-.137l-4.866 3.21h-3.616v-.81h3.754a.258.258 0 0 0 .209-.069l5.006-3.28a.441.441 0 0 0 .139-.545.458.458 0 0 0-.626-.137l-4.866 3.211h-3.616v-.811h3.754Zm3.615-6.523-3.759 2.446h-3.332l3.323-2.446h3.768ZM3.759 10.077 7.5 7.631h1.687L6.31 9.737a.516.516 0 0 0-.138.34H3.759Zm3.246 7.34v-.302a.237.237 0 0 0 0-.216v-1.413a.237.237 0 0 0 0-.216v-1.415a.238.238 0 0 0 0-.216v-1.415a.237.237 0 0 0 0-.216V10.28l4.731-3.465h4.444v.006l-4.026 2.917a.516.516 0 0 0-.14.34v7.339l-5.009-.002Zm1.68-5.301a.796.796 0 0 0 .839.815 1.623 1.623 0 0 1 .407 3.205v.465a.439.439 0 0 1-.407.408.395.395 0 0 1-.382-.25.392.392 0 0 1-.027-.158v-.458a1.616 1.616 0 0 1-1.268-1.58.397.397 0 0 1 .42-.409.445.445 0 0 1 .419.408.797.797 0 0 0 .838.816.817.817 0 1 0 0-1.631 1.633 1.633 0 0 1-1.677-1.631 1.615 1.615 0 0 1 1.268-1.58v-.459a.392.392 0 0 1 .409-.407.439.439 0 0 1 .407.407v.465a1.664 1.664 0 0 1 1.269 1.574.445.445 0 0 1-.42.408.399.399 0 0 1-.39-.247.396.396 0 0 1-.028-.161.838.838 0 0 0-.838-.815.798.798 0 0 0-.839.815Z" clip-rule="evenodd"/>
</svg>
