<svg xmlns="http://www.w3.org/2000/svg" width="24" height="24" fill="none" viewBox="0 0 24 24">
  <path fill="#000" fill-rule="evenodd" d="M8.001 12.174a.53.53 0 0 1 .627-.067.503.503 0 0 1 .071.608l-.132.128c.01 0 .017.004.027.004.46-.07.887-.28 1.22-.604 0-.068 0-.136.07-.136a.851.851 0 0 1-.837-.405.939.939 0 0 1 .28-1.014c.41-.49.992-.8 1.627-.867l.31-.403a.439.439 0 0 1 .555-.067.415.415 0 0 1 .07.604l-.06.067c.06.055.111.12.15.192a.953.953 0 0 1-.279 1.014.433.433 0 0 1-.558.068.426.426 0 0 1-.07-.609.066.066 0 0 0 .05-.018.064.064 0 0 0 .02-.048c-.005 0-.009.003-.013.003h-.005a2.117 2.117 0 0 0-1.167.538.234.234 0 0 1-.07.135.805.805 0 0 1 .767.406.875.875 0 0 1-.21 1.014 2.727 2.727 0 0 1-1.668.93l-.284.38c-.136.067-.204.135-.34.135a.409.409 0 0 1-.272-.068.508.508 0 0 1-.068-.612l.113-.113a.714.714 0 0 1-.13-.179A.879.879 0 0 1 8 12.174ZM22 6.408v4.896a.443.443 0 0 1-.416.408h-4.402L11.48 17.29a.527.527 0 0 1-.277.136H2.468a.408.408 0 0 1-.376-.563.408.408 0 0 1 .376-.25h8.527l7.002-6.782a.328.328 0 0 1 .554 0 .406.406 0 0 1 0 .543l-.535.524h3.152V6.815H2.882v4.08h3.59l3.194-3.128a.362.362 0 0 1 .278-.136h8.33a.46.46 0 0 1 .347.272c.07.136.07.34-.07.408l-7.5 7.345a.534.534 0 0 1-.277.136h-8.33a.381.381 0 0 1-.417-.272c-.07-.136 0-.272.138-.408l3.474-3.4H2.468a.443.443 0 0 1-.416-.409V6.408A.442.442 0 0 1 2.468 6h19.116a.444.444 0 0 1 .416.408ZM3.419 14.977h7.15l6.664-6.53h-7.15l-6.664 6.53Z" clip-rule="evenodd"/>
</svg>
