<svg xmlns="http://www.w3.org/2000/svg" width="24" height="24" fill="none" viewBox="0 0 24 24">
  <path fill="#000" fill-rule="evenodd" d="M15.784 8.59c-.633-.694-1.505-1.542-1.505-1.773 0-.542.553-1.157 1.027-1.696.554-.617.95-1.079.95-1.618 0-1.156-1.977-1.385-2.61-1.464-.158 0-.316 0-.396.154-.158.154-.237.23-.315.23a1.21 1.21 0 0 1-.712-.307.49.49 0 0 0-.633 0 1.203 1.203 0 0 1-.711.308c-.08 0-.159-.077-.317-.231a.59.59 0 0 0-.474-.154c-.553.077-2.529.308-2.529 1.464 0 .542.395 1.001.87 1.618.474.542 1.027 1.156 1.027 1.696 0 .231-.79 1.079-1.422 1.772C6.294 10.362 4 12.75 4 15.68c0 4.545.633 6.32 7.908 6.32 7.194 0 7.906-1.773 7.906-6.321.002-2.929-2.37-5.317-4.03-7.09ZM9.142 4.503c-.237-.308-.711-.77-.711-1.001 0-.154.711-.463 1.581-.542.23.189.5.321.79.385a2.14 2.14 0 0 1 2.214 0c.278-.096.544-.225.79-.385.87.077 1.506.385 1.506.542 0 .23-.395.693-.712 1.001a5.73 5.73 0 0 0-1.186 1.85h-3.083a4.67 4.67 0 0 0-1.19-1.85Zm2.77 16.569c-7.037 0-7.038-1.541-7.038-5.394 0-2.543 2.215-4.855 3.793-6.473a12.485 12.485 0 0 0 1.66-1.927h3.163c.452.7.983 1.347 1.582 1.927 1.66 1.618 3.792 3.93 3.792 6.473.003 3.853.003 5.394-6.954 5.394h.002Zm-.941-7.694a.943.943 0 0 0 .941.921 1.837 1.837 0 0 1 1.88 1.843 1.897 1.897 0 0 1-1.41 1.766v.538a.47.47 0 0 1-.94 0v-.538a1.896 1.896 0 0 1-1.41-1.765.47.47 0 1 1 .939 0 .944.944 0 0 0 .941.92 1 1 0 0 0 .94-.92.944.944 0 0 0-.94-.922 1.888 1.888 0 0 1-1.88-1.843 1.827 1.827 0 0 1 1.41-1.766v-.538a.47.47 0 1 1 .94 0v.538a1.826 1.826 0 0 1 1.41 1.765.5.5 0 0 1-.47.461.445.445 0 0 1-.47-.46.943.943 0 0 0-.94-.922.896.896 0 0 0-.943.922h.002Z" clip-rule="evenodd"/>
</svg>
