<svg xmlns="http://www.w3.org/2000/svg" width="24" height="24" fill="none" viewBox="0 0 24 24">
  <path fill="#000" fill-rule="evenodd" d="M21.58 2H2.416A.443.443 0 0 0 2 2.409V13.81a.442.442 0 0 0 .416.407h2.932v6.078c0 1.138 3.53 1.205 4.57 1.205 1.108 0 4.572-.066 4.572-1.205v-6.078h7.093A.397.397 0 0 0 22 13.81V2.408a.395.395 0 0 0-.42-.407Zm-7.923 16.627c-.278.136-1.524.475-3.74.475a11.16 11.16 0 0 1-3.738-.476v-.774c1.11.402 3.02.435 3.739.435.763 0 2.643-.032 3.739-.43v.77Zm0-1.63c-.278.137-1.524.476-3.74.476a11.158 11.158 0 0 1-3.738-.476v-.773c1.11.401 3.02.434 3.739.434.763 0 2.643-.032 3.739-.429v.768Zm0-1.628c-.278.136-1.524.475-3.74.475a11.173 11.173 0 0 1-3.738-.475v-.774c1.11.401 3.02.435 3.739.435.763 0 2.643-.033 3.739-.43v.77Zm0-1.628c-.278.135-1.524.474-3.74.474a11.181 11.181 0 0 1-3.738-.474v-.775c1.11.402 3.02.435 3.739.435.763 0 2.643-.033 3.739-.43v.77Zm-7.27-1.561a11.123 11.123 0 0 1 3.53-.408c1.87 0 3.046.201 3.531.408-.485.2-1.662.407-3.53.407a11.137 11.137 0 0 1-3.532-.407Zm7.923-.408c-.715-.762-3.434-.814-4.393-.814-.89 0-3.61.05-4.367.795a1.22 1.22 0 0 1-1.044-1.202V5.667a1.23 1.23 0 0 1 1.249-1.222h12.487a1.23 1.23 0 0 1 1.248 1.222v4.886a1.229 1.229 0 0 1-1.248 1.222l-3.933-.003Zm-4.393 8.924a11.332 11.332 0 0 1-3.739-.468v-.748c1.11.402 3.021.436 3.74.436.762 0 2.642-.033 3.738-.43v.742c-.277.134-1.524.469-3.74.469h.001Zm11.246-7.295h-6.676v-.814h3.755a2.021 2.021 0 0 0 2.081-2.036V5.667a2.02 2.02 0 0 0-2.08-2.036H5.754a2.066 2.066 0 0 0-2.08 2.036v4.886a2.053 2.053 0 0 0 1.673 1.996v.854H2.833V2.815h18.33V13.4Zm-9.165-8.144a2.85 2.85 0 0 0-1.954 4.883 2.852 2.852 0 0 0 4.85-2.032 2.892 2.892 0 0 0-2.896-2.85v-.001Zm0 4.887a2.035 2.035 0 0 1-1.91-2.823 2.037 2.037 0 0 1 1.91-1.25 2.037 2.037 0 1 1 0 4.073ZM7.022 6.072a.837.837 0 1 1-.837-.815.825.825 0 0 1 .837.815Zm10.79 4.886a.815.815 0 1 1 .837-.814.826.826 0 0 1-.837.815v-.001Z" clip-rule="evenodd"/>
</svg>
