<svg xmlns="http://www.w3.org/2000/svg" width="24" height="24" fill="none" viewBox="0 0 24 24">
  <path fill="#000" fill-rule="evenodd" d="M18.155 11.733a16.32 16.32 0 0 0-1.95-6.455C14.942 3.14 13.472 2 12.001 2c-1.542 0-3.083 1.354-4.414 3.634a16.086 16.086 0 0 0-1.807 6.097 4.461 4.461 0 0 0-2.71 1.545A4.607 4.607 0 0 0 2 16.244C2.07 19.015 4.727 22 12 22c9.23 0 10-4.264 10-5.543a4.836 4.836 0 0 0-1.08-3.071 4.686 4.686 0 0 0-2.765-1.653Zm2.368 2.518a5.954 5.954 0 0 1-2.863 1.882 9.662 9.662 0 0 0 .54-3.538c.477.102.928.302 1.328.586.4.285.738.649.995 1.07ZM8.36 6.063c1.122-1.995 2.452-3.207 3.643-3.207 1.123 0 2.382 1 3.434 2.85 1.79 3.012 2.627 7.878 1.126 10.75-1.5.34-3.034.501-4.571.482a18.704 18.704 0 0 1-4.485-.476c-1.637-2.796-.802-7.32.85-10.4h.003Zm-2.617 6.542a8.973 8.973 0 0 0 .616 3.503 6.057 6.057 0 0 1-2.886-1.96 3.58 3.58 0 0 1 .981-1.004 3.5 3.5 0 0 1 1.286-.54l.003.001Zm6.26 8.544c-6.714 0-9.092-2.559-9.162-4.903 0-.442.079-.88.23-1.293 1.594 1.852 4.684 2.834 8.92 2.834 5.273 0 7.756-1.353 8.953-2.686.158.434.232.895.219 1.358-.002 2.91-3.429 4.688-9.163 4.688l.002.002Zm-1.284-8.683a.435.435 0 0 0-.124-.304.42.42 0 0 0-.6 0 .435.435 0 0 0-.124.304c.004.371.102.735.285 1.055.183.32.444.587.759.774l-.123.883c0 .286.14.5.349.5h.07a.386.386 0 0 0 .28-.092.4.4 0 0 0 .138-.265l.103-.747a2.006 2.006 0 0 0 1.676-.483 2.105 2.105 0 0 0 .698-1.624 2.112 2.112 0 0 0-.502-1.399 2.044 2.044 0 0 0-1.289-.704l.333-2.403a1.27 1.27 0 0 1 .612 1.092c0 .114.044.224.123.305a.42.42 0 0 0 .6 0 .435.435 0 0 0 .123-.305 2.114 2.114 0 0 0-.357-1.209 2.057 2.057 0 0 0-.976-.778l.113-.818a.365.365 0 0 0-.074-.299.352.352 0 0 0-.275-.13c-.21-.071-.42.072-.489.358l-.104.746a2.035 2.035 0 0 0-1.475.623 2.108 2.108 0 0 0-.598 1.507c.004.455.152.898.42 1.262.268.365.643.633 1.072.766l-.314 2.246a1.28 1.28 0 0 1-.33-.86Zm2.541 0a1.3 1.3 0 0 1-.373.91 1.256 1.256 0 0 1-.898.371 1.327 1.327 0 0 1-.14-.014l.35-2.526c.295.047.564.2.759.43.194.232.301.525.302.83Zm-2.541-3.413c0-.312.113-.612.316-.845.204-.233.484-.382.788-.419l-.34 2.439a1.257 1.257 0 0 1-.557-.47 1.289 1.289 0 0 1-.207-.706Z" clip-rule="evenodd"/>
</svg>
