<svg xmlns="http://www.w3.org/2000/svg" width="24" height="24" fill="none" viewBox="0 0 24 24">
  <path fill="#000" fill-rule="evenodd" d="M12.378 2A6.33 6.33 0 0 0 6 8.243v.069l1.7 9.985a.449.449 0 0 0 .427.346h3.82v2.94a.455.455 0 0 0 .597.393.408.408 0 0 0 .266-.393v-2.94h3.821a.393.393 0 0 0 .425-.346l1.7-9.985v-.07a6.284 6.284 0 0 0-6.378-6.24Zm3.9 15.81H8.48L6.85 8.172a5.531 5.531 0 0 1 11.056 0l-1.63 9.639Zm-3.9-13.315A3.78 3.78 0 0 0 8.542 8.25a.454.454 0 0 0 .426.417h6.821a.408.408 0 0 0 .428-.417 3.782 3.782 0 0 0-3.839-3.755Zm1.018 3.338.494-.472a.316.316 0 0 0 0-.55.346.346 0 0 0-.575 0l-1.07 1.022H9.466a2.957 2.957 0 0 1 2.912-2.504 3.034 3.034 0 0 1 2.985 2.504h-1.967Zm2.82 2.07v.838a.406.406 0 0 1-.427.422.454.454 0 0 1-.426-.422v-.42H9.395v.42a.406.406 0 0 1-.427.422.455.455 0 0 1-.426-.422v-.839a.455.455 0 0 1 .426-.422h6.82a.407.407 0 0 1 .427.422h.001Zm-3.837 3.323a1.68 1.68 0 1 0 1.727 1.678 1.726 1.726 0 0 0-1.728-1.68v.002Zm0 2.518a.916.916 0 0 1-.863-.84.863.863 0 0 1 .863-.839.82.82 0 0 1 .863.84.863.863 0 0 1-.864.836v.003Z" clip-rule="evenodd"/>
</svg>
