<svg xmlns="http://www.w3.org/2000/svg" width="24" height="24" fill="none" viewBox="0 0 24 24">
  <path fill="#000" fill-rule="evenodd" d="m13.915 17.624-.844-.887h-.065l-.454-.506a.32.32 0 0 0-.454 0 .3.3 0 0 0 0 .443l.778.824a.48.48 0 0 1-.064.633.317.317 0 0 1-.455.063l-.714-.696a.967.967 0 0 0-.132-1.33 1.298 1.298 0 0 0-.909-.381.966.966 0 0 0-.324-.887 1.457 1.457 0 0 0-.714-.316 1.343 1.343 0 0 0-.325-1.077 1.575 1.575 0 0 0-.909-.317 1.236 1.236 0 0 0-.39-.887 1.21 1.21 0 0 0-1.557-.127v.064l-.195.19-1.104-.824 2.532-2.47c.317.197.67.326 1.04.38.42.01.833-.124 1.168-.38a6.21 6.21 0 0 1 .649-.317.83.83 0 0 1 .584.064 2.98 2.98 0 0 0-.454.443 1.118 1.118 0 0 0-.26 1.52l.195.19a1.377 1.377 0 0 0 1.299.317h.064c0-.063 0-.063.065-.063.32-.24.705-.373 1.104-.38l2.987 2.913 1.038 1.014a.478.478 0 0 1-.065.633c-.194.127-.454.19-.584.064l-1.104-1.014v-.063l-.97-.886a.32.32 0 0 0-.455 0 .302.302 0 0 0 0 .443l2.013 1.964a.396.396 0 0 1-.065.572.419.419 0 0 1-.584.063l-1.883-1.774a.318.318 0 0 0-.455 0c-.13.127-.13.38 0 .443l.78.76.908.887a.571.571 0 0 1-.064.634.61.61 0 0 1-.652.061Zm-4.155.254a.508.508 0 0 1-.065-.76l.65-.572a.517.517 0 0 1 .713.063.393.393 0 0 1 0 .572l-.649.633a.401.401 0 0 1-.65.064ZM8.2 16.99a.513.513 0 0 1-.064-.76l.974-.887a.522.522 0 0 1 .714.063.48.48 0 0 1 .065.634l-.974.95a.52.52 0 0 1-.715 0Zm-1.494-1.014a.568.568 0 0 1 0-.76l1.363-1.33a.509.509 0 0 1 .649.063.582.582 0 0 1 .132.697l-1.363 1.33a.604.604 0 0 1-.78 0ZM5.668 14.52a.488.488 0 0 1 0-.697l1.104-1.14a.593.593 0 0 1 .714.064.494.494 0 0 1 .065.696l-1.104 1.14a.542.542 0 0 1-.779-.063Zm-1.623-2.787L2.81 10.529l3.831-3.736 1.234 1.14-3.831 3.8Zm9.35-2.85c.308.057.597.187.844.38.3.237.66.39 1.038.443a1.512 1.512 0 0 0 1.169-.38l2.338 2.344-1.948 2.027-.325-.317-3.052-2.978c-.064-.063-.13-.126-.194-.126a3.005 3.005 0 0 0-1.623.507.71.71 0 0 1-.714-.317c-.13-.127-.195-.38.13-.697a3.132 3.132 0 0 1 2.338-.886h-.001Zm3.96-1.901 3.831 3.736-1.233 1.204-3.831-3.801 1.233-1.14Zm-1.038 10.072a1.208 1.208 0 0 1 1.168-1.14 1.135 1.135 0 0 0 .132-1.457.062.062 0 0 0-.005-.025.062.062 0 0 0-.013-.02.064.064 0 0 0-.046-.018l-.261-.254 1.949-2.027.52.507a.565.565 0 0 0 .454 0l1.688-1.647a.378.378 0 0 0 0-.507l-4.352-4.18a.32.32 0 0 0-.454 0l-1.689 1.646a.303.303 0 0 0-.072.343.303.303 0 0 0 .072.1l.585.508a1.118 1.118 0 0 1-.65.19 1.456 1.456 0 0 1-.714-.318 2.337 2.337 0 0 0-1.234-.506 4.088 4.088 0 0 0-1.623.317 1.829 1.829 0 0 0-1.363-.38 2.954 2.954 0 0 0-.909.38 1.562 1.562 0 0 1-.778.317c-.26-.064-.455-.128-.65-.19l.52-.508a.3.3 0 0 0 0-.443l-1.69-1.647a.319.319 0 0 0-.454 0l-4.352 4.18a.378.378 0 0 0 0 .508l1.688 1.582a.322.322 0 0 0 .455 0l.39-.317 1.038.824-.454.443a1.164 1.164 0 0 0 0 1.647c.2.188.447.319.714.38a1.15 1.15 0 0 0 .325 1.077 1.22 1.22 0 0 0 1.104.317c.037.273.176.522.389.697a1.182 1.182 0 0 0 1.169.317c.067.226.203.425.39.571a1.032 1.032 0 0 0 1.557-.063l.325-.317.65.634.065.063a1.04 1.04 0 0 0 1.428-.063c.123-.124.212-.276.26-.444a1.11 1.11 0 0 0 1.428-.127c.158-.181.27-.399.325-.633.353.022.702-.09.975-.317h-.001ZM6.37 8.228a.421.421 0 0 0 .524 0 .344.344 0 0 0 0-.483.422.422 0 0 0-.524 0 .27.27 0 0 0 0 .483Zm11.197-.373a.303.303 0 0 0-.51 0 .297.297 0 0 0-.071.336c.016.038.04.071.07.099a.302.302 0 0 0 .511 0 .296.296 0 0 0 0-.433v-.002Z" clip-rule="evenodd"/>
</svg>
