<svg xmlns="http://www.w3.org/2000/svg" width="24" height="24" fill="none" viewBox="0 0 24 24">
  <path fill="#000" fill-rule="evenodd" d="M10.471 15.814h-.52v-.19c-.13-.572-.91-.953-1.624-1.017v-.063a1.651 1.651 0 0 0-.91-.825 1.242 1.242 0 0 0-1.039-.127c-.201.083-.38.214-.52.381v.063l-.066-.063-2.859-1.905 2.275-6.095H8.91L7.287 9.655v.064a1.123 1.123 0 0 0 .26 1.079c.325.446.91.571 1.754.508 1.43-.127 1.885-.953 2.274-1.588a2.2 2.2 0 0 1 .455-.762 2.152 2.152 0 0 1 2.079-.317c.39.063 1.755 1.397 2.859 2.603l2.664 2.54c-.087.303-.27.57-.52.761-.172.18-.403.293-.65.318h-.065l-2.144-1.714c-.24-.227-.42-.51-.52-.826 0-.254-.195-.38-.455-.38s-.39.19-.39.446c.13.508.4.97.78 1.333 0 .064 0 .064.065.064l2.144 1.714a.063.063 0 0 0 .065.064 1.499 1.499 0 0 1-.39.571c-.22.185-.492.296-.779.318L14.5 14.609a.496.496 0 0 0-.325-.063.34.34 0 0 0-.26.127c-.065.127-.13.19-.13.317s.066.19.196.254l2.208 1.778a.925.925 0 0 1-.389.572.714.714 0 0 1-.585.254L13.07 16.26a.497.497 0 0 0-.325-.064.348.348 0 0 0-.26.191.468.468 0 0 0-.065.318.476.476 0 0 0 .13.254l1.624 1.206c-.064 0-.129.064-.194.064-.195 0-.39.063-.586.063a4.66 4.66 0 0 1-1.623-.38c.1-.397.1-.811 0-1.207a1.369 1.369 0 0 0-1.3-.891Zm.455 1.969a.062.062 0 0 1-.04.059.061.061 0 0 1-.025.004.785.785 0 0 0-.066.381.634.634 0 0 1-.26.317c-.064.064-.129.064-.26.064a1.466 1.466 0 0 1-.842-.38l.455-1.525a.58.58 0 0 1 .454-.063c.196 0 .52.063.585.317a1.75 1.75 0 0 1-.001.826Zm-1.82-1.334-.52 1.524a1.405 1.405 0 0 1-.779-.254.756.756 0 0 1-.325-.317l.78-1.969c.315.032.611.166.844.381.038.21.038.425 0 .635Zm-2.404.572h-.065a1.494 1.494 0 0 1-.455-.064c-.324-.127-.52-.317-.52-.446v-.254c.117-.465.291-.913.52-1.334a.23.23 0 0 0 .131-.063c0-.064.065-.127.065-.191.074-.116.16-.222.259-.317.26-.063.78.317.843.444v.064c.066 0 .066.063 0 .19l-.778 1.97Zm-1.365-2.287a4.748 4.748 0 0 0-.389 1.017h-.066a3.164 3.164 0 0 1-1.233-.953 1.79 1.79 0 0 1 .324-.952l.066-.064 1.298.953Zm4.549-8.888c.65-.318 2.014-1.016 2.664-1.016h.064a8.74 8.74 0 0 1 1.95.38c.46.17.941.277 1.43.318.39 0 1.885.254 2.989.381h.065l2.078 6.222h-.067l-.974.89h-.065l-2.404-2.35c-.586-.635-2.534-2.667-3.25-2.857a3.007 3.007 0 0 0-2.858.508 3.633 3.633 0 0 0-.715 1.016c-.325.571-.584 1.079-1.624 1.14-.455.064-.843 0-.974-.19-.13-.126-.13-.253-.065-.317l1.756-4.125Zm3.508 13.27c.325 0 .52-.064.78-.064a2.56 2.56 0 0 0 .715-.38h.13c.065 0 .13.063.195.063.439-.018.856-.2 1.17-.508.307-.244.534-.576.649-.952a2.331 2.331 0 0 0 1.754-1.588c.346-.08.661-.255.91-.508a2.05 2.05 0 0 0 .78-1.397l1.429-1.27a.473.473 0 0 0 .065-.446l-2.21-6.667a.43.43 0 0 0-.323-.254c-.325-.063-2.795-.446-3.444-.446a4.114 4.114 0 0 1-1.17-.318A8.913 8.913 0 0 0 12.485 4c-.91.064-2.533.89-3.054 1.141H4.883a.436.436 0 0 0-.389.254l-2.47 6.667a.487.487 0 0 0 .13.508l1.17.762c-.325.508-.65 1.27-.455 1.714.195.572 1.235 1.334 1.949 1.524v.127a1.623 1.623 0 0 0 1.042 1.016 2.6 2.6 0 0 0 .91.19c.156.186.33.356.52.509.46.303 1.01.437 1.558.38.38.385.89.612 1.43.635.251.005.5-.06.715-.19.217-.117.397-.293.52-.508.596.25 1.235.38 1.882.387Z" clip-rule="evenodd"/>
</svg>
