<svg xmlns="http://www.w3.org/2000/svg" width="24" height="24" fill="none" viewBox="0 0 24 24">
  <path fill="#000" fill-rule="evenodd" d="M4.223 6.376c-.14-.14-.21-.418-.07-.557 1.388-1.735 3.262-2.984 5.415-3.471.21-.07.418.07.488.278.07.21-.07.418-.279.488C7.833 3.6 6.097 4.78 4.85 6.306a.383.383 0 0 1-.348.21.528.528 0 0 1-.278-.14ZM12 2.836c2.084 0 3.958.695 5.555 1.874.07.07.208.14.278.14.14 0 .278-.07.348-.21.14-.139.07-.417-.07-.556A9.868 9.868 0 0 0 12 2c-.278 0-.418.209-.418.418 0 .278.14.417.418.417ZM8.042 20.263c-1.805-.835-3.262-2.292-4.167-4.097-.14-.209-.348-.278-.557-.14-.209.07-.348.349-.209.558.97 1.944 2.64 3.54 4.585 4.445.07.07.139.07.209.07.139 0 .278-.14.348-.279.139-.209 0-.417-.21-.556Zm13.401-6.528c-.209-.07-.418.07-.487.278-.418 1.944-1.527 3.75-3.053 5.067a.368.368 0 0 0-.07.557c.07.07.209.14.348.14.07 0 .14 0 .209-.07a9.732 9.732 0 0 0 3.401-5.485.523.523 0 0 0-.348-.488Zm-1.596-7.987c-.14-.139-.418-.208-.627-.07-.139.21-.208.418-.07.627 1.319 1.597 2.015 3.471 2.015 5.485 0 .279.209.418.417.418.279 0 .418-.209.418-.418 0-2.223-.766-4.306-2.153-6.042ZM2.835 12c0-1.318.279-2.57.836-3.75.07-.208 0-.487-.21-.556-.208-.14-.487 0-.556.209C2.348 9.22 2 10.613 2 12c0 .766.07 1.527.278 2.292a.47.47 0 0 0 .418.279h.07a.524.524 0 0 0 .348-.487c-.21-.697-.279-1.388-.279-2.084Zm13.193 8.265c-1.248.626-2.64.904-4.028.904-.627 0-1.248-.07-1.805-.139-.209-.07-.487.07-.487.279-.07.278.07.487.278.487.696.139 1.387.209 2.014.209 1.527 0 2.984-.348 4.376-.97.209-.14.278-.348.209-.557-.14-.209-.348-.279-.557-.209v-.004ZM17.847 12c0 .111-.01.223-.019.334.005.023.019.046.019.07 0 .05-.014.092-.028.134-.264 3.007-2.728 5.304-5.819 5.304-3.09 0-5.842-2.575-5.842-5.842 0-2.19 1.239-4.116 3.044-5.118.01-.005.01-.014.018-.019h.019A5.758 5.758 0 0 1 12 6.158 5.832 5.832 0 0 1 17.842 12h.005Zm-5.842-5.012c-.71 0-1.393.163-2.014.446 1.76 3.035 2.64 4.554 2.64 4.557h4.38c-.004-2.71-2.227-4.998-5.006-4.998v-.005Zm0 10.019c.232 0 .454-.019.677-.051l-.7-4.473v-.033C10.268 9.517 9.567 8.31 9.28 7.824c-1.365.905-2.288 2.454-2.288 4.171 0 2.785 2.297 5.012 5.012 5.012Zm4.937-4.186h-4.051l.622 3.959a4.985 4.985 0 0 0 3.434-3.959h-.005Z" clip-rule="evenodd"/>
</svg>
