<svg xmlns="http://www.w3.org/2000/svg" width="24" height="24" fill="none" viewBox="0 0 24 24">
  <path fill="#000" fill-rule="evenodd" d="M20.335 4H7.84a1.67 1.67 0 0 0-1.666 1.626v.957C4.523 6.923 2 8.124 2 12.28v2.713a4.525 4.525 0 0 0 4.582 4.474h6.266a1.674 1.674 0 0 0 1.669-1.633 1.565 1.565 0 0 0-.24-.816h1.888a1.67 1.67 0 0 0 1.662-1.633 1.568 1.568 0 0 0-.239-.816h2.745A1.67 1.67 0 0 0 22 12.943V5.624A1.67 1.67 0 0 0 20.335 4ZM7.005 5.626a.885.885 0 0 1 .834-.813h12.496a.835.835 0 0 1 .833.813v1.64h-9.422a2.202 2.202 0 0 0-1.831-.817h-2.5c-.097 0-.24.004-.41.017v-.84Zm9.993 9.754a.795.795 0 0 1-.83.817h-5.404a.444.444 0 0 0-.418.408.398.398 0 0 0 .418.408h2.087a.837.837 0 0 1 .833.817.794.794 0 0 1-.833.816h-1.253l-.012.003H6.584a3.691 3.691 0 0 1-3.75-3.661v-2.71c0-4.61 3.542-5.016 4.583-5.016h2.5c.486 0 1.248.2 1.248.813v.407c0 .678-.832.813-1.249.813H8.25a.51.51 0 0 0-.416.34c-.16.522-.655 1.727-1.378 2.253a.457.457 0 0 0-.154.1 1.122 1.122 0 0 1-.551.156.442.442 0 0 0-.417.407.396.396 0 0 0 .417.407 1.96 1.96 0 0 0 .423-.05v.034a1.67 1.67 0 0 0 1.667 1.626h8.327a.834.834 0 0 1 .83.812Zm3.338-1.629H16.2l-.034-.003h-5.405c-.005 0-.01.003-.016.003H7.84a.834.834 0 0 1-.833-.813v-.42a5.262 5.262 0 0 0 1.59-2.411h1.32c1.041 0 2.083-.543 2.083-1.628v-.403h9.17v4.86a.793.793 0 0 1-.835.818v-.003Zm-.01-4.448a.365.365 0 0 1-.415.408h-2.483a.396.396 0 0 1-.414-.408.442.442 0 0 1 .414-.408h2.483a.396.396 0 0 1 .413.41l.001-.002Z" clip-rule="evenodd"/>
</svg>
