<svg xmlns="http://www.w3.org/2000/svg" width="24" height="24" fill="none" viewBox="0 0 24 24">
  <path fill="#000" fill-rule="evenodd" d="M6.145 9.349a3.297 3.297 0 0 0 2.335-.947 3.284 3.284 0 0 0 .98-2.318 3.24 3.24 0 0 0-2.047-3.035 3.256 3.256 0 0 0-1.268-.23 3.3 3.3 0 0 0-2.336.947 3.286 3.286 0 0 0-.981 2.318 3.33 3.33 0 0 0 .994 2.305c.62.61 1.453.954 2.323.96Zm0-5.713A2.456 2.456 0 0 1 8.387 5.17a2.444 2.444 0 0 1-.554 2.656 2.456 2.456 0 0 1-4.176-1.743 2.45 2.45 0 0 1 1.54-2.27c.3-.121.623-.182.948-.178ZM17.82 14.2a3.3 3.3 0 0 0-2.336.947 3.286 3.286 0 0 0-.981 2.318 3.33 3.33 0 0 0 .994 2.304c.62.61 1.453.954 2.323.96a3.297 3.297 0 0 0 2.335-.947 3.284 3.284 0 0 0 .982-2.317 3.24 3.24 0 0 0-.969-2.33 3.253 3.253 0 0 0-2.348-.935Zm0 5.713a2.458 2.458 0 0 1-2.243-1.535 2.444 2.444 0 0 1 .554-2.656 2.454 2.454 0 0 1 4.176 1.743 2.452 2.452 0 0 1-1.539 2.27 2.465 2.465 0 0 1-.948.178ZM22 2.412v5.304a.396.396 0 0 1-.418.41.446.446 0 0 1-.419-.41v-4.36L2.66 21.365a.367.367 0 0 1-.277.136.53.53 0 0 1-.278-.136.402.402 0 0 1 0-.54L20.602 2.818h-4.458a.41.41 0 1 1 0-.818h5.432a.396.396 0 0 1 .424.41Z" clip-rule="evenodd"/>
</svg>
