<svg xmlns="http://www.w3.org/2000/svg" width="24" height="24" fill="none" viewBox="0 0 24 24">
  <path fill="#000" fill-rule="evenodd" d="M2.382 21.503a.532.532 0 0 1-.278-.135.404.404 0 0 1 0-.541L21.27 2.152a.397.397 0 0 1 .626 0 .404.404 0 0 1 0 .542L2.73 21.368a.539.539 0 0 1-.348.135ZM8.62 6.043A2.454 2.454 0 0 1 6.129 8.48a2.438 2.438 0 0 1-1.765-4.185 2.441 2.441 0 0 1 1.765-.692 2.454 2.454 0 0 1 2.49 2.439Zm.83 0A3.245 3.245 0 0 0 6.13 2.79a3.287 3.287 0 0 0-3.321 3.252 3.333 3.333 0 0 0 3.32 3.25 3.287 3.287 0 0 0 3.322-3.25Zm10.818 11.39a2.448 2.448 0 0 1-2.492 2.42 2.42 2.42 0 0 1-2.492-2.422 2.421 2.421 0 0 1 2.492-2.421 2.446 2.446 0 0 1 2.492 2.424Zm.83 0a3.234 3.234 0 0 0-3.322-3.227 3.277 3.277 0 0 0-3.32 3.228 3.32 3.32 0 0 0 3.32 3.228 3.277 3.277 0 0 0 3.323-3.228h-.001Z" clip-rule="evenodd"/>
</svg>
