<svg xmlns="http://www.w3.org/2000/svg" width="24" height="24" fill="none" viewBox="0 0 24 24">
  <path fill="#000" fill-rule="evenodd" d="M10.334 19.778h.07c.208.07.347.21.347.347.056.297.213.563.441.754.229.19.514.292.808.288.286.002.564-.102.78-.294a1.22 1.22 0 0 0 .401-.748c.08-.149.2-.27.347-.347a.489.489 0 0 1 .417.21c.17.239.41.415.685.503.275.088.571.082.843-.017.272-.114.498-.322.637-.588.14-.266.186-.574.128-.87-.07-.14 0-.279.139-.417a.593.593 0 0 1 .486 0 1.262 1.262 0 0 0 1.597-.14 1.262 1.262 0 0 0 .14-1.598.44.44 0 0 1 0-.415.5.5 0 0 1 .415-.21c.291.06.594.017.858-.121a1.34 1.34 0 0 0 .6-.643 1.33 1.33 0 0 0 .015-.85 1.296 1.296 0 0 0-.5-.678.426.426 0 0 1-.208-.416.471.471 0 0 1 .346-.278c.279-.07.53-.23.716-.454.187-.224.3-.502.326-.797a1.366 1.366 0 0 0-.313-.808 1.303 1.303 0 0 0-.729-.442c-.139 0-.278-.139-.347-.347a.606.606 0 0 1 .208-.417c.24-.158.42-.396.508-.675a1.3 1.3 0 0 0-.021-.853 1.293 1.293 0 0 0-.61-.613 1.245 1.245 0 0 0-.85-.08.487.487 0 0 1-.415-.21.591.591 0 0 1 0-.487 1.167 1.167 0 0 0-.139-1.528 1.27 1.27 0 0 0-1.597-.21.34.34 0 0 1-.243.104.336.336 0 0 1-.243-.104.298.298 0 0 1-.156-.178.31.31 0 0 1 .017-.238c.057-.288.01-.586-.13-.841a1.194 1.194 0 0 0-.635-.548 1.22 1.22 0 0 0-.85-.041 1.248 1.248 0 0 0-.678.527.34.34 0 0 1-.183.148.33.33 0 0 1-.234-.01.453.453 0 0 1-.347-.277 1.225 1.225 0 0 0-.4-.748 1.164 1.164 0 0 0-.78-.294 1.233 1.233 0 0 0-.81.29c-.228.19-.384.457-.44.754a.326.326 0 0 1-.12.212.31.31 0 0 1-.228.067.33.33 0 0 1-.415-.14c-.16-.251-.4-.438-.68-.527a1.217 1.217 0 0 0-.848.042c-.26.11-.477.307-.615.559a1.33 1.33 0 0 0-.15.83.312.312 0 0 1-.14.416.34.34 0 0 1-.243.104.334.334 0 0 1-.243-.104 1.268 1.268 0 0 0-1.598.21 1.167 1.167 0 0 0-.138 1.528.33.33 0 0 1 .104.243.338.338 0 0 1-.104.243.505.505 0 0 1-.416.21 1.159 1.159 0 0 0-.82.083 1.208 1.208 0 0 0-.57.61 1.195 1.195 0 0 0-.083.849c.077.283.256.526.5.68.208.14.278.279.208.417a.341.341 0 0 1-.097.254.323.323 0 0 1-.25.093 1.242 1.242 0 0 0-.7.45c-.177.227-.273.51-.272.8.001.283.1.556.278.771.177.216.423.36.694.41.209.07.347.21.347.347a.297.297 0 0 1-.086.365.278.278 0 0 1-.122.051c-.24.157-.417.4-.493.682-.077.283-.05.584.077.847.108.274.306.5.56.64a1.2 1.2 0 0 0 .829.123.488.488 0 0 1 .416.21.254.254 0 0 1 .104.209.262.262 0 0 1-.104.208 1.262 1.262 0 0 0 .138 1.597 1.261 1.261 0 0 0 1.597.139.593.593 0 0 1 .487 0c.139.139.208.278.14.417a1.33 1.33 0 0 0 .124.867c.138.265.36.473.632.588.27.115.571.13.851.041.28-.088.521-.273.683-.524a.39.39 0 0 1 .145-.157.375.375 0 0 1 .204-.055ZM12 22a2.038 2.038 0 0 1-1.037-.274 2.113 2.113 0 0 1-.768-.767 2.055 2.055 0 0 1-2.044.265 2.116 2.116 0 0 1-.855-.655 2.196 2.196 0 0 1-.433-1 1.97 1.97 0 0 1-1.035.022 2.008 2.008 0 0 1-.91-.508 1.998 1.998 0 0 1-.557-.926 2.042 2.042 0 0 1 .001-1.088 1.932 1.932 0 0 1-.966-.399c-.28-.22-.5-.514-.631-.85a1.913 1.913 0 0 1 .209-2.015 2.056 2.056 0 0 1-.72-.77 2.127 2.127 0 0 1-.253-1.036 2.036 2.036 0 0 1 .243-1.041c.17-.319.423-.583.73-.764a1.913 1.913 0 0 1-.209-2.014c.132-.337.35-.631.631-.851.281-.22.615-.358.966-.4a2.042 2.042 0 0 1-.001-1.088c.098-.356.291-.676.557-.926.25-.257.56-.443.901-.54a2 2 0 0 1 1.044-.015c.073-.358.232-.691.463-.97.23-.279.524-.494.856-.627a2.063 2.063 0 0 1 2.013.21c.201-.301.471-.547.786-.716.314-.17.664-.258 1.02-.257.343.008.68.1.982.27.302.169.56.41.753.703a2.22 2.22 0 0 1 2.083-.21c.323.135.607.353.826.632.218.28.364.611.424.965a1.998 1.998 0 0 1 1.043.015c.34.097.65.283.9.54.267.25.46.57.558.926a2.04 2.04 0 0 1-.002 1.088c.355.029.697.155.987.367.29.212.519.501.662.837a2.07 2.07 0 0 1-.26 2.06c.316.178.579.44.762.757.183.318.28.68.281 1.05a2.2 2.2 0 0 1-.293 1.042 2.11 2.11 0 0 1-.75.763 2.069 2.069 0 0 1 .259 2.06 2.007 2.007 0 0 1-.661.837 1.93 1.93 0 0 1-.986.367 2.04 2.04 0 0 1 0 1.088 1.998 1.998 0 0 1-.556.926c-.26.243-.57.42-.908.516-.337.097-.692.11-1.036.04-.06.353-.206.685-.425.965a2.054 2.054 0 0 1-.825.632 2.236 2.236 0 0 1-2.083-.277 2.086 2.086 0 0 1-.736.753A2.013 2.013 0 0 1 12 22Zm-3.317-6.233c-.138 0-.207-.07-.346-.14a.422.422 0 0 1 0-.555l6.655-6.678a.396.396 0 0 1 .312-.158.384.384 0 0 1 .312.158.422.422 0 0 1 0 .556L8.96 15.628a.524.524 0 0 1-.276.14h-.002Zm.828-7.07a.777.777 0 0 0-.598.231.82.82 0 0 0-.24.608.872.872 0 0 0 .253.595.825.825 0 0 0 .585.245.878.878 0 0 0 .572-.258.925.925 0 0 0 .265-.582.872.872 0 0 0-.252-.594.826.826 0 0 0-.584-.245h-.001Zm0 2.512a1.59 1.59 0 0 1-.636-.115 1.625 1.625 0 0 1-.543-.36 1.677 1.677 0 0 1-.364-.55 1.715 1.715 0 0 1 .364-1.849c.156-.156.34-.279.543-.36a1.59 1.59 0 0 1 .636-.115 1.59 1.59 0 0 1 .636.115c.202.081.387.204.542.36.156.156.28.343.364.548a1.715 1.715 0 0 1-.364 1.85c-.155.156-.34.279-.543.36a1.59 1.59 0 0 1-.635.116Zm4.977 2.466a.776.776 0 0 0-.598.23.82.82 0 0 0-.24.609.871.871 0 0 0 .253.595.825.825 0 0 0 .585.244.877.877 0 0 0 .572-.258.924.924 0 0 0 .265-.581.873.873 0 0 0-.25-.594.826.826 0 0 0-.584-.246h-.003Zm0 2.511a1.589 1.589 0 0 1-.639-.112 1.626 1.626 0 0 1-.545-.36 1.678 1.678 0 0 1-.367-.55 1.717 1.717 0 0 1 0-1.305 1.68 1.68 0 0 1 .367-.55 1.587 1.587 0 0 1 1.184-.472 1.624 1.624 0 0 1 1.185.472 1.715 1.715 0 0 1 0 2.405 1.59 1.59 0 0 1-1.185.472Z" clip-rule="evenodd"/>
</svg>
