<svg xmlns="http://www.w3.org/2000/svg" width="24" height="24" fill="none" viewBox="0 0 24 24">
  <path fill="#000" fill-rule="evenodd" d="M8.526 16.03a.55.55 0 0 1-.29-.142.327.327 0 0 1 0-.567l6.948-6.802a.343.343 0 0 1 .58 0 .328.328 0 0 1 0 .567l-6.948 6.802a.379.379 0 0 1-.29.141Zm1.744-6.35a.877.877 0 0 1-1.753 0 .877.877 0 0 1 1.753 0Zm.877 0a1.753 1.753 0 1 0-3.504-.097 1.753 1.753 0 0 0 3.504.097Zm4.335 5.07a.877.877 0 0 1-1.753 0 .877.877 0 0 1 1.753 0Zm.877 0a1.753 1.753 0 1 0-3.504-.097 1.753 1.753 0 0 0 3.504.097Zm4.77-2.535a9.13 9.13 0 1 1-9.13-8.933 9.04 9.04 0 0 1 9.129 8.933Zm.869 0A10 10 0 1 0 12 22a9.913 9.913 0 0 0 9.997-9.785Z" clip-rule="evenodd"/>
</svg>
