<svg xmlns="http://www.w3.org/2000/svg" width="24" height="24" fill="none" viewBox="0 0 24 24">
  <path fill="#000" fill-rule="evenodd" d="M8.655 15.767a.356.356 0 0 1-.278-.14.328.328 0 0 1 0-.556l6.67-6.675a.332.332 0 0 1 .278-.157.322.322 0 0 1 .278.157.421.421 0 0 1 0 .556l-6.67 6.676a.526.526 0 0 1-.278.14Zm1.679-6.23a.917.917 0 0 1-.26.578.873.873 0 0 1-.568.26.822.822 0 0 1-.58-.246.865.865 0 0 1-.248-.593.83.83 0 0 1 .235-.605.79.79 0 0 1 .593-.234c.217.001.426.09.58.247.155.157.244.37.248.592Zm.828 0a1.73 1.73 0 0 0-.268-.95 1.666 1.666 0 0 0-.738-.636 1.618 1.618 0 0 0-.959-.106 1.63 1.63 0 0 0-.853.459 1.71 1.71 0 0 0-.46.869c-.066.33-.034.672.09.984.125.311.337.578.61.765.273.188.594.288.922.288.434-.003.85-.18 1.16-.492.309-.313.487-.737.496-1.182Zm4.194 4.975a.923.923 0 0 1-.266.581.88.88 0 0 1-.573.258.828.828 0 0 1-.587-.244.87.87 0 0 1-.195-.925.818.818 0 0 1 .458-.458.78.78 0 0 1 .324-.051c.219 0 .43.087.586.244a.87.87 0 0 1 .254.595Zm.839 0c.01-.343-.082-.68-.26-.97a1.69 1.69 0 0 0-.744-.654 1.64 1.64 0 0 0-.973-.118 1.665 1.665 0 0 0-.872.46 1.764 1.764 0 0 0-.385 1.882c.126.317.341.589.618.78a1.65 1.65 0 0 0 2.109-.194c.313-.313.495-.738.507-1.186Zm-12.517 7.08a.455.455 0 0 0-.135-.284.435.435 0 0 0-.284-.123h-.42v-.407a.435.435 0 0 0-.13-.29.414.414 0 0 0-.579 0 .435.435 0 0 0-.13.29v.814c.01.109.059.21.136.284a.435.435 0 0 0 .284.123h.839a.433.433 0 0 0 .284-.123.455.455 0 0 0 .136-.284Zm18.321 0v-.814a.425.425 0 0 0-.12-.296.404.404 0 0 0-.578 0 .425.425 0 0 0-.12.296v.407h-.41a.387.387 0 0 0-.289.114.409.409 0 0 0-.09.452.408.408 0 0 0 .223.22c.05.02.103.03.157.027h.818a.428.428 0 0 0 .28-.124.448.448 0 0 0 .13-.282h-.001ZM2.839 3.26v-.42h.42a.4.4 0 0 0 .288-.123.42.42 0 0 0 .12-.296.428.428 0 0 0-.12-.297A.41.41 0 0 0 3.258 2H2.42a.44.44 0 0 0-.287.129.461.461 0 0 0-.133.29v.84c0 .114.044.223.123.304a.415.415 0 0 0 .593 0 .436.436 0 0 0 .123-.304Zm19.16 0v-.84a.455.455 0 0 0-.127-.288A.434.434 0 0 0 21.59 2h-.818a.405.405 0 0 0-.29.123.425.425 0 0 0 0 .593.405.405 0 0 0 .29.123h.409v.42c0 .111.043.218.12.296a.404.404 0 0 0 .578 0A.425.425 0 0 0 22 3.26ZM6.173 21.604a.45.45 0 0 0-.138-.278.429.429 0 0 0-.282-.118h-.839a.38.38 0 0 0-.294.104.396.396 0 0 0-.124.291.405.405 0 0 0 .124.292.386.386 0 0 0 .294.104h.839a.429.429 0 0 0 .282-.117.45.45 0 0 0 .138-.278Zm6.666 0a.45.45 0 0 0-.138-.278.429.429 0 0 0-.281-.118h-.84a.38.38 0 0 0-.293.104.397.397 0 0 0-.125.291.407.407 0 0 0 .125.292.384.384 0 0 0 .293.104h.84a.429.429 0 0 0 .281-.117.45.45 0 0 0 .139-.278Zm-3.356 0a.443.443 0 0 0-.133-.277.421.421 0 0 0-.277-.119h-.818a.377.377 0 0 0-.288.107.397.397 0 0 0-.09.446.398.398 0 0 0 .223.215.39.39 0 0 0 .155.023h.818a.422.422 0 0 0 .277-.12.442.442 0 0 0 .132-.275Zm6.711 0a.45.45 0 0 0-.138-.278.428.428 0 0 0-.281-.118h-.839a.38.38 0 0 0-.294.104.397.397 0 0 0-.124.291.406.406 0 0 0 .124.292.385.385 0 0 0 .294.104h.839a.428.428 0 0 0 .282-.117.449.449 0 0 0 .138-.278Zm3.311 0a.45.45 0 0 0-.137-.278.428.428 0 0 0-.282-.118h-.84a.38.38 0 0 0-.293.104.4.4 0 0 0 0 .583.384.384 0 0 0 .293.104h.84a.428.428 0 0 0 .282-.117.449.449 0 0 0 .139-.278h-.002ZM6.173 2.422a.462.462 0 0 0-.134-.29.44.44 0 0 0-.286-.13h-.839a.405.405 0 0 0-.29.123.425.425 0 0 0 0 .593.405.405 0 0 0 .29.123h.839a.44.44 0 0 0 .287-.129.462.462 0 0 0 .133-.29Zm6.666 0a.462.462 0 0 0-.133-.29.44.44 0 0 0-.286-.13h-.84a.404.404 0 0 0-.289.123.425.425 0 0 0 0 .593c.077.08.18.123.29.123h.839a.44.44 0 0 0 .287-.129.461.461 0 0 0 .133-.29Zm-3.356 0a.455.455 0 0 0-.128-.29.434.434 0 0 0-.282-.13h-.818a.404.404 0 0 0-.29.123.425.425 0 0 0 0 .593.4.4 0 0 0 .29.123h.818a.434.434 0 0 0 .282-.131.455.455 0 0 0 .127-.289Zm6.711 0a.46.46 0 0 0-.133-.29.44.44 0 0 0-.286-.13h-.839a.404.404 0 0 0-.29.123.425.425 0 0 0 0 .593c.078.08.181.123.29.123h.839a.44.44 0 0 0 .287-.129.46.46 0 0 0 .133-.29Zm3.311 0a.46.46 0 0 0-.133-.29.439.439 0 0 0-.286-.13h-.84a.404.404 0 0 0-.289.123.425.425 0 0 0 0 .593c.077.08.18.123.29.123h.839a.44.44 0 0 0 .288-.128.46.46 0 0 0 .133-.292h-.002Zm2.494 16.694v-.84a.425.425 0 0 0-.12-.296.404.404 0 0 0-.578 0 .425.425 0 0 0-.12.296v.84c0 .11.043.218.12.296a.404.404 0 0 0 .578 0 .425.425 0 0 0 .12-.296Zm0-6.685v-.814a.425.425 0 0 0-.12-.296.404.404 0 0 0-.578 0 .425.425 0 0 0-.12.296v.814c0 .112.043.218.12.297a.404.404 0 0 0 .578 0 .425.425 0 0 0 .12-.297Zm0 3.337v-.84a.425.425 0 0 0-.12-.296.404.404 0 0 0-.578 0 .425.425 0 0 0-.12.297v.839c0 .111.043.218.12.297a.404.404 0 0 0 .578 0 .425.425 0 0 0 .12-.297Zm0-6.65V8.28a.425.425 0 0 0-.12-.297.404.404 0 0 0-.578 0 .425.425 0 0 0-.12.297v.84c0 .11.043.217.12.296a.404.404 0 0 0 .578 0 .425.425 0 0 0 .12-.297Zm0-3.348v-.84a.425.425 0 0 0-.12-.296.404.404 0 0 0-.578 0 .425.425 0 0 0-.12.297v.839c0 .111.043.218.12.297a.404.404 0 0 0 .578 0A.425.425 0 0 0 22 5.77ZM2.819 19.116v-.84a.425.425 0 0 0-.12-.296.404.404 0 0 0-.58 0 .425.425 0 0 0-.119.296v.84c0 .11.043.218.12.296a.404.404 0 0 0 .578 0 .425.425 0 0 0 .12-.296Zm0-6.685v-.814a.425.425 0 0 0-.12-.296.404.404 0 0 0-.58 0 .425.425 0 0 0-.119.296v.814c0 .112.043.218.12.297a.404.404 0 0 0 .578 0 .425.425 0 0 0 .12-.297Zm0 3.337v-.84a.425.425 0 0 0-.12-.296.404.404 0 0 0-.58 0A.425.425 0 0 0 2 14.93v.839c0 .111.043.218.12.297a.404.404 0 0 0 .578 0 .425.425 0 0 0 .12-.297Zm0-6.65V8.28a.425.425 0 0 0-.12-.297.404.404 0 0 0-.58 0A.425.425 0 0 0 2 8.28v.84c0 .11.043.217.12.296a.404.404 0 0 0 .578 0 .425.425 0 0 0 .12-.297Zm0-3.348v-.84a.425.425 0 0 0-.12-.296.404.404 0 0 0-.58 0A.425.425 0 0 0 2 4.931v.839c0 .111.043.218.12.297a.404.404 0 0 0 .578 0 .425.425 0 0 0 .12-.297Z" clip-rule="evenodd"/>
</svg>
