<svg xmlns="http://www.w3.org/2000/svg" width="24" height="24" fill="none" viewBox="0 0 24 24">
  <path fill="#000" fill-rule="evenodd" d="M17.837 4.85a.53.53 0 0 1-.279-.14c-1.595-1.179-3.54-1.875-5.553-1.875h-.07c-.21 0-.419-.139-.419-.417 0-.21.21-.418.419-.418h.07c2.223 0 4.307.696 6.042 2.084.209.139.279.417.139.556-.14.14-.21.21-.349.21ZM4.502 6.514a.53.53 0 0 1-.279-.14c-.14-.138-.209-.417-.07-.556 1.391-1.735 3.27-2.984 5.42-3.471.208-.07.418.07.487.278.07.21-.07.418-.279.488-1.944.487-3.679 1.666-4.93 3.192-.14.14-.21.21-.349.21Zm17.084 5.694c-.21 0-.419-.14-.419-.418a9.317 9.317 0 0 0-2.014-5.485c-.139-.209-.07-.417.07-.626a.51.51 0 0 1 .623.07A10.47 10.47 0 0 1 22 11.79c0 .209-.21.418-.419.418h.005ZM2.698 14.57c-.21 0-.419-.14-.419-.279C2.07 13.527 2 12.766 2 12c0-1.387.28-2.78.902-4.097.07-.21.35-.348.554-.21.21.07.279.349.21.558A8.726 8.726 0 0 0 2.832 12c0 .696.07 1.387.209 2.084.07.208-.07.417-.28.487h-.069.005Zm15.414 5.206a.53.53 0 0 1-.28-.139.368.368 0 0 1 .07-.557c1.526-1.318 2.568-3.123 3.056-5.067.07-.209.28-.348.484-.278.21.07.349.278.349.487-.489 2.153-1.735 4.097-3.405 5.485-.07.07-.14.07-.279.07h.005Zm-10.28 1.318s-.07 0-.139-.07a9.812 9.812 0 0 1-4.581-4.445c-.14-.209-.07-.487.14-.557.208-.139.488-.07.553.14.972 1.805 2.432 3.262 4.237 4.097.21.14.279.348.21.557a.471.471 0 0 1-.42.278ZM12 22c-.693 0-1.32-.07-2.014-.209-.21 0-.349-.209-.279-.487 0-.209.21-.348.488-.278.554.07 1.182.139 1.805.139 1.39 0 2.777-.279 4.028-.905.21-.07.419 0 .553.209.07.208 0 .417-.209.556-1.39.627-2.846.97-4.377.97L12 22Zm-2.642-6.12 6.693-6.678c.14-.14.14-.418 0-.627a.524.524 0 0 0-.628 0L8.73 15.253c-.14.209-.14.487 0 .626.07.07.21.14.35.14.069 0 .208-.07.278-.14Zm.54-6.929c-.489 0-.838.348-.838.836 0 .417.35.835.838.835.418 0 .837-.418.837-.835a.848.848 0 0 0-.837-.836Zm0 2.501c-.972 0-1.67-.765-1.67-1.665 0-.975.698-1.666 1.67-1.666.907 0 1.67.696 1.67 1.666 0 .904-.768 1.665-1.67 1.665Zm5.032 2.478c-.488 0-.837.348-.837.836 0 .417.349.835.837.835.419 0 .837-.418.837-.835a.847.847 0 0 0-.837-.836Zm0 2.502a1.65 1.65 0 0 1-1.67-1.666c0-.97.698-1.666 1.67-1.666.907 0 1.67.696 1.67 1.666 0 .905-.767 1.666-1.67 1.666Z" clip-rule="evenodd"/>
</svg>
