<svg xmlns="http://www.w3.org/2000/svg" width="24" height="24" fill="none" viewBox="0 0 24 24">
  <path fill="#000" fill-rule="evenodd" d="M18.204 14.26c-.555.401-1.137.763-1.74 1.083a5.678 5.678 0 0 0 1.392-3.654 5.502 5.502 0 0 0-1.393-3.586c.743.347 1.444.778 2.09 1.286a17.468 17.468 0 0 1 1.949 1.76c.202.162.39.343.558.54a18.796 18.796 0 0 1-2.856 2.572ZM3.443 12.23c-.21-.202-.349-.405-.488-.54A18.89 18.89 0 0 1 5.81 9.117c.532-.378 1.09-.717 1.67-1.015a5.444 5.444 0 0 0-1.321 3.586 5.62 5.62 0 0 0 1.322 3.654 20.86 20.86 0 0 1-2.02-1.353 18.77 18.77 0 0 1-2.018-1.76Zm12.115-3.992a4.803 4.803 0 0 1 0 6.902 5.148 5.148 0 0 1-7.102 0 4.802 4.802 0 0 1 0-6.902 5.148 5.148 0 0 1 7.102 0Zm6.336 3.248A16.29 16.29 0 0 0 19.04 8.78C17.367 7.494 15 6.14 12.355 6.073a.646.646 0 0 0-.348-.067.536.536 0 0 0-.348.067c-2.647.068-5.014 1.421-6.685 2.707a18.603 18.603 0 0 0-2.923 2.706.563.563 0 0 0 0 .474c.895.984 1.873 1.89 2.923 2.707 1.672 1.285 4.04 2.571 6.684 2.707h.698c2.645-.136 5.012-1.422 6.683-2.707a19.765 19.765 0 0 0 2.855-2.707.32.32 0 0 0 0-.474Zm-12.252.607v1.488h-.565v-1.488h.565Zm.353-.676h-1.27c-.142 0-.213 0-.283.067a.507.507 0 0 0-.142.271v2.165a.348.348 0 0 0 .142.271.371.371 0 0 0 .282.136h1.27a.547.547 0 0 0 .283-.136c.07-.067.07-.135.07-.27v-2.166a.394.394 0 0 0-.07-.27.44.44 0 0 0-.282-.068Zm4.251 2.163v-3.326h.553v3.326h-.553Zm1.173-3.937a.529.529 0 0 0-.276-.136H13.9a.36.36 0 0 0-.276.136c-.069.068-.138.135-.138.203v4.073a.35.35 0 0 0 .138.272.357.357 0 0 0 .276.136h1.242a.529.529 0 0 0 .276-.136c.07-.068.07-.136.07-.272V9.846a.246.246 0 0 0-.072-.202l.002-.001Zm-3.212-.256v4.195h-.553V9.387h.553Zm.344-.744h-1.242a.36.36 0 0 0-.276.135c-.069.068-.138.135-.138.203v4.943a.35.35 0 0 0 .138.27.36.36 0 0 0 .276.136h1.242a.532.532 0 0 0 .276-.136c.07-.067.07-.135.07-.27V8.98a.245.245 0 0 0-.07-.203.525.525 0 0 0-.278-.135h.002Z" clip-rule="evenodd"/>
</svg>
