<svg xmlns="http://www.w3.org/2000/svg" width="24" height="24" fill="none" viewBox="0 0 24 24">
  <path fill="#000" fill-rule="evenodd" d="M13.499 12.05a2.398 2.398 0 0 0 1.007-1.946 2.507 2.507 0 0 0-5.012 0 2.399 2.399 0 0 0 1.007 1.947 3.65 3.65 0 0 0-2.225 3.36.443.443 0 0 0 .412.407h6.62a.442.442 0 0 0 .412-.407 3.65 3.65 0 0 0-2.221-3.36ZM12 8.482a1.624 1.624 0 1 1-1.67 1.623A1.67 1.67 0 0 1 12 8.481Zm-2.896 6.522a2.885 2.885 0 0 1 2.897-2.444 2.77 2.77 0 0 1 2.827 2.444H9.104ZM16.16 8.09a.526.526 0 0 0 .275-.135l2.293-2.245c.35.24.764.368 1.189.367A2.111 2.111 0 0 0 22 4.04a2.068 2.068 0 0 0-2.084-2.038 2.026 2.026 0 0 0-1.734 3.163l-2.298 2.251a.313.313 0 0 0 0 .54.36.36 0 0 0 .275.134Zm3.757-5.273a1.222 1.222 0 1 1-1.154.75 1.233 1.233 0 0 1 1.154-.75Zm0 14.64a2.165 2.165 0 0 0-1.165.33l-1.472-1.505a.527.527 0 0 0-.621 0 .498.498 0 0 0 0 .61l1.523 1.438a1.99 1.99 0 0 0-.35 1.142 2.085 2.085 0 0 0 4.169 0 2.014 2.014 0 0 0-2.084-2.014Zm0 3.223a1.21 1.21 0 1 1 1.25-1.208 1.225 1.225 0 0 1-1.25 1.208ZM4.084 6.077a2.06 2.06 0 0 0 1.142-.355l2.357 2.233a.36.36 0 0 0 .277.135.53.53 0 0 0 .278-.135.402.402 0 0 0 0-.539L5.808 5.15c.231-.324.357-.712.36-1.11A2.067 2.067 0 0 0 4.086 2a2.024 2.024 0 0 0-2.084 2.037 2.067 2.067 0 0 0 2.084 2.039Zm0-3.26a1.23 1.23 0 0 1 1.25 1.223 1.203 1.203 0 0 1-.367.867c-.006.006-.011.008-.018.014v.003a1.261 1.261 0 0 1-.863.338 1.222 1.222 0 1 1 0-2.445h-.002Zm2.643 13.465-1.48 1.524a2.127 2.127 0 0 0-1.163-.348A2.015 2.015 0 0 0 2 19.472a2.055 2.055 0 0 0 2.084 2.013 2.1 2.1 0 0 0 2.084-2.013c0-.402-.123-.794-.355-1.122l1.53-1.458a.501.501 0 0 0 0-.61.515.515 0 0 0-.616 0ZM4.084 20.68a1.208 1.208 0 1 1 1.25-1.208 1.224 1.224 0 0 1-1.249 1.208ZM19.916 9.308a2.028 2.028 0 0 0-2.047 1.64h-2.105a.39.39 0 0 0-.415.397.438.438 0 0 0 .415.399h2.107a2.078 2.078 0 0 0 2.045 1.64A2.113 2.113 0 0 0 22 11.344a2.067 2.067 0 0 0-2.084-2.037Zm0 3.26a1.231 1.231 0 0 1-1.25-1.196.226.226 0 0 0 .008-.027c0-.01-.006-.019-.007-.03a1.25 1.25 0 1 1 2.403.484 1.25 1.25 0 0 1-1.154.769ZM8.652 11.345a.391.391 0 0 0-.417-.397H6.127a2.081 2.081 0 0 0-2.043-1.64A2.023 2.023 0 0 0 2 11.345a2.067 2.067 0 0 0 2.084 2.038 2.137 2.137 0 0 0 2.04-1.64h2.113a.439.439 0 0 0 .415-.398Zm-4.567 1.223a1.222 1.222 0 1 1 1.247-1.253c0 .011-.006.02-.006.03a.229.229 0 0 0 .007.027 1.23 1.23 0 0 1-1.248 1.196Z" clip-rule="evenodd"/>
</svg>
