<svg xmlns="http://www.w3.org/2000/svg" width="24" height="24" fill="none" viewBox="0 0 24 24">
  <path fill="#000" fill-rule="evenodd" d="M10.314 5.25a7.73 7.73 0 1 0 8.323 8.123h-7.908a.442.442 0 0 1-.415-.407V5.25Zm.416 16.245a8.532 8.532 0 1 1 0-17.058.396.396 0 0 1 .416.406v7.717h7.907a.396.396 0 0 1 .417.406 8.688 8.688 0 0 1-8.741 8.529Zm2.92-11.358h7.515a7.872 7.872 0 0 0-7.516-7.325l.001 7.325Zm7.933.814h-8.351a.443.443 0 0 1-.417-.407V2.407a.397.397 0 0 1 .417-.406A8.667 8.667 0 0 1 22 10.544a.444.444 0 0 1-.418.407Z" clip-rule="evenodd"/>
</svg>
