<svg xmlns="http://www.w3.org/2000/svg" width="24" height="24" fill="none" viewBox="0 0 24 24">
  <path fill="#000" fill-rule="evenodd" d="M13.651 10.139h7.513a7.874 7.874 0 0 0-7.513-7.326v7.326Zm7.93.814h-8.347a.444.444 0 0 1-.418-.407V2.408a.397.397 0 0 1 .418-.407 8.615 8.615 0 0 1 8.072 5.235 8.628 8.628 0 0 1 .692 3.31.444.444 0 0 1-.42.407h.003Zm-7.304 1.611 4.87 4.75a7.722 7.722 0 0 0 2.017-4.75h-6.887Zm4.87 5.7c-.14 0-.207 0-.278-.068l-5.913-5.768a.562.562 0 0 1-.14-.475.5.5 0 0 1 .418-.204h8.348a.395.395 0 0 1 .418.408 8.426 8.426 0 0 1-2.577 6.04.426.426 0 0 1-.279.067h.003ZM10.31 5.251a7.715 7.715 0 0 0-7.486 7.925 7.722 7.722 0 0 0 7.902 7.51 7.984 7.984 0 0 0 5.267-2.032L10.45 13.24a.513.513 0 0 1-.14-.27V5.25Zm.416 16.247a8.525 8.525 0 0 1-8.058-5.22 8.536 8.536 0 0 1 1.9-9.413 8.527 8.527 0 0 1 6.158-2.427.394.394 0 0 1 .416.406v7.919l5.752 5.62a.5.5 0 0 1 0 .609 8.7 8.7 0 0 1-6.17 2.506h.002Z" clip-rule="evenodd"/>
</svg>
