<svg xmlns="http://www.w3.org/2000/svg" width="24" height="24" fill="none" viewBox="0 0 24 24">
  <path fill="#000" fill-rule="evenodd" d="M15.957 7.54a.432.432 0 0 1 .07.618.528.528 0 0 1-.278.137c-.139 0-.209 0-.278-.068a6.055 6.055 0 0 0-3.887-1.167.345.345 0 0 1-.417-.343c-.07-.205.139-.411.347-.48a7.203 7.203 0 0 1 4.443 1.304Zm4.349 3.931c-.147 2.388-1.776 4.467-4.14 5.61v2.573a.39.39 0 0 1-.408.402.36.36 0 0 1-.408-.402V17.43a9.7 9.7 0 0 1-3.352.593 9.98 9.98 0 0 1-3.344-.566v2.197a.389.389 0 0 1-.407.402.36.36 0 0 1-.408-.402v-2.532a7.626 7.626 0 0 1-3.477-3.159H2.42a.363.363 0 0 1-.416-.406V10.31a.394.394 0 0 1 .416-.406h1.389A6.794 6.794 0 0 1 6.93 5.64a2.813 2.813 0 0 0-1.18-1.488.38.38 0 0 1 0-.677 2.816 2.816 0 0 1 1.665-.473 3.387 3.387 0 0 1 2.708 1.42 8.803 8.803 0 0 1 1.874-.2c4.388 0 8.002 2.858 8.3 6.43a1.194 1.194 0 0 0 .873-1.14.39.39 0 0 1 .415-.402.439.439 0 0 1 .414.402 2.023 2.023 0 0 1-1.694 1.96Zm-.812-.351c0-3.316-3.4-6.09-7.495-6.09a8.978 8.978 0 0 0-1.944.201.401.401 0 0 1-.486-.136A2.39 2.39 0 0 0 7.417 3.81c-.208 0-.416.068-.624.068.509.518.848 1.179.972 1.894a.406.406 0 0 1-.208.406 6.33 6.33 0 0 0-3.054 4.196.323.323 0 0 1-.348.338H2.837v2.435h1.805a.458.458 0 0 1 .346.271c1.18 2.3 3.888 3.79 7.011 3.79 4.094.003 7.495-2.703 7.495-6.087v-.002ZM7.003 9.11a.814.814 0 1 0 .837.815.826.826 0 0 0-.837-.815Z" clip-rule="evenodd"/>
</svg>
