<svg xmlns="http://www.w3.org/2000/svg" width="24" height="24" fill="none" viewBox="0 0 24 24">
  <path fill="#000" fill-rule="evenodd" d="M9.21 6.672V5.04a.452.452 0 0 1 .596-.386.404.404 0 0 1 .267.386v1.632c0 .272-.144.409-.431.409a.403.403 0 0 1-.431-.409Zm11.957 5.07h-1.32a.386.386 0 0 1-.417-.34 5.932 5.932 0 0 0-3.055-4.134.584.584 0 0 1-.209-.406 3.244 3.244 0 0 1 1.043-1.898 2.087 2.087 0 0 0-.626-.135 2.64 2.64 0 0 0-2.222 1.287.424.424 0 0 1-.416.203 4.592 4.592 0 0 0-1.39-.203c0 .421-.147.828-.416 1.152a.531.531 0 0 0 .278.068.395.395 0 0 1 .417.407.461.461 0 0 1-.486.407.53.53 0 0 0-.348-.068c-.208 0-.416.068-.625.068a6.964 6.964 0 0 0-1.944.541 3.95 3.95 0 0 0-.901.543.448.448 0 0 1-.626-.068.403.403 0 0 1 .07-.542 1.22 1.22 0 0 1 .347-.271 3.24 3.24 0 0 1-1.042-.881l-.625.406a5.734 5.734 0 0 0-2.153 4.27 5.518 5.518 0 0 0 2.153 4.27 8.334 8.334 0 0 0 5.347 1.83c3.194 0 5.83-1.628 6.944-3.796a.46.46 0 0 1 .347-.271h1.875v-2.44ZM7.626 6.318c.086.261.202.512.346.746.327.423.796.712 1.32.813h.347a1.961 1.961 0 0 0 1.389-.542 1.707 1.707 0 0 0 .694-1.22v-.27a1.293 1.293 0 0 0-.07-.542 2.077 2.077 0 0 0-2.012-1.49 2.16 2.16 0 0 0-2.083 2.033c0 .135.069.27.069.473ZM22 11.335v3.253a.352.352 0 0 1-.14.27.28.28 0 0 1-.277.136H19.57a7.509 7.509 0 0 1-3.403 3.117v2.576a.443.443 0 0 1-.416.406.396.396 0 0 1-.417-.406V18.45a9.075 9.075 0 0 1-3.333.61 10.707 10.707 0 0 1-3.333-.542v2.169a.417.417 0 0 1-.834 0V18.11a6.782 6.782 0 0 1-1.666-1.016 6.583 6.583 0 0 1-2.5-4.54A2.124 2.124 0 0 1 2 10.52a.417.417 0 0 1 .833 0 1.184 1.184 0 0 0 .833 1.152 6.567 6.567 0 0 1 2.5-4.405 4.98 4.98 0 0 1 .694-.542 3.501 3.501 0 0 1-.069-.88 2.876 2.876 0 0 1 5.694-.543c.443.008.885.053 1.32.135a3.443 3.443 0 0 1 2.777-1.355 3.563 3.563 0 0 1 1.667.407.38.38 0 0 1 0 .678 2.262 2.262 0 0 0-1.18 1.558 7.01 7.01 0 0 1 3.127 4.202h1.388a.53.53 0 0 1 .277.135.52.52 0 0 1 .139.272Zm-5.011.416a.817.817 0 1 0-.839-.816.828.828 0 0 0 .837.816h.002Z" clip-rule="evenodd"/>
</svg>
