<svg xmlns="http://www.w3.org/2000/svg" width="24" height="24" fill="none" viewBox="0 0 24 24">
  <path fill="#000" fill-rule="evenodd" d="M9.52 8.67c.148.073.149.217.149.363 0 .145 0 .287-.149.361a.499.499 0 0 1-.736 0L5.836 6.502 2.888 9.394a.499.499 0 0 1-.737 0c-.148-.072-.148-.217-.148-.361 0-.145 0-.288.148-.362l2.948-2.893-2.948-2.892a.394.394 0 0 1-.148-.362c0-.144 0-.288.148-.361a.498.498 0 0 1 .737 0l2.948 2.821 2.948-2.821a.498.498 0 0 1 .736 0c.148.072.149.217.149.361a.394.394 0 0 1-.149.362L6.574 5.778 9.52 8.671Zm10.835 9.365a2.938 2.938 0 1 0-2.937 2.884 2.919 2.919 0 0 0 2.937-2.884Zm1.027 0A3.974 3.974 0 0 1 17.418 22a4.039 4.039 0 0 1-4.039-3.965 3.977 3.977 0 0 1 4.039-3.893 3.916 3.916 0 0 1 3.964 3.893ZM19.694 7.216l-.073-.072v-.072a.07.07 0 0 0-.005-.028.072.072 0 0 0-.07-.044v-.072a.156.156 0 0 1-.146-.143h-.148l-5.231-1.08h-.074c-.147 0-.22.073-.295.073a.395.395 0 0 0-.222.36.311.311 0 0 0 .074.36c.074.143.148.215.296.215l3.463.72-.958.43A23.217 23.217 0 0 0 5.621 18.149a.552.552 0 0 0 .22.72.58.58 0 0 0 .738-.216 21.644 21.644 0 0 1 10.757-10.07l.811-.36-1.547 3.31a.633.633 0 0 0-.074.36c.074.143.148.287.295.287a.58.58 0 0 0 .736-.216l2.064-4.459v-.072l.073-.072v-.144Z" clip-rule="evenodd"/>
</svg>
