<svg xmlns="http://www.w3.org/2000/svg" width="24" height="24" fill="none" viewBox="0 0 24 24">
  <path fill="#000" fill-rule="evenodd" d="M11.793 2.001A10 10 0 1 0 22 11.999 10.062 10.062 0 0 0 11.793 2Zm0 19.162A9.165 9.165 0 1 1 21.15 12a9.254 9.254 0 0 1-9.357 9.164ZM10.951 9.1v2.088h1.711a.418.418 0 1 1 0 .835h-1.71v.835a4.38 4.38 0 0 1-.567 2.505h3.536a.417.417 0 1 1 0 .835H8.83a.418.418 0 0 1 0-.835c.282 0 1.272 0 1.272-2.505v-.835H8.371a.417.417 0 0 1 0-.835h1.732V9.099a2.066 2.066 0 0 1 2.121-2.087 2.11 2.11 0 0 1 2.12 2.087.424.424 0 0 1-.848 0 1.273 1.273 0 0 0-2.544 0Z" clip-rule="evenodd"/>
</svg>
