<svg xmlns="http://www.w3.org/2000/svg" width="24" height="24" fill="none" viewBox="0 0 24 24">
  <path fill="#000" fill-rule="evenodd" d="M9.5 7.084v1.425h1.672a.408.408 0 0 1 0 .815H9.501v1.085a4.467 4.467 0 0 1-.418 2.172h2.925a.407.407 0 1 1 0 .815H7.62a.408.408 0 1 1 0-.815c.279 0 1.045 0 1.045-2.172V9.326H6.986a.407.407 0 0 1 0-.814h1.678V7.084a1.912 1.912 0 0 1 1.95-1.833 1.851 1.851 0 0 1 1.881 1.833.418.418 0 0 1-.836 0 1.058 1.058 0 0 0-1.044-1.018A1.075 1.075 0 0 0 9.5 7.084ZM22 12.191v-.017c0-.012-.006-.024-.007-.036a.424.424 0 0 0-.017-.098.408.408 0 0 0-.035-.07.59.59 0 0 0-.035-.068c-.003 0-.006 0-.009-.004a.407.407 0 0 0-.317-.131H18.3a.445.445 0 0 0-.419.407.398.398 0 0 0 .42.408h2.232l-5.21 4.725-3.882-3.04a.429.429 0 0 0-.554 0l-7.482 6.485a.495.495 0 0 0 0 .608.528.528 0 0 0 .276.135.364.364 0 0 0 .278-.135l7.206-6.215 3.88 3.04a.532.532 0 0 0 .554-.067l5.562-5v2.314a.444.444 0 0 0 .42.407.397.397 0 0 0 .418-.407v-3.22l.001-.021h-.001ZM6.02 15.77c0 .068.07.068.14.068a.388.388 0 0 0 .207-.747 6.564 6.564 0 1 1 9.777-5.768 6.464 6.464 0 0 1-1.179 3.732.422.422 0 0 0 .07.612.369.369 0 0 0 .555-.136 7.131 7.131 0 0 0 1.387-4.208A7.49 7.49 0 0 0 2 9.324a7.239 7.239 0 0 0 4.02 6.447Z" clip-rule="evenodd"/>
</svg>
