<svg xmlns="http://www.w3.org/2000/svg" width="24" height="24" fill="none" viewBox="0 0 24 24">
  <path fill="#000" fill-rule="evenodd" d="M13.515 7.206V8.68h1.715a.408.408 0 0 1 .43.417.455.455 0 0 1-.43.418h-1.715V10.6a4.728 4.728 0 0 1-.429 2.215h3.001a.407.407 0 0 1 .429.416.453.453 0 0 1-.429.415h-4.502a.453.453 0 0 1-.429-.415.408.408 0 0 1 .429-.416c.286 0 1.073 0 1.073-2.215V9.514h-1.722a.455.455 0 0 1-.43-.418.407.407 0 0 1 .43-.417h1.722V7.206a1.967 1.967 0 0 1 3.929 0 .406.406 0 0 1-.43.415.372.372 0 0 1-.428-.415 1.1 1.1 0 0 0-1.142-1.039 1.085 1.085 0 0 0-1.072 1.04Zm7.668 14.159V18.24a.425.425 0 0 0-.85 0v2.339l-5.675-5.109a.438.438 0 0 0-.569-.07l-3.985 3.127-7.4-6.39a.375.375 0 0 0-.57 0 .355.355 0 0 0 0 .555L9.82 19.36a.447.447 0 0 0 .57.07l3.984-3.127 5.352 4.861H17.43a.374.374 0 0 0-.408.248.372.372 0 0 0-.016.17.403.403 0 0 0 .424.418h3.328l.01-.003.01.003a.371.371 0 0 0 .284-.14.42.42 0 0 0 .119-.496h.002ZM8.451 14.99a.542.542 0 0 0 .284-.139.511.511 0 0 0 0-.625A6.341 6.341 0 0 1 6.674 9.5a6.829 6.829 0 1 1 11.663 4.726.416.416 0 0 0 0 .556.44.44 0 0 0 .57 0A7.228 7.228 0 0 0 21.185 9.5a7.684 7.684 0 0 0-15.363 0A7.671 7.671 0 0 0 8.1 14.852c.138.07.209.139.351.139Z" clip-rule="evenodd"/>
</svg>
