<svg xmlns="http://www.w3.org/2000/svg" width="24" height="24" fill="none" viewBox="0 0 24 24">
  <path fill="#000" fill-rule="evenodd" d="M21.996 18.73a.396.396 0 0 1-.417.408H14.07a.407.407 0 1 1 0-.815c1.39 0 2.087-1.29 2.087-3.938v-1.777h-2.088a.407.407 0 1 1 0-.816h2.088V8.885a2.904 2.904 0 0 1 2.92-2.851 2.862 2.862 0 0 1 2.92 2.851.364.364 0 0 1-.417.408.395.395 0 0 1-.416-.408 2.067 2.067 0 0 0-2.087-2.037 2.114 2.114 0 0 0-2.086 2.037v2.907h2.141a.408.408 0 0 1 0 .816h-2.141v1.777c0 2.037-.417 3.26-.973 3.938h5.561a.396.396 0 0 1 .417.408Zm-9.16-16.323v18.73a.432.432 0 0 1-.346.407h-.486A10.02 10.02 0 0 1 2 11.568C2 6.208 6.446 2 12.004 2h.486a.382.382 0 0 1 .346.403v.004Zm-.832.407c-.067 0-.132.009-.199.01a13.72 13.72 0 0 0-2.64 4.073h2.839V2.814ZM3.919 15.875h4.345a14.088 14.088 0 0 1-.77-4.08H2.846a9.087 9.087 0 0 0 1.072 4.078v.002Zm3.57-4.897a12.64 12.64 0 0 1 .527-3.265H3.755a8.488 8.488 0 0 0-.892 3.265H7.49Zm1.644 4.897h2.871v-4.08H8.311c.061 1.393.339 2.77.823 4.078v.002Zm2.871-8.162H8.87a11.588 11.588 0 0 0-.565 3.265h3.7V7.713Zm-7.779-.816h4.072a14.125 14.125 0 0 1 2.328-3.975 9.078 9.078 0 0 0-6.401 3.973l.001.002Zm6.54 13.738a18.976 18.976 0 0 1-2.197-3.944H4.412a9.178 9.178 0 0 0 6.353 3.944Zm1.24.094V16.69H9.46a19.63 19.63 0 0 0 2.35 4.028c.066 0 .128.008.193.008l.001.002Z" clip-rule="evenodd"/>
</svg>
