<svg xmlns="http://www.w3.org/2000/svg" width="24" height="24" fill="none" viewBox="0 0 24 24">
  <path fill="#000" fill-rule="evenodd" d="M19.425 21.582a.455.455 0 0 1-.428.418H5.301a.418.418 0 1 1 0-.836 3.835 3.835 0 0 0 3.853-3.757v-4.565H4.419a.419.419 0 0 1 0-.837h4.735V6.97a5.139 5.139 0 0 1 10.272 0 .455.455 0 0 1-.428.418.406.406 0 0 1-.428-.418 4.283 4.283 0 0 0-8.562 0v5.034h7.269a.418.418 0 0 1 0 .837h-7.269v4.565a4.58 4.58 0 0 1-1.997 3.757h10.987a.455.455 0 0 1 .427.418Z" clip-rule="evenodd"/>
</svg>
