<svg xmlns="http://www.w3.org/2000/svg" width="24" height="24" fill="none" viewBox="0 0 24 24">
  <path fill="#000" fill-rule="evenodd" d="M21.565 5.334a.42.42 0 0 0 .311-.115.404.404 0 0 0 .124-.303V2.418a.395.395 0 0 0-.124-.302.414.414 0 0 0-.31-.115H2.434a.468.468 0 0 0-.298.128.448.448 0 0 0-.137.289v2.498c.008.11.057.212.137.289.08.077.186.122.298.129h1.314v10.779H2.435a.432.432 0 0 0-.302.122.413.413 0 0 0 0 .59.43.43 0 0 0 .302.123h9.116v1.732a1.725 1.725 0 0 0-.987.694 1.66 1.66 0 0 0 .298 2.207c.315.27.72.419 1.138.419a1.75 1.75 0 0 0 1.138-.419 1.66 1.66 0 0 0 .298-2.207 1.725 1.725 0 0 0-.987-.694v-1.732h9.117a.431.431 0 0 0 .302-.123.413.413 0 0 0 0-.59.431.431 0 0 0-.302-.122H20.25V5.333h1.314Zm-8.7 14.942a.793.793 0 0 1-.244.602.828.828 0 0 1-.618.233.869.869 0 0 1-.642-.222.835.835 0 0 1-.272-.611.82.82 0 0 1 .272-.61.858.858 0 0 1 .642-.223.842.842 0 0 1 .617.231.806.806 0 0 1 .246.6ZM2.873 2.836h18.261V4.5H2.872V2.835Zm16.513 13.277H4.62V5.333h14.764v10.78Zm-10.91-3.308L7.61 14.4a.588.588 0 0 0 .072.486c.111.056.236.08.36.069h.144l2.376-1.044c.47.119.956.165 1.44.14 2.667 0 4.752-1.666 4.752-3.748 0-2.151-2.088-3.816-4.752-3.816-2.592 0-4.752 1.665-4.752 3.816.012.477.127.947.337 1.378.21.431.512.814.884 1.123h.002Zm3.528-5.482c2.16 0 3.887 1.318 3.887 2.983 0 1.597-1.728 2.915-3.887 2.915a4.59 4.59 0 0 1-1.368-.139.225.225 0 0 0-.288 0l-1.367.626.432-.834a.447.447 0 0 0-.144-.486c-.34-.24-.62-.552-.82-.912-.2-.36-.313-.76-.333-1.17C8.112 8.641 9.84 7.323 12 7.323h.003Z" clip-rule="evenodd"/>
</svg>
