<svg xmlns="http://www.w3.org/2000/svg" width="24" height="24" fill="none" viewBox="0 0 24 24">
  <path fill="#000" d="M21.558 5.326a.437.437 0 0 0 .313-.117.4.4 0 0 0 .122-.299V2.416a.383.383 0 0 0-.122-.3.417.417 0 0 0-.313-.116H2.435a.476.476 0 0 0-.299.13.438.438 0 0 0-.136.286V4.91c.008.108.056.21.135.286a.48.48 0 0 0 .3.13h1.329v10.82H2.532a.453.453 0 0 0-.313.124.414.414 0 0 0-.13.299c0 .112.047.22.13.299a.45.45 0 0 0 .313.124h9.024v1.753c-.405.107-.755.35-.987.685a1.599 1.599 0 0 0-.27 1.137c.057.398.263.762.58 1.026a1.78 1.78 0 0 0 1.142.407 1.78 1.78 0 0 0 1.15-.42 1.606 1.606 0 0 0 .278-2.185c-.24-.334-.6-.572-1.011-.67v-1.736h9.12c.117 0 .23-.044.313-.124a.413.413 0 0 0 0-.598.454.454 0 0 0-.313-.123h-1.28V5.326h1.28ZM12.89 20.338a.767.767 0 0 1-.057.324.798.798 0 0 1-.188.274.841.841 0 0 1-.286.18.874.874 0 0 1-.339.054.891.891 0 0 1-.615-.244.814.814 0 0 1-.255-.587c0-.221.092-.433.255-.588a.891.891 0 0 1 .615-.244.872.872 0 0 1 .625.233.8.8 0 0 1 .188.274.77.77 0 0 1 .057.323v.002Zm-8.258-4.192V5.36h14.777v10.786l-14.777.001ZM2.868 2.833h18.255v1.663H2.87l-.002-1.663Zm15.311 10.83h-1.586l-2.427-5.811a.462.462 0 0 0-.144-.183.49.49 0 0 0-.218-.093.412.412 0 0 0-.272.06.38.38 0 0 0-.162.216l-1.884 3.936-1.74-2.002a.566.566 0 0 0-.36-.139.414.414 0 0 0-.214.054.388.388 0 0 0-.15.154l-2.343 3.81h-.664a.452.452 0 0 0-.312.124.413.413 0 0 0-.13.299c0 .112.047.22.13.298.083.08.195.124.312.124h12.167c.117 0 .23-.044.313-.124a.414.414 0 0 0 .13-.298.413.413 0 0 0-.13-.3.453.453 0 0 0-.313-.123l-.003-.002Zm-8.722-2.912 1.81 2.071a.57.57 0 0 0 .363.139c.142-.027.27-.1.362-.207l1.739-3.73 1.947 4.64h-8.02l1.799-2.913ZM7.246 7.83c0-.161.05-.32.145-.455a.85.85 0 0 1 .385-.302.894.894 0 0 1 .934.178.786.786 0 0 1 .186.894.829.829 0 0 1-.316.368.886.886 0 0 1-.476.138.891.891 0 0 1-.61-.24.788.788 0 0 1-.252-.582l.004.002Z"/>
</svg>
