<svg xmlns="http://www.w3.org/2000/svg" width="24" height="24" fill="none" viewBox="0 0 24 24">
  <path fill="#000" fill-rule="evenodd" d="M12 15.315a4.738 4.738 0 0 0 2.561-.826 4.587 4.587 0 0 0 1.668-2.074 4.481 4.481 0 0 0 .219-2.632 4.546 4.546 0 0 0-1.306-2.31 4.705 4.705 0 0 0-2.392-1.22 4.763 4.763 0 0 0-2.682.28A4.648 4.648 0 0 0 7.99 8.218a4.503 4.503 0 0 0-.779 2.527 4.54 4.54 0 0 0 .382 1.767c.245.56.6 1.065 1.044 1.49.445.424.97.759 1.547.984a4.813 4.813 0 0 0 1.814.329Zm0-8.309a3.894 3.894 0 0 1 1.492.256 3.83 3.83 0 0 1 1.274.803c.366.349.656.766.855 1.226a3.672 3.672 0 0 1 0 2.908c-.199.46-.49.877-.855 1.226a3.83 3.83 0 0 1-1.274.803 3.896 3.896 0 0 1-1.493.256 3.896 3.896 0 0 1-1.493-.256 3.83 3.83 0 0 1-1.273-.803 3.738 3.738 0 0 1-.855-1.226 3.672 3.672 0 0 1 0-2.908c.198-.46.49-.877.855-1.226a3.83 3.83 0 0 1 1.273-.803A3.894 3.894 0 0 1 12 7.006Zm9.565-1.666a.422.422 0 0 0 .312-.116.404.404 0 0 0 .123-.303V2.42a.398.398 0 0 0-.123-.303.417.417 0 0 0-.312-.115H2.435a.469.469 0 0 0-.298.129.449.449 0 0 0-.137.29v2.505a.448.448 0 0 0 .137.289c.08.077.186.123.298.13h1.318v10.81h-1.27a.433.433 0 0 0-.303.122.414.414 0 0 0 0 .592c.08.078.189.122.302.122h9.091v1.727a1.7 1.7 0 0 0-1.02.667 1.634 1.634 0 0 0 .29 2.22 1.72 1.72 0 0 0 1.158.395 1.743 1.743 0 0 0 1.236-.474 1.673 1.673 0 0 0 .518-1.196c0-.378-.13-.744-.372-1.038a1.697 1.697 0 0 0-.956-.58V16.99h9.142a.432.432 0 0 0 .302-.123.414.414 0 0 0 0-.592.432.432 0 0 0-.302-.122h-1.272V5.34h1.268Zm-8.688 14.985a.8.8 0 0 1-.25.607.836.836 0 0 1-.627.23.872.872 0 0 1-.643-.222.837.837 0 0 1-.272-.613.821.821 0 0 1 .272-.612.86.86 0 0 1 .643-.223.85.85 0 0 1 .625.23.815.815 0 0 1 .252.603ZM2.87 2.835h18.26v1.67H2.87v-1.67ZM19.424 16.15h-14.8V5.34h14.8v10.81Zm-8.703-4.588V8.675a.445.445 0 0 1 .137-.285.463.463 0 0 1 .295-.127.418.418 0 0 1 .309.113.4.4 0 0 1 .123.3v2.474h2.592c.111 0 .218.043.297.12a.408.408 0 0 1 0 .584.425.425 0 0 1-.297.12h-3.023a.464.464 0 0 1-.297-.126.444.444 0 0 1-.137-.286h.001Z" clip-rule="evenodd"/>
</svg>
