<svg xmlns="http://www.w3.org/2000/svg" width="24" height="24" fill="none" viewBox="0 0 24 24">
  <path fill="#000" fill-rule="evenodd" d="M21.566 5.35a.465.465 0 0 0 .297-.129.452.452 0 0 0 .137-.29v-2.51a.452.452 0 0 0-.137-.29.465.465 0 0 0-.297-.13H2.436a.42.42 0 0 0-.312.115A.406.406 0 0 0 2 2.42v2.511a.4.4 0 0 0 .124.304.414.414 0 0 0 .311.116H3.75v10.834H2.435a.436.436 0 0 0-.302.123.418.418 0 0 0 .302.716h9.119v1.733a1.664 1.664 0 0 0-.92.578 1.617 1.617 0 0 0-.225 1.656 1.681 1.681 0 0 0 1.593 1.008c.413.014.817-.123 1.133-.385a1.62 1.62 0 0 0 .303-2.18 1.67 1.67 0 0 0-.987-.67v-1.74h9.022a.434.434 0 0 0 .302-.123.418.418 0 0 0 .092-.457.417.417 0 0 0-.23-.227.436.436 0 0 0-.164-.032h-1.22V5.35h1.313Zm-8.7 14.994a.895.895 0 0 1-.274.572.924.924 0 0 1-.589.253.87.87 0 0 1-.602-.24.842.842 0 0 1-.261-.585.795.795 0 0 1 .248-.598.822.822 0 0 1 .615-.227c.225 0 .44.086.602.24a.842.842 0 0 1 .26.585ZM2.872 2.838h18.261v1.674H2.873V2.838Zm16.513 13.345H4.621V5.35h14.764v10.832Zm-7.398-.84h1.733a.464.464 0 0 0 .296-.127.45.45 0 0 0 .138-.287v-3.31a.45.45 0 0 0-.138-.287.463.463 0 0 0-.296-.127h-1.733a.416.416 0 0 0-.309.113.402.402 0 0 0-.124.301v3.31a.397.397 0 0 0 .121.303.412.412 0 0 0 .31.116l.002-.005Zm.434-3.31h.867v2.482h-.867v-2.482Zm3.065 3.31h1.734a.465.465 0 0 0 .296-.128.45.45 0 0 0 .137-.288V7.44a.45.45 0 0 0-.137-.287.464.464 0 0 0-.296-.128h-1.733a.417.417 0 0 0-.31.114.405.405 0 0 0-.124.301v7.491a.4.4 0 0 0 .123.3.412.412 0 0 0 .307.117l.003-.005Zm.433-7.49h.867v6.66h-.867v-6.66ZM5.691 8.943a1.86 1.86 0 0 1 .445-1.193 1.921 1.921 0 0 1 1.115-.643v-.512a.394.394 0 0 1 .121-.299.408.408 0 0 1 .306-.114c.11.006.214.051.292.127a.444.444 0 0 1 .134.286v.524c.416.1.786.332 1.051.662.266.33.412.737.415 1.158a.428.428 0 0 1-.128.305.443.443 0 0 1-.621 0 .428.428 0 0 1-.129-.305 1.016 1.016 0 0 0-.287-.723 1.051 1.051 0 0 0-.719-.318h-.024a1.042 1.042 0 0 0-.768.274 1.009 1.009 0 0 0-.322.737.995.995 0 0 0 .327.735 1.03 1.03 0 0 0 .769.27c.493 0 .967.188 1.322.525.354.337.562.796.58 1.28-.002.414-.15.815-.416 1.134-.267.32-.638.54-1.05.622v.61a.447.447 0 0 1-.133.289.461.461 0 0 1-.294.13.415.415 0 0 1-.307-.117.402.402 0 0 1-.12-.302v-.59a1.842 1.842 0 0 1-1.111-.601 1.786 1.786 0 0 1-.449-1.167c.01-.11.06-.213.14-.29a.468.468 0 0 1 .467-.102.415.415 0 0 1 .24.227.402.402 0 0 1 .031.165c.015.271.138.526.343.708.205.182.476.278.752.265h.019a1.004 1.004 0 0 0 .71-.283.97.97 0 0 0 .292-.697.958.958 0 0 0-.304-.693.992.992 0 0 0-.715-.271A1.941 1.941 0 0 1 6.3 10.25a1.877 1.877 0 0 1-.611-1.303l.003-.004Z" clip-rule="evenodd"/>
</svg>
