<svg xmlns="http://www.w3.org/2000/svg" width="24" height="24" fill="none" viewBox="0 0 24 24">
  <path fill="#000" fill-rule="evenodd" d="M21.566 5.326a.48.48 0 0 0 .299-.13A.437.437 0 0 0 22 4.91V2.416a.436.436 0 0 0-.135-.286.479.479 0 0 0-.3-.13H2.444a.437.437 0 0 0-.313.117.397.397 0 0 0-.122.299V4.91a.382.382 0 0 0 .122.299.42.42 0 0 0 .313.117h1.283v10.819H2.443a.454.454 0 0 0-.313.123.413.413 0 0 0-.13.3c0 .111.047.219.13.298.083.08.196.124.313.124h9.142v1.735a1.747 1.747 0 0 0-1.014.67 1.603 1.603 0 0 0 .278 2.185c.318.27.728.419 1.153.42a1.79 1.79 0 0 0 1.157-.415 1.6 1.6 0 0 0 .28-2.187 1.742 1.742 0 0 0-1.02-.667v-1.744h9.095c.117 0 .23-.044.313-.123a.413.413 0 0 0 .13-.299.413.413 0 0 0-.13-.299.454.454 0 0 0-.313-.124h-1.236V5.326h1.288Zm-8.69 15.01a.826.826 0 0 1-.26.584.895.895 0 0 1-1.23.004.813.813 0 0 1-.254-.588c0-.22.091-.432.255-.588a.895.895 0 0 1 1.229.003.826.826 0 0 1 .26.583v.002Zm-8.278-4.191V5.357H19.41v10.785l-14.812.002ZM2.878 2.833H21.13v1.663H2.878V2.833ZM9.4 7.013a4.032 4.032 0 0 0-1.934.489.06.06 0 0 0-.011 0c-.007.004-.011.01-.018.014a3.84 3.84 0 0 0-1.444 1.365 3.608 3.608 0 0 0-.533 1.87 3.606 3.606 0 0 0 .52 1.874 3.83 3.83 0 0 0 1.433 1.374c.596.33 1.274.505 1.963.506a4.073 4.073 0 0 0 1.965-.499 3.837 3.837 0 0 0 1.438-1.37 3.603 3.603 0 0 0 .527-1.872v-.006a3.677 3.677 0 0 0-1.147-2.637A4.045 4.045 0 0 0 9.4 7.01v.002Zm3.004 3.336H9.622l-1.35-2.3a3.177 3.177 0 0 1 2.652.192c.398.222.739.526.995.892.256.365.422.78.485 1.216Zm-6.039.41a2.802 2.802 0 0 1 .304-1.283c.203-.4.499-.751.865-1.025.213.37.627 1.098 1.441 2.522.003.007.011.008.015.015.046.264.166.943.479 2.683l-.066.003a3.15 3.15 0 0 1-1.171-.217 3.03 3.03 0 0 1-.992-.633 2.872 2.872 0 0 1-.657-.95 2.76 2.76 0 0 1-.22-1.118l.002.004Zm3.912 2.789-.37-2.367h2.496a2.876 2.876 0 0 1-.707 1.473 3.096 3.096 0 0 1-1.42.89v.004Zm4.799-6.114a.439.439 0 0 1 .133-.289.48.48 0 0 1 .3-.133h2.523a.45.45 0 0 1 .313.124.411.411 0 0 1 0 .598.454.454 0 0 1-.313.123h-2.523a.48.48 0 0 1-.302-.135.439.439 0 0 1-.133-.29l.002.002Zm3.39 1.638a.439.439 0 0 1-.134.289.481.481 0 0 1-.3.133h-2.523a.454.454 0 0 1-.314-.123.413.413 0 0 1-.13-.3c0-.111.047-.219.13-.298a.454.454 0 0 1 .314-.124h2.523a.48.48 0 0 1 .298.134.44.44 0 0 1 .134.287l.001.002Zm0 1.686a.44.44 0 0 1-.134.289.48.48 0 0 1-.3.134h-2.523a.454.454 0 0 1-.314-.124.412.412 0 0 1-.13-.299c0-.112.047-.22.13-.299a.454.454 0 0 1 .314-.124h2.523a.48.48 0 0 1 .298.134.44.44 0 0 1 .134.287l.001.002Z" clip-rule="evenodd"/>
</svg>
