<svg xmlns="http://www.w3.org/2000/svg" width="24" height="24" fill="none" viewBox="0 0 24 24">
  <path fill="#000" fill-rule="evenodd" d="M21.56 5.324a.477.477 0 0 0 .299-.13.439.439 0 0 0 .136-.286V2.415a.438.438 0 0 0-.136-.286A.477.477 0 0 0 21.56 2H2.44a.476.476 0 0 0-.298.13.438.438 0 0 0-.136.285v2.493a.44.44 0 0 0 .136.286c.08.076.186.122.299.13h1.323v10.813H2.441a.45.45 0 0 0-.312.124.414.414 0 0 0-.129.299c0 .112.046.219.13.298a.45.45 0 0 0 .31.124h9.144v1.742a1.738 1.738 0 0 0-1.013.67 1.609 1.609 0 0 0 .277 2.188c.318.27.727.418 1.151.418.424 0 .833-.149 1.15-.418a1.609 1.609 0 0 0 .278-2.188 1.739 1.739 0 0 0-1.013-.67v-1.742h9.145c.117 0 .23-.045.312-.124A.413.413 0 0 0 22 16.56a.414.414 0 0 0-.13-.298.452.452 0 0 0-.311-.124h-1.323V5.324h1.324Zm-8.692 15.003a.828.828 0 0 1-.258.583.888.888 0 0 1-1.223.004.813.813 0 0 1-.254-.587c0-.22.09-.432.254-.588a.888.888 0 0 1 1.222.003.828.828 0 0 1 .259.583v.002Zm-8.236-4.19V5.357H19.37v10.779l-14.737.001ZM2.876 2.832h18.25v1.662H2.874V2.832ZM12 8.742a1.777 1.777 0 0 0-.667.121 1.72 1.72 0 0 0-.565.36c-.162.154-.29.339-.376.542-.086.203-.129.42-.125.639 0 .44.182.863.508 1.175.325.311.766.487 1.226.487.46 0 .902-.176 1.227-.487a1.63 1.63 0 0 0 .508-1.175c.004-.22-.04-.437-.125-.64a1.635 1.635 0 0 0-.375-.544 1.72 1.72 0 0 0-.567-.36A1.78 1.78 0 0 0 12 8.74v.002Zm0 2.493a.897.897 0 0 1-.61-.247.824.824 0 0 1-.257-.584.796.796 0 0 1 .244-.597.867.867 0 0 1 .623-.233c.23.002.449.09.61.246a.824.824 0 0 1 .258.584.878.878 0 0 1-.272.57.952.952 0 0 1-.596.258v.003Zm4.06-.071-.65-.346a.843.843 0 0 0 .072-.414.983.983 0 0 0-.072-.483l.65-.346a.513.513 0 0 0 .144-.552l-.867-1.45a1.004 1.004 0 0 0-.288-.207.68.68 0 0 0-.362.069l-.506.345a4.83 4.83 0 0 0-.795-.483v-.622a.381.381 0 0 0-.122-.298.417.417 0 0 0-.311-.116h-1.735a.397.397 0 0 0-.325.103.364.364 0 0 0-.109.311v.622a2.52 2.52 0 0 0-.867.483l-.65-.345a.398.398 0 0 0-.323-.059.377.377 0 0 0-.256.197l-.867 1.45a.4.4 0 0 0-.072.276.94.94 0 0 0 .217.276l.578.346v.897l-.578.346a.385.385 0 0 0-.206.244.357.357 0 0 0 .061.308l.868 1.45c.023.05.058.095.102.13a.384.384 0 0 0 .321.077.385.385 0 0 0 .154-.069l.651-.345c.252.215.547.38.867.483v.69a.382.382 0 0 0 .122.299.417.417 0 0 0 .312.116h1.735a.475.475 0 0 0 .298-.13.437.437 0 0 0 .135-.285v-.69c.28-.136.547-.298.795-.483l.579.345a.45.45 0 0 0 .289.07 1.03 1.03 0 0 0 .288-.208l.867-1.45a.415.415 0 0 0 .038-.304.431.431 0 0 0-.182-.252v.004Zm-1.518-1.381c0 .207.073.414.073.62 0 .14-.073.346-.073.554a.294.294 0 0 0 .01.254.312.312 0 0 0 .207.16l.433.276-.36.76-.507-.277a.363.363 0 0 0-.268-.067.366.366 0 0 0-.238.136 2.876 2.876 0 0 1-1.012.553.394.394 0 0 0-.225.155.366.366 0 0 0-.063.26v.551h-.867v-.552a.427.427 0 0 0-.107-.267.461.461 0 0 0-.255-.147 5.26 5.26 0 0 1-1.084-.553.333.333 0 0 0-.236-.145.352.352 0 0 0-.27.076l-.506.276-.434-.76.506-.276a.498.498 0 0 0 .163-.18.474.474 0 0 0 .055-.233 1.639 1.639 0 0 1-.073-.553 1.81 1.81 0 0 1 .073-.621.475.475 0 0 0-.055-.233.5.5 0 0 0-.163-.182l-.506-.276.434-.76.506.277a.453.453 0 0 0 .578-.069 3.432 3.432 0 0 1 1.012-.553.46.46 0 0 0 .255-.147.427.427 0 0 0 .107-.267V7.09h.867v.483c-.012.09.01.183.063.259a.394.394 0 0 0 .225.155c.36.143.7.329 1.012.553a.354.354 0 0 0 .238.136.375.375 0 0 0 .268-.067l.434-.276.433.759-.433.276a.326.326 0 0 0-.205.16.3.3 0 0 0-.012.252v.003Z" clip-rule="evenodd"/>
</svg>
