<svg xmlns="http://www.w3.org/2000/svg" width="24" height="24" fill="none" viewBox="0 0 24 24">
  <path fill="#000" fill-rule="evenodd" d="M21.581 2H2.416a.438.438 0 0 0-.285.13.457.457 0 0 0-.131.289v13.315c.008.11.054.213.131.29a.438.438 0 0 0 .286.129h8.192l-5.173 5.132a.316.316 0 0 0-.157.276.324.324 0 0 0 .157.277.334.334 0 0 0 .278.155.326.326 0 0 0 .28-.155l5.187-5.082v4.825c0 .111.043.218.12.296a.405.405 0 0 0 .58 0 .423.423 0 0 0 .12-.296v-4.78l5.142 5.037a.53.53 0 0 0 .279.138.36.36 0 0 0 .278-.138.316.316 0 0 0 .158-.277.324.324 0 0 0-.158-.276l-5.172-5.132h9.056a.438.438 0 0 0 .285-.13.457.457 0 0 0 .131-.289V2.416a.457.457 0 0 0-.133-.288.44.44 0 0 0-.286-.128Zm-.416.833V5.34H2.834V2.833h18.33Zm-9.563 12.486c-.004 0-.008-.004-.011-.004-.004 0-.008.003-.012.004H2.834V6.176h18.331v9.143h-9.563Z" clip-rule="evenodd"/>
</svg>
