<svg xmlns="http://www.w3.org/2000/svg" width="24" height="24" fill="none" viewBox="0 0 24 24">
  <path fill="#000" d="M21.558 5.332a.477.477 0 0 0 .299-.13.439.439 0 0 0 .135-.287V2.416a.438.438 0 0 0-.135-.286.477.477 0 0 0-.299-.13H2.442a.477.477 0 0 0-.299.13.439.439 0 0 0-.135.286v2.5a.44.44 0 0 0 .135.286c.08.076.186.122.299.13h1.33v10.84h-1.33a.452.452 0 0 0-.313.125.415.415 0 0 0-.129.299c0 .112.047.22.13.3a.45.45 0 0 0 .312.123h9.116v1.755a1.71 1.71 0 0 0-.981.673c-.232.33-.33.73-.275 1.126.054.395.256.757.569 1.02.312.262.713.407 1.129.407.416 0 .817-.145 1.13-.407a1.62 1.62 0 0 0 .568-1.02 1.586 1.586 0 0 0-.275-1.126 1.712 1.712 0 0 0-.981-.673v-1.755h9.116c.117 0 .23-.044.313-.124a.414.414 0 0 0 0-.598.453.453 0 0 0-.313-.125H20.23V5.332h1.328Zm-8.701 15.04a.798.798 0 0 1-.15.453.85.85 0 0 1-.388.297.893.893 0 0 1-.93-.185.789.789 0 0 1-.18-.893.828.828 0 0 1 .316-.367.884.884 0 0 1 .474-.138.863.863 0 0 1 .62.236.764.764 0 0 1 .238.596v.001Zm-8.22-4.2V5.365h14.726V16.17l-14.727.001ZM2.875 2.834h18.247V4.5H2.876V2.834Zm12.608 5.852h-5.64V7.439a.438.438 0 0 0-.135-.286.476.476 0 0 0-.298-.13H7.24a.443.443 0 0 0-.307.122.407.407 0 0 0-.128.294c0 .11.046.215.128.293a.443.443 0 0 0 .306.122h1.736v4.57c.008.108.056.21.136.287.08.076.186.122.299.13h6.073a.475.475 0 0 0 .298-.13.439.439 0 0 0 .136-.287V9.1a.438.438 0 0 0-.135-.286.476.476 0 0 0-.299-.13v.003Zm-.433 3.325H9.843V9.513h5.208v2.498Zm-3.933 2.098a.8.8 0 0 1-.158.45.853.853 0 0 1-.39.29.893.893 0 0 1-.493.037.867.867 0 0 1-.432-.23.79.79 0 0 1-.174-.892.83.83 0 0 1 .316-.365.885.885 0 0 1 .473-.137.89.89 0 0 1 .611.252c.161.158.25.371.247.592v.003Zm4.36 0a.822.822 0 0 1-.15.47.876.876 0 0 1-.396.313.92.92 0 0 1-.964-.184.836.836 0 0 1-.241-.434.813.813 0 0 1 .05-.489.855.855 0 0 1 .325-.38.913.913 0 0 1 1.116.104.842.842 0 0 1 .26.597v.003Z"/>
</svg>
