<svg xmlns="http://www.w3.org/2000/svg" width="24" height="24" fill="none" viewBox="0 0 24 24">
  <path fill="#000" fill-rule="evenodd" d="M21.558 5.316a.437.437 0 0 0 .313-.116.397.397 0 0 0 .122-.298V2.414a.382.382 0 0 0-.122-.298.418.418 0 0 0-.313-.116H2.442a.478.478 0 0 0-.299.13.436.436 0 0 0-.135.284v2.488a.437.437 0 0 0 .135.285c.08.076.186.122.299.13h1.28v10.788h-1.28a.453.453 0 0 0-.313.124.412.412 0 0 0-.129.298c0 .111.047.219.13.298a.45.45 0 0 0 .312.123h9.116v1.743a1.765 1.765 0 0 0-1.018.684 1.62 1.62 0 0 0-.29 1.156c.055.406.262.779.585 1.05.322.27.736.419 1.165.419.43 0 .843-.15 1.165-.42a1.621 1.621 0 0 0 .295-2.205 1.765 1.765 0 0 0-1.018-.684v-1.743h9.116c.117 0 .23-.044.313-.123a.411.411 0 0 0 0-.596.454.454 0 0 0-.313-.124H20.28V5.316h1.28Zm-8.674 14.97a.77.77 0 0 1-.251.599.878.878 0 0 1-.633.23.892.892 0 0 1-.615-.243.81.81 0 0 1-.255-.587c0-.22.092-.43.255-.586a.892.892 0 0 1 .615-.243.881.881 0 0 1 .63.23.8.8 0 0 1 .192.274.769.769 0 0 1 .06.324l.002.001Zm-8.288-4.18V5.348h14.815v10.755l-14.815.001ZM2.88 2.83h18.248v1.658H2.88V2.83Zm9.137 3.327a3.304 3.304 0 0 0-2.252.898A3.003 3.003 0 0 0 8.82 9.2c0 1.59 2.541 5.325 2.834 5.742a.542.542 0 0 0 .726 0c.29-.415 2.906-4.15 2.906-5.742a3.02 3.02 0 0 0-.976-2.168 3.324 3.324 0 0 0-2.298-.878l.005.003Zm0 7.744c-.872-1.314-2.325-3.734-2.325-4.703a2.18 2.18 0 0 1 .686-1.56 2.399 2.399 0 0 1 1.639-.652c.622 0 1.22.232 1.667.645.447.412.709.974.73 1.567-.003.967-1.53 3.387-2.402 4.704l.005-.001Zm0-6.158a1.58 1.58 0 0 0-1.08.43 1.435 1.435 0 0 0-.451 1.03c-.007.197.029.392.102.576a1.514 1.514 0 0 0 .83.828 1.662 1.662 0 0 0 1.211.022c.195-.073.373-.182.523-.322.15-.139.27-.306.35-.49a1.434 1.434 0 0 0 0-1.162 1.48 1.48 0 0 0-.35-.49 1.578 1.578 0 0 0-.523-.321 1.635 1.635 0 0 0-.612-.102v.001Zm0 2.155a.732.732 0 0 1-.472-.224.667.667 0 0 1-.135-.71.619.619 0 0 1 .142-.204.657.657 0 0 1 .465-.182.74.74 0 0 1 .494.175.674.674 0 0 1 .235.45.733.733 0 0 1-.23.48.802.802 0 0 1-.504.215h.005Z" clip-rule="evenodd"/>
</svg>
