<svg xmlns="http://www.w3.org/2000/svg" width="24" height="24" fill="none" viewBox="0 0 24 24">
  <path fill="#000" fill-rule="evenodd" d="M21.565 5.35a.421.421 0 0 0 .312-.115A.405.405 0 0 0 22 4.93V2.42a.4.4 0 0 0-.123-.304.417.417 0 0 0-.312-.116H2.435a.467.467 0 0 0-.298.13.45.45 0 0 0-.137.29v2.51a.45.45 0 0 0 .137.29.47.47 0 0 0 .297.13h1.32v10.835H2.481a.436.436 0 0 0-.302.123.42.42 0 0 0-.093.457.419.419 0 0 0 .231.227.438.438 0 0 0 .164.032h9.092v1.73c-.37.086-.7.288-.94.576a1.67 1.67 0 0 0-.388 1.018c.016.445.208.866.536 1.174.328.308.765.48 1.218.476a1.726 1.726 0 0 0 1.232-.462 1.663 1.663 0 0 0 .522-1.188 1.62 1.62 0 0 0-.375-1.03 1.677 1.677 0 0 0-.953-.57v-1.726h9.141a.433.433 0 0 0 .303-.122.416.416 0 0 0 0-.594.433.433 0 0 0-.303-.123h-1.27V5.351h1.268Zm-8.689 14.998a.847.847 0 0 1-.267.587.88.88 0 0 1-.61.238.933.933 0 0 1-.595-.251.9.9 0 0 1-.281-.575.847.847 0 0 1 .267-.587.88.88 0 0 1 .61-.238.843.843 0 0 1 .622.224.812.812 0 0 1 .255.6v.002ZM2.87 2.84h18.26v1.674H2.869V2.84Zm16.554 13.346h-14.8V5.35h14.8v10.835Zm-13.528-.84h12.209c.113 0 .22-.043.3-.121a.412.412 0 0 0 0-.59.429.429 0 0 0-.3-.121h-1.318v-7.91a.396.396 0 0 0-.123-.301.414.414 0 0 0-.311-.115h-1.738a.466.466 0 0 0-.296.128.449.449 0 0 0-.138.288v7.912h-.855v-2.892a.397.397 0 0 0-.268-.39.417.417 0 0 0-.167-.024h-1.737a.464.464 0 0 0-.296.127.45.45 0 0 0-.139.287v2.892h-.9V9.953a.397.397 0 0 0-.124-.3.412.412 0 0 0-.31-.115h-1.74a.465.465 0 0 0-.296.128.45.45 0 0 0-.139.287v4.563h-.88V6.604a.398.398 0 0 0-.125-.302.415.415 0 0 0-.311-.114.467.467 0 0 0-.298.128.451.451 0 0 0-.139.288v8.328a.461.461 0 0 0 .438.417v-.002ZM15.05 7.02h.869v7.495h-.87V7.019Zm-3.46 5.017h.868v2.478h-.869v-2.478Zm-3.51-1.673h.869v4.15H8.08v-4.15Z" clip-rule="evenodd"/>
</svg>
