<svg xmlns="http://www.w3.org/2000/svg" width="24" height="24" fill="none" viewBox="0 0 24 24">
  <path fill="#000" fill-rule="evenodd" d="M21.565 5.35a.468.468 0 0 0 .298-.129.452.452 0 0 0 .137-.29V2.42a.452.452 0 0 0-.137-.29.468.468 0 0 0-.298-.13H2.435a.468.468 0 0 0-.298.13.451.451 0 0 0-.137.29v2.51c.008.11.057.213.137.29.08.077.186.123.298.13h1.318v10.837H2.435a.438.438 0 0 0-.302.123.418.418 0 0 0 0 .593.428.428 0 0 0 .302.123h9.14v1.73c-.368.086-.698.288-.938.576s-.377.646-.389 1.018c.02.444.213.863.54 1.17a1.775 1.775 0 0 0 2.429 0 1.71 1.71 0 0 0 .54-1.17 1.672 1.672 0 0 0-.389-1.018c-.24-.288-.57-.49-.939-.576v-1.73h9.141a.431.431 0 0 0 .303-.124.416.416 0 0 0 0-.593.431.431 0 0 0-.303-.123h-1.32V5.351h1.315Zm-8.689 15a.9.9 0 0 1-.28.574.935.935 0 0 1-.596.252.88.88 0 0 1-.61-.238.847.847 0 0 1-.267-.588.799.799 0 0 1 .255-.601.83.83 0 0 1 .622-.225.88.88 0 0 1 .608.238c.164.153.26.364.268.586v.002ZM2.87 2.84h18.26v1.674H2.87V2.839Zm16.509 13.348H4.622V5.35h14.756v10.837ZM6.36 10.85a.373.373 0 0 1 .143-.346l1.722-1.666a.476.476 0 0 1 .645.07.412.412 0 0 1 0 .554L7.365 10.85l1.505 1.32a.506.506 0 0 1 0 .624c-.144.07-.214.139-.358.139a.552.552 0 0 1-.287-.139l-1.722-1.665a.271.271 0 0 1-.143-.277Zm8.766 1.295 1.436-1.388-1.436-1.387a.415.415 0 0 1 .129-.651.384.384 0 0 1 .445.095l1.793 1.666a.346.346 0 0 1 .144.277.34.34 0 0 1-.144.278L15.7 12.7c-.072.139-.143.139-.287.139a.549.549 0 0 1-.287-.14.415.415 0 0 1 .003-.554h-.003Zm-5.14 1.554a.529.529 0 0 1-.145-.63l3.521-5.092a.46.46 0 0 1 .575-.139.457.457 0 0 1 .207.285.443.443 0 0 1-.063.344L10.56 13.56a.401.401 0 0 1-.36.21c-.069-.001-.14-.07-.212-.07h-.002Z" clip-rule="evenodd"/>
</svg>
