<svg xmlns="http://www.w3.org/2000/svg" width="24" height="24" fill="none" viewBox="0 0 24 24">
  <path fill="#000" d="M21.559 5.324a.478.478 0 0 0 .299-.13.438.438 0 0 0 .136-.286V2.415a.439.439 0 0 0-.137-.286A.476.476 0 0 0 21.56 2H2.44a.476.476 0 0 0-.299.13.438.438 0 0 0-.136.285v2.493a.44.44 0 0 0 .136.286c.08.076.186.122.299.13h1.323v10.813H2.44a.45.45 0 0 0-.312.124.413.413 0 0 0-.129.299c0 .112.046.219.13.298a.45.45 0 0 0 .31.124h9.144v1.742a1.738 1.738 0 0 0-1.012.67 1.609 1.609 0 0 0 .278 2.188c.317.27.726.418 1.15.418a1.78 1.78 0 0 0 1.15-.418 1.608 1.608 0 0 0 .277-2.188c-.24-.334-.6-.572-1.012-.67v-1.742h9.144c.117 0 .23-.045.312-.124a.414.414 0 0 0 .13-.298.413.413 0 0 0-.13-.298.452.452 0 0 0-.311-.124h-1.323V5.324h1.323Zm-8.692 15.003c0 .22-.091.431-.254.587a.888.888 0 0 1-.613.244.888.888 0 0 1-.614-.244.814.814 0 0 1-.254-.587c0-.22.091-.432.254-.588a.888.888 0 0 1 .614-.243c.23 0 .45.087.613.243a.814.814 0 0 1 .254.588Zm-8.235-4.19V5.357H19.37v10.779l-14.737.001ZM2.876 2.832h18.248v1.662H2.876V2.832Zm15.212 8.342h-1.323V8.263a.438.438 0 0 0-.136-.284.474.474 0 0 0-.297-.128h-2.157V6.583a.44.44 0 0 0-.136-.285.478.478 0 0 0-.298-.13h-3.48a.477.477 0 0 0-.3.13.44.44 0 0 0-.135.285v1.268H7.67a.474.474 0 0 0-.298.128.437.437 0 0 0-.136.284v2.911H5.913a.477.477 0 0 0-.298.13.44.44 0 0 0-.136.286v2.493a.44.44 0 0 0 .136.285c.08.077.186.123.298.13h2.602a.477.477 0 0 0 .298-.13.44.44 0 0 0 .136-.285V11.59a.439.439 0 0 0-.136-.286.476.476 0 0 0-.298-.13h-.409v-2.5h1.723v.4a.44.44 0 0 0 .136.285c.08.077.186.123.299.13h1.322v1.685h-.884a.477.477 0 0 0-.299.13.439.439 0 0 0-.135.286v2.493c.007.108.055.21.135.285.08.077.186.123.299.13h2.602a.477.477 0 0 0 .298-.13.44.44 0 0 0 .136-.285V11.59a.44.44 0 0 0-.136-.286.477.477 0 0 0-.298-.13h-.886V9.49h1.323a.477.477 0 0 0 .299-.13.44.44 0 0 0 .136-.285v-.4h1.722v2.5h-.41a.478.478 0 0 0-.297.13.44.44 0 0 0-.136.286v2.493a.44.44 0 0 0 .136.285.47.47 0 0 0 .298.13h2.602a.477.477 0 0 0 .298-.13.44.44 0 0 0 .136-.285V11.59a.439.439 0 0 0-.136-.287.477.477 0 0 0-.299-.13l-.002.001ZM8.076 13.667H6.342v-1.662h1.734v1.662Zm4.79 0H11.13v-1.662h1.735v1.662Zm-2.173-5.009v-.356a.354.354 0 0 0 .01-.04.32.32 0 0 0-.01-.039V6.996h2.613v1.226a.285.285 0 0 0-.01.04.293.293 0 0 0 .01.041v.355h-2.613Zm6.961 5.01H15.92v-1.663h1.734v1.662Z"/>
</svg>
