<svg xmlns="http://www.w3.org/2000/svg" width="24" height="24" fill="none" viewBox="0 0 24 24">
  <path fill="#000" fill-rule="evenodd" d="M21.076 11.189h-7.609a.447.447 0 0 0-.423.411v2.047h-.452a.452.452 0 0 0-.426.419v2.504a.455.455 0 0 0 .426.419h.452v1.67h-.452a.451.451 0 0 0-.426.418v2.504a.454.454 0 0 0 .426.419h7.651a.452.452 0 0 0 .425-.419v-2.087h.41a.45.45 0 0 0 .422-.418V16.57a.454.454 0 0 0-.423-.418h-.409v-1.67h.41a.446.446 0 0 0 .422-.412V11.6a.45.45 0 0 0-.424-.412Zm-.423 2.47h-.36a.418.418 0 0 0-.053-.012h-.452v-1.635h.864v1.646Zm-.412 3.327h.412v1.67h-.864v-1.67h.452Zm-2.116 2.505v1.669h-3.42v-1.67h3.42Zm.834-.837h-3.373v-1.67h3.373v1.67Zm-4.252-2.505v-1.67h3.42v1.67h-3.42Zm.88-2.504V12.01h3.372v1.637l-3.373-.002ZM13.89 12.01h.817v1.637h-.817V12.01Zm-.873 2.47h.86v1.67h-.86v-1.67Zm.873 2.504h.817v1.67h-.817v-1.67Zm-.873 2.505h.86v1.669h-.86v-1.67Zm6.802 1.669h-.86v-1.67h.86v1.67Zm0-5.009h-.86v-1.67h.86v1.67Zm-8.912 2.505h-.452v-2.087a.453.453 0 0 0-.423-.419h-7.61a.45.45 0 0 0-.422.419v2.504a.454.454 0 0 0 .423.419h.409v2.087a.455.455 0 0 0 .425.418h7.651a.451.451 0 0 0 .426-.418v-2.505a.455.455 0 0 0-.426-.417v-.001Zm-6.366 0v-1.67h3.372v1.67H4.541Zm4.25.837v1.669h-3.42v-1.67h3.42Zm.817-.837h-.816v-1.67h.816v1.67Zm-6.763-1.67h.864v1.67h-.864v-1.67Zm.833 2.505h.863v1.669h-.86l-.003-1.67Zm6.803 1.669h-.86v-1.67h.86v1.67ZM21.496 2.42v5.335a.426.426 0 0 1-.423.425.422.422 0 0 1-.423-.425V3.452l-5.664 5.904a.435.435 0 0 1-.566 0l-3.96-3.043-7.36 7.192a.543.543 0 0 1-.283.139.37.37 0 0 1-.283-.139.382.382 0 0 1 0-.622l7.642-7.469a.435.435 0 0 1 .566 0l3.892 3.112 5.444-5.692H15.22a.417.417 0 0 1-.325-.728.416.416 0 0 1 .325-.103h5.852a.45.45 0 0 1 .425.418l-.002-.001Z" clip-rule="evenodd"/>
</svg>
