<svg xmlns="http://www.w3.org/2000/svg" width="24" height="24" fill="none" viewBox="0 0 24 24">
  <path fill="#000" fill-rule="evenodd" d="M22 15.452a4.925 4.925 0 0 1-5 4.89H7a4.925 4.925 0 0 1-5-4.89c0-2.649 1.735-4.686 4.167-4.89V9.34a.416.416 0 1 1 .832 0v1.63a.396.396 0 0 1-.416.407c-2.153 0-3.75 1.698-3.75 4.075a4.134 4.134 0 0 0 4.166 4.075h10a4.134 4.134 0 0 0 4.168-4.075c0-2.377-1.597-4.075-3.75-4.075A.397.397 0 0 1 17 10.97V9.34a.417.417 0 0 1 .833 0v1.222c2.431.204 4.167 2.241 4.167 4.89ZM4.499 8.523v-.409a1.676 1.676 0 0 1 1.665-1.637h2.711a1.561 1.561 0 0 1-.242-.818 1.683 1.683 0 0 1 3.364 0c-.003.29-.086.573-.241.818h.48a1.576 1.576 0 0 1-.24-.818 1.66 1.66 0 1 1 3.32 0c-.004.29-.087.573-.24.818h2.754a1.675 1.675 0 0 1 1.665 1.637v.41a.417.417 0 0 1-.833 0v-.41a.837.837 0 0 0-.833-.818H6.169a.837.837 0 0 0-.835.818v.41a.417.417 0 0 1-.832 0h-.003Zm9.16-2.046a.793.793 0 0 0 .829-.818.83.83 0 1 0-1.603.32.794.794 0 0 0 .774.498Zm-3.342 0a.799.799 0 0 0 .841-.818.84.84 0 1 0-1.623.322.8.8 0 0 0 .783.496h-.001Z" clip-rule="evenodd"/>
</svg>
