<svg xmlns="http://www.w3.org/2000/svg" width="24" height="24" fill="none" viewBox="0 0 24 24">
  <path fill="#000" fill-rule="evenodd" d="M12 9.114a9.912 9.912 0 0 0-10 9.818.396.396 0 0 0 .416.41h19.167a.396.396 0 0 0 .417-.41 9.957 9.957 0 0 0-10-9.818Zm-9.167 9.409a9.185 9.185 0 0 1 18.333 0H2.833Zm1.25-6.704a10.605 10.605 0 0 1 7.916-3.528 10.46 10.46 0 0 1 7.85 3.528c.069.136.208.136.347.136a.378.378 0 0 0 .277-.679 11.253 11.253 0 0 0-5.676-3.443 1.622 1.622 0 0 0 .521-1.174 1.66 1.66 0 1 0-3.319 0c.003.292.087.578.242.825-.08 0-.16-.007-.242-.007-.08 0-.16.005-.241.007A1.58 1.58 0 0 0 12 6.659a1.66 1.66 0 0 0-3.319 0 1.622 1.622 0 0 0 .52 1.173 11.644 11.644 0 0 0-5.744 3.444.422.422 0 0 0 .069.61.372.372 0 0 0 .556-.067Zm9.576-5.978a.886.886 0 0 1 .83.818.835.835 0 0 1-.83.818.794.794 0 0 1-.83-.818.834.834 0 0 1 .83-.818Zm-3.318 0a.886.886 0 0 1 .83.818.835.835 0 0 1-.83.818.792.792 0 0 1-.83-.818.834.834 0 0 1 .83-.818Z" clip-rule="evenodd"/>
</svg>
