<svg xmlns="http://www.w3.org/2000/svg" width="24" height="24" fill="none" viewBox="0 0 24 24">
  <path fill="#000" fill-rule="evenodd" d="M4.03 2.837h8.094a1.325 1.325 0 0 1 1.214 1.249v1.25H2.815v-1.25a1.326 1.326 0 0 1 1.214-1.25ZM8.075 17.83H2.814V6.17h10.523v5.415a.405.405 0 1 0 .81 0V4.086a1.94 1.94 0 0 0-2.023-2.084H4.029a1.941 1.941 0 0 0-2.024 2.084v15.828a1.941 1.941 0 0 0 2.024 2.084h4.047a.416.416 0 1 0 0-.834H4.03a1.327 1.327 0 0 1-1.215-1.249v-1.25h5.262a.417.417 0 0 0 0-.833ZM6.457 4.491h3.239a.414.414 0 0 0 0-.83H6.457a.414.414 0 0 0 0 .83Zm2.034 14.994a.438.438 0 0 0-.407-.414.83.83 0 1 0 0 1.658.416.416 0 0 0 0-.83.439.439 0 0 0 .405-.414h.002Zm6.08-2.463h-3.238a.414.414 0 0 0 0 .83h3.239a.414.414 0 0 0 0-.83Zm4.835 0h-1.593a.415.415 0 0 0 0 .83h1.593a.415.415 0 0 0 0-.83Zm-6.486 1.659h-1.59a.414.414 0 0 0 0 .829h1.59a.415.415 0 0 0 0-.83Zm6.51 2.482h-8.127a1.328 1.328 0 0 1-1.219-1.25v-3.75h10.565v3.75a1.329 1.329 0 0 1-1.219 1.25Zm-8.127-7.5h8.127a1.327 1.327 0 0 1 1.22 1.25v.416H10.083v-.416a1.328 1.328 0 0 1 1.219-1.25Zm8.127-.834h-8.127a1.943 1.943 0 0 0-2.032 2.084v5a1.945 1.945 0 0 0 2.032 2.084h8.127a1.944 1.944 0 0 0 2.032-2.084v-5a1.945 1.945 0 0 0-2.032-2.084Zm-9.72-.399a1.59 1.59 0 0 0-1.634-1.455.888.888 0 0 1-.817-.832c0-.416.409-.624.817-.624s.816.208.816.624c0 .208 0 .416.409.416a.444.444 0 0 0 .408-.416 1.775 1.775 0 0 0-1.225-1.456V8.27a.409.409 0 1 0-.816 0v.416a1.58 1.58 0 0 0 .408 3.12c.408 0 .816.207.816.623a.816.816 0 1 1-1.633 0c0-.208 0-.415-.409-.415a.444.444 0 0 0-.408.415 1.81 1.81 0 0 0 1.226 1.664v.416a.409.409 0 1 0 .816 0v-.416A1.809 1.809 0 0 0 9.71 12.43Z" clip-rule="evenodd"/>
</svg>
