<svg xmlns="http://www.w3.org/2000/svg" width="24" height="24" fill="none" viewBox="0 0 24 24">
  <path fill="#000" fill-rule="evenodd" d="M19.916 2H4.083A2.11 2.11 0 0 0 2 4.03v14.622a2.046 2.046 0 0 0 1.633 1.979v.46a.405.405 0 0 0 .43.409c.287 0 .43-.136.43-.41v-.408h15.012v.409a.393.393 0 0 0 .409.409.36.36 0 0 0 .41-.41v-.443A2 2 0 0 0 22 18.652V4.031A2.062 2.062 0 0 0 19.916 2Zm1.249 16.653a1.227 1.227 0 0 1-1.239 1.217c-.005 0-.009-.003-.013-.003-.005 0-.011.004-.016.004H4.084c-.008 0-.012-.004-.02-.004h-.006a1.274 1.274 0 0 1-1.226-1.215V4.031a1.276 1.276 0 0 1 1.25-1.219h15.832a1.225 1.225 0 0 1 1.25 1.219v14.622ZM17.42 4.449H6.577a2.11 2.11 0 0 0-2.085 2.027v.376h-.438a.447.447 0 0 0-.423.41V9.71a.4.4 0 0 0 .423.41h.438v2.446h-.438a.446.446 0 0 0-.423.409v2.449a.4.4 0 0 0 .423.409h.438v.376a2.063 2.063 0 0 0 2.085 2.027H17.42a2.017 2.017 0 0 0 2.084-2.027V6.476a2.062 2.062 0 0 0-2.083-2.027ZM4.48 7.67h.288a.475.475 0 0 0 .144.023.605.605 0 0 0 .173-.023h.242v1.632H4.48V7.67Zm0 5.713h.846v1.633h-.29a.426.426 0 0 0-.124-.024.35.35 0 0 0-.105.024h-.328v-1.633Zm14.19 2.827a1.227 1.227 0 0 1-1.25 1.217H6.578a1.274 1.274 0 0 1-1.25-1.217v-.376h.42a.368.368 0 0 0 .423-.409v-2.45a.399.399 0 0 0-.423-.408H5.31v-2.45h.44a.366.366 0 0 0 .422-.409V7.26a.399.399 0 0 0-.423-.41h-.42v-.376a1.275 1.275 0 0 1 1.25-1.216H17.42a1.226 1.226 0 0 1 1.25 1.216v9.736Zm-6.254-8.945h-.032a4.083 4.083 0 1 0 0 8.163h.036a4.194 4.194 0 0 0 2.831-1.102.247.247 0 0 0 .123-.052.682.682 0 0 0 .069-.135 4.033 4.033 0 0 0 1.114-2.79 4.091 4.091 0 0 0-4.141-4.086v.002Zm2.635 6.065-.606-.6c.2-.293.335-.627.392-.977h.858a3.204 3.204 0 0 1-.643 1.575l-.001.002Zm-5.976-1.577h.859c.066.368.217.716.442 1.015l-.607.601a3.187 3.187 0 0 1-.693-1.62v.004Zm.701-2.413.598.584a2.398 2.398 0 0 0-.44 1.013h-.857a3.23 3.23 0 0 1 .7-1.6v.003Zm3.79 3.14a.373.373 0 0 0-.02.04 1.67 1.67 0 0 1-2.284.01c-.014-.016-.022-.033-.038-.05a.28.28 0 0 0-.04-.024 1.62 1.62 0 0 1-.45-.993.56.56 0 0 0 .018-.119.462.462 0 0 0-.019-.107c.027-.362.176-.705.423-.972.023-.018.047-.035.068-.055a.345.345 0 0 0 .088-.093 1.66 1.66 0 0 1 2.22.04c.01.018.022.035.035.05l.043.024a1.63 1.63 0 0 1-.007 2.228c-.01.008-.024.011-.036.02v.001Zm.297-3.103a2.488 2.488 0 0 0-1.023-.436v-.828a3.332 3.332 0 0 1 1.623.679l-.6.585Zm-1.887-.44a2.521 2.521 0 0 0-1.045.444l-.599-.586a3.367 3.367 0 0 1 1.644-.687v.83Zm-1 4.408c.3.207.64.346 1 .409v.83a3.378 3.378 0 0 1-1.606-.639l.605-.6Zm1.862.404c.352-.062.686-.198.98-.4l.606.598a3.357 3.357 0 0 1-1.586.631v-.829Zm1.999-2.813a2.396 2.396 0 0 0-.39-.972c.124-.123.314-.307.596-.584.351.452.576.99.65 1.558l-.856-.002Z" clip-rule="evenodd"/>
</svg>
