<svg xmlns="http://www.w3.org/2000/svg" width="24" height="24" fill="none" viewBox="0 0 24 24">
  <path fill="#000" fill-rule="evenodd" d="M20.752 3H3.25a1.221 1.221 0 0 0-1.152.751A1.25 1.25 0 0 0 2 4.226v14.72a1.243 1.243 0 0 0 .775 1.139c.151.06.313.09.475.087h.836v.412a.37.37 0 0 0 .25.398.362.362 0 0 0 .167.014h1.252a.395.395 0 0 0 .417-.412v-.412h11.657v.412a.371.371 0 0 0 .249.398.36.36 0 0 0 .167.014h1.252a.394.394 0 0 0 .389-.25.4.4 0 0 0 .028-.162v-.412h.837a1.22 1.22 0 0 0 .878-.35 1.24 1.24 0 0 0 .371-.877V4.226a1.243 1.243 0 0 0-.37-.875 1.227 1.227 0 0 0-.878-.35Zm.416 15.943a.402.402 0 0 1-.256.384.394.394 0 0 1-.16.025h-1.235c-.006 0-.013-.005-.019-.005s-.014.004-.023.005h-1.21c-.006 0-.012-.005-.02-.005-.006 0-.013.004-.022.005H5.774c-.006 0-.012-.005-.019-.005-.006 0-.014.004-.023.005h-1.21c-.006 0-.012-.005-.019-.005-.006 0-.014.004-.023.005H3.25a.363.363 0 0 1-.4-.242.37.37 0 0 1-.017-.167V4.226a.4.4 0 0 1 .257-.384.395.395 0 0 1 .16-.024h17.502a.44.44 0 0 1 .416.408v14.717ZM15.754 7.064a2.233 2.233 0 0 0-1.256.364 2.275 2.275 0 0 0-.378 3.482 2.241 2.241 0 0 0 2.45.506 2.266 2.266 0 0 0 1.395-2.092 2.252 2.252 0 0 0-.639-1.592 2.224 2.224 0 0 0-1.572-.668Zm0 3.699a1.423 1.423 0 0 1-1.355-.854 1.449 1.449 0 0 1 .278-1.585 1.427 1.427 0 0 1 1.564-.334 1.438 1.438 0 0 1 .894 1.335 1.408 1.408 0 0 1-.843 1.325c-.17.073-.353.112-.538.113Zm.623-1.438A.643.643 0 0 1 16 9.93a.631.631 0 0 1-.7-.125.641.641 0 0 1 .682-1.056.624.624 0 0 1 .395.575Zm-2.72 2.67h.86v.824h-.86v-.824Zm1.677 0h.819v.824h-.819v-.824Zm1.678 0h.819v.824h-.82v-.824Zm-3.356 1.644h.861v.824h-.861v-.824Zm1.678 0h.818v.824h-.818v-.824Zm1.677 0h.82v.824h-.82v-.824Zm-3.356 1.644h.862v.824h-.862v-.824Zm1.678 0h.819v.824h-.819v-.824Zm1.678 0h.819v.824h-.82v-.824Zm2.061-9.817H5.742a1.222 1.222 0 0 0-1.15.75c-.064.15-.098.31-.1.474v1.196h-.4a.393.393 0 0 0-.387.25.4.4 0 0 0-.028.162v.824a.369.369 0 0 0 .248.399.362.362 0 0 0 .168.013h.4v4.11h-.4a.394.394 0 0 0-.415.412v.824a.369.369 0 0 0 .248.398.35.35 0 0 0 .167.014h.4v1.196a1.243 1.243 0 0 0 .372.874 1.227 1.227 0 0 0 .879.35h13.33a1.219 1.219 0 0 0 .877-.35 1.236 1.236 0 0 0 .372-.874v-9.8a1.245 1.245 0 0 0-.372-.873 1.225 1.225 0 0 0-.877-.35h-.002Zm.416 11.014a.399.399 0 0 1-.256.383.393.393 0 0 1-.16.024H5.742a.364.364 0 0 1-.416-.407v-1.197h.43a.393.393 0 0 0 .387-.25.401.401 0 0 0 .028-.162v-.824a.447.447 0 0 0-.415-.412h-.43v-4.11h.43a.393.393 0 0 0 .388-.25.4.4 0 0 0 .028-.162V8.29a.447.447 0 0 0-.416-.412h-.43v-1.19a.4.4 0 0 1 .257-.383.393.393 0 0 1 .16-.025h13.33a.44.44 0 0 1 .417.408l-.002 9.792Z" clip-rule="evenodd"/>
</svg>
