<svg xmlns="http://www.w3.org/2000/svg" width="24" height="24" fill="none" viewBox="0 0 24 24">
  <path fill="#000" fill-rule="evenodd" d="M21.86 16.996c-.974-.95-1.81-1.222-2.923-.95l-3.05 1.009a1.296 1.296 0 0 0-1.372-1.01h-2.369a5.894 5.894 0 0 0-3.902-1.636H6.136v-.407a.441.441 0 0 0-.413-.408h-3.31a.44.44 0 0 0-.413.408v6.594a.441.441 0 0 0 .413.407h3.31a.44.44 0 0 0 .413-.407v-.716c.714.217 1.32.434 1.875.65 2.227.748 3.41 1.156 4.524 1.156 1.392 0 2.574-.612 5.15-1.968a103.36 103.36 0 0 1 4.107-2.038c.07-.068.208-.201.208-.34 0-.138-.003-.276-.14-.344Zm-19.033 3.19v-5.78h2.482v4.743c-.003.007-.011.012-.013.02a.397.397 0 0 0 .013.252v.766l-2.482-.002Zm14.44-1.22c-4.384 2.31-4.384 2.31-8.978.747a35.017 35.017 0 0 1-2.154-.712v-3.773h2.109c1.302.069 2.537.6 3.482 1.5.07.137.139.137.279.137h2.509c.418 0 .555.202.555.409 0 .206-.14.409-.555.409h-4.6a.412.412 0 0 0-.39.249.41.41 0 0 0 .39.569h4.6a1.414 1.414 0 0 0 1.085-.443l3.615-1.198a1.63 1.63 0 0 1 1.6.34c-1.392.68-2.575 1.29-3.549 1.766h.002ZM16.59 8.683a2.84 2.84 0 1 0-2.91-2.841 2.892 2.892 0 0 0 2.908 2.84h.002Zm0-4.87a2.059 2.059 0 0 1 2.078 2.029 2.078 2.078 0 0 1-4.155 0 2.06 2.06 0 0 1 2.075-2.03h.002ZM12.41 14.41a2.864 2.864 0 1 0-2.91-2.864 2.904 2.904 0 0 0 2.908 2.864h.002Zm0-4.909a2.07 2.07 0 0 1 2.077 2.045 2.077 2.077 0 0 1-4.155 0 2.069 2.069 0 0 1 2.076-2.045h.002ZM12 12.364v-1.636a.41.41 0 1 1 .818 0v1.636a.41.41 0 1 1-.818 0Zm4.182-5.681V5.046a.41.41 0 1 1 .818 0v1.639a.41.41 0 1 1-.818 0v-.002Z" clip-rule="evenodd"/>
</svg>
