<svg xmlns="http://www.w3.org/2000/svg" width="24" height="24" fill="none" viewBox="0 0 24 24">
  <path fill="#000" fill-rule="evenodd" d="M10.542 10.277a1.677 1.677 0 0 1-1.247 1.582v.482a.41.41 0 0 1-.438.415c-.292 0-.438-.138-.438-.415v-.475a1.629 1.629 0 0 1-1.246-1.588.4.4 0 0 1 .421-.41.447.447 0 0 1 .42.41.8.8 0 0 0 .82.82c.01 0 .015-.005.024-.005.01 0 .013.004.02.005a.842.842 0 0 0 .82-.82.896.896 0 0 0-.842-.824 1.643 1.643 0 0 1-.438-3.238V5.73a.405.405 0 0 1 .438-.404.455.455 0 0 1 .438.404v.493a1.678 1.678 0 0 1 1.247 1.582.399.399 0 0 1-.421.41.369.369 0 0 1-.422-.41.896.896 0 0 0-.842-.824.845.845 0 0 0-.785 1.148.802.802 0 0 0 .785.5 1.69 1.69 0 0 1 1.686 1.648Zm11.35 11.434a.286.286 0 0 1-.283.138.397.397 0 0 1-.354-.138l-7.63-7.41a7.287 7.287 0 0 1-4.768 1.779 7.04 7.04 0 1 1 7.225-7.04 6.896 6.896 0 0 1-1.851 4.676l7.663 7.444a.41.41 0 0 1-.001.551Zm-13.035-6.46a6.446 6.446 0 0 0 4.43-1.76.353.353 0 0 1 .029-.043c.012-.008.027-.011.04-.018a6.098 6.098 0 0 0 1.875-4.39 6.375 6.375 0 0 0-12.747 0 6.268 6.268 0 0 0 6.373 6.212Z" clip-rule="evenodd"/>
</svg>
