<svg xmlns="http://www.w3.org/2000/svg" width="24" height="24" fill="none" viewBox="0 0 24 24">
  <path fill="#000" fill-rule="evenodd" d="M6.459 13.59a.51.51 0 0 0-.484-.466 1.163 1.163 0 0 1-1.242-1.13 1.148 1.148 0 0 1 .897-1.131v-.267a.345.345 0 0 1 .69 0v.267a1.163 1.163 0 0 1 .829 1.13.346.346 0 0 1-.69 0 .484.484 0 1 0-.484.466 1.142 1.142 0 0 1 1.174 1.13 1.164 1.164 0 0 1-.829 1.131v.266a.346.346 0 0 1-.69 0v-.266a1.148 1.148 0 0 1-.897-1.13.382.382 0 0 1 .416-.333.363.363 0 0 1 .345.333.483.483 0 0 0 .967 0h-.002Zm6.772-1.054-1.57-1.534a.598.598 0 0 0-.478 0c-.068.066-.068.133-.068.266a.24.24 0 0 0 .068.2l1.092 1.002H9.136l1.024-1.001c.067-.067.136-.134.136-.2a.347.347 0 0 0-.136-.267.44.44 0 0 0-.411 0l-1.57 1.534a.345.345 0 0 0-.136.267c0 .067 0 .2.069.2l1.637 1.601c.138.134.341.134.41 0 .068-.067.137-.133.137-.2a.345.345 0 0 0-.137-.267l-1.023-1h3.138l-1.091 1c-.069.067-.069.133-.069.267a.242.242 0 0 0 .069.2c.067.067.136.067.273.067a.257.257 0 0 0 .205-.067l1.57-1.6c.067 0 .136-.134.136-.201a.346.346 0 0 0-.136-.267Zm4.764.104a4.538 4.538 0 0 0-3.904-2.063.34.34 0 0 0-.412.333.34.34 0 0 0 .412.333 3.874 3.874 0 0 1 3.288 1.796.54.54 0 0 0 .342.133.257.257 0 0 0 .206-.067c.068 0 .139-.133.139-.2a.39.39 0 0 0-.07-.265ZM6.394 8.8h2.4v-.534a.52.52 0 0 0-.48-.533h-1.37a.532.532 0 0 0-.55.533V8.8Zm3.84 7.665c0 .2-.14.332-.413.332H3.715A1.675 1.675 0 0 1 2 15.133v-4.668A1.675 1.675 0 0 1 3.715 8.8h1.92v-.533A1.284 1.284 0 0 1 6.94 7h1.375a1.33 1.33 0 0 1 1.303 1.266V8.8h.205a.359.359 0 0 1 .413.4c0 .2-.14.333-.413.333H3.716a.894.894 0 0 0-.686.266.842.842 0 0 0-.274.667v4.665a.938.938 0 0 0 .588.874.892.892 0 0 0 .372.06h6.106a.36.36 0 0 1 .414.397l-.002.003Zm4.433-8.132a.606.606 0 0 0-.616-.601.607.607 0 0 0-.632.85.604.604 0 0 0 .632.35.605.605 0 0 0 .618-.601l-.002.002Zm6.92 7.198h-.479l-1.166 1.2c-.068.066-.138.066-.273.066h-8.017c-.274 0-.411-.133-.411-.332a.357.357 0 0 1 .41-.4h7.88l.617-.534h-5.755c-.275 0-.48-.133-.48-.4a.453.453 0 0 1 .48-.4h5.274a5.555 5.555 0 0 0-5.619-5.064 5.247 5.247 0 0 0-1.782.266l-.41.2h-.07a.376.376 0 0 1-.548-.133.363.363 0 0 1 .206-.467l.068-.066c.187-.056.37-.123.549-.2l.821-.2a1.316 1.316 0 0 1-.205-.734 1.356 1.356 0 0 1 1.37-1.332 1.296 1.296 0 0 1 1.302 1.332c.005.26-.066.515-.205.734a6.874 6.874 0 0 1 3.632 1.932 6.09 6.09 0 0 1 1.576 3.733h1.233c.068 0 .139.066.205.066h.069a.5.5 0 0 1 .138.334.359.359 0 0 1-.407.397l-.002.002Z" clip-rule="evenodd"/>
</svg>
