<svg xmlns="http://www.w3.org/2000/svg" width="24" height="24" fill="none" viewBox="0 0 24 24">
  <path fill="#000" fill-rule="evenodd" d="M3.34 10.409h6.655V3.827H3.34v6.582Zm7.08.761H2.916a.37.37 0 0 1-.425-.415V3.417a.404.404 0 0 1 .425-.415h7.506a.401.401 0 0 1 .423.415v7.338a.37.37 0 0 1-.423.413v.002Zm3.084-.761h7.306l-3.618-6.232-3.688 6.232Zm8.086.761h-8.795a.55.55 0 0 1-.354-.138.426.426 0 0 1 0-.415l4.398-7.41a.406.406 0 0 1 .71 0l4.397 7.41a.426.426 0 0 1 0 .415.548.548 0 0 1-.356.136v.002Zm-4.398 3.368a3.283 3.283 0 0 0-3.132 4.56 3.281 3.281 0 0 0 3.132 1.999 3.28 3.28 0 1 0 0-6.56Zm0 7.388a4.11 4.11 0 1 1 4.178-4.074 4.134 4.134 0 0 1-4.178 4.071v.003Zm-12.384-.898H8.48l1.907-3.176-1.907-3.176H4.808L2.9 17.852l1.908 3.176Zm3.956.759h-4.24a.388.388 0 0 1-.351-.207l-2.12-3.521a.432.432 0 0 1 0-.414l2.12-3.59a.389.389 0 0 1 .352-.207h4.239a.391.391 0 0 1 .353.207l2.12 3.59a.433.433 0 0 1 0 .414l-2.12 3.521a.392.392 0 0 1-.353.205v.002Z" clip-rule="evenodd"/>
</svg>
