<svg xmlns="http://www.w3.org/2000/svg" width="24" height="24" fill="none" viewBox="0 0 24 24">
  <path fill="#000" fill-rule="evenodd" d="M17.839 20.986v-2.57h3.333v2.57h-3.333Zm-4.168-2.57h3.334v2.57H13.67v-2.57ZM2.837 9.847h1.667v4.712a.417.417 0 1 0 .834 0V9.85h5v4.711a.417.417 0 1 0 .833 0V9.848h1.667v11.138h-10L2.836 9.847Zm2.5-3.427a2.5 2.5 0 1 1 5 0v2.57h-5V6.42Zm9.584 8.569h2.086v2.57h-3.334v-2.57h1.248Zm.416-5.998h.834v1.286a.419.419 0 0 0 .417.432.417.417 0 0 0 .416-.432V8.99h1.667v1.286a.417.417 0 1 0 .834 0V8.99h.833v5.141h-5l-.001-5.14Zm1.667-2.142a.835.835 0 1 1 1.666 0v1.285h-1.666V6.85Zm3.75 8.14h.417v2.57h-3.334v-2.57h2.917Zm.834-.858h-.416V8.563a.455.455 0 0 0-.417-.429h-1.25V6.85a1.667 1.667 0 1 0-3.334 0v1.285h-1.25a.456.456 0 0 0-.416.429v5.568h-.834V9.42a.454.454 0 0 0-.416-.429h-2.086v-2.57a3.334 3.334 0 1 0-6.667 0v2.57H2.416A.454.454 0 0 0 2 9.42v11.994a.454.454 0 0 0 .416.429h19.167a.455.455 0 0 0 .417-.429V14.56a.455.455 0 0 0-.411-.428h-.001Z" clip-rule="evenodd"/>
</svg>
