<svg xmlns="http://www.w3.org/2000/svg" width="24" height="24" fill="none" viewBox="0 0 24 24">
  <path fill="#000" fill-rule="evenodd" d="M21.923 13.596v-.008l-4.166-7.305a.383.383 0 0 0-.347-.201H7.82V3.217a.444.444 0 0 1 .418-.406c.402.032.788.172 1.117.406l.255.281a1.247 1.247 0 1 0 .576-.559l-.273-.263A2.478 2.478 0 0 0 8.24 2a1.23 1.23 0 0 0-1.256 1.217v2.865H6.58a.383.383 0 0 0-.347.201l-4.165 7.305v.008a.364.364 0 0 0-.068.193v1.633a.396.396 0 0 0 .417.408h9.559v4.851H10.76a.445.445 0 0 0-.418.409.398.398 0 0 0 .418.408h3.338a.397.397 0 0 0 .416-.408.444.444 0 0 0-.416-.409H12.84V15.83h8.743a.395.395 0 0 0 .417-.41v-1.63a.363.363 0 0 0-.077-.193ZM11.136 4.039a.415.415 0 0 1-.558.42.416.416 0 0 1-.156-.681c.015-.009.032-.013.047-.023.016-.01.013-.023.022-.034a.396.396 0 0 1 .231-.09.442.442 0 0 1 .415.408ZM6.853 6.892h.127v1.186a.42.42 0 0 0 .837 0V6.892H17.2l3.675 6.49H3.103l3.75-6.49Zm14.304 8.121H2.825v-.816h18.332v.816ZM9.074 12.565h9.186a.54.54 0 0 0 .349-.136.847.847 0 0 0 .07-.409l-1.67-4.08a.573.573 0 0 0-.418-.273H9.91a.44.44 0 0 0-.418.34l-.835 4.082a.499.499 0 0 0 .07.34c.14.067.21.136.349.136h-.002Zm1.184-4.081h6.054l1.322 3.264H9.563l.696-3.264Z" clip-rule="evenodd"/>
</svg>
