<svg xmlns="http://www.w3.org/2000/svg" width="24" height="24" fill="none" viewBox="0 0 24 24">
  <path fill="#000" fill-rule="evenodd" d="M20.913 19.527a2.497 2.497 0 0 1-2.535 2.472 2.685 2.685 0 0 1-2.121-1.136.436.436 0 0 1 .137-.468h.205c.137 0 .206.067.206.134a1.958 1.958 0 0 0 1.576.868 1.935 1.935 0 0 0 1.918-1.87 1.893 1.893 0 0 0-1.918-1.872c-.822 0-1.507 1.003-2.192 2.005-.685 1.136-1.507 2.338-2.671 2.338a2.507 2.507 0 1 1 0-5.01 2.032 2.032 0 0 1 1.575.801l.069.067.136-.601c0-.067.07-.134.137-.2.07 0 .137-.067.205 0 .137 0 .207.066.207.133a.24.24 0 0 1 .068.2l-.274 1.403v.067l-.068.067-.069.067h-.069l-.068.067h-.07l-1.437-.268c-.07-.066-.137-.066-.206-.133a.395.395 0 0 1-.069-.267.462.462 0 0 1 .41-.268l.687.134-.137-.134a1.34 1.34 0 0 0-1.027-.468 1.89 1.89 0 0 0-1.92 1.871 1.936 1.936 0 0 0 1.92 1.871c.821 0 1.506-1.069 2.12-2.073.754-1.136 1.577-2.338 2.741-2.338a2.509 2.509 0 0 1 2.534 2.541ZM5.71 11.765c.057 1.034.194 2.063.412 3.076h8.349c-.616-2.207-3.08-5.884-3.217-6.086a.32.32 0 0 1 .069-.468.423.423 0 0 1 .548.067c.342.268 2.532.803 4.448 1.206h.07l.615-1.405-1.506-.936c-.068-.067-.136-.134-.136-.2l-.753-1.472-2.874-1.003a.365.365 0 0 1-.206-.334V3.073h-.069c-.89.602-3.832 2.474-4.38 3.544l-.205.401c-.615 1.267-1.368 2.605-1.163 4.745l-.002.002Zm4.655 5.283a.32.32 0 0 1-.342.335H4.822a1.906 1.906 0 0 0-.137.601v2.073h4.791a.321.321 0 0 1 .343.334.378.378 0 0 1-.343.402H4.343a.377.377 0 0 1-.342-.402v-2.407c0-1.337.958-2.474 1.369-2.875h.07a18.313 18.313 0 0 1-.48-3.279c-.206-2.34.615-3.811 1.301-5.149l.206-.401c.754-1.471 4.86-3.945 5.27-4.213a.348.348 0 0 1 .411 0 .367.367 0 0 1 .206.334l-.07 1.539 2.74.935c.068.067.205.134.205.201l.752 1.538 1.643 1.07a.348.348 0 0 1 .137.468l-.82 1.94c-.069.133-.274.267-.411.2-1.711-.334-3.011-.602-3.902-.867l-.068-.067v.133c.89 1.338 2.395 3.946 2.738 5.55.069.134.274.268.41.469.07.067.137.133.069.268 0 .066 0 .2-.068.2a.523.523 0 0 1-.274.134.356.356 0 0 1-.273-.134c-.137-.134-.206-.268-.343-.401H5.99l-.343.334c0 .067 0 .067-.068.067l-.411.602-.068.067h4.927a.377.377 0 0 1 .34.399l-.002.002Z" clip-rule="evenodd"/>
</svg>
