<svg xmlns="http://www.w3.org/2000/svg" width="24" height="24" fill="none" viewBox="0 0 24 24">
  <path fill="#000" fill-rule="evenodd" d="M21.56 11.324h-2.045a7.42 7.42 0 0 0-2.238-4.764 7.403 7.403 0 0 0-4.831-2.076V2.425a.419.419 0 0 0-.448-.424.473.473 0 0 0-.45.424v2.06a7.335 7.335 0 0 0-4.788 2.09 7.351 7.351 0 0 0-2.187 4.749H2.435A.462.462 0 0 0 2 11.75a.415.415 0 0 0 .435.426h2.14a7.416 7.416 0 0 0 2.187 4.763 7.4 7.4 0 0 0 4.787 2.124v2.012a.421.421 0 0 0 .449.424c.299 0 .448-.141.448-.424v-2.011a7.468 7.468 0 0 0 4.83-2.11 7.485 7.485 0 0 0 2.238-4.778h2.047a.378.378 0 0 0 .418-.252.382.382 0 0 0 .018-.174.416.416 0 0 0-.438-.426Zm-9.114 6.892V17.05a.419.419 0 0 0-.448-.424.472.472 0 0 0-.449.424v1.166a6.53 6.53 0 0 1-4.182-1.875 6.546 6.546 0 0 1-1.924-4.164h1.13a.413.413 0 0 0 .436-.426.465.465 0 0 0-.435-.426H5.443A6.537 6.537 0 0 1 7.38 7.189a6.522 6.522 0 0 1 4.169-1.855v1.12a.473.473 0 0 0 .619.4.419.419 0 0 0 .278-.4v-1.12a6.536 6.536 0 0 1 4.226 1.828 6.549 6.549 0 0 1 1.974 4.164H17.42a.464.464 0 0 0-.436.426.415.415 0 0 0 .436.426h1.226a6.558 6.558 0 0 1-1.962 4.19 6.544 6.544 0 0 1-4.238 1.848Zm.503-7.797a.382.382 0 0 0 .26.41.378.378 0 0 0 .174.014.412.412 0 0 0 .434-.424 1.726 1.726 0 0 0-1.37-1.642v-.434a.419.419 0 0 0-.449-.426.472.472 0 0 0-.449.426v.449a1.726 1.726 0 0 0-1.276 1.629 1.76 1.76 0 0 0 1.276 1.696v1.649a.815.815 0 0 1-.407-.73.435.435 0 1 0-.869 0 1.67 1.67 0 0 0 1.277 1.63v.49a.473.473 0 0 0 .62.403.42.42 0 0 0 .277-.402v-.477a1.667 1.667 0 0 0 1.37-1.646 1.726 1.726 0 0 0-1.37-1.641V9.668a.826.826 0 0 1 .5.75h.002Zm-1.808 0a.816.816 0 0 1 .408-.73v1.51a.925.925 0 0 1-.408-.78Zm1.808 2.616a.825.825 0 0 1-.503.749v-1.499a.824.824 0 0 1 .501.75h.002Z" clip-rule="evenodd"/>
</svg>
