<svg xmlns="http://www.w3.org/2000/svg" width="24" height="24" fill="none" viewBox="0 0 24 24">
  <path fill="#000" fill-rule="evenodd" d="M13.55 4.372c.14.144.14.432 0 .576l-1.74 2.226c-.07.072-.21.144-.279.144-.139 0-.209 0-.278-.072-.209-.144-.209-.431-.07-.647l1.188-1.502h-2.51c-.209 0-.418-.226-.418-.447 0-.22.209-.446.418-.446h2.492a830.946 830.946 0 0 0-1.17-1.478c-.139-.216-.139-.504.07-.648.14-.143.418-.072.557.072l1.74 2.227v-.005Zm-.367 14.51h-2.422c.223-.282.585-.748 1.188-1.516.14-.216.07-.508-.07-.652-.208-.144-.487-.072-.626.072l-1.638 2.197a.436.436 0 0 0-.176.327c0 .11.055.216.134.297v.005l1.67 2.246c.14.072.21.144.349.144.07 0 .208 0 .278-.072.14-.144.209-.437.07-.653l-1.211-1.54h2.44c.279 0 .418-.211.418-.427s-.14-.427-.418-.427h.014Zm-1.192-4.966c-.344 0-.622-.355-.622-.715 0-.216-.209-.427-.413-.427s-.413.216-.413.427c0 .7.464 1.3 1.049 1.497v.533c0 .22.139.437.413.437.204 0 .413-.221.413-.437v-.533a1.575 1.575 0 0 0 1.095-1.502c0-.858-.692-1.501-1.518-1.501-.343 0-.621-.356-.621-.715 0-.36.273-.643.621-.643.413 0 .692.287.692.643 0 .215.209.427.413.427s.413-.216.413-.427a1.48 1.48 0 0 0-1.095-1.435v-.58c0-.217-.204-.433-.413-.433-.274 0-.413.216-.413.432v.58a1.49 1.49 0 0 0-1.05 1.436c0 .858.692 1.573 1.449 1.573.413 0 .691.288.691.643 0 .356-.274.716-.691.716v.004ZM7.026 8.542c0 1.444-1.188 2.596-2.51 2.596-1.398 0-2.511-1.156-2.511-2.596 0-1.44 1.118-2.596 2.51-2.596 1.392 0 2.51 1.156 2.51 2.596Zm-.836 0c0-.936-.765-1.732-1.675-1.732-.974 0-1.675.792-1.675 1.732s.696 1.732 1.675 1.732c.905 0 1.675-.791 1.675-1.732Zm.836 6.037v5.614c0 .216-.21.431-.418.431h-4.19c-.279 0-.418-.215-.418-.431v-5.615c0-1.44 1.118-2.59 2.51-2.59 1.393 0 2.51 1.15 2.51 2.59h.006Zm-.836 0c0-.936-.765-1.728-1.675-1.728-.974 0-1.675.792-1.675 1.727v5.183h3.35v-5.182Zm10.79-6.037c0-1.444 1.117-2.596 2.51-2.596 1.392 0 2.51 1.156 2.51 2.596 0 1.44-1.188 2.596-2.51 2.596-1.397 0-2.51-1.156-2.51-2.596Zm.834 0c0 .936.696 1.732 1.676 1.732.904 0 1.675-.791 1.675-1.732 0-.94-.766-1.732-1.675-1.732-.975 0-1.676.792-1.676 1.732ZM22 14.579v5.614c0 .216-.209.431-.418.431h-4.185c-.279 0-.418-.215-.418-.431v-5.615c0-1.44 1.118-2.59 2.51-2.59 1.393 0 2.511 1.15 2.511 2.59Zm-.835 0c0-.936-.766-1.728-1.675-1.728-.975 0-1.676.792-1.676 1.727v5.183h3.35v-5.182Z" clip-rule="evenodd"/>
</svg>
