<svg xmlns="http://www.w3.org/2000/svg" width="24" height="24" fill="none" viewBox="0 0 24 24">
  <path fill="#000" fill-rule="evenodd" d="M19.167 19.53a.456.456 0 0 1-.483.405H2.48a.455.455 0 0 1-.48-.404V6.725a.524.524 0 0 1 .48-.537c.206 0 .413.268.413.537v12.334h15.792a.465.465 0 0 1 .482.472Zm2.83-11.986a3.51 3.51 0 0 1-3.576 3.492 3.797 3.797 0 0 1-1.718-.403l-1.65 2.217c.257.3.403.679.413 1.074a1.792 1.792 0 0 1-3.577 0 1.32 1.32 0 0 1 .137-.605l-1.239-.94c-.32.29-.735.458-1.168.47a1.6 1.6 0 0 1-.757-.202l-1.513 1.545a1.788 1.788 0 1 1-1.445-.739c.26-.027.522.02.757.135l1.513-1.545a1.516 1.516 0 0 1-.275-.94 1.754 1.754 0 0 1 3.507 0 .98.98 0 0 1-.137.604l1.238.873a1.763 1.763 0 0 1 1.17-.403c.234.018.465.064.688.135l1.65-2.217a3.402 3.402 0 0 1-1.1-2.552 3.543 3.543 0 0 1 7.085 0h-.002Zm-15.27 7.59a.326.326 0 0 0-.068-.202c0-.336-.275-.537-.619-.604h-.138a.843.843 0 0 0-.894.805.859.859 0 0 0 .894.873.805.805 0 0 0 .826-.873Zm3.784-4.03a.9.9 0 0 0-.894-.874.833.833 0 0 0-.757.873v.202c0 .336.344.536.62.605h.137a.527.527 0 0 0 .344-.068.71.71 0 0 0 .55-.671v-.068Zm3.99 2.485a1.02 1.02 0 0 0-.757-.537h-.068a.526.526 0 0 0-.345.067.813.813 0 0 0-.55.739v.067a.892.892 0 0 0 .895.805.876.876 0 0 0 .825-.805v-.336Zm6.602-6.045a2.647 2.647 0 0 0-5.24-.586 2.648 2.648 0 0 0 .7 2.4c.195.218.428.4.688.536.362.184.764.276 1.17.268a2.612 2.612 0 0 0 2.683-2.618Zm-2.97 2.011h.764v-.718h-.764v.718ZM19.5 5.868a1.288 1.288 0 0 0-1.02-.402 1.393 1.393 0 0 0-1.02.402.948.948 0 0 0-.408.805l.68.067c.068-.2.135-.401.271-.468a.74.74 0 0 1 .476-.201c.17-.02.341.029.476.134a.574.574 0 0 1 .204.401.367.367 0 0 1-.136.335c0 .066-.136.2-.34.334a1.69 1.69 0 0 0-.476.537.852.852 0 0 0-.136.537c.005.051.03.099.068.133h.68c0-.133 0-.334.068-.401 0-.067.068-.2.271-.334.238-.164.445-.367.612-.603a.755.755 0 0 0 .204-.536 1.008 1.008 0 0 0-.474-.74Z" clip-rule="evenodd"/>
</svg>
