<svg xmlns="http://www.w3.org/2000/svg" width="24" height="24" fill="none" viewBox="0 0 24 24">
  <path fill="#000" d="M6.949 8.8c0 1.232.656 2.306 1.656 2.908-2.033.732-3.489 2.649-3.489 4.866 0 .278.21.417.419.417h9.688c.21 0 .419-.14.419-.417a4.92 4.92 0 0 0-.158-1.227h4.088c.21 0 .419-.139.419-.416 0-1.537-.94-2.848-2.233-3.436a2.491 2.491 0 0 0 .995-1.976c0-1.394-1.19-2.505-2.516-2.505a2.5 2.5 0 0 0-2.432 1.88c0-.033.004-.06.004-.093 0-1.945-1.525-3.472-3.4-3.472A3.477 3.477 0 0 0 6.944 8.8h.005Zm-.996 7.357c.28-2.213 2.163-3.944 4.461-3.944 1.014 0 1.972.361 2.735.963a.536.536 0 0 0 .093.148.377.377 0 0 0 .153.06c.47.43.851.954 1.098 1.547 0 .148.042.25.116.319.098.292.163.593.196.907H5.953Zm13.135-1.648h-3.883a5.25 5.25 0 0 0-1.098-1.592 2.982 2.982 0 0 1 1.963-.912c.056 0 .111.018.172.018.06 0 .12-.005.181-.01 1.372.094 2.465 1.163 2.665 2.496Zm-2.846-6.662c.907 0 1.679.764 1.679 1.672 0 .838-.665 1.55-1.484 1.648-.065 0-.13-.01-.2-.01s-.125.01-.186.014a1.648 1.648 0 0 1-1.488-1.652c0-.903.697-1.672 1.679-1.672Zm-1.54 3.648c-.474.213-.902.51-1.25.88a5.282 5.282 0 0 0-1.27-.671 3.417 3.417 0 0 0 1.544-2.144 2.48 2.48 0 0 0 .976 1.935ZM10.42 6.162c1.386 0 2.567 1.18 2.567 2.639a2.56 2.56 0 0 1-2.567 2.57c-1.456 0-2.638-1.181-2.638-2.57a2.635 2.635 0 0 1 2.638-2.639Zm11.59 5.63c0 .208-.209.416-.418.416-.21 0-.419-.139-.419-.416a9.323 9.323 0 0 0-2.014-5.486c-.14-.209-.14-.417.07-.625.21-.14.418-.07.553.069a10.08 10.08 0 0 1 2.224 6.042h.004ZM11.516 2.417c0-.209.21-.417.419-.417h.07c2.223 0 4.307.694 6.042 2.083.209.14.209.417.07.556-.07.139-.21.208-.28.208-.14 0-.21-.07-.279-.139-1.595-1.18-3.54-1.875-5.553-1.875h-.07c-.21 0-.419-.139-.419-.416Zm10.21 11.805c-.489 2.153-1.665 4.097-3.335 5.486-.07.07-.14.07-.28.07a.53.53 0 0 1-.278-.14.42.42 0 0 1 0-.555c1.595-1.32 2.637-3.125 3.125-5.07 0-.207.28-.346.489-.277.209.07.348.278.279.486ZM4.228 6.375a.366.366 0 0 1-.07-.556c1.386-1.736 3.265-2.986 5.344-3.472.28-.07.489.07.554.278.07.208-.07.417-.349.486-1.874.486-3.68 1.667-4.93 3.195-.07.138-.21.208-.28.208-.139 0-.209-.07-.278-.139h.009Zm-1.46 8.194h-.14c-.14 0-.349-.138-.349-.277C2.07 13.528 2 12.764 2 12c0-1.389.28-2.778.902-4.097.07-.209.35-.347.554-.209.21.07.279.348.21.556A8.73 8.73 0 0 0 2.832 12c0 .694.07 1.389.209 2.083.07.209-.07.417-.28.486h.005Zm5.483 6.25c-.07.14-.279.278-.418.278-.047 0-.093-.023-.14-.07-2.014-.902-3.61-2.5-4.581-4.444-.14-.208-.07-.486.14-.555.208-.14.488-.07.553.139a8.981 8.981 0 0 0 4.237 4.097c.21.139.279.347.21.555Zm8.265-.347c.14.209.07.417-.14.556-1.39.625-2.846.972-4.376.972a9.49 9.49 0 0 1-2.014-.208c-.21 0-.349-.209-.349-.486.07-.209.28-.348.489-.278.623.07 1.25.139 1.874.139 1.39 0 2.707-.278 3.958-.903.21-.07.484 0 .554.208h.004Z"/>
</svg>
