<svg xmlns="http://www.w3.org/2000/svg" width="24" height="24" fill="none" viewBox="0 0 24 24">
  <path fill="#000" fill-rule="evenodd" d="M17.771 5.967a.401.401 0 0 0 0-.541l-2.43-3.158a.423.423 0 0 0-.267-.251.508.508 0 0 0-.333.025h-5.46a.349.349 0 0 0-.27-.025.488.488 0 0 0-.185.118c-.026.014-.047.027-.079.043l-2.5 3.248a.581.581 0 0 0-.021.063.444.444 0 0 0-.048.202.437.437 0 0 0 .187.33l5.29 5.948a.394.394 0 0 0 .328.223h.026a.158.158 0 0 0 .017-.004c.013 0 .024.004.039.004a.425.425 0 0 0 .255-.112.406.406 0 0 0 .036-.024l5.415-6.089Zm-1.12-.697h-2.014l.491-1.904 1.523 1.904Zm-.147.842-3.388 3.766 1.296-3.766h2.092Zm-2.76-.842h-3.49L9.64 2.854h4.728c-.107.42-.297 1.152-.622 2.416Zm-.257.842-1.469 4.417-1.5-4.417h2.969ZM9.374 5.27H7.428l1.464-1.887.48 1.887h.002Zm.225.842 1.324 3.77-3.345-3.77H9.6ZM21.717 7.25a1.41 1.41 0 0 0-1.182.202c-.974.675-1.39 2.296-1.46 4.93l-1.322 1.283.278-1.013a1.38 1.38 0 0 0-.695-1.688 1.238 1.238 0 0 0-1.46.607c-.625.879-1.321 3.174-1.39 3.31v3.391h-.382a.396.396 0 0 0-.416.403v2.421a.439.439 0 0 0 .416.403h4.988a.394.394 0 0 0 .415-.403v-2.42a.358.358 0 0 0-.25-.392.362.362 0 0 0-.166-.012h-.434v-.69l3.2-3.107a.267.267 0 0 0 .14-.27v-6.55a.37.37 0 0 0-.282-.405h.002Zm-3.041 13.443h-4.157v-1.614h4.157v1.614Zm2.484-6.689-3.2 3.107a.506.506 0 0 0-.14.27v.893h-2.503v-3.257a18.725 18.725 0 0 1 1.252-3.038.527.527 0 0 1 .486-.27c.14.067.207.337.14.743l-.556 2.43c-.07.203 0 .338.206.473a.626.626 0 0 0 .487-.068l2.433-2.43a.267.267 0 0 0 .14-.27c0-3.175.695-4.12 1.043-4.458.07 0 .139-.067.206-.067l.006 5.942Zm-11.266 4.27h-.382V14.88a16.978 16.978 0 0 0-1.321-3.309 1.292 1.292 0 0 0-1.53-.607c-.487.202-.834.81-.626 1.688l.206 1.013-1.32-1.283c0-2.634-.488-4.255-1.391-4.93a1.567 1.567 0 0 0-1.252-.202.458.458 0 0 0-.278.405v6.55a.504.504 0 0 0 .14.27c.764.608 2.711 2.566 3.2 3.106v.691h-.435a.394.394 0 0 0-.416.403v2.421a.439.439 0 0 0 .416.403h4.988a.395.395 0 0 0 .412-.403v-2.42a.359.359 0 0 0-.413-.404l.002.003Zm-3.79-1.163c-.139-.067-2.294-2.295-3.267-3.106V8.058c.07 0 .14.068.21.068.416.338 1.042 1.283 1.042 4.457a.506.506 0 0 0 .139.27l2.503 2.43a.583.583 0 0 0 .486.069.605.605 0 0 0 .206-.473l-.625-2.431c-.07-.405.07-.676.206-.743a.604.604 0 0 1 .486.27c.496.97.892 1.989 1.182 3.039v3.256H6.17v-.893a.397.397 0 0 0-.067-.268l.002.002Zm3.374 3.584h-4.16V19.08h4.157l.003 1.616Z" clip-rule="evenodd"/>
</svg>
