<svg xmlns="http://www.w3.org/2000/svg" width="24" height="24" fill="none" viewBox="0 0 24 24">
  <path fill="#000" fill-rule="evenodd" d="M21.895 11.472c-.139-.27-4.43-5.453-9.901-5.472h-.029c-5.417 0-9.722 5.203-9.86 5.473a.321.321 0 0 0 0 .473c.138.203 4.443 5.405 9.86 5.405h.031c5.47-.02 9.76-5.202 9.899-5.404a.32.32 0 0 0 0-.475Zm-4.918.203a4.891 4.891 0 0 1-4.45 4.835c-.184.013-.368.03-.554.03-.052 0-.103-.006-.155-.008-.119-.003-.238-.012-.356-.02a4.943 4.943 0 0 1-4.484-4.837 4.995 4.995 0 0 1 4.491-4.838c.084-.006.168-.01.252-.013.084-.003.166-.013.251-.013.183 0 .364.016.545.029a4.942 4.942 0 0 1 4.46 4.835Zm-14.039 0a19.05 19.05 0 0 1 4.571-3.627 5.53 5.53 0 0 0-.044 7.231 19.078 19.078 0 0 1-4.527-3.604Zm13.589 3.583a5.604 5.604 0 0 0-.038-7.186 19.196 19.196 0 0 1 4.573 3.603 19.24 19.24 0 0 1-4.536 3.583Zm-4.164-7.26v.585a1.815 1.815 0 0 1 1.498 1.723.446.446 0 0 1-.584.384.397.397 0 0 1-.259-.384 1.006 1.006 0 0 0-1.05-.95c-.006 0-.01.003-.014.003h-.006a.95.95 0 0 0-.354 1.835.949.949 0 0 0 .37.064 1.792 1.792 0 0 1 .397 3.555v.535a.363.363 0 0 1-.409.414.398.398 0 0 1-.409-.414V14.8a1.84 1.84 0 0 1-1.407-1.777.445.445 0 0 1 .583-.383.395.395 0 0 1 .26.383 1.05 1.05 0 0 0 .966 1.016h.007c.006 0 .01.002.017.003a.986.986 0 1 0-.007-1.968 1.755 1.755 0 0 1-.419-3.474V8a.44.44 0 0 1 .41-.409.392.392 0 0 1 .41.406Z" clip-rule="evenodd"/>
</svg>
