<svg xmlns="http://www.w3.org/2000/svg" width="24" height="24" fill="none" viewBox="0 0 24 24">
  <path fill="#000" fill-rule="evenodd" d="M19.083 2H4.916a3.03 3.03 0 0 0-2.083.816l-.139.135A3.049 3.049 0 0 0 2 4.854v10.599a3.645 3.645 0 0 0 2.709 3.397l9.305 2.106c.2.078.411.123.625.136a2.659 2.659 0 0 0 1.459-.476A2.506 2.506 0 0 0 17 18.714v-2.039h2.083A2.903 2.903 0 0 0 22 13.822V4.854A2.903 2.903 0 0 0 19.083 2Zm-3.471 17.938a1.696 1.696 0 0 1-1.39.273l-9.305-2.174a2.851 2.851 0 0 1-2.084-2.582V4.856a1.87 1.87 0 0 1 .418-1.222l6.451 1.588a.444.444 0 0 0 .155.038l4.157 1.023a2.918 2.918 0 0 1 2.148 2.593.443.443 0 0 0-.012.066.45.45 0 0 0 .017.098v9.675a1.48 1.48 0 0 1-.556 1.224v-.001Zm5.555-6.115a2.114 2.114 0 0 1-2.084 2.038h-2.082V9.347h1.228a.41.41 0 1 0 0-.82h-1.267a3.837 3.837 0 0 0-2.739-3.064l-.834-.2h4.84a.41.41 0 0 0 0-.82h-8.25L4.011 3.014c.28-.14.59-.21.903-.204H19.08a2.067 2.067 0 0 1 2.084 2.038l.002 8.975Zm-8.328-2.841A2.016 2.016 0 0 0 10.753 13a2.059 2.059 0 0 0 2.086 2.018A2.106 2.106 0 0 0 14.925 13a2.058 2.058 0 0 0-2.086-2.02v.002Zm0 3.23A1.212 1.212 0 1 1 14.091 13a1.226 1.226 0 0 1-1.252 1.209v.002Z" clip-rule="evenodd"/>
</svg>
