<svg xmlns="http://www.w3.org/2000/svg" width="24" height="24" fill="none" viewBox="0 0 24 24">
  <path fill="#000" fill-rule="evenodd" d="M20.326 10.76V9.11a3.282 3.282 0 0 0-2.657-3.19l-.686-2.577c0-.136-.069-.204-.207-.273a.421.421 0 0 0-.277-.068L5.76 5.852H4.082A2.112 2.112 0 0 0 2 7.89v10.589a2.066 2.066 0 0 0 2.082 2.036h12.912a3.255 3.255 0 0 0 3.332-3.258v-1.65A1.908 1.908 0 0 0 22 13.728V12.71a1.928 1.928 0 0 0-1.674-1.948ZM16.29 3.959s0 .006.48 1.894H9.087l7.205-1.894Zm.702 15.74H4.081a1.23 1.23 0 0 1-1.25-1.22V7.887a1.23 1.23 0 0 1 1.25-1.221h1.532c.09.04.192.049.288.022l.084-.022h11.008a2.46 2.46 0 0 1 2.498 2.444v1.628h-2.716a1.922 1.922 0 0 0-1.88 1.969v1.018a1.909 1.909 0 0 0 1.88 1.9h2.716v1.63a2.461 2.461 0 0 1-2.497 2.443Zm4.17-5.972a1.028 1.028 0 0 1-1.045 1.086h-3.343a1.072 1.072 0 0 1-1.045-1.086v-1.018a1.134 1.134 0 0 1 1.045-1.154h3.343a1.088 1.088 0 0 1 1.045 1.154v1.018Zm-2.92-.546a.837.837 0 1 1-.837-.814.825.825 0 0 1 .838.817v-.002ZM5.348 7.887a.365.365 0 0 1-.418.407h-.837a.398.398 0 0 1-.42-.407.445.445 0 0 1 .42-.407h.837a.396.396 0 0 1 .419.41v-.003Zm2.49 0a.365.365 0 0 1-.42.407H6.58a.395.395 0 0 1-.419-.407.444.444 0 0 1 .419-.407h.837a.398.398 0 0 1 .42.41v-.003Zm2.487 0a.365.365 0 0 1-.418.407H9.07a.398.398 0 0 1-.419-.407.444.444 0 0 1 .419-.407h.837a.395.395 0 0 1 .42.41l-.002-.003Zm2.49 0a.36.36 0 0 1-.408.407h-.818a.392.392 0 0 1-.407-.407.436.436 0 0 1 .407-.407h.818a.39.39 0 0 1 .408.41v-.003Zm.859 0a.444.444 0 0 1 .418-.407h.838a.397.397 0 0 1 .418.407.366.366 0 0 1-.418.407h-.838a.398.398 0 0 1-.417-.404l-.001-.003Zm2.488 0a.445.445 0 0 1 .419-.407h.837a.394.394 0 0 1 .419.407.365.365 0 0 1-.419.407h-.837a.399.399 0 0 1-.417-.404l-.002-.003ZM5.346 18.475a.365.365 0 0 1-.418.407H4.09a.398.398 0 0 1-.42-.407.445.445 0 0 1 .42-.408h.837a.397.397 0 0 1 .42.41l-.002-.002Zm2.49 0a.365.365 0 0 1-.42.407h-.837a.395.395 0 0 1-.419-.407.444.444 0 0 1 .419-.408h.837a.394.394 0 0 1 .393.248.41.41 0 0 1 .028.162l-.002-.002Zm2.487 0a.365.365 0 0 1-.418.407h-.837a.398.398 0 0 1-.42-.407.444.444 0 0 1 .42-.408h.837a.394.394 0 0 1 .392.248.41.41 0 0 1 .028.162l-.002-.002Zm2.49 0a.358.358 0 0 1-.244.392.359.359 0 0 1-.164.015h-.818a.39.39 0 0 1-.407-.407.436.436 0 0 1 .407-.408h.818a.389.389 0 0 1 .384.25c.02.051.028.106.025.16l-.002-.002Zm2.532 0a.365.365 0 0 1-.418.407h-.837a.398.398 0 0 1-.419-.407.443.443 0 0 1 .419-.408h.837a.394.394 0 0 1 .42.41l-.002-.002Zm2.49 0a.365.365 0 0 1-.42.407h-.837a.398.398 0 0 1-.419-.407.444.444 0 0 1 .42-.408h.836a.396.396 0 0 1 .422.41l-.003-.002Z" clip-rule="evenodd"/>
</svg>
