<svg xmlns="http://www.w3.org/2000/svg" width="24" height="24" fill="none" viewBox="0 0 24 24">
  <path fill="#000" fill-rule="evenodd" d="M16.967 13.566a.816.816 0 1 1-1.632-.005.816.816 0 0 1 1.632.005ZM6.57 7.897h-.838a.444.444 0 0 0-.42.408.397.397 0 0 0 .42.408h.838a.367.367 0 0 0 .42-.408.398.398 0 0 0-.42-.408Zm2.495 0h-.84a.446.446 0 0 0-.42.408.398.398 0 0 0 .42.408h.84a.366.366 0 0 0 .419-.408.397.397 0 0 0-.417-.408h-.002Zm2.493 0h-.84a.444.444 0 0 0-.419.408.398.398 0 0 0 .42.408h.839a.366.366 0 0 0 .42-.408.398.398 0 0 0-.42-.408Zm1.689.816h.816a.362.362 0 0 0 .408-.408.393.393 0 0 0-.408-.408h-.816a.436.436 0 0 0-.408.408.391.391 0 0 0 .408.407v.001Zm2.494 0h.819a.36.36 0 0 0 .408-.408.393.393 0 0 0-.408-.408h-.82a.437.437 0 0 0-.407.408.393.393 0 0 0 .408.407v.001Zm-9.171 9.75h-.839a.446.446 0 0 0-.42.408.397.397 0 0 0 .42.408h.839a.364.364 0 0 0 .402-.24.366.366 0 0 0 .018-.168.397.397 0 0 0-.42-.408Zm2.494 0h-.84a.445.445 0 0 0-.419.408.397.397 0 0 0 .42.408h.839a.366.366 0 0 0 .42-.408.397.397 0 0 0-.417-.408h-.003Zm2.493 0h-.839a.444.444 0 0 0-.42.408.397.397 0 0 0 .42.408h.84a.366.366 0 0 0 .42-.408.397.397 0 0 0-.42-.408Zm2.505 0h-.816a.436.436 0 0 0-.407.408.393.393 0 0 0 .407.408h.816a.36.36 0 0 0 .409-.408.392.392 0 0 0-.408-.408Zm1.27.408a.392.392 0 0 0 .408.408h.82a.36.36 0 0 0 .407-.408.392.392 0 0 0-.408-.408h-.819a.437.437 0 0 0-.407.409l-.001-.001Zm6.664-5.687v.808a2.02 2.02 0 0 1-2.086 2.021h-.408v2.048a2.854 2.854 0 0 1-2.917 2.85H4.917A2.902 2.902 0 0 1 2 18.06V5.85A2.902 2.902 0 0 1 4.917 3H14.92c1.667 0 2.916.95 2.916 2.035v1.503a2.804 2.804 0 0 1 1.668 2.56v2.064h.408A2.061 2.061 0 0 1 22 13.184h-.003Zm-3.327 2.83h-2.93a2.061 2.061 0 0 1-2.086-2.021v-.809a2.106 2.106 0 0 1 2.085-2.02h2.93V9.1a2.06 2.06 0 0 0-2.085-2.024H4.934c-.017 0-.03.006-.048.006a1.224 1.224 0 1 1 0-2.449h10.028a.397.397 0 0 1 .417.408.364.364 0 0 1-.417.408H4.886a.444.444 0 0 0-.418.408.397.397 0 0 0 .443.41h11.673c.14.003.28.016.419.04V5.034c0-.61-.972-1.22-2.083-1.22H4.917A2.11 2.11 0 0 0 2.834 5.85v12.212a2.066 2.066 0 0 0 2.083 2.035h11.669a2.02 2.02 0 0 0 2.084-2.035v-2.048Zm2.492-2.83a1.229 1.229 0 0 0-1.252-1.213H15.74a1.274 1.274 0 0 0-1.252 1.213v.808a1.274 1.274 0 0 0 1.252 1.213h4.171a1.228 1.228 0 0 0 1.252-1.213v-.808Z" clip-rule="evenodd"/>
</svg>
