<svg xmlns="http://www.w3.org/2000/svg" width="24" height="24" fill="none" viewBox="0 0 24 24">
  <path fill="#000" fill-rule="evenodd" d="M8.762 15.563c-.17-.013-.34.015-.496.08a1.14 1.14 0 0 0-.246.325.978.978 0 0 1-.332.728 3.466 3.466 0 0 1 1.16-3.642.62.62 0 0 0 .166-.647.506.506 0 0 0-.578-.246 7.662 7.662 0 0 0-5.879 7.283 4.455 4.455 0 0 0 4.445 4.37h.026a4.401 4.401 0 0 0 4.47-4.371 4.088 4.088 0 0 0-2.736-3.88Zm-2.82 6.235a2.279 2.279 0 0 1 1.233-2.02c.131.338.296.663.492.969.248.304.417.665.492 1.05a1.098 1.098 0 0 1-1.131 1.05h-.061A1.076 1.076 0 0 1 5.943 21.8l-.001-.002Zm3.164.383c.027-.126.04-.254.04-.383a2.41 2.41 0 0 0-.656-1.537c-.246-.404-.492-.808-.411-1.05a.376.376 0 0 0-.082-.485.893.893 0 0 0-.492-.161 3.402 3.402 0 0 0-2.547 3.232c0 .134.014.268.042.4a3.381 3.381 0 0 1-1.452-2.75 6.491 6.491 0 0 1 3.478-5.665 4.395 4.395 0 0 0 .082 3.966.456.456 0 0 0 .414.242.506.506 0 0 0 .331-.08c.439-.304.783-.725.994-1.215a3.056 3.056 0 0 1 1.654 2.752 3.362 3.362 0 0 1-1.394 2.736v-.002ZM22 8.321a.417.417 0 0 1-.165.324l-9.201 8.974c-.084.162-.167.162-.332.162a.334.334 0 0 1-.332-.162.375.375 0 0 1-.136-.51.375.375 0 0 1 .136-.137l8.87-8.652-6.383-6.147L3.183 13.17l.662.566a.59.59 0 0 1 0 .728.513.513 0 0 1-.662 0l-.995-.97a.446.446 0 0 1 0-.728L14.125 1.121a.514.514 0 0 1 .663 0l7.046 6.874c.088.09.146.204.166.328v-.001ZM9.484 10.715a2.52 2.52 0 0 0 2.486 2.43 2.465 2.465 0 0 0 2.487-2.43 2.414 2.414 0 0 0-2.487-2.431 2.467 2.467 0 0 0-2.486 2.433v-.002Zm3.978 0a1.471 1.471 0 0 1-1.492 1.458 1.46 1.46 0 0 1-.572-2.818 1.46 1.46 0 0 1 .572-.099 1.47 1.47 0 0 1 1.492 1.46v-.001Zm-.402-4.666a.516.516 0 0 1-.335-.081.587.587 0 0 1 0-.728l1.425-1.376a.523.523 0 0 1 .67 0 .445.445 0 0 1 0 .728l-1.426 1.376c-.083.083-.167.083-.335.083v-.002Z" clip-rule="evenodd"/>
</svg>
