<svg xmlns="http://www.w3.org/2000/svg" width="24" height="24" fill="none" viewBox="0 0 24 24">
  <path fill="#000" fill-rule="evenodd" d="M21.783 21.863a.366.366 0 0 1-.28.137s-.006-.003-.01-.003l-.01.003h-3.287a.408.408 0 1 1 0-.816h2.279l-5.283-4.797-3.926 3.08a.433.433 0 0 1-.561 0l-7.573-6.571a.424.424 0 0 1 0-.616.433.433 0 0 1 .561 0l7.292 6.297 3.927-3.012a.432.432 0 0 1 .561 0l5.59 5.033v-2.27a.42.42 0 0 1 .84 0v3.074a.37.37 0 0 1-.12.46ZM9.364 15.077a.536.536 0 0 0 .28-.137.505.505 0 0 0 0-.618 6.27 6.27 0 0 1-2.03-4.668 6.725 6.725 0 1 1 13.45 0 6.59 6.59 0 0 1-1.962 4.668.412.412 0 0 0 0 .55.331.331 0 0 0 .56 0 7.038 7.038 0 0 0 2.243-5.218 7.567 7.567 0 0 0-10.436-7.088A7.565 7.565 0 0 0 9.017 14.94c.137.069.207.137.347.137Zm8.131-9.444a.373.373 0 0 0-.56.068L14.828 8.59 12.793 5.7a.45.45 0 0 0-.63-.068.397.397 0 0 0-.072.55l1.937 2.659h-.876a.413.413 0 0 0 0 .825h1.275v.825h-1.275a.413.413 0 0 0 0 .826h1.275v2.065a.397.397 0 0 0 .412.41.365.365 0 0 0 .413-.41v-2.065h1.274a.413.413 0 1 0 0-.826h-1.274V9.67h1.274a.413.413 0 1 0 0-.825h-.83l1.938-2.66a.357.357 0 0 0-.139-.552Z" clip-rule="evenodd"/>
</svg>
