<svg xmlns="http://www.w3.org/2000/svg" width="24" height="24" fill="none" viewBox="0 0 24 24">
  <path fill="#000" fill-rule="evenodd" d="m12.7 5.889-1.943 2.637h.807a.409.409 0 0 1 0 .817h-1.22v.816h1.22a.408.408 0 1 1 0 .816h-1.22v1.998c0 .271-.143.407-.43.406a.4.4 0 0 1-.398-.244.403.403 0 0 1-.032-.162v-1.998h-1.22a.409.409 0 1 1 0-.816h1.22v-.816h-1.22a.409.409 0 1 1 0-.817h.843L7.219 5.89c-.139-.202-.138-.472.07-.538a.449.449 0 0 1 .625.066l2.014 2.827 2.082-2.827a.373.373 0 0 1 .555-.066.347.347 0 0 1 .134.538ZM22 12.17v-.015c0-.012-.006-.023-.007-.036a.408.408 0 0 0-.016-.098.44.44 0 0 0-.038-.074c-.011-.022-.018-.043-.033-.065l-.008-.004a.403.403 0 0 0-.314-.131h-3.251a.443.443 0 0 0-.415.408.396.396 0 0 0 .415.408h2.2l-5.21 4.736-3.879-3.047a.429.429 0 0 0-.554 0l-7.482 6.501a.498.498 0 0 0 0 .609.53.53 0 0 0 .276.135.363.363 0 0 0 .277-.135l7.206-6.23 3.88 3.047a.534.534 0 0 0 .554-.067l5.566-5.019v2.327a.441.441 0 0 0 .415.408.392.392 0 0 0 .386-.248c.02-.05.03-.105.028-.16v-3.226a.18.18 0 0 0 .004-.025v.001ZM6.03 15.76c0 .068.07.068.14.068a.388.388 0 0 0 .208-.745 6.563 6.563 0 1 1 9.8-5.764 6.444 6.444 0 0 1-1.183 3.73.424.424 0 0 0 .07.61.37.37 0 0 0 .557-.136 7.11 7.11 0 0 0 1.39-4.204A7.509 7.509 0 0 0 2 9.319a7.23 7.23 0 0 0 4.03 6.442Z" clip-rule="evenodd"/>
</svg>
