<svg xmlns="http://www.w3.org/2000/svg" width="24" height="24" fill="none" viewBox="0 0 24 24">
  <path fill="#000" fill-rule="evenodd" d="M12.434 11.7v.29h3.435a.42.42 0 1 1 0 .838h-3.435v1.676h3.435a.42.42 0 1 1 0 .838h-3.435v6.242a.448.448 0 0 1-.42.416.399.399 0 0 1-.419-.416v-6.242H8.159a.418.418 0 1 1 0-.838h3.436v-1.676H8.159a.418.418 0 0 1 0-.838h3.436v-.214l-5.562-9.15a.432.432 0 0 1 .214-.555.401.401 0 0 1 .57.139l5.21 8.53 5.136-8.53a.473.473 0 0 1 .643-.139c.214.07.214.347.143.555L12.434 11.7Z" clip-rule="evenodd"/>
</svg>
