<svg xmlns="http://www.w3.org/2000/svg" width="24" height="24" fill="none" viewBox="0 0 24 24">
  <path fill="#000" fill-rule="evenodd" d="M11.782 2a9.999 9.999 0 0 0-1.652 19.822A10 10 0 0 0 22 11.995 10.13 10.13 0 0 0 11.782 2Zm0 19.127a9.13 9.13 0 1 1 9.33-9.13 9.237 9.237 0 0 1-9.33 9.129Zm3.483-13.271c-1.461 2.037-2.23 3.112-2.643 3.683h1.38a.435.435 0 1 1 0 .871H12.22v.871h1.783a.435.435 0 1 1 0 .872H12.22v3.05a.437.437 0 0 1-.872 0v-3.05H9.564a.435.435 0 1 1 0-.872h1.783v-.871H9.564a.435.435 0 0 1 0-.871h1.38L8.3 7.856a.44.44 0 0 1 .074-.578.56.56 0 0 1 .667.072l2.741 3.832 2.743-3.832a.467.467 0 0 1 .593-.072c.222.144.296.433.148.577h-.002Z" clip-rule="evenodd"/>
</svg>
