<svg xmlns="http://www.w3.org/2000/svg" width="24" height="24" fill="none" viewBox="0 0 24 24">
  <path fill="#000" fill-rule="evenodd" d="M12.4 2h-.413C6.407 2 2 6.162 2 11.464a9.923 9.923 0 0 0 9.918 9.867h.482a.427.427 0 0 0 .343-.403V2.403A.378.378 0 0 0 12.4 2Zm-.482 4.855H9.099a13.565 13.565 0 0 1 2.623-4.04c.066 0 .13-.01.196-.01v4.05Zm-9.081 4.81h4.607a13.89 13.89 0 0 0 .76 4.045H3.91a8.902 8.902 0 0 1-1.072-4.046Zm.018-.765a8.376 8.376 0 0 1 .879-3.237H7.96a12.409 12.409 0 0 0-.52 3.237H2.855Zm5.4.764h3.663v4.046h-2.85a13.281 13.281 0 0 1-.813-4.046Zm-.006-.764c.029-1.1.216-2.19.557-3.237h3.112V10.9H8.249Zm2.3-7.991a13.966 13.966 0 0 0-2.31 3.945h-4.04A9.003 9.003 0 0 1 10.55 2.91ZM4.403 16.518H8.51a18.763 18.763 0 0 0 2.18 3.91A9.178 9.178 0 0 1 4.4 16.52l.002-.003Zm7.327 3.993a19.387 19.387 0 0 1-2.335-3.993h2.526v4.005c-.066.003-.128-.006-.193-.007l.002-.005Zm10.254-14.72-3.429 5.873h2.859a.405.405 0 1 1 0 .81h-2.87v1.618h2.87a.405.405 0 1 1 0 .809h-2.87v3.646a.4.4 0 0 1-.264.382.447.447 0 0 1-.59-.381v-3.643h-2.87a.405.405 0 0 1 0-.81h2.87v-1.618h-2.87a.404.404 0 1 1 0-.809h2.87v-.136l-3.348-5.735a.473.473 0 0 1 .208-.536.582.582 0 0 1 .55.134l3.028 5.292 3.1-5.292a.546.546 0 0 1 .551-.134.473.473 0 0 1 .203.534l.002-.005Z" clip-rule="evenodd"/>
</svg>
