<svg xmlns="http://www.w3.org/2000/svg" width="1920" height="404" fill="none" viewBox="0 0 1920 404">
  <path fill="#fff" d="M0 0h1920v404H0z"/>
  <path fill="#000" d="M122.592 153.48c-2.048 0-3.856-.272-5.424-.816-1.568-.544-2.896-1.296-3.984-2.256a10.612 10.612 0 0 1-2.544-3.504c-.576-1.376-.896-2.88-.96-4.512h5.808c.16 1.792.784 3.296 1.872 4.512 1.088 1.184 2.784 1.776 5.088 1.776 2.24 0 3.888-.496 4.944-1.488s1.584-2.352 1.584-4.08c0-3.744-2.064-5.616-6.192-5.616h-2.64v-4.56h2.448c1.984 0 3.424-.432 4.32-1.296.928-.864 1.392-2.112 1.392-3.744 0-1.408-.448-2.56-1.344-3.456-.864-.928-2.192-1.392-3.984-1.392-1.824 0-3.296.512-4.416 1.536-1.12 1.024-1.776 2.4-1.968 4.128h-5.664a11.853 11.853 0 0 1 1.008-4.128 9.779 9.779 0 0 1 2.4-3.36c1.056-.928 2.32-1.664 3.792-2.208 1.472-.544 3.12-.816 4.944-.816 1.792 0 3.392.24 4.8.72s2.592 1.136 3.552 1.968a8.54 8.54 0 0 1 2.208 2.928c.512 1.12.768 2.32.768 3.6 0 1.952-.512 3.536-1.536 4.752-1.024 1.184-2.368 2.096-4.032 2.736 2.016.448 3.616 1.376 4.8 2.784 1.216 1.376 1.824 3.216 1.824 5.52 0 1.6-.304 3.04-.912 4.32a9.295 9.295 0 0 1-2.592 3.216c-1.088.864-2.432 1.536-4.032 2.016s-3.376.72-5.328.72Zm29.566-5.52c3.872 0 6.736-1.04 8.592-3.12 1.856-2.112 2.784-5.072 2.784-8.88v-.384c0-1.856-.224-3.504-.672-4.944-.416-1.472-1.088-2.72-2.016-3.744-.928-1.024-2.112-1.808-3.552-2.352-1.44-.544-3.168-.816-5.184-.816h-3.696v24.24h3.744Zm-10.128-29.28h10.416c2.976 0 5.568.416 7.776 1.248 2.24.8 4.096 1.936 5.568 3.408 1.472 1.472 2.576 3.248 3.312 5.328.736 2.048 1.104 4.32 1.104 6.816v.432c0 2.496-.368 4.8-1.104 6.912-.736 2.08-1.84 3.872-3.312 5.376-1.472 1.504-3.328 2.688-5.568 3.552-2.24.832-4.864 1.248-7.872 1.248h-10.32v-34.32Zm45.742 9.216h5.808V153h-5.808v-25.104Zm2.832-4.128c-.96 0-1.776-.32-2.448-.96a3.122 3.122 0 0 1-1.008-2.352c0-.96.336-1.76 1.008-2.4.672-.64 1.488-.96 2.448-.96s1.776.32 2.448.96c.672.64 1.008 1.44 1.008 2.4 0 .928-.336 1.712-1.008 2.352-.672.64-1.488.96-2.448.96Zm21.235 29.712c-1.792 0-3.472-.288-5.04-.864a11.877 11.877 0 0 1-4.032-2.496c-1.12-1.088-2-2.416-2.64-3.984-.64-1.568-.96-3.36-.96-5.376v-.384c0-1.984.32-3.776.96-5.376.672-1.6 1.584-2.96 2.736-4.08a11.759 11.759 0 0 1 4.032-2.64c1.536-.608 3.184-.912 4.944-.912 1.376 0 2.72.176 4.032.528 1.312.32 2.48.848 3.504 1.584 1.056.736 1.936 1.712 2.64 2.928.704 1.184 1.136 2.64 1.296 4.368h-5.616c-.256-1.696-.896-2.912-1.92-3.648-1.024-.736-2.304-1.104-3.84-1.104-.992 0-1.904.192-2.736.576a5.616 5.616 0 0 0-2.16 1.632c-.608.704-1.088 1.568-1.44 2.592-.32 1.024-.48 2.176-.48 3.456v.384c0 2.752.624 4.832 1.872 6.24 1.248 1.408 2.944 2.112 5.088 2.112.768 0 1.488-.112 2.16-.336a5.568 5.568 0 0 0 1.872-1.008 5.375 5.375 0 0 0 1.344-1.68c.352-.672.576-1.456.672-2.352h5.328c-.096 1.44-.448 2.768-1.056 3.984a10.16 10.16 0 0 1-2.352 3.12c-.992.864-2.192 1.536-3.6 2.016-1.376.48-2.912.72-4.608.72Zm28.037-4.512c2.176 0 3.872-.736 5.088-2.208 1.216-1.504 1.824-3.552 1.824-6.144v-.336c0-2.592-.608-4.624-1.824-6.096-1.216-1.504-2.912-2.256-5.088-2.256s-3.888.736-5.136 2.208c-1.216 1.472-1.824 3.504-1.824 6.096v.384c0 2.592.608 4.64 1.824 6.144 1.216 1.472 2.928 2.208 5.136 2.208Zm-.048 4.512c-1.856 0-3.568-.304-5.136-.912-1.568-.608-2.928-1.472-4.08-2.592-1.152-1.12-2.048-2.464-2.688-4.032-.64-1.568-.96-3.312-.96-5.232v-.384c0-1.952.32-3.712.96-5.28.672-1.6 1.584-2.96 2.736-4.08a11.658 11.658 0 0 1 4.08-2.64c1.568-.64 3.28-.96 5.136-.96 1.824 0 3.52.304 5.088.912a11.658 11.658 0 0 1 4.08 2.64c1.152 1.12 2.048 2.464 2.688 4.032.672 1.568 1.008 3.312 1.008 5.232v.384c0 1.952-.336 3.728-1.008 5.328a12.244 12.244 0 0 1-2.688 4.08c-1.152 1.12-2.512 1.984-4.08 2.592-1.568.608-3.28.912-5.136.912Zm18.347-25.584h5.808v3.984c.608-1.216 1.584-2.272 2.928-3.168 1.376-.896 3.104-1.344 5.184-1.344 1.248 0 2.4.192 3.456.576a7.107 7.107 0 0 1 2.736 1.776c.768.768 1.36 1.776 1.776 3.024.416 1.248.624 2.736.624 4.464V153h-5.808v-15.264c0-1.92-.4-3.312-1.2-4.176-.8-.896-2.064-1.344-3.792-1.344-1.632 0-3.024.512-4.176 1.536-1.152.992-1.728 2.48-1.728 4.464V153h-5.808v-25.104Zm37.982 25.584c-3.264 0-5.808-.704-7.632-2.112-1.792-1.44-2.752-3.504-2.88-6.192h5.472c.16 1.28.592 2.272 1.296 2.976.736.704 1.968 1.056 3.696 1.056 1.568 0 2.704-.272 3.408-.816.736-.544 1.104-1.344 1.104-2.4 0-1.024-.432-1.776-1.296-2.256-.864-.48-2.224-.88-4.08-1.2-1.664-.256-3.072-.576-4.224-.96-1.152-.384-2.096-.88-2.832-1.488a5.371 5.371 0 0 1-1.536-2.16c-.32-.832-.48-1.84-.48-3.024 0-1.248.272-2.336.816-3.264a7.126 7.126 0 0 1 2.112-2.352 9.777 9.777 0 0 1 3.024-1.44c1.12-.32 2.272-.48 3.456-.48 1.28 0 2.48.128 3.6.384 1.152.256 2.16.688 3.024 1.296.864.576 1.568 1.36 2.112 2.352.576.96.944 2.144 1.104 3.552h-5.376c-.256-1.152-.736-2-1.44-2.544-.672-.544-1.68-.816-3.024-.816-1.248 0-2.224.272-2.928.816-.704.544-1.056 1.264-1.056 2.16 0 .448.08.848.24 1.2.16.32.432.608.816.864.416.224.96.432 1.632.624.672.192 1.504.368 2.496.528 1.472.224 2.784.512 3.936.864 1.184.32 2.176.768 2.976 1.344a5.216 5.216 0 0 1 1.824 2.16c.448.864.672 1.968.672 3.312 0 2.56-.864 4.544-2.592 5.952-1.728 1.376-4.208 2.064-7.44 2.064Z"/>
  <g clip-path="url(#a)">
    <path fill="gray" d="M120.496 221.252h-.001v.001h.001v-.001Z"/>
    <path fill="#F9C543" d="m120.495 221.251 12.465-4.141-8.383-1.579-4.082 5.716v.004Z"/>
    <path fill="gray" d="M120.496 221.253h-.001v.001h.001v-.001Z"/>
    <path fill="#FDB53F" d="m127.141 223.406 5.819-6.294-12.465 4.141 6.646 2.153Z"/>
    <path fill="#F9C543" d="m113.866 223.453-1.047 8.544 7.676-10.746-6.629 2.202Z"/>
    <path fill="#FC9A42" d="m120.494 221.253-7.676 10.752 7.701-3.699-.024-7.047-.001-.006Zm4.083-5.717L120.449 208l.047 13.248 4.081-5.712Zm-4.082 5.717 7.751 10.691-1.104-8.539-6.647-2.152Z"/>
    <path fill="#FDB53F" d="m120.495 221.253.026 7.047 7.723 3.648-7.75-10.691.001-.004Z"/>
    <path fill="#F9C543" d="m120.496 221.252-.047-13.248-4.077 7.564 4.128 5.687-.004-.003Z"/>
    <path fill="#FDB53F" d="M116.372 215.565 108 217.202l12.495 4.048-4.123-5.685Z"/>
    <path fill="#FC9A42" d="M120.495 221.253 108 217.206l5.867 6.252 6.624-2.2.004-.005Z"/>
  </g>
  <path fill="#000" d="M150.602 224.64c-.803 0-1.517-.126-2.142-.378a4.496 4.496 0 0 1-1.568-1.05 4.749 4.749 0 0 1-.966-1.61 6.249 6.249 0 0 1-.322-2.044v-.112c0-.747.121-1.433.364-2.058a4.874 4.874 0 0 1 1.036-1.61 4.556 4.556 0 0 1 1.582-1.064 5.274 5.274 0 0 1 2.016-.378c.532 0 1.045.065 1.54.196.495.121.933.322 1.316.602.392.271.714.621.966 1.05.261.42.425.929.49 1.526h-1.862c-.112-.672-.383-1.157-.812-1.456-.42-.299-.957-.448-1.61-.448-.495 0-.933.089-1.316.266a2.505 2.505 0 0 0-.966.742c-.261.317-.462.7-.602 1.148-.14.448-.21.947-.21 1.498v.112c0 .532.061 1.022.182 1.47.131.439.322.817.574 1.134.261.317.583.565.966.742.392.177.849.266 1.372.266.467 0 .868-.065 1.204-.196.336-.131.611-.308.826-.532a2.22 2.22 0 0 0 .476-.812 3.4 3.4 0 0 0 .196-.98h-2.52v-1.4h4.354v.924c0 .691-.107 1.311-.322 1.862a3.758 3.758 0 0 1-.896 1.4 3.943 3.943 0 0 1-1.442.882c-.56.205-1.195.308-1.904.308Zm9.552-1.316c.635 0 1.129-.215 1.484-.644.355-.439.532-1.036.532-1.792v-.098c0-.756-.177-1.349-.532-1.778-.355-.439-.849-.658-1.484-.658s-1.134.215-1.498.644c-.355.429-.532 1.022-.532 1.778v.112c0 .756.177 1.353.532 1.792.355.429.854.644 1.498.644Zm-.014 1.316a4.116 4.116 0 0 1-1.498-.266 3.495 3.495 0 0 1-1.19-.756 3.432 3.432 0 0 1-.784-1.176 3.996 3.996 0 0 1-.28-1.526v-.112c0-.569.093-1.083.28-1.54.196-.467.462-.863.798-1.19a3.398 3.398 0 0 1 1.19-.77 3.92 3.92 0 0 1 1.498-.28c.532 0 1.027.089 1.484.266.457.177.854.434 1.19.77.336.327.597.719.784 1.176.196.457.294.966.294 1.526v.112c0 .569-.098 1.087-.294 1.554a3.58 3.58 0 0 1-.784 1.19 3.495 3.495 0 0 1-1.19.756 4.116 4.116 0 0 1-1.498.266Zm5.393-10.85h1.694v10.71h-1.694v-10.71Zm6.558 10.85c-.457 0-.882-.079-1.274-.238a2.858 2.858 0 0 1-1.022-.7 3.49 3.49 0 0 1-.686-1.162c-.159-.457-.238-.985-.238-1.582v-.112c0-.588.079-1.115.238-1.582.168-.476.397-.877.686-1.204a3.033 3.033 0 0 1 1.05-.77c.401-.177.84-.266 1.316-.266.597 0 1.083.121 1.456.364.383.243.677.546.882.91v-4.508h1.694v10.71h-1.694v-1.232a2.593 2.593 0 0 1-.392.532 2.973 2.973 0 0 1-.56.434 3.064 3.064 0 0 1-.686.294 2.593 2.593 0 0 1-.77.112Zm.42-1.344c.588 0 1.073-.196 1.456-.588.392-.401.588-1.013.588-1.834v-.112c0-.812-.177-1.414-.532-1.806-.345-.401-.826-.602-1.442-.602-.625 0-1.111.21-1.456.63-.345.42-.518 1.027-.518 1.82v.112c0 .803.177 1.4.532 1.792.364.392.821.588 1.372.588Zm5.134 2.464 1.274-3.318 1.61.644-1.834 3.136-1.05-.462Zm11.691-1.12c-.681 0-1.269-.079-1.764-.238a3.724 3.724 0 0 1-1.218-.672 2.932 2.932 0 0 1-.728-1.022 4.234 4.234 0 0 1-.308-1.316h1.792c.028.252.079.49.154.714.084.224.205.42.364.588.168.168.387.303.658.406.28.093.63.14 1.05.14.56 0 1.013-.14 1.358-.42.355-.28.532-.653.532-1.12 0-.233-.033-.429-.098-.588a.91.91 0 0 0-.336-.42 2.078 2.078 0 0 0-.644-.308 7.551 7.551 0 0 0-1.008-.224 11.205 11.205 0 0 1-1.568-.322 3.508 3.508 0 0 1-1.092-.546 2.262 2.262 0 0 1-.658-.854c-.14-.336-.21-.737-.21-1.204 0-.411.084-.789.252-1.134.168-.355.401-.658.7-.91a3.249 3.249 0 0 1 1.106-.602 4.33 4.33 0 0 1 1.428-.224c1.083 0 1.932.243 2.548.728.625.485.989 1.209 1.092 2.17h-1.708c-.093-.532-.294-.915-.602-1.148-.308-.233-.751-.35-1.33-.35-.569 0-.999.121-1.288.364-.289.243-.434.56-.434.952 0 .205.023.387.07.546a.966.966 0 0 0 .308.406c.159.112.369.21.63.294.271.084.625.159 1.064.224.588.084 1.101.191 1.54.322.448.131.821.313 1.12.546.308.233.537.523.686.868.149.336.224.756.224 1.26 0 .439-.089.845-.266 1.218-.177.373-.429.7-.756.98a3.44 3.44 0 0 1-1.162.658 4.454 4.454 0 0 1-1.498.238Zm7.892-.014c-.728 0-1.279-.187-1.652-.56-.374-.373-.56-.91-.56-1.61v-4.004h-.98v-1.274h.98v-1.61h1.694v1.61h1.61v1.274h-1.61v3.85c0 .327.07.565.21.714.149.149.359.224.63.224.326 0 .602-.047.826-.14v1.344c-.131.047-.29.089-.476.126a3.51 3.51 0 0 1-.672.056Zm4.717.014c-.336 0-.654-.042-.952-.126a2.352 2.352 0 0 1-.784-.378 1.947 1.947 0 0 1-.518-.672c-.131-.28-.196-.611-.196-.994 0-.429.098-.789.294-1.078.196-.299.462-.537.798-.714a3.867 3.867 0 0 1 1.19-.406 8.132 8.132 0 0 1 1.47-.126h.91v-.378c0-.495-.098-.863-.294-1.106-.187-.243-.532-.364-1.036-.364-.448 0-.784.103-1.008.308-.215.196-.346.476-.392.84h-1.638c.037-.429.144-.793.322-1.092a2.32 2.32 0 0 1 .686-.756c.28-.196.602-.341.966-.434.364-.093.751-.14 1.162-.14.41 0 .793.047 1.148.14.354.084.662.233.924.448.27.205.48.481.63.826.149.336.224.756.224 1.26v4.802h-1.666v-.896a2.756 2.756 0 0 1-.882.756c-.346.187-.798.28-1.358.28Zm.406-1.218c.522 0 .952-.126 1.288-.378.345-.261.518-.63.518-1.106v-.728h-.868c-.644 0-1.158.089-1.54.266-.383.168-.574.476-.574.924 0 .308.088.555.266.742.186.187.49.28.91.28Zm5.496-6.244h1.694v1.372c.233-.467.532-.826.896-1.078.373-.261.868-.397 1.484-.406v1.582c-.373 0-.709.037-1.008.112a1.859 1.859 0 0 0-.742.336 1.556 1.556 0 0 0-.476.63c-.103.252-.154.574-.154.966v3.808h-1.694v-7.322Z"/>
  <g clip-path="url(#b)">
    <path fill="#BDDDF4" d="M717.011 208h-4.157L708 215.2h6.933l2.078-7.2Z"/>
    <path fill="#5DADEC" d="m732.957 215.2-4.851-7.2h-4.16l2.081 7.2h6.93Z"/>
    <path fill="#4289C1" d="M726.027 215.2h6.933L720.48 232l5.547-16.8Z"/>
    <path fill="#8CCAF7" d="M714.933 215.2H708l12.48 16.8-5.547-16.8Zm2.078-7.2-2.078 7.2h11.098l-2.084-7.2h-6.936Z"/>
    <path fill="#5DADEC" d="m720.48 232-5.546-16.8h11.097L720.48 232Z"/>
  </g>
  <path fill="#000" d="M746.108 214.49h3.22c.56 0 1.069.065 1.526.196.457.121.845.313 1.162.574.327.252.579.574.756.966.177.383.266.835.266 1.358v.056c0 .532-.093.989-.28 1.372-.177.383-.429.7-.756.952a3.259 3.259 0 0 1-1.162.546 5.626 5.626 0 0 1-1.47.182h-1.4v3.808h-1.862v-10.01Zm3.22 4.858c.616 0 1.083-.145 1.4-.434.327-.289.49-.714.49-1.274v-.056c0-.597-.168-1.022-.504-1.274-.327-.252-.789-.378-1.386-.378h-1.358v3.416h1.358Zm5.268-5.558h1.694v10.71h-1.694v-10.71Zm5.731 10.85c-.336 0-.653-.042-.952-.126a2.361 2.361 0 0 1-.784-.378 1.971 1.971 0 0 1-.518-.672 2.34 2.34 0 0 1-.196-.994c0-.429.098-.789.294-1.078.196-.299.462-.537.798-.714a3.876 3.876 0 0 1 1.19-.406 8.148 8.148 0 0 1 1.47-.126h.91v-.378c0-.495-.098-.863-.294-1.106-.186-.243-.532-.364-1.036-.364-.448 0-.784.103-1.008.308-.214.196-.345.476-.392.84h-1.638c.038-.429.145-.793.322-1.092.178-.308.406-.56.686-.756.28-.196.602-.341.966-.434.364-.093.752-.14 1.162-.14.411 0 .794.047 1.148.14.355.084.663.233.924.448.271.205.481.481.63.826.15.336.224.756.224 1.26v4.802h-1.666v-.896a2.735 2.735 0 0 1-.882.756c-.345.187-.798.28-1.358.28Zm.406-1.218c.523 0 .952-.126 1.288-.378.346-.261.518-.63.518-1.106v-.728h-.868c-.644 0-1.157.089-1.54.266-.382.168-.574.476-.574.924 0 .308.089.555.266.742.187.187.49.28.91.28Zm7.989 1.204c-.728 0-1.279-.187-1.652-.56-.374-.373-.56-.91-.56-1.61v-4.004h-.98v-1.274h.98v-1.61h1.694v1.61h1.61v1.274h-1.61v3.85c0 .327.07.565.21.714.149.149.359.224.63.224.326 0 .602-.047.826-.14v1.344c-.131.047-.29.089-.476.126a3.51 3.51 0 0 1-.672.056Zm2.772-7.448h1.694v7.322h-1.694v-7.322Zm.826-1.204a.996.996 0 0 1-.714-.28.91.91 0 0 1-.294-.686c0-.28.098-.513.294-.7a.996.996 0 0 1 .714-.28c.28 0 .518.093.714.28.196.187.294.42.294.7a.91.91 0 0 1-.294.686.996.996 0 0 1-.714.28Zm2.988 1.204h1.694v1.162c.177-.355.462-.663.854-.924.401-.261.905-.392 1.512-.392.364 0 .7.056 1.008.168.308.112.574.285.798.518.224.224.396.518.518.882.121.364.182.798.182 1.302v4.606h-1.694v-4.452c0-.56-.117-.966-.35-1.218-.234-.261-.602-.392-1.106-.392-.476 0-.882.149-1.218.448-.336.289-.504.723-.504 1.302v4.312h-1.694v-7.322Zm11.022 7.462c-.364 0-.7-.051-1.008-.154a2.154 2.154 0 0 1-.798-.504 2.384 2.384 0 0 1-.532-.854c-.121-.355-.182-.775-.182-1.26v-4.69h1.694v4.494c0 .56.117.971.35 1.232.233.252.597.378 1.092.378.224 0 .439-.037.644-.112a1.512 1.512 0 0 0 .924-.868c.093-.224.14-.481.14-.77v-4.354h1.694v7.322h-1.694v-1.148a2.47 2.47 0 0 1-.854.91c-.383.252-.873.378-1.47.378Zm6.081-7.462h1.694v1.12c.178-.345.458-.644.84-.896.383-.252.845-.378 1.386-.378.476 0 .892.107 1.246.322.364.205.64.537.826.994.28-.457.649-.789 1.106-.994a3.203 3.203 0 0 1 1.372-.322c.336 0 .649.056.938.168.299.103.56.271.784.504.224.224.397.518.518.882.131.355.196.784.196 1.288v4.634h-1.694v-4.522c0-.541-.112-.933-.336-1.176-.224-.243-.546-.364-.966-.364-.214 0-.42.037-.616.112a1.42 1.42 0 0 0-.504.308c-.149.14-.27.317-.364.532a1.915 1.915 0 0 0-.126.728v4.382h-1.694v-4.522c0-.541-.112-.933-.336-1.176-.224-.243-.546-.364-.966-.364-.214 0-.42.037-.616.112a1.42 1.42 0 0 0-.504.308c-.149.14-.27.317-.364.532a1.915 1.915 0 0 0-.126.728v4.382h-1.694v-7.322Z"/>
  <g clip-path="url(#c)">
    <path fill="#E7E7E7" d="M1324.17 211.993h-12.18v16.012h12.18v-16.012Z"/>
    <path fill="#A5A5A5" d="M1324.17 208h-12.18v3.993h12.18V208Zm0 20.004h-12.18v3.993h12.18v-3.993Z"/>
    <path fill="#D7D7D7" d="M1328.16 211.993h-3.99v16.012h3.99v-16.012Z"/>
    <path fill="#C7C7C7" d="m1324.17 208 3.99 3.993h-3.99V208Zm3.99 20.007-3.99 3.993v-3.993h3.99Z"/>
    <path fill="#A5A5A5" d="M1311.99 211.993H1308v16.012h3.99v-16.012Z"/>
    <path fill="#8E8B8B" d="m1311.99 231.997-3.99-3.99h3.99v3.99Zm-3.99-20.004 3.99-3.993v3.993H1308Z"/>
  </g>
  <path fill="#000" d="M1344.71 224.64c-.68 0-1.27-.079-1.76-.238-.49-.168-.9-.392-1.22-.672-.32-.289-.56-.63-.73-1.022-.17-.401-.27-.84-.31-1.316h1.79c.03.252.08.49.16.714.08.224.2.42.36.588.17.168.39.303.66.406.28.093.63.14 1.05.14.56 0 1.01-.14 1.36-.42.35-.28.53-.653.53-1.12 0-.233-.03-.429-.1-.588a.922.922 0 0 0-.33-.42 2.14 2.14 0 0 0-.65-.308c-.27-.084-.6-.159-1.01-.224-.59-.084-1.12-.191-1.56-.322-.44-.14-.81-.322-1.1-.546-.29-.233-.5-.518-.65-.854-.14-.336-.21-.737-.21-1.204 0-.411.08-.789.25-1.134.17-.355.4-.658.7-.91.31-.261.67-.462 1.1-.602a4.36 4.36 0 0 1 1.43-.224c1.08 0 1.93.243 2.55.728.63.485.99 1.209 1.09 2.17h-1.71c-.09-.532-.29-.915-.6-1.148-.31-.233-.75-.35-1.33-.35-.57 0-1 .121-1.29.364-.29.243-.43.56-.43.952 0 .205.02.387.07.546.06.149.16.285.31.406.16.112.37.21.63.294a7.2 7.2 0 0 0 1.06.224c.59.084 1.1.191 1.54.322.45.131.82.313 1.12.546.31.233.54.523.69.868.15.336.22.756.22 1.26 0 .439-.09.845-.26 1.218-.18.373-.43.7-.76.98-.32.28-.7.499-1.16.658-.45.159-.95.238-1.5.238Zm5.44-7.462h1.7v7.322h-1.7v-7.322Zm.83-1.204c-.28 0-.52-.093-.72-.28a.93.93 0 0 1-.29-.686c0-.28.1-.513.29-.7.2-.187.44-.28.72-.28.28 0 .52.093.71.28.2.187.3.42.3.7 0 .271-.1.499-.3.686a.977.977 0 0 1-.71.28Zm3.03-2.184h1.69v10.71h-1.69v-10.71Zm3.05 3.388h1.82l1.92 5.586 1.89-5.586h1.67l-2.65 7.322h-1.97l-2.68-7.322Zm11.55 7.462c-.54 0-1.04-.084-1.49-.252a3.69 3.69 0 0 1-1.18-.742 3.531 3.531 0 0 1-.77-1.176c-.18-.457-.27-.975-.27-1.554v-.112c0-.569.09-1.083.27-1.54.19-.467.44-.863.77-1.19.33-.336.71-.593 1.15-.77.45-.187.93-.28 1.45-.28.46 0 .9.07 1.31.21.42.14.79.359 1.1.658.32.299.57.681.76 1.148.19.467.29 1.027.29 1.68v.49h-5.36c.03.7.21 1.237.55 1.61.34.373.83.56 1.47.56.51 0 .9-.098 1.17-.294.27-.196.44-.471.51-.826h1.63c-.12.775-.47 1.367-1.06 1.778-.59.401-1.35.602-2.3.602Zm1.71-4.564c-.04-.635-.22-1.097-.53-1.386-.3-.289-.71-.434-1.25-.434-.51 0-.93.163-1.26.49-.32.317-.53.761-.61 1.33h3.65Zm3.25-2.898h1.69v1.372c.24-.467.54-.826.9-1.078.37-.261.87-.397 1.48-.406v1.582c-.37 0-.7.037-1 .112a1.92 1.92 0 0 0-.75.336c-.2.159-.36.369-.47.63-.1.252-.16.574-.16.966v3.808h-1.69v-7.322Z"/>
  <g clip-path="url(#d)">
    <path fill="#D66C69" d="M120.673 272.332a67.678 67.678 0 0 0 10.996 10.996.837.837 0 0 1 .243.298.836.836 0 0 1 0 .749.843.843 0 0 1-.243.297 67.718 67.718 0 0 0-10.996 10.996.846.846 0 0 1-.672.33.842.842 0 0 1-.672-.33 67.724 67.724 0 0 0-10.997-10.996.856.856 0 0 1-.244-1.046.85.85 0 0 1 .244-.298 67.712 67.712 0 0 0 10.995-10.996.853.853 0 0 1 .672-.33.848.848 0 0 1 .672.33h.002Z"/>
    <path fill="#934443" d="M119.929 295.667a68.993 68.993 0 0 0-5.088-10.995 1.562 1.562 0 0 1 0-1.344 68.963 68.963 0 0 0 5.088-10.996.474.474 0 0 1 .317-.302.844.844 0 0 0-.889.302 67.776 67.776 0 0 1-11.024 10.997.848.848 0 0 0-.245 1.047.848.848 0 0 0 .245.297 67.804 67.804 0 0 1 11.025 10.994.848.848 0 0 0 .889.302.478.478 0 0 1-.318-.302Z"/>
  </g>
  <path fill="#000" d="M145.148 278.49h3.584c1.036 0 1.839.205 2.408.616.579.411.868 1.073.868 1.988v.056c0 .504-.121.943-.364 1.316-.243.364-.649.635-1.218.812.681.149 1.185.415 1.512.798.327.373.49.896.49 1.568v.056c0 .933-.299 1.633-.896 2.1-.588.467-1.433.7-2.534.7h-3.85v-10.01Zm3.626 8.68c.625 0 1.083-.135 1.372-.406.299-.271.448-.667.448-1.19v-.056c0-.523-.154-.91-.462-1.162-.299-.261-.793-.392-1.484-.392h-1.68v3.206h1.806Zm-.266-4.466c.616 0 1.055-.117 1.316-.35.261-.233.392-.607.392-1.12v-.056c0-.476-.14-.821-.42-1.036-.28-.215-.719-.322-1.316-.322h-1.512v2.884h1.54Zm5.592-1.526h1.694v1.372c.233-.467.532-.826.896-1.078.373-.261.868-.397 1.484-.406v1.582c-.374 0-.71.037-1.008.112-.29.065-.537.177-.742.336a1.547 1.547 0 0 0-.476.63c-.103.252-.154.574-.154.966v3.808H154.1v-7.322Zm8.758 6.146c.635 0 1.13-.215 1.484-.644.355-.439.532-1.036.532-1.792v-.098c0-.756-.177-1.349-.532-1.778-.354-.439-.849-.658-1.484-.658-.634 0-1.134.215-1.498.644-.354.429-.532 1.022-.532 1.778v.112c0 .756.178 1.353.532 1.792.355.429.854.644 1.498.644Zm-.014 1.316a4.12 4.12 0 0 1-1.498-.266 3.495 3.495 0 0 1-1.19-.756 3.432 3.432 0 0 1-.784-1.176 4.015 4.015 0 0 1-.28-1.526v-.112c0-.569.094-1.083.28-1.54.196-.467.462-.863.798-1.19a3.398 3.398 0 0 1 1.19-.77c.458-.187.957-.28 1.498-.28.532 0 1.027.089 1.484.266a3.39 3.39 0 0 1 1.19.77c.336.327.598.719.784 1.176.196.457.294.966.294 1.526v.112c0 .569-.098 1.087-.294 1.554a3.564 3.564 0 0 1-.784 1.19 3.486 3.486 0 0 1-1.19.756 4.112 4.112 0 0 1-1.498.266Zm5.352-7.462h1.694v1.162c.177-.355.462-.663.854-.924.401-.261.905-.392 1.512-.392.364 0 .7.056 1.008.168.308.112.574.285.798.518.224.224.396.518.517.882.122.364.183.798.183 1.302v4.606h-1.694v-4.452c0-.56-.117-.966-.35-1.218-.234-.261-.602-.392-1.106-.392-.476 0-.882.149-1.218.448-.336.289-.504.723-.504 1.302v4.312h-1.694v-7.322Zm7.802 7.126 3.878-5.782h-3.5v-1.344h6.006v.238l-3.864 5.726h3.752v1.358h-6.272v-.196Zm10.88.336c-.541 0-1.04-.084-1.498-.252a3.65 3.65 0 0 1-1.176-.742 3.547 3.547 0 0 1-.77-1.176 4.277 4.277 0 0 1-.266-1.554v-.112c0-.569.089-1.083.266-1.54.187-.467.444-.863.77-1.19.327-.336.71-.593 1.148-.77.448-.187.934-.28 1.456-.28.458 0 .892.07 1.302.21.42.14.789.359 1.106.658.318.299.57.681.756 1.148.196.467.294 1.027.294 1.68v.49h-5.362c.028.7.21 1.237.546 1.61.346.373.836.56 1.47.56.514 0 .906-.098 1.176-.294.271-.196.439-.471.504-.826h1.638c-.121.775-.476 1.367-1.064 1.778-.588.401-1.353.602-2.296.602Zm1.708-4.564c-.046-.635-.224-1.097-.532-1.386-.298-.289-.714-.434-1.246-.434-.513 0-.933.163-1.26.49-.326.317-.532.761-.616 1.33h3.654Z"/>
  <defs>
    <clipPath id="a">
      <path fill="#fff" d="M108 208h24.96v24H108z"/>
    </clipPath>
    <clipPath id="b">
      <path fill="#fff" d="M708 208h24.96v24H708z"/>
    </clipPath>
    <clipPath id="c">
      <path fill="#fff" d="M1308 208h20.16v24H1308z"/>
    </clipPath>
    <clipPath id="d">
      <path fill="#fff" d="M108 272h24v24h-24z"/>
    </clipPath>
  </defs>
</svg>
