<svg xmlns="http://www.w3.org/2000/svg" xmlns:xlink="http://www.w3.org/1999/xlink" width="9" height="9" viewBox="0 0 9 9">
  <defs>
    <clipPath id="clip-path">
      <path d="M0,0H9V9H0Z"/>
    </clipPath>
  </defs>
  <g  clip-path="url(#clip-path)">
    <path d="M8.93,8.687a.176.176,0,0,1,0,.282C8.9,9,8.867,9,8.8,9a.188.188,0,0,1-.125-.031L4.488,4.774.3,8.969C.266,9,.235,9,.172,9a.189.189,0,0,1-.125-.031.235.235,0,0,1,0-.282L4.222,4.508.047.329a.236.236,0,0,1,0-.282.19.19,0,0,1,.25,0l4.191,4.2L8.679.047a.19.19,0,0,1,.25,0,.177.177,0,0,1,0,.282L4.754,4.508,8.93,8.687" transform="translate(0 0)"/>
  </g>
</svg>
