<svg id="Cancel" xmlns="http://www.w3.org/2000/svg" xmlns:xlink="http://www.w3.org/1999/xlink" width="16" height="16" viewBox="0 0 16 16">
  <defs>
    <clipPath id="clip-path">
      <path id="Clip_2" data-name="Clip 2" d="M0,0H16V16H0Z" fill="none" stroke="#fff"/>
    </clipPath>
  </defs>
  <g id="Group_36" data-name="Group 36">
    <path id="Clip_2-2" data-name="Clip 2" d="M0,0H16V16H0Z" fill="none"/>
    <g id="Group_36-2" data-name="Group 36" clip-path="url(#clip-path)">
      <path id="Fill_1" data-name="Fill 1" d="M15.875,15.444a.313.313,0,0,1,0,.5c-.056.055-.111.055-.223.055a.335.335,0,0,1-.222-.055L7.979,8.487.528,15.945C.473,16,.417,16,.306,16a.336.336,0,0,1-.223-.055.418.418,0,0,1,0-.5L7.506,8.014.083.585a.419.419,0,0,1,0-.5.338.338,0,0,1,.445,0L7.979,7.541,15.43.083a.338.338,0,0,1,.445,0,.314.314,0,0,1,0,.5L8.452,8.014l7.423,7.429" stroke="#fff"/>
    </g>
  </g>
</svg>
