<svg xmlns="http://www.w3.org/2000/svg" width="24" height="24" fill="none" viewBox="0 0 24 24">
  <path fill="#000" fill-rule="evenodd" d="M21.582 17.832a2.136 2.136 0 0 1-2.084-2.084v-4.582a7.505 7.505 0 0 0-4.652-6.944A2.845 2.845 0 0 0 12 2.001a2.96 2.96 0 0 0-2.847 2.221A7.504 7.504 0 0 0 4.5 11.166v4.582a2.089 2.089 0 0 1-2.084 2.084.4.4 0 0 0-.417.417.45.45 0 0 0 .417.416h6.715a2.895 2.895 0 0 0 5.733 0h6.714a.401.401 0 0 0 .417-.416.366.366 0 0 0-.246-.4.37.37 0 0 0-.168-.017ZM12 20.32a2.14 2.14 0 0 1-2.028-1.655h4.06A2.084 2.084 0 0 1 12 20.318v.002Zm2.577-2.488a.596.596 0 0 0-.082-.012.484.484 0 0 0-.069.012H9.59a.6.6 0 0 0-.082-.012.485.485 0 0 0-.069.012H4.503a3.27 3.27 0 0 0 .833-2.084v-4.582a6.666 6.666 0 0 1 4.374-6.25.69.69 0 0 0 .278-.347 2.08 2.08 0 0 1 2.014-1.735 2.037 2.037 0 0 1 2.084 1.735.461.461 0 0 0 .277.348 6.703 6.703 0 0 1 4.305 6.249v4.582c.017.786.34 1.534.901 2.084h-4.99Z" clip-rule="evenodd"/>
</svg>
