<svg xmlns="http://www.w3.org/2000/svg" width="24" height="24" fill="none" viewBox="0 0 24 24">
  <path fill="#000" fill-rule="evenodd" d="M21.581 3.647h-2.917V2.42a.37.37 0 0 0-.417-.417h-2.5a.4.4 0 0 0-.416.417v1.226H8.666V2.42a.369.369 0 0 0-.417-.417H5.75a.4.4 0 0 0-.417.417v1.226H2.417A.4.4 0 0 0 2 4.062v17.473a.45.45 0 0 0 .417.417h19.162a.4.4 0 0 0 .417-.417V4.063a.367.367 0 0 0-.415-.415Zm-3.749-.808v2.506h-1.666V4.137a.447.447 0 0 0 .011-.07.565.565 0 0 0-.011-.084V2.842l1.666-.003Zm-11.664 0h1.666v2.506H6.168V2.84Zm-.833 1.64v1.284a.45.45 0 0 0 .417.418H8.25a.4.4 0 0 0 .417-.418V4.492h6.665v1.271a.45.45 0 0 0 .416.418h2.5a.4.4 0 0 0 .416-.418V4.478h2.5v3.346H2.835V4.478h2.499Zm-2.5 16.64V8.67h18.33v12.45H2.835Zm17.103-9.118a.404.404 0 0 0 .417-.422.371.371 0 0 0-.417-.423h-3.76V9.883a.372.372 0 0 0-.423-.417.403.403 0 0 0-.423.417v1.273H12V9.882a.369.369 0 0 0-.423-.417.403.403 0 0 0-.422.417v1.273H7.869V9.882a.37.37 0 0 0-.422-.417.403.403 0 0 0-.422.417v1.273H4.109a.401.401 0 0 0-.391.26.403.403 0 0 0-.026.163.45.45 0 0 0 .417.422h2.916v2.487H4.109a.396.396 0 0 0-.417.4.44.44 0 0 0 .417.399h2.916v2.534H4.109a.397.397 0 0 0-.417.399.439.439 0 0 0 .417.399h2.916v1.273a.45.45 0 0 0 .422.417.403.403 0 0 0 .422-.417v-1.273h3.286v1.273a.45.45 0 0 0 .422.417.403.403 0 0 0 .423-.417v-1.273h3.332v1.273a.45.45 0 0 0 .423.417.403.403 0 0 0 .422-.417v-1.273h3.761a.394.394 0 0 0 .417-.4c0-.265-.139-.398-.417-.398h-3.76v-2.534h3.76a.394.394 0 0 0 .417-.4c0-.266-.139-.399-.417-.399h-3.76V12l3.76.001Zm-12.069 0h3.286v2.488H7.869V12Zm0 5.82v-2.534h3.286v2.534H7.869Zm7.463 0H12v-2.534h3.332v2.534Zm0-3.332H12V12h3.332v2.488Z" clip-rule="evenodd"/>
</svg>
