<svg xmlns="http://www.w3.org/2000/svg" width="24" height="24" fill="none" viewBox="0 0 24 24">
  <path fill="#000" fill-rule="evenodd" d="M6.647 14.093v-2.078A5.644 5.644 0 0 1 9.96 6.752a2.48 2.48 0 0 1 2.485-2.215 2.523 2.523 0 0 1 2.486 2.492.446.446 0 0 1-.414.416.399.399 0 0 1-.415-.416 1.637 1.637 0 0 0-1.657-1.661 1.598 1.598 0 0 0-1.657 1.661.461.461 0 0 1-.275.347 4.922 4.922 0 0 0-3.039 4.639v2.078a.446.446 0 0 1-.414.416.4.4 0 0 1-.414-.416Zm12.872 3.323a.45.45 0 0 1-.415.416h-5.055a2.123 2.123 0 0 1-2.019 1.685 2.066 2.066 0 0 1-2.022-1.685h-.044a.401.401 0 0 1-.416-.416.367.367 0 0 1 .416-.415h7.478a2.074 2.074 0 0 1-.416-1.247v-3.739a4.652 4.652 0 0 0-.415-1.939.42.42 0 1 1 .762-.346c.293.728.456 1.501.484 2.285v3.74A1.24 1.24 0 0 0 19.103 17a.4.4 0 0 1 .416.415Zm-6.318.416H10.86a1.228 1.228 0 0 0 2.34 0Zm8.66-15.728a.518.518 0 0 0-.623 0L2.105 21.238a.516.516 0 0 0 0 .623c.139.07.208.139.346.139a.521.521 0 0 0 .277-.139L21.862 2.728a.517.517 0 0 0 0-.626v.002Z" clip-rule="evenodd"/>
</svg>
