<svg width="66" height="89" viewBox="0 0 66 89" fill="none" xmlns="http://www.w3.org/2000/svg">
<path d="M37.1938 3.71191C37.2445 3.7168 37.2942 3.73173 37.3394 3.75586C37.3846 3.78004 37.4247 3.81344 37.4575 3.85352C37.4739 3.87353 37.4883 3.89515 37.5005 3.91797L37.5308 3.99023L40.6558 14.2686H23.9214C23.421 14.2692 22.9414 14.4698 22.5884 14.8252C22.2355 15.1805 22.0372 15.6618 22.0366 16.1631V54.5195L17.8843 55.7998C17.7856 55.8301 17.6788 55.8203 17.5874 55.7715C17.4959 55.7225 17.4259 55.6384 17.395 55.5371L4.79053 14.085C4.75992 13.9838 4.77076 13.8745 4.81982 13.7812C4.86904 13.688 4.95258 13.6184 5.05127 13.5879L11.5815 11.5752L30.5122 5.74121L37.0425 3.72754C37.0913 3.71241 37.1431 3.70706 37.1938 3.71191Z" stroke="#E9D4FF" stroke-width="0.8"/>
<path d="M29.8002 3.40356L38.9809 0.574313C39.1922 0.509129 39.4142 0.486499 39.6342 0.507721C39.8541 0.528943 40.0678 0.593599 40.263 0.697994C40.4581 0.802388 40.6309 0.944474 40.7715 1.11613C40.9121 1.2878 41.0177 1.48566 41.0823 1.69844L44.9655 14.4684L45.0259 14.6677H44.82L44.7586 14.4684L40.8933 1.75624C40.8002 1.45069 40.6123 1.18318 40.3572 0.992913C40.1022 0.802643 39.7933 0.699602 39.4758 0.698885C39.3279 0.699024 39.1808 0.721188 39.0393 0.764658L29.8586 3.5949M10.8706 9.23844L1.68985 12.0687C1.26336 12.2005 0.906253 12.4974 0.696916 12.894C0.48758 13.2907 0.443114 13.7547 0.573281 14.1844L13.845 57.8269C13.9508 58.1737 14.1641 58.4772 14.4538 58.693C14.7435 58.9088 15.0942 59.0254 15.4545 59.0257C15.6213 59.0258 15.7871 59.0006 15.9464 58.951L22.2398 57.0117L22.4378 56.9499V56.7416L22.2398 56.8024L15.8881 58.7607C15.5116 58.8762 15.105 58.8367 14.7574 58.6508C14.4099 58.4649 14.1497 58.1478 14.0341 57.7691L0.76337 14.1256C0.706067 13.9379 0.686096 13.7407 0.704598 13.5453C0.723101 13.3498 0.779712 13.16 0.871195 12.9866C0.962678 12.8132 1.08723 12.6597 1.23773 12.5349C1.38822 12.41 1.5617 12.3163 1.74823 12.259L10.929 9.42878" stroke="url(#paint0_linear_4780_34676)"/>
<path d="M28.6404 2.30566C28.7642 2.2677 28.8978 2.28051 29.0125 2.3418C29.0984 2.38781 29.1686 2.4582 29.2146 2.54395L29.2527 2.63477L30.5271 6.82715C30.5653 6.95377 30.5525 7.0904 30.491 7.20703C30.4294 7.32366 30.3247 7.40985 30.2009 7.44824L12.7859 12.8164C12.7397 12.8307 12.6915 12.8369 12.6433 12.8369C12.5389 12.8367 12.4368 12.8041 12.3523 12.7412C12.2678 12.6783 12.2048 12.5894 12.1736 12.4873L10.8992 8.29492C10.8801 8.23226 10.8734 8.1659 10.8796 8.10059C10.8859 8.03529 10.9048 7.97179 10.9353 7.91406C10.9657 7.85658 11.0069 7.80588 11.0564 7.76465C11.1062 7.72331 11.164 7.69176 11.2253 7.67285L28.6404 2.30566Z" stroke="url(#paint1_linear_4780_34676)" stroke-width="0.8"/>
<path d="M17.9543 4.48625C19.0476 4.48625 19.934 3.5939 19.934 2.49313C19.934 1.39235 19.0476 0.5 17.9543 0.5C16.8609 0.5 15.9746 1.39235 15.9746 2.49313C15.9746 3.5939 16.8609 4.48625 17.9543 4.48625Z" fill="url(#paint2_linear_4780_34676)"/>
<path d="M17.9521 3.75371C18.6444 3.75371 19.2057 3.18865 19.2057 2.4916C19.2057 1.79456 18.6444 1.22949 17.9521 1.22949C17.2597 1.22949 16.6985 1.79456 16.6985 2.4916C16.6985 3.18865 17.2597 3.75371 17.9521 3.75371Z" fill="white"/>
<path d="M26.6921 16.8618H60.1482C60.2642 16.8621 60.3758 16.9083 60.4587 16.9917C60.5212 17.0546 60.5636 17.1346 60.5808 17.2212L60.5896 17.3091V57.6694C60.5893 57.7887 60.5417 57.9023 60.4587 57.9858C60.3757 58.0694 60.2635 58.1166 60.1472 58.1167H26.6921L26.6062 58.1079C26.5217 58.0909 26.4429 58.0486 26.3806 57.9858C26.3185 57.9232 26.2768 57.8435 26.2595 57.7573L26.2507 57.6685V17.3091C26.2509 17.1896 26.2976 17.0754 26.3806 16.9917C26.4429 16.929 26.5217 16.8867 26.6062 16.8696L26.6921 16.8618Z" stroke="#E9D4FF" stroke-width="0.8"/>
<path d="M62.9213 14.4692H23.9217C23.4756 14.4698 23.048 14.6485 22.7326 14.9661C22.4171 15.2837 22.2396 15.7142 22.239 16.1633V61.8059C22.2396 62.2551 22.4171 62.6856 22.7326 63.0032C23.048 63.3208 23.4756 63.4995 23.9217 63.5001H62.9213C63.3674 63.4995 63.795 63.3208 64.1105 63.0032C64.4259 62.6856 64.6034 62.2551 64.604 61.8059V16.1633C64.6034 15.7142 64.4259 15.2837 64.1105 14.9661C63.795 14.6485 63.3674 14.4698 62.9213 14.4692ZM64.406 61.8059C64.4056 62.2023 64.249 62.5822 63.9706 62.8624C63.6923 63.1427 63.3149 63.3003 62.9213 63.3008H23.9217C23.5281 63.3003 23.1507 63.1427 22.8724 62.8624C22.594 62.5822 22.4375 62.2023 22.437 61.8059V16.1633C22.4375 15.767 22.594 15.3871 22.8724 15.1069C23.1507 14.8266 23.5281 14.669 23.9217 14.6685L43.6039 14.3159L62.9213 14.6685C63.3149 14.669 63.6923 14.8266 63.9706 15.1069C64.249 15.3871 64.4056 15.767 64.406 16.1633V61.8059Z" fill="url(#paint3_linear_4780_34676)"/>
<path d="M22.239 16.1633C22.2396 15.7142 22.4171 15.2837 22.7326 14.9661C23.048 14.6485 23.4756 14.4698 23.9217 14.4692H62.9213C63.3674 14.4698 63.795 14.6485 64.1105 14.9661C64.4259 15.2837 64.6034 15.7142 64.604 16.1633V61.8059C64.6034 62.2551 64.4259 62.6856 64.1105 63.0032C63.795 63.3208 63.3674 63.4995 62.9213 63.5001H23.9217C23.4756 63.4995 23.048 63.3208 22.7326 63.0032C22.4171 62.6856 22.2396 62.2551 22.239 61.8059V16.1633ZM22.239 16.1633V56.8032L22.437 56.7424V16.1633M22.437 16.1633C22.4375 15.767 22.594 15.3871 22.8724 15.1069C23.1507 14.8266 23.5281 14.669 23.9217 14.6685L43.6039 14.3159L62.9213 14.6685C63.3149 14.669 63.6923 14.8266 63.9706 15.1069C64.249 15.3871 64.4056 15.767 64.406 16.1633V61.8059C64.4056 62.2023 64.249 62.5822 63.9706 62.8624C63.6923 63.1427 63.3149 63.3003 62.9213 63.3008H23.9217C23.5281 63.3003 23.1507 63.1427 22.8724 62.8624C22.594 62.5822 22.4375 62.2023 22.437 61.8059V16.1633Z" stroke="url(#paint4_linear_4780_34676)"/>
<path d="M52.5288 13.0757C52.658 13.0759 52.7822 13.1274 52.8745 13.2202C52.9439 13.2901 52.9912 13.3789 53.0103 13.4751L53.02 13.5728V17.9575C53.0196 18.0899 52.9667 18.2163 52.8745 18.3091C52.7822 18.4019 52.658 18.4534 52.5288 18.4536H34.3169C34.1875 18.4535 34.0625 18.402 33.9702 18.3091C33.9009 18.2392 33.8546 18.1503 33.8354 18.0542L33.8257 17.9565V13.5728C33.8258 13.4401 33.8778 13.3132 33.9702 13.2202C34.0395 13.1504 34.1271 13.1034 34.2212 13.0845L34.3169 13.0757H52.5288Z" stroke="url(#paint5_linear_4780_34676)" stroke-width="0.8"/>
<path d="M43.4221 11.8691C44.5154 11.8691 45.4017 10.9767 45.4017 9.87594C45.4017 8.77517 44.5154 7.88281 43.4221 7.88281C42.3287 7.88281 41.4424 8.77517 41.4424 9.87594C41.4424 10.9767 42.3287 11.8691 43.4221 11.8691Z" fill="url(#paint6_linear_4780_34676)"/>
<path d="M43.4231 11.0901C44.089 11.0901 44.6289 10.5466 44.6289 9.87614C44.6289 9.20567 44.089 8.66214 43.4231 8.66214C42.7571 8.66214 42.2173 9.20567 42.2173 9.87614C42.2173 10.5466 42.7571 11.0901 43.4231 11.0901Z" fill="white"/>
<rect width="17.6842" height="2.21053" transform="translate(34.7632 13.7632)" fill="#F4E7FB"/>
<defs>
<linearGradient id="paint0_linear_4780_34676" x1="0.5" y1="29.7629" x2="45.0259" y2="29.7629" gradientUnits="userSpaceOnUse">
<stop stop-color="#7100EC"/>
<stop offset="1" stop-color="#8901C5"/>
</linearGradient>
<linearGradient id="paint1_linear_4780_34676" x1="10.4773" y1="7.56095" x2="30.9489" y2="7.56095" gradientUnits="userSpaceOnUse">
<stop stop-color="#7100EC"/>
<stop offset="1" stop-color="#8901C5"/>
</linearGradient>
<linearGradient id="paint2_linear_4780_34676" x1="16.4195" y1="0.807626" x2="18.6569" y2="4.14683" gradientUnits="userSpaceOnUse">
<stop offset="0.11" stop-color="#7100EC"/>
<stop offset="0.53" stop-color="#7100EC"/>
<stop offset="0.93" stop-color="#49009D"/>
</linearGradient>
<linearGradient id="paint3_linear_4780_34676" x1="22.239" y1="38.9846" x2="64.604" y2="38.9846" gradientUnits="userSpaceOnUse">
<stop stop-color="#7100EC"/>
<stop offset="1" stop-color="#8901C5"/>
</linearGradient>
<linearGradient id="paint4_linear_4780_34676" x1="22.239" y1="38.908" x2="64.604" y2="38.908" gradientUnits="userSpaceOnUse">
<stop stop-color="#7100EC"/>
<stop offset="1" stop-color="#8901C5"/>
</linearGradient>
<linearGradient id="paint5_linear_4780_34676" x1="33.4253" y1="15.7646" x2="53.42" y2="15.7646" gradientUnits="userSpaceOnUse">
<stop stop-color="#7100EC"/>
<stop offset="1" stop-color="#8901C5"/>
</linearGradient>
<linearGradient id="paint6_linear_4780_34676" x1="41.8872" y1="8.19044" x2="44.1247" y2="11.5296" gradientUnits="userSpaceOnUse">
<stop offset="0.11" stop-color="#7100EC"/>
<stop offset="0.53" stop-color="#7100EC"/>
<stop offset="0.93" stop-color="#49009D"/>
</linearGradient>
</defs>
</svg>
